<svg width="1092" height="903" viewBox="0 0 1092 903" fill="none" xmlns="http://www.w3.org/2000/svg">
<rect x="2.04932" y="2.25684" width="1087.92" height="898.865" fill="#D9D9D9" stroke="black" stroke-width="3" stroke-dasharray="6 6"/>
<path d="M786.115 384.783H397.095" stroke="#575757" stroke-width="4" stroke-linecap="round" stroke-linejoin="round"/>
<path d="M786.115 279.407H285.946" stroke="#575757" stroke-width="4" stroke-linecap="round" stroke-linejoin="round"/>
<path d="M786.115 490.159H285.946" stroke="#575757" stroke-width="4" stroke-linecap="round" stroke-linejoin="round"/>
<path d="M786.115 595.534H397.095" stroke="#575757" stroke-width="4" stroke-linecap="round" stroke-linejoin="round"/>
<path d="M789.969 451.689L804.969 460.349V443.029L789.969 451.689ZM1089.97 451.689L1074.97 443.029V460.349L1089.97 451.689ZM803.469 453.189H1076.47V450.189H803.469V453.189Z" fill="#575757"/>
<path d="M536.031 899.407L544.691 884.407H527.371L536.031 899.407ZM536.031 599.407L527.371 614.407H544.691L536.031 599.407ZM537.531 885.907V612.907H534.531V885.907H537.531Z" fill="#575757"/>
<path d="M885.963 386.592C888.873 386.592 891.402 387.09 893.551 388.086C895.699 389.062 897.359 390.488 898.531 392.363C899.723 394.238 900.318 396.514 900.318 399.189C900.318 402.119 899.684 404.648 898.414 406.777C897.145 408.887 895.318 410.518 892.936 411.67C890.553 412.803 887.701 413.369 884.381 413.369C882.154 413.369 880.084 413.174 878.17 412.783C876.256 412.393 874.645 411.807 873.336 411.025V406.396C874.762 407.256 876.49 407.939 878.521 408.447C880.553 408.955 882.525 409.209 884.439 409.209C886.607 409.209 888.502 408.867 890.123 408.184C891.764 407.48 893.033 406.426 893.932 405.02C894.85 403.594 895.309 401.807 895.309 399.658C895.309 396.807 894.43 394.609 892.672 393.066C890.934 391.504 888.18 390.723 884.41 390.723C883.199 390.723 881.871 390.82 880.426 391.016C878.98 391.211 877.789 391.426 876.852 391.66L874.391 390.049L876.031 369.951H897.33V374.404H880.191L879.107 387.324C879.85 387.168 880.807 387.012 881.979 386.855C883.15 386.68 884.479 386.592 885.963 386.592ZM921.399 386.592C924.309 386.592 926.838 387.09 928.987 388.086C931.135 389.062 932.795 390.488 933.967 392.363C935.159 394.238 935.754 396.514 935.754 399.189C935.754 402.119 935.12 404.648 933.85 406.777C932.58 408.887 930.754 410.518 928.371 411.67C925.989 412.803 923.137 413.369 919.817 413.369C917.59 413.369 915.52 413.174 913.606 412.783C911.692 412.393 910.08 411.807 908.772 411.025V406.396C910.198 407.256 911.926 407.939 913.957 408.447C915.989 408.955 917.961 409.209 919.875 409.209C922.043 409.209 923.938 408.867 925.559 408.184C927.2 407.48 928.469 406.426 929.368 405.02C930.286 403.594 930.745 401.807 930.745 399.658C930.745 396.807 929.866 394.609 928.108 393.066C926.37 391.504 923.616 390.723 919.846 390.723C918.635 390.723 917.307 390.82 915.862 391.016C914.416 391.211 913.225 391.426 912.287 391.66L909.827 390.049L911.467 369.951H932.766V374.404H915.627L914.543 387.324C915.286 387.168 916.243 387.012 917.414 386.855C918.586 386.68 919.914 386.592 921.399 386.592ZM960.555 380.088C964.559 380.088 967.753 381.465 970.136 384.219C972.518 386.973 973.71 391.113 973.71 396.641C973.71 400.293 973.163 403.359 972.069 405.84C970.975 408.32 969.432 410.195 967.44 411.465C965.468 412.734 963.134 413.369 960.438 413.369C958.739 413.369 957.245 413.145 955.956 412.695C954.667 412.246 953.563 411.641 952.645 410.879C951.727 410.117 950.966 409.287 950.36 408.389H950.009C950.067 409.15 950.136 410.068 950.214 411.143C950.311 412.217 950.36 413.154 950.36 413.955V427.139H945.468V380.674H949.481L950.126 385.42H950.36C950.985 384.443 951.747 383.555 952.645 382.754C953.544 381.934 954.637 381.289 955.927 380.82C957.235 380.332 958.778 380.088 960.555 380.088ZM959.706 384.189C957.479 384.189 955.682 384.619 954.315 385.479C952.968 386.338 951.981 387.627 951.356 389.346C950.731 391.045 950.399 393.184 950.36 395.762V396.699C950.36 399.414 950.653 401.709 951.239 403.584C951.845 405.459 952.831 406.885 954.198 407.861C955.585 408.838 957.44 409.326 959.764 409.326C961.757 409.326 963.417 408.789 964.745 407.715C966.073 406.641 967.059 405.146 967.704 403.232C968.368 401.299 968.7 399.082 968.7 396.582C968.7 392.793 967.958 389.785 966.473 387.559C965.009 385.312 962.753 384.189 959.706 384.189ZM990.952 396.348L979.849 380.674H985.415L993.882 393.037L1002.32 380.674H1007.83L996.724 396.348L1008.44 412.783H1002.88L993.882 399.688L984.829 412.783H979.321L990.952 396.348Z" fill="#575757"/>
<path d="M575.299 687.403L613.678 704.981V681.632H618.131V710.196H614.381L575.299 692.735V687.403ZM575.299 722.839L613.678 740.417V717.068H618.131V745.632H614.381L575.299 728.171V722.839ZM607.994 769.994C607.994 773.998 606.617 777.191 603.863 779.574C601.109 781.957 596.969 783.148 591.441 783.148C587.789 783.148 584.723 782.601 582.242 781.508C579.762 780.414 577.887 778.871 576.617 776.879C575.348 774.906 574.713 772.572 574.713 769.877C574.713 768.178 574.938 766.683 575.387 765.394C575.836 764.105 576.441 763.002 577.203 762.084C577.965 761.166 578.795 760.404 579.693 759.799V759.447C578.932 759.506 578.014 759.574 576.939 759.652C575.865 759.75 574.928 759.799 574.127 759.799H560.943V754.906H607.408V758.92L602.662 759.564V759.799C603.639 760.424 604.527 761.185 605.328 762.084C606.148 762.982 606.793 764.076 607.262 765.365C607.75 766.674 607.994 768.217 607.994 769.994ZM603.893 769.144C603.893 766.918 603.463 765.121 602.604 763.754C601.744 762.406 600.455 761.42 598.736 760.795C597.037 760.17 594.898 759.838 592.32 759.799H591.383C588.668 759.799 586.373 760.092 584.498 760.678C582.623 761.283 581.197 762.269 580.221 763.637C579.244 765.023 578.756 766.879 578.756 769.203C578.756 771.195 579.293 772.855 580.367 774.183C581.441 775.512 582.936 776.498 584.85 777.142C586.783 777.806 589 778.138 591.5 778.138C595.289 778.138 598.297 777.396 600.523 775.912C602.77 774.447 603.893 772.191 603.893 769.144ZM591.734 800.391L607.408 789.287V794.854L595.045 803.321L607.408 811.758V817.266L591.734 806.162L575.299 817.881V812.315L588.395 803.321L575.299 794.268V788.76L591.734 800.391Z" fill="#575757"/>
<path d="M520.651 380.91H515.141V338.628H500.316V333.794H535.411V338.628H520.651V380.91ZM555.327 344.945C558.335 344.945 560.913 345.611 563.062 346.943C565.21 348.275 566.854 350.144 567.992 352.55C569.131 354.935 569.7 357.728 569.7 360.929V364.249H545.305C545.369 368.395 546.4 371.553 548.398 373.723C550.396 375.893 553.211 376.978 556.842 376.978C559.076 376.978 561.053 376.774 562.771 376.366C564.49 375.958 566.273 375.356 568.121 374.561V379.266C566.338 380.061 564.565 380.641 562.804 381.006C561.063 381.372 559.001 381.554 556.616 381.554C553.222 381.554 550.257 380.867 547.722 379.492C545.208 378.095 543.253 376.054 541.856 373.369C540.46 370.683 539.762 367.396 539.762 363.507C539.762 359.705 540.396 356.417 541.663 353.646C542.952 350.853 544.757 348.705 547.077 347.201C549.419 345.697 552.169 344.945 555.327 344.945ZM555.263 349.328C552.405 349.328 550.128 350.262 548.431 352.131C546.733 354 545.724 356.611 545.401 359.962H564.093C564.071 357.857 563.738 356.009 563.094 354.419C562.471 352.808 561.515 351.562 560.226 350.681C558.937 349.779 557.282 349.328 555.263 349.328ZM587.199 362.831L574.985 345.589H581.108L590.422 359.189L599.703 345.589H605.762L593.548 362.831L606.438 380.91H600.315L590.422 366.504L580.464 380.91H574.405L587.199 362.831ZM624.743 377.171C625.624 377.171 626.526 377.096 627.45 376.946C628.374 376.795 629.126 376.613 629.706 376.398V380.555C629.083 380.834 628.213 381.071 627.096 381.264C626 381.458 624.926 381.554 623.873 381.554C622.004 381.554 620.307 381.232 618.781 380.587C617.256 379.921 616.031 378.804 615.107 377.236C614.205 375.667 613.754 373.498 613.754 370.726V349.779H608.727V347.168L613.786 345.074L615.913 337.404H619.136V345.589H629.48V349.779H619.136V370.565C619.136 372.778 619.641 374.432 620.65 375.528C621.682 376.624 623.046 377.171 624.743 377.171ZM659.354 330.765V345.75C659.354 346.61 659.333 347.48 659.29 348.361C659.247 349.22 659.172 350.015 659.064 350.746H659.419C660.149 349.5 661.073 348.458 662.19 347.62C663.329 346.76 664.618 346.116 666.058 345.686C667.497 345.235 669.022 345.009 670.634 345.009C673.47 345.009 675.833 345.46 677.724 346.363C679.636 347.265 681.064 348.662 682.01 350.552C682.977 352.443 683.46 354.892 683.46 357.9V380.91H678.175V358.254C678.175 355.311 677.498 353.109 676.145 351.648C674.812 350.187 672.761 349.457 669.989 349.457C667.368 349.457 665.273 349.961 663.705 350.971C662.158 351.959 661.041 353.42 660.354 355.354C659.688 357.288 659.354 359.651 659.354 362.444V380.91H654.005V330.765H659.354ZM708.081 344.945C711.089 344.945 713.667 345.611 715.815 346.943C717.964 348.275 719.607 350.144 720.746 352.55C721.885 354.935 722.454 357.728 722.454 360.929V364.249H698.059C698.123 368.395 699.154 371.553 701.152 373.723C703.15 375.893 705.965 376.978 709.596 376.978C711.83 376.978 713.807 376.774 715.525 376.366C717.244 375.958 719.027 375.356 720.875 374.561V379.266C719.092 380.061 717.319 380.641 715.558 381.006C713.817 381.372 711.755 381.554 709.37 381.554C705.976 381.554 703.011 380.867 700.476 379.492C697.962 378.095 696.007 376.054 694.61 373.369C693.214 370.683 692.516 367.396 692.516 363.507C692.516 359.705 693.149 356.417 694.417 353.646C695.706 350.853 697.511 348.705 699.831 347.201C702.173 345.697 704.923 344.945 708.081 344.945ZM708.017 349.328C705.159 349.328 702.882 350.262 701.185 352.131C699.487 354 698.478 356.611 698.155 359.962H716.847C716.825 357.857 716.492 356.009 715.848 354.419C715.225 352.808 714.269 351.562 712.979 350.681C711.69 349.779 710.036 349.328 708.017 349.328ZM747.591 344.945C748.3 344.945 749.041 344.988 749.814 345.074C750.588 345.138 751.275 345.235 751.877 345.364L751.2 350.327C750.62 350.176 749.976 350.058 749.267 349.972C748.558 349.886 747.892 349.843 747.269 349.843C745.851 349.843 744.508 350.133 743.24 350.713C741.994 351.272 740.898 352.088 739.953 353.163C739.008 354.215 738.267 355.494 737.729 356.998C737.192 358.48 736.924 360.134 736.924 361.96V380.91H731.542V345.589H735.989L736.569 352.099H736.795C737.525 350.789 738.406 349.596 739.438 348.522C740.469 347.426 741.661 346.556 743.015 345.912C744.39 345.267 745.915 344.945 747.591 344.945ZM772.147 344.945C775.155 344.945 777.733 345.611 779.882 346.943C782.03 348.275 783.674 350.144 784.812 352.55C785.951 354.935 786.521 357.728 786.521 360.929V364.249H762.125C762.189 368.395 763.221 371.553 765.219 373.723C767.217 375.893 770.031 376.978 773.662 376.978C775.896 376.978 777.873 376.774 779.592 376.366C781.311 375.958 783.094 375.356 784.941 374.561V379.266C783.158 380.061 781.386 380.641 779.624 381.006C777.884 381.372 775.821 381.554 773.437 381.554C770.042 381.554 767.077 380.867 764.542 379.492C762.028 378.095 760.073 376.054 758.677 373.369C757.28 370.683 756.582 367.396 756.582 363.507C756.582 359.705 757.216 356.417 758.483 353.646C759.772 350.853 761.577 348.705 763.897 347.201C766.239 345.697 768.989 344.945 772.147 344.945ZM772.083 349.328C769.226 349.328 766.948 350.262 765.251 352.131C763.554 354 762.544 356.611 762.222 359.962H780.913C780.892 357.857 780.559 356.009 779.914 354.419C779.291 352.808 778.335 351.562 777.046 350.681C775.757 349.779 774.103 349.328 772.083 349.328Z" fill="#575757"/>
</svg>
