<svg width="286" height="174" viewBox="0 0 286 174" fill="none" xmlns="http://www.w3.org/2000/svg">
<rect x="0.0102539" y="1.05835" width="135" height="35" rx="1" fill="#575757"/>
<path d="M21.2056 13.1365H24.4399C25.867 13.1365 26.9399 13.35 27.6587 13.7771C28.3774 14.2042 28.7368 14.9307 28.7368 15.9568C28.7368 16.3995 28.6509 16.7979 28.479 17.1521C28.3123 17.5011 28.0675 17.7901 27.7446 18.0193C27.4217 18.2485 27.0233 18.4073 26.5493 18.4958V18.574C27.0493 18.6521 27.492 18.7953 27.8774 19.0037C28.2629 19.212 28.5649 19.5037 28.7837 19.8787C29.0024 20.2537 29.1118 20.7302 29.1118 21.3083C29.1118 22.0115 28.9478 22.6052 28.6196 23.0896C28.2967 23.574 27.8384 23.9412 27.2446 24.1912C26.6509 24.436 25.9478 24.5583 25.1353 24.5583H21.2056V13.1365ZM22.5337 18.0349H24.7212C25.716 18.0349 26.4035 17.8708 26.7837 17.5427C27.1691 17.2146 27.3618 16.7354 27.3618 16.1052C27.3618 15.4542 27.1326 14.9854 26.6743 14.699C26.2212 14.4125 25.4972 14.2693 24.5024 14.2693H22.5337V18.0349ZM22.5337 19.1521V23.4255H24.9087C25.9243 23.4255 26.6431 23.2276 27.0649 22.8318C27.4868 22.4307 27.6978 21.8917 27.6978 21.2146C27.6978 20.7823 27.6014 20.4125 27.4087 20.1052C27.2212 19.7979 26.9139 19.5636 26.4868 19.4021C26.0649 19.2354 25.4998 19.1521 24.7915 19.1521H22.5337ZM38.4243 15.9958V24.5583H37.3618L37.1743 23.3552H37.104C36.9269 23.6521 36.6978 23.9021 36.4165 24.1052C36.1353 24.3083 35.8175 24.4594 35.4634 24.5583C35.1144 24.6625 34.742 24.7146 34.3462 24.7146C33.6691 24.7146 33.1014 24.6052 32.6431 24.3865C32.1847 24.1677 31.8384 23.8292 31.604 23.3708C31.3748 22.9125 31.2603 22.324 31.2603 21.6052V15.9958H32.5728V21.5115C32.5728 22.225 32.7342 22.7589 33.0571 23.113C33.38 23.462 33.8722 23.6365 34.5337 23.6365C35.1691 23.6365 35.6743 23.5167 36.0493 23.2771C36.4295 23.0375 36.703 22.686 36.8696 22.2224C37.0363 21.7537 37.1196 21.1807 37.1196 20.5037V15.9958H38.4243ZM43.9321 23.6521C44.1457 23.6521 44.3644 23.6339 44.5884 23.5974C44.8123 23.561 44.9946 23.5167 45.1353 23.4646V24.4724C44.9842 24.5401 44.7733 24.5974 44.5024 24.6443C44.2368 24.6912 43.9764 24.7146 43.7212 24.7146C43.2681 24.7146 42.8566 24.6365 42.4868 24.4802C42.117 24.3188 41.8201 24.0479 41.5962 23.6677C41.3774 23.2875 41.2681 22.7615 41.2681 22.0896V17.0115H40.0493V16.3787L41.2759 15.8708L41.7915 14.0115H42.5728V15.9958H45.0806V17.0115H42.5728V22.0505C42.5728 22.587 42.6951 22.988 42.9399 23.2537C43.1899 23.5193 43.5207 23.6521 43.9321 23.6521ZM49.6353 23.6521C49.8488 23.6521 50.0675 23.6339 50.2915 23.5974C50.5155 23.561 50.6978 23.5167 50.8384 23.4646V24.4724C50.6873 24.5401 50.4764 24.5974 50.2056 24.6443C49.9399 24.6912 49.6795 24.7146 49.4243 24.7146C48.9712 24.7146 48.5597 24.6365 48.1899 24.4802C47.8201 24.3188 47.5233 24.0479 47.2993 23.6677C47.0806 23.2875 46.9712 22.7615 46.9712 22.0896V17.0115H45.7524V16.3787L46.979 15.8708L47.4946 14.0115H48.2759V15.9958H50.7837V17.0115H48.2759V22.0505C48.2759 22.587 48.3983 22.988 48.6431 23.2537C48.8931 23.5193 49.2238 23.6521 49.6353 23.6521ZM59.9556 20.2615C59.9556 20.9646 59.8644 21.5922 59.6821 22.1443C59.4998 22.6964 59.2368 23.1625 58.8931 23.5427C58.5493 23.9229 58.1326 24.2146 57.6431 24.4177C57.1587 24.6156 56.6092 24.7146 55.9946 24.7146C55.4217 24.7146 54.8957 24.6156 54.4165 24.4177C53.9425 24.2146 53.5311 23.9229 53.1821 23.5427C52.8384 23.1625 52.5701 22.6964 52.3774 22.1443C52.1899 21.5922 52.0962 20.9646 52.0962 20.2615C52.0962 19.324 52.255 18.5271 52.5728 17.8708C52.8905 17.2094 53.3436 16.7068 53.9321 16.363C54.5259 16.0141 55.2316 15.8396 56.0493 15.8396C56.8306 15.8396 57.5129 16.0141 58.0962 16.363C58.6847 16.712 59.1405 17.2172 59.4634 17.8787C59.7915 18.5349 59.9556 19.3292 59.9556 20.2615ZM53.4399 20.2615C53.4399 20.949 53.5311 21.5453 53.7134 22.0505C53.8957 22.5557 54.1769 22.9464 54.5571 23.2224C54.9373 23.4985 55.4269 23.6365 56.0259 23.6365C56.6196 23.6365 57.1066 23.4985 57.4868 23.2224C57.8722 22.9464 58.1561 22.5557 58.3384 22.0505C58.5207 21.5453 58.6118 20.949 58.6118 20.2615C58.6118 19.5792 58.5207 18.9906 58.3384 18.4958C58.1561 17.9958 57.8748 17.6104 57.4946 17.3396C57.1144 17.0688 56.6222 16.9333 56.0181 16.9333C55.1274 16.9333 54.4738 17.2276 54.0571 17.8162C53.6457 18.4047 53.4399 19.2198 53.4399 20.2615ZM66.2524 15.8396C67.2681 15.8396 68.0363 16.0896 68.5571 16.5896C69.078 17.0844 69.3384 17.8813 69.3384 18.9802V24.5583H68.0571V19.0662C68.0571 18.3526 67.8931 17.8188 67.5649 17.4646C67.242 17.1104 66.7446 16.9333 66.0728 16.9333C65.1248 16.9333 64.4582 17.2016 64.0728 17.738C63.6873 18.2745 63.4946 19.0531 63.4946 20.074V24.5583H62.1978V15.9958H63.2446L63.4399 17.2302H63.5103C63.6925 16.9281 63.9243 16.6755 64.2056 16.4724C64.4868 16.2641 64.8019 16.1078 65.1509 16.0037C65.4998 15.8943 65.867 15.8396 66.2524 15.8396ZM82.8071 21.5193C82.8071 22.1964 82.6379 22.7745 82.2993 23.2537C81.966 23.7276 81.4972 24.0896 80.8931 24.3396C80.2889 24.5896 79.578 24.7146 78.7603 24.7146C78.328 24.7146 77.9191 24.6938 77.5337 24.6521C77.1483 24.6104 76.7941 24.5505 76.4712 24.4724C76.1483 24.3943 75.8644 24.2979 75.6196 24.1833V22.9099C76.0103 23.0714 76.4868 23.2224 77.0493 23.363C77.6118 23.4985 78.2004 23.5662 78.8149 23.5662C79.3879 23.5662 79.8722 23.4906 80.2681 23.3396C80.6639 23.1833 80.9634 22.962 81.1665 22.6755C81.3748 22.3839 81.479 22.0349 81.479 21.6287C81.479 21.238 81.3931 20.9125 81.2212 20.6521C81.0493 20.3865 80.7629 20.1469 80.3618 19.9333C79.966 19.7146 79.4243 19.4828 78.7368 19.238C78.2524 19.0662 77.8254 18.8787 77.4556 18.6755C77.0858 18.4672 76.7759 18.2328 76.5259 17.9724C76.2759 17.712 76.0858 17.4099 75.9556 17.0662C75.8306 16.7224 75.7681 16.3292 75.7681 15.8865C75.7681 15.2771 75.9217 14.7563 76.229 14.324C76.5415 13.8865 76.9712 13.5531 77.5181 13.324C78.0701 13.0896 78.703 12.9724 79.4165 12.9724C80.0259 12.9724 80.5884 13.0297 81.104 13.1443C81.6248 13.2589 82.1014 13.4125 82.5337 13.6052L82.1196 14.7458C81.7082 14.574 81.2707 14.4307 80.8071 14.3162C80.3488 14.2016 79.8748 14.1443 79.3853 14.1443C78.8957 14.1443 78.4816 14.2172 78.1431 14.363C77.8097 14.5037 77.5545 14.7042 77.3774 14.9646C77.2004 15.225 77.1118 15.5349 77.1118 15.8943C77.1118 16.2953 77.1951 16.6287 77.3618 16.8943C77.5337 17.1599 77.8045 17.3969 78.1743 17.6052C78.5493 17.8083 79.0441 18.0219 79.6587 18.2458C80.3306 18.4906 80.9009 18.7511 81.3696 19.0271C81.8384 19.2979 82.1951 19.6313 82.4399 20.0271C82.6847 20.4177 82.8071 20.9151 82.8071 21.5193ZM94.2446 15.8396C95.1873 15.8396 95.8983 16.087 96.3774 16.5818C96.8566 17.0714 97.0962 17.8604 97.0962 18.949V24.5583H95.8149V19.0115C95.8149 18.3188 95.6639 17.8005 95.3618 17.4568C95.0649 17.1078 94.6222 16.9333 94.0337 16.9333C93.2056 16.9333 92.604 17.1729 92.229 17.6521C91.854 18.1313 91.6665 18.837 91.6665 19.7693V24.5583H90.3774V19.0115C90.3774 18.5479 90.3097 18.1625 90.1743 17.8552C90.0441 17.5479 89.8462 17.3188 89.5806 17.1677C89.3201 17.0115 88.9894 16.9333 88.5884 16.9333C88.0207 16.9333 87.5649 17.0505 87.2212 17.2849C86.8774 17.5193 86.6274 17.8682 86.4712 18.3318C86.3201 18.7901 86.2446 19.3552 86.2446 20.0271V24.5583H84.9478V15.9958H85.9946L86.1899 17.2068H86.2603C86.4321 16.9099 86.6483 16.6599 86.9087 16.4568C87.1691 16.2537 87.4608 16.1 87.7837 15.9958C88.1066 15.8917 88.4504 15.8396 88.8149 15.8396C89.466 15.8396 90.0103 15.962 90.4478 16.2068C90.8905 16.4464 91.2108 16.8136 91.4087 17.3083H91.479C91.7603 16.8136 92.1457 16.4464 92.6353 16.2068C93.1248 15.962 93.6613 15.8396 94.2446 15.8396ZM102.963 15.8552C103.984 15.8552 104.742 16.0844 105.237 16.5427C105.732 17.0011 105.979 17.7328 105.979 18.738V24.5583H105.034L104.784 23.2927H104.721C104.482 23.6052 104.232 23.8682 103.971 24.0818C103.711 24.2901 103.409 24.449 103.065 24.5583C102.726 24.6625 102.31 24.7146 101.815 24.7146C101.294 24.7146 100.831 24.6235 100.424 24.4412C100.023 24.2589 99.7056 23.9828 99.4712 23.613C99.242 23.2432 99.1274 22.7745 99.1274 22.2068C99.1274 21.3526 99.466 20.6964 100.143 20.238C100.82 19.7797 101.851 19.5297 103.237 19.488L104.713 19.4255V18.9021C104.713 18.1625 104.555 17.6443 104.237 17.3474C103.919 17.0505 103.471 16.9021 102.893 16.9021C102.445 16.9021 102.018 16.9672 101.612 17.0974C101.206 17.2276 100.82 17.3813 100.456 17.5583L100.057 16.574C100.443 16.3761 100.885 16.2068 101.385 16.0662C101.885 15.9255 102.411 15.8552 102.963 15.8552ZM104.698 20.3396L103.393 20.3943C102.325 20.436 101.573 20.6104 101.135 20.9177C100.698 21.225 100.479 21.6599 100.479 22.2224C100.479 22.712 100.627 23.074 100.924 23.3083C101.221 23.5427 101.614 23.6599 102.104 23.6599C102.864 23.6599 103.487 23.449 103.971 23.0271C104.456 22.6052 104.698 21.9724 104.698 21.1287V20.3396ZM109.956 24.5583H108.651V12.4021H109.956V24.5583ZM114.002 24.5583H112.698V12.4021H114.002V24.5583Z" fill="white"/>
<rect x="147.017" y="0.956055" width="135" height="35" rx="1" fill="#575757"/>
<path d="M168.505 12.4319H171.74C173.167 12.4319 174.24 12.6454 174.958 13.0725C175.677 13.4996 176.036 14.2262 176.036 15.2522C176.036 15.6949 175.95 16.0933 175.779 16.4475C175.612 16.7965 175.367 17.0855 175.044 17.3147C174.721 17.5439 174.323 17.7027 173.849 17.7913V17.8694C174.349 17.9475 174.792 18.0907 175.177 18.2991C175.562 18.5074 175.865 18.7991 176.083 19.1741C176.302 19.5491 176.411 20.0256 176.411 20.6038C176.411 21.3069 176.247 21.9006 175.919 22.385C175.596 22.8694 175.138 23.2366 174.544 23.4866C173.95 23.7314 173.247 23.8538 172.435 23.8538H168.505V12.4319ZM169.833 17.3303H172.021C173.016 17.3303 173.703 17.1663 174.083 16.8381C174.469 16.51 174.661 16.0308 174.661 15.4006C174.661 14.7496 174.432 14.2808 173.974 13.9944C173.521 13.7079 172.797 13.5647 171.802 13.5647H169.833V17.3303ZM169.833 18.4475V22.7209H172.208C173.224 22.7209 173.943 22.523 174.365 22.1272C174.786 21.7262 174.997 21.1871 174.997 20.51C174.997 20.0777 174.901 19.7079 174.708 19.4006C174.521 19.0933 174.213 18.859 173.786 18.6975C173.365 18.5308 172.799 18.4475 172.091 18.4475H169.833ZM185.724 15.2913V23.8538H184.661L184.474 22.6506H184.404C184.226 22.9475 183.997 23.1975 183.716 23.4006C183.435 23.6038 183.117 23.7548 182.763 23.8538C182.414 23.9579 182.042 24.01 181.646 24.01C180.969 24.01 180.401 23.9006 179.943 23.6819C179.484 23.4631 179.138 23.1246 178.904 22.6663C178.674 22.2079 178.56 21.6194 178.56 20.9006V15.2913H179.872V20.8069C179.872 21.5204 180.034 22.0543 180.357 22.4084C180.68 22.7574 181.172 22.9319 181.833 22.9319C182.469 22.9319 182.974 22.8121 183.349 22.5725C183.729 22.3329 184.003 21.9814 184.169 21.5178C184.336 21.0491 184.419 20.4762 184.419 19.7991V15.2913H185.724ZM191.232 22.9475C191.445 22.9475 191.664 22.9293 191.888 22.8928C192.112 22.8564 192.294 22.8121 192.435 22.76V23.7678C192.284 23.8355 192.073 23.8928 191.802 23.9397C191.536 23.9866 191.276 24.01 191.021 24.01C190.568 24.01 190.156 23.9319 189.786 23.7756C189.417 23.6142 189.12 23.3433 188.896 22.9631C188.677 22.5829 188.568 22.0569 188.568 21.385V16.3069H187.349V15.6741L188.575 15.1663L189.091 13.3069H189.872V15.2913H192.38V16.3069H189.872V21.3459C189.872 21.8824 189.995 22.2834 190.24 22.5491C190.49 22.8147 190.82 22.9475 191.232 22.9475ZM196.935 22.9475C197.148 22.9475 197.367 22.9293 197.591 22.8928C197.815 22.8564 197.997 22.8121 198.138 22.76V23.7678C197.987 23.8355 197.776 23.8928 197.505 23.9397C197.24 23.9866 196.979 24.01 196.724 24.01C196.271 24.01 195.859 23.9319 195.49 23.7756C195.12 23.6142 194.823 23.3433 194.599 22.9631C194.38 22.5829 194.271 22.0569 194.271 21.385V16.3069H193.052V15.6741L194.279 15.1663L194.794 13.3069H195.575V15.2913H198.083V16.3069H195.575V21.3459C195.575 21.8824 195.698 22.2834 195.943 22.5491C196.193 22.8147 196.523 22.9475 196.935 22.9475ZM207.255 19.5569C207.255 20.26 207.164 20.8876 206.982 21.4397C206.799 21.9918 206.536 22.4579 206.193 22.8381C205.849 23.2183 205.432 23.51 204.943 23.7131C204.458 23.9111 203.909 24.01 203.294 24.01C202.721 24.01 202.195 23.9111 201.716 23.7131C201.242 23.51 200.831 23.2183 200.482 22.8381C200.138 22.4579 199.87 21.9918 199.677 21.4397C199.49 20.8876 199.396 20.26 199.396 19.5569C199.396 18.6194 199.555 17.8225 199.872 17.1663C200.19 16.5048 200.643 16.0022 201.232 15.6584C201.825 15.3095 202.531 15.135 203.349 15.135C204.13 15.135 204.812 15.3095 205.396 15.6584C205.984 16.0074 206.44 16.5126 206.763 17.1741C207.091 17.8303 207.255 18.6246 207.255 19.5569ZM200.74 19.5569C200.74 20.2444 200.831 20.8407 201.013 21.3459C201.195 21.8512 201.476 22.2418 201.857 22.5178C202.237 22.7939 202.726 22.9319 203.325 22.9319C203.919 22.9319 204.406 22.7939 204.786 22.5178C205.172 22.2418 205.456 21.8512 205.638 21.3459C205.82 20.8407 205.911 20.2444 205.911 19.5569C205.911 18.8746 205.82 18.2861 205.638 17.7913C205.456 17.2913 205.174 16.9058 204.794 16.635C204.414 16.3642 203.922 16.2288 203.318 16.2288C202.427 16.2288 201.773 16.523 201.357 17.1116C200.945 17.7001 200.74 18.5152 200.74 19.5569ZM213.552 15.135C214.568 15.135 215.336 15.385 215.857 15.885C216.378 16.3798 216.638 17.1767 216.638 18.2756V23.8538H215.357V18.3616C215.357 17.648 215.193 17.1142 214.865 16.76C214.542 16.4058 214.044 16.2288 213.372 16.2288C212.424 16.2288 211.758 16.497 211.372 17.0334C210.987 17.5699 210.794 18.3486 210.794 19.3694V23.8538H209.497V15.2913H210.544L210.74 16.5256H210.81C210.992 16.2236 211.224 15.9709 211.505 15.7678C211.786 15.5595 212.101 15.4032 212.45 15.2991C212.799 15.1897 213.167 15.135 213.552 15.135ZM230.107 20.8147C230.107 21.4918 229.937 22.0699 229.599 22.5491C229.266 23.023 228.797 23.385 228.193 23.635C227.588 23.885 226.878 24.01 226.06 24.01C225.628 24.01 225.219 23.9892 224.833 23.9475C224.448 23.9058 224.094 23.8459 223.771 23.7678C223.448 23.6897 223.164 23.5933 222.919 23.4788V22.2053C223.31 22.3668 223.786 22.5178 224.349 22.6584C224.911 22.7939 225.5 22.8616 226.115 22.8616C226.687 22.8616 227.172 22.7861 227.568 22.635C227.963 22.4788 228.263 22.2574 228.466 21.9709C228.674 21.6793 228.779 21.3303 228.779 20.9241C228.779 20.5334 228.693 20.2079 228.521 19.9475C228.349 19.6819 228.062 19.4423 227.661 19.2288C227.266 19.01 226.724 18.7782 226.036 18.5334C225.552 18.3616 225.125 18.1741 224.755 17.9709C224.385 17.7626 224.075 17.5282 223.825 17.2678C223.575 17.0074 223.385 16.7053 223.255 16.3616C223.13 16.0178 223.068 15.6246 223.068 15.1819C223.068 14.5725 223.221 14.0517 223.529 13.6194C223.841 13.1819 224.271 12.8486 224.818 12.6194C225.37 12.385 226.003 12.2678 226.716 12.2678C227.325 12.2678 227.888 12.3251 228.404 12.4397C228.924 12.5543 229.401 12.7079 229.833 12.9006L229.419 14.0413C229.008 13.8694 228.57 13.7262 228.107 13.6116C227.648 13.497 227.174 13.4397 226.685 13.4397C226.195 13.4397 225.781 13.5126 225.443 13.6584C225.109 13.7991 224.854 13.9996 224.677 14.26C224.5 14.5204 224.411 14.8303 224.411 15.1897C224.411 15.5907 224.495 15.9241 224.661 16.1897C224.833 16.4553 225.104 16.6923 225.474 16.9006C225.849 17.1038 226.344 17.3173 226.958 17.5413C227.63 17.7861 228.2 18.0465 228.669 18.3225C229.138 18.5933 229.495 18.9267 229.74 19.3225C229.984 19.7131 230.107 20.2105 230.107 20.8147ZM241.544 15.135C242.487 15.135 243.198 15.3824 243.677 15.8772C244.156 16.3668 244.396 17.1558 244.396 18.2444V23.8538H243.115V18.3069C243.115 17.6142 242.963 17.0959 242.661 16.7522C242.365 16.4032 241.922 16.2288 241.333 16.2288C240.505 16.2288 239.904 16.4683 239.529 16.9475C239.154 17.4267 238.966 18.1324 238.966 19.0647V23.8538H237.677V18.3069C237.677 17.8433 237.609 17.4579 237.474 17.1506C237.344 16.8433 237.146 16.6142 236.88 16.4631C236.62 16.3069 236.289 16.2288 235.888 16.2288C235.32 16.2288 234.865 16.3459 234.521 16.5803C234.177 16.8147 233.927 17.1637 233.771 17.6272C233.62 18.0855 233.544 18.6506 233.544 19.3225V23.8538H232.247V15.2913H233.294L233.49 16.5022H233.56C233.732 16.2053 233.948 15.9553 234.208 15.7522C234.469 15.5491 234.76 15.3954 235.083 15.2913C235.406 15.1871 235.75 15.135 236.115 15.135C236.766 15.135 237.31 15.2574 237.747 15.5022C238.19 15.7418 238.51 16.109 238.708 16.6038H238.779C239.06 16.109 239.445 15.7418 239.935 15.5022C240.424 15.2574 240.961 15.135 241.544 15.135ZM250.263 15.1506C251.284 15.1506 252.042 15.3798 252.536 15.8381C253.031 16.2965 253.279 17.0282 253.279 18.0334V23.8538H252.333L252.083 22.5881H252.021C251.781 22.9006 251.531 23.1637 251.271 23.3772C251.01 23.5855 250.708 23.7444 250.365 23.8538C250.026 23.9579 249.609 24.01 249.115 24.01C248.594 24.01 248.13 23.9189 247.724 23.7366C247.323 23.5543 247.005 23.2782 246.771 22.9084C246.542 22.5387 246.427 22.0699 246.427 21.5022C246.427 20.648 246.766 19.9918 247.443 19.5334C248.12 19.0751 249.151 18.8251 250.536 18.7834L252.013 18.7209V18.1975C252.013 17.4579 251.854 16.9397 251.536 16.6428C251.219 16.3459 250.771 16.1975 250.193 16.1975C249.745 16.1975 249.318 16.2626 248.911 16.3928C248.505 16.523 248.12 16.6767 247.755 16.8538L247.357 15.8694C247.742 15.6715 248.185 15.5022 248.685 15.3616C249.185 15.2209 249.711 15.1506 250.263 15.1506ZM251.997 19.635L250.693 19.6897C249.625 19.7314 248.872 19.9058 248.435 20.2131C247.997 20.5204 247.779 20.9553 247.779 21.5178C247.779 22.0074 247.927 22.3694 248.224 22.6038C248.521 22.8381 248.914 22.9553 249.404 22.9553C250.164 22.9553 250.786 22.7444 251.271 22.3225C251.755 21.9006 251.997 21.2678 251.997 20.4241V19.635ZM257.255 23.8538H255.95V11.6975H257.255V23.8538ZM261.302 23.8538H259.997V11.6975H261.302V23.8538Z" fill="white"/>
<path d="M135.017 39.959H147.017" stroke="#575757" stroke-linecap="square"/>
<path d="M135.017 41.959V37.959" stroke="#575757" stroke-linecap="square"/>
<path d="M147.017 41.959V37.959" stroke="#575757" stroke-linecap="square"/>
<path d="M131.549 54.959H130.599V48.8887C130.599 48.6582 130.599 48.4609 130.599 48.2969C130.603 48.1289 130.607 47.9766 130.611 47.8398C130.619 47.6992 130.629 47.5566 130.64 47.4121C130.519 47.5371 130.406 47.6445 130.301 47.7344C130.195 47.8203 130.064 47.9277 129.908 48.0566L128.929 48.8418L128.42 48.1797L130.74 46.3926H131.549V54.959ZM140.408 54.959H134.795V54.1445L137.086 51.8184C137.511 51.3887 137.869 51.0059 138.158 50.6699C138.451 50.334 138.674 50.0039 138.826 49.6797C138.978 49.3516 139.054 48.9922 139.054 48.6016C139.054 48.1172 138.91 47.748 138.621 47.4941C138.336 47.2363 137.959 47.1074 137.49 47.1074C137.08 47.1074 136.717 47.1777 136.4 47.3184C136.084 47.459 135.76 47.6582 135.427 47.916L134.906 47.2598C135.133 47.0684 135.379 46.8984 135.644 46.75C135.914 46.6016 136.201 46.4844 136.506 46.3984C136.814 46.3125 137.142 46.2695 137.49 46.2695C138.017 46.2695 138.472 46.3613 138.855 46.5449C139.238 46.7285 139.533 46.9902 139.74 47.3301C139.951 47.6699 140.056 48.0742 140.056 48.543C140.056 48.9961 139.967 49.418 139.787 49.8086C139.607 50.1953 139.355 50.5801 139.031 50.9629C138.707 51.3418 138.328 51.7441 137.894 52.1699L136.031 54.0273V54.0684H140.408V54.959ZM145.113 48.4199C145.914 48.4199 146.552 48.6953 147.029 49.2461C147.506 49.7969 147.744 50.625 147.744 51.7305C147.744 52.4609 147.635 53.0742 147.416 53.5703C147.197 54.0664 146.888 54.4414 146.49 54.6953C146.095 54.9492 145.629 55.0762 145.09 55.0762C144.75 55.0762 144.451 55.0312 144.193 54.9414C143.935 54.8516 143.715 54.7305 143.531 54.5781C143.347 54.4258 143.195 54.2598 143.074 54.0801H143.004C143.015 54.2324 143.029 54.416 143.045 54.6309C143.064 54.8457 143.074 55.0332 143.074 55.1934V57.8301H142.095V48.5371H142.898L143.027 49.4863H143.074C143.199 49.291 143.351 49.1133 143.531 48.9531C143.711 48.7891 143.929 48.6602 144.187 48.5664C144.449 48.4688 144.758 48.4199 145.113 48.4199ZM144.943 49.2402C144.498 49.2402 144.138 49.3262 143.865 49.498C143.595 49.6699 143.398 49.9277 143.273 50.2715C143.148 50.6113 143.082 51.0391 143.074 51.5547V51.7422C143.074 52.2852 143.133 52.7441 143.25 53.1191C143.371 53.4941 143.568 53.7793 143.842 53.9746C144.119 54.1699 144.49 54.2676 144.955 54.2676C145.353 54.2676 145.685 54.1602 145.951 53.9453C146.217 53.7305 146.414 53.4316 146.543 53.0488C146.676 52.6621 146.742 52.2188 146.742 51.7188C146.742 50.9609 146.594 50.3594 146.297 49.9141C146.004 49.4648 145.552 49.2402 144.943 49.2402ZM150.972 51.6719L148.752 48.5371H149.865L151.558 51.0098L153.246 48.5371H154.347L152.127 51.6719L154.47 54.959H153.357L151.558 52.3398L149.748 54.959H148.646L150.972 51.6719Z" fill="#575757"/>
<path d="M261.383 18.4561L263.883 19.8994V17.0127L261.383 18.4561ZM281.883 18.4561L279.383 17.0127V19.8994L281.883 18.4561ZM263.633 18.7061L279.633 18.7061V18.2061L263.633 18.2061V18.7061Z" fill="white"/>
<path d="M266.736 8.70508C266.736 8.96029 266.686 9.18164 266.587 9.36914C266.488 9.55664 266.35 9.71029 266.173 9.83008C265.996 9.94727 265.788 10.0293 265.548 10.0762V10.1074C266.001 10.1647 266.341 10.3105 266.568 10.5449C266.797 10.7793 266.911 11.0866 266.911 11.4668C266.911 11.7975 266.833 12.0905 266.677 12.3457C266.523 12.6009 266.286 12.8014 265.966 12.9473C265.648 13.0905 265.241 13.1621 264.743 13.1621C264.441 13.1621 264.161 13.1374 263.904 13.0879C263.648 13.041 263.404 12.9616 263.169 12.8496V12.2402C263.406 12.3574 263.664 12.4499 263.943 12.5176C264.221 12.5827 264.491 12.6152 264.751 12.6152C265.272 12.6152 265.648 12.5124 265.88 12.3066C266.112 12.0983 266.228 11.8145 266.228 11.4551C266.228 11.2077 266.163 11.0085 266.032 10.8574C265.905 10.7038 265.72 10.5918 265.478 10.5215C265.238 10.4486 264.949 10.4121 264.611 10.4121H264.04V9.85742H264.615C264.924 9.85742 265.187 9.81185 265.404 9.7207C265.62 9.62956 265.784 9.50195 265.896 9.33789C266.01 9.17122 266.068 8.97461 266.068 8.74805C266.068 8.45898 265.971 8.23633 265.779 8.08008C265.586 7.92122 265.324 7.8418 264.993 7.8418C264.79 7.8418 264.605 7.86263 264.439 7.9043C264.272 7.94596 264.116 8.00326 263.97 8.07617C263.824 8.14909 263.678 8.23372 263.532 8.33008L263.204 7.88477C263.413 7.72331 263.667 7.58398 263.966 7.4668C264.266 7.34961 264.605 7.29102 264.986 7.29102C265.569 7.29102 266.006 7.42383 266.298 7.68945C266.59 7.95508 266.736 8.29362 266.736 8.70508ZM269.587 9.5918C269.975 9.5918 270.312 9.6582 270.599 9.79102C270.885 9.92122 271.107 10.1113 271.263 10.3613C271.422 10.6113 271.501 10.9147 271.501 11.2715C271.501 11.6621 271.417 11.9993 271.247 12.2832C271.078 12.5645 270.835 12.7819 270.517 12.9355C270.199 13.0866 269.819 13.1621 269.376 13.1621C269.079 13.1621 268.803 13.1361 268.548 13.084C268.293 13.0319 268.078 12.9538 267.904 12.8496V12.2324C268.094 12.347 268.324 12.4382 268.595 12.5059C268.866 12.5736 269.129 12.6074 269.384 12.6074C269.673 12.6074 269.926 12.5618 270.142 12.4707C270.361 12.377 270.53 12.2363 270.65 12.0488C270.772 11.8587 270.833 11.6204 270.833 11.334C270.833 10.9538 270.716 10.6608 270.482 10.4551C270.25 10.2467 269.883 10.1426 269.38 10.1426C269.219 10.1426 269.042 10.1556 268.849 10.1816C268.656 10.2077 268.497 10.2363 268.372 10.2676L268.044 10.0527L268.263 7.37305H271.103V7.9668H268.818L268.673 9.68945C268.772 9.66862 268.9 9.64779 269.056 9.62695C269.212 9.60352 269.389 9.5918 269.587 9.5918ZM274.661 8.72461C275.195 8.72461 275.621 8.9082 275.939 9.27539C276.256 9.64258 276.415 10.1947 276.415 10.9316C276.415 11.4186 276.342 11.8275 276.197 12.1582C276.051 12.4889 275.845 12.7389 275.579 12.9082C275.316 13.0775 275.005 13.1621 274.646 13.1621C274.419 13.1621 274.22 13.1322 274.048 13.0723C273.876 13.0124 273.729 12.9316 273.607 12.8301C273.484 12.7285 273.383 12.6178 273.302 12.498H273.255C273.263 12.5996 273.272 12.722 273.282 12.8652C273.295 13.0085 273.302 13.1335 273.302 13.2402V14.998H272.65V8.80273H273.185L273.271 9.43555H273.302C273.385 9.30534 273.487 9.18685 273.607 9.08008C273.726 8.9707 273.872 8.88477 274.044 8.82227C274.219 8.75716 274.424 8.72461 274.661 8.72461ZM274.548 9.27148C274.251 9.27148 274.012 9.32878 273.829 9.44336C273.65 9.55794 273.518 9.72982 273.435 9.95898C273.351 10.1855 273.307 10.4707 273.302 10.8145V10.9395C273.302 11.3014 273.341 11.6074 273.419 11.8574C273.5 12.1074 273.631 12.2975 273.814 12.4277C273.999 12.5579 274.246 12.623 274.556 12.623C274.822 12.623 275.043 12.5514 275.22 12.4082C275.397 12.265 275.529 12.0658 275.615 11.8105C275.703 11.5527 275.747 11.2572 275.747 10.9238C275.747 10.4186 275.648 10.0176 275.45 9.7207C275.255 9.42122 274.954 9.27148 274.548 9.27148ZM278.568 10.8926L277.087 8.80273H277.829L278.958 10.4512L280.083 8.80273H280.818L279.337 10.8926L280.9 13.084H280.157L278.958 11.3379L277.751 13.084H277.017L278.568 10.8926Z" fill="white"/>
<rect x="0.0102539" y="118.962" width="285" height="55" rx="1" fill="#575757"/>
<path d="M83.1223 139.685H87.1653C88.9491 139.685 90.2903 139.952 91.1887 140.486C92.0872 141.02 92.5364 141.928 92.5364 143.21C92.5364 143.764 92.429 144.262 92.2141 144.705C92.0058 145.141 91.6998 145.502 91.2961 145.789C90.8925 146.075 90.3944 146.274 89.802 146.384V146.482C90.427 146.58 90.9804 146.759 91.4622 147.019C91.9439 147.279 92.3215 147.644 92.595 148.113C92.8684 148.582 93.0051 149.177 93.0051 149.9C93.0051 150.779 92.8 151.521 92.3899 152.126C91.9862 152.732 91.4133 153.191 90.6711 153.503C89.929 153.809 89.05 153.962 88.0344 153.962H83.1223V139.685ZM84.7825 145.808H87.5168C88.7603 145.808 89.6197 145.603 90.095 145.193C90.5767 144.783 90.8176 144.184 90.8176 143.396C90.8176 142.582 90.5312 141.996 89.9583 141.638C89.3918 141.28 88.4869 141.101 87.2434 141.101H84.7825V145.808ZM84.7825 147.205V152.546H87.7512C89.0208 152.546 89.9192 152.299 90.4465 151.804C90.9739 151.303 91.2375 150.629 91.2375 149.783C91.2375 149.242 91.1171 148.78 90.8762 148.396C90.6418 148.012 90.2577 147.719 89.7239 147.517C89.1965 147.309 88.4902 147.205 87.6047 147.205H84.7825ZM104.646 143.259V153.962H103.318L103.083 152.458H102.995C102.774 152.83 102.488 153.142 102.136 153.396C101.784 153.65 101.387 153.839 100.945 153.962C100.508 154.093 100.043 154.158 99.5481 154.158C98.7017 154.158 97.9921 154.021 97.4192 153.748C96.8463 153.474 96.4133 153.051 96.1204 152.478C95.8339 151.905 95.6907 151.169 95.6907 150.271V143.259H97.3313V150.154C97.3313 151.046 97.5331 151.713 97.9368 152.156C98.3404 152.592 98.9556 152.81 99.7825 152.81C100.577 152.81 101.208 152.66 101.677 152.361C102.152 152.061 102.494 151.622 102.702 151.042C102.911 150.457 103.015 149.74 103.015 148.894V143.259H104.646ZM111.531 152.83C111.797 152.83 112.071 152.807 112.351 152.761C112.631 152.716 112.859 152.66 113.034 152.595V153.855C112.846 153.94 112.582 154.011 112.243 154.07C111.911 154.128 111.586 154.158 111.267 154.158C110.7 154.158 110.186 154.06 109.724 153.865C109.262 153.663 108.891 153.324 108.611 152.849C108.337 152.374 108.2 151.716 108.2 150.876V144.529H106.677V143.738L108.21 143.103L108.855 140.779H109.831V143.259H112.966V144.529H109.831V150.828C109.831 151.498 109.984 152 110.29 152.332C110.603 152.664 111.016 152.83 111.531 152.83ZM118.659 152.83C118.926 152.83 119.2 152.807 119.48 152.761C119.76 152.716 119.988 152.66 120.163 152.595V153.855C119.975 153.94 119.711 154.011 119.372 154.07C119.04 154.128 118.715 154.158 118.396 154.158C117.829 154.158 117.315 154.06 116.853 153.865C116.391 153.663 116.019 153.324 115.74 152.849C115.466 152.374 115.329 151.716 115.329 150.876V144.529H113.806V143.738L115.339 143.103L115.984 140.779H116.96V143.259H120.095V144.529H116.96V150.828C116.96 151.498 117.113 152 117.419 152.332C117.732 152.664 118.145 152.83 118.659 152.83ZM131.56 148.591C131.56 149.47 131.446 150.255 131.218 150.945C130.99 151.635 130.661 152.218 130.232 152.693C129.802 153.168 129.281 153.533 128.669 153.787C128.064 154.034 127.377 154.158 126.609 154.158C125.892 154.158 125.235 154.034 124.636 153.787C124.044 153.533 123.529 153.168 123.093 152.693C122.663 152.218 122.328 151.635 122.087 150.945C121.853 150.255 121.736 149.47 121.736 148.591C121.736 147.419 121.934 146.423 122.331 145.603C122.728 144.776 123.295 144.148 124.031 143.718C124.773 143.282 125.655 143.064 126.677 143.064C127.654 143.064 128.506 143.282 129.236 143.718C129.971 144.154 130.541 144.786 130.945 145.613C131.355 146.433 131.56 147.426 131.56 148.591ZM123.415 148.591C123.415 149.451 123.529 150.196 123.757 150.828C123.985 151.459 124.337 151.947 124.812 152.292C125.287 152.638 125.899 152.81 126.648 152.81C127.39 152.81 127.999 152.638 128.474 152.292C128.956 151.947 129.31 151.459 129.538 150.828C129.766 150.196 129.88 149.451 129.88 148.591C129.88 147.738 129.766 147.003 129.538 146.384C129.31 145.759 128.959 145.278 128.484 144.939C128.008 144.6 127.393 144.431 126.638 144.431C125.525 144.431 124.708 144.799 124.187 145.535C123.672 146.27 123.415 147.289 123.415 148.591ZM139.431 143.064C140.7 143.064 141.661 143.376 142.312 144.001C142.963 144.62 143.288 145.616 143.288 146.99V153.962H141.687V147.097C141.687 146.205 141.482 145.538 141.072 145.095C140.668 144.653 140.046 144.431 139.206 144.431C138.021 144.431 137.188 144.766 136.706 145.437C136.225 146.108 135.984 147.081 135.984 148.357V153.962H134.363V143.259H135.671L135.915 144.802H136.003C136.231 144.425 136.521 144.109 136.872 143.855C137.224 143.595 137.618 143.399 138.054 143.269C138.49 143.132 138.949 143.064 139.431 143.064ZM152.068 153.962V139.685H153.728V152.478H160.066V153.962H152.068ZM166.277 143.083C167.553 143.083 168.5 143.37 169.118 143.943C169.737 144.516 170.046 145.431 170.046 146.687V153.962H168.865L168.552 152.38H168.474C168.174 152.771 167.862 153.1 167.536 153.367C167.211 153.627 166.833 153.826 166.404 153.962C165.98 154.093 165.46 154.158 164.841 154.158C164.19 154.158 163.611 154.044 163.103 153.816C162.601 153.588 162.204 153.243 161.911 152.781C161.625 152.319 161.482 151.733 161.482 151.023C161.482 149.955 161.905 149.135 162.751 148.562C163.598 147.989 164.887 147.677 166.618 147.625L168.464 147.546V146.892C168.464 145.968 168.266 145.32 167.868 144.949C167.471 144.578 166.911 144.392 166.189 144.392C165.629 144.392 165.095 144.473 164.587 144.636C164.079 144.799 163.598 144.991 163.142 145.212L162.644 143.982C163.126 143.735 163.679 143.523 164.304 143.347C164.929 143.171 165.587 143.083 166.277 143.083ZM168.445 148.689L166.814 148.757C165.479 148.809 164.538 149.028 163.991 149.412C163.445 149.796 163.171 150.339 163.171 151.042C163.171 151.654 163.357 152.107 163.728 152.4C164.099 152.693 164.59 152.839 165.202 152.839C166.153 152.839 166.931 152.576 167.536 152.048C168.142 151.521 168.445 150.73 168.445 149.675V148.689ZM178.249 143.064C178.464 143.064 178.689 143.077 178.923 143.103C179.157 143.123 179.366 143.152 179.548 143.191L179.343 144.695C179.167 144.649 178.972 144.613 178.757 144.587C178.542 144.561 178.34 144.548 178.152 144.548C177.722 144.548 177.315 144.636 176.931 144.812C176.553 144.981 176.221 145.229 175.935 145.554C175.648 145.873 175.424 146.261 175.261 146.716C175.098 147.166 175.017 147.667 175.017 148.22V153.962H173.386V143.259H174.734L174.909 145.232H174.978C175.199 144.835 175.466 144.473 175.779 144.148C176.091 143.816 176.452 143.552 176.863 143.357C177.279 143.162 177.741 143.064 178.249 143.064ZM184.558 158.767C183.152 158.767 182.068 158.503 181.306 157.976C180.544 157.455 180.163 156.723 180.163 155.779C180.163 155.108 180.375 154.535 180.798 154.06C181.228 153.585 181.82 153.269 182.575 153.113C182.295 152.983 182.055 152.787 181.853 152.527C181.657 152.266 181.56 151.967 181.56 151.628C181.56 151.238 181.667 150.896 181.882 150.603C182.103 150.304 182.439 150.017 182.888 149.744C182.328 149.516 181.872 149.132 181.521 148.591C181.176 148.044 181.003 147.41 181.003 146.687C181.003 145.919 181.163 145.264 181.482 144.724C181.801 144.177 182.263 143.761 182.868 143.474C183.474 143.188 184.206 143.044 185.066 143.044C185.254 143.044 185.443 143.054 185.632 143.074C185.827 143.087 186.013 143.11 186.189 143.142C186.365 143.168 186.517 143.201 186.648 143.24H190.32V144.285L188.347 144.529C188.542 144.783 188.705 145.089 188.835 145.447C188.965 145.805 189.031 146.202 189.031 146.638C189.031 147.706 188.669 148.556 187.947 149.187C187.224 149.812 186.231 150.125 184.968 150.125C184.669 150.125 184.363 150.098 184.05 150.046C183.731 150.222 183.487 150.417 183.318 150.632C183.155 150.847 183.073 151.095 183.073 151.375C183.073 151.583 183.135 151.749 183.259 151.873C183.389 151.996 183.575 152.087 183.816 152.146C184.057 152.198 184.346 152.224 184.685 152.224H186.57C187.735 152.224 188.627 152.468 189.245 152.957C189.87 153.445 190.183 154.158 190.183 155.095C190.183 156.28 189.701 157.188 188.738 157.82C187.774 158.451 186.381 158.767 184.558 158.767ZM184.607 157.498C185.492 157.498 186.225 157.406 186.804 157.224C187.39 157.048 187.826 156.791 188.113 156.453C188.406 156.121 188.552 155.723 188.552 155.261C188.552 154.832 188.454 154.506 188.259 154.285C188.064 154.07 187.777 153.927 187.4 153.855C187.022 153.777 186.56 153.738 186.013 153.738H184.157C183.676 153.738 183.256 153.813 182.898 153.962C182.54 154.112 182.263 154.333 182.068 154.626C181.879 154.919 181.784 155.284 181.784 155.72C181.784 156.3 182.029 156.739 182.517 157.039C183.005 157.345 183.702 157.498 184.607 157.498ZM185.027 148.943C185.801 148.943 186.384 148.748 186.775 148.357C187.165 147.966 187.361 147.397 187.361 146.648C187.361 145.847 187.162 145.248 186.765 144.851C186.368 144.447 185.782 144.246 185.007 144.246C184.265 144.246 183.692 144.454 183.288 144.871C182.891 145.281 182.693 145.883 182.693 146.677C182.693 147.406 182.894 147.966 183.298 148.357C183.702 148.748 184.278 148.943 185.027 148.943ZM196.55 143.064C197.462 143.064 198.243 143.266 198.894 143.669C199.545 144.073 200.043 144.639 200.388 145.369C200.733 146.091 200.906 146.938 200.906 147.908V148.914H193.513C193.532 150.17 193.845 151.127 194.45 151.785C195.056 152.442 195.909 152.771 197.009 152.771C197.686 152.771 198.285 152.709 198.806 152.585C199.327 152.462 199.867 152.279 200.427 152.039V153.464C199.887 153.705 199.35 153.881 198.816 153.992C198.288 154.102 197.663 154.158 196.941 154.158C195.912 154.158 195.014 153.949 194.245 153.533C193.484 153.11 192.891 152.491 192.468 151.677C192.045 150.863 191.833 149.867 191.833 148.689C191.833 147.537 192.025 146.541 192.409 145.701C192.8 144.854 193.347 144.203 194.05 143.748C194.76 143.292 195.593 143.064 196.55 143.064ZM196.531 144.392C195.665 144.392 194.975 144.675 194.46 145.242C193.946 145.808 193.64 146.599 193.542 147.615H199.206C199.2 146.977 199.099 146.417 198.904 145.935C198.715 145.447 198.425 145.069 198.034 144.802C197.644 144.529 197.142 144.392 196.531 144.392Z" fill="white"/>
<path d="M201.014 149.19L203.514 150.634V147.747L201.014 149.19ZM284.514 149.19L282.014 147.747V150.634L284.514 149.19ZM203.264 149.44L282.264 149.44V148.94L203.264 148.94V149.44Z" fill="white"/>
<path d="M229.762 139.8C229.762 139.285 229.797 138.781 229.867 138.289C229.942 137.796 230.065 137.339 230.237 136.917C230.408 136.492 230.643 136.119 230.94 135.798C231.237 135.478 231.606 135.228 232.047 135.048C232.492 134.865 233.026 134.773 233.647 134.773C233.823 134.773 234.012 134.783 234.215 134.802C234.418 134.818 234.586 134.845 234.719 134.884V135.722C234.574 135.671 234.408 135.634 234.221 135.611C234.037 135.587 233.852 135.576 233.664 135.576C232.938 135.576 232.365 135.734 231.948 136.05C231.533 136.367 231.235 136.796 231.051 137.339C230.867 137.878 230.762 138.486 230.735 139.162H230.799C230.92 138.966 231.074 138.791 231.262 138.634C231.449 138.474 231.676 138.347 231.942 138.253C232.211 138.16 232.524 138.113 232.879 138.113C233.379 138.113 233.815 138.214 234.186 138.417C234.561 138.621 234.85 138.916 235.053 139.302C235.26 139.689 235.364 140.158 235.364 140.708C235.364 141.298 235.254 141.808 235.035 142.238C234.817 142.667 234.504 143 234.098 143.234C233.696 143.464 233.215 143.58 232.656 143.58C232.239 143.58 231.854 143.5 231.502 143.339C231.151 143.179 230.844 142.941 230.582 142.625C230.324 142.308 230.123 141.916 229.979 141.447C229.834 140.974 229.762 140.425 229.762 139.8ZM232.645 142.759C233.176 142.759 233.602 142.589 233.922 142.25C234.242 141.91 234.403 141.396 234.403 140.708C234.403 140.146 234.26 139.701 233.975 139.373C233.69 139.044 233.26 138.88 232.686 138.88C232.295 138.88 231.955 138.962 231.666 139.126C231.377 139.287 231.153 139.49 230.992 139.736C230.832 139.982 230.752 140.232 230.752 140.486C230.752 140.744 230.789 141.005 230.864 141.271C230.942 141.537 231.059 141.783 231.215 142.009C231.371 142.236 231.569 142.417 231.807 142.554C232.045 142.691 232.324 142.759 232.645 142.759ZM242.201 139.167C242.201 139.863 242.149 140.484 242.043 141.031C241.938 141.578 241.772 142.041 241.545 142.419C241.319 142.798 241.026 143.087 240.666 143.287C240.307 143.482 239.875 143.58 239.371 143.58C238.735 143.58 238.207 143.406 237.789 143.058C237.375 142.71 237.065 142.208 236.858 141.552C236.655 140.892 236.553 140.097 236.553 139.167C236.553 138.253 236.645 137.468 236.828 136.812C237.016 136.152 237.317 135.646 237.731 135.294C238.145 134.939 238.692 134.761 239.371 134.761C240.016 134.761 240.547 134.937 240.965 135.289C241.383 135.636 241.694 136.14 241.897 136.8C242.1 137.457 242.201 138.246 242.201 139.167ZM237.531 139.167C237.531 139.964 237.592 140.628 237.713 141.16C237.834 141.691 238.03 142.089 238.299 142.355C238.573 142.617 238.93 142.748 239.371 142.748C239.813 142.748 240.168 142.617 240.438 142.355C240.711 142.093 240.908 141.697 241.03 141.166C241.155 140.634 241.217 139.968 241.217 139.167C241.217 138.382 241.156 137.726 241.035 137.199C240.914 136.667 240.719 136.269 240.449 136.003C240.18 135.734 239.821 135.599 239.371 135.599C238.922 135.599 238.563 135.734 238.293 136.003C238.024 136.269 237.828 136.667 237.707 137.199C237.59 137.726 237.531 138.382 237.531 139.167ZM246.86 136.923C247.66 136.923 248.299 137.199 248.776 137.75C249.252 138.3 249.49 139.128 249.49 140.234C249.49 140.964 249.381 141.578 249.162 142.074C248.944 142.57 248.635 142.945 248.237 143.199C247.842 143.453 247.375 143.58 246.836 143.58C246.496 143.58 246.198 143.535 245.94 143.445C245.682 143.355 245.461 143.234 245.278 143.082C245.094 142.929 244.942 142.763 244.821 142.583H244.75C244.762 142.736 244.776 142.919 244.791 143.134C244.811 143.349 244.821 143.537 244.821 143.697V146.333H243.842V137.041H244.645L244.774 137.99H244.821C244.946 137.794 245.098 137.617 245.278 137.457C245.457 137.292 245.676 137.164 245.934 137.07C246.196 136.972 246.504 136.923 246.86 136.923ZM246.69 137.744C246.244 137.744 245.885 137.83 245.612 138.001C245.342 138.173 245.145 138.431 245.02 138.775C244.895 139.115 244.828 139.542 244.821 140.058V140.246C244.821 140.789 244.879 141.248 244.996 141.623C245.117 141.998 245.315 142.283 245.588 142.478C245.865 142.673 246.237 142.771 246.701 142.771C247.1 142.771 247.432 142.664 247.698 142.449C247.963 142.234 248.16 141.935 248.289 141.552C248.422 141.166 248.489 140.722 248.489 140.222C248.489 139.464 248.34 138.863 248.043 138.417C247.75 137.968 247.299 137.744 246.69 137.744ZM252.719 140.175L250.498 137.041H251.612L253.305 139.513L254.992 137.041H256.094L253.873 140.175L256.217 143.462H255.104L253.305 140.843L251.494 143.462H250.393L252.719 140.175Z" fill="white"/>
<rect x="0.0102539" y="59.1658" width="245" height="45" rx="1" fill="#575757"/>
<path d="M58.4556 74.731H62.0942C63.6997 74.731 64.9067 74.9712 65.7153 75.4517C66.5239 75.9321 66.9282 76.7495 66.9282 77.9038C66.9282 78.4019 66.8315 78.8501 66.6382 79.2485C66.4507 79.6411 66.1753 79.9663 65.812 80.2241C65.4487 80.4819 65.0005 80.6606 64.4673 80.7603V80.8481C65.0298 80.936 65.5278 81.0972 65.9614 81.3315C66.395 81.5659 66.7349 81.894 66.981 82.3159C67.2271 82.7378 67.3501 83.2739 67.3501 83.9243C67.3501 84.7153 67.1655 85.3833 66.7964 85.9282C66.4331 86.4731 65.9175 86.8862 65.2495 87.1675C64.5815 87.4429 63.7905 87.5806 62.8765 87.5806H58.4556V74.731ZM59.9497 80.2417H62.4106C63.5298 80.2417 64.3032 80.0571 64.731 79.688C65.1646 79.3188 65.3813 78.7798 65.3813 78.0708C65.3813 77.3384 65.1235 76.811 64.6079 76.4888C64.0981 76.1665 63.2837 76.0054 62.1646 76.0054H59.9497V80.2417ZM59.9497 81.4985V86.3062H62.6216C63.7642 86.3062 64.5728 86.0835 65.0474 85.6382C65.522 85.187 65.7593 84.5806 65.7593 83.8188C65.7593 83.3325 65.6509 82.9165 65.4341 82.5708C65.2231 82.2251 64.8774 81.9614 64.397 81.7798C63.9224 81.5923 63.2866 81.4985 62.4897 81.4985H59.9497ZM77.8267 77.9478V87.5806H76.6313L76.4204 86.2271H76.3413C76.1421 86.561 75.8843 86.8423 75.5679 87.0708C75.2515 87.2993 74.894 87.4692 74.4956 87.5806C74.103 87.6978 73.6841 87.7563 73.2388 87.7563C72.4771 87.7563 71.8384 87.6333 71.3228 87.3872C70.8071 87.1411 70.4175 86.7603 70.1538 86.2446C69.896 85.729 69.7671 85.0669 69.7671 84.2583V77.9478H71.2437V84.1528C71.2437 84.9556 71.4253 85.5562 71.7886 85.9546C72.1519 86.3472 72.7056 86.5435 73.4497 86.5435C74.1646 86.5435 74.7329 86.4087 75.1548 86.1392C75.5825 85.8696 75.8901 85.4741 76.0776 84.9526C76.2651 84.4253 76.3589 83.7808 76.3589 83.019V77.9478H77.8267ZM84.0229 86.561C84.2632 86.561 84.5093 86.5405 84.7612 86.4995C85.0132 86.4585 85.2183 86.4087 85.3765 86.3501V87.4839C85.2065 87.5601 84.9692 87.6245 84.6646 87.6772C84.3657 87.73 84.0728 87.7563 83.7856 87.7563C83.2759 87.7563 82.813 87.6685 82.397 87.4927C81.981 87.311 81.647 87.0063 81.395 86.5786C81.1489 86.1509 81.0259 85.5591 81.0259 84.8032V79.0903H79.6548V78.3784L81.0347 77.8071L81.6147 75.7153H82.4937V77.9478H85.3149V79.0903H82.4937V84.7593C82.4937 85.3628 82.6313 85.814 82.9067 86.1128C83.188 86.4116 83.5601 86.561 84.0229 86.561ZM90.439 86.561C90.6792 86.561 90.9253 86.5405 91.1772 86.4995C91.4292 86.4585 91.6343 86.4087 91.7925 86.3501V87.4839C91.6226 87.5601 91.3853 87.6245 91.0806 87.6772C90.7817 87.73 90.4888 87.7563 90.2017 87.7563C89.6919 87.7563 89.229 87.6685 88.813 87.4927C88.397 87.311 88.063 87.0063 87.811 86.5786C87.5649 86.1509 87.4419 85.5591 87.4419 84.8032V79.0903H86.0708V78.3784L87.4507 77.8071L88.0308 75.7153H88.9097V77.9478H91.731V79.0903H88.9097V84.7593C88.9097 85.3628 89.0474 85.814 89.3228 86.1128C89.604 86.4116 89.9761 86.561 90.439 86.561ZM102.049 82.7466C102.049 83.5376 101.947 84.2437 101.742 84.8647C101.537 85.4858 101.241 86.0103 100.854 86.438C100.467 86.8657 99.9985 87.1938 99.4478 87.4224C98.9028 87.645 98.2847 87.7563 97.5933 87.7563C96.9487 87.7563 96.3569 87.645 95.8179 87.4224C95.2847 87.1938 94.8218 86.8657 94.4292 86.438C94.0425 86.0103 93.7407 85.4858 93.5239 84.8647C93.313 84.2437 93.2075 83.5376 93.2075 82.7466C93.2075 81.6919 93.3862 80.7954 93.7437 80.0571C94.1011 79.313 94.6108 78.7476 95.2729 78.3608C95.9409 77.9683 96.7349 77.772 97.6548 77.772C98.5337 77.772 99.3013 77.9683 99.9575 78.3608C100.62 78.7534 101.132 79.3218 101.496 80.0659C101.865 80.8042 102.049 81.6978 102.049 82.7466ZM94.7192 82.7466C94.7192 83.52 94.8218 84.1909 95.0269 84.7593C95.2319 85.3276 95.5483 85.7671 95.9761 86.0776C96.4038 86.3882 96.9546 86.5435 97.6284 86.5435C98.2964 86.5435 98.8442 86.3882 99.272 86.0776C99.7056 85.7671 100.025 85.3276 100.23 84.7593C100.435 84.1909 100.538 83.52 100.538 82.7466C100.538 81.979 100.435 81.3169 100.23 80.7603C100.025 80.1978 99.7085 79.7642 99.2808 79.4595C98.853 79.1548 98.2993 79.0024 97.6196 79.0024C96.6177 79.0024 95.8823 79.3335 95.4136 79.9956C94.9507 80.6577 94.7192 81.5747 94.7192 82.7466ZM109.133 77.772C110.276 77.772 111.14 78.0532 111.726 78.6157C112.312 79.1724 112.605 80.0688 112.605 81.3052V87.5806H111.164V81.4019C111.164 80.5991 110.979 79.9985 110.61 79.6001C110.247 79.2017 109.687 79.0024 108.931 79.0024C107.865 79.0024 107.115 79.3042 106.681 79.9077C106.248 80.5112 106.031 81.3872 106.031 82.5356V87.5806H104.572V77.9478H105.75L105.969 79.3364H106.048C106.253 78.9966 106.514 78.7124 106.831 78.4839C107.147 78.2495 107.501 78.0737 107.894 77.9565C108.287 77.8335 108.7 77.772 109.133 77.772ZM126.158 87.5806L121.842 76.2075H121.772C121.795 76.4478 121.816 76.7407 121.833 77.0864C121.851 77.4321 121.866 77.8101 121.877 78.2202C121.889 78.6245 121.895 79.0376 121.895 79.4595V87.5806H120.506V74.731H122.721L126.791 85.4185H126.852L130.983 74.731H133.18V87.5806H131.704V79.354C131.704 78.9731 131.709 78.5923 131.721 78.2114C131.733 77.8247 131.748 77.4614 131.765 77.1216C131.783 76.7759 131.8 76.4771 131.818 76.2251H131.748L127.379 87.5806H126.158ZM140.185 77.772C141.005 77.772 141.708 77.9536 142.294 78.3169C142.88 78.6802 143.329 79.1899 143.639 79.8462C143.95 80.4966 144.105 81.2583 144.105 82.1313V83.0366H137.452C137.469 84.1675 137.75 85.0288 138.295 85.6206C138.84 86.2124 139.608 86.5083 140.598 86.5083C141.208 86.5083 141.747 86.4526 142.215 86.3413C142.684 86.23 143.17 86.0659 143.674 85.8491V87.1323C143.188 87.3491 142.705 87.5073 142.224 87.6069C141.75 87.7065 141.187 87.7563 140.537 87.7563C139.611 87.7563 138.802 87.5688 138.111 87.1938C137.425 86.813 136.892 86.2563 136.511 85.5239C136.13 84.7915 135.94 83.895 135.94 82.8345C135.94 81.7974 136.113 80.9009 136.458 80.145C136.81 79.3833 137.302 78.7974 137.935 78.3872C138.574 77.9771 139.324 77.772 140.185 77.772ZM140.167 78.9673C139.388 78.9673 138.767 79.2222 138.304 79.7319C137.841 80.2417 137.566 80.9536 137.478 81.8677H142.576C142.57 81.2935 142.479 80.7896 142.303 80.356C142.133 79.9165 141.873 79.5767 141.521 79.3364C141.169 79.0903 140.718 78.9673 140.167 78.9673ZM150.011 87.7563C148.792 87.7563 147.826 87.3403 147.111 86.5083C146.402 85.6763 146.047 84.4399 146.047 82.7993C146.047 81.1411 146.411 79.8901 147.137 79.0464C147.864 78.1968 148.831 77.772 150.038 77.772C150.547 77.772 150.993 77.8394 151.374 77.9741C151.754 78.1089 152.083 78.2905 152.358 78.519C152.633 78.7417 152.865 78.9966 153.052 79.2837H153.158C153.134 79.1021 153.111 78.853 153.087 78.5366C153.064 78.2202 153.052 77.9624 153.052 77.7632V73.9048H154.511V87.5806H153.333L153.114 86.2095H153.052C152.871 86.4966 152.639 86.7573 152.358 86.9917C152.083 87.2261 151.751 87.4136 151.365 87.5542C150.984 87.689 150.533 87.7563 150.011 87.7563ZM150.24 86.5435C151.271 86.5435 152 86.2505 152.428 85.6646C152.856 85.0786 153.07 84.2085 153.07 83.0542V82.7905C153.07 81.5659 152.865 80.6255 152.455 79.9692C152.05 79.313 151.312 78.9849 150.24 78.9849C149.343 78.9849 148.672 79.3306 148.227 80.022C147.782 80.7075 147.559 81.645 147.559 82.8345C147.559 84.0181 147.779 84.9321 148.218 85.5767C148.664 86.2212 149.337 86.5435 150.24 86.5435ZM159.064 77.9478V87.5806H157.605V77.9478H159.064ZM158.352 74.3442C158.592 74.3442 158.797 74.4233 158.967 74.5815C159.143 74.7339 159.231 74.9741 159.231 75.3022C159.231 75.6245 159.143 75.8647 158.967 76.0229C158.797 76.1812 158.592 76.2603 158.352 76.2603C158.1 76.2603 157.889 76.1812 157.719 76.0229C157.555 75.8647 157.473 75.6245 157.473 75.3022C157.473 74.9741 157.555 74.7339 157.719 74.5815C157.889 74.4233 158.1 74.3442 158.352 74.3442ZM170.112 77.9478V87.5806H168.917L168.706 86.2271H168.626C168.427 86.561 168.169 86.8423 167.853 87.0708C167.537 87.2993 167.179 87.4692 166.781 87.5806C166.388 87.6978 165.969 87.7563 165.524 87.7563C164.762 87.7563 164.124 87.6333 163.608 87.3872C163.092 87.1411 162.703 86.7603 162.439 86.2446C162.181 85.729 162.052 85.0669 162.052 84.2583V77.9478H163.529V84.1528C163.529 84.9556 163.71 85.5562 164.074 85.9546C164.437 86.3472 164.991 86.5435 165.735 86.5435C166.45 86.5435 167.018 86.4087 167.44 86.1392C167.868 85.8696 168.175 85.4741 168.363 84.9526C168.55 84.4253 168.644 83.7808 168.644 83.019V77.9478H170.112ZM183.656 77.772C184.716 77.772 185.516 78.0503 186.055 78.6069C186.594 79.1577 186.864 80.0454 186.864 81.27V87.5806H185.422V81.3403C185.422 80.561 185.252 79.978 184.913 79.5913C184.579 79.1987 184.081 79.0024 183.418 79.0024C182.487 79.0024 181.81 79.272 181.388 79.811C180.966 80.3501 180.755 81.144 180.755 82.1929V87.5806H179.305V81.3403C179.305 80.8188 179.229 80.3853 179.077 80.0396C178.93 79.6938 178.708 79.436 178.409 79.2661C178.116 79.0903 177.744 79.0024 177.292 79.0024C176.654 79.0024 176.141 79.1343 175.754 79.3979C175.368 79.6616 175.086 80.0542 174.911 80.5757C174.741 81.0913 174.656 81.7271 174.656 82.4829V87.5806H173.197V77.9478H174.375L174.594 79.3101H174.673C174.867 78.9761 175.11 78.6948 175.403 78.4663C175.696 78.2378 176.024 78.0649 176.387 77.9478C176.75 77.8306 177.137 77.772 177.547 77.772C178.28 77.772 178.892 77.9097 179.384 78.1851C179.882 78.4546 180.243 78.8677 180.465 79.4243H180.544C180.861 78.8677 181.294 78.4546 181.845 78.1851C182.396 77.9097 183 77.772 183.656 77.772Z" fill="white"/>
<path d="M186.954 83.8574L189.454 85.3008V82.414L186.954 83.8574ZM244.454 83.8574L241.954 82.414V85.3008L244.454 83.8574ZM189.204 84.1074L242.204 84.1074V83.6074L189.204 83.6074V84.1074Z" fill="white"/>
<path d="M210.426 76.0942H209.143V78.0806H208.193V76.0942H204.051V75.2739L208.129 69.4673H209.143V75.2153H210.426V76.0942ZM208.193 75.2153V72.4146C208.193 72.1997 208.195 72.0063 208.199 71.8345C208.203 71.6587 208.209 71.4966 208.217 71.3481C208.225 71.1958 208.23 71.0513 208.234 70.9146C208.242 70.7778 208.248 70.6431 208.252 70.5103H208.205C208.131 70.6665 208.045 70.8325 207.947 71.0083C207.854 71.1802 207.758 71.3345 207.66 71.4712L205.018 75.2153H208.193ZM213.959 72.8423C214.541 72.8423 215.047 72.9419 215.477 73.1411C215.906 73.3364 216.238 73.6216 216.473 73.9966C216.711 74.3716 216.83 74.8267 216.83 75.3618C216.83 75.9478 216.703 76.4536 216.449 76.8794C216.195 77.3013 215.83 77.6274 215.354 77.8579C214.877 78.0845 214.307 78.1978 213.643 78.1978C213.197 78.1978 212.783 78.1587 212.4 78.0806C212.018 78.0024 211.695 77.8853 211.434 77.729V76.8032C211.719 76.9751 212.064 77.1118 212.471 77.2134C212.877 77.3149 213.271 77.3657 213.654 77.3657C214.088 77.3657 214.467 77.2974 214.791 77.1606C215.119 77.02 215.373 76.8091 215.553 76.5278C215.736 76.2427 215.828 75.8853 215.828 75.4556C215.828 74.8853 215.652 74.4458 215.301 74.1372C214.953 73.8247 214.402 73.6685 213.648 73.6685C213.406 73.6685 213.141 73.688 212.852 73.7271C212.562 73.7661 212.324 73.8091 212.137 73.856L211.645 73.5337L211.973 69.5142H216.232V70.4048H212.805L212.588 72.9888C212.736 72.9575 212.928 72.9263 213.162 72.895C213.396 72.8599 213.662 72.8423 213.959 72.8423ZM221.57 71.5415C222.371 71.5415 223.01 71.8169 223.486 72.3677C223.963 72.9185 224.201 73.7466 224.201 74.8521C224.201 75.5825 224.092 76.1958 223.873 76.6919C223.654 77.188 223.346 77.563 222.947 77.8169C222.553 78.0708 222.086 78.1978 221.547 78.1978C221.207 78.1978 220.908 78.1528 220.65 78.063C220.393 77.9731 220.172 77.8521 219.988 77.6997C219.805 77.5474 219.652 77.3813 219.531 77.2017H219.461C219.473 77.354 219.486 77.5376 219.502 77.7524C219.521 77.9673 219.531 78.1548 219.531 78.3149V80.9517H218.553V71.6587H219.355L219.484 72.6079H219.531C219.656 72.4126 219.809 72.2349 219.988 72.0747C220.168 71.9106 220.387 71.7817 220.645 71.688C220.906 71.5903 221.215 71.5415 221.57 71.5415ZM221.4 72.3618C220.955 72.3618 220.596 72.4478 220.322 72.6196C220.053 72.7915 219.855 73.0493 219.73 73.3931C219.605 73.7329 219.539 74.1606 219.531 74.6763V74.8638C219.531 75.4067 219.59 75.8657 219.707 76.2407C219.828 76.6157 220.025 76.9009 220.299 77.0962C220.576 77.2915 220.947 77.3892 221.412 77.3892C221.811 77.3892 222.143 77.2817 222.408 77.0669C222.674 76.8521 222.871 76.5532 223 76.1704C223.133 75.7837 223.199 75.3403 223.199 74.8403C223.199 74.0825 223.051 73.481 222.754 73.0356C222.461 72.5864 222.01 72.3618 221.4 72.3618ZM227.43 74.7935L225.209 71.6587H226.322L228.016 74.1313L229.703 71.6587H230.805L228.584 74.7935L230.928 78.0806H229.814L228.016 75.4614L226.205 78.0806H225.104L227.43 74.7935Z" fill="white"/>
</svg>
