<svg width="340" height="277" viewBox="0 0 340 277" fill="none" xmlns="http://www.w3.org/2000/svg">
<rect x="0.987061" y="1.03521" width="135" height="35" rx="1" fill="#575757"/>
<path d="M142.536 1.29943V36.2995" stroke="#575757" stroke-width="1.5" stroke-linecap="square"/>
<path d="M140.536 0.770901L144.536 0.770901" stroke="#575757" stroke-width="1.5" stroke-linecap="square"/>
<path d="M140.536 36.2995H144.536" stroke="#575757" stroke-width="1.5" stroke-linecap="square"/>
<path d="M0.987061 41.6009L135.987 41.6009" stroke="#575757" stroke-width="1.5" stroke-linecap="square"/>
<path d="M0.986267 43.6009L0.986267 39.6009" stroke="#575757" stroke-width="1.5" stroke-linecap="square"/>
<path d="M135.985 43.6009V39.6009" stroke="#575757" stroke-width="1.5" stroke-linecap="square"/>
<path d="M22.1824 13.1133H25.4167C26.8438 13.1133 27.9167 13.3269 28.6355 13.754C29.3542 14.181 29.7136 14.9076 29.7136 15.9336C29.7136 16.3764 29.6277 16.7748 29.4558 17.129C29.2891 17.4779 29.0444 17.767 28.7214 17.9961C28.3985 18.2253 28.0001 18.3842 27.5261 18.4727V18.5508C28.0261 18.629 28.4688 18.7722 28.8542 18.9805C29.2397 19.1889 29.5417 19.4805 29.7605 19.8555C29.9792 20.2305 30.0886 20.7071 30.0886 21.2852C30.0886 21.9883 29.9246 22.5821 29.5964 23.0665C29.2735 23.5508 28.8152 23.918 28.2214 24.168C27.6277 24.4128 26.9246 24.5352 26.1121 24.5352H22.1824V13.1133ZM23.5105 18.0118H25.698C26.6928 18.0118 27.3803 17.8477 27.7605 17.5196C28.1459 17.1915 28.3386 16.7123 28.3386 16.0821C28.3386 15.431 28.1095 14.9623 27.6511 14.6758C27.198 14.3894 26.474 14.2461 25.4792 14.2461H23.5105V18.0118ZM23.5105 19.129V23.4024H25.8855C26.9011 23.4024 27.6199 23.2045 28.0417 22.8086C28.4636 22.4076 28.6746 21.8685 28.6746 21.1915C28.6746 20.7592 28.5782 20.3894 28.3855 20.0821C28.198 19.7748 27.8907 19.5404 27.4636 19.379C27.0417 19.2123 26.4766 19.129 25.7683 19.129H23.5105ZM39.4011 15.9727V24.5352H38.3386L38.1511 23.3321H38.0808C37.9037 23.629 37.6746 23.879 37.3933 24.0821C37.1121 24.2852 36.7944 24.4362 36.4402 24.5352C36.0912 24.6394 35.7188 24.6915 35.323 24.6915C34.6459 24.6915 34.0782 24.5821 33.6199 24.3633C33.1615 24.1446 32.8152 23.806 32.5808 23.3477C32.3516 22.8894 32.2371 22.3008 32.2371 21.5821V15.9727H33.5496V21.4883C33.5496 22.2019 33.711 22.7357 34.0339 23.0899C34.3569 23.4389 34.849 23.6133 35.5105 23.6133C36.1459 23.6133 36.6511 23.4935 37.0261 23.254C37.4063 23.0144 37.6798 22.6628 37.8464 22.1993C38.0131 21.7305 38.0964 21.1576 38.0964 20.4805V15.9727H39.4011ZM44.9089 23.629C45.1225 23.629 45.3412 23.6107 45.5652 23.5743C45.7891 23.5378 45.9714 23.4935 46.1121 23.4415V24.4493C45.961 24.517 45.7501 24.5743 45.4792 24.6211C45.2136 24.668 44.9532 24.6915 44.698 24.6915C44.2449 24.6915 43.8334 24.6133 43.4636 24.4571C43.0938 24.2956 42.797 24.0248 42.573 23.6446C42.3542 23.2644 42.2449 22.7383 42.2449 22.0665V16.9883H41.0261V16.3555L42.2527 15.8477L42.7683 13.9883H43.5496V15.9727H46.0574V16.9883H43.5496V22.0274C43.5496 22.5639 43.672 22.9649 43.9167 23.2305C44.1667 23.4961 44.4975 23.629 44.9089 23.629ZM50.6121 23.629C50.8256 23.629 51.0444 23.6107 51.2683 23.5743C51.4923 23.5378 51.6746 23.4935 51.8152 23.4415V24.4493C51.6641 24.517 51.4532 24.5743 51.1824 24.6211C50.9167 24.668 50.6563 24.6915 50.4011 24.6915C49.948 24.6915 49.5365 24.6133 49.1667 24.4571C48.797 24.2956 48.5001 24.0248 48.2761 23.6446C48.0574 23.2644 47.948 22.7383 47.948 22.0665V16.9883H46.7292V16.3555L47.9558 15.8477L48.4714 13.9883H49.2527V15.9727H51.7605V16.9883H49.2527V22.0274C49.2527 22.5639 49.3751 22.9649 49.6199 23.2305C49.8699 23.4961 50.2006 23.629 50.6121 23.629ZM60.9324 20.2383C60.9324 20.9415 60.8412 21.5691 60.6589 22.1211C60.4766 22.6732 60.2136 23.1394 59.8699 23.5196C59.5261 23.8998 59.1095 24.1915 58.6199 24.3946C58.1355 24.5925 57.586 24.6915 56.9714 24.6915C56.3985 24.6915 55.8725 24.5925 55.3933 24.3946C54.9194 24.1915 54.5079 23.8998 54.1589 23.5196C53.8152 23.1394 53.547 22.6732 53.3542 22.1211C53.1667 21.5691 53.073 20.9415 53.073 20.2383C53.073 19.3008 53.2319 18.504 53.5496 17.8477C53.8673 17.1862 54.3204 16.6836 54.9089 16.3399C55.5027 15.9909 56.2084 15.8165 57.0261 15.8165C57.8074 15.8165 58.4897 15.9909 59.073 16.3399C59.6615 16.6889 60.1173 17.1941 60.4402 17.8555C60.7683 18.5118 60.9324 19.306 60.9324 20.2383ZM54.4167 20.2383C54.4167 20.9258 54.5079 21.5222 54.6902 22.0274C54.8725 22.5326 55.1537 22.9232 55.5339 23.1993C55.9141 23.4753 56.4037 23.6133 57.0027 23.6133C57.5964 23.6133 58.0834 23.4753 58.4636 23.1993C58.849 22.9232 59.1329 22.5326 59.3152 22.0274C59.4975 21.5222 59.5886 20.9258 59.5886 20.2383C59.5886 19.556 59.4975 18.9675 59.3152 18.4727C59.1329 17.9727 58.8516 17.5873 58.4714 17.3165C58.0912 17.0456 57.599 16.9102 56.9949 16.9102C56.1042 16.9102 55.4506 17.2045 55.0339 17.793C54.6225 18.3816 54.4167 19.1967 54.4167 20.2383ZM67.2292 15.8165C68.2449 15.8165 69.0131 16.0665 69.5339 16.5665C70.0548 17.0612 70.3152 17.8581 70.3152 18.9571V24.5352H69.0339V19.043C69.0339 18.3295 68.8699 17.7956 68.5417 17.4415C68.2188 17.0873 67.7214 16.9102 67.0496 16.9102C66.1016 16.9102 65.435 17.1784 65.0496 17.7149C64.6641 18.2514 64.4714 19.03 64.4714 20.0508V24.5352H63.1746V15.9727H64.2214L64.4167 17.2071H64.4871C64.6694 16.905 64.9011 16.6524 65.1824 16.4493C65.4636 16.2409 65.7787 16.0847 66.1277 15.9805C66.4766 15.8711 66.8438 15.8165 67.2292 15.8165ZM83.7839 21.4961C83.7839 22.1732 83.6147 22.7514 83.2761 23.2305C82.9428 23.7045 82.474 24.0665 81.8699 24.3165C81.2657 24.5665 80.5548 24.6915 79.7371 24.6915C79.3048 24.6915 78.8959 24.6706 78.5105 24.629C78.1251 24.5873 77.7709 24.5274 77.448 24.4493C77.1251 24.3711 76.8412 24.2748 76.5964 24.1602V22.8868C76.9871 23.0482 77.4636 23.1993 78.0261 23.3399C78.5886 23.4753 79.1772 23.543 79.7917 23.543C80.3647 23.543 80.849 23.4675 81.2449 23.3165C81.6407 23.1602 81.9402 22.9389 82.1433 22.6524C82.3516 22.3607 82.4558 22.0118 82.4558 21.6055C82.4558 21.2149 82.3699 20.8894 82.198 20.629C82.0261 20.3633 81.7397 20.1237 81.3386 19.9102C80.9428 19.6915 80.4011 19.4597 79.7136 19.2149C79.2292 19.043 78.8022 18.8555 78.4324 18.6524C78.0626 18.4441 77.7527 18.2097 77.5027 17.9493C77.2527 17.6889 77.0626 17.3868 76.9324 17.043C76.8074 16.6993 76.7449 16.306 76.7449 15.8633C76.7449 15.254 76.8985 14.7331 77.2058 14.3008C77.5183 13.8633 77.948 13.53 78.4949 13.3008C79.047 13.0665 79.6798 12.9493 80.3933 12.9493C81.0027 12.9493 81.5652 13.0066 82.0808 13.1211C82.6016 13.2357 83.0782 13.3894 83.5105 13.5821L83.0964 14.7227C82.685 14.5508 82.2475 14.4076 81.7839 14.293C81.3256 14.1784 80.8516 14.1211 80.3621 14.1211C79.8725 14.1211 79.4584 14.1941 79.1199 14.3399C78.7865 14.4805 78.5313 14.681 78.3542 14.9415C78.1772 15.2019 78.0886 15.5118 78.0886 15.8711C78.0886 16.2722 78.172 16.6055 78.3386 16.8711C78.5105 17.1368 78.7813 17.3737 79.1511 17.5821C79.5261 17.7852 80.0209 17.9987 80.6355 18.2227C81.3074 18.4675 81.8777 18.7279 82.3464 19.004C82.8152 19.2748 83.172 19.6081 83.4167 20.004C83.6615 20.3946 83.7839 20.892 83.7839 21.4961ZM95.2214 15.8165C96.1641 15.8165 96.8751 16.0639 97.3542 16.5586C97.8334 17.0482 98.073 17.8373 98.073 18.9258V24.5352H96.7917V18.9883C96.7917 18.2956 96.6407 17.7774 96.3386 17.4336C96.0417 17.0847 95.599 16.9102 95.0105 16.9102C94.1824 16.9102 93.5808 17.1498 93.2058 17.629C92.8308 18.1081 92.6433 18.8139 92.6433 19.7461V24.5352H91.3542V18.9883C91.3542 18.5248 91.2865 18.1394 91.1511 17.8321C91.0209 17.5248 90.823 17.2956 90.5574 17.1446C90.297 16.9883 89.9662 16.9102 89.5652 16.9102C88.9975 16.9102 88.5417 17.0274 88.198 17.2618C87.8542 17.4961 87.6042 17.8451 87.448 18.3086C87.297 18.767 87.2214 19.3321 87.2214 20.004V24.5352H85.9246V15.9727H86.9714L87.1667 17.1836H87.2371C87.4089 16.8868 87.6251 16.6368 87.8855 16.4336C88.1459 16.2305 88.4376 16.0769 88.7605 15.9727C89.0834 15.8685 89.4272 15.8165 89.7917 15.8165C90.4428 15.8165 90.9871 15.9389 91.4246 16.1836C91.8673 16.4232 92.1876 16.7904 92.3855 17.2852H92.4558C92.7371 16.7904 93.1225 16.4232 93.6121 16.1836C94.1016 15.9389 94.6381 15.8165 95.2214 15.8165ZM103.94 15.8321C104.961 15.8321 105.719 16.0612 106.214 16.5196C106.708 16.9779 106.956 17.7097 106.956 18.7149V24.5352H106.01L105.76 23.2696H105.698C105.458 23.5821 105.208 23.8451 104.948 24.0586C104.688 24.267 104.385 24.4258 104.042 24.5352C103.703 24.6394 103.287 24.6915 102.792 24.6915C102.271 24.6915 101.807 24.6003 101.401 24.418C101 24.2357 100.682 23.9597 100.448 23.5899C100.219 23.2201 100.104 22.7514 100.104 22.1836C100.104 21.3295 100.443 20.6732 101.12 20.2149C101.797 19.7566 102.828 19.5066 104.214 19.4649L105.69 19.4024V18.879C105.69 18.1394 105.531 17.6211 105.214 17.3243C104.896 17.0274 104.448 16.879 103.87 16.879C103.422 16.879 102.995 16.9441 102.589 17.0743C102.182 17.2045 101.797 17.3581 101.432 17.5352L101.034 16.5508C101.419 16.3529 101.862 16.1836 102.362 16.043C102.862 15.9024 103.388 15.8321 103.94 15.8321ZM105.675 20.3165L104.37 20.3711C103.302 20.4128 102.55 20.5873 102.112 20.8946C101.675 21.2019 101.456 21.6368 101.456 22.1993C101.456 22.6889 101.604 23.0508 101.901 23.2852C102.198 23.5196 102.591 23.6368 103.081 23.6368C103.841 23.6368 104.464 23.4258 104.948 23.004C105.432 22.5821 105.675 21.9493 105.675 21.1055V20.3165ZM110.932 24.5352H109.628V12.379H110.932V24.5352ZM114.979 24.5352H113.675V12.379H114.979V24.5352Z" fill="white"/>
<path d="M159.116 16.0417C159.116 16.5521 159.017 16.9948 158.819 17.3698C158.621 17.7448 158.345 18.0521 157.991 18.2917C157.637 18.526 157.22 18.6901 156.741 18.7838V18.8463C157.647 18.9609 158.327 19.2526 158.78 19.7213C159.238 20.1901 159.468 20.8047 159.468 21.5651C159.468 22.2266 159.311 22.8125 158.999 23.3229C158.691 23.8333 158.218 24.2344 157.577 24.526C156.941 24.8125 156.126 24.9557 155.132 24.9557C154.527 24.9557 153.968 24.9062 153.452 24.8073C152.941 24.7135 152.452 24.5547 151.983 24.3307V23.112C152.457 23.3463 152.973 23.5312 153.53 23.6667C154.087 23.7969 154.626 23.862 155.147 23.862C156.189 23.862 156.941 23.6562 157.405 23.2448C157.869 22.8281 158.1 22.2604 158.1 21.5417C158.1 21.0469 157.97 20.6484 157.71 20.3463C157.455 20.0391 157.085 19.8151 156.6 19.6745C156.121 19.5286 155.543 19.4557 154.866 19.4557H153.725V18.3463H154.874C155.494 18.3463 156.02 18.2552 156.452 18.0729C156.884 17.8906 157.212 17.6354 157.436 17.3073C157.665 16.974 157.78 16.5807 157.78 16.1276C157.78 15.5495 157.587 15.1042 157.202 14.7917C156.816 14.474 156.293 14.3151 155.632 14.3151C155.225 14.3151 154.856 14.3568 154.522 14.4401C154.189 14.5234 153.876 14.638 153.585 14.7838C153.293 14.9297 153.001 15.099 152.71 15.2917L152.053 14.401C152.47 14.0781 152.978 13.7995 153.577 13.5651C154.176 13.3307 154.856 13.2135 155.616 13.2135C156.783 13.2135 157.658 13.4792 158.241 14.0104C158.824 14.5417 159.116 15.2187 159.116 16.0417ZM164.819 17.8151C165.595 17.8151 166.27 17.9479 166.843 18.2135C167.415 18.474 167.858 18.8542 168.171 19.3542C168.488 19.8542 168.647 20.4609 168.647 21.1745C168.647 21.9557 168.478 22.6302 168.139 23.1979C167.801 23.7604 167.314 24.1953 166.678 24.5026C166.043 24.8047 165.283 24.9557 164.397 24.9557C163.803 24.9557 163.251 24.9036 162.741 24.7995C162.231 24.6953 161.801 24.5391 161.452 24.3307V23.0963C161.832 23.3255 162.293 23.5078 162.835 23.6432C163.376 23.7786 163.902 23.8463 164.413 23.8463C164.991 23.8463 165.496 23.7552 165.928 23.5729C166.366 23.3854 166.705 23.1042 166.944 22.7292C167.189 22.349 167.311 21.8724 167.311 21.2995C167.311 20.5391 167.077 19.9531 166.608 19.5417C166.145 19.125 165.41 18.9167 164.405 18.9167C164.082 18.9167 163.728 18.9427 163.343 18.9948C162.957 19.0469 162.639 19.1042 162.389 19.1667L161.733 18.737L162.171 13.3776H167.85V14.5651H163.28L162.991 18.0104C163.189 17.9687 163.444 17.9271 163.757 17.8854C164.069 17.8385 164.423 17.8151 164.819 17.8151ZM174.968 16.0807C176.035 16.0807 176.887 16.4479 177.522 17.1823C178.158 17.9167 178.475 19.0208 178.475 20.4948C178.475 21.4687 178.33 22.2865 178.038 22.9479C177.746 23.6094 177.335 24.1094 176.803 24.4479C176.277 24.7865 175.655 24.9557 174.936 24.9557C174.483 24.9557 174.085 24.8958 173.741 24.776C173.397 24.6562 173.103 24.4948 172.858 24.2917C172.613 24.0885 172.41 23.8672 172.249 23.6276H172.155C172.171 23.8307 172.189 24.0755 172.21 24.362C172.236 24.6484 172.249 24.8984 172.249 25.112V28.6276H170.944V16.237H172.014L172.186 17.5026H172.249C172.415 17.2422 172.619 17.0052 172.858 16.7917C173.098 16.5729 173.389 16.401 173.733 16.276C174.082 16.1458 174.494 16.0807 174.968 16.0807ZM174.741 17.1745C174.147 17.1745 173.668 17.2891 173.303 17.5182C172.944 17.7474 172.681 18.0911 172.514 18.5495C172.348 19.0026 172.259 19.5729 172.249 20.2604V20.5104C172.249 21.2344 172.327 21.8463 172.483 22.3463C172.645 22.8463 172.908 23.2266 173.272 23.487C173.642 23.7474 174.137 23.8776 174.757 23.8776C175.288 23.8776 175.731 23.7344 176.085 23.4479C176.439 23.1615 176.702 22.763 176.874 22.2526C177.051 21.737 177.139 21.1458 177.139 20.4792C177.139 19.4687 176.941 18.6667 176.546 18.0729C176.155 17.474 175.553 17.1745 174.741 17.1745ZM182.78 20.4167L179.819 16.237H181.303L183.561 19.5338L185.811 16.237H187.28L184.319 20.4167L187.444 24.7995H185.96L183.561 21.3073L181.147 24.7995H179.678L182.78 20.4167Z" fill="#575757"/>
<path d="M51.2839 60.6009H50.0183V52.5072C50.0183 52.1999 50.0183 51.9368 50.0183 51.7181C50.0235 51.4941 50.0287 51.291 50.0339 51.1087C50.0444 50.9212 50.0574 50.7311 50.073 50.5384C49.9115 50.7051 49.7605 50.8483 49.6199 50.9681C49.4792 51.0827 49.3048 51.2259 49.0964 51.3978L47.7917 52.4447L47.1121 51.5618L50.2058 49.179H51.2839V60.6009ZM62.6746 51.8431C62.6746 52.3535 62.5756 52.7962 62.3777 53.1712C62.1798 53.5462 61.9037 53.8535 61.5496 54.0931C61.1954 54.3275 60.7787 54.4915 60.2996 54.5853V54.6478C61.2058 54.7624 61.8855 55.054 62.3386 55.5228C62.797 55.9915 63.0261 56.6061 63.0261 57.3665C63.0261 58.028 62.8699 58.6139 62.5574 59.1243C62.2501 59.6348 61.7761 60.0358 61.1355 60.3275C60.5001 60.6139 59.685 60.7572 58.6902 60.7572C58.086 60.7572 57.5261 60.7077 57.0105 60.6087C56.5001 60.515 56.0105 60.3561 55.5417 60.1322V58.9134C56.0157 59.1478 56.5313 59.3327 57.0886 59.4681C57.6459 59.5983 58.185 59.6634 58.7058 59.6634C59.7475 59.6634 60.5001 59.4577 60.9636 59.0462C61.4272 58.6295 61.6589 58.0618 61.6589 57.3431C61.6589 56.8483 61.5287 56.4499 61.2683 56.1478C61.0131 55.8405 60.6433 55.6165 60.1589 55.4759C59.6798 55.3301 59.1016 55.2572 58.4246 55.2572H57.2839V54.1478H58.4324C59.0522 54.1478 59.5782 54.0566 60.0105 53.8743C60.4428 53.692 60.7709 53.4368 60.9949 53.1087C61.224 52.7754 61.3386 52.3822 61.3386 51.929C61.3386 51.3509 61.1459 50.9056 60.7605 50.5931C60.3751 50.2754 59.8516 50.1165 59.1902 50.1165C58.7839 50.1165 58.4141 50.1582 58.0808 50.2415C57.7475 50.3249 57.435 50.4394 57.1433 50.5853C56.8516 50.7311 56.56 50.9004 56.2683 51.0931L55.6121 50.2025C56.0287 49.8795 56.5365 49.6009 57.1355 49.3665C57.7345 49.1322 58.4141 49.015 59.1746 49.015C60.3412 49.015 61.2162 49.2806 61.7996 49.8118C62.3829 50.3431 62.6746 51.0202 62.6746 51.8431ZM68.3777 53.6165C69.1537 53.6165 69.8282 53.7493 70.4011 54.015C70.974 54.2754 71.4167 54.6556 71.7292 55.1556C72.047 55.6556 72.2058 56.2624 72.2058 56.9759C72.2058 57.7572 72.0365 58.4316 71.698 58.9993C71.3595 59.5618 70.8725 59.9967 70.2371 60.304C69.6016 60.6061 68.8412 60.7572 67.9558 60.7572C67.3621 60.7572 66.81 60.7051 66.2996 60.6009C65.7891 60.4967 65.3595 60.3405 65.0105 60.1322V58.8978C65.3907 59.1269 65.8516 59.3092 66.3933 59.4447C66.935 59.5801 67.461 59.6478 67.9714 59.6478C68.5496 59.6478 69.0548 59.5566 69.4871 59.3743C69.9246 59.1868 70.2631 58.9056 70.5027 58.5306C70.7475 58.1504 70.8699 57.6738 70.8699 57.1009C70.8699 56.3405 70.6355 55.7545 70.1667 55.3431C69.7032 54.9264 68.9688 54.7181 67.9636 54.7181C67.6407 54.7181 67.2865 54.7441 66.9011 54.7962C66.5157 54.8483 66.198 54.9056 65.948 54.9681L65.2917 54.5384L65.7292 49.179H71.4089V50.3665H66.8386L66.5496 53.8118C66.7475 53.7702 67.0027 53.7285 67.3152 53.6868C67.6277 53.64 67.9819 53.6165 68.3777 53.6165ZM78.5261 51.8822C79.5938 51.8822 80.4454 52.2493 81.0808 52.9837C81.7162 53.7181 82.0339 54.8223 82.0339 56.2962C82.0339 57.2702 81.8881 58.0879 81.5964 58.7493C81.3048 59.4108 80.8933 59.9108 80.3621 60.2493C79.836 60.5879 79.2136 60.7572 78.4949 60.7572C78.0417 60.7572 77.6433 60.6973 77.2996 60.5775C76.9558 60.4577 76.6615 60.2962 76.4167 60.0931C76.172 59.89 75.9688 59.6686 75.8074 59.429H75.7136C75.7292 59.6322 75.7475 59.8769 75.7683 60.1634C75.7944 60.4499 75.8074 60.6999 75.8074 60.9134V64.429H74.5027V52.0384H75.573L75.7449 53.304H75.8074C75.974 53.0436 76.1772 52.8066 76.4167 52.5931C76.6563 52.3743 76.948 52.2025 77.2917 52.0775C77.6407 51.9473 78.0522 51.8822 78.5261 51.8822ZM78.2996 52.9759C77.7058 52.9759 77.2266 53.0905 76.8621 53.3197C76.5027 53.5488 76.2397 53.8926 76.073 54.3509C75.9063 54.804 75.8178 55.3743 75.8074 56.0618V56.3118C75.8074 57.0358 75.8855 57.6478 76.0417 58.1478C76.2032 58.6478 76.4662 59.028 76.8308 59.2884C77.2006 59.5488 77.6954 59.679 78.3152 59.679C78.8464 59.679 79.2891 59.5358 79.6433 59.2493C79.9975 58.9629 80.2605 58.5644 80.4324 58.054C80.6095 57.5384 80.698 56.9473 80.698 56.2806C80.698 55.2702 80.5001 54.4681 80.1042 53.8743C79.7136 53.2754 79.1121 52.9759 78.2996 52.9759ZM86.3386 56.2181L83.3777 52.0384H84.8621L87.1199 55.3353L89.3699 52.0384H90.8386L87.8777 56.2181L91.0027 60.6009H89.5183L87.1199 57.1087L84.7058 60.6009H83.2371L86.3386 56.2181Z" fill="#575757"/>
<rect x="0.987061" y="91.0352" width="245" height="45" rx="1" fill="#575757"/>
<path d="M254.076 91.7046V136.035" stroke="#575757" stroke-width="1.5" stroke-linecap="square"/>
<path d="M252.076 91.0352H256.076" stroke="#575757" stroke-width="1.5" stroke-linecap="square"/>
<path d="M252.076 136.035H256.076" stroke="#575757" stroke-width="1.5" stroke-linecap="square"/>
<path d="M0.987549 142.601H245.987" stroke="#575757" stroke-width="1.5" stroke-linecap="square"/>
<path d="M0.986267 144.601L0.986267 140.601" stroke="#575757" stroke-width="1.5" stroke-linecap="square"/>
<path d="M245.984 144.601V140.601" stroke="#575757" stroke-width="1.5" stroke-linecap="square"/>
<path d="M59.4324 106.601H63.071C64.6765 106.601 65.8835 106.841 66.6921 107.321C67.5007 107.802 67.905 108.619 67.905 109.773C67.905 110.271 67.8083 110.72 67.615 111.118C67.4275 111.511 67.1521 111.836 66.7888 112.094C66.4255 112.352 65.9773 112.53 65.4441 112.63V112.718C66.0066 112.806 66.5046 112.967 66.9382 113.201C67.3718 113.436 67.7117 113.764 67.9578 114.186C68.2039 114.607 68.3269 115.144 68.3269 115.794C68.3269 116.585 68.1423 117.253 67.7732 117.798C67.4099 118.343 66.8943 118.756 66.2263 119.037C65.5583 119.313 64.7673 119.45 63.8533 119.45H59.4324V106.601ZM60.9265 112.111H63.3875C64.5066 112.111 65.28 111.927 65.7078 111.558C66.1414 111.188 66.3582 110.649 66.3582 109.94C66.3582 109.208 66.1003 108.681 65.5847 108.358C65.075 108.036 64.2605 107.875 63.1414 107.875H60.9265V112.111ZM60.9265 113.368V118.176H63.5984C64.741 118.176 65.5496 117.953 66.0242 117.508C66.4988 117.057 66.7361 116.45 66.7361 115.688C66.7361 115.202 66.6277 114.786 66.4109 114.44C66.2 114.095 65.8542 113.831 65.3738 113.649C64.8992 113.462 64.2634 113.368 63.4666 113.368H60.9265ZM78.8035 109.817V119.45H77.6082L77.3972 118.097H77.3181C77.1189 118.431 76.8611 118.712 76.5447 118.94C76.2283 119.169 75.8708 119.339 75.4724 119.45C75.0798 119.567 74.6609 119.626 74.2156 119.626C73.4539 119.626 72.8152 119.503 72.2996 119.257C71.7839 119.011 71.3943 118.63 71.1306 118.114C70.8728 117.599 70.7439 116.937 70.7439 116.128V109.817H72.2205V116.022C72.2205 116.825 72.4021 117.426 72.7654 117.824C73.1287 118.217 73.6824 118.413 74.4265 118.413C75.1414 118.413 75.7097 118.278 76.1316 118.009C76.5593 117.739 76.8669 117.344 77.0544 116.822C77.2419 116.295 77.3357 115.65 77.3357 114.889V109.817H78.8035ZM84.9998 118.431C85.24 118.431 85.4861 118.41 85.738 118.369C85.99 118.328 86.1951 118.278 86.3533 118.22V119.354C86.1833 119.43 85.946 119.494 85.6414 119.547C85.3425 119.6 85.0496 119.626 84.7625 119.626C84.2527 119.626 83.7898 119.538 83.3738 119.362C82.9578 119.181 82.6238 118.876 82.3718 118.448C82.1257 118.021 82.0027 117.429 82.0027 116.673V110.96H80.6316V110.248L82.0115 109.677L82.5916 107.585H83.4705V109.817H86.2917V110.96H83.4705V116.629C83.4705 117.232 83.6082 117.684 83.8835 117.982C84.1648 118.281 84.5369 118.431 84.9998 118.431ZM91.4158 118.431C91.656 118.431 91.9021 118.41 92.1541 118.369C92.406 118.328 92.6111 118.278 92.7693 118.22V119.354C92.5994 119.43 92.3621 119.494 92.0574 119.547C91.7585 119.6 91.4656 119.626 91.1785 119.626C90.6687 119.626 90.2058 119.538 89.7898 119.362C89.3738 119.181 89.0398 118.876 88.7878 118.448C88.5417 118.021 88.4187 117.429 88.4187 116.673V110.96H87.0476V110.248L88.4275 109.677L89.0076 107.585H89.8865V109.817H92.7078V110.96H89.8865V116.629C89.8865 117.232 90.0242 117.684 90.2996 117.982C90.5808 118.281 90.9529 118.431 91.4158 118.431ZM103.026 114.616C103.026 115.407 102.924 116.113 102.719 116.734C102.513 117.355 102.218 117.88 101.831 118.308C101.444 118.735 100.975 119.063 100.425 119.292C99.8796 119.515 99.2615 119.626 98.5701 119.626C97.9255 119.626 97.3337 119.515 96.7947 119.292C96.2615 119.063 95.7986 118.735 95.406 118.308C95.0193 117.88 94.7175 117.355 94.5007 116.734C94.2898 116.113 94.1843 115.407 94.1843 114.616C94.1843 113.562 94.363 112.665 94.7205 111.927C95.0779 111.183 95.5876 110.617 96.2498 110.23C96.9177 109.838 97.7117 109.642 98.6316 109.642C99.5105 109.642 100.278 109.838 100.934 110.23C101.596 110.623 102.109 111.191 102.472 111.936C102.842 112.674 103.026 113.567 103.026 114.616ZM95.696 114.616C95.696 115.39 95.7986 116.061 96.0037 116.629C96.2087 117.197 96.5251 117.637 96.9529 117.947C97.3806 118.258 97.9314 118.413 98.6052 118.413C99.2732 118.413 99.821 118.258 100.249 117.947C100.682 117.637 101.002 117.197 101.207 116.629C101.412 116.061 101.514 115.39 101.514 114.616C101.514 113.849 101.412 113.187 101.207 112.63C101.002 112.067 100.685 111.634 100.258 111.329C99.8298 111.024 99.2761 110.872 98.5964 110.872C97.5945 110.872 96.8591 111.203 96.3904 111.865C95.9275 112.527 95.696 113.444 95.696 114.616ZM110.11 109.642C111.253 109.642 112.117 109.923 112.703 110.485C113.289 111.042 113.582 111.938 113.582 113.175V119.45H112.14V113.271C112.14 112.469 111.956 111.868 111.587 111.47C111.223 111.071 110.664 110.872 109.908 110.872C108.842 110.872 108.092 111.174 107.658 111.777C107.224 112.381 107.008 113.257 107.008 114.405V119.45H105.549V109.817H106.726L106.946 111.206H107.025C107.23 110.866 107.491 110.582 107.807 110.354C108.124 110.119 108.478 109.943 108.871 109.826C109.263 109.703 109.677 109.642 110.11 109.642ZM127.135 119.45L122.819 108.077H122.749C122.772 108.317 122.793 108.61 122.81 108.956C122.828 109.302 122.843 109.68 122.854 110.09C122.866 110.494 122.872 110.907 122.872 111.329V119.45H121.483V106.601H123.698L127.767 117.288H127.829L131.96 106.601H134.157V119.45H132.68V111.224C132.68 110.843 132.686 110.462 132.698 110.081C132.71 109.694 132.724 109.331 132.742 108.991C132.76 108.646 132.777 108.347 132.795 108.095H132.724L128.356 119.45H127.135ZM141.162 109.642C141.982 109.642 142.685 109.823 143.271 110.187C143.857 110.55 144.305 111.06 144.616 111.716C144.927 112.366 145.082 113.128 145.082 114.001V114.906H138.428C138.446 116.037 138.727 116.898 139.272 117.49C139.817 118.082 140.585 118.378 141.575 118.378C142.184 118.378 142.723 118.322 143.192 118.211C143.661 118.1 144.147 117.936 144.651 117.719V119.002C144.165 119.219 143.681 119.377 143.201 119.477C142.726 119.576 142.164 119.626 141.513 119.626C140.588 119.626 139.779 119.438 139.088 119.063C138.402 118.683 137.869 118.126 137.488 117.394C137.107 116.661 136.917 115.765 136.917 114.704C136.917 113.667 137.09 112.771 137.435 112.015C137.787 111.253 138.279 110.667 138.912 110.257C139.551 109.847 140.301 109.642 141.162 109.642ZM141.144 110.837C140.365 110.837 139.744 111.092 139.281 111.602C138.818 112.111 138.543 112.823 138.455 113.737H143.552C143.547 113.163 143.456 112.659 143.28 112.226C143.11 111.786 142.849 111.446 142.498 111.206C142.146 110.96 141.695 110.837 141.144 110.837ZM150.988 119.626C149.769 119.626 148.802 119.21 148.088 118.378C147.379 117.546 147.024 116.31 147.024 114.669C147.024 113.011 147.387 111.76 148.114 110.916C148.841 110.066 149.807 109.642 151.014 109.642C151.524 109.642 151.969 109.709 152.35 109.844C152.731 109.979 153.059 110.16 153.335 110.389C153.61 110.611 153.842 110.866 154.029 111.153H154.135C154.111 110.972 154.088 110.723 154.064 110.406C154.041 110.09 154.029 109.832 154.029 109.633V105.774H155.488V119.45H154.31L154.091 118.079H154.029C153.847 118.366 153.616 118.627 153.335 118.861C153.059 119.096 152.728 119.283 152.342 119.424C151.961 119.559 151.51 119.626 150.988 119.626ZM151.217 118.413C152.248 118.413 152.977 118.12 153.405 117.534C153.833 116.948 154.047 116.078 154.047 114.924V114.66C154.047 113.436 153.842 112.495 153.431 111.839C153.027 111.183 152.289 110.855 151.217 110.855C150.32 110.855 149.649 111.2 149.204 111.892C148.759 112.577 148.536 113.515 148.536 114.704C148.536 115.888 148.756 116.802 149.195 117.446C149.64 118.091 150.314 118.413 151.217 118.413ZM160.041 109.817V119.45H158.582V109.817H160.041ZM159.329 106.214C159.569 106.214 159.774 106.293 159.944 106.451C160.12 106.604 160.208 106.844 160.208 107.172C160.208 107.494 160.12 107.734 159.944 107.893C159.774 108.051 159.569 108.13 159.329 108.13C159.077 108.13 158.866 108.051 158.696 107.893C158.532 107.734 158.45 107.494 158.45 107.172C158.45 106.844 158.532 106.604 158.696 106.451C158.866 106.293 159.077 106.214 159.329 106.214ZM171.089 109.817V119.45H169.893L169.682 118.097H169.603C169.404 118.431 169.146 118.712 168.83 118.94C168.513 119.169 168.156 119.339 167.758 119.45C167.365 119.567 166.946 119.626 166.501 119.626C165.739 119.626 165.1 119.503 164.585 119.257C164.069 119.011 163.679 118.63 163.416 118.114C163.158 117.599 163.029 116.937 163.029 116.128V109.817H164.506V116.022C164.506 116.825 164.687 117.426 165.051 117.824C165.414 118.217 165.968 118.413 166.712 118.413C167.427 118.413 167.995 118.278 168.417 118.009C168.844 117.739 169.152 117.344 169.34 116.822C169.527 116.295 169.621 115.65 169.621 114.889V109.817H171.089ZM184.633 109.642C185.693 109.642 186.493 109.92 187.032 110.477C187.571 111.027 187.841 111.915 187.841 113.14V119.45H186.399V113.21C186.399 112.431 186.229 111.848 185.889 111.461C185.555 111.068 185.057 110.872 184.395 110.872C183.464 110.872 182.787 111.142 182.365 111.681C181.943 112.22 181.732 113.014 181.732 114.063V119.45H180.282V113.21C180.282 112.688 180.206 112.255 180.053 111.909C179.907 111.563 179.684 111.306 179.385 111.136C179.093 110.96 178.72 110.872 178.269 110.872C177.631 110.872 177.118 111.004 176.731 111.268C176.344 111.531 176.063 111.924 175.887 112.445C175.718 112.961 175.633 113.597 175.633 114.353V119.45H174.174V109.817H175.351L175.571 111.18H175.65C175.844 110.846 176.087 110.564 176.38 110.336C176.673 110.107 177.001 109.935 177.364 109.817C177.727 109.7 178.114 109.642 178.524 109.642C179.257 109.642 179.869 109.779 180.361 110.055C180.859 110.324 181.219 110.737 181.442 111.294H181.521C181.838 110.737 182.271 110.324 182.822 110.055C183.373 109.779 183.976 109.642 184.633 109.642Z" fill="white"/>
<path d="M271.647 117.289H269.936V119.937H268.671V117.289H263.147V116.195L268.585 108.453H269.936V116.117H271.647V117.289ZM268.671 116.117V112.383C268.671 112.096 268.673 111.839 268.679 111.609C268.684 111.375 268.692 111.159 268.702 110.961C268.712 110.758 268.72 110.565 268.725 110.383C268.736 110.201 268.744 110.021 268.749 109.844H268.686C268.587 110.052 268.473 110.273 268.343 110.508C268.218 110.737 268.09 110.943 267.96 111.125L264.436 116.117H268.671ZM276.358 112.953C277.134 112.953 277.809 113.086 278.382 113.352C278.955 113.612 279.397 113.992 279.71 114.492C280.028 114.992 280.186 115.599 280.186 116.312C280.186 117.094 280.017 117.768 279.679 118.336C279.34 118.898 278.853 119.333 278.218 119.641C277.582 119.943 276.822 120.094 275.936 120.094C275.343 120.094 274.791 120.042 274.28 119.937C273.77 119.833 273.34 119.677 272.991 119.469V118.234C273.371 118.464 273.832 118.646 274.374 118.781C274.916 118.917 275.442 118.984 275.952 118.984C276.53 118.984 277.035 118.893 277.468 118.711C277.905 118.523 278.244 118.242 278.483 117.867C278.728 117.487 278.85 117.01 278.85 116.437C278.85 115.677 278.616 115.091 278.147 114.68C277.684 114.263 276.949 114.055 275.944 114.055C275.621 114.055 275.267 114.081 274.882 114.133C274.496 114.185 274.179 114.242 273.929 114.305L273.272 113.875L273.71 108.516H279.39V109.703H274.819L274.53 113.148C274.728 113.107 274.983 113.065 275.296 113.023C275.608 112.977 275.962 112.953 276.358 112.953ZM286.507 111.219C287.574 111.219 288.426 111.586 289.061 112.32C289.697 113.055 290.015 114.159 290.015 115.633C290.015 116.607 289.869 117.424 289.577 118.086C289.285 118.747 288.874 119.247 288.343 119.586C287.817 119.924 287.194 120.094 286.475 120.094C286.022 120.094 285.624 120.034 285.28 119.914C284.936 119.794 284.642 119.633 284.397 119.43C284.153 119.227 283.949 119.005 283.788 118.766H283.694C283.71 118.969 283.728 119.214 283.749 119.5C283.775 119.786 283.788 120.036 283.788 120.25V123.766H282.483V111.375H283.554L283.725 112.641H283.788C283.955 112.38 284.158 112.143 284.397 111.93C284.637 111.711 284.929 111.539 285.272 111.414C285.621 111.284 286.033 111.219 286.507 111.219ZM286.28 112.312C285.686 112.312 285.207 112.427 284.843 112.656C284.483 112.885 284.22 113.229 284.054 113.687C283.887 114.141 283.798 114.711 283.788 115.398V115.648C283.788 116.372 283.866 116.984 284.022 117.484C284.184 117.984 284.447 118.365 284.811 118.625C285.181 118.885 285.676 119.016 286.296 119.016C286.827 119.016 287.27 118.872 287.624 118.586C287.978 118.299 288.241 117.901 288.413 117.391C288.59 116.875 288.679 116.284 288.679 115.617C288.679 114.607 288.481 113.805 288.085 113.211C287.694 112.612 287.093 112.312 286.28 112.312ZM294.319 115.555L291.358 111.375H292.843L295.1 114.672L297.35 111.375H298.819L295.858 115.555L298.983 119.937H297.499L295.1 116.445L292.686 119.937H291.218L294.319 115.555Z" fill="#575757"/>
<path d="M108.941 161.601H101.456V160.515L104.511 157.413C105.079 156.84 105.555 156.33 105.941 155.882C106.331 155.434 106.628 154.994 106.831 154.562C107.034 154.124 107.136 153.645 107.136 153.124C107.136 152.479 106.943 151.986 106.558 151.648C106.178 151.304 105.675 151.132 105.05 151.132C104.503 151.132 104.019 151.226 103.597 151.413C103.175 151.601 102.743 151.867 102.3 152.21L101.605 151.335C101.907 151.08 102.235 150.854 102.589 150.656C102.948 150.458 103.331 150.301 103.737 150.187C104.149 150.072 104.586 150.015 105.05 150.015C105.753 150.015 106.36 150.137 106.87 150.382C107.381 150.627 107.774 150.976 108.05 151.429C108.331 151.882 108.472 152.421 108.472 153.046C108.472 153.65 108.352 154.213 108.112 154.734C107.873 155.249 107.537 155.762 107.105 156.273C106.672 156.778 106.167 157.314 105.589 157.882L103.105 160.359V160.413H108.941V161.601ZM118.667 158.952H116.956V161.601H115.691V158.952H110.167V157.859L115.605 150.117H116.956V157.781H118.667V158.952ZM115.691 157.781V154.046C115.691 153.76 115.693 153.502 115.698 153.273C115.704 153.038 115.711 152.822 115.722 152.624C115.732 152.421 115.74 152.229 115.745 152.046C115.756 151.864 115.763 151.684 115.769 151.507H115.706C115.607 151.715 115.493 151.937 115.362 152.171C115.237 152.4 115.11 152.606 114.98 152.788L111.456 157.781H115.691ZM123.378 154.617C124.154 154.617 124.829 154.749 125.401 155.015C125.974 155.275 126.417 155.656 126.73 156.156C127.047 156.656 127.206 157.262 127.206 157.976C127.206 158.757 127.037 159.432 126.698 159.999C126.36 160.562 125.873 160.997 125.237 161.304C124.602 161.606 123.842 161.757 122.956 161.757C122.362 161.757 121.81 161.705 121.3 161.601C120.789 161.497 120.36 161.34 120.011 161.132V159.898C120.391 160.127 120.852 160.309 121.394 160.445C121.935 160.58 122.461 160.648 122.972 160.648C123.55 160.648 124.055 160.557 124.487 160.374C124.925 160.187 125.263 159.906 125.503 159.531C125.748 159.15 125.87 158.674 125.87 158.101C125.87 157.34 125.636 156.755 125.167 156.343C124.704 155.926 123.969 155.718 122.964 155.718C122.641 155.718 122.287 155.744 121.901 155.796C121.516 155.848 121.198 155.906 120.948 155.968L120.292 155.538L120.73 150.179H126.409V151.367H121.839L121.55 154.812C121.748 154.77 122.003 154.729 122.316 154.687C122.628 154.64 122.982 154.617 123.378 154.617ZM133.526 152.882C134.594 152.882 135.446 153.249 136.081 153.984C136.717 154.718 137.034 155.822 137.034 157.296C137.034 158.27 136.888 159.088 136.597 159.749C136.305 160.411 135.894 160.911 135.362 161.249C134.836 161.588 134.214 161.757 133.495 161.757C133.042 161.757 132.644 161.697 132.3 161.577C131.956 161.458 131.662 161.296 131.417 161.093C131.172 160.89 130.969 160.669 130.808 160.429H130.714C130.73 160.632 130.748 160.877 130.769 161.163C130.795 161.45 130.808 161.7 130.808 161.913V165.429H129.503V153.038H130.573L130.745 154.304H130.808C130.974 154.044 131.178 153.807 131.417 153.593C131.657 153.374 131.948 153.202 132.292 153.077C132.641 152.947 133.053 152.882 133.526 152.882ZM133.3 153.976C132.706 153.976 132.227 154.09 131.862 154.32C131.503 154.549 131.24 154.893 131.073 155.351C130.907 155.804 130.818 156.374 130.808 157.062V157.312C130.808 158.036 130.886 158.648 131.042 159.148C131.204 159.648 131.467 160.028 131.831 160.288C132.201 160.549 132.696 160.679 133.316 160.679C133.847 160.679 134.289 160.536 134.644 160.249C134.998 159.963 135.261 159.564 135.433 159.054C135.61 158.538 135.698 157.947 135.698 157.281C135.698 156.27 135.5 155.468 135.105 154.874C134.714 154.275 134.112 153.976 133.3 153.976ZM141.339 157.218L138.378 153.038H139.862L142.12 156.335L144.37 153.038H145.839L142.878 157.218L146.003 161.601H144.519L142.12 158.109L139.706 161.601H138.237L141.339 157.218Z" fill="#575757"/>
<rect x="0.987061" y="191.035" width="285" height="55" rx="1" fill="#575757"/>
<path d="M293.706 191.853V246.035" stroke="#575757" stroke-width="1.5" stroke-linecap="square"/>
<path d="M291.706 191.035H295.706" stroke="#575757" stroke-width="1.5" stroke-linecap="square"/>
<path d="M291.706 246.035H295.706" stroke="#575757" stroke-width="1.5" stroke-linecap="square"/>
<path d="M0.987549 252.601H285.987" stroke="#575757" stroke-width="1.5" stroke-linecap="square"/>
<path d="M0.986267 254.601L0.986267 250.601" stroke="#575757" stroke-width="1.5" stroke-linecap="square"/>
<path d="M285.983 254.601V250.601" stroke="#575757" stroke-width="1.5" stroke-linecap="square"/>
<path d="M84.099 211.758H88.142C89.9258 211.758 91.267 212.025 92.1654 212.559C93.0638 213.093 93.5131 214.001 93.5131 215.283C93.5131 215.837 93.4056 216.335 93.1908 216.777C92.9825 217.214 92.6765 217.575 92.2728 217.861C91.8692 218.148 91.3711 218.346 90.7787 218.457V218.555C91.4037 218.652 91.9571 218.831 92.4388 219.092C92.9206 219.352 93.2982 219.717 93.5717 220.186C93.8451 220.654 93.9818 221.25 93.9818 221.973C93.9818 222.852 93.7767 223.594 93.3666 224.199C92.9629 224.805 92.39 225.264 91.6478 225.576C90.9056 225.882 90.0267 226.035 89.0111 226.035H84.099V211.758ZM85.7592 217.881H88.4935C89.737 217.881 90.5964 217.676 91.0717 217.266C91.5534 216.856 91.7943 216.257 91.7943 215.469C91.7943 214.655 91.5079 214.069 90.9349 213.711C90.3685 213.353 89.4636 213.174 88.2201 213.174H85.7592V217.881ZM85.7592 219.277V224.619H88.7279C89.9974 224.619 90.8959 224.372 91.4232 223.877C91.9506 223.376 92.2142 222.702 92.2142 221.856C92.2142 221.315 92.0938 220.853 91.8529 220.469C91.6185 220.085 91.2344 219.792 90.7006 219.59C90.1732 219.382 89.4668 219.277 88.5814 219.277H85.7592ZM105.622 215.332V226.035H104.294L104.06 224.531H103.972C103.751 224.902 103.464 225.215 103.113 225.469C102.761 225.723 102.364 225.912 101.921 226.035C101.485 226.165 101.02 226.231 100.525 226.231C99.6784 226.231 98.9688 226.094 98.3959 225.82C97.823 225.547 97.39 225.124 97.097 224.551C96.8106 223.978 96.6674 223.242 96.6674 222.344V215.332H98.308V222.227C98.308 223.119 98.5098 223.786 98.9135 224.229C99.3171 224.665 99.9323 224.883 100.759 224.883C101.553 224.883 102.185 224.733 102.654 224.434C103.129 224.134 103.471 223.695 103.679 223.115C103.887 222.529 103.992 221.813 103.992 220.967V215.332H105.622ZM112.507 224.902C112.774 224.902 113.048 224.88 113.328 224.834C113.607 224.788 113.835 224.733 114.011 224.668V225.928C113.822 226.012 113.559 226.084 113.22 226.143C112.888 226.201 112.563 226.231 112.244 226.231C111.677 226.231 111.163 226.133 110.701 225.938C110.238 225.736 109.867 225.397 109.587 224.922C109.314 224.447 109.177 223.789 109.177 222.949V216.602H107.654V215.811L109.187 215.176L109.831 212.852H110.808V215.332H113.943V216.602H110.808V222.9C110.808 223.571 110.961 224.072 111.267 224.404C111.579 224.736 111.993 224.902 112.507 224.902ZM119.636 224.902C119.903 224.902 120.176 224.88 120.456 224.834C120.736 224.788 120.964 224.733 121.14 224.668V225.928C120.951 226.012 120.688 226.084 120.349 226.143C120.017 226.201 119.691 226.231 119.372 226.231C118.806 226.231 118.292 226.133 117.829 225.938C117.367 225.736 116.996 225.397 116.716 224.922C116.443 224.447 116.306 223.789 116.306 222.949V216.602H114.783V215.811L116.316 215.176L116.96 212.852H117.937V215.332H121.072V216.602H117.937V222.9C117.937 223.571 118.09 224.072 118.396 224.404C118.708 224.736 119.122 224.902 119.636 224.902ZM132.536 220.664C132.536 221.543 132.423 222.328 132.195 223.018C131.967 223.708 131.638 224.29 131.208 224.766C130.779 225.241 130.258 225.606 129.646 225.859C129.04 226.107 128.354 226.231 127.585 226.231C126.869 226.231 126.212 226.107 125.613 225.859C125.02 225.606 124.506 225.241 124.07 224.766C123.64 224.29 123.305 223.708 123.064 223.018C122.829 222.328 122.712 221.543 122.712 220.664C122.712 219.492 122.911 218.496 123.308 217.676C123.705 216.849 124.272 216.221 125.007 215.791C125.749 215.355 126.632 215.137 127.654 215.137C128.63 215.137 129.483 215.355 130.212 215.791C130.948 216.227 131.518 216.859 131.921 217.686C132.331 218.506 132.536 219.499 132.536 220.664ZM124.392 220.664C124.392 221.523 124.506 222.269 124.734 222.9C124.962 223.532 125.313 224.02 125.788 224.365C126.264 224.71 126.876 224.883 127.624 224.883C128.367 224.883 128.975 224.71 129.451 224.365C129.932 224.02 130.287 223.532 130.515 222.9C130.743 222.269 130.857 221.523 130.857 220.664C130.857 219.811 130.743 219.076 130.515 218.457C130.287 217.832 129.936 217.35 129.46 217.012C128.985 216.673 128.37 216.504 127.615 216.504C126.501 216.504 125.684 216.872 125.163 217.607C124.649 218.343 124.392 219.362 124.392 220.664ZM140.408 215.137C141.677 215.137 142.637 215.449 143.288 216.074C143.939 216.693 144.265 217.689 144.265 219.063V226.035H142.663V219.17C142.663 218.278 142.458 217.611 142.048 217.168C141.645 216.725 141.023 216.504 140.183 216.504C138.998 216.504 138.165 216.839 137.683 217.51C137.201 218.18 136.96 219.154 136.96 220.43V226.035H135.339V215.332H136.648L136.892 216.875H136.98C137.208 216.497 137.497 216.182 137.849 215.928C138.201 215.667 138.594 215.472 139.031 215.342C139.467 215.205 139.926 215.137 140.408 215.137ZM153.044 226.035V211.758H154.704V224.551H161.042V226.035H153.044ZM167.253 215.156C168.529 215.156 169.477 215.443 170.095 216.016C170.714 216.589 171.023 217.503 171.023 218.76V226.035H169.841L169.529 224.453H169.451C169.151 224.844 168.839 225.173 168.513 225.44C168.188 225.7 167.81 225.898 167.38 226.035C166.957 226.165 166.436 226.231 165.818 226.231C165.167 226.231 164.587 226.117 164.079 225.889C163.578 225.661 163.181 225.316 162.888 224.854C162.602 224.391 162.458 223.805 162.458 223.096C162.458 222.028 162.882 221.208 163.728 220.635C164.574 220.062 165.863 219.749 167.595 219.697L169.441 219.619V218.965C169.441 218.04 169.242 217.393 168.845 217.022C168.448 216.65 167.888 216.465 167.165 216.465C166.606 216.465 166.072 216.546 165.564 216.709C165.056 216.872 164.574 217.064 164.119 217.285L163.62 216.055C164.102 215.807 164.656 215.596 165.281 215.42C165.906 215.244 166.563 215.156 167.253 215.156ZM169.421 220.762L167.79 220.83C166.456 220.882 165.515 221.1 164.968 221.484C164.421 221.869 164.148 222.412 164.148 223.115C164.148 223.727 164.333 224.18 164.704 224.473C165.076 224.766 165.567 224.912 166.179 224.912C167.13 224.912 167.908 224.648 168.513 224.121C169.119 223.594 169.421 222.803 169.421 221.748V220.762ZM179.226 215.137C179.441 215.137 179.665 215.15 179.9 215.176C180.134 215.195 180.342 215.225 180.525 215.264L180.32 216.768C180.144 216.722 179.949 216.686 179.734 216.66C179.519 216.634 179.317 216.621 179.128 216.621C178.699 216.621 178.292 216.709 177.908 216.885C177.53 217.054 177.198 217.301 176.911 217.627C176.625 217.946 176.4 218.333 176.238 218.789C176.075 219.238 175.994 219.74 175.994 220.293V226.035H174.363V215.332H175.71L175.886 217.305H175.954C176.176 216.908 176.443 216.546 176.755 216.221C177.068 215.889 177.429 215.625 177.839 215.43C178.256 215.234 178.718 215.137 179.226 215.137ZM185.535 230.84C184.128 230.84 183.044 230.576 182.283 230.049C181.521 229.528 181.14 228.796 181.14 227.852C181.14 227.181 181.352 226.608 181.775 226.133C182.204 225.658 182.797 225.342 183.552 225.186C183.272 225.055 183.031 224.86 182.829 224.6C182.634 224.339 182.536 224.04 182.536 223.701C182.536 223.311 182.644 222.969 182.859 222.676C183.08 222.376 183.415 222.09 183.865 221.816C183.305 221.589 182.849 221.204 182.497 220.664C182.152 220.117 181.98 219.482 181.98 218.76C181.98 217.992 182.139 217.337 182.458 216.797C182.777 216.25 183.24 215.833 183.845 215.547C184.451 215.26 185.183 215.117 186.042 215.117C186.231 215.117 186.42 215.127 186.609 215.147C186.804 215.16 186.99 215.182 187.165 215.215C187.341 215.241 187.494 215.273 187.624 215.313H191.296V216.357L189.324 216.602C189.519 216.856 189.682 217.162 189.812 217.52C189.942 217.878 190.007 218.275 190.007 218.711C190.007 219.779 189.646 220.628 188.923 221.26C188.201 221.885 187.208 222.197 185.945 222.197C185.645 222.197 185.339 222.171 185.027 222.119C184.708 222.295 184.464 222.49 184.294 222.705C184.132 222.92 184.05 223.167 184.05 223.447C184.05 223.656 184.112 223.822 184.236 223.945C184.366 224.069 184.551 224.16 184.792 224.219C185.033 224.271 185.323 224.297 185.661 224.297H187.546C188.712 224.297 189.604 224.541 190.222 225.029C190.847 225.518 191.16 226.231 191.16 227.168C191.16 228.353 190.678 229.261 189.714 229.893C188.751 230.524 187.357 230.84 185.535 230.84ZM185.583 229.57C186.469 229.57 187.201 229.479 187.781 229.297C188.367 229.121 188.803 228.864 189.089 228.525C189.382 228.193 189.529 227.796 189.529 227.334C189.529 226.904 189.431 226.579 189.236 226.357C189.04 226.143 188.754 225.999 188.376 225.928C187.999 225.85 187.536 225.811 186.99 225.811H185.134C184.652 225.811 184.232 225.885 183.874 226.035C183.516 226.185 183.24 226.406 183.044 226.699C182.856 226.992 182.761 227.357 182.761 227.793C182.761 228.372 183.005 228.812 183.494 229.111C183.982 229.417 184.678 229.57 185.583 229.57ZM186.003 221.016C186.778 221.016 187.361 220.82 187.751 220.43C188.142 220.039 188.337 219.469 188.337 218.721C188.337 217.92 188.139 217.321 187.742 216.924C187.344 216.52 186.759 216.318 185.984 216.318C185.242 216.318 184.669 216.527 184.265 216.943C183.868 217.354 183.669 217.956 183.669 218.75C183.669 219.479 183.871 220.039 184.275 220.43C184.678 220.82 185.255 221.016 186.003 221.016ZM197.527 215.137C198.438 215.137 199.219 215.339 199.87 215.742C200.522 216.146 201.02 216.712 201.365 217.441C201.71 218.164 201.882 219.01 201.882 219.981V220.986H194.49C194.509 222.243 194.822 223.2 195.427 223.857C196.033 224.515 196.885 224.844 197.986 224.844C198.663 224.844 199.262 224.782 199.783 224.658C200.303 224.535 200.844 224.352 201.404 224.111V225.537C200.863 225.778 200.326 225.954 199.792 226.065C199.265 226.175 198.64 226.231 197.917 226.231C196.889 226.231 195.99 226.022 195.222 225.606C194.46 225.182 193.868 224.564 193.445 223.75C193.022 222.936 192.81 221.94 192.81 220.762C192.81 219.609 193.002 218.613 193.386 217.773C193.777 216.927 194.324 216.276 195.027 215.82C195.736 215.365 196.57 215.137 197.527 215.137ZM197.507 216.465C196.641 216.465 195.951 216.748 195.437 217.315C194.923 217.881 194.617 218.672 194.519 219.688H200.183C200.176 219.05 200.076 218.49 199.88 218.008C199.691 217.52 199.402 217.142 199.011 216.875C198.62 216.602 198.119 216.465 197.507 216.465Z" fill="white"/>
<path d="M306.833 217.931C307.609 217.931 308.283 218.064 308.856 218.33C309.429 218.59 309.872 218.97 310.184 219.47C310.502 219.97 310.661 220.577 310.661 221.291C310.661 222.072 310.491 222.747 310.153 223.314C309.814 223.877 309.327 224.312 308.692 224.619C308.057 224.921 307.296 225.072 306.411 225.072C305.817 225.072 305.265 225.02 304.755 224.916C304.244 224.812 303.814 224.655 303.465 224.447V223.213C303.846 223.442 304.307 223.624 304.848 223.76C305.39 223.895 305.916 223.963 306.426 223.963C307.005 223.963 307.51 223.872 307.942 223.689C308.38 223.502 308.718 223.22 308.958 222.845C309.202 222.465 309.325 221.989 309.325 221.416C309.325 220.655 309.09 220.069 308.622 219.658C308.158 219.241 307.424 219.033 306.419 219.033C306.096 219.033 305.741 219.059 305.356 219.111C304.971 219.163 304.653 219.22 304.403 219.283L303.747 218.853L304.184 213.494H309.864V214.681H305.294L305.005 218.127C305.202 218.085 305.458 218.043 305.77 218.002C306.083 217.955 306.437 217.931 306.833 217.931ZM315.989 217.931C316.765 217.931 317.439 218.064 318.012 218.33C318.585 218.59 319.028 218.97 319.34 219.47C319.658 219.97 319.817 220.577 319.817 221.291C319.817 222.072 319.648 222.747 319.309 223.314C318.971 223.877 318.484 224.312 317.848 224.619C317.213 224.921 316.452 225.072 315.567 225.072C314.973 225.072 314.421 225.02 313.911 224.916C313.4 224.812 312.971 224.655 312.622 224.447V223.213C313.002 223.442 313.463 223.624 314.005 223.76C314.546 223.895 315.072 223.963 315.583 223.963C316.161 223.963 316.666 223.872 317.098 223.689C317.536 223.502 317.874 223.22 318.114 222.845C318.359 222.465 318.481 221.989 318.481 221.416C318.481 220.655 318.247 220.069 317.778 219.658C317.314 219.241 316.58 219.033 315.575 219.033C315.252 219.033 314.898 219.059 314.512 219.111C314.127 219.163 313.809 219.22 313.559 219.283L312.903 218.853L313.34 213.494H319.02V214.681H314.45L314.161 218.127C314.359 218.085 314.614 218.043 314.926 218.002C315.239 217.955 315.593 217.931 315.989 217.931ZM326.137 216.197C327.205 216.197 328.057 216.564 328.692 217.299C329.327 218.033 329.645 219.137 329.645 220.611C329.645 221.585 329.499 222.403 329.208 223.064C328.916 223.726 328.505 224.226 327.973 224.564C327.447 224.903 326.825 225.072 326.106 225.072C325.653 225.072 325.255 225.012 324.911 224.892C324.567 224.773 324.273 224.611 324.028 224.408C323.783 224.205 323.58 223.983 323.419 223.744H323.325C323.34 223.947 323.359 224.192 323.38 224.478C323.406 224.765 323.419 225.015 323.419 225.228V228.744H322.114V216.353H323.184L323.356 217.619H323.419C323.585 217.358 323.788 217.122 324.028 216.908C324.268 216.689 324.559 216.517 324.903 216.392C325.252 216.262 325.663 216.197 326.137 216.197ZM325.911 217.291C325.317 217.291 324.838 217.405 324.473 217.635C324.114 217.864 323.851 218.207 323.684 218.666C323.518 219.119 323.429 219.689 323.419 220.377V220.627C323.419 221.351 323.497 221.963 323.653 222.463C323.814 222.963 324.077 223.343 324.442 223.603C324.812 223.864 325.307 223.994 325.926 223.994C326.458 223.994 326.9 223.851 327.255 223.564C327.609 223.278 327.872 222.879 328.044 222.369C328.221 221.853 328.309 221.262 328.309 220.595C328.309 219.585 328.111 218.783 327.715 218.189C327.325 217.59 326.723 217.291 325.911 217.291ZM333.95 220.533L330.989 216.353H332.473L334.731 219.65L336.981 216.353H338.45L335.489 220.533L338.614 224.916H337.13L334.731 221.424L332.317 224.916H330.848L333.95 220.533Z" fill="#575757"/>
<path d="M128.941 271.601H121.456V270.515L124.511 267.413C125.079 266.84 125.555 266.33 125.941 265.882C126.331 265.434 126.628 264.994 126.831 264.562C127.034 264.124 127.136 263.645 127.136 263.124C127.136 262.478 126.943 261.986 126.558 261.648C126.178 261.304 125.675 261.132 125.05 261.132C124.503 261.132 124.019 261.226 123.597 261.413C123.175 261.601 122.743 261.867 122.3 262.21L121.605 261.335C121.907 261.08 122.235 260.853 122.589 260.656C122.948 260.458 123.331 260.301 123.737 260.187C124.149 260.072 124.586 260.015 125.05 260.015C125.753 260.015 126.36 260.137 126.87 260.382C127.381 260.627 127.774 260.976 128.05 261.429C128.331 261.882 128.472 262.421 128.472 263.046C128.472 263.65 128.352 264.213 128.112 264.734C127.873 265.249 127.537 265.762 127.105 266.273C126.672 266.778 126.167 267.314 125.589 267.882L123.105 270.359V270.413H128.941V271.601ZM134.386 260.015C135.047 260.015 135.633 260.119 136.144 260.327C136.654 260.536 137.053 260.843 137.339 261.249C137.631 261.65 137.777 262.145 137.777 262.734C137.777 263.197 137.675 263.603 137.472 263.952C137.274 264.296 137.006 264.598 136.667 264.859C136.329 265.114 135.954 265.343 135.542 265.546C136.032 265.77 136.472 266.023 136.862 266.304C137.258 266.585 137.571 266.916 137.8 267.296C138.029 267.676 138.144 268.127 138.144 268.648C138.144 269.288 137.987 269.843 137.675 270.312C137.368 270.775 136.935 271.132 136.378 271.382C135.821 271.632 135.167 271.757 134.417 271.757C133.61 271.757 132.922 271.637 132.355 271.398C131.792 271.153 131.362 270.804 131.066 270.351C130.774 269.893 130.628 269.343 130.628 268.702C130.628 268.176 130.74 267.721 130.964 267.335C131.188 266.945 131.485 266.609 131.855 266.327C132.224 266.046 132.628 265.809 133.066 265.617C132.685 265.408 132.336 265.171 132.019 264.906C131.706 264.64 131.456 264.33 131.269 263.976C131.086 263.617 130.995 263.2 130.995 262.726C130.995 262.148 131.141 261.658 131.433 261.257C131.73 260.851 132.133 260.544 132.644 260.335C133.159 260.122 133.74 260.015 134.386 260.015ZM131.902 268.71C131.902 269.294 132.107 269.775 132.519 270.156C132.93 270.531 133.553 270.718 134.386 270.718C135.178 270.718 135.79 270.531 136.222 270.156C136.654 269.775 136.87 269.278 136.87 268.663C136.87 268.283 136.771 267.95 136.573 267.663C136.375 267.372 136.094 267.111 135.73 266.882C135.365 266.653 134.935 266.445 134.441 266.257L134.159 266.156C133.68 266.353 133.271 266.575 132.933 266.82C132.599 267.059 132.344 267.333 132.167 267.64C131.99 267.947 131.902 268.304 131.902 268.71ZM134.37 261.077C133.756 261.077 133.253 261.226 132.862 261.523C132.472 261.814 132.277 262.236 132.277 262.788C132.277 263.184 132.37 263.52 132.558 263.796C132.75 264.067 133.011 264.301 133.339 264.499C133.667 264.692 134.034 264.872 134.441 265.038C134.836 264.872 135.188 264.689 135.495 264.492C135.803 264.288 136.045 264.049 136.222 263.773C136.399 263.497 136.487 263.166 136.487 262.781C136.487 262.228 136.292 261.807 135.902 261.515C135.516 261.223 135.006 261.077 134.37 261.077ZM143.378 264.617C144.154 264.617 144.829 264.749 145.402 265.015C145.974 265.275 146.417 265.656 146.73 266.156C147.047 266.656 147.206 267.262 147.206 267.976C147.206 268.757 147.037 269.432 146.698 269.999C146.36 270.562 145.873 270.997 145.237 271.304C144.602 271.606 143.842 271.757 142.956 271.757C142.362 271.757 141.81 271.705 141.3 271.601C140.79 271.497 140.36 271.34 140.011 271.132V269.898C140.391 270.127 140.852 270.309 141.394 270.445C141.935 270.58 142.461 270.648 142.972 270.648C143.55 270.648 144.055 270.557 144.487 270.374C144.925 270.187 145.264 269.906 145.503 269.531C145.748 269.15 145.87 268.674 145.87 268.101C145.87 267.34 145.636 266.755 145.167 266.343C144.704 265.926 143.969 265.718 142.964 265.718C142.641 265.718 142.287 265.744 141.902 265.796C141.516 265.848 141.198 265.906 140.948 265.968L140.292 265.538L140.73 260.179H146.409V261.367H141.839L141.55 264.812C141.748 264.77 142.003 264.728 142.316 264.687C142.628 264.64 142.982 264.617 143.378 264.617ZM153.527 262.882C154.594 262.882 155.446 263.249 156.081 263.984C156.717 264.718 157.034 265.822 157.034 267.296C157.034 268.27 156.889 269.088 156.597 269.749C156.305 270.411 155.894 270.911 155.362 271.249C154.836 271.588 154.214 271.757 153.495 271.757C153.042 271.757 152.644 271.697 152.3 271.577C151.956 271.458 151.662 271.296 151.417 271.093C151.172 270.89 150.969 270.669 150.808 270.429H150.714C150.73 270.632 150.748 270.877 150.769 271.163C150.795 271.45 150.808 271.7 150.808 271.913V275.429H149.503V263.038H150.573L150.745 264.304H150.808C150.974 264.044 151.178 263.807 151.417 263.593C151.657 263.374 151.948 263.202 152.292 263.077C152.641 262.947 153.053 262.882 153.527 262.882ZM153.3 263.976C152.706 263.976 152.227 264.09 151.862 264.32C151.503 264.549 151.24 264.893 151.073 265.351C150.907 265.804 150.818 266.374 150.808 267.062V267.312C150.808 268.036 150.886 268.648 151.042 269.148C151.204 269.648 151.467 270.028 151.831 270.288C152.201 270.549 152.696 270.679 153.316 270.679C153.847 270.679 154.29 270.536 154.644 270.249C154.998 269.963 155.261 269.564 155.433 269.054C155.61 268.538 155.698 267.947 155.698 267.281C155.698 266.27 155.5 265.468 155.105 264.874C154.714 264.275 154.112 263.976 153.3 263.976ZM161.339 267.218L158.378 263.038H159.862L162.12 266.335L164.37 263.038H165.839L162.878 267.218L166.003 271.601H164.519L162.12 268.109L159.706 271.601H158.237L161.339 267.218Z" fill="#575757"/>
</svg>
