 <svg  version="1.0" xmlns="http://www.w3.org/2000/svg"  width="450.000000pt" height="450.000000pt" viewBox="0 0 450.000000 450.000000"  preserveAspectRatio="xMidYMid meet">  <g transform="translate(0.000000,450.000000) scale(0.100000,-0.100000)" fill="#000000" stroke="none"> <path d="M2126 4041 c-40 -13 -73 -39 -175 -138 l-126 -123 -55 1 c-115 1 -221 -8 -232 -19 -7 -7 -29 -12 -50 -12 -21 0 -46 -4 -56 -9 -91 -48 -178 -61 -212 -31 -23 20 -116 66 -220 108 -74 30 -118 34 -156 14 -16 -8 -24 -8 -33 1 -9 9 -21 1 -51 -32 -22 -24 -43 -56 -47 -70 -3 -14 -10 -32 -16 -39 -27 -34 -40 -260 -16 -288 6 -7 8 -22 4 -34 -4 -12 -2 -20 5 -20 7 0 9 -7 6 -17 -4 -9 1 -40 10 -70 13 -40 14 -56 5 -66 -6 -8 -8 -27 -5 -46 4 -17 2 -37 -3 -43 -6 -7 -16 -34 -23 -60 -7 -27 -17 -48 -21 -48 -5 0 -9 -16 -9 -36 0 -19 -9 -54 -19 -77 -17 -38 -18 -54 -10 -152 7 -90 16 -130 47 -215 l39 -105 84 -32 c46 -18 91 -32 100 -33 12 0 30 -41 68 -159 l51 -159 47 -31 c25 -17 50 -31 55 -31 4 0 8 -4 8 -9 0 -5 -18 -11 -41 -15 -34 -5 -40 -10 -34 -24 4 -9 8 -22 9 -29 1 -7 6 -16 10 -20 5 -4 6 4 2 19 -7 30 -3 32 76 43 27 3 53 3 60 -1 13 -8 42 -13 105 -17 39 -2 42 0 36 21 -3 15 -1 22 8 22 11 0 11 3 -1 10 -26 17 -37 11 -32 -15 2 -15 0 -25 -7 -25 -6 0 -11 11 -11 25 0 14 -5 25 -11 25 -6 0 -8 -9 -4 -20 7 -22 -19 -29 -29 -7 -5 10 -7 10 -12 0 -10 -23 -26 -14 -20 11 3 14 2 28 -4 31 -5 3 -7 0 -4 -8 6 -18 -12 -32 -21 -17 -3 5 -12 10 -18 10 -7 0 -6 -4 3 -11 11 -8 8 -9 -14 -4 -46 10 -168 116 -153 132 4 3 7 1 7 -5 0 -7 4 -12 10 -12 5 0 -2 16 -15 37 -26 38 -26 55 0 33 22 -19 18 -3 -9 33 -32 44 -59 98 -51 105 3 4 10 0 15 -8 6 -8 10 -10 10 -4 0 6 -9 23 -20 37 -11 14 -20 32 -20 41 0 9 -6 16 -14 16 -7 0 -21 10 -30 23 -10 14 -14 16 -10 5 4 -12 1 -18 -10 -18 -8 0 -18 11 -22 25 -3 13 -15 27 -26 30 -10 4 -23 17 -28 31 -6 14 -15 22 -23 18 -10 -3 -18 6 -26 27 -13 38 -22 36 -14 -3 3 -15 13 -30 22 -33 21 -6 99 -85 85 -85 -5 0 -19 7 -31 15 -12 9 -27 14 -34 13 -7 -2 -18 8 -25 21 -7 13 -20 28 -28 33 -9 5 -16 20 -16 34 0 13 -6 27 -14 30 -9 3 -13 21 -12 55 1 27 -2 49 -6 49 -4 0 -8 -4 -8 -10 0 -5 -4 -10 -10 -10 -15 0 -12 72 4 111 21 52 30 103 17 95 -6 -4 -11 -18 -11 -32 0 -13 -4 -24 -9 -24 -5 0 -12 -10 -15 -22 -2 -13 -4 -2 -3 25 1 26 -1 47 -5 47 -4 0 0 17 9 38 15 38 36 57 62 57 8 0 16 6 19 13 5 15 -30 16 -44 2 -25 -25 0 48 27 79 16 19 29 39 29 45 0 6 -7 3 -14 -6 -7 -10 -16 -18 -20 -18 -10 0 4 42 20 61 8 9 12 24 8 33 -3 9 -1 16 5 16 9 0 9 5 1 20 -8 15 -7 27 6 51 10 20 11 28 3 24 -9 -6 -11 -1 -7 18 3 15 0 29 -6 32 -8 3 -7 7 2 11 17 8 15 27 -2 21 -17 -7 -29 32 -15 49 7 8 7 14 -1 19 -6 3 -8 11 -5 16 4 5 2 9 -2 9 -17 0 -13 49 5 60 15 10 15 11 -3 7 -19 -4 -21 1 -20 55 0 40 5 62 14 68 12 7 12 11 2 24 -10 12 -9 20 3 45 9 16 16 37 16 46 0 8 7 15 16 15 9 0 14 5 12 12 -3 7 2 20 11 30 11 13 18 14 28 6 10 -8 13 -6 13 8 0 13 8 20 25 21 46 4 55 6 55 14 0 4 16 1 35 -7 20 -8 40 -12 45 -9 6 3 7 0 4 -8 -3 -8 3 -17 13 -21 10 -4 19 -2 21 3 7 20 22 11 23 -11 0 -13 3 -17 6 -10 6 16 33 16 33 -1 0 -23 -34 -53 -54 -49 -11 2 -16 0 -12 -7 10 -16 20 -14 78 14 28 14 54 22 57 18 3 -5 23 -17 44 -27 21 -11 36 -26 35 -34 -2 -8 3 -17 10 -19 6 -3 12 0 12 5 0 6 14 7 35 2 26 -6 39 -4 50 6 7 8 22 14 32 14 11 0 28 7 39 15 10 8 24 14 29 15 6 0 3 -5 -5 -10 -17 -11 -1 -14 24 -4 8 3 12 12 9 21 -5 13 -3 13 15 4 14 -7 23 -8 27 -1 4 6 10 8 14 6 4 -3 29 1 56 9 56 17 89 19 80 5 -9 -14 7 -12 28 5 11 7 26 11 34 8 8 -3 19 0 24 8 7 12 13 11 38 -4 36 -21 60 -22 67 -2 8 19 100 76 109 67 4 -4 4 5 0 20 -6 23 -3 29 16 37 13 4 29 6 35 4 7 -3 10 5 7 21 -4 19 -1 26 11 26 9 0 16 7 16 15 0 8 7 15 16 15 9 0 25 10 35 21 14 16 25 20 44 15 23 -6 26 -4 20 13 -6 19 -3 20 36 17 23 -3 46 -9 52 -15 6 -6 25 -11 43 -11 17 0 36 -6 43 -13 8 -11 5 -13 -19 -9 -18 3 -30 0 -30 -7 0 -6 4 -11 9 -11 6 0 16 -12 23 -27 11 -23 19 -27 42 -25 18 3 26 0 22 -7 -4 -6 -15 -12 -24 -12 -9 -1 -4 -4 12 -8 33 -7 41 -19 25 -41 -8 -11 -12 -12 -16 -2 -2 6 -10 12 -17 12 -7 0 -21 8 -32 18 -32 30 -54 34 -54 11 0 -16 4 -19 20 -14 11 3 20 2 20 -3 0 -14 77 -45 94 -39 19 8 17 -40 -3 -52 -7 -5 -10 -14 -7 -20 4 -6 12 -9 17 -6 13 9 11 -19 -3 -33 -9 -9 -9 -12 0 -12 7 0 12 5 12 11 0 5 5 7 10 4 13 -8 13 -25 -1 -25 -6 0 -17 -7 -25 -15 -18 -17 -11 -19 15 -5 15 8 18 5 17 -18 0 -15 3 -40 7 -55 6 -22 5 -28 -5 -24 -7 2 -12 9 -11 15 2 6 -4 9 -12 5 -12 -4 -10 -10 10 -29 27 -25 26 -48 -2 -37 -11 4 -14 3 -9 -5 4 -7 13 -12 21 -12 20 0 46 -30 38 -43 -3 -7 -3 -9 2 -5 7 7 63 -18 95 -43 13 -9 13 -10 -2 -6 -9 3 -19 1 -22 -6 -3 -9 -8 -8 -16 3 -10 13 -11 13 -7 0 2 -8 13 -14 24 -13 11 1 35 -11 54 -28 19 -17 27 -27 19 -24 -13 6 -13 5 0 -7 9 -7 16 -23 17 -35 1 -12 13 -35 27 -49 13 -15 32 -45 42 -68 9 -23 25 -60 35 -83 11 -24 19 -55 19 -70 -1 -27 -1 -27 -15 -9 -8 11 -15 15 -15 10 0 -5 10 -22 21 -36 12 -15 24 -44 26 -65 9 -75 8 -228 -1 -235 -5 -3 -8 -36 -7 -72 1 -42 -2 -66 -8 -66 -6 0 -11 -12 -11 -26 0 -17 -4 -23 -12 -18 -8 5 -9 2 -4 -11 4 -10 0 -28 -9 -42 -12 -18 -21 -22 -42 -17 -18 5 -24 4 -19 -5 4 -6 12 -9 17 -6 5 4 9 -3 9 -14 0 -12 -4 -21 -10 -21 -5 0 -10 -6 -10 -12 0 -7 -12 -25 -25 -40 -24 -28 -42 -38 -29 -16 5 7 3 8 -5 3 -10 -6 -10 -10 1 -22 21 -20 39 -9 77 50 19 28 46 69 59 90 14 20 26 48 27 61 2 14 6 29 9 34 3 5 8 34 12 63 3 30 10 59 15 65 13 16 4 217 -13 294 -8 36 -16 77 -16 93 -1 15 -11 45 -22 67 -11 21 -20 43 -20 49 0 5 -17 38 -39 72 -21 35 -42 75 -46 89 -9 28 -113 140 -130 140 -23 0 -58 48 -52 71 4 13 1 29 -5 36 -7 9 -7 17 0 26 7 8 7 18 2 27 -5 8 -7 23 -4 33 3 10 0 24 -6 32 -6 8 -9 23 -5 35 3 11 2 20 -3 20 -5 0 -12 22 -16 49 -3 27 -17 65 -30 84 -14 19 -21 38 -18 42 4 4 -1 11 -11 16 -9 6 -17 19 -17 29 0 11 -6 20 -14 20 -8 0 -16 7 -20 15 -3 8 -16 15 -29 15 -13 0 -27 4 -32 9 -18 17 -80 18 -129 2z m212 -93 c-6 -18 -28 -21 -28 -4 0 9 7 16 16 16 9 0 14 -5 12 -12z m-1233 -208 c-3 -5 -10 -10 -16 -10 -5 0 -9 5 -9 10 0 6 7 10 16 10 8 0 12 -4 9 -10z"/> <path d="M2190 3992 c0 -17 41 -32 58 -23 9 6 15 11 12 11 -3 0 -20 4 -38 9 -17 5 -32 7 -32 3z"/> <path d="M2157 3971 c-3 -12 -1 -21 3 -21 15 0 23 21 12 32 -6 6 -11 2 -15 -11z"/> <path d="M2105 3970 c-3 -5 1 -10 10 -10 9 0 13 5 10 10 -3 6 -8 10 -10 10 -2 0 -7 -4 -10 -10z"/> <path d="M2204 3925 c-1 -14 2 -25 7 -25 5 0 9 11 9 25 0 33 -15 33 -16 0z"/> <path d="M2080 3925 c0 -8 5 -15 10 -15 6 0 10 7 10 15 0 8 -4 15 -10 15 -5 0 -10 -7 -10 -15z"/> <path d="M2136 3924 c-11 -28 -6 -34 12 -16 11 9 17 20 15 25 -7 12 -21 8 -27 -9z"/> <path d="M2036 3911 c-4 -5 1 -8 9 -7 21 3 31 16 12 16 -9 0 -18 -4 -21 -9z"/> <path d="M2235 3910 c-3 -5 -1 -10 4 -10 6 0 11 5 11 10 0 6 -2 10 -4 10 -3 0 -8 -4 -11 -10z"/> <path d="M2157 3886 c-3 -8 0 -22 7 -31 11 -15 16 -16 35 -5 12 6 29 9 38 6 9 -4 13 -1 10 6 -5 14 -6 14 -51 2 -26 -6 -28 -5 -21 15 7 23 -10 30 -18 7z"/> <path d="M2030 3876 c0 -9 5 -16 10 -16 6 0 10 4 10 9 0 6 -4 13 -10 16 -5 3 -10 -1 -10 -9z"/> <path d="M2090 3882 c0 -12 19 -26 26 -19 2 2 -2 10 -11 17 -9 8 -15 8 -15 2z"/> <path d="M1955 3860 c3 -5 8 -10 11 -10 2 0 4 5 4 10 0 6 -5 10 -11 10 -5 0 -7 -4 -4 -10z"/> <path d="M2000 3849 c0 -5 5 -7 10 -4 6 3 10 8 10 11 0 2 -4 4 -10 4 -5 0 -10 -5 -10 -11z"/> <path d="M2070 3850 c0 -5 5 -10 10 -10 6 0 10 5 10 10 0 6 -4 10 -10 10 -5 0 -10 -4 -10 -10z"/> <path d="M2114 3836 c-3 -8 -1 -23 5 -33 8 -15 10 -13 9 15 -1 35 -5 40 -14 18z"/> <path d="M2025 3830 c-3 -5 1 -10 9 -10 8 0 18 5 21 10 3 6 -1 10 -9 10 -8 0 -18 -4 -21 -10z"/> <path d="M2266 3831 c-3 -5 1 -12 10 -15 20 -8 29 -1 19 13 -8 13 -22 14 -29 2z"/> <path d="M1957 3799 c-10 -11 -23 -17 -29 -13 -7 4 -8 3 -4 -4 11 -18 30 -14 44 9 18 28 10 33 -11 8z"/> <path d="M876 3779 c-6 -22 -7 -23 -20 -6 -7 9 -17 17 -21 17 -5 0 2 -11 15 -25 14 -15 30 -23 39 -20 9 4 22 -3 33 -17 15 -20 18 -20 18 -5 0 10 -7 20 -15 23 -9 4 -22 18 -29 32 l-13 25 -7 -24z"/> <path d="M915 3790 c-3 -6 1 -10 9 -10 9 0 16 -7 16 -15 0 -8 5 -15 10 -15 17 0 11 25 -10 37 -12 8 -21 9 -25 3z"/> <path d="M2040 3785 c-16 -19 -6 -45 17 -45 15 0 15 2 -3 14 -18 14 -18 15 -1 21 9 4 17 11 17 16 0 14 -16 11 -30 -6z"/> <path d="M2330 3785 c-8 -9 -8 -15 -2 -15 18 0 42 12 42 21 0 14 -26 10 -40 -6z"/> <path d="M2077 3776 c-3 -8 0 -20 8 -26 10 -8 13 -5 11 15 -1 28 -11 33 -19 11z"/> <path d="M1890 3773 c0 -6 5 -15 10 -18 6 -4 8 -11 5 -16 -4 -5 -1 -9 4 -9 15 0 14 13 -4 36 -8 10 -15 14 -15 7z"/> <path d="M1992 3764 c10 -10 20 -15 24 -12 3 4 -5 12 -18 18 -22 12 -22 12 -6 -6z"/> <path d="M800 3749 c0 -5 5 -7 10 -4 6 3 10 8 10 11 0 2 -4 4 -10 4 -5 0 -10 -5 -10 -11z"/> <path d="M980 3750 c0 -5 5 -10 10 -10 6 0 10 5 10 10 0 6 -4 10 -10 10 -5 0 -10 -4 -10 -10z"/> <path d="M1735 3750 c-4 -6 -2 -17 4 -23 15 -15 25 -2 13 19 -7 12 -11 13 -17 4z"/> <path d="M825 3739 c-4 -6 -5 -13 -2 -16 7 -7 27 6 27 18 0 12 -17 12 -25 -2z"/> <path d="M2116 3743 c-12 -12 -5 -23 14 -23 11 0 20 4 20 9 0 11 -26 22 -34 14z"/> <path d="M775 3726 c-23 -25 -26 -40 -4 -19 12 12 21 24 18 27 -2 2 -9 -1 -14 -8z"/> <path d="M1950 3710 c0 -16 3 -30 8 -30 4 0 7 14 7 30 0 17 -3 30 -7 30 -5 0 -8 -13 -8 -30z"/> <path d="M1556 3715 c-3 -8 -1 -15 4 -15 6 0 10 7 10 15 0 8 -2 15 -4 15 -2 0 -6 -7 -10 -15z"/> <path d="M1675 3720 c-4 -6 -11 -8 -16 -5 -5 4 -9 -1 -9 -9 0 -22 13 -20 28 4 7 11 10 20 8 20 -3 0 -8 -5 -11 -10z"/> <path d="M1826 3715 c-3 -8 -1 -15 3 -15 5 0 11 7 15 15 3 8 1 15 -3 15 -5 0 -11 -7 -15 -15z"/> <path d="M863 3705 c-15 -16 -16 -25 -5 -25 4 0 13 9 20 20 14 23 3 26 -15 5z"/> <path d="M970 3699 c0 -11 5 -17 10 -14 6 3 10 13 10 21 0 8 -4 14 -10 14 -5 0 -10 -9 -10 -21z"/> <path d="M2170 3711 c0 -12 28 -22 35 -12 3 5 -2 12 -11 15 -21 8 -24 8 -24 -3z"/> <path d="M1124 3686 c-9 -20 -8 -23 6 -19 12 3 16 11 13 24 -7 24 -6 24 -19 -5z"/> <path d="M1160 3701 c0 -5 5 -13 10 -16 6 -3 10 -2 10 4 0 5 -4 13 -10 16 -5 3 -10 2 -10 -4z"/> <path d="M1990 3700 c0 -6 7 -10 16 -10 10 0 14 -6 11 -14 -4 -10 -1 -13 8 -10 7 3 16 12 19 21 5 12 9 13 21 3 9 -8 15 -8 15 -2 0 12 -21 19 -62 21 -16 0 -28 -4 -28 -9z"/> <path d="M2267 3693 c9 -23 74 -82 91 -83 6 0 12 7 12 16 0 8 -4 13 -9 10 -5 -3 -27 12 -50 34 -45 44 -54 48 -44 23z"/> <path d="M1580 3683 c0 -17 12 -16 35 1 19 13 18 14 -8 13 -15 -1 -27 -8 -27 -14z"/> <path d="M1712 3689 c2 -7 10 -15 17 -17 8 -3 12 1 9 9 -2 7 -10 15 -17 17 -8 3 -12 -1 -9 -9z"/> <path d="M2105 3690 c3 -5 14 -10 23 -10 15 0 15 2 2 10 -20 13 -33 13 -25 0z"/> <path d="M2240 3690 c0 -5 5 -10 11 -10 5 0 7 5 4 10 -3 6 -8 10 -11 10 -2 0 -4 -4 -4 -10z"/> <path d="M2334 3687 c3 -10 6 -23 6 -28 0 -5 5 -9 10 -9 14 0 12 13 -6 36 -14 17 -15 17 -10 1z"/> <path d="M3355 3693 c-80 -8 -202 -33 -270 -56 -68 -23 -70 -25 -77 -63 -11 -60 -9 -244 3 -310 30 -172 116 -344 236 -473 l48 -51 44 26 43 27 -30 23 c-88 69 -207 274 -239 413 -16 71 -26 301 -13 314 3 3 41 15 85 27 115 31 311 38 430 15 93 -17 222 -58 239 -75 16 -16 28 -12 23 8 -3 9 -8 34 -12 55 -5 31 -12 40 -43 53 -100 42 -353 79 -467 67z m234 -38 c80 -7 213 -46 240 -71 25 -23 3 -34 -37 -17 -91 39 -214 58 -362 58 -160 -1 -309 -30 -342 -68 -22 -24 -20 -14 -23 -117 -3 -108 29 -284 65 -349 6 -12 7 -21 3 -21 -4 0 0 -5 10 -11 9 -5 17 -17 17 -25 0 -8 16 -37 35 -64 19 -27 35 -54 35 -58 0 -5 10 -18 23 -29 12 -11 37 -36 55 -56 31 -34 32 -36 11 -42 -27 -9 -85 46 -143 135 -46 72 -96 171 -96 192 0 8 -12 49 -26 92 -22 69 -26 97 -26 210 0 139 3 161 18 175 13 13 126 53 132 47 2 -3 19 0 36 7 17 7 84 14 151 16 66 1 122 5 125 7 2 3 17 2 33 -2 16 -3 46 -7 66 -9z"/> <path d="M940 3680 c0 -5 5 -10 11 -10 5 0 7 5 4 10 -3 6 -8 10 -11 10 -2 0 -4 -4 -4 -10z"/> <path d="M1050 3681 c0 -11 42 -43 48 -37 4 5 -35 46 -43 46 -3 0 -5 -4 -5 -9z"/> <path d="M1670 3670 c0 -5 7 -7 15 -4 8 4 15 8 15 10 0 2 -7 4 -15 4 -8 0 -15 -4 -15 -10z"/> <path d="M784 3662 c4 -7 1 -12 -8 -12 -19 0 -21 -17 -3 -23 6 -2 17 3 23 11 9 12 14 12 32 1 16 -10 24 -11 33 -2 8 8 21 8 52 -3 45 -16 56 -14 31 7 -9 8 -41 14 -73 15 -31 0 -65 5 -75 9 -14 6 -17 5 -12 -3z"/> <path d="M1410 3660 c-9 -6 -10 -10 -3 -10 6 0 15 5 18 10 8 12 4 12 -15 0z"/> <path d="M1532 3658 c6 -18 28 -21 28 -4 0 9 -7 16 -16 16 -9 0 -14 -5 -12 -12z"/> <path d="M1617 3664 c-8 -8 1 -24 14 -24 5 0 9 7 9 15 0 15 -12 20 -23 9z"/> <path d="M1796 3645 c9 -14 19 -24 21 -21 7 7 -16 46 -28 46 -5 0 -2 -11 7 -25z"/> <path d="M1868 3663 c7 -3 16 -2 19 1 4 3 -2 6 -13 5 -11 0 -14 -3 -6 -6z"/> <path d="M2135 3650 c3 -5 11 -10 16 -10 6 0 7 5 4 10 -3 6 -11 10 -16 10 -6 0 -7 -4 -4 -10z"/> <path d="M2205 3650 c3 -5 11 -10 16 -10 6 0 7 5 4 10 -3 6 -11 10 -16 10 -6 0 -7 -4 -4 -10z"/> <path d="M982 3637 c-8 -9 -4 -21 14 -45 22 -28 27 -30 46 -19 16 9 22 9 25 0 3 -7 9 -13 15 -13 6 0 4 8 -5 18 -10 10 -17 31 -17 45 0 15 -4 27 -10 27 -11 0 -13 -12 -10 -47 1 -13 -1 -23 -4 -23 -13 0 -44 44 -39 56 6 18 -1 18 -15 1z"/> <path d="M1130 3640 c0 -3 5 -12 11 -20 8 -11 12 -12 16 -2 2 6 13 12 24 12 10 0 19 3 19 8 0 4 -16 7 -35 7 -19 0 -35 -2 -35 -5z"/> <path d="M1344 3638 c-3 -4 2 -8 10 -8 8 0 17 4 20 8 3 5 -2 9 -10 9 -8 0 -17 -4 -20 -9z"/> <path d="M1750 3631 c-16 -30 -12 -36 10 -16 21 19 26 35 10 35 -5 0 -14 -9 -20 -19z"/> <path d="M1970 3640 c0 -5 5 -10 10 -10 6 0 10 5 10 10 0 6 -4 10 -10 10 -5 0 -10 -4 -10 -10z"/> <path d="M2040 3641 c0 -5 7 -11 14 -14 10 -4 13 -1 9 9 -6 15 -23 19 -23 5z"/> <path d="M1475 3630 c3 -5 8 -10 11 -10 2 0 4 5 4 10 0 6 -5 10 -11 10 -5 0 -7 -4 -4 -10z"/> <path d="M1854 3624 c3 -9 6 -19 6 -22 0 -9 20 21 20 31 0 4 -7 7 -16 7 -11 0 -14 -5 -10 -16z"/> <path d="M1900 3630 c-12 -8 -10 -10 8 -10 13 0 20 4 17 10 -7 12 -6 12 -25 0z"/> <path d="M2005 3630 c-3 -5 1 -10 10 -10 9 0 13 5 10 10 -3 6 -8 10 -10 10 -2 0 -7 -4 -10 -10z"/> <path d="M2100 3630 c-8 -5 -11 -12 -7 -16 4 -4 13 -2 19 4 15 15 7 24 -12 12z"/> <path d="M2275 3630 c3 -5 8 -10 11 -10 2 0 4 5 4 10 0 6 -5 10 -11 10 -5 0 -7 -4 -4 -10z"/> <path d="M1070 3620 c0 -5 5 -10 11 -10 5 0 7 5 4 10 -3 6 -8 10 -11 10 -2 0 -4 -4 -4 -10z"/> <path d="M1275 3620 c-3 -5 1 -10 9 -10 9 0 16 5 16 10 0 6 -4 10 -9 10 -6 0 -13 -4 -16 -10z"/> <path d="M1713 3614 c-15 -16 -16 -24 -4 -24 8 0 24 30 19 35 -2 2 -9 -3 -15 -11z"/> <path d="M2150 3619 c-12 -9 -12 -10 4 -5 10 4 24 2 30 -2 18 -14 56 -21 56 -10 0 5 5 6 10 3 6 -3 10 -2 10 3 0 5 -12 9 -27 8 -16 0 -37 3 -48 7 -11 3 -27 2 -35 -4z"/> <path d="M2383 3615 c0 -8 4 -12 9 -9 4 3 8 9 8 15 0 5 -4 9 -8 9 -5 0 -9 -7 -9 -15z"/> <path d="M746 3611 c-4 -5 -2 -12 3 -15 5 -4 12 -2 15 3 4 5 2 12 -3 15 -5 4 -12 2 -15 -3z"/> <path d="M1205 3610 c-3 -5 1 -10 9 -10 8 0 18 5 21 10 3 6 -1 10 -9 10 -8 0 -18 -4 -21 -10z"/> <path d="M1550 3615 c0 -3 9 -15 20 -27 22 -24 26 -18 10 13 -10 17 -30 27 -30 14z"/> <path d="M1596 3605 c4 -8 8 -15 10 -15 2 0 4 7 4 15 0 8 -4 15 -10 15 -5 0 -7 -7 -4 -15z"/> <path d="M1628 3613 c7 -3 16 -2 19 1 4 3 -2 6 -13 5 -11 0 -14 -3 -6 -6z"/> <path d="M1660 3606 c0 -9 5 -16 10 -16 6 0 10 4 10 9 0 6 -4 13 -10 16 -5 3 -10 -1 -10 -9z"/> <path d="M780 3600 c0 -5 5 -10 11 -10 5 0 7 5 4 10 -3 6 -8 10 -11 10 -2 0 -4 -4 -4 -10z"/> <path d="M823 3595 c-9 -24 1 -27 15 -5 8 13 8 20 2 20 -6 0 -13 -7 -17 -15z"/> <path d="M1365 3600 c-3 -6 1 -7 9 -4 18 7 21 14 7 14 -6 0 -13 -4 -16 -10z"/> <path d="M1490 3595 c7 -8 17 -15 22 -15 6 0 5 7 -2 15 -7 8 -17 15 -22 15 -6 0 -5 -7 2 -15z"/> <path d="M1764 3599 c-3 -5 1 -9 8 -9 7 0 24 -12 37 -26 22 -22 25 -24 34 -9 5 9 6 19 3 22 -3 4 -6 1 -6 -5 0 -19 -18 -14 -25 7 -6 21 -42 35 -51 20z"/> <path d="M2060 3595 c-8 -9 -8 -15 -2 -15 12 0 26 19 19 26 -2 2 -10 -2 -17 -11z"/> <path d="M1106 3591 c-3 -4 6 -6 19 -3 14 2 25 6 25 8 0 8 -39 4 -44 -5z"/> <path d="M1399 3583 c-13 -17 -13 -17 6 -3 11 8 22 16 24 17 2 2 0 3 -6 3 -6 0 -17 -8 -24 -17z"/> <path d="M2267 3586 c-6 -16 16 -40 26 -29 13 13 7 22 -10 16 -16 -6 -16 -5 -4 10 7 9 9 17 3 17 -5 0 -12 -6 -15 -14z"/> <path d="M1190 3583 c-8 -3 -18 -12 -22 -19 -5 -6 -17 -10 -28 -7 -14 4 -20 0 -20 -10 0 -11 6 -13 23 -9 23 6 87 41 87 48 0 5 -22 4 -40 -3z"/> <path d="M1626 3575 c-9 -26 -7 -32 5 -12 6 10 9 21 6 23 -2 3 -7 -2 -11 -11z"/> <path d="M1980 3582 c0 -5 9 -17 20 -27 18 -16 20 -16 20 -2 0 9 -9 21 -20 27 -11 6 -20 7 -20 2z"/> <path d="M1900 3571 c0 -6 5 -13 10 -16 6 -4 8 -11 5 -16 -4 -5 -1 -17 4 -26 6 -10 11 -16 11 -13 8 34 6 44 -11 61 -10 10 -19 15 -19 10z"/> <path d="M2217 3573 c-8 -13 2 -43 14 -43 10 0 10 8 0 34 -5 12 -10 16 -14 9z"/> <path d="M1298 3558 c9 -9 15 -9 24 0 9 9 7 12 -12 12 -19 0 -21 -3 -12 -12z"/> <path d="M1425 3560 c-3 -5 -2 -10 4 -10 5 0 13 5 16 10 3 6 2 10 -4 10 -5 0 -13 -4 -16 -10z"/> <path d="M1475 3561 c-3 -5 -1 -12 5 -16 5 -3 10 1 10 9 0 18 -6 21 -15 7z"/> <path d="M1534 3556 c-3 -8 -4 -22 -2 -30 2 -11 6 -9 15 9 6 15 7 27 2 31 -5 3 -12 -2 -15 -10z"/> <path d="M2140 3561 c0 -6 -8 -11 -17 -12 -10 0 -13 -3 -6 -5 18 -8 49 11 34 20 -6 4 -11 2 -11 -3z"/> <path d="M2345 3560 c-8 -13 25 -61 38 -53 6 4 3 11 -7 19 -10 7 -15 17 -12 23 4 5 2 12 -3 15 -5 4 -12 2 -16 -4z"/> <path d="M1353 3553 c-14 -5 -18 -23 -5 -23 5 0 17 7 28 15 14 11 15 14 4 14 -8 0 -21 -3 -27 -6z"/> <path d="M1690 3550 c-8 -5 -11 -12 -7 -16 4 -4 15 0 24 9 18 18 8 23 -17 7z"/> <path d="M811 3531 c-6 -10 -7 -21 -4 -25 12 -12 18 -6 19 19 2 30 -2 31 -15 6z"/> <path d="M1572 3530 c0 -14 2 -19 5 -12 2 6 2 18 0 25 -3 6 -5 1 -5 -13z"/> <path d="M2067 3529 c4 -15 8 -17 14 -8 8 14 3 29 -11 29 -4 0 -6 -9 -3 -21z"/> <path d="M740 3530 c0 -5 4 -10 9 -10 6 0 13 5 16 10 3 6 -1 10 -9 10 -9 0 -16 -4 -16 -10z"/> <path d="M995 3529 c-10 -15 1 -23 20 -15 9 3 13 10 10 16 -8 13 -22 13 -30 -1z"/> <path d="M2300 3530 c0 -5 5 -10 10 -10 6 0 10 5 10 10 0 6 -4 10 -10 10 -5 0 -10 -4 -10 -10z"/> <path d="M1060 3520 c0 -5 5 -10 10 -10 6 0 10 5 10 10 0 6 -4 10 -10 10 -5 0 -10 -4 -10 -10z"/> <path d="M1245 3520 c-3 -5 1 -10 9 -10 8 0 18 5 21 10 3 6 -1 10 -9 10 -8 0 -18 -4 -21 -10z"/> <path d="M1415 3520 c3 -5 15 -10 26 -10 10 0 19 5 19 10 0 6 -12 10 -26 10 -14 0 -23 -4 -19 -10z"/> <path d="M2156 3518 c-5 -11 -2 -23 7 -33 19 -18 34 -20 19 -2 -5 6 -12 21 -14 32 -4 18 -6 18 -12 3z"/> <path d="M2326 3515 c-3 -8 -1 -15 4 -15 6 0 10 7 10 15 0 8 -2 15 -4 15 -2 0 -6 -7 -10 -15z"/> <path d="M3274 3516 c-117 -22 -114 -20 -114 -78 0 -44 2 -49 18 -43 9 4 41 13 70 20 224 55 471 6 680 -133 12 -8 10 -25 -8 -98 -26 -105 -81 -227 -145 -323 -44 -65 -178 -204 -239 -248 l-30 -20 49 -22 c59 -26 62 -24 168 83 165 167 279 395 311 621 5 39 4 41 -47 78 -75 56 -219 123 -317 147 -108 28 -296 35 -396 16z m361 -34 c67 -13 157 -46 230 -84 53 -27 81 -46 133 -89 17 -14 6 -109 -19 -166 -11 -23 -19 -53 -19 -67 0 -15 -4 -26 -10 -26 -5 0 -10 -9 -10 -20 0 -21 -22 -66 -60 -125 -11 -16 -26 -43 -35 -60 -21 -42 -51 -80 -118 -150 -31 -33 -57 -63 -57 -67 0 -5 -7 -8 -15 -8 -8 0 -15 -3 -15 -8 0 -14 -38 -31 -59 -25 -29 8 -26 18 12 42 31 19 103 88 144 138 10 12 26 31 36 42 9 12 17 25 17 29 0 4 14 25 30 46 17 22 30 46 30 53 0 8 5 11 11 8 6 -4 9 -1 8 6 -3 13 11 49 47 124 15 32 18 43 38 142 13 62 12 63 -13 86 -14 13 -56 39 -93 56 -37 18 -70 37 -74 42 -3 5 -9 7 -13 4 -5 -2 -21 2 -37 10 -51 25 -186 48 -292 49 -57 0 -106 -2 -109 -7 -2 -4 -8 -5 -12 -3 -4 3 -32 -1 -62 -9 -30 -8 -55 -15 -56 -15 -2 0 -3 9 -3 20 0 14 7 20 23 20 13 0 27 4 33 9 5 5 23 12 39 14 47 8 294 0 350 -11z"/> <path d="M946 3489 c-14 -17 -26 -35 -26 -40 0 -16 17 -10 23 9 4 9 14 27 23 40 24 33 10 27 -20 -9z"/> <path d="M1110 3505 c0 -8 2 -15 4 -15 2 0 6 7 10 15 3 8 1 15 -4 15 -6 0 -10 -7 -10 -15z"/> <path d="M1200 3505 c0 -8 5 -15 10 -15 6 0 10 7 10 15 0 8 -4 15 -10 15 -5 0 -10 -7 -10 -15z"/> <path d="M1695 3510 c-3 -5 -1 -10 4 -10 6 0 11 5 11 10 0 6 -2 10 -4 10 -3 0 -8 -4 -11 -10z"/> <path d="M1760 3511 c0 -6 5 -13 10 -16 6 -3 10 1 10 9 0 9 -4 16 -10 16 -5 0 -10 -4 -10 -9z"/> <path d="M1866 3511 c-4 -7 -5 -15 -2 -18 9 -9 19 4 14 18 -4 11 -6 11 -12 0z"/> <path d="M1368 3497 c-16 -6 -28 -15 -28 -20 0 -11 41 2 60 19 17 16 7 16 -32 1z"/> <path d="M1960 3488 c0 -18 24 -27 53 -20 9 2 17 11 17 20 0 13 -2 13 -18 -1 -17 -15 -19 -15 -35 0 -16 16 -17 16 -17 1z"/> <path d="M2070 3485 c-10 -12 -10 -15 4 -15 9 0 16 7 16 15 0 8 -2 15 -4 15 -2 0 -9 -7 -16 -15z"/> <path d="M2300 3490 c0 -5 5 -10 11 -10 5 0 7 5 4 10 -3 6 -8 10 -11 10 -2 0 -4 -4 -4 -10z"/> <path d="M975 3480 c-3 -5 -1 -10 4 -10 6 0 11 5 11 10 0 6 -2 10 -4 10 -3 0 -8 -4 -11 -10z"/> <path d="M1050 3483 c-20 -8 -44 -33 -32 -33 5 0 20 9 33 20 25 20 25 23 -1 13z"/> <path d="M1247 3483 c-14 -13 -6 -18 23 -17 44 2 47 3 30 14 -17 11 -44 13 -53 3z"/> <path d="M1475 3480 c3 -5 15 -10 26 -10 10 0 19 5 19 10 0 6 -12 10 -26 10 -14 0 -23 -4 -19 -10z"/> <path d="M1629 3477 c6 -8 8 -17 4 -20 -3 -4 -1 -7 5 -7 7 0 12 -7 12 -15 0 -25 15 -17 27 15 6 17 7 30 2 30 -5 0 -9 -7 -9 -15 0 -22 -18 -18 -25 5 -3 11 -11 20 -17 20 -7 0 -7 -4 1 -13z"/> <path d="M1808 3476 c-37 -9 -52 -26 -24 -26 21 0 80 27 70 32 -5 2 -26 0 -46 -6z"/> <path d="M1902 3478 c-15 -15 -15 -28 -1 -28 5 0 7 5 4 10 -3 6 1 10 9 10 9 0 16 5 16 10 0 14 -13 13 -28 -2z"/> <path d="M1403 3473 c-7 -3 -13 -9 -13 -15 0 -6 6 -8 14 -5 8 3 17 1 19 -6 2 -7 8 -9 13 -4 11 10 -18 36 -33 30z"/> <path d="M1548 3473 c7 -3 16 -2 19 1 4 3 -2 6 -13 5 -11 0 -14 -3 -6 -6z"/> <path d="M2120 3471 c0 -6 5 -13 10 -16 6 -3 10 1 10 9 0 9 -4 16 -10 16 -5 0 -10 -4 -10 -9z"/> <path d="M2370 3467 c0 -9 -9 -21 -20 -27 -21 -11 -28 -40 -10 -40 6 0 10 6 10 14 0 8 10 22 22 30 17 12 20 18 10 28 -9 9 -12 8 -12 -5z"/> <path d="M2420 3470 c0 -5 5 -10 11 -10 5 0 7 5 4 10 -3 6 -8 10 -11 10 -2 0 -4 -4 -4 -10z"/> <path d="M745 3460 c3 -5 8 -10 11 -10 2 0 4 5 4 10 0 6 -5 10 -11 10 -5 0 -7 -4 -4 -10z"/> <path d="M1577 3455 c-4 -8 -2 -17 2 -20 5 -2 11 4 14 15 6 23 -8 27 -16 5z"/> <path d="M1706 3463 c-3 -3 -3 -10 0 -14 7 -12 34 -11 34 0 0 11 -26 22 -34 14z"/> <path d="M1185 3450 c-3 -5 -2 -10 4 -10 5 0 13 5 16 10 3 6 2 10 -4 10 -5 0 -13 -4 -16 -10z"/> <path d="M1530 3440 c14 -10 26 -17 29 -15 6 7 -27 35 -41 35 -7 0 -2 -9 12 -20z"/> <path d="M2040 3445 c7 -8 20 -15 29 -15 9 0 25 -7 35 -15 10 -8 23 -12 27 -9 5 3 9 -1 9 -9 0 -7 11 -19 25 -25 17 -8 25 -8 25 -1 0 6 11 8 29 4 17 -3 32 -2 36 4 4 7 16 6 35 -4 34 -18 40 -18 40 -5 0 6 -7 10 -15 10 -8 0 -15 4 -15 9 0 15 -32 22 -47 10 -10 -9 -20 -9 -38 -1 -14 7 -25 8 -25 3 0 -5 -9 -7 -20 -4 -13 3 -20 12 -18 22 3 13 16 16 71 15 46 -1 67 2 67 11 0 14 -30 16 -47 2 -9 -6 -13 -6 -13 0 0 17 -64 9 -83 -10 -19 -19 -44 -18 -39 3 2 7 -5 9 -17 5 -11 -3 -22 -1 -26 5 -3 5 -13 10 -22 10 -13 0 -13 -3 -3 -15z"/> <path d="M968 3425 c-25 -34 -22 -38 7 -11 25 23 31 36 18 36 -5 0 -16 -11 -25 -25z"/> <path d="M1066 3435 c-11 -8 -15 -15 -9 -15 19 0 43 12 43 21 0 13 -12 11 -34 -6z"/> <path d="M1120 3439 c0 -5 5 -7 10 -4 6 3 10 8 10 11 0 2 -4 4 -10 4 -5 0 -10 -5 -10 -11z"/> <path d="M1245 3443 c-11 -3 -25 -10 -32 -15 -7 -6 -28 -10 -48 -11 -39 -1 -42 -4 -18 -22 11 -8 23 -9 33 -4 8 5 32 15 53 23 20 8 37 20 37 25 0 6 -1 10 -2 10 -2 -1 -12 -4 -23 -6z"/> <path d="M1335 3431 c-5 -16 -3 -26 6 -32 14 -9 34 12 20 21 -4 3 -10 12 -13 20 -3 11 -7 8 -13 -9z"/> <path d="M880 3430 c0 -5 5 -10 10 -10 6 0 10 5 10 10 0 6 -4 10 -10 10 -5 0 -10 -4 -10 -10z"/> <path d="M824 3406 c4 -15 1 -26 -7 -30 -6 -3 -1 -4 12 -3 15 1 27 11 32 26 7 19 6 22 -6 17 -8 -3 -15 -1 -15 4 0 6 -5 10 -11 10 -7 0 -9 -9 -5 -24z"/> <path d="M1440 3420 c0 -5 -8 -10 -17 -10 -14 0 -14 -3 -5 -12 10 -10 15 -10 21 1 5 7 14 11 20 7 7 -5 9 -1 5 8 -7 18 -24 22 -24 6z"/> <path d="M2422 3414 c-8 -14 -13 -16 -24 -6 -8 6 -18 9 -21 5 -13 -13 -7 -20 18 -20 24 0 53 22 42 33 -3 3 -10 -2 -15 -12z"/> <path d="M2470 3416 c0 -8 5 -18 10 -21 6 -3 10 3 10 14 0 12 -4 21 -10 21 -5 0 -10 -6 -10 -14z"/> <path d="M1003 3408 c-13 -6 -23 -15 -23 -20 0 -15 27 -8 45 12 20 22 12 25 -22 8z"/> <path d="M1665 3412 c-16 -2 -33 -9 -37 -15 -4 -7 -13 -8 -29 -1 -34 16 -189 -32 -189 -57 0 -6 -4 -8 -9 -5 -5 3 -14 -1 -21 -9 -7 -8 -21 -15 -31 -15 -12 0 -19 -7 -19 -19 0 -11 -5 -23 -11 -26 -11 -7 14 -54 36 -67 7 -4 10 -18 8 -32 -3 -13 1 -27 8 -31 8 -5 10 -4 5 3 -4 6 -1 20 6 31 10 17 8 24 -20 52 -37 38 -41 54 -12 46 12 -3 18 -1 14 5 -4 6 6 21 22 34 31 25 54 31 54 14 0 -5 5 -10 12 -10 9 0 9 3 0 12 -18 18 -14 28 12 28 13 0 26 5 28 11 2 6 33 11 68 12 36 1 68 6 72 12 4 5 19 10 35 10 22 1 40 -11 80 -54 61 -65 81 -64 24 1 -32 35 -37 48 -28 58 10 10 7 11 -12 5 -13 -4 -26 -3 -30 1 -3 5 -19 7 -36 6z"/> <path d="M880 3400 c-8 -5 -10 -10 -5 -10 6 0 17 5 25 10 8 5 11 10 5 10 -5 0 -17 -5 -25 -10z"/> <path d="M2062 3394 c10 -10 20 -15 24 -12 3 4 -5 12 -18 18 -22 12 -22 12 -6 -6z"/> <path d="M1060 3389 c0 -5 5 -7 10 -4 6 3 10 8 10 11 0 2 -4 4 -10 4 -5 0 -10 -5 -10 -11z"/> <path d="M1242 3388 c-9 -9 -7 -14 6 -24 9 -8 21 -14 26 -14 6 0 1 7 -10 15 -16 13 -17 16 -4 25 8 5 10 10 5 10 -6 0 -16 -5 -23 -12z"/> <path d="M1300 3381 c0 -5 5 -13 10 -16 6 -3 10 -2 10 4 0 5 -4 13 -10 16 -5 3 -10 2 -10 -4z"/> <path d="M2450 3377 c0 -19 16 -31 24 -18 3 5 -1 14 -9 21 -12 10 -15 10 -15 -3z"/> <path d="M2347 3374 c-8 -13 20 -41 30 -30 3 3 1 6 -5 6 -6 0 -12 8 -14 18 -2 11 -6 13 -11 6z"/> <path d="M2540 3372 c0 -7 7 -15 16 -19 8 -3 20 -17 26 -32 7 -17 12 -21 15 -12 3 7 -9 27 -26 44 -17 18 -31 26 -31 19z"/> <path d="M2883 3350 c-51 -37 -52 -45 -22 -173 57 -241 162 -409 376 -601 l31 -28 86 42 c196 96 349 253 442 454 29 64 70 195 62 200 -19 13 -81 46 -82 44 -1 -2 -9 -34 -19 -73 -36 -143 -123 -291 -234 -397 -62 -59 -158 -125 -214 -148 l-32 -14 -67 71 c-156 163 -256 373 -278 582 l-7 72 -42 -31z m32 -106 c8 -43 21 -97 29 -119 8 -22 15 -46 16 -53 0 -17 42 -106 52 -110 4 -2 8 -12 8 -23 0 -11 7 -22 15 -25 8 -4 15 -11 15 -18 0 -6 14 -29 30 -50 17 -22 30 -43 30 -47 0 -14 149 -156 169 -162 57 -15 283 159 370 287 44 64 90 146 93 164 2 9 8 20 13 24 6 4 11 15 12 25 1 10 8 39 16 66 12 44 14 46 32 33 18 -13 18 -15 -5 -85 -13 -40 -29 -79 -37 -87 -12 -11 -12 -14 -1 -14 8 0 7 -4 -4 -11 -10 -5 -18 -18 -18 -29 0 -10 -4 -20 -8 -22 -5 -1 -23 -29 -41 -61 -35 -61 -214 -247 -238 -247 -3 0 -38 -20 -78 -44 -39 -24 -82 -47 -94 -51 -23 -7 -24 -7 -117 81 -40 38 -144 166 -144 177 0 4 -13 28 -30 54 -16 26 -30 56 -30 67 0 10 -3 16 -7 13 -6 -6 -27 41 -38 83 -2 8 -4 16 -4 18 -1 1 -1 5 0 8 0 4 -4 10 -10 13 -6 4 -12 19 -13 34 -1 15 -6 27 -11 27 -6 0 -7 18 -4 40 3 23 1 38 -4 34 -13 -8 -11 70 3 84 6 6 13 10 15 8 2 -2 10 -39 18 -82z"/> <path d="M2881 3284 c0 -11 3 -14 6 -6 3 7 2 16 -1 19 -3 4 -6 -2 -5 -13z"/> <path d="M774 3354 c3 -9 6 -18 6 -20 0 -2 4 -4 9 -4 5 0 7 9 4 20 -3 11 -10 20 -15 20 -6 0 -7 -7 -4 -16z"/> <path d="M1010 3360 c-8 -5 -12 -12 -9 -15 4 -3 12 1 19 10 14 17 11 19 -10 5z"/> <path d="M1063 3360 c-13 -5 -23 -13 -23 -18 0 -13 56 -35 72 -29 9 4 8 6 -3 6 -9 1 -22 8 -29 16 -10 13 -9 15 8 15 12 0 24 5 27 10 8 12 -22 12 -52 0z"/> <path d="M1190 3360 c20 -13 43 -13 35 0 -3 6 -16 10 -28 10 -18 0 -19 -2 -7 -10z"/> <path d="M1865 3360 c3 -5 42 -23 88 -40 45 -18 88 -37 95 -42 8 -7 12 -7 12 -1 0 6 -33 25 -72 43 -83 37 -131 53 -123 40z"/> <path d="M2500 3360 c0 -5 5 -10 10 -10 6 0 10 5 10 10 0 6 -4 10 -10 10 -5 0 -10 -4 -10 -10z"/> <path d="M840 3345 c-7 -9 -11 -18 -8 -20 3 -3 11 1 18 10 7 9 11 18 8 20 -3 3 -11 -1 -18 -10z"/> <path d="M1330 3350 c0 -5 5 -10 10 -10 6 0 10 5 10 10 0 6 -4 10 -10 10 -5 0 -10 -4 -10 -10z"/> <path d="M2274 3345 c23 -17 46 -20 46 -5 0 5 -6 7 -14 4 -8 -3 -17 -1 -21 5 -3 6 -12 11 -18 11 -7 0 -3 -7 7 -15z"/> <path d="M2430 3350 c0 -5 5 -10 10 -10 6 0 10 5 10 10 0 6 -4 10 -10 10 -5 0 -10 -4 -10 -10z"/> <path d="M2212 3323 c15 -15 30 -24 33 -21 8 7 -35 48 -49 48 -6 0 2 -12 16 -27z"/> <path d="M1182 3328 c5 -15 28 -23 28 -10 0 5 -7 13 -16 16 -10 4 -14 1 -12 -6z"/> <path d="M1490 3335 c0 -1 11 -10 25 -19 19 -13 23 -13 19 -2 -4 12 -44 31 -44 21z"/> <path d="M2327 3326 c-4 -10 -1 -13 9 -9 15 6 19 23 5 23 -5 0 -11 -7 -14 -14z"/> <path d="M2470 3325 c-11 -13 -10 -14 4 -9 9 3 16 10 16 15 0 13 -6 11 -20 -6z"/> <path d="M925 3320 c-3 -5 -1 -10 4 -10 6 0 11 5 11 10 0 6 -2 10 -4 10 -3 0 -8 -4 -11 -10z"/> <path d="M1000 3304 l-25 -24 23 0 c12 0 22 -5 22 -12 0 -9 3 -9 12 0 10 10 10 14 0 21 -7 4 -10 15 -6 24 8 22 4 21 -26 -9z"/> <path d="M1236 3315 c-4 -11 2 -15 20 -15 14 0 22 -4 19 -10 -3 -5 1 -10 9 -10 23 0 20 6 -13 29 -24 18 -30 19 -35 6z"/> <path d="M2520 3326 c0 -2 7 -6 15 -10 8 -3 15 -1 15 4 0 6 -7 10 -15 10 -8 0 -15 -2 -15 -4z"/> <path d="M865 3310 c-13 -5 -14 -9 -5 -9 8 0 24 4 35 9 13 5 14 9 5 9 -8 0 -24 -4 -35 -9z"/> <path d="M772 3290 c-17 -28 -15 -32 8 -18 11 7 20 18 20 25 0 19 -14 16 -28 -7z"/> <path d="M950 3300 c0 -5 5 -10 10 -10 6 0 10 5 10 10 0 6 -4 10 -10 10 -5 0 -10 -4 -10 -10z"/> <path d="M2422 3303 c4 -2 4 -11 1 -19 -7 -19 11 -18 27 1 8 9 8 15 2 15 -6 0 -16 2 -24 3 -7 2 -10 2 -6 0z"/> <path d="M1068 3293 c25 -5 30 -23 7 -23 -8 0 -15 -4 -15 -10 0 -16 27 -11 34 6 9 22 -1 34 -27 33 -22 -2 -22 -2 1 -6z"/> <path d="M1120 3292 c0 -12 19 -26 26 -19 2 2 -2 10 -11 17 -9 8 -15 8 -15 2z"/> <path d="M2110 3294 c0 -6 51 -54 57 -54 2 0 -4 11 -14 25 -17 23 -43 41 -43 29z"/> <path d="M2355 3254 c13 -27 34 -76 45 -109 20 -58 20 -58 15 -16 -7 51 -45 140 -69 160 -12 10 -9 -1 9 -35z"/> <path d="M2550 3292 c0 -5 9 -17 21 -28 21 -19 21 -19 8 9 -12 26 -29 37 -29 19z"/> <path d="M2470 3279 c0 -5 5 -7 10 -4 6 3 10 8 10 11 0 2 -4 4 -10 4 -5 0 -10 -5 -10 -11z"/> <path d="M1210 3265 c0 -9 6 -12 15 -9 8 4 12 10 9 15 -8 14 -24 10 -24 -6z"/> <path d="M1681 3261 c13 -11 26 -17 28 -15 5 5 -30 33 -43 34 -4 0 2 -9 15 -19z"/> <path d="M1800 3266 c0 -8 40 -21 104 -35 58 -12 122 -30 143 -41 58 -28 130 -96 143 -135 16 -50 35 -43 59 20 24 64 20 116 -10 156 l-19 24 10 -28 c14 -38 12 -86 -5 -122 -7 -16 -14 -25 -14 -20 -1 15 -69 85 -81 85 -5 0 -10 7 -10 15 0 8 -9 15 -21 15 -11 0 -18 4 -15 8 2 4 -5 9 -17 9 -12 1 -49 8 -82 16 -33 8 -88 22 -122 30 -49 12 -63 12 -63 3z"/> <path d="M2230 3270 c0 -5 4 -10 9 -10 17 0 90 -111 111 -169 18 -45 28 -115 30 -197 0 -6 11 -11 25 -11 29 0 85 49 85 75 0 9 3 28 5 42 l6 25 -11 -25 c-16 -36 -61 -100 -71 -100 -5 0 -9 21 -9 48 0 54 -29 184 -40 177 -4 -2 -14 11 -23 31 -18 37 -94 124 -108 124 -5 0 -9 -4 -9 -10z"/> <path d="M838 3263 c7 -3 16 -2 19 1 4 3 -2 6 -13 5 -11 0 -14 -3 -6 -6z"/> <path d="M865 3239 c-16 -11 -23 -19 -15 -19 16 1 56 27 49 34 -2 2 -17 -5 -34 -15z"/> <path d="M1000 3250 c0 -5 5 -10 11 -10 5 0 7 5 4 10 -3 6 -8 10 -11 10 -2 0 -4 -4 -4 -10z"/> <path d="M2440 3252 c0 -5 9 -17 20 -27 22 -20 26 -14 10 16 -11 19 -30 26 -30 11z"/> <path d="M937 3230 c-3 -13 0 -20 9 -20 15 0 19 26 5 34 -5 3 -11 -3 -14 -14z"/> <path d="M970 3239 c0 -5 5 -7 10 -4 6 3 10 8 10 11 0 2 -4 4 -10 4 -5 0 -10 -5 -10 -11z"/> <path d="M1147 3229 c-4 -16 -3 -18 9 -8 7 6 11 15 8 20 -8 13 -11 11 -17 -12z"/> <path d="M2321 3234 c8 -9 22 -35 31 -58 9 -22 17 -34 17 -24 1 21 -40 98 -52 98 -5 0 -3 -7 4 -16z"/> <path d="M2510 3239 c0 -5 5 -7 10 -4 6 3 10 8 10 11 0 2 -4 4 -10 4 -5 0 -10 -5 -10 -11z"/> <path d="M2595 3240 c-3 -5 -1 -10 4 -10 6 0 11 5 11 10 0 6 -2 10 -4 10 -3 0 -8 -4 -11 -10z"/> <path d="M1090 3230 c0 -5 5 -10 11 -10 5 0 7 5 4 10 -3 6 -8 10 -11 10 -2 0 -4 -4 -4 -10z"/> <path d="M1400 3237 c0 -2 23 -18 50 -35 28 -17 50 -28 50 -23 0 4 -22 20 -50 35 -27 15 -50 25 -50 23z"/> <path d="M1790 3232 c0 -21 32 -99 56 -134 13 -21 21 -38 17 -38 -5 0 -1 -5 7 -10 26 -16 -2 -30 -67 -33 -47 -1 -59 -5 -55 -16 3 -9 1 -12 -6 -7 -7 4 -12 2 -12 -5 0 -8 -23 -10 -76 -7 -62 3 -79 7 -93 24 -11 14 -25 20 -41 17 -18 -2 -21 0 -11 6 11 7 9 12 -11 25 -13 8 -39 21 -58 27 -19 7 -38 17 -42 23 -10 15 -15 6 -19 -29 -2 -16 -6 -32 -10 -35 -24 -21 -92 -120 -109 -156 -11 -25 -24 -43 -29 -40 -6 4 -6 -5 0 -26 6 -22 5 -34 -2 -39 -15 -9 -4 -25 22 -32 20 -5 21 -3 16 39 -4 39 1 55 34 116 21 38 52 85 69 105 21 23 29 41 25 54 -8 23 12 26 40 6 12 -10 14 -16 7 -21 -14 -8 -16 -36 -3 -36 5 0 8 8 7 17 0 12 7 19 22 21 12 2 22 -2 22 -8 0 -7 -7 -9 -17 -6 -15 6 -15 5 1 -13 58 -64 320 -78 424 -22 30 16 28 35 -8 79 -16 20 -40 62 -54 94 -23 52 -46 82 -46 60z m18 -239 c-10 -2 -26 -2 -35 0 -10 3 -2 5 17 5 19 0 27 -2 18 -5z"/> <path d="M2630 3230 c0 -5 5 -10 11 -10 5 0 7 5 4 10 -3 6 -8 10 -11 10 -2 0 -4 -4 -4 -10z"/> <path d="M1030 3220 c0 -5 10 -10 23 -10 18 0 19 2 7 10 -19 13 -30 13 -30 0z"/> <path d="M2550 3223 c1 -12 51 -46 57 -39 3 3 -2 8 -11 12 -9 3 -16 12 -16 20 0 8 -7 14 -15 14 -8 0 -15 -3 -15 -7z"/> <path d="M1635 3210 c3 -5 8 -10 11 -10 2 0 4 5 4 10 0 6 -5 10 -11 10 -5 0 -7 -4 -4 -10z"/> <path d="M1100 3200 c0 -5 4 -10 9 -10 6 0 13 5 16 10 3 6 -1 10 -9 10 -9 0 -16 -4 -16 -10z"/> <path d="M2431 3193 c-1 -12 4 -25 9 -28 12 -7 12 2 0 30 -8 19 -9 19 -9 -2z"/> <path d="M811 3191 c-9 -6 -10 -11 -2 -15 13 -8 31 1 31 15 0 11 -11 11 -29 0z"/> <path d="M863 3193 c-7 -3 -13 -9 -13 -15 0 -6 6 -6 15 2 10 9 15 9 15 1 0 -6 5 -11 10 -11 14 0 12 17 -2 22 -7 3 -19 3 -25 1z"/> <path d="M965 3190 c-3 -5 -1 -10 4 -10 6 0 11 5 11 10 0 6 -2 10 -4 10 -3 0 -8 -4 -11 -10z"/> <path d="M1031 3181 c13 -11 28 -16 34 -13 5 4 2 8 -7 10 -10 2 -18 8 -18 13 0 5 -7 9 -16 9 -12 0 -11 -5 7 -19z"/> <path d="M2630 3188 c0 -6 -6 -19 -14 -27 -13 -14 -12 -16 8 -16 18 0 21 5 18 28 -4 27 -12 37 -12 15z"/> <path d="M920 3180 c0 -5 -9 -19 -20 -30 -34 -34 -22 -40 15 -8 19 17 32 35 29 40 -7 11 -24 10 -24 -2z"/> <path d="M1156 3175 c-9 -26 -7 -32 5 -12 6 10 9 21 6 23 -2 3 -7 -2 -11 -11z"/> <path d="M1400 3183 c0 -4 5 -15 10 -23 8 -13 10 -13 10 2 0 9 -4 20 -10 23 -5 3 -10 3 -10 -2z"/> <path d="M2475 3180 c3 -5 8 -10 11 -10 2 0 4 5 4 10 0 6 -5 10 -11 10 -5 0 -7 -4 -4 -10z"/> <path d="M770 3165 c-10 -12 -10 -15 4 -15 9 0 16 7 16 15 0 8 -2 15 -4 15 -2 0 -9 -7 -16 -15z"/> <path d="M995 3170 c-3 -5 1 -10 10 -10 9 0 13 5 10 10 -3 6 -8 10 -10 10 -2 0 -7 -4 -10 -10z"/> <path d="M1680 3177 c0 -3 12 -12 26 -22 15 -9 23 -12 20 -6 -7 11 -46 35 -46 28z"/> <path d="M1077 3152 c-19 -20 -22 -32 -9 -32 5 0 14 11 20 25 14 30 11 31 -11 7z"/> <path d="M2510 3157 c0 -9 5 -17 10 -17 6 0 10 -11 10 -24 0 -36 10 -56 29 -56 10 0 12 3 5 8 -6 4 -13 15 -17 25 -5 12 -1 17 13 17 11 0 19 -4 18 -9 -4 -12 16 -15 20 -3 2 6 -6 13 -18 17 -11 4 -32 19 -45 33 -20 22 -25 23 -25 9z"/> <path d="M950 3151 c0 -6 4 -12 10 -16 5 -3 7 -12 3 -20 -3 -8 0 -15 6 -15 12 0 14 20 5 44 -7 17 -24 22 -24 7z"/> <path d="M806 3134 c-9 -8 -16 -20 -16 -25 0 -6 -9 -8 -19 -4 -18 5 -39 -10 -28 -21 12 -12 55 10 71 37 19 32 16 37 -8 13z"/> <path d="M2453 3135 c0 -8 4 -12 9 -9 5 3 6 10 3 15 -9 13 -12 11 -12 -6z"/> <path d="M1488 3133 c6 -2 10 -8 7 -13 -3 -4 9 -13 27 -19 46 -16 47 -14 6 14 -20 14 -41 25 -45 24 -4 0 -2 -3 5 -6z"/> <path d="M835 3119 c-11 -17 1 -21 15 -4 8 9 8 15 2 15 -6 0 -14 -5 -17 -11z"/> <path d="M1135 3100 c-4 -17 -5 -34 -2 -36 3 -3 8 9 12 26 4 17 5 34 2 36 -3 3 -8 -9 -12 -26z"/> <path d="M2670 3122 c0 -4 6 -14 12 -20 10 -10 10 -15 -2 -22 -13 -8 -12 -10 3 -10 9 0 17 -5 17 -12 0 -6 2 -9 5 -7 7 7 -17 79 -27 79 -4 0 -8 -4 -8 -8z"/> <path d="M2624 3092 c-12 -27 -14 -62 -3 -62 9 0 13 14 9 39 -1 8 4 17 10 21 8 5 8 10 2 14 -5 3 -13 -2 -18 -12z"/> <path d="M861 3086 c2 -10 15 -26 29 -35 15 -10 21 -11 16 -3 -4 7 -2 19 5 28 6 8 9 18 5 21 -4 4 -11 1 -16 -7 -7 -12 -11 -12 -25 0 -15 13 -17 12 -14 -4z"/> <path d="M1040 3085 c0 -8 -4 -15 -10 -15 -5 0 -10 -5 -10 -11 0 -6 5 -9 12 -7 14 5 31 48 18 48 -6 0 -10 -7 -10 -15z"/> <path d="M2450 3090 c0 -5 5 -10 10 -10 6 0 10 5 10 10 0 6 -4 10 -10 10 -5 0 -10 -4 -10 -10z"/> <path d="M977 3084 c-4 -4 -4 -10 -1 -15 6 -10 34 0 34 12 0 10 -24 12 -33 3z"/> <path d="M2502 3055 c0 -16 2 -22 5 -12 2 9 2 23 0 30 -3 6 -5 -1 -5 -18z"/> <path d="M766 3061 c-4 -7 -5 -15 -2 -18 9 -9 19 4 14 18 -4 11 -6 11 -12 0z"/> <path d="M2412 3050 c0 -14 2 -19 5 -12 2 6 2 18 0 25 -3 6 -5 1 -5 -13z"/> <path d="M940 3049 c0 -5 4 -8 9 -4 5 3 12 1 16 -5 3 -5 11 -10 18 -10 6 0 2 7 -9 15 -23 17 -34 19 -34 4z"/> <path d="M1655 3040 c4 -6 11 -8 16 -5 14 9 11 15 -7 15 -8 0 -12 -5 -9 -10z"/> <path d="M2550 3046 c0 -2 7 -6 15 -10 8 -3 15 -1 15 4 0 6 -7 10 -15 10 -8 0 -15 -2 -15 -4z"/> <path d="M790 3029 c0 -6 -9 -8 -22 -4 -20 5 -21 4 -5 -5 23 -15 22 -39 -7 -92 -14 -27 -21 -49 -15 -55 5 -5 4 -24 -2 -46 -8 -29 -7 -41 7 -62 9 -14 20 -22 26 -19 5 3 2 14 -8 25 -12 13 -15 27 -10 51 4 18 6 48 6 65 0 18 7 45 17 59 9 15 18 34 19 43 1 9 5 24 9 34 4 10 3 17 -4 17 -6 0 -11 -5 -11 -11z"/> <path d="M868 3010 c-3 -17 -1 -33 3 -36 13 -7 23 46 12 57 -7 7 -12 0 -15 -21z"/> <path d="M919 3004 c-8 -10 -9 -15 -2 -11 6 4 13 1 16 -5 2 -7 8 -10 12 -6 4 3 3 14 -2 23 -9 15 -11 15 -24 -1z"/> <path d="M1122 2990 c0 -19 2 -27 5 -17 2 9 2 25 0 35 -3 9 -5 1 -5 -18z"/> <path d="M1620 3010 c8 -5 22 -9 30 -9 10 0 8 3 -5 9 -27 12 -43 12 -25 0z"/> <path d="M2626 3012 c-3 -5 -19 -7 -36 -4 -40 6 -39 -14 2 -22 33 -7 71 15 50 28 -6 3 -13 3 -16 -2z"/> <path d="M2690 3009 c0 -5 5 -7 10 -4 6 3 10 8 10 11 0 2 -4 4 -10 4 -5 0 -10 -5 -10 -11z"/> <path d="M729 2994 c-12 -14 -11 -16 5 -13 11 2 21 10 24 17 5 17 -13 15 -29 -4z"/> <path d="M814 2966 c-17 -36 -18 -46 -7 -72 l12 -29 1 30 c0 17 5 47 11 68 14 53 8 54 -17 3z"/> <path d="M990 3001 c0 -12 28 -22 35 -12 3 5 -2 12 -11 15 -21 8 -24 8 -24 -3z"/> <path d="M2520 2984 c0 -9 9 -60 20 -114 20 -97 21 -144 6 -169 -4 -7 -6 -15 -3 -18 3 -3 -5 -24 -19 -48 -29 -53 -29 -55 -4 -55 13 0 18 5 14 15 -4 10 0 15 12 15 13 0 15 3 7 11 -9 9 -8 15 2 26 8 7 12 20 9 27 -9 23 13 28 45 11 40 -20 48 -19 26 5 -10 11 -26 20 -36 20 -22 0 -31 13 -23 33 3 9 13 13 25 10 13 -4 19 0 19 12 0 12 -6 16 -20 12 -24 -6 -28 20 -5 29 20 8 19 24 -1 24 -8 0 -12 -4 -9 -10 3 -5 1 -10 -4 -10 -6 0 -12 12 -12 28 -3 50 -4 57 -19 110 -13 50 -30 70 -30 36z"/> <path d="M2712 2960 c7 -11 16 -20 21 -20 4 0 3 9 -3 20 -6 11 -15 20 -20 20 -6 0 -5 -9 2 -20z"/> <path d="M955 2962 c6 -5 19 -12 30 -14 18 -3 20 -12 22 -118 1 -63 4 -138 6 -167 3 -29 1 -53 -3 -53 -12 0 -20 27 -26 83 -3 34 -11 56 -26 69 -31 26 -41 22 -14 -7 15 -16 22 -35 21 -55 -1 -17 2 -33 7 -36 4 -3 8 -17 8 -31 0 -24 -2 -25 -39 -20 -26 3 -41 1 -44 -7 -4 -9 13 -11 59 -8 53 4 65 1 70 -12 9 -24 -4 -32 -26 -18 -24 15 -30 15 -30 1 0 -5 4 -8 9 -4 6 3 15 -4 21 -15 6 -11 15 -18 21 -15 5 4 9 1 9 -4 0 -6 4 -11 9 -11 9 0 6 69 -4 99 -7 18 -7 238 -1 271 7 32 -20 67 -59 76 -21 4 -27 3 -20 -4z"/> <path d="M1131 2934 c0 -11 3 -14 6 -6 3 7 2 16 -1 19 -3 4 -6 -2 -5 -13z"/> <path d="M897 2922 c-19 -21 -22 -32 -7 -32 6 0 10 6 10 14 0 8 6 16 13 19 6 2 9 7 6 11 -3 3 -13 -2 -22 -12z"/> <path d="M1091 2924 c0 -11 3 -14 6 -6 3 7 2 16 -1 19 -3 4 -6 -2 -5 -13z"/> <path d="M2650 2919 c7 -11 14 -19 16 -16 7 7 -7 37 -17 37 -6 0 -5 -9 1 -21z"/> <path d="M836 2914 c-9 -22 3 -32 14 -14 12 19 12 30 1 30 -5 0 -12 -7 -15 -16z"/> <path d="M2590 2920 c0 -5 7 -10 16 -10 8 0 12 5 9 10 -3 6 -10 10 -16 10 -5 0 -9 -4 -9 -10z"/> <path d="M2700 2916 c0 -9 5 -16 10 -16 6 0 10 4 10 9 0 6 -4 13 -10 16 -5 3 -10 -1 -10 -9z"/> <path d="M2641 2871 c14 -19 27 -27 37 -24 12 5 11 8 -5 14 -11 4 -23 14 -26 23 -4 9 -11 16 -17 16 -6 0 -1 -13 11 -29z"/> <path d="M2720 2875 c0 -8 5 -15 11 -15 8 0 8 -4 1 -12 -16 -21 -24 -58 -13 -58 6 0 11 11 11 25 0 14 5 25 10 25 16 0 12 37 -5 44 -9 3 -15 0 -15 -9z"/> <path d="M670 2865 c-7 -9 -11 -18 -8 -20 3 -3 11 1 18 10 7 9 11 18 8 20 -3 3 -11 -1 -18 -10z"/> <path d="M891 2864 c-1 -12 -11 -29 -23 -37 -13 -9 -18 -16 -12 -16 6 -1 20 7 31 17 14 12 18 23 12 37 -7 19 -8 19 -8 -1z"/> <path d="M1054 2867 c3 -10 6 -22 6 -26 0 -14 55 -67 83 -79 34 -15 67 -16 67 -2 0 6 -9 10 -19 10 -21 0 -91 37 -91 48 -1 4 -12 21 -26 37 -16 18 -24 23 -20 12z"/> <path d="M705 2851 c-3 -5 -1 -12 5 -16 5 -3 10 1 10 9 0 18 -6 21 -15 7z"/> <path d="M776 2835 c-3 -9 0 -15 9 -15 16 0 20 16 6 24 -5 3 -11 -1 -15 -9z"/> <path d="M920 2840 c0 -5 7 -10 15 -10 8 0 15 -4 15 -10 0 -18 18 -10 23 10 3 11 1 20 -4 20 -5 0 -9 -5 -9 -10 0 -7 -6 -7 -20 0 -14 7 -20 7 -20 0z"/> <path d="M2650 2815 c0 -9 6 -12 15 -9 8 4 15 10 15 15 0 5 -7 9 -15 9 -8 0 -15 -7 -15 -15z"/> <path d="M792 2790 c0 -14 2 -19 5 -12 2 6 2 18 0 25 -3 6 -5 1 -5 -13z"/> <path d="M907 2803 c-4 -3 -7 -11 -7 -17 0 -6 5 -5 12 2 6 6 9 14 7 17 -3 3 -9 2 -12 -2z"/> <path d="M2155 2792 c-6 -4 -19 -23 -29 -43 -47 -89 44 -220 109 -159 29 27 38 72 24 124 -18 67 -68 105 -104 78z m53 -24 c15 -15 16 -154 2 -163 -29 -18 -75 48 -67 96 11 67 38 94 65 67z"/> <path d="M2656 2781 c-3 -5 1 -11 9 -15 9 -3 15 0 15 9 0 16 -16 20 -24 6z"/> <path d="M2745 2770 c3 -5 8 -10 11 -10 2 0 4 5 4 10 0 6 -5 10 -11 10 -5 0 -7 -4 -4 -10z"/> <path d="M840 2757 c0 -5 -8 -7 -19 -4 -14 3 -17 0 -13 -15 4 -17 6 -17 22 -3 9 8 25 15 35 15 14 0 16 -6 12 -30 -5 -22 -3 -28 7 -24 8 3 13 18 11 37 -2 27 -6 32 -29 32 -14 1 -26 -3 -26 -8z"/> <path d="M2710 2750 c0 -5 5 -10 10 -10 6 0 10 5 10 10 0 6 -4 10 -10 10 -5 0 -10 -4 -10 -10z"/> <path d="M700 2740 c0 -5 5 -10 10 -10 6 0 10 5 10 10 0 6 -4 10 -10 10 -5 0 -10 -4 -10 -10z"/> <path d="M710 2710 c0 -5 5 -10 10 -10 6 0 10 5 10 10 0 6 -4 10 -10 10 -5 0 -10 -4 -10 -10z"/> <path d="M825 2710 c-3 -5 1 -10 10 -10 9 0 13 5 10 10 -3 6 -8 10 -10 10 -2 0 -7 -4 -10 -10z"/> <path d="M930 2699 c0 -5 5 -7 10 -4 6 3 10 8 10 11 0 2 -4 4 -10 4 -5 0 -10 -5 -10 -11z"/> <path d="M2717 2703 c-12 -12 -7 -22 8 -17 8 4 15 10 15 15 0 11 -14 12 -23 2z"/> <path d="M2670 2692 c0 -5 7 -15 15 -22 8 -7 15 -9 15 -6 0 4 -7 14 -15 22 -8 9 -15 11 -15 6z"/> <path d="M738 2665 c-5 -22 -2 -35 13 -50 15 -15 19 -16 19 -4 0 8 -4 19 -9 25 -5 5 -11 20 -13 34 -3 24 -4 24 -10 -5z"/> <path d="M1441 2664 c-15 -18 -21 -41 -21 -73 1 -114 99 -172 150 -88 33 54 25 103 -28 160 -34 35 -74 36 -101 1z m97 -23 c48 -59 38 -131 -19 -153 -36 -14 -90 82 -72 128 8 21 44 64 53 64 4 0 21 -18 38 -39z"/> <path d="M1529 2625 c-14 -22 -18 -65 -10 -87 8 -19 10 -20 16 -7 8 20 2 108 -6 94z"/> <path d="M680 2666 c0 -9 5 -16 10 -16 6 0 10 4 10 9 0 6 -4 13 -10 16 -5 3 -10 -1 -10 -9z"/> <path d="M790 2676 c0 -2 7 -9 15 -16 12 -10 15 -10 15 4 0 9 -7 16 -15 16 -8 0 -15 -2 -15 -4z"/> <path d="M848 2638 c12 -12 25 -18 29 -14 4 4 -1 14 -11 22 -31 22 -43 17 -18 -8z"/> <path d="M910 2650 c-8 -5 -12 -11 -10 -14 3 -2 14 2 24 10 22 15 10 19 -14 4z"/> <path d="M2713 2641 c-26 -22 -30 -33 -8 -25 21 8 19 -13 -2 -25 -17 -10 -17 -10 -1 -11 20 0 28 12 35 51 5 34 5 34 -24 10z"/> <path d="M2583 2627 c5 -17 22 -18 42 -3 19 14 18 15 -13 14 -18 -1 -31 -6 -29 -11z"/> <path d="M710 2610 c0 -5 5 -10 11 -10 5 0 7 5 4 10 -3 6 -8 10 -11 10 -2 0 -4 -4 -4 -10z"/> <path d="M790 2615 c0 -12 24 -55 32 -55 13 0 9 16 -7 30 -8 7 -12 16 -9 21 3 5 0 9 -5 9 -6 0 -11 -2 -11 -5z"/> <path d="M2658 2603 c7 -3 16 -2 19 1 4 3 -2 6 -13 5 -11 0 -14 -3 -6 -6z"/> <path d="M3094 2574 c-21 -14 -50 -36 -64 -48 -53 -48 -202 -137 -220 -131 -11 3 -29 -5 -50 -25 -18 -16 -37 -30 -44 -30 -18 -1 -73 -50 -56 -50 9 0 26 7 38 16 12 8 27 12 32 9 6 -3 10 -2 10 4 0 13 48 46 56 38 8 -8 -19 -47 -32 -47 -10 0 -24 -21 -24 -35 0 -1 16 5 35 14 23 11 34 23 35 38 0 34 11 53 29 53 21 0 176 99 219 139 18 17 36 31 41 31 5 0 14 6 20 14 13 15 42 16 74 2 26 -12 20 -27 -8 -20 -35 9 -73 -19 -96 -69 -20 -45 -26 -117 -9 -117 6 0 10 16 10 35 0 45 27 113 51 125 19 11 59 14 59 5 0 -3 -11 -16 -25 -28 -27 -25 -95 -156 -95 -185 0 -29 -55 -181 -71 -197 -19 -19 -107 -1 -131 26 -9 10 -21 19 -27 19 -6 0 -10 3 -9 8 2 4 -3 27 -11 52 -7 25 -15 51 -17 58 -2 7 -9 10 -14 7 -6 -4 -8 -15 -5 -26 5 -14 0 -20 -19 -25 -14 -3 -26 -12 -26 -20 0 -8 -6 -14 -14 -14 -8 0 -18 -9 -21 -20 -3 -11 -10 -20 -15 -20 -14 0 -21 18 -11 25 5 3 -1 17 -15 30 -30 30 -34 31 -28 8 3 -12 -7 -25 -30 -40 -32 -21 -41 -15 -23 14 5 8 0 22 -13 35 -20 21 -20 21 -34 2 -14 -17 -16 -18 -31 -3 -15 15 -15 18 -1 32 9 8 16 19 16 23 0 5 -5 3 -12 -4 -16 -16 -28 -15 -28 3 0 20 -36 19 -44 -1 -8 -22 2 -33 14 -14 7 11 11 11 24 1 9 -7 14 -17 11 -21 -3 -4 2 -13 10 -20 19 -16 10 -30 -18 -30 -12 0 -29 -5 -37 -11 -12 -8 -10 -9 8 -4 28 8 29 -13 2 -43 -24 -25 -40 -28 -40 -8 0 7 -9 16 -20 19 -21 5 -28 27 -9 27 5 0 7 5 4 11 -5 6 -12 4 -20 -8 -9 -12 -10 -22 -3 -30 6 -7 7 -21 4 -30 -6 -17 -5 -17 7 -1 15 18 27 14 27 -9 0 -7 -6 -13 -14 -13 -7 0 -21 -11 -30 -25 -18 -28 -36 -33 -36 -10 0 8 -4 15 -10 15 -13 0 -13 -13 2 -28 9 -9 7 -13 -8 -18 -10 -4 -21 -11 -24 -14 -3 -4 -25 -17 -49 -30 -35 -18 -45 -19 -52 -8 -7 10 -9 9 -9 -4 0 -20 -56 -40 -125 -44 -27 -1 -57 -5 -65 -8 -75 -26 -290 -38 -290 -15 0 7 -6 5 -14 -6 -13 -18 -13 -18 -24 1 -9 15 -13 16 -21 6 -6 -11 -25 -12 -77 -7 -38 3 -73 10 -78 15 -5 5 -15 6 -22 3 -8 -3 -26 2 -40 12 -25 16 -26 16 -22 -2 9 -45 219 -72 431 -55 251 21 390 62 500 146 31 23 49 32 51 24 2 -7 11 -35 20 -63 l16 -50 -5 45 c-2 25 -7 59 -11 76 -5 28 -3 32 20 38 27 7 57 34 96 90 33 47 53 48 44 2 -5 -32 6 -87 28 -129 6 -12 6 -23 -1 -30 -5 -7 -11 -26 -14 -42 -2 -17 -6 -37 -10 -45 -3 -8 -8 -31 -10 -50 -3 -19 -11 -60 -20 -90 -8 -30 -20 -80 -26 -110 -6 -30 -14 -66 -17 -80 -3 -14 -7 -36 -9 -50 -2 -19 -1 -20 2 -2 2 12 9 22 14 22 6 0 7 5 4 10 -3 6 -1 10 5 10 6 0 10 10 9 23 -1 12 1 29 4 37 15 37 26 94 20 103 -3 6 -1 7 5 3 6 -4 11 1 10 11 -1 53 17 149 29 156 7 5 11 12 9 16 -3 4 -1 25 4 47 5 21 10 67 11 101 2 69 20 99 42 70 7 -10 37 -21 72 -26 33 -5 82 -15 109 -21 l48 -12 -6 -72 c-3 -39 -15 -177 -26 -306 -24 -282 -59 -663 -67 -737 -5 -52 -5 -53 20 -53 46 0 281 -21 325 -30 32 -6 74 -1 160 16 65 14 199 39 300 56 l182 31 0 36 c0 20 -12 122 -26 226 -14 105 -42 322 -63 484 -20 162 -42 296 -47 298 -5 1 -34 4 -64 5 l-54 3 -24 90 c-16 59 -24 115 -23 162 1 39 -3 74 -8 77 -5 4 -17 30 -25 60 -30 102 -89 137 -139 82 -26 -28 -77 -26 -77 3 0 9 -7 27 -16 39 -21 30 -62 28 -110 -4z m295 -60 c22 -27 36 -63 28 -70 -2 -3 -17 2 -33 11 -16 8 -41 20 -56 25 -26 9 -37 37 -21 53 16 17 62 6 82 -19z m-190 -51 c-10 -21 -23 -76 -29 -123 -6 -46 -16 -92 -20 -101 -5 -9 -7 -19 -4 -22 9 -9 -44 -39 -55 -32 -6 3 -9 0 -6 -7 3 -7 -4 -19 -15 -26 -11 -7 -20 -9 -20 -5 1 20 30 88 37 86 4 -1 9 14 10 33 3 56 41 157 74 197 39 47 52 47 28 0z m91 17 c22 -11 40 -25 40 -31 0 -6 4 -7 10 -4 14 9 90 -33 90 -50 0 -8 4 -15 9 -15 19 0 9 -74 -12 -92 -11 -10 -23 -18 -26 -18 -10 1 -101 166 -101 184 0 9 -5 16 -11 16 -22 0 16 -89 73 -172 16 -23 12 -26 -55 -31 -37 -4 -66 -12 -79 -24 -16 -14 -22 -15 -25 -5 -4 10 -8 8 -18 -5 -18 -24 -28 -12 -16 20 6 14 17 65 25 113 14 76 36 134 52 134 2 0 23 -9 44 -20z m168 -238 c-1 -9 6 -50 16 -90 10 -40 17 -74 15 -76 -2 -2 -19 -1 -36 1 -33 5 -33 5 -33 65 0 33 -5 68 -10 78 -8 15 -6 22 12 34 24 17 37 13 36 -12z m-60 -88 l4 -76 -23 7 c-13 5 -37 8 -54 9 l-30 1 0 70 0 70 40 5 c22 3 44 2 50 -2 5 -5 11 -43 13 -84z m-120 -2 c-3 -24 -5 -22 -19 21 -15 44 -15 48 0 57 13 7 17 3 19 -21 2 -16 2 -42 0 -57z m-470 72 c-4 -3 0 -21 8 -39 18 -44 18 -44 -6 -38 -11 3 -20 14 -20 24 0 11 -4 19 -10 19 -5 0 -10 -6 -10 -13 0 -7 -11 -14 -25 -15 -34 -3 -32 3 17 38 37 27 61 40 46 24z m396 -66 c-8 -28 -13 -52 -11 -54 1 -1 13 -4 27 -8 14 -3 19 -3 13 0 -15 6 -17 72 -4 92 5 9 10 0 15 -27 7 -47 44 -86 82 -86 14 -1 29 -7 34 -15 7 -10 10 -11 10 -2 0 6 7 12 15 12 8 0 15 -9 15 -20 0 -29 -27 -90 -39 -90 -6 0 -11 -7 -11 -15 0 -46 57 30 67 89 3 22 10 33 16 29 7 -4 23 -6 38 -5 40 3 48 -39 18 -95 -7 -13 -9 -26 -6 -30 14 -13 36 33 37 75 l0 43 33 -6 c17 -3 43 -7 56 -8 22 -1 23 -4 19 -59 -2 -31 -1 -55 3 -53 7 5 19 -74 25 -155 1 -25 8 -76 14 -115 7 -38 14 -88 16 -110 4 -47 21 -187 28 -230 20 -120 26 -188 21 -204 -3 -11 -2 -22 4 -25 15 -10 0 -47 -23 -56 -11 -4 -46 -11 -76 -15 -30 -4 -120 -20 -200 -35 -80 -16 -158 -31 -175 -33 -16 -2 -38 -7 -49 -12 -27 -12 -36 10 -36 95 0 78 -23 475 -50 875 -6 77 -10 156 -10 175 0 26 -3 31 -12 22 -19 -19 -26 -14 -20 16 4 26 26 52 44 52 5 0 6 -11 2 -25 -5 -19 -1 -31 16 -45 29 -25 38 -26 17 -2 -25 27 -22 78 5 96 40 28 46 21 32 -36z m-524 32 c0 -5 -7 -10 -15 -10 -8 0 -15 5 -15 10 0 6 7 10 15 10 8 0 15 -4 15 -10z m393 -80 c-3 -11 -14 -20 -24 -20 -22 0 -24 11 -7 28 19 19 37 14 31 -8z m-43 -30 c10 -6 28 -10 39 -10 25 0 28 -18 36 -185 3 -71 12 -218 20 -325 7 -107 13 -202 13 -210 0 -22 21 -318 27 -369 l5 -44 -77 7 c-85 7 -149 13 -231 22 l-52 5 5 87 c3 48 10 125 15 172 5 47 11 108 13 135 3 28 6 52 7 55 1 3 1 13 0 23 -2 20 25 319 40 447 6 47 12 108 14 135 2 28 4 56 5 62 1 15 91 9 121 -7z"/> <path d="M3616 1724 c-5 -14 -4 -15 9 -4 17 14 19 20 6 20 -5 0 -12 -7 -15 -16z"/> <path d="M3575 1700 c-3 -6 1 -7 9 -4 18 7 21 14 7 14 -6 0 -13 -4 -16 -10z"/> <path d="M3435 1560 c-3 -5 -1 -10 4 -10 6 0 11 5 11 10 0 6 -2 10 -4 10 -3 0 -8 -4 -11 -10z"/> <path d="M3379 1483 c-92 -133 -169 -345 -169 -464 0 -63 6 -61 16 6 3 28 15 84 26 125 11 41 21 82 23 91 2 9 8 25 13 35 12 22 37 78 51 117 6 15 15 27 21 27 5 0 10 9 10 20 0 10 10 28 22 40 12 11 18 20 14 20 -5 0 -3 7 4 15 7 8 10 15 7 15 -3 0 -21 -21 -38 -47z"/> <path d="M850 2553 c0 -36 13 -63 32 -63 4 0 8 7 8 15 0 8 -5 15 -11 15 -7 0 -9 10 -7 25 3 14 -1 30 -8 36 -11 9 -14 4 -14 -28z"/> <path d="M2575 2580 c3 -5 14 -10 23 -10 15 0 15 2 2 10 -20 13 -33 13 -25 0z"/> <path d="M715 2569 c-10 -15 3 -25 16 -12 7 7 7 13 1 17 -6 3 -14 1 -17 -5z"/> <path d="M2483 2542 c-21 -46 -207 -221 -236 -222 -5 0 -21 -8 -35 -18 -15 -10 -49 -25 -77 -32 -27 -7 -54 -17 -60 -21 -5 -4 -23 -9 -39 -11 -30 -3 -50 -28 -22 -28 8 0 20 -8 25 -17 10 -17 10 -17 11 0 0 9 -5 17 -11 17 -5 0 -7 5 -4 10 5 8 11 7 21 -1 12 -9 17 -8 27 5 7 9 24 18 37 20 14 2 41 10 60 19 33 14 35 14 42 -4 11 -29 21 -22 15 10 -6 26 -3 30 23 36 15 3 31 13 34 20 3 8 12 12 21 9 10 -4 15 0 15 14 0 16 6 20 25 17 21 -2 24 1 20 16 -5 15 -3 17 11 12 11 -4 15 -3 10 5 -3 6 3 13 15 17 11 4 18 13 15 20 -7 20 4 26 28 13 18 -10 19 -9 9 4 -16 18 -5 32 14 17 10 -9 13 -5 13 20 0 21 4 30 11 25 8 -4 9 1 4 17 -6 20 -5 22 6 12 20 -20 31 -15 19 7 -15 28 -33 25 -47 -8z"/> <path d="M921 2544 c-7 -9 -10 -19 -5 -24 5 -5 17 2 27 16 20 27 2 34 -22 8z"/> <path d="M2550 2542 c0 -14 39 -32 46 -21 4 6 0 15 -7 20 -17 11 -39 12 -39 1z"/> <path d="M2685 2539 c-4 -6 -3 -15 3 -21 6 -6 11 -4 15 6 7 18 -9 31 -18 15z"/> <path d="M780 2533 c0 -5 5 -15 10 -23 8 -12 10 -11 10 8 0 12 -4 22 -10 22 -5 0 -10 -3 -10 -7z"/> <path d="M2650 2505 c7 -8 16 -15 21 -15 5 0 6 7 3 15 -4 8 -13 15 -21 15 -13 0 -13 -3 -3 -15z"/> <path d="M2531 2501 c-11 -7 -9 -14 14 -35 34 -32 47 -26 17 7 -12 13 -19 27 -15 30 9 10 1 8 -16 -2z"/> <path d="M927 2485 c-4 -11 -9 -24 -12 -30 -3 -6 8 -10 25 -10 32 0 39 9 16 22 -7 4 -15 15 -18 23 -3 11 -6 10 -11 -5z"/> <path d="M1050 2485 c0 -8 5 -15 10 -15 6 0 10 7 10 15 0 8 -4 15 -10 15 -5 0 -10 -7 -10 -15z"/> <path d="M2692 2480 c0 -14 2 -19 5 -12 2 6 2 18 0 25 -3 6 -5 1 -5 -13z"/> <path d="M1013 2483 c-19 -7 -16 -27 7 -41 11 -7 20 -8 20 -3 0 6 -5 13 -11 16 -6 4 -8 13 -5 21 3 8 4 14 3 13 -1 0 -8 -3 -14 -6z"/> <path d="M2600 2477 c0 -7 6 -19 12 -25 10 -10 10 -17 0 -32 -10 -16 -9 -18 2 -14 23 9 27 33 10 60 -18 27 -24 30 -24 11z"/> <path d="M881 2448 c14 -27 56 -68 70 -68 5 0 9 8 9 17 0 9 -3 13 -6 10 -11 -11 -45 13 -54 39 -5 13 -14 24 -20 24 -7 0 -7 -7 1 -22z"/> <path d="M553 2426 c3 -19 0 -39 -6 -45 -8 -8 -7 -11 5 -11 9 0 19 -6 21 -12 3 -7 3 10 0 39 -5 44 -3 52 13 56 13 3 9 5 -10 6 -27 1 -28 -1 -23 -33z"/> <path d="M595 2440 c-19 -7 -18 -9 8 -19 36 -14 50 -14 41 0 -4 8 1 9 17 4 18 -5 20 -4 9 4 -8 6 -26 8 -40 5 -20 -4 -22 -3 -10 5 17 12 4 13 -25 1z"/> <path d="M1048 2409 c-30 -37 -33 -39 -45 -23 -7 10 -10 27 -7 38 6 18 5 19 -9 8 -12 -10 -13 -18 -4 -42 6 -16 19 -31 29 -33 10 -3 16 -2 14 2 -3 4 4 14 15 21 10 8 19 21 19 28 0 11 9 13 38 7 l37 -7 -22 21 c-12 12 -24 21 -27 21 -3 0 -20 -18 -38 -41z"/> <path d="M2450 2426 c0 -2 8 -10 18 -17 15 -13 16 -12 3 4 -13 16 -21 21 -21 13z"/> <path d="M2540 2415 c0 -9 6 -12 15 -9 8 4 15 7 15 9 0 2 -7 5 -15 9 -9 3 -15 0 -15 -9z"/> <path d="M590 2390 c0 -5 10 -10 23 -10 18 0 19 2 7 10 -19 13 -30 13 -30 0z"/> <path d="M1130 2380 c0 -23 15 -27 23 -6 3 8 -1 17 -9 20 -9 4 -14 -1 -14 -14z"/> <path d="M2452 2384 c10 -10 20 -16 22 -13 3 3 -5 11 -17 18 -21 13 -21 12 -5 -5z"/> <path d="M1070 2380 c0 -5 7 -7 15 -4 8 4 15 8 15 10 0 2 -7 4 -15 4 -8 0 -15 -4 -15 -10z"/> <path d="M2550 2376 c0 -9 5 -16 10 -16 6 0 10 4 10 9 0 6 -4 13 -10 16 -5 3 -10 -1 -10 -9z"/> <path d="M2610 2380 c0 -5 4 -10 9 -10 6 0 13 5 16 10 3 6 -1 10 -9 10 -9 0 -16 -4 -16 -10z"/> <path d="M655 2370 c3 -5 11 -10 16 -10 6 0 7 5 4 10 -3 6 -11 10 -16 10 -6 0 -7 -4 -4 -10z"/> <path d="M690 2362 c0 -5 33 -19 73 -31 39 -12 84 -26 100 -31 15 -4 27 -5 27 -1 0 3 -38 19 -84 34 -46 15 -91 30 -100 33 -9 3 -16 2 -16 -4z"/> <path d="M590 2354 c0 -13 30 -34 49 -34 29 0 26 19 -5 30 -29 11 -44 13 -44 4z"/> <path d="M1089 2334 c-16 -18 -20 -28 -11 -31 6 -3 12 -11 12 -19 0 -9 5 -12 11 -8 6 3 8 16 5 27 -3 12 0 27 6 34 21 26 1 23 -23 -3z"/> <path d="M1160 2325 c-12 -19 -25 -35 -28 -35 -4 0 -12 -11 -19 -25 -6 -14 -7 -25 -2 -25 5 0 9 4 9 8 0 5 8 17 19 28 10 11 24 30 30 42 13 25 34 30 25 7 -5 -11 -2 -13 10 -9 21 8 20 17 -3 31 -17 11 -22 8 -41 -22z"/> <path d="M2390 2350 c0 -6 7 -10 15 -10 8 0 15 2 15 4 0 2 -7 6 -15 10 -8 3 -15 1 -15 -4z"/> <path d="M2445 2350 c3 -5 8 -10 11 -10 2 0 4 5 4 10 0 6 -5 10 -11 10 -5 0 -7 -4 -4 -10z"/> <path d="M2490 2350 c0 -5 5 -10 10 -10 6 0 10 5 10 10 0 6 -4 10 -10 10 -5 0 -10 -4 -10 -10z"/> <path d="M960 2342 c0 -5 7 -13 16 -16 10 -4 14 -1 12 6 -5 15 -28 23 -28 10z"/> <path d="M1040 2340 c0 -5 5 -10 10 -10 6 0 10 5 10 10 0 6 -4 10 -10 10 -5 0 -10 -4 -10 -10z"/> <path d="M557 2320 c3 -11 10 -20 15 -20 6 0 7 -11 4 -26 -6 -24 -5 -25 9 -11 20 21 19 40 -3 60 -24 22 -31 21 -25 -3z"/> <path d="M2520 2330 c-11 -7 -12 -12 -4 -20 8 -8 13 -6 17 9 3 12 4 21 4 21 -1 0 -9 -5 -17 -10z"/> <path d="M2340 2322 c0 -5 7 -17 15 -28 15 -19 20 -8 9 20 -6 17 -24 22 -24 8z"/> <path d="M2420 2320 c0 -5 5 -10 10 -10 6 0 10 5 10 10 0 6 -4 10 -10 10 -5 0 -10 -4 -10 -10z"/> <path d="M1211 2274 c-12 -19 -25 -33 -30 -29 -5 3 -13 1 -16 -5 -4 -6 -1 -9 7 -8 7 2 12 -2 11 -8 -1 -6 9 -16 22 -22 22 -10 25 -9 25 7 0 11 -5 21 -12 23 -7 3 -5 13 7 31 18 28 35 31 43 9 2 -7 -3 -12 -12 -12 -9 0 -16 -4 -16 -10 0 -14 23 -13 38 2 8 8 15 8 25 0 8 -7 17 -9 20 -5 12 11 8 23 -7 23 -7 0 -19 7 -26 15 -7 8 -16 12 -21 9 -5 -3 -9 0 -9 5 0 24 -29 9 -49 -25z"/> <path d="M2390 2300 c0 -5 5 -10 10 -10 6 0 10 5 10 10 0 6 -4 10 -10 10 -5 0 -10 -4 -10 -10z"/> <path d="M665 2288 c11 -6 27 -12 36 -13 8 0 28 -6 45 -12 43 -16 135 -43 146 -43 5 0 6 5 3 10 -3 6 -14 10 -24 10 -11 0 -52 11 -92 24 -41 13 -87 27 -104 30 -27 6 -28 5 -10 -6z"/> <path d="M1013 2275 c14 -30 50 -30 55 0 3 19 2 19 -12 2 -14 -18 -15 -18 -26 2 -15 30 -30 26 -17 -4z"/> <path d="M2580 2275 c0 -28 21 -33 40 -10 10 12 10 15 -4 15 -9 0 -16 5 -16 10 0 6 -4 10 -10 10 -5 0 -10 -11 -10 -25z"/> <path d="M2705 2280 c-3 -5 -1 -10 4 -10 6 0 11 5 11 10 0 6 -2 10 -4 10 -3 0 -8 -4 -11 -10z"/> <path d="M1165 2270 c3 -5 8 -10 11 -10 2 0 4 5 4 10 0 6 -5 10 -11 10 -5 0 -7 -4 -4 -10z"/> <path d="M2941 2259 c-13 -11 -22 -21 -20 -23 2 -3 17 7 32 20 15 13 24 24 20 24 -4 -1 -19 -10 -32 -21z"/> <path d="M2660 2260 c0 -5 5 -10 11 -10 5 0 7 5 4 10 -3 6 -8 10 -11 10 -2 0 -4 -4 -4 -10z"/> <path d="M2860 2259 c0 -5 5 -7 10 -4 6 3 10 8 10 11 0 2 -4 4 -10 4 -5 0 -10 -5 -10 -11z"/> <path d="M1340 2245 c0 -8 8 -19 19 -24 27 -15 33 -69 9 -93 -20 -20 -21 -59 -2 -65 7 -2 10 6 7 22 -5 24 10 55 27 55 4 0 5 -10 3 -23 -3 -14 3 -29 16 -41 24 -21 27 -42 9 -49 -7 -2 -9 -8 -5 -13 13 -13 28 18 22 46 -4 14 -12 30 -19 35 -7 6 -11 16 -8 23 2 8 -1 24 -8 37 -7 13 -10 31 -7 39 7 18 47 22 47 5 0 -5 4 -8 9 -5 5 3 16 -6 26 -20 l16 -25 20 25 c10 13 19 29 19 35 0 19 -22 12 -27 -9 -6 -24 -25 -27 -21 -4 2 12 -6 18 -26 21 -16 2 -37 8 -47 14 -24 13 -29 11 -23 -6 4 -8 1 -15 -5 -15 -6 0 -13 11 -17 25 -7 27 -34 35 -34 10z"/> <path d="M2385 2249 c-9 -13 32 -52 45 -44 19 12 10 25 -17 25 -27 1 -27 1 -9 15 17 13 17 15 4 15 -9 0 -20 -5 -23 -11z"/> <path d="M2730 2250 c0 -5 5 -10 11 -10 5 0 7 5 4 10 -3 6 -8 10 -11 10 -2 0 -4 -4 -4 -10z"/> <path d="M595 2240 c3 -5 8 -10 11 -10 2 0 4 5 4 10 0 6 -5 10 -11 10 -5 0 -7 -4 -4 -10z"/> <path d="M2290 2238 c0 -7 5 -20 10 -28 8 -12 10 -11 10 7 0 12 -4 25 -10 28 -5 3 -10 0 -10 -7z"/> <path d="M2455 2240 c-3 -5 -1 -10 4 -10 6 0 11 5 11 10 0 6 -2 10 -4 10 -3 0 -8 -4 -11 -10z"/> <path d="M2697 2243 c-7 -11 10 -40 18 -31 4 4 3 14 -3 24 -5 9 -12 12 -15 7z"/> <path d="M1020 2225 c0 -20 22 -65 32 -65 11 0 10 2 -7 44 -16 38 -25 46 -25 21z"/> <path d="M1118 2215 c-9 -21 -9 -29 4 -42 9 -8 21 -12 27 -9 16 10 13 29 -3 23 -22 -9 -26 3 -9 29 10 15 11 24 4 24 -6 0 -17 -11 -23 -25z"/> <path d="M2336 2233 c-5 -6 18 -33 28 -33 3 0 6 6 6 14 0 15 -24 28 -34 19z"/> <path d="M1081 2214 c0 -11 3 -14 6 -6 3 7 2 16 -1 19 -3 4 -6 -2 -5 -13z"/> <path d="M1321 2219 c0 -9 -11 -24 -23 -32 -19 -13 -20 -16 -5 -16 9 -1 17 4 17 11 0 9 3 9 12 0 16 -16 33 -16 20 1 -5 6 -12 21 -15 32 -3 14 -5 15 -6 4z"/> <path d="M1946 2223 c-6 -6 -19 -9 -63 -15 -8 -1 -10 -10 -6 -27 8 -34 13 -39 13 -14 0 12 7 23 15 27 11 4 15 -2 15 -24 0 -32 23 -60 48 -60 15 1 14 3 -2 15 -11 8 -23 15 -26 15 -4 0 -6 10 -4 23 1 12 3 25 3 30 1 4 10 7 21 7 11 0 20 7 20 15 0 15 -21 20 -34 8z"/> <path d="M2108 2219 c-8 -6 3 -9 31 -9 24 0 42 3 39 6 -10 10 -56 12 -70 3z"/> <path d="M2610 2219 c0 -5 5 -7 10 -4 6 3 10 8 10 11 0 2 -4 4 -10 4 -5 0 -10 -5 -10 -11z"/> <path d="M572 2200 c-41 -25 -58 -53 -76 -125 -25 -93 -21 -153 14 -221 16 -32 30 -62 30 -66 0 -15 -28 4 -40 28 -7 13 -22 24 -33 24 -16 0 -19 5 -13 31 4 22 2 29 -6 27 -7 -3 -19 2 -27 9 -23 24 -46 -8 -42 -58 2 -37 1 -40 -17 -35 -26 9 -34 -31 -16 -83 7 -20 11 -59 9 -87 -3 -48 20 -113 45 -129 5 -3 10 -15 10 -25 0 -11 18 -30 45 -47 26 -16 44 -36 45 -46 0 -35 62 -85 113 -92 31 -5 47 -12 47 -22 0 -9 8 -13 24 -11 27 3 76 -20 76 -36 0 -12 -81 -66 -99 -66 -6 0 -11 -4 -11 -9 0 -5 -11 -12 -25 -15 -35 -9 -105 -74 -122 -113 -15 -36 -17 -99 -4 -107 4 -3 11 -19 14 -35 5 -22 26 -44 84 -88 104 -78 166 -104 258 -108 51 -3 88 -9 104 -20 5 -3 13 0 16 5 12 19 57 32 65 19 5 -8 12 -8 26 0 11 6 30 16 44 21 14 6 52 25 85 43 47 26 65 43 84 79 25 50 24 91 -4 102 -13 4 -14 -1 -9 -34 4 -27 3 -40 -5 -40 -6 0 -11 -9 -11 -19 0 -22 -35 -51 -62 -51 -10 0 -18 -7 -18 -15 0 -8 -8 -15 -18 -15 -10 0 -23 -5 -30 -12 -9 -9 -15 -9 -24 0 -15 15 -28 15 -28 1 0 -5 4 -8 9 -4 5 3 12 1 16 -5 3 -6 -2 -13 -11 -17 -10 -4 -19 -2 -22 5 -2 8 -9 9 -22 2 -14 -7 -23 -6 -34 6 -15 14 -16 13 -16 -10 0 -18 -4 -24 -14 -20 -8 3 -23 1 -34 -5 -15 -8 -23 -7 -31 3 -7 8 -21 12 -31 9 -11 -3 -26 -1 -33 5 -7 6 -18 7 -26 3 -9 -6 -21 -1 -34 12 -19 19 -21 19 -27 3 -5 -16 -7 -16 -25 4 -10 11 -24 19 -29 17 -6 -3 -19 11 -28 29 -16 32 -16 33 2 39 11 4 20 10 20 15 0 5 -7 7 -16 3 -12 -4 -15 -1 -12 13 3 17 19 20 60 11 3 -1 6 1 7 6 1 4 -1 7 -5 6 -3 0 -16 7 -30 15 -22 15 -24 15 -24 0 0 -9 -7 -14 -17 -12 -10 2 -18 10 -18 18 0 18 -14 30 -35 30 -12 0 -12 -2 -1 -9 8 -5 11 -16 6 -30 -4 -12 -2 -21 4 -21 6 0 11 5 11 11 0 8 5 8 15 -1 17 -15 19 -43 5 -71 -9 -16 -14 -17 -32 -8 -13 7 -17 14 -10 18 7 4 8 12 2 21 -7 12 -12 12 -21 3 -26 -26 -55 36 -30 62 6 6 4 15 -5 23 -12 11 -14 10 -14 -3 0 -8 -4 -15 -10 -15 -13 0 -13 36 0 61 7 12 7 19 1 19 -6 0 -8 7 -5 15 4 8 12 15 20 15 8 0 14 7 14 15 0 8 6 12 14 9 10 -4 12 1 9 19 -4 19 2 27 30 40 19 9 45 18 57 20 13 2 28 11 35 20 7 9 20 17 29 17 18 0 47 23 46 37 0 4 7 16 15 26 20 24 19 30 -4 17 -13 -7 -22 -7 -26 0 -8 14 3 30 21 30 8 0 14 4 14 8 0 11 59 71 105 107 62 48 69 57 53 66 -10 7 -9 9 5 9 9 0 17 -7 17 -15 0 -8 2 -15 5 -15 12 0 55 24 55 32 0 4 6 8 13 8 7 0 30 9 51 20 47 23 57 19 49 -20 -3 -19 -1 -30 6 -30 6 0 11 -7 11 -17 0 -14 35 -98 63 -148 6 -11 17 -33 26 -50 8 -16 21 -36 28 -44 8 -7 12 -20 9 -27 -3 -8 -2 -13 2 -11 4 1 8 -2 9 -7 1 -5 6 -12 11 -15 6 -3 25 -24 42 -46 54 -68 124 -148 149 -169 14 -12 45 -40 70 -63 25 -24 50 -43 55 -43 5 0 17 -7 27 -16 10 -9 42 -29 71 -44 43 -23 53 -33 51 -52 -3 -21 -1 -21 10 -6 12 15 18 15 48 5 19 -7 40 -16 46 -20 7 -4 35 -11 63 -14 28 -3 52 -9 55 -13 2 -3 -3 -20 -11 -36 -9 -16 -15 -31 -15 -34 1 -3 -6 -13 -14 -23 -8 -9 -15 -24 -15 -31 0 -8 -9 -18 -20 -21 -11 -3 -20 -14 -20 -23 0 -10 -9 -25 -20 -35 -11 -9 -20 -24 -20 -33 0 -12 -6 -15 -21 -11 -14 4 -18 2 -12 -6 5 -7 15 -29 22 -50 11 -34 11 -40 -4 -51 -22 -16 -11 -61 12 -52 8 4 2 -9 -13 -28 -16 -19 -36 -45 -45 -58 -10 -13 -20 -20 -24 -16 -4 3 3 20 15 36 13 17 19 35 15 42 -5 8 -12 2 -21 -18 -10 -25 -17 -30 -36 -26 -21 5 -21 4 -5 -6 18 -11 18 -13 1 -31 -19 -21 -49 -26 -41 -6 5 14 -36 18 -49 4 -10 -10 -26 -9 -20 2 4 5 1 11 -5 13 -16 5 0 36 22 43 16 5 18 10 9 20 -7 8 -9 19 -5 25 4 6 1 9 -6 8 -18 -5 -22 19 -3 26 9 3 31 -3 49 -14 44 -27 53 -25 21 5 -30 28 -71 32 -100 10 -19 -14 -19 -15 2 -34 22 -18 29 -41 14 -41 -4 0 -13 5 -20 12 -14 14 -16 0 -3 -21 11 -16 -8 -41 -25 -34 -7 2 -15 -1 -19 -6 -3 -6 -11 -9 -16 -5 -5 3 -7 9 -5 13 3 4 -8 6 -23 3 -16 -2 -32 1 -35 7 -4 6 -1 11 6 11 9 0 9 3 -2 10 -8 5 -23 7 -33 4 -13 -4 -20 0 -24 15 -3 12 -10 21 -15 21 -5 0 -8 10 -6 22 2 11 -2 23 -9 25 -7 3 -9 -3 -6 -16 3 -12 1 -21 -6 -21 -6 0 -11 5 -11 10 0 6 -9 10 -19 10 -30 0 -33 15 -10 44 12 15 19 30 16 33 -9 8 -27 -7 -27 -23 0 -23 -20 -16 -30 10 -5 13 -14 27 -20 31 -5 3 -8 10 -5 15 3 5 -7 7 -22 6 -16 -2 -31 2 -35 8 -12 17 -9 26 6 20 8 -3 17 -1 21 5 3 6 -1 11 -9 11 -10 0 -16 9 -16 25 0 14 -4 25 -8 25 -10 0 11 140 23 161 5 8 8 22 7 31 -4 20 14 24 21 6 3 -7 6 -2 6 12 1 17 10 29 28 38 36 16 44 15 36 -5 -6 -16 -5 -16 10 -4 9 7 23 11 32 8 8 -4 17 -2 21 4 3 6 22 8 41 6 32 -5 37 -2 47 24 8 21 16 29 28 25 26 -6 22 11 -7 30 -14 9 -25 26 -26 38 0 11 -3 15 -6 9 -8 -22 -21 -14 -28 18 -4 17 -13 33 -21 36 -8 3 -11 10 -7 16 4 6 -3 8 -21 3 -22 -5 -29 -3 -33 13 -3 11 -12 19 -21 19 -10 0 -29 3 -44 7 -16 4 -28 4 -28 0 0 -12 34 -34 53 -35 9 0 17 -4 17 -10 0 -5 7 -10 15 -10 8 0 15 -5 15 -10 0 -6 22 -32 50 -59 28 -27 50 -56 50 -64 0 -17 -34 -32 -50 -22 -6 4 -17 2 -24 -4 -9 -7 -22 -8 -37 -3 -31 12 -86 -2 -114 -28 -34 -32 -58 -113 -59 -205 -1 -44 -5 -86 -9 -92 -5 -8 -4 -13 2 -13 6 0 11 -14 11 -31 0 -24 4 -30 15 -25 19 7 73 -39 77 -67 2 -11 18 -28 37 -38 18 -10 42 -26 52 -36 55 -54 110 -80 215 -98 109 -19 140 -19 185 3 93 45 120 101 100 208 l-12 65 48 62 c51 65 87 133 98 181 3 15 18 39 33 52 15 14 51 46 81 72 75 65 206 225 237 289 15 29 27 53 28 53 1 0 45 -13 96 -30 52 -16 96 -30 98 -30 1 0 2 10 2 21 0 23 148 766 181 907 21 91 25 152 9 136 -9 -9 -26 -75 -35 -134 -2 -14 -9 -47 -15 -75 -5 -27 -15 -81 -21 -120 -5 -38 -13 -77 -16 -85 -3 -8 -7 -24 -9 -35 -7 -44 -26 -132 -36 -166 -6 -20 -7 -43 -3 -49 5 -8 4 -11 -2 -7 -7 4 -13 -13 -16 -46 -6 -50 -22 -134 -47 -247 -13 -58 -29 -85 -37 -62 -3 6 -13 12 -22 12 -10 0 -32 7 -50 16 -17 9 -39 13 -48 9 -18 -6 -11 4 46 67 13 15 22 30 19 33 -7 7 -128 -114 -128 -129 -1 -53 -218 -303 -329 -381 l-43 -29 -67 17 c-168 44 -325 150 -486 328 -136 151 -252 362 -262 477 l-5 57 54 39 53 39 64 -34 c86 -45 92 -46 51 -9 -37 34 -100 70 -122 70 -8 0 -38 -23 -68 -51 -55 -52 -107 -82 -124 -72 -5 4 -6 1 -2 -5 9 -14 -70 -56 -91 -48 -11 4 -13 14 -8 36 l7 30 -112 0 c-120 0 -157 11 -178 52 -12 24 -62 284 -62 324 0 12 14 48 31 80 25 49 30 67 25 101 -5 41 -5 42 15 30 27 -16 72 -104 73 -141 1 -36 31 -58 49 -36 15 20 46 14 67 -13 20 -24 50 -17 50 12 0 16 -10 20 -63 25 -62 7 -97 19 -86 31 4 3 26 1 50 -4 72 -17 79 -15 79 22 0 17 -4 37 -8 44 -4 6 -41 19 -82 27 -41 9 -80 22 -85 29 -6 8 -21 18 -35 22 -14 4 -34 15 -45 25 -37 35 -69 40 -103 20z m88 -35 c35 -37 24 -94 -35 -191 -54 -87 -74 -114 -87 -114 -4 0 -8 6 -8 14 0 8 -4 16 -10 18 -18 6 -21 89 -4 116 9 13 11 21 5 18 -7 -5 -11 2 -11 18 0 14 5 26 11 26 5 0 7 4 4 10 -3 5 1 23 10 40 37 72 84 89 125 45z m205 -89 c30 -9 41 -18 43 -35 3 -21 1 -22 -27 -17 -17 3 -44 8 -60 11 -24 5 -51 37 -51 61 0 5 27 -1 95 -20z m-233 -235 c1 -14 2 -35 3 -46 1 -11 5 -29 8 -40 11 -32 15 -85 7 -85 -17 0 -83 94 -91 128 -7 31 -4 40 19 68 24 28 28 30 40 16 6 -9 13 -27 14 -41z m-187 -22 c4 -10 13 -19 21 -19 7 0 19 -9 26 -20 7 -11 21 -20 32 -20 18 0 32 -13 86 -80 13 -16 30 -30 36 -30 14 0 29 -37 25 -63 -1 -9 6 -20 16 -24 10 -4 23 -13 29 -21 6 -9 25 -15 43 -14 17 0 31 -4 31 -9 0 -5 7 -9 16 -9 8 0 12 5 9 10 -9 15 88 13 103 -2 9 -9 12 -9 12 0 0 20 27 14 33 -7 7 -27 -1 -32 -27 -19 -17 9 -19 8 -8 -3 6 -7 12 -23 12 -36 0 -13 -6 -23 -12 -23 -7 0 -30 -16 -50 -35 -20 -19 -41 -35 -47 -35 -6 0 -11 -3 -11 -8 0 -16 -52 -62 -71 -62 -12 0 -43 11 -71 25 -27 14 -62 25 -77 25 -28 0 -70 34 -58 47 4 4 -3 17 -15 31 -13 13 -23 27 -22 30 0 4 -8 16 -19 27 -10 11 -18 16 -17 10 5 -22 -1 -27 -15 -15 -8 7 -13 16 -10 20 2 4 -7 18 -20 30 -14 13 -25 31 -25 40 0 9 -3 20 -7 23 -3 4 -8 37 -10 73 -2 36 -8 74 -13 84 -6 10 -10 26 -10 36 0 13 3 14 14 5 17 -14 22 -8 31 42 6 30 10 35 21 26 7 -6 16 -19 19 -30z m1009 -945 c5 -14 4 -15 -9 -4 -17 14 -19 20 -6 20 5 0 12 -7 15 -16z"/> <path d="M598 2113 c7 -3 16 -2 19 1 4 3 -2 6 -13 5 -11 0 -14 -3 -6 -6z"/> <path d="M483 1730 c6 -16 15 -30 19 -30 5 0 2 14 -7 30 -9 17 -17 30 -19 30 -3 0 1 -13 7 -30z"/> <path d="M471 1685 c0 -19 45 -89 60 -93 10 -4 9 0 -3 15 -10 11 -18 24 -18 29 0 5 -9 20 -20 34 -11 14 -19 21 -19 15z"/> <path d="M600 1652 c0 -5 7 -15 15 -22 8 -7 15 -9 15 -6 0 4 -7 14 -15 22 -8 9 -15 11 -15 6z"/> <path d="M440 1628 c0 -21 18 -43 27 -34 4 5 3 11 -4 13 -7 2 -9 11 -6 19 3 8 0 14 -6 14 -6 0 -11 -6 -11 -12z"/> <path d="M456 1562 c-3 -2 4 -13 14 -25 22 -23 35 -18 26 11 -6 17 -29 25 -40 14z"/> <path d="M640 1535 c7 -9 15 -13 17 -11 7 7 -7 26 -19 26 -6 0 -6 -6 2 -15z"/> <path d="M540 1515 c0 -2 14 -11 30 -20 17 -9 30 -11 30 -6 0 6 -9 15 -19 21 -21 11 -41 13 -41 5z"/> <path d="M670 1508 c0 -7 11 -18 25 -25 28 -13 33 -2 9 21 -19 19 -34 21 -34 4z"/> <path d="M850 1510 c20 -13 33 -13 25 0 -3 6 -14 10 -23 10 -15 0 -15 -2 -2 -10z"/> <path d="M516 1485 c4 -8 11 -15 16 -15 6 0 5 6 -2 15 -7 8 -14 15 -16 15 -2 0 -1 -7 2 -15z"/> <path d="M805 1460 c3 -5 10 -10 16 -10 5 0 9 5 9 10 0 6 -7 10 -16 10 -8 0 -12 -4 -9 -10z"/> <path d="M738 1453 c7 -3 16 -2 19 1 4 3 -2 6 -13 5 -11 0 -14 -3 -6 -6z"/> <path d="M550 1440 c0 -5 5 -10 10 -10 6 0 10 5 10 10 0 6 -4 10 -10 10 -5 0 -10 -4 -10 -10z"/> <path d="M660 1430 c8 -5 20 -10 25 -10 6 0 3 5 -5 10 -8 5 -19 10 -25 10 -5 0 -3 -5 5 -10z"/> <path d="M577 1401 c23 -22 39 -28 28 -11 -3 5 -16 15 -28 21 l-22 11 22 -21z"/> <path d="M720 1410 c0 -5 7 -10 16 -10 8 0 12 5 9 10 -3 6 -10 10 -16 10 -5 0 -9 -4 -9 -10z"/> <path d="M620 1370 c0 -5 10 -10 23 -10 18 0 19 2 7 10 -19 13 -30 13 -30 0z"/> <path d="M686 1354 c-6 -15 -4 -15 11 -3 10 7 20 15 22 16 2 2 -3 3 -11 3 -9 0 -19 -7 -22 -16z"/> <path d="M740 1336 c0 -2 9 -6 20 -9 11 -3 18 -1 14 4 -5 9 -34 13 -34 5z"/> <path d="M1270 2209 c0 -5 5 -7 10 -4 6 3 10 8 10 11 0 2 -4 4 -10 4 -5 0 -10 -5 -10 -11z"/> <path d="M1830 2201 c0 -5 6 -14 14 -20 12 -10 13 -8 9 8 -5 21 -23 30 -23 12z"/> <path d="M1550 2187 c0 -21 12 -28 26 -16 9 7 16 4 28 -12 8 -13 19 -20 22 -16 4 4 1 13 -5 21 -7 8 -8 16 -4 19 9 6 45 -17 44 -27 -3 -26 1 -27 14 -2 12 22 13 32 4 40 -8 8 -13 7 -16 -2 -3 -6 -9 -10 -14 -6 -5 3 -30 7 -54 10 -33 3 -45 1 -45 -9z"/> <path d="M1713 2193 c-7 -2 -13 -9 -13 -15 0 -6 7 -7 16 -4 9 4 24 1 32 -6 13 -11 15 -10 9 5 -4 10 -7 21 -7 23 0 5 -21 4 -37 -3z"/> <path d="M1775 2190 c-3 -5 0 -10 8 -10 7 0 23 -9 36 -21 32 -30 39 -16 8 15 -28 28 -42 32 -52 16z"/> <path d="M2195 2190 c-3 -5 -1 -10 4 -10 6 0 11 5 11 10 0 6 -2 10 -4 10 -3 0 -8 -4 -11 -10z"/> <path d="M2930 2180 c0 -5 5 -10 10 -10 6 0 10 5 10 10 0 6 -4 10 -10 10 -5 0 -10 -4 -10 -10z"/> <path d="M1175 2170 c-3 -5 -1 -10 4 -10 6 0 11 5 11 10 0 6 -2 10 -4 10 -3 0 -8 -4 -11 -10z"/> <path d="M1208 2162 c-8 -9 -8 -13 -1 -9 6 4 25 -4 41 -18 17 -15 33 -21 37 -16 3 6 12 8 20 4 19 -7 19 11 1 26 -11 10 -16 8 -24 -5 -9 -16 -10 -16 -21 3 -15 28 -37 35 -53 15z"/> <path d="M2155 2170 c-3 -5 3 -18 14 -29 10 -10 21 -27 23 -37 3 -15 4 -15 15 -2 11 12 8 20 -17 46 -16 17 -32 27 -35 22z"/> <path d="M1990 2155 c-7 -9 -11 -18 -8 -20 3 -3 11 1 18 10 7 9 11 18 8 20 -3 3 -11 -1 -18 -10z"/> <path d="M2106 2159 c3 -5 12 -9 21 -9 19 0 9 13 -12 16 -8 1 -13 -2 -9 -7z"/> <path d="M2220 2158 c0 -14 8 -16 45 -14 47 4 64 11 51 23 -4 4 -11 1 -17 -7 -8 -13 -10 -13 -18 -1 -8 13 -12 13 -26 1 -14 -12 -18 -12 -26 1 -7 12 -9 11 -9 -3z"/> <path d="M1100 2154 c0 -7 9 -22 20 -35 25 -31 26 -12 0 21 -11 14 -20 20 -20 14z"/> <path d="M1450 2151 c0 -5 7 -14 15 -21 8 -7 12 -16 9 -21 -3 -5 1 -12 10 -15 8 -3 12 -12 9 -20 -3 -8 -1 -14 5 -14 5 0 12 13 14 29 2 17 2 30 -1 29 -20 -2 -29 4 -34 22 -5 20 -27 29 -27 11z"/> <path d="M1705 2150 c3 -5 15 -10 26 -10 11 0 17 5 14 10 -3 6 -15 10 -26 10 -11 0 -17 -4 -14 -10z"/> <path d="M1068 2143 c7 -3 16 -2 19 1 4 3 -2 6 -13 5 -11 0 -14 -3 -6 -6z"/> <path d="M1150 2141 c0 -5 7 -12 16 -15 13 -5 14 -9 4 -21 -14 -17 -3 -20 20 -5 13 8 11 12 -7 30 -24 22 -33 25 -33 11z"/> <path d="M1777 2119 c4 -15 8 -17 14 -8 8 14 3 29 -11 29 -4 0 -6 -9 -3 -21z"/> <path d="M2080 2124 c0 -14 3 -14 15 -4 8 7 15 14 15 16 0 2 -7 4 -15 4 -8 0 -15 -7 -15 -16z"/> <path d="M1738 2105 c2 -14 11 -25 18 -25 19 0 18 15 -2 34 -21 21 -22 20 -16 -9z"/> <path d="M1846 2121 c-9 -14 1 -31 19 -31 8 0 19 -8 25 -17 9 -15 10 -13 5 10 -3 17 -1 27 6 27 7 0 9 3 6 6 -4 4 -13 1 -21 -5 -11 -10 -16 -9 -24 5 -6 11 -11 13 -16 5z"/> <path d="M1046 2106 c3 -8 12 -17 20 -20 11 -4 12 -2 1 14 -14 23 -29 27 -21 6z"/> <path d="M1644 2105 c-9 -22 1 -29 15 -11 8 10 9 16 1 21 -5 3 -13 -1 -16 -10z"/> <path d="M1682 2108 c2 -6 10 -14 16 -16 7 -2 10 2 6 12 -7 18 -28 22 -22 4z"/> <path d="M2250 2101 c0 -22 16 -36 24 -22 8 12 -3 41 -15 41 -5 0 -9 -9 -9 -19z"/> <path d="M1211 2089 c-13 -10 -18 -19 -11 -19 7 0 19 -8 26 -17 13 -17 13 -17 14 0 0 9 -5 17 -11 17 -8 0 -7 5 1 15 19 23 8 26 -19 4z"/> <path d="M1596 2101 c-4 -7 -5 -15 -2 -18 9 -9 19 4 14 18 -4 11 -6 11 -12 0z"/> <path d="M2130 2094 c0 -8 5 -12 10 -9 6 3 10 10 10 16 0 5 -4 9 -10 9 -5 0 -10 -7 -10 -16z"/> <path d="M2328 2098 c9 -9 15 -9 24 0 9 9 7 12 -12 12 -19 0 -21 -3 -12 -12z"/> <path d="M1120 2072 c26 -35 30 -38 30 -19 0 6 -12 21 -27 31 l-26 19 23 -31z"/> <path d="M1538 2076 c-3 -15 -1 -29 3 -32 14 -8 22 23 11 42 -8 14 -10 13 -14 -10z"/> <path d="M1815 2090 c3 -5 8 -10 11 -10 2 0 4 5 4 10 0 6 -5 10 -11 10 -5 0 -7 -4 -4 -10z"/> <path d="M1996 2091 c-4 -7 -5 -15 -2 -18 9 -9 19 4 14 18 -4 11 -6 11 -12 0z"/> <path d="M2090 2092 c0 -6 -8 -13 -17 -15 -16 -4 -16 -5 -1 -6 18 -1 34 16 24 26 -3 4 -6 1 -6 -5z"/> <path d="M2160 2080 c-9 -6 -10 -10 -3 -10 6 0 15 5 18 10 8 12 4 12 -15 0z"/> <path d="M1251 2077 c2 -1 12 -9 22 -16 14 -12 17 -11 17 3 0 10 -8 16 -22 16 -12 0 -19 -1 -17 -3z"/> <path d="M1701 2061 c-12 -22 -5 -31 22 -31 18 0 18 -2 4 -22 -8 -13 -21 -22 -27 -20 -6 1 -9 -2 -5 -8 9 -14 54 21 55 43 0 9 -6 17 -14 17 -21 0 -31 21 -15 31 10 6 10 9 2 9 -7 0 -17 -8 -22 -19z"/> <path d="M1775 2070 c-4 -6 -3 -16 3 -22 6 -6 12 -6 17 2 4 6 3 16 -3 22 -6 6 -12 6 -17 -2z"/> <path d="M2025 2070 c-3 -5 1 -10 10 -10 9 0 13 5 10 10 -3 6 -8 10 -10 10 -2 0 -7 -4 -10 -10z"/> <path d="M1330 2055 c0 -8 5 -15 10 -15 6 0 10 7 10 15 0 8 -4 15 -10 15 -5 0 -10 -7 -10 -15z"/> <path d="M1570 2056 c0 -8 5 -18 11 -22 6 -3 9 -14 6 -23 -3 -14 1 -17 19 -13 26 5 33 22 9 22 -9 0 -20 11 -25 25 -11 28 -20 33 -20 11z"/> <path d="M1660 2060 c0 -5 5 -10 10 -10 6 0 10 5 10 10 0 6 -4 10 -10 10 -5 0 -10 -4 -10 -10z"/> <path d="M2436 2055 c4 -8 8 -15 10 -15 2 0 4 7 4 15 0 8 -4 15 -10 15 -5 0 -7 -7 -4 -15z"/> <path d="M1185 2043 c4 -15 1 -23 -12 -26 -14 -4 -13 -5 5 -6 24 -1 28 15 11 39 -8 12 -9 10 -4 -7z"/> <path d="M1840 2050 c0 -13 11 -13 30 0 12 8 11 10 -7 10 -13 0 -23 -4 -23 -10z"/> <path d="M2100 2050 c0 -5 5 -10 10 -10 6 0 10 5 10 10 0 6 -4 10 -10 10 -5 0 -10 -4 -10 -10z"/> <path d="M2270 2050 c0 -5 7 -10 16 -10 8 0 12 5 9 10 -3 6 -10 10 -16 10 -5 0 -9 -4 -9 -10z"/> <path d="M1385 2040 c3 -5 11 -10 16 -10 6 0 7 5 4 10 -3 6 -11 10 -16 10 -6 0 -7 -4 -4 -10z"/> <path d="M1476 2033 c-6 -14 -5 -15 5 -6 7 7 10 15 7 18 -3 3 -9 -2 -12 -12z"/> <path d="M2185 2040 c-3 -5 -1 -10 4 -10 6 0 11 5 11 10 0 6 -2 10 -4 10 -3 0 -8 -4 -11 -10z"/> <path d="M1080 2030 c0 -5 5 -10 11 -10 5 0 7 5 4 10 -3 6 -8 10 -11 10 -2 0 -4 -4 -4 -10z"/> <path d="M1260 2029 c0 -9 7 -22 15 -29 19 -16 19 0 0 26 -12 16 -14 16 -15 3z"/> <path d="M1806 2026 c3 -9 11 -16 16 -16 13 0 5 23 -10 28 -7 2 -10 -2 -6 -12z"/> <path d="M1900 2036 c0 -2 7 -7 16 -10 8 -3 12 -2 9 4 -6 10 -25 14 -25 6z"/> <path d="M1991 2017 c-5 -14 -15 -28 -21 -32 -11 -7 -5 -25 9 -25 9 0 33 72 26 78 -2 3 -9 -7 -14 -21z"/> <path d="M2131 2024 c0 -11 3 -14 6 -6 3 7 2 16 -1 19 -3 4 -6 -2 -5 -13z"/> <path d="M2220 2030 c0 -5 5 -10 11 -10 5 0 7 5 4 10 -3 6 -8 10 -11 10 -2 0 -4 -4 -4 -10z"/> <path d="M1115 2021 c-3 -5 -1 -12 5 -16 5 -3 10 1 10 9 0 18 -6 21 -15 7z"/> <path d="M1320 2011 c0 -25 6 -27 13 -6 4 8 2 17 -3 20 -6 4 -10 -3 -10 -14z"/> <path d="M1363 2008 c0 -13 1 -18 4 -11 3 8 11 5 24 -8 10 -10 25 -19 31 -19 7 0 -2 14 -20 30 -18 17 -34 30 -35 30 -2 0 -3 -10 -4 -22z"/> <path d="M1768 2002 c-3 -23 0 -32 14 -35 23 -6 35 11 14 19 -9 3 -14 9 -12 13 3 4 1 13 -3 20 -6 9 -10 3 -13 -17z"/> <path d="M1880 2022 c0 -5 7 -15 15 -22 8 -7 15 -8 15 -2 0 5 -7 15 -15 22 -8 7 -15 8 -15 2z"/> <path d="M1940 2020 c0 -5 7 -10 16 -10 8 0 12 5 9 10 -3 6 -10 10 -16 10 -5 0 -9 -4 -9 -10z"/> <path d="M1492 2011 c-14 -9 -7 -57 10 -67 16 -10 22 4 9 20 -7 8 -10 24 -6 36 7 22 6 23 -13 11z"/> <path d="M1660 2004 c0 -8 5 -12 10 -9 6 3 10 10 10 16 0 5 -4 9 -10 9 -5 0 -10 -7 -10 -16z"/> <path d="M2069 2013 c-10 -2 -19 -13 -22 -24 -6 -22 8 -26 17 -4 3 8 12 15 21 15 8 0 15 5 15 10 0 10 -4 11 -31 3z"/> <path d="M1520 2002 c0 -13 49 -52 54 -43 3 4 -6 18 -19 29 -27 24 -35 27 -35 14z"/> <path d="M1837 1988 c-3 -9 6 -14 27 -15 17 0 24 1 16 4 -8 3 -20 10 -26 15 -7 5 -14 4 -17 -4z"/> <path d="M2123 1980 c1 -11 5 -20 9 -20 11 0 10 28 -1 35 -6 3 -9 -4 -8 -15z"/> <path d="M1445 1980 c3 -5 8 -10 11 -10 2 0 4 5 4 10 0 6 -5 10 -11 10 -5 0 -7 -4 -4 -10z"/> <path d="M2320 1959 c-25 -17 -60 -37 -78 -46 -18 -9 -31 -17 -29 -20 7 -6 109 46 142 72 42 35 19 31 -35 -6z"/> <path d="M1605 1970 c-3 -5 1 -10 9 -10 9 0 16 -4 16 -10 0 -5 8 -10 17 -10 14 0 14 3 -5 20 -24 23 -28 24 -37 10z"/> <path d="M1712 1958 c-18 -18 -15 -23 15 -25 14 0 22 2 16 5 -5 4 -12 13 -14 20 -3 10 -7 10 -17 0z"/> <path d="M1440 1950 c0 -5 5 -10 11 -10 5 0 7 5 4 10 -3 6 -8 10 -11 10 -2 0 -4 -4 -4 -10z"/> <path d="M1370 1931 c0 -11 5 -23 10 -26 6 -4 10 5 10 19 0 14 -4 26 -10 26 -5 0 -10 -9 -10 -19z"/> <path d="M1770 1925 c0 -8 4 -15 10 -15 5 0 7 7 4 15 -4 8 -8 15 -10 15 -2 0 -4 -7 -4 -15z"/> <path d="M1828 1933 c7 -3 16 -2 19 1 4 3 -2 6 -13 5 -11 0 -14 -3 -6 -6z"/> <path d="M1870 1936 c0 -9 39 -13 51 -5 10 6 4 9 -18 9 -18 0 -33 -2 -33 -4z"/> <path d="M661 1914 c0 -11 3 -14 6 -6 3 7 2 16 -1 19 -3 4 -6 -2 -5 -13z"/> <path d="M1318 1893 c7 -3 16 -2 19 1 4 3 -2 6 -13 5 -11 0 -14 -3 -6 -6z"/> <path d="M2165 1883 c-11 -3 -24 -10 -30 -15 -7 -7 -2 -8 15 -3 52 15 64 30 15 18z"/> <path d="M677 1874 c-4 -4 -7 -14 -7 -23 0 -11 3 -12 11 -4 6 6 10 16 7 23 -2 6 -7 8 -11 4z"/> <path d="M1431 1856 c13 -14 116 -36 194 -41 79 -5 79 -5 -35 14 -63 11 -126 23 -140 27 -14 4 -22 4 -19 0z"/> <path d="M2088 1853 c7 -3 16 -2 19 1 4 3 -2 6 -13 5 -11 0 -14 -3 -6 -6z"/> <path d="M1082 1798 c13 -39 33 -65 24 -30 -15 55 -18 62 -26 62 -5 0 -4 -15 2 -32z"/> <path d="M1918 1823 c12 -2 32 -2 45 0 12 2 2 4 -23 4 -25 0 -35 -2 -22 -4z"/> <path d="M1748 1813 c23 -2 59 -2 80 0 20 2 1 4 -43 4 -44 0 -61 -2 -37 -4z"/> <path d="M680 1801 c0 -6 5 -13 10 -16 6 -3 10 1 10 9 0 9 -4 16 -10 16 -5 0 -10 -4 -10 -9z"/> <path d="M690 1761 c0 -5 4 -12 9 -15 4 -3 11 -23 15 -45 l6 -39 152 -6 c84 -4 179 -9 211 -12 54 -6 58 -8 64 -36 4 -20 9 -26 16 -19 7 7 2 27 -16 65 -15 30 -27 60 -27 65 0 6 -8 11 -18 11 -29 0 -343 29 -379 35 -19 4 -33 2 -33 -4z m227 -35 c1 -1 5 -14 8 -29 l7 -28 -88 7 c-96 7 -98 8 -109 41 -6 23 -6 23 87 17 51 -4 94 -7 95 -8z m146 -12 c34 -5 48 -12 53 -26 3 -11 4 -22 1 -24 -3 -3 -39 -2 -80 2 -69 6 -76 9 -80 30 -4 21 -1 24 28 24 18 0 53 -3 78 -6z"/> <path d="M848 1703 c7 -3 16 -2 19 1 4 3 -2 6 -13 5 -11 0 -14 -3 -6 -6z"/> <path d="M1008 1693 c6 -2 18 -2 25 0 6 3 1 5 -13 5 -14 0 -19 -2 -12 -5z"/> <path d="M1803 1705 c-40 -17 -67 -58 -67 -101 0 -24 -5 -36 -19 -40 -23 -7 -57 -62 -57 -92 0 -35 27 -80 59 -96 16 -9 31 -13 34 -9 4 3 11 -7 17 -23 16 -41 37 -61 77 -75 41 -13 76 -6 105 23 17 17 24 19 39 9 26 -15 71 -14 95 3 12 10 34 13 64 10 156 -17 209 200 64 262 -17 7 -40 11 -51 8 -15 -4 -25 3 -41 30 -25 42 -76 61 -123 44 -27 -9 -32 -8 -46 12 -17 23 -70 50 -100 50 -10 -1 -32 -7 -50 -15z m88 -20 c19 -8 45 -26 57 -39 19 -20 28 -24 42 -16 10 6 33 10 49 10 30 0 47 -13 83 -63 8 -11 27 -18 50 -19 21 -1 35 -5 32 -9 -3 -5 1 -6 9 -3 23 9 67 -56 67 -99 0 -21 -4 -37 -10 -37 -5 0 -7 -6 -4 -14 4 -9 -9 -24 -35 -41 -35 -24 -47 -26 -86 -21 -33 5 -51 3 -67 -8 -25 -18 -64 -21 -73 -6 -10 16 -35 12 -62 -10 -30 -23 -90 -27 -118 -7 -10 8 -25 29 -34 47 -9 18 -23 34 -32 36 -23 3 -69 34 -70 48 0 6 -2 20 -4 30 -5 28 22 75 51 88 17 8 23 17 19 29 -12 36 31 94 80 111 11 3 21 6 21 7 1 1 17 -6 35 -14z"/> <path d="M2610 1660 c0 -5 5 -10 11 -10 5 0 7 5 4 10 -3 6 -8 10 -11 10 -2 0 -4 -4 -4 -10z"/> <path d="M2585 1585 c-5 -33 -9 -66 -8 -72 0 -7 -3 -13 -8 -13 -5 0 -9 -12 -9 -26 0 -14 -10 -67 -21 -118 -15 -63 -19 -103 -14 -122 8 -27 9 -26 16 21 4 28 15 86 24 130 28 145 36 204 33 232 -3 20 -7 11 -13 -32z"/> <path d="M760 1620 c0 -5 5 -10 10 -10 6 0 10 5 10 10 0 6 -4 10 -10 10 -5 0 -10 -4 -10 -10z"/> <path d="M950 1616 c0 -18 19 -31 28 -21 4 4 1 10 -6 12 -6 3 -10 9 -6 14 3 5 0 9 -5 9 -6 0 -11 -6 -11 -14z"/> <path d="M1040 1610 c0 -5 5 -10 11 -10 5 0 7 5 4 10 -3 6 -8 10 -11 10 -2 0 -4 -4 -4 -10z"/> <path d="M1120 1611 c0 -6 4 -13 10 -16 6 -3 7 1 4 9 -7 18 -14 21 -14 7z"/> <path d="M1251 1538 c-2 -81 68 -233 174 -377 67 -92 218 -239 300 -292 77 -51 175 -103 181 -96 2 2 -24 19 -58 37 -161 83 -348 257 -458 425 -86 131 -89 138 -115 247 -17 70 -23 84 -24 56z"/> <path d="M2464 1481 c-4 -22 -10 -41 -14 -41 -3 0 -7 -7 -7 -15 0 -8 4 -15 8 -15 9 0 32 101 25 108 -3 2 -8 -14 -12 -37z"/> <path d="M1095 1431 c22 -4 47 -10 55 -15 8 -4 6 0 -4 8 -11 9 -36 15 -55 15 l-36 -2 40 -6z"/> <path d="M1034 1405 c-10 -8 -14 -14 -9 -15 15 0 40 18 34 24 -3 3 -14 -1 -25 -9z"/> <path d="M1091 1397 c2 -1 14 -11 27 -21 12 -11 22 -16 22 -13 0 10 -31 37 -42 37 -6 0 -9 -1 -7 -3z"/> <path d="M960 1380 c0 -5 4 -10 9 -10 6 0 13 5 16 10 3 6 -1 10 -9 10 -9 0 -16 -4 -16 -10z"/> <path d="M1035 1360 c4 -6 11 -8 16 -5 14 9 11 15 -7 15 -8 0 -12 -5 -9 -10z"/> <path d="M1067 1350 c-13 -15 -15 -25 -8 -38 9 -15 10 -14 11 6 0 12 4 22 9 22 5 0 11 7 15 15 8 21 -7 19 -27 -5z"/> <path d="M901 1341 c-9 -6 -3 -10 20 -14 39 -5 50 0 29 13 -19 12 -31 12 -49 1z"/> <path d="M1130 1325 c-7 -9 -19 -14 -27 -11 -25 10 -13 -10 17 -27 16 -10 44 -36 62 -58 17 -21 36 -39 41 -39 5 0 4 7 -4 16 -10 13 -10 17 2 25 11 8 10 9 -6 7 -31 -5 -68 39 -61 73 6 32 -4 38 -24 14z"/> <path d="M860 1315 c0 -8 -9 -19 -21 -25 -11 -7 -18 -14 -15 -17 3 -4 15 2 27 12 17 16 22 17 29 5 5 -8 13 -11 17 -6 4 5 2 11 -4 13 -7 3 -13 11 -13 19 0 8 -4 14 -10 14 -5 0 -10 -7 -10 -15z"/> <path d="M971 1306 c-13 -14 -18 -26 -12 -30 5 -4 18 5 27 19 9 14 19 25 23 25 12 0 61 -91 61 -115 0 -14 5 -25 11 -25 5 0 9 8 7 18 -1 9 1 22 5 29 4 7 0 17 -10 25 -10 7 -26 27 -35 43 -21 38 -48 42 -77 11z"/> <path d="M1180 1316 c0 -2 7 -7 16 -10 8 -3 12 -2 9 4 -6 10 -25 14 -25 6z"/> <path d="M2416 1305 c-3 -9 -6 -22 -5 -28 0 -7 5 -1 10 12 5 13 8 26 5 28 -2 2 -6 -3 -10 -12z"/> <path d="M1010 1282 c0 -6 -16 -16 -35 -23 -20 -8 -31 -17 -26 -22 10 -10 41 4 61 28 7 8 10 18 6 22 -3 3 -6 1 -6 -5z"/> <path d="M860 1259 c0 -5 5 -7 10 -4 6 3 10 8 10 11 0 2 -4 4 -10 4 -5 0 -10 -5 -10 -11z"/> <path d="M2398 1235 c-3 -14 -1 -25 3 -25 5 0 9 11 9 25 0 14 -2 25 -4 25 -2 0 -6 -11 -8 -25z"/> <path d="M830 1240 c0 -5 5 -10 10 -10 6 0 10 5 10 10 0 6 -4 10 -10 10 -5 0 -10 -4 -10 -10z"/> <path d="M896 1241 c-4 -5 3 -7 14 -4 23 6 26 13 6 13 -8 0 -17 -4 -20 -9z"/> <path d="M1115 1240 c3 -5 10 -10 16 -10 5 0 9 5 9 10 0 6 -7 10 -16 10 -8 0 -12 -4 -9 -10z"/> <path d="M1005 1230 c-3 -5 -1 -10 4 -10 6 0 11 5 11 10 0 6 -2 10 -4 10 -3 0 -8 -4 -11 -10z"/> <path d="M940 1210 c0 -5 5 -10 10 -10 6 0 10 5 10 10 0 6 -4 10 -10 10 -5 0 -10 -4 -10 -10z"/> <path d="M830 1200 c0 -5 5 -10 10 -10 6 0 10 5 10 10 0 6 -4 10 -10 10 -5 0 -10 -4 -10 -10z"/> <path d="M1141 1201 c-9 -6 -6 -10 10 -14 28 -8 34 -3 16 11 -7 6 -19 7 -26 3z"/> <path d="M1000 1189 c0 -5 5 -7 10 -4 6 3 10 8 10 11 0 2 -4 4 -10 4 -5 0 -10 -5 -10 -11z"/> <path d="M2380 1188 c0 -7 -3 -24 -6 -38 -4 -18 -3 -21 4 -10 17 27 24 60 13 60 -6 0 -11 -6 -11 -12z"/> <path d="M908 1183 c17 -3 21 -9 17 -23 -8 -24 9 -34 25 -15 9 10 9 15 1 15 -6 0 -11 7 -11 15 0 10 -9 15 -27 14 -25 -2 -25 -2 -5 -6z"/> <path d="M781 1154 c-11 -14 -25 -23 -30 -20 -6 4 -9 -5 -8 -21 2 -19 9 -29 22 -31 15 -2 17 -1 6 6 -11 8 -10 15 8 41 22 31 41 40 41 21 0 -5 5 -10 10 -10 16 0 11 14 -9 27 -17 11 -23 9 -40 -13z"/> <path d="M973 1168 c-2 -5 2 -9 9 -9 51 -5 78 -3 75 6 -4 11 -77 14 -84 3z"/> <path d="M1105 1170 c3 -5 14 -10 23 -10 15 0 15 2 2 10 -20 13 -33 13 -25 0z"/> <path d="M856 1144 c-4 -15 -5 -29 -1 -32 3 -3 5 1 5 8 0 7 7 22 17 32 14 16 14 18 1 18 -9 0 -19 -12 -22 -26z"/> <path d="M1145 1150 c-3 -5 -1 -10 4 -10 6 0 11 5 11 10 0 6 -2 10 -4 10 -3 0 -8 -4 -11 -10z"/> <path d="M1200 1155 c0 -14 38 -46 44 -36 4 5 13 8 21 4 8 -3 15 0 15 6 0 6 -13 11 -30 11 -16 0 -30 5 -30 10 0 6 -4 10 -10 10 -5 0 -10 -2 -10 -5z"/> <path d="M880 1114 c-8 -14 -27 -35 -43 -46 -23 -17 -27 -25 -22 -49 9 -40 -3 -55 -24 -30 -10 11 -21 18 -25 14 -10 -11 -7 -23 7 -23 8 0 21 -8 30 -18 13 -15 14 -21 4 -31 -9 -10 -8 -11 6 -5 14 5 17 13 12 31 -4 19 0 27 24 41 17 9 35 27 40 39 13 28 0 30 -17 3 -13 -21 -42 -28 -42 -10 0 6 18 27 40 49 22 21 40 44 40 50 0 20 -16 12 -30 -15z"/> <path d="M1090 1100 c-8 -30 -8 -46 -1 -53 16 -16 26 0 11 18 -7 8 -8 15 -2 15 13 0 21 35 12 51 -6 8 -12 -2 -20 -31z"/> <path d="M1175 1121 c-3 -5 -1 -12 5 -16 5 -3 10 1 10 9 0 18 -6 21 -15 7z"/> <path d="M650 1110 c0 -5 5 -10 10 -10 6 0 10 5 10 10 0 6 -4 10 -10 10 -5 0 -10 -4 -10 -10z"/> <path d="M809 1104 c-13 -16 -23 -54 -14 -54 7 0 37 61 32 66 -2 3 -10 -3 -18 -12z"/> <path d="M935 1110 c-3 -5 -1 -10 4 -10 6 0 11 5 11 10 0 6 -2 10 -4 10 -3 0 -8 -4 -11 -10z"/> <path d="M966 1095 c-4 -11 2 -15 22 -15 32 0 60 16 49 27 -4 4 -17 2 -27 -5 -12 -7 -20 -8 -20 -2 0 15 -17 12 -24 -5z"/> <path d="M1140 1090 c0 -5 5 -10 10 -10 6 0 10 5 10 10 0 6 -4 10 -10 10 -5 0 -10 -4 -10 -10z"/> <path d="M1255 1083 c-25 -14 -27 -18 -12 -21 10 -2 27 3 36 12 10 9 25 14 35 10 9 -3 16 -1 16 5 0 16 -40 13 -75 -6z"/> <path d="M610 1076 c0 -8 9 -16 19 -19 13 -3 18 -1 14 8 -7 19 -33 27 -33 11z"/> <path d="M675 1080 c-3 -5 -1 -10 4 -10 6 0 11 5 11 10 0 6 -2 10 -4 10 -3 0 -8 -4 -11 -10z"/> <path d="M1045 1080 c-3 -5 -1 -10 4 -10 6 0 11 5 11 10 0 6 -2 10 -4 10 -3 0 -8 -4 -11 -10z"/> <path d="M721 1030 c-24 -46 -25 -50 -11 -50 6 0 10 9 10 21 0 14 5 19 14 16 9 -4 16 3 19 19 7 40 -10 37 -32 -6z"/> <path d="M930 1060 c0 -5 5 -10 10 -10 6 0 10 5 10 10 0 6 -4 10 -10 10 -5 0 -10 -4 -10 -10z"/> <path d="M1155 1060 c-8 -13 5 -13 25 0 13 8 13 10 -2 10 -9 0 -20 -4 -23 -10z"/> <path d="M2620 1054 c-10 -11 -9 -14 6 -15 11 0 45 -4 77 -8 44 -5 57 -4 57 6 0 7 -10 13 -22 14 -46 2 -75 6 -91 12 -8 3 -21 -1 -27 -9z"/> <path d="M1348 1053 c7 -3 16 -2 19 1 4 3 -2 6 -13 5 -11 0 -14 -3 -6 -6z"/> <path d="M1034 1035 c-17 -13 -17 -14 -2 -15 9 0 20 5 23 11 11 17 0 20 -21 4z"/> <path d="M1273 1043 c-7 -2 -13 -12 -12 -21 0 -11 2 -12 6 -4 2 6 11 12 19 12 8 0 14 5 14 10 0 11 -7 12 -27 3z"/> <path d="M785 1030 c-3 -5 -1 -10 4 -10 6 0 11 5 11 10 0 6 -2 10 -4 10 -3 0 -8 -4 -11 -10z"/> <path d="M1227 1033 c-4 -3 -7 -11 -7 -17 0 -6 5 -5 12 2 6 6 9 14 7 17 -3 3 -9 2 -12 -2z"/> <path d="M600 1021 c0 -23 53 -29 78 -9 19 16 8 20 -21 9 -17 -7 -28 -7 -32 -1 -8 12 -25 13 -25 1z"/> <path d="M900 1022 c0 -4 13 -13 30 -19 23 -9 32 -8 41 3 7 8 9 18 5 21 -4 4 -10 2 -14 -4 -5 -8 -13 -9 -22 -3 -18 12 -40 13 -40 2z"/> <path d="M1137 1010 c-9 -11 -13 -20 -8 -20 11 0 35 29 29 35 -2 2 -12 -4 -21 -15z"/> <path d="M1185 1021 c-3 -5 -1 -12 5 -16 5 -3 10 1 10 9 0 18 -6 21 -15 7z"/> <path d="M1313 1017 c2 -7 12 -11 22 -9 10 2 21 -2 26 -9 9 -15 49 -23 49 -10 0 5 -8 11 -17 14 -10 3 -33 10 -51 16 -25 7 -32 7 -29 -2z"/> <path d="M1010 1006 c0 -2 7 -9 15 -16 12 -10 15 -10 15 4 0 9 -7 16 -15 16 -8 0 -15 -2 -15 -4z"/> <path d="M550 980 c-12 -23 2 -27 19 -6 8 9 8 16 2 20 -6 4 -15 -3 -21 -14z"/> <path d="M880 994 c0 -5 7 -19 15 -31 10 -14 11 -23 4 -25 -7 -2 -5 -9 5 -17 14 -12 16 -10 16 13 0 15 -9 36 -20 48 -11 12 -20 17 -20 12z"/> <path d="M980 990 c0 -5 5 -10 10 -10 6 0 10 5 10 10 0 6 -4 10 -10 10 -5 0 -10 -4 -10 -10z"/> <path d="M1162 978 c-14 -14 -16 -28 -2 -28 5 0 14 9 20 20 12 22 1 27 -18 8z"/> <path d="M585 959 c-4 -6 -5 -12 -2 -15 2 -3 7 2 10 11 7 17 1 20 -8 4z"/> <path d="M630 960 c0 -5 8 -11 18 -11 9 -1 22 -2 27 -4 6 -1 18 -3 28 -3 9 -1 17 -9 17 -17 0 -14 3 -14 30 0 17 9 30 20 30 25 0 14 -6 12 -25 -6 -15 -15 -17 -15 -34 0 -22 20 -91 32 -91 16z"/> <path d="M982 958 c-14 -14 -16 -42 -2 -33 14 9 32 45 22 45 -4 0 -13 -5 -20 -12z"/> <path d="M1231 958 c-1 -11 -8 -15 -23 -12 -21 4 -21 4 -3 -5 23 -10 40 1 32 21 -4 9 -6 8 -6 -4z"/> <path d="M1418 963 c7 -3 16 -2 19 1 4 3 -2 6 -13 5 -11 0 -14 -3 -6 -6z"/> <path d="M1076 944 c-5 -12 -2 -15 10 -10 8 3 22 6 30 6 8 0 14 5 14 10 0 17 -47 11 -54 -6z"/> <path d="M1020 940 c0 -5 5 -10 10 -10 6 0 10 5 10 10 0 6 -4 10 -10 10 -5 0 -10 -4 -10 -10z"/> <path d="M855 906 c11 -8 24 -12 28 -9 11 7 -12 23 -32 23 -11 0 -9 -4 4 -14z"/> <path d="M765 899 c-4 -6 -5 -12 -2 -15 2 -3 7 2 10 11 7 17 1 20 -8 4z"/> <path d="M1010 901 c0 -5 5 -13 10 -16 6 -3 10 -2 10 4 0 5 -4 13 -10 16 -5 3 -10 2 -10 -4z"/> <path d="M827 880 c7 -25 19 -34 28 -20 3 6 0 17 -9 25 -20 20 -25 19 -19 -5z"/> <path d="M950 881 c-13 -25 -13 -28 5 -28 8 0 12 4 9 9 -3 5 0 15 6 23 8 10 9 15 2 15 -6 0 -16 -9 -22 -19z"/> <path d="M1050 896 c0 -2 6 -9 13 -15 10 -8 14 -7 14 4 0 8 -6 15 -14 15 -7 0 -13 -2 -13 -4z"/> <path d="M866 856 c-3 -13 -14 -27 -24 -30 -10 -3 -8 -4 7 -3 29 2 51 31 35 47 -8 8 -13 5 -18 -14z"/> <path d="M1204 864 c4 -9 1 -23 -5 -30 -10 -12 -9 -13 5 -8 18 7 22 54 5 54 -6 0 -8 -7 -5 -16z"/> <path d="M1505 870 c3 -5 8 -10 11 -10 2 0 4 5 4 10 0 6 -5 10 -11 10 -5 0 -7 -4 -4 -10z"/> <path d="M786 855 c-3 -8 -1 -15 4 -15 6 0 10 7 10 15 0 8 -2 15 -4 15 -2 0 -6 -7 -10 -15z"/> <path d="M1110 850 c-11 -7 -12 -12 -4 -20 8 -8 13 -6 17 9 3 12 4 21 4 21 -1 0 -9 -5 -17 -10z"/> <path d="M735 840 c3 -5 10 -10 16 -10 5 0 9 5 9 10 0 6 -7 10 -16 10 -8 0 -12 -4 -9 -10z"/> <path d="M905 840 c-3 -5 -1 -10 4 -10 6 0 11 5 11 10 0 6 -2 10 -4 10 -3 0 -8 -4 -11 -10z"/> <path d="M980 839 c0 -5 5 -7 10 -4 6 3 10 8 10 11 0 2 -4 4 -10 4 -5 0 -10 -5 -10 -11z"/> <path d="M1136 824 c-4 -10 -1 -14 6 -12 15 5 23 28 10 28 -5 0 -13 -7 -16 -16z"/> <path d="M770 819 c0 -5 5 -7 10 -4 6 3 10 8 10 11 0 2 -4 4 -10 4 -5 0 -10 -5 -10 -11z"/> <path d="M930 814 c-16 -18 -21 -54 -8 -54 4 0 8 8 8 18 0 10 5 23 12 30 6 6 9 14 6 17 -3 3 -11 -2 -18 -11z"/> <path d="M1035 819 c-18 -7 -17 -8 6 -8 14 -1 30 -6 37 -13 7 -7 12 -8 12 -2 0 17 -34 31 -55 23z"/> <path d="M987 813 c-4 -3 -7 -13 -7 -22 1 -13 3 -13 11 2 11 19 8 33 -4 20z"/> <path d="M730 800 c0 -13 18 -22 24 -11 3 5 -1 11 -9 15 -8 3 -15 1 -15 -4z"/> <path d="M830 800 c0 -5 5 -10 10 -10 6 0 10 5 10 10 0 6 -4 10 -10 10 -5 0 -10 -4 -10 -10z"/> <path d="M805 779 c-10 -15 3 -25 16 -12 7 7 7 13 1 17 -6 3 -14 1 -17 -5z"/> <path d="M1590 783 c0 -5 5 -15 10 -23 8 -12 10 -11 10 8 0 12 -4 22 -10 22 -5 0 -10 -3 -10 -7z"/> <path d="M1010 770 c0 -5 7 -7 15 -4 8 4 15 8 15 10 0 2 -7 4 -15 4 -8 0 -15 -4 -15 -10z"/> <path d="M946 755 c4 -8 10 -12 15 -9 14 8 10 24 -6 24 -9 0 -12 -6 -9 -15z"/> <path d="M870 750 c0 -5 7 -10 15 -10 8 0 15 5 15 10 0 6 -7 10 -15 10 -8 0 -15 -4 -15 -10z"/> <path d="M1670 728 c0 -5 7 -11 15 -14 8 -4 12 -11 8 -18 -3 -6 -2 -8 2 -3 16 14 12 43 -7 43 -10 0 -18 -4 -18 -8z"/> <path d="M1570 710 c0 -11 4 -20 9 -20 5 0 7 9 4 20 -3 11 -7 20 -9 20 -2 0 -4 -9 -4 -20z"/> <path d="M1628 713 c6 -2 12 -11 12 -19 0 -9 4 -13 10 -9 14 9 0 35 -19 34 -10 0 -11 -2 -3 -6z"/> <path d="M1706 664 c-4 -9 -4 -19 -2 -21 8 -8 26 8 26 23 0 19 -16 18 -24 -2z"/> <path d="M1336 654 c-9 -24 -2 -26 12 -4 7 11 8 20 3 20 -5 0 -12 -7 -15 -16z"/> <path d="M1395 650 c-3 -5 -1 -10 4 -10 6 0 11 5 11 10 0 6 -2 10 -4 10 -3 0 -8 -4 -11 -10z"/> <path d="M1784 638 c6 -10 15 -18 20 -18 4 0 3 6 -3 14 -9 11 -9 15 1 19 7 3 3 5 -8 4 -18 -1 -20 -4 -10 -19z"/> <path d="M1503 643 c-15 -5 -17 -23 -4 -23 5 0 11 7 15 15 3 8 4 15 3 14 -1 0 -8 -3 -14 -6z"/> <path d="M1545 640 c3 -5 8 -10 11 -10 2 0 4 5 4 10 0 6 -5 10 -11 10 -5 0 -7 -4 -4 -10z"/> <path d="M1632 641 c4 -13 18 -16 19 -4 0 4 -5 9 -11 12 -7 2 -11 -2 -8 -8z"/> <path d="M1607 624 c3 -7 0 -14 -6 -14 -6 0 -11 -7 -11 -15 0 -8 5 -15 10 -15 6 0 10 7 10 15 0 8 5 15 10 15 15 0 12 17 -4 23 -10 4 -13 1 -9 -9z"/> <path d="M1980 632 c0 -7 -7 -12 -15 -12 -8 0 -15 -7 -15 -15 0 -8 4 -15 10 -15 12 0 34 40 26 48 -3 3 -6 0 -6 -6z"/> <path d="M1680 621 c0 -6 11 -18 24 -26 13 -9 27 -27 30 -41 4 -13 11 -24 16 -24 6 0 4 12 -4 28 -18 32 -66 79 -66 63z"/> <path d="M1868 625 c-9 -9 24 -63 51 -81 19 -14 21 -13 21 4 0 12 -9 22 -23 26 -13 3 -27 17 -32 32 -6 14 -13 23 -17 19z"/> <path d="M1400 600 c0 -5 5 -10 11 -10 5 0 7 5 4 10 -3 6 -8 10 -11 10 -2 0 -4 -4 -4 -10z"/> <path d="M1760 594 c0 -8 5 -12 10 -9 6 3 10 -1 10 -10 0 -9 4 -13 10 -10 6 4 5 13 -3 25 -14 24 -27 26 -27 4z"/> <path d="M1524 589 c-3 -6 -2 -15 4 -21 6 -6 11 -2 15 11 5 22 -7 29 -19 10z"/> <path d="M1362 550 c-27 -22 -30 -29 -17 -33 11 -5 14 -14 9 -32 -5 -19 -2 -25 11 -25 14 0 15 3 5 15 -10 12 -9 16 4 21 9 3 16 10 16 15 0 4 -7 6 -15 3 -24 -9 -18 23 7 40 12 9 20 17 17 20 -2 2 -19 -8 -37 -24z"/> <path d="M1465 550 c-3 -5 -2 -10 4 -10 5 0 13 5 16 10 3 6 2 10 -4 10 -5 0 -13 -4 -16 -10z"/> <path d="M1567 533 c-3 -16 0 -31 5 -35 11 -6 -37 -58 -53 -58 -5 0 -9 -4 -9 -10 0 -16 14 -12 42 15 18 16 33 23 45 18 14 -5 16 -3 6 7 -6 7 -9 19 -6 26 3 8 0 14 -7 14 -8 0 -11 9 -8 25 3 14 2 25 -2 25 -4 0 -10 -12 -13 -27z"/> <path d="M1289 548 c-7 -25 -7 -48 1 -48 6 0 10 11 10 25 0 20 -7 35 -11 23z"/> <path d="M1513 543 c-16 -6 -17 -43 -1 -43 6 0 8 3 5 7 -4 3 0 15 10 25 16 18 11 22 -14 11z"/> <path d="M1635 531 c-3 -5 1 -11 7 -14 16 -5 48 3 48 12 0 10 -48 12 -55 2z"/> <path d="M1770 525 c-7 -8 -8 -15 -2 -15 5 0 15 7 22 15 7 8 8 15 2 15 -5 0 -15 -7 -22 -15z"/> <path d="M1885 531 c-3 -5 -1 -12 5 -16 5 -3 10 1 10 9 0 18 -6 21 -15 7z"/> <path d="M1433 495 c-17 -36 -17 -37 1 -51 20 -14 46 -3 46 20 0 6 -4 5 -9 -3 -5 -8 -16 -11 -24 -8 -14 5 -14 9 0 37 8 17 13 34 9 37 -3 3 -13 -11 -23 -32z"/> <path d="M1830 505 c0 -14 5 -25 10 -25 6 0 10 11 10 25 0 14 -4 25 -10 25 -5 0 -10 -11 -10 -25z"/> <path d="M1255 490 c3 -5 8 -10 11 -10 2 0 4 5 4 10 0 6 -5 10 -11 10 -5 0 -7 -4 -4 -10z"/> <path d="M1803 466 c12 -18 26 -31 30 -29 5 3 1 13 -7 22 -9 10 -16 23 -16 29 0 7 -7 12 -15 12 -11 0 -9 -8 8 -34z"/> <path d="M1737 484 c-4 -4 -7 -14 -7 -23 0 -11 3 -12 11 -4 6 6 10 16 7 23 -2 6 -7 8 -11 4z"/> <path d="M1495 470 c3 -5 11 -10 16 -10 6 0 7 5 4 10 -3 6 -11 10 -16 10 -6 0 -7 -4 -4 -10z"/> <path d="M1625 470 c3 -5 11 -10 16 -10 6 0 7 5 4 10 -3 6 -11 10 -16 10 -6 0 -7 -4 -4 -10z"/> <path d="M1855 469 c-10 -15 3 -25 16 -12 7 7 7 13 1 17 -6 3 -14 1 -17 -5z"/> <path d="M1270 459 c0 -8 9 -20 20 -27 11 -7 20 -8 20 -4 0 5 -9 17 -20 27 -15 14 -20 15 -20 4z"/> <path d="M1691 455 c0 -11 4 -27 9 -35 9 -13 10 -13 9 0 0 8 -4 24 -9 35 -9 20 -9 20 -9 0z"/> <path d="M1756 445 c-20 -31 -20 -31 19 -40 27 -6 28 -5 10 6 -30 18 -31 19 -16 28 7 5 12 14 9 21 -2 8 -11 2 -22 -15z"/> <path d="M1335 440 c3 -5 8 -10 11 -10 2 0 4 5 4 10 0 6 -5 10 -11 10 -5 0 -7 -4 -4 -10z"/> <path d="M1596 432 c-3 -6 -1 -14 5 -17 14 -9 20 -2 10 14 -6 8 -11 9 -15 3z"/> <path d="M1645 430 c-3 -5 -1 -10 4 -10 6 0 11 5 11 10 0 6 -2 10 -4 10 -3 0 -8 -4 -11 -10z"/> <path d="M1397 415 c-4 -10 -1 -15 11 -15 10 0 23 -5 30 -12 17 -17 15 -39 -3 -32 -9 4 -19 -3 -26 -20 -7 -14 -16 -26 -21 -26 -5 0 -6 -5 -3 -10 4 -7 14 -3 26 11 10 12 16 26 13 31 -4 6 2 7 15 3 16 -5 21 -2 21 12 0 21 -7 31 -36 56 -19 16 -22 16 -27 2z"/> <path d="M1470 410 c0 -5 4 -10 9 -10 6 0 13 5 16 10 3 6 -1 10 -9 10 -9 0 -16 -4 -16 -10z"/> <path d="M1367 380 c-3 -11 -2 -20 3 -20 12 0 21 28 11 35 -5 2 -11 -4 -14 -15z"/> <path d="M1710 385 c-17 -21 -9 -27 13 -10 10 7 14 16 9 19 -5 3 -15 -1 -22 -9z"/> <path d="M1762 375 c15 -16 20 -17 30 -6 11 11 10 13 0 7 -7 -4 -21 -2 -30 5 -15 12 -15 11 0 -6z"/> <path d="M1498 352 c-16 -15 -28 -31 -28 -36 0 -5 12 3 26 18 15 14 35 26 46 26 11 0 16 5 13 10 -10 16 -28 11 -57 -18z"/> <path d="M1585 370 c-8 -13 5 -13 25 0 13 8 13 10 -2 10 -9 0 -20 -4 -23 -10z"/> <path d="M1640 371 c0 -5 9 -11 19 -14 14 -3 18 -1 14 9 -6 15 -33 19 -33 5z"/> <path d="M1533 338 c-26 -13 -30 -28 -8 -28 8 0 15 5 15 11 0 8 4 8 14 0 12 -10 13 -8 9 8 -3 12 -6 21 -7 20 0 0 -11 -5 -23 -11z"/> <path d="M1706 334 c-10 -25 1 -29 14 -5 6 12 7 21 1 21 -5 0 -12 -7 -15 -16z"/> <path d="M1620 333 c0 -4 5 -15 10 -23 8 -13 10 -13 10 2 0 9 -4 20 -10 23 -5 3 -10 3 -10 -2z"/> <path d="M1747 323 c-12 -11 -8 -35 5 -27 7 5 9 1 6 -12 -4 -15 0 -19 16 -19 12 1 22 4 24 8 1 4 -1 7 -4 6 -4 0 -14 11 -24 25 -9 15 -20 23 -23 19z"/> <path d="M1800 325 c0 -1 6 -8 14 -14 10 -8 16 -8 25 3 9 11 7 14 -14 14 -14 0 -25 -2 -25 -3z"/> <path d="M1483 293 c4 -3 0 -11 -8 -17 -9 -7 -12 -19 -9 -33 7 -26 19 -30 28 -8 3 10 -1 15 -12 15 -14 1 -13 4 6 19 26 23 28 31 5 31 -9 0 -13 -3 -10 -7z"/> <path d="M1586 284 c-5 -14 -4 -15 9 -4 17 14 19 20 6 20 -5 0 -12 -7 -15 -16z"/> <path d="M1536 271 c-16 -17 -15 -19 13 -31 17 -6 36 -10 43 -7 7 3 3 6 -8 6 -27 1 -51 27 -32 34 7 2 10 7 7 11 -3 3 -13 -2 -23 -13z"/> <path d="M1700 221 c0 -5 -3 -16 -6 -25 -4 -11 -1 -16 10 -16 9 0 16 7 16 16 0 10 6 14 14 11 10 -4 13 -1 9 9 -6 15 -43 20 -43 5z"/> <path d="M1535 200 c4 -6 11 -8 16 -5 14 9 11 15 -7 15 -8 0 -12 -5 -9 -10z"/> </g> </svg> 