<?xml version="1.0" standalone="no"?>
<!DOCTYPE svg PUBLIC "-//W3C//DTD SVG 20010904//EN"
 "http://www.w3.org/TR/2001/REC-SVG-20010904/DTD/svg10.dtd">
<svg version="1.0" xmlns="http://www.w3.org/2000/svg"
 width="300.000000pt" height="300.000000pt" viewBox="0 0 300.000000 300.000000"
 preserveAspectRatio="xMidYMid meet">
<metadata>
Created by potrace 1.10, written by Peter Selinger 2001-2011
</metadata>
<g transform="translate(0.000000,300.000000) scale(0.100000,-0.100000)"
fill="#000000" stroke="none">
<path d="M1366 2718 c-149 -9 -260 -24 -396 -54 -128 -29 -379 -109 -397 -127
-36 -38 -58 -463 -33 -662 44 -355 182 -698 397 -985 78 -104 230 -270 247
-270 7 0 51 23 99 52 l87 51 -108 111 c-161 165 -261 307 -353 501 -126 266
-190 586 -175 865 12 198 6 186 95 214 498 157 1094 126 1550 -81 40 -18 76
-33 79 -33 5 0 -3 74 -20 172 l-11 67 -66 25 c-275 103 -482 142 -851 159 -19
1 -84 -1 -144 -5z m309 -33 c205 -13 434 -61 631 -130 l102 -36 11 -75 c16
-111 18 -106 -36 -83 -250 107 -523 166 -808 176 -259 9 -479 -18 -718 -88
-147 -43 -141 -31 -142 -314 0 -235 6 -291 56 -483 82 -320 271 -648 503 -872
25 -24 46 -48 46 -52 0 -4 -30 -24 -66 -44 l-66 -37 -74 74 c-251 248 -449
622 -523 989 -44 216 -52 504 -20 718 11 73 15 85 38 96 43 22 240 84 331 105
185 42 463 73 590 65 30 -2 96 -6 145 -9z"/>
<path d="M1250 2345 c-95 -12 -334 -60 -352 -72 -5 -2 -8 -53 -8 -113 l0 -108
63 20 c195 60 374 83 611 75 280 -9 484 -58 734 -178 95 -45 271 -147 301
-175 7 -6 -29 -174 -60 -282 -104 -365 -309 -705 -585 -972 -92 -89 -267 -232
-296 -243 -19 -6 -14 -9 106 -60 l108 -47 91 78 c400 338 671 768 797 1263 22
84 60 297 60 333 0 39 -235 200 -425 290 -183 88 -344 139 -560 178 -141 25
-436 32 -585 13z m592 -44 c323 -56 600 -173 868 -367 92 -66 91 -63 64 -219
-95 -551 -389 -1062 -817 -1421 -96 -81 -81 -79 -189 -31 -32 14 -58 28 -58
30 0 3 42 38 93 78 334 267 592 637 731 1049 51 153 92 335 83 372 -14 53
-322 224 -528 291 -348 115 -723 125 -1078 32 -52 -14 -96 -23 -99 -21 -2 3
-1 39 3 80 l7 76 36 10 c70 20 230 50 313 59 134 15 435 6 571 -18z"/>
<path d="M270 1956 c-109 -82 -103 -64 -74 -241 92 -554 395 -1080 832 -1445
l93 -78 61 25 c473 192 869 566 1087 1025 78 164 171 453 155 479 -5 9 -163
99 -178 102 -4 1 -17 -40 -27 -91 -108 -525 -462 -988 -952 -1247 l-108 -57
-76 69 c-387 345 -650 873 -703 1408 -7 66 -13 121 -14 122 0 0 -44 -31 -96
-71z m121 -286 c67 -331 238 -687 462 -965 91 -112 281 -295 307 -295 29 0
159 67 270 140 313 206 554 494 700 833 53 124 104 283 115 360 l7 47 70 -37
c39 -20 72 -42 75 -48 2 -7 -5 -49 -16 -93 -151 -591 -596 -1111 -1154 -1348
l-101 -43 -60 47 c-182 141 -425 424 -553 643 -160 274 -281 628 -308 904 l-6
60 73 53 73 53 12 -103 c7 -57 22 -150 34 -208z"/>
</g>
</svg>
