<?xml version="1.0" standalone="no"?>
<!DOCTYPE svg PUBLIC "-//W3C//DTD SVG 20010904//EN"
 "http://www.w3.org/TR/2001/REC-SVG-20010904/DTD/svg10.dtd">
<svg version="1.0" xmlns="http://www.w3.org/2000/svg"
 width="900.000000pt" height="900.000000pt" viewBox="0 0 900.000000 900.000000"
 preserveAspectRatio="xMidYMid meet">
<metadata>
Created by potrace 1.10, written by Peter Selinger 2001-2011
</metadata>
<g transform="translate(0.000000,900.000000) scale(0.100000,-0.100000)"
fill="#00a1e0" stroke="none">
<path d="M2025 8706 c-11 -7 -36 -16 -56 -20 -56 -10 -209 -119 -209 -149 0
-4 -10 -23 -23 -40 -13 -18 -33 -63 -46 -102 -23 -70 -23 -71 -19 -578 2 -333
0 -507 -7 -508 -5 0 -114 0 -240 1 -178 1 -241 -2 -275 -13 -25 -8 -61 -18
-81 -21 -34 -6 -107 -37 -177 -75 -45 -24 -198 -165 -216 -199 -38 -70 -86
-174 -86 -185 0 -7 -5 -18 -11 -24 -5 -5 -13 -34 -17 -64 -4 -30 -7 -1180 -7
-2557 l0 -2502 -97 2 c-112 3 -135 -7 -176 -81 l-23 -43 4 -321 c3 -209 8
-338 16 -367 52 -192 92 -269 191 -370 53 -55 110 -100 165 -129 22 -12 47
-26 55 -30 19 -11 106 -35 185 -53 88 -19 7140 -19 7230 0 178 39 282 90 385
192 90 89 148 180 180 284 46 153 50 191 50 502 -1 292 -1 300 -23 338 -41 71
-65 81 -175 78 l-97 -2 3 2472 c4 2488 3 2579 -30 2658 -69 167 -100 220 -170
286 -59 56 -157 134 -168 134 -6 0 -32 11 -59 24 -27 13 -67 27 -88 30 -21 4
-58 14 -83 22 -36 12 -93 15 -283 13 l-239 -2 1 519 c1 431 -1 524 -13 546 -8
15 -17 42 -21 60 -4 18 -18 47 -31 65 -13 17 -24 36 -24 40 0 11 -65 72 -105
98 -36 24 -65 38 -125 62 -43 17 -177 18 -2495 20 -2055 3 -2454 1 -2470 -11z
m4875 -67 c39 -7 78 -21 97 -35 17 -13 45 -24 61 -24 24 0 32 -6 43 -31 7 -18
22 -43 34 -58 12 -14 25 -36 29 -48 4 -13 13 -23 21 -23 15 0 25 -22 25 -58 0
-15 7 -36 16 -47 13 -17 14 -84 13 -475 -1 -496 1 -521 51 -564 38 -31 54 -34
270 -40 173 -5 341 -25 377 -44 10 -6 27 -20 37 -31 11 -12 30 -21 44 -21 17
0 43 -17 76 -47 89 -86 126 -126 126 -140 0 -7 5 -13 10 -13 6 0 15 -11 20
-25 5 -14 14 -25 20 -25 5 0 10 -13 10 -29 0 -16 7 -34 15 -41 28 -24 45 -75
56 -168 7 -64 10 -865 8 -2496 -2 -1447 1 -2421 7 -2451 9 -48 11 -51 64 -77
30 -15 67 -27 83 -27 20 -1 30 -8 37 -26 5 -13 21 -34 35 -47 20 -17 25 -31
25 -70 0 -54 16 -65 23 -15 3 17 4 -89 2 -237 -3 -216 -7 -272 -19 -285 -7 -9
-19 -46 -24 -82 -11 -70 -63 -186 -87 -195 -8 -4 -31 -28 -51 -55 -20 -27 -49
-56 -65 -65 -16 -8 -29 -21 -29 -28 0 -24 -145 -96 -213 -107 -34 -6 -73 -17
-86 -26 -21 -14 -386 -15 -3560 -16 -3247 -2 -3539 0 -3571 15 -56 25 -72 30
-123 33 -26 2 -56 10 -66 19 -10 9 -20 16 -24 16 -13 0 -95 61 -101 75 -3 8
-12 15 -19 15 -19 0 -127 114 -127 134 0 8 -9 20 -20 26 -11 6 -20 21 -20 35
0 13 -5 27 -10 30 -6 4 -8 15 -5 26 4 10 3 24 -2 31 -4 7 -8 24 -8 38 0 17 -5
25 -17 24 -31 -3 -41 76 -42 341 -1 138 2 262 7 277 5 15 24 36 42 47 19 11
37 31 41 45 4 18 13 26 28 26 28 0 85 21 118 42 20 13 27 28 31 65 3 26 7
1162 9 2523 l3 2475 31 65 c18 36 34 77 38 93 4 15 12 27 19 27 7 0 23 20 37
45 14 25 28 45 33 45 4 0 10 8 14 18 8 23 54 72 68 72 6 0 26 16 45 35 19 19
44 35 55 35 12 0 30 10 41 21 22 25 52 38 114 51 84 17 105 19 315 28 116 5
220 12 232 16 13 3 33 23 45 43 27 42 27 44 31 653 1 294 5 390 15 400 6 6 12
24 12 38 0 18 13 39 40 64 22 20 40 41 40 46 0 18 74 80 95 80 13 0 29 9 36
20 33 49 -45 47 2484 49 1690 0 2388 -2 2435 -10z"/>
<path d="M2018 8481 c-2 -3 -22 -21 -45 -39 -23 -18 -45 -43 -49 -55 -3 -12
-13 -30 -22 -40 -13 -15 -15 -48 -13 -219 2 -196 3 -203 28 -245 29 -50 58
-68 126 -77 55 -7 745 -8 3227 -4 1628 3 1707 4 1740 21 25 13 41 32 55 65 18
42 20 68 19 247 -1 235 -6 253 -85 311 l-52 38 -2463 2 c-1355 0 -2465 -2
-2466 -5z m4937 -71 c33 -18 77 -82 68 -99 -4 -9 -9 -110 -9 -226 l-2 -210
-2522 1 -2523 2 -3 208 c-1 115 -3 219 -4 231 -2 24 29 69 65 93 20 13 293 15
2466 13 1740 -2 2450 -6 2464 -13z"/>
<path d="M2185 8276 c-79 -45 -116 -132 -78 -186 55 -78 82 -90 201 -90 99 0
105 1 148 30 28 20 51 47 64 75 l21 45 -24 42 c-13 23 -43 57 -68 74 -42 31
-49 33 -134 33 -76 0 -96 -3 -130 -23z m173 -71 c11 -14 24 -25 30 -25 5 0 15
-7 22 -15 10 -12 6 -22 -29 -55 -42 -41 -77 -51 -87 -25 -4 8 -17 15 -29 15
-13 0 -27 5 -30 11 -4 6 -13 8 -21 5 -11 -4 -14 4 -14 34 0 22 4 40 10 40 5 0
7 -6 4 -14 -9 -24 14 -28 30 -5 17 25 65 59 83 59 6 0 20 -11 31 -25z"/>
<path d="M2750 8278 c-67 -43 -90 -76 -90 -130 0 -54 9 -71 58 -110 l47 -38
106 0 c101 0 108 1 145 28 57 42 65 55 66 110 2 60 -15 90 -74 132 -38 28 -47
30 -132 30 -77 0 -97 -4 -126 -22z m147 -64 c3 -8 16 -20 29 -25 18 -6 24 -16
24 -39 0 -16 0 -33 0 -37 1 -5 -9 -9 -20 -11 -12 -2 -24 -10 -27 -18 -9 -23
-42 -16 -84 18 -44 35 -50 62 -16 79 12 6 30 20 40 30 22 23 46 24 54 3z"/>
<path d="M3295 8266 c-97 -70 -100 -170 -7 -233 46 -32 50 -33 155 -33 l107 0
50 48 c45 43 50 53 50 91 0 55 -21 90 -79 129 -44 30 -52 32 -137 32 -87 0
-92 -1 -139 -34z m189 -62 c24 -12 36 -25 40 -47 3 -17 5 -31 4 -31 -2 -1 -21
-14 -44 -29 -52 -35 -69 -34 -109 6 -40 40 -38 79 4 102 35 19 63 18 105 -1z"/>
<path d="M4281 8266 c-25 -17 -56 -51 -69 -75 l-24 -44 22 -44 c12 -24 40 -58
63 -74 l40 -29 1159 0 1159 0 45 31 c49 34 64 61 64 117 0 53 -19 83 -75 120
l-50 32 -1145 -1 -1145 0 -44 -33z m2308 -59 c35 -17 49 -74 24 -99 -37 -37
-112 -39 -1184 -34 -917 5 -1043 8 -1070 21 -16 9 -32 22 -35 30 -10 24 11 69
37 82 19 10 269 13 1114 13 845 0 1095 -3 1114 -13z"/>
<path d="M2006 7638 c-58 -8 -74 -21 -99 -77 -19 -43 -20 -79 -23 -1155 -2
-611 -6 -1712 -9 -2446 -6 -1634 -6 -1577 6 -1621 5 -21 16 -40 24 -43 11 -4
14 -13 10 -29 -5 -18 -1 -26 17 -35 13 -6 36 -22 51 -34 l28 -23 980 -3 c989
-3 1075 0 1108 33 35 35 45 104 47 340 1 127 5 238 9 247 4 9 2 25 -4 37 -18
33 -13 67 12 78 12 6 31 28 42 49 25 49 28 51 97 65 89 18 99 35 111 176 5 65
14 123 21 128 6 6 22 27 36 47 14 21 36 42 50 49 14 6 32 15 40 20 56 33 161
62 174 49 17 -17 54 -12 52 7 -1 23 74 52 137 52 32 1 60 9 85 25 38 24 120
46 172 46 16 0 47 9 68 20 21 11 72 24 113 29 87 12 105 17 113 37 4 10 23 14
66 14 46 0 60 3 60 15 0 18 54 34 142 42 51 4 67 10 71 23 5 18 74 33 83 18 9
-14 26 -8 20 7 -7 18 32 30 74 21 21 -4 32 -1 39 11 6 12 23 17 60 17 39 0 48
3 40 13 -14 17 29 27 82 20 33 -4 39 -2 37 11 -2 10 9 21 27 29 114 51 110 39
109 368 0 307 -5 335 -64 369 -79 46 -239 37 -297 -16 -31 -30 -63 -122 -63
-183 0 -19 -23 -49 -90 -115 l-89 -90 -395 0 c-242 0 -414 -4 -445 -11 -44 -9
-51 -14 -69 -52 -11 -23 -25 -58 -31 -79 -7 -20 -18 -38 -25 -41 -7 -3 -16
-19 -19 -37 -9 -41 -52 -97 -99 -126 -21 -13 -38 -30 -38 -38 0 -20 -107 -40
-142 -27 -16 6 -28 17 -28 26 0 8 -8 15 -19 15 -10 0 -25 7 -32 16 -7 9 -21
19 -30 23 -24 9 -104 111 -117 150 -7 19 -12 47 -12 64 0 21 -11 41 -39 68
-37 37 -42 39 -107 40 -149 3 -199 -2 -224 -20 -43 -31 -54 -90 -65 -351 -2
-60 -8 -85 -30 -125 -38 -68 -92 -123 -129 -131 -17 -3 -40 -17 -51 -30 -29
-34 -66 -40 -95 -14 -14 12 -32 18 -44 15 -12 -3 -15 -2 -8 1 19 9 4 24 -24
24 -31 0 -109 77 -119 117 -3 16 -15 35 -24 45 -15 13 -19 42 -25 175 -4 87
-12 176 -17 198 -20 81 -27 90 -75 103 -38 10 -45 16 -41 32 4 14 -4 25 -29
39 -19 11 -42 36 -51 56 -10 21 -23 34 -32 33 -31 -6 -38 56 -36 350 1 158 5
297 9 310 5 12 16 22 25 22 19 0 54 36 61 65 4 12 18 22 40 26 18 4 41 17 49
28 l16 21 1277 0 c1240 0 1277 0 1287 -19 6 -10 23 -21 39 -24 18 -4 37 -19
52 -44 14 -20 36 -43 49 -50 28 -13 45 -61 56 -152 13 -109 57 -129 296 -134
136 -3 144 -5 211 -69 33 -31 36 -38 42 -113 4 -44 6 -210 5 -370 -1 -275 -3
-292 -22 -325 -24 -40 -54 -66 -107 -95 -21 -11 -49 -28 -63 -38 -16 -12 -48
-20 -85 -22 -33 -1 -70 -10 -83 -18 -13 -8 -67 -23 -119 -33 -52 -10 -108 -26
-125 -36 -19 -11 -50 -18 -81 -18 -43 0 -53 -3 -57 -20 -4 -14 -14 -20 -34
-20 -16 0 -34 -5 -40 -11 -7 -7 -37 -13 -68 -14 -40 -2 -66 -9 -87 -25 -20
-14 -54 -25 -99 -31 -38 -5 -77 -13 -87 -18 -52 -28 -147 -53 -179 -48 -27 5
-34 3 -29 -8 6 -18 -102 -55 -161 -55 -28 0 -57 -8 -81 -23 -36 -23 -64 -31
-166 -46 -27 -4 -54 -15 -61 -25 -7 -9 -33 -23 -59 -32 -25 -9 -51 -25 -57
-35 -13 -25 -13 -177 0 -212 11 -28 51 -49 116 -61 22 -4 48 -9 58 -12 18 -6
18 -6 0 -20 -16 -12 -16 -13 -1 -14 9 0 24 -15 33 -34 9 -19 25 -36 36 -39 27
-7 24 -64 -3 -59 -14 2 -18 -4 -18 -28 0 -19 5 -30 14 -30 19 0 26 -77 21
-220 -2 -63 -4 -128 -5 -144 0 -16 -2 -27 -5 -24 -4 3 -8 83 -9 177 -2 95 -7
175 -10 178 -7 8 -6 28 -9 -215 -2 -202 4 -271 18 -204 4 17 11 32 15 32 4 0
13 -31 20 -70 7 -38 21 -77 30 -85 9 -8 40 -19 70 -25 61 -12 1891 -13 1984
-1 42 5 63 13 75 29 9 11 29 26 45 32 24 9 26 13 16 25 -10 13 -9 19 6 36 18
20 19 46 21 468 1 245 3 471 3 501 3 148 -10 3844 -14 4039 -4 210 -6 226 -28
269 -17 33 -32 48 -53 54 -35 10 -4929 16 -4999 6z m5004 -58 c3 0 4 -1186 3
-2636 l-3 -2637 -37 -33 -38 -34 -1005 -2 c-553 -2 -1009 0 -1013 3 -5 4 -8
175 -7 381 l1 375 -42 42 -42 42 -86 -1 c-47 -1 -92 -1 -98 -1 -9 1 -12 27
-12 91 l0 90 36 15 c19 8 49 15 65 15 16 0 41 6 56 14 15 7 46 16 70 20 24 3
51 10 60 16 9 5 37 14 62 20 25 6 59 15 75 20 17 5 55 16 85 24 30 8 69 19 85
25 17 6 57 18 90 27 33 9 78 22 100 30 23 8 52 14 65 14 14 0 34 7 44 15 11 8
29 15 40 15 12 0 41 7 66 15 25 8 110 33 190 56 80 22 159 45 175 50 60 17
141 39 197 53 31 7 62 17 68 21 11 7 82 26 170 46 65 15 101 33 135 69 l30 31
5 452 c5 453 3 488 -30 533 -39 53 -49 55 -285 54 -121 0 -226 -1 -234 0 -11
0 -13 15 -7 80 5 61 3 89 -8 113 -8 18 -17 44 -20 59 -8 37 -94 122 -149 147
-46 21 -46 21 -1377 21 -1326 0 -1331 0 -1377 -21 -54 -25 -125 -95 -142 -141
-7 -18 -19 -45 -27 -60 -21 -40 -20 -631 1 -672 8 -15 15 -34 15 -40 0 -23 66
-106 109 -138 25 -18 65 -35 99 -42 l57 -11 6 -225 c4 -157 10 -237 20 -265
16 -46 108 -142 159 -166 144 -68 191 -68 339 5 61 30 124 103 152 178 22 59
24 76 24 268 l0 205 100 1 c55 0 114 4 131 8 42 10 50 -4 57 -100 7 -94 27
-139 93 -213 59 -65 175 -121 254 -121 77 0 194 56 256 122 61 65 85 125 93
228 5 78 8 85 26 81 11 -2 203 -6 426 -8 448 -5 471 -3 550 55 45 34 109 113
109 137 0 9 6 26 12 38 8 13 13 59 13 111 l0 89 138 1 137 1 0 -301 c0 -341
10 -306 -90 -330 -93 -22 -181 -46 -305 -84 -149 -45 -265 -77 -325 -90 -24
-6 -49 -15 -54 -20 -6 -6 -20 -10 -33 -10 -12 0 -42 -6 -65 -14 -24 -7 -70
-21 -103 -30 -33 -9 -73 -21 -90 -27 -16 -6 -52 -17 -80 -24 -191 -52 -236
-65 -254 -74 -11 -6 -34 -11 -51 -11 -17 0 -41 -6 -53 -12 -12 -7 -42 -18 -67
-24 -47 -12 -130 -36 -215 -60 -27 -8 -65 -19 -83 -23 -41 -11 -58 -26 -90
-75 -24 -39 -25 -43 -20 -193 l6 -153 -98 0 -98 0 -41 -42 -42 -41 1 -375 c1
-206 -2 -377 -7 -381 -4 -3 -461 -5 -1014 -3 l-1007 2 -36 33 -36 34 -3 2636
c-1 1451 1 2638 5 2639 6 2 4558 0 5038 -2z"/>
<path d="M3405 7154 c-94 -15 -236 -115 -317 -224 -57 -75 -128 -248 -128
-312 0 -12 -7 -41 -15 -63 -19 -52 -19 -130 0 -191 8 -27 15 -59 15 -70 0 -24
27 -120 40 -144 5 -8 25 -48 45 -89 70 -138 196 -242 360 -295 86 -28 187 -15
315 41 60 26 164 120 197 177 46 80 -33 196 -133 196 -43 0 -78 -21 -121 -70
-26 -31 -122 -80 -156 -80 -69 0 -141 48 -198 131 -44 65 -62 114 -78 210 -16
93 -14 129 10 227 31 126 120 252 190 267 16 4 31 11 34 16 22 34 149 -21 216
-92 45 -48 47 -49 106 -49 55 0 63 3 94 34 18 19 39 51 46 72 12 33 11 42 -8
81 -21 43 -151 173 -174 173 -6 0 -34 12 -60 26 -41 21 -65 26 -149 29 -56 2
-114 1 -131 -1z m195 -89 c14 -8 50 -27 80 -43 112 -58 120 -65 120 -99 0 -44
-9 -63 -31 -63 -24 0 -129 50 -129 61 0 5 -15 9 -33 9 -17 0 -46 4 -63 9 -40
11 -146 -9 -202 -40 -38 -20 -102 -97 -102 -121 0 -4 -6 -8 -13 -8 -7 0 -23
-46 -41 -120 -25 -105 -28 -134 -24 -230 3 -65 9 -115 16 -122 7 -7 12 -34 12
-60 0 -41 5 -52 30 -75 17 -14 30 -36 30 -48 0 -26 71 -95 98 -95 9 0 35 -11
57 -25 32 -19 54 -24 106 -25 46 0 70 4 79 14 6 8 35 23 63 32 29 9 61 23 72
30 24 17 71 18 78 2 2 -7 1 -20 -2 -29 -9 -23 -58 -79 -70 -79 -5 0 -12 -9
-16 -19 -3 -11 -16 -23 -27 -27 -12 -4 -29 -15 -37 -25 -11 -12 -36 -21 -76
-25 -135 -16 -193 -2 -264 62 -134 121 -221 220 -221 249 0 13 -13 45 -30 72
-39 63 -54 184 -40 322 8 76 17 109 45 166 19 38 35 74 35 78 0 5 11 20 25 35
53 59 92 108 98 125 4 9 11 17 16 17 5 0 32 16 61 35 29 19 62 35 75 35 13 0
30 6 37 13 21 21 38 25 103 26 35 0 70 -5 85 -14z"/>
<path d="M4401 7151 c-8 -5 -20 -7 -26 -5 -14 6 -118 -53 -165 -92 -31 -26
-98 -120 -115 -159 -21 -50 -30 -198 -15 -250 17 -59 61 -142 98 -186 61 -72
208 -139 305 -139 51 0 81 -11 108 -40 27 -27 49 -77 49 -107 -1 -42 -49 -105
-103 -133 l-47 -25 -47 25 c-62 33 -104 93 -97 138 8 40 -12 71 -68 112 -97
71 -208 6 -208 -122 0 -150 101 -306 240 -369 109 -50 209 -63 264 -34 15 8
35 15 44 15 9 0 48 19 88 41 56 32 82 56 119 106 120 163 112 376 -20 530 -60
70 -241 152 -308 139 -31 -6 -93 20 -117 50 -63 78 -50 157 36 216 44 31 76
34 127 13 54 -23 114 -112 90 -136 -7 -7 -7 -20 1 -41 13 -35 108 -108 140
-108 11 0 44 16 73 36 60 41 70 69 59 157 -4 29 -8 61 -9 72 -4 36 -85 162
-129 200 -46 39 -130 87 -163 92 -62 10 -192 12 -204 4z m178 -89 c3 -5 31
-21 61 -36 72 -35 104 -62 125 -111 10 -22 29 -54 41 -71 20 -28 22 -34 9 -44
-9 -8 -13 -21 -9 -35 4 -18 1 -25 -16 -30 -12 -4 -25 -18 -31 -32 -13 -36 -34
-23 -33 21 1 27 -5 44 -22 61 -13 13 -24 29 -24 36 0 26 -47 73 -97 96 -66 30
-164 35 -191 9 -9 -9 -29 -26 -44 -37 -16 -11 -28 -26 -28 -33 0 -6 -9 -19
-20 -29 -17 -14 -20 -29 -20 -92 0 -65 3 -77 21 -87 11 -7 27 -27 35 -44 17
-35 54 -55 134 -74 30 -7 77 -19 104 -26 27 -8 63 -14 79 -14 24 0 28 -3 24
-20 -4 -15 4 -27 29 -46 19 -15 34 -32 34 -38 0 -7 14 -28 30 -46 17 -18 30
-44 30 -57 0 -13 7 -26 14 -29 11 -4 15 -22 15 -65 0 -32 -4 -58 -7 -58 -19 3
-23 -2 -12 -16 9 -11 8 -19 -4 -37 -9 -12 -16 -31 -16 -40 0 -10 -11 -23 -25
-28 -14 -5 -25 -16 -25 -23 0 -17 -88 -97 -107 -97 -7 0 -13 -4 -13 -10 0 -14
-49 -37 -97 -45 -64 -10 -160 20 -179 56 -8 16 -19 29 -23 29 -5 0 -33 20 -62
45 -29 25 -59 45 -66 45 -7 0 -13 12 -13 28 -1 15 -7 38 -15 52 -18 32 -19 51
-1 44 9 -3 17 6 24 25 7 19 18 31 29 31 22 0 73 -62 73 -89 0 -23 46 -81 64
-81 7 0 27 -11 46 -25 27 -20 46 -25 90 -25 44 0 63 5 90 25 19 14 40 25 47
25 14 0 45 43 41 56 -1 5 6 23 15 41 9 18 17 42 17 55 0 25 -23 95 -44 137
-15 29 -90 71 -125 71 -43 0 -111 22 -111 36 0 9 -12 14 -33 14 -23 0 -41 8
-57 25 -13 14 -32 25 -42 25 -10 0 -22 10 -27 23 -5 12 -25 36 -45 54 -25 22
-36 40 -36 60 0 15 -7 37 -15 47 -20 26 -19 105 1 127 11 12 13 23 6 36 -13
25 4 84 22 77 8 -3 22 9 35 30 30 48 71 81 128 102 26 10 55 25 62 32 11 11
32 13 85 9 38 -3 72 -10 75 -15z"/>
<path d="M5380 7153 c-63 -11 -191 -91 -233 -146 -15 -20 -27 -38 -27 -42 0
-3 -10 -22 -23 -43 -35 -56 -53 -175 -38 -254 17 -87 83 -200 141 -242 110
-80 139 -92 260 -104 74 -8 112 -28 141 -75 39 -64 34 -99 -25 -166 -26 -29
-93 -61 -115 -54 -84 26 -131 83 -131 159 0 42 -4 51 -40 85 -41 39 -91 56
-133 45 -12 -3 -40 -21 -61 -39 -31 -28 -39 -43 -43 -79 -16 -139 83 -315 217
-386 143 -76 237 -79 380 -13 62 28 160 103 160 123 0 4 11 23 24 43 35 51 66
151 66 210 0 50 -25 144 -53 197 -22 43 -81 116 -102 127 -11 6 -29 17 -40 23
-86 56 -178 85 -228 73 -37 -10 -110 35 -136 82 -14 27 -14 98 0 124 24 46 88
89 132 89 73 0 177 -114 139 -152 -29 -29 92 -148 151 -148 32 0 102 52 122
91 12 22 15 47 12 83 -9 88 -18 114 -66 193 -55 92 -132 152 -232 183 -62 19
-153 24 -219 13z m215 -109 c79 -40 138 -92 166 -146 11 -21 23 -38 28 -38 5
0 14 -14 21 -31 12 -29 12 -33 -10 -49 -22 -16 -23 -21 -12 -45 16 -35 10 -41
-20 -21 -27 19 -45 20 -51 4 -2 -7 -2 -1 0 13 2 16 -3 31 -12 39 -9 8 -26 32
-37 54 -39 77 -88 108 -184 114 -81 5 -111 -7 -170 -70 -41 -43 -45 -66 -31
-163 17 -118 52 -152 180 -180 34 -7 76 -18 94 -23 17 -6 34 -8 37 -5 2 3 19
2 36 -2 21 -5 30 -12 28 -23 -1 -10 19 -39 45 -66 26 -27 47 -53 47 -57 0 -5
14 -24 30 -43 26 -29 31 -44 35 -106 5 -72 -12 -140 -34 -140 -5 0 -13 -9 -16
-20 -4 -12 -39 -55 -79 -96 -90 -94 -141 -116 -244 -104 -77 9 -102 17 -102
34 0 10 -30 32 -82 61 -10 5 -27 31 -38 57 -21 48 -34 59 -43 36 -5 -15 -46
68 -47 94 0 9 6 21 13 25 8 4 16 16 20 26 9 23 40 22 62 -3 10 -11 26 -22 36
-25 13 -4 19 -16 19 -35 0 -47 20 -78 58 -91 20 -6 51 -21 69 -32 40 -23 121
-20 148 6 9 10 23 17 31 17 9 0 32 17 53 38 37 36 38 38 36 107 -4 110 -18
149 -70 186 -25 18 -45 35 -45 39 0 3 -22 6 -49 6 -68 0 -170 33 -188 62 -9
12 -24 22 -34 22 -11 0 -32 22 -54 55 -21 30 -41 55 -45 55 -4 0 -20 20 -34
44 -29 50 -34 117 -15 205 9 41 17 54 46 72 28 18 33 26 29 45 -5 20 -2 25 21
30 16 4 44 20 63 35 19 15 50 30 68 34 20 4 32 12 29 19 -3 8 15 12 61 14 58
1 75 -3 137 -34z"/>
<path d="M1132 7081 c-18 -12 -48 -21 -67 -21 -25 0 -35 -5 -35 -15 0 -9 -12
-18 -29 -21 -43 -9 -137 -96 -144 -134 -4 -19 -15 -34 -29 -39 -31 -11 -47
-104 -56 -326 -10 -232 -8 -4770 2 -4820 5 -22 15 -48 23 -57 38 -43 251 -51
328 -13 36 18 41 25 48 70 5 28 8 1132 7 2455 l-2 2405 41 30 c22 17 41 39 43
50 3 19 13 20 196 27 218 7 231 11 263 81 23 52 26 191 5 241 -16 38 -50 74
-84 87 -13 5 -126 12 -250 15 -217 5 -228 4 -260 -15z m331 -66 c114 0 207 -3
208 -7 1 -10 1 -256 0 -265 -1 -5 -103 -7 -228 -5 -225 3 -228 3 -262 -20 -19
-13 -45 -41 -57 -63 l-24 -40 5 -555 c3 -387 7 -4108 5 -4377 0 -10 -35 -13
-140 -13 l-140 0 0 2492 c0 1762 3 2502 11 2527 23 78 85 184 128 222 73 64
221 126 266 111 11 -4 113 -7 228 -7z"/>
<path d="M7400 7089 c-122 -10 -153 -49 -158 -199 -3 -117 9 -156 61 -194 24
-18 47 -21 220 -25 167 -5 192 -8 192 -22 0 -9 16 -29 35 -45 19 -16 39 -33
43 -39 9 -12 0 -4761 -9 -4776 -3 -6 0 -17 7 -26 7 -8 16 -36 19 -62 5 -42 9
-48 45 -66 76 -38 290 -30 338 13 10 9 17 29 17 52 0 23 8 48 21 64 11 14 16
26 10 26 -7 0 -9 205 -6 638 2 350 4 644 3 652 -2 50 -8 1030 -12 2205 -5
1352 -5 1361 -27 1454 -21 94 -52 154 -101 197 -12 11 -33 32 -45 47 -13 15
-37 29 -59 33 -24 4 -38 13 -41 25 -4 14 -15 19 -41 19 -20 0 -44 8 -55 18
-17 15 -42 17 -206 17 -102 0 -215 -3 -251 -6z m458 -90 c63 -21 136 -66 174
-106 37 -40 98 -155 98 -186 0 -14 5 -29 10 -32 7 -4 10 -850 10 -2506 l0
-2499 -140 0 c-105 0 -140 3 -140 13 -2 228 2 3989 5 4377 l4 555 -23 40 c-12
22 -38 50 -57 63 -33 23 -38 23 -263 21 l-229 -2 0 139 -1 139 205 -3 c130 -2
209 1 219 8 17 11 51 6 128 -21z"/>
<path d="M1404 6500 c-23 -11 -47 -33 -55 -48 -12 -23 -14 -385 -17 -2342 -2
-1273 0 -2344 3 -2378 5 -42 13 -70 25 -82 43 -43 55 -44 1140 -47 569 -1
1094 -2 1165 -1 162 2 1477 2 1640 0 423 -5 2226 10 2257 19 56 15 78 38 85
89 3 25 9 50 12 55 4 6 4 125 0 265 -4 140 -7 1162 -8 2270 -1 1108 -4 2041
-6 2072 -8 121 -40 143 -204 143 -178 0 -195 -19 -206 -231 -3 -71 -8 -975
-10 -2009 -3 -1034 -6 -1891 -9 -1905 -10 -63 -28 -108 -50 -129 -13 -13 -27
-33 -30 -46 -6 -22 -74 -78 -126 -103 -14 -6 -38 -22 -53 -34 l-28 -23 -2417
-2 c-1328 -2 -2429 1 -2446 5 -21 6 -31 15 -31 28 0 16 -7 19 -40 18 -22 -1
-42 2 -45 7 -3 4 -39 45 -80 90 -41 45 -81 96 -88 113 -17 40 -33 369 -28 581
3 88 4 165 5 170 0 6 -2 285 -5 620 -2 336 -5 1087 -7 1670 -3 986 -5 1063
-21 1102 -27 63 -52 75 -175 80 -93 4 -111 2 -147 -17z m131 -50 c41 0 85 4
99 10 15 5 28 6 31 0 3 -5 5 -933 5 -2062 0 -1994 1 -2055 19 -2113 34 -106
51 -137 109 -194 65 -64 156 -115 224 -125 60 -9 4876 -9 4937 0 108 16 240
115 289 216 68 140 62 -50 62 2208 0 1125 0 2050 0 2057 0 8 28 10 99 6 60 -4
111 -2 130 5 17 6 33 7 36 2 3 -4 5 -1082 5 -2395 l0 -2386 -3090 -2 c-2055
-1 -3090 1 -3090 8 -3 580 2 4770 5 4776 3 4 17 4 31 -1 14 -6 58 -10 99 -10z"/>
<path d="M3323 5128 c-2 -5 -26 -8 -52 -8 -41 0 -50 -4 -69 -29 -12 -16 -26
-49 -31 -73 -12 -53 -17 -403 -7 -473 13 -93 14 -95 61 -116 31 -14 42 -24 39
-34 -4 -10 0 -15 14 -15 23 0 120 -92 139 -130 8 -16 13 -96 15 -225 l3 -201
40 -47 c39 -47 40 -47 100 -47 54 0 64 3 88 28 56 59 59 77 60 433 2 299 4
329 20 347 10 11 19 36 20 56 2 19 10 41 18 48 9 7 23 23 31 35 8 13 30 33 48
45 18 13 34 31 36 41 6 41 13 45 81 51 93 8 118 8 188 -1 49 -7 60 -12 63 -28
3 -17 95 -115 109 -115 3 0 13 -10 24 -22 12 -16 18 -39 19 -75 0 -37 5 -55
16 -61 13 -7 16 -37 19 -178 3 -161 12 -244 29 -273 5 -7 29 -21 54 -32 109
-47 192 14 206 152 8 74 18 100 48 115 16 8 34 26 40 40 14 30 63 56 93 48 18
-4 23 -2 22 13 -2 17 18 18 403 24 223 4 420 10 438 14 78 18 98 128 82 433
-10 178 -20 204 -91 240 l-45 22 -1183 3 c-651 1 -1185 -1 -1188 -5z m2427
-78 c1 -3 1 -130 1 -283 l1 -279 -443 2 c-502 1 -506 0 -585 -76 -71 -70 -89
-114 -88 -219 1 -82 -1 -92 -23 -112 -28 -27 -69 -30 -101 -7 -22 15 -22 19
-22 242 0 191 -3 236 -18 287 -33 108 -91 185 -182 240 -99 59 -204 76 -332
52 -88 -17 -218 -124 -273 -227 l-30 -55 -3 -397 -3 -397 -30 -26 c-37 -30
-45 -31 -86 -5 l-33 20 0 234 c0 211 -2 238 -20 279 -37 83 -134 156 -207 157
-17 0 -35 4 -38 10 -5 7 -9 477 -5 555 0 10 2520 15 2520 5z"/>
<path d="M3986 4685 c-13 -14 -31 -25 -40 -25 -9 0 -21 -12 -26 -26 -6 -15
-19 -38 -30 -52 -30 -37 -26 -85 9 -115 71 -59 282 -57 344 4 15 15 27 36 27
46 0 29 -54 127 -75 138 -11 6 -36 21 -55 33 -51 32 -123 30 -154 -3z m149
-68 c42 -24 100 -99 92 -120 -3 -9 -46 -12 -158 -12 -177 1 -182 4 -127 75 61
80 121 98 193 57z"/>
<path d="M5469 4379 c16 -6 28 -6 35 1 7 7 -1 10 -24 9 -33 0 -34 -1 -11 -10z"/>
<path d="M4358 2853 c-37 -15 -71 -34 -74 -43 -11 -24 -20 -438 -12 -500 11
-76 21 -94 60 -113 51 -24 167 -32 253 -17 79 14 95 25 109 84 9 36 7 455 -2
515 -6 41 -11 47 -57 70 -77 38 -188 40 -277 4z m276 -331 l1 -282 -145 0
-145 0 2 282 c1 156 2 284 2 286 1 1 65 1 142 0 l142 -3 1 -283z"/>
<path d="M716 2614 c-9 -24 -7 -62 4 -69 6 -4 10 12 10 39 0 48 -4 56 -14 30z"/>
<path d="M4165 2471 c-6 -11 9 -23 19 -14 9 9 7 23 -3 23 -6 0 -12 -4 -16 -9z"/>
<path d="M722 2330 c0 -19 2 -27 5 -17 2 9 2 25 0 35 -3 9 -5 1 -5 -18z"/>
<path d="M2897 2113 c-32 -5 -26 -23 8 -23 32 0 56 10 49 21 -5 9 -8 9 -57 2z"/>
<path d="M5460 2110 c-12 -8 -12 -10 3 -16 9 -3 25 -3 34 0 15 6 15 8 3 16 -8
6 -17 10 -20 10 -3 0 -12 -4 -20 -10z"/>
<path d="M6380 2106 c0 -9 7 -16 16 -16 9 0 14 5 12 12 -6 18 -28 21 -28 4z"/>
<path d="M5063 2095 c-8 -23 5 -31 27 -17 11 7 29 12 40 12 11 0 20 5 20 10 0
17 -80 12 -87 -5z"/>
<path d="M5305 2100 c3 -5 15 -10 25 -10 10 0 22 5 25 10 4 6 -7 10 -25 10
-18 0 -29 -4 -25 -10z"/>
<path d="M6440 2100 c0 -5 7 -10 15 -10 8 0 15 5 15 10 0 6 -7 10 -15 10 -8 0
-15 -4 -15 -10z"/>
<path d="M6770 2100 c0 -5 7 -10 15 -10 8 0 15 5 15 10 0 6 -7 10 -15 10 -8 0
-15 -4 -15 -10z"/>
<path d="M6860 2100 c0 -5 7 -10 15 -10 8 0 15 5 15 10 0 6 -7 10 -15 10 -8 0
-15 -4 -15 -10z"/>
<path d="M2208 2078 c9 -9 15 -9 24 0 9 9 7 12 -12 12 -19 0 -21 -3 -12 -12z"/>
<path d="M2195 1571 c-44 -3 -75 -9 -68 -14 19 -12 243 -11 256 2 8 8 1 11
-28 11 -22 0 -49 2 -60 3 -11 2 -56 1 -100 -2z"/>
<path d="M5690 1570 c-12 -8 -12 -10 2 -15 20 -8 41 2 33 16 -8 11 -16 11 -35
-1z"/>
<path d="M1490 1560 c0 -7 56 -10 160 -9 87 0 164 -2 170 -6 13 -8 50 3 50 16
0 5 -79 9 -190 9 -124 0 -190 -4 -190 -10z"/>
<path d="M1915 1560 c3 -5 42 -10 85 -10 43 0 82 5 85 10 4 6 -27 10 -85 10
-58 0 -89 -4 -85 -10z"/>
<path d="M3080 1560 c0 -5 7 -10 15 -10 8 0 15 5 15 10 0 6 -7 10 -15 10 -8 0
-15 -4 -15 -10z"/>
<path d="M4100 1560 c0 -5 7 -10 15 -10 8 0 15 5 15 10 0 6 -7 10 -15 10 -8 0
-15 -4 -15 -10z"/>
<path d="M4730 1560 c0 -5 7 -10 15 -10 8 0 15 5 15 10 0 6 -7 10 -15 10 -8 0
-15 -4 -15 -10z"/>
<path d="M3380 1540 c0 -5 7 -10 15 -10 8 0 15 5 15 10 0 6 -7 10 -15 10 -8 0
-15 -4 -15 -10z"/>
<path d="M582 1455 c-30 -7 -60 -19 -68 -27 -25 -25 -34 -130 -34 -402 0 -223
2 -257 14 -247 18 15 34 -10 34 -54 0 -19 7 -34 21 -43 11 -8 21 -20 21 -28 0
-7 17 -26 38 -41 20 -15 46 -37 58 -49 44 -46 117 -79 174 -80 30 0 992 -1
2137 -3 1351 -1 2084 -5 2088 -11 4 -7 13 -7 24 0 12 6 566 10 1511 10 822 0
1512 3 1534 7 22 3 47 12 54 20 7 7 24 13 37 13 13 0 27 4 30 10 3 6 16 10 28
10 14 0 49 28 99 81 66 69 77 85 76 113 -2 44 9 61 28 45 17 -14 16 -41 15
261 -1 359 -8 389 -84 412 -33 10 -336 13 -1477 13 -1521 0 -1479 1 -1508 -46
-11 -18 -32 -106 -49 -209 -7 -43 -22 -63 -43 -57 -12 3 -15 -2 -13 -22 3 -20
-8 -38 -52 -84 -30 -32 -66 -62 -80 -67 -16 -6 -23 -15 -19 -24 4 -10 -3 -18
-23 -23 -35 -10 -1289 -11 -1324 -1 -15 4 -29 17 -32 27 -3 11 -18 28 -35 38
-45 28 -122 118 -122 143 0 15 -5 20 -15 17 -21 -9 -26 5 -47 132 -22 137 -35
155 -117 171 -86 16 -2811 12 -2879 -5z m2920 -150 c-9 -221 116 -398 323
-457 54 -15 124 -17 663 -18 538 0 609 2 665 17 157 43 257 144 309 312 17 54
19 82 15 154 l-6 87 1477 0 1477 0 -2 -269 -2 -269 -33 -68 c-42 -86 -115
-160 -201 -202 l-67 -32 -3631 0 c-3355 0 -3633 1 -3662 16 -18 9 -39 21 -47
25 -8 5 -24 13 -35 18 -33 14 -118 105 -139 147 -10 22 -25 51 -33 66 -11 22
-14 86 -16 298 l-2 270 1475 -2 1475 -3 -3 -90z"/>
<path d="M3820 1459 c-63 -12 -87 -42 -95 -124 -7 -58 2 -142 21 -207 6 -19
57 -51 97 -62 19 -4 27 -13 27 -27 0 -17 4 -19 18 -13 9 5 285 11 612 14 l595
5 55 27 c30 15 67 38 83 51 25 21 27 28 28 107 0 105 -13 176 -38 201 -11 11
-44 23 -78 29 -74 12 -1262 11 -1325 -1z m1373 -154 c2 -97 -9 -127 -63 -167
-25 -18 -54 -19 -639 -19 l-614 0 -33 23 c-46 32 -60 76 -56 176 l4 82 699 -2
700 -3 2 -90z"/>
</g>
</svg>
