<svg width="197" height="222" viewBox="0 0 197 222" fill="none" xmlns="http://www.w3.org/2000/svg">
<rect x="49.5471" y="31.4208" width="134.377" height="14.856" fill="#FDFD96"/>
<path d="M93.4031 198.113V217.022H91.1133V200.514H91.0025L86.386 203.579V201.253L91.1133 198.113H93.4031ZM105.23 217.281C104.012 217.281 102.925 217.072 101.971 216.653C101.023 216.235 100.269 215.653 99.7092 214.908C99.1552 214.157 98.8536 213.286 98.8043 212.295H101.131C101.18 212.905 101.39 213.431 101.759 213.874C102.128 214.311 102.611 214.65 103.208 214.89C103.806 215.13 104.467 215.25 105.194 215.25C106.006 215.25 106.726 215.108 107.354 214.825C107.982 214.542 108.474 214.148 108.831 213.643C109.188 213.138 109.367 212.554 109.367 211.889C109.367 211.193 109.194 210.581 108.85 210.052C108.505 209.516 108 209.098 107.336 208.796C106.671 208.494 105.858 208.343 104.898 208.343H103.384V206.312H104.898C105.649 206.312 106.308 206.177 106.874 205.906C107.446 205.635 107.893 205.254 108.213 204.761C108.539 204.269 108.702 203.69 108.702 203.025C108.702 202.385 108.561 201.828 108.277 201.354C107.994 200.88 107.594 200.511 107.077 200.246C106.566 199.982 105.963 199.849 105.267 199.849C104.615 199.849 103.999 199.969 103.421 200.209C102.848 200.443 102.381 200.785 102.017 201.234C101.654 201.677 101.457 202.213 101.427 202.841H99.2106C99.2475 201.85 99.5461 200.982 100.106 200.237C100.666 199.486 101.399 198.901 102.304 198.483C103.215 198.064 104.215 197.855 105.304 197.855C106.474 197.855 107.477 198.092 108.314 198.566C109.151 199.034 109.795 199.652 110.244 200.422C110.693 201.191 110.918 202.022 110.918 202.915C110.918 203.979 110.638 204.887 110.078 205.638C109.524 206.389 108.77 206.909 107.816 207.199V207.346C109.01 207.543 109.942 208.051 110.613 208.87C111.284 209.682 111.62 210.689 111.62 211.889C111.62 212.917 111.34 213.84 110.779 214.659C110.226 215.471 109.468 216.111 108.508 216.579C107.548 217.047 106.455 217.281 105.23 217.281ZM118.099 214.437L117.951 215.434C117.847 216.136 117.687 216.887 117.471 217.687C117.262 218.487 117.043 219.241 116.816 219.949C116.588 220.657 116.4 221.22 116.252 221.639H114.59C114.67 221.245 114.775 220.725 114.904 220.079C115.034 219.432 115.163 218.709 115.292 217.909C115.428 217.115 115.538 216.302 115.624 215.471L115.735 214.437H118.099ZM121.656 213.145V211.261L129.966 198.113H131.332V201.031H130.409L124.13 210.966V211.113H135.321V213.145H121.656ZM130.556 217.022V212.572V211.695V198.113H132.735V217.022H130.556ZM140.443 202.841L143.84 208.639L147.238 202.841H149.749L145.17 209.932L149.749 217.022H147.238L143.84 211.52L140.443 217.022H137.931L142.437 209.932L137.931 202.841H140.443Z" fill="#575757"/>
<path d="M48.8382 174.063H183.215V188.919H48.8382V174.063Z" fill="#FDFD96"/>
<path d="M22.96 173.509L25.8467 168.509H20.0732L22.96 173.509ZM22.96 46.7888L20.0732 51.7888H25.8467L22.96 46.7888ZM23.46 169.009L23.46 51.2888H22.46L22.46 169.009H23.46Z" fill="#575757"/>
<path d="M49.5388 193.535L54.5388 196.421L54.5388 190.648L49.5388 193.535ZM183.919 193.535L178.919 190.648V196.421L183.919 193.535ZM54.0388 194.035L179.419 194.035V193.035L54.0388 193.035L54.0388 194.035Z" fill="#575757"/>
<path d="M49.5388 26.5347L54.5388 29.4214L54.5388 23.6479L49.5388 26.5347ZM183.919 26.5347L178.919 23.6479V29.4214L183.919 26.5347ZM54.0388 27.0347L179.419 27.0347V26.0347L54.0388 26.0347L54.0388 27.0347Z" fill="#575757"/>
<path d="M106.99 57.7494C98.6221 59.2937 90.719 60.8157 82.8069 62.2908C79.7082 62.8685 78.5846 64.5993 78.311 67.7487C75.7466 97.2728 85.2493 122.401 106.114 143.469C107.278 144.644 108.616 145.652 109.68 146.572C109.454 147.36 109.465 147.794 109.276 147.911C99.0065 154.263 101.734 154.596 94.1441 146.09C72.2733 121.58 63.8423 92.9544 68.5157 60.5104C69.0268 56.962 70.5543 55.3876 73.7703 54.2705C100.87 44.857 128.087 44.248 155.47 52.9128C165.399 56.0546 165.911 56.8588 165.378 67.8484C146.845 59.7702 127.652 55.8083 106.99 57.7494Z" fill="#575757"/>
<path d="M39.4155 173.813L196.095 173.813" stroke="#575757" stroke-width="0.5" stroke-linecap="square" stroke-dasharray="2 2 2 2 2 2"/>
<path d="M153.354 126.88C141.151 147.964 124.13 163.184 101.886 172.715C98.8638 174.011 96.7813 173.764 94.2279 171.653C69.4039 151.132 54.5469 125.105 49.6974 93.4805C48.9557 88.644 51.4453 85.8751 59.3065 82.6741C61.004 107.899 69.8661 130.254 86.4785 149.504C87.2431 150.39 87.9981 151.29 88.8311 152.111C101.652 164.746 97.1953 164.82 113.164 154.677C134.941 140.845 148.401 120.815 153.7 95.6023C153.933 94.4917 154.394 93.428 154.753 92.3288C164.785 96.3061 165.236 96.7799 161.93 106.291C159.534 113.183 156.35 119.807 153.354 126.88Z" fill="#575757"/>
<path d="M97.5848 77.4138C93.6013 78.4043 90.0343 79.2817 86.2723 80.2071C86.0915 79.3547 85.8404 78.7395 85.8494 78.1281C86.0024 67.7031 84.5586 69.5262 94.1794 67.5403C125.525 61.0703 154.213 67.3379 180.212 85.925C183.417 88.2165 184.347 90.6215 183.749 94.3066C178.622 125.889 163.671 151.88 138.523 171.996C137.123 173.117 134.319 173.168 132.354 172.784C129.958 172.316 127.759 170.86 124.909 169.576C126.374 168.375 127.444 167.429 128.582 166.575C151.799 149.156 166.326 126.345 172.306 98.119C173.005 94.8202 172.306 93.0136 169.446 91.1825C147.474 77.1161 123.624 72.8203 97.5848 77.4138Z" fill="#575757"/>
<path d="M39.384 46.5432H196.061M48.7883 173.81V46.5432M185.325 46.5432V173.799" stroke="#575757" stroke-width="0.5" stroke-linecap="square" stroke-dasharray="2 2 2 2 2 2"/>
<path d="M3.36388 119.472H15.0002V120.881H4.84115V120.949L6.72752 123.79H5.2957L3.36388 120.881V119.472ZM15.0002 116.125H13.9775L9.77297 112.284C9.28055 111.834 8.85252 111.462 8.48888 111.171C8.12146 110.879 7.77676 110.663 7.45479 110.523C7.12903 110.379 6.78812 110.307 6.43206 110.307C6.02297 110.307 5.6688 110.405 5.36956 110.602C5.07032 110.796 4.83926 111.061 4.67638 111.398C4.5135 111.735 4.43206 112.114 4.43206 112.534C4.43206 112.981 4.52487 113.371 4.71047 113.705C4.89229 114.034 5.14797 114.29 5.47752 114.472C5.80706 114.65 6.19343 114.739 6.63661 114.739V116.08C5.95479 116.08 5.3563 115.923 4.84115 115.608C4.326 115.294 3.92449 114.866 3.63661 114.324C3.34873 113.779 3.20479 113.167 3.20479 112.489C3.20479 111.807 3.34873 111.203 3.63661 110.676C3.92449 110.15 4.31274 109.737 4.80138 109.438C5.29002 109.138 5.83358 108.989 6.43206 108.989C6.86009 108.989 7.27865 109.066 7.68774 109.222C8.09305 109.373 8.5457 109.638 9.0457 110.017C9.54191 110.392 10.148 110.913 10.8639 111.58L13.6593 114.193H13.7502V108.784H15.0002V116.125ZM13.4093 104.415L14.023 104.506C14.4548 104.57 14.9169 104.669 15.4093 104.801C15.9018 104.93 16.3658 105.065 16.8014 105.205C17.237 105.345 17.5836 105.46 17.8412 105.551V106.574C17.5987 106.525 17.2787 106.46 16.8809 106.381C16.4832 106.301 16.0381 106.222 15.5457 106.142C15.0571 106.059 14.5571 105.991 14.0457 105.938L13.4093 105.87V104.415ZM15.1593 98.4959C15.1518 98.9732 15.0609 99.4505 14.8866 99.9277C14.7124 100.405 14.4188 100.841 14.0059 101.235C13.5893 101.628 13.0268 101.945 12.3184 102.183C11.6063 102.422 10.7124 102.541 9.63661 102.541C8.6063 102.541 7.69343 102.445 6.89797 102.252C6.09873 102.058 5.42638 101.778 4.88093 101.411C4.33168 101.043 3.91502 100.6 3.63093 100.081C3.34683 99.5584 3.20479 98.9694 3.20479 98.3141C3.20479 97.6626 3.33547 97.083 3.59684 96.5755C3.85441 96.0641 4.21426 95.6474 4.67638 95.3255C5.1385 95.0035 5.6707 94.7952 6.27297 94.7005V96.0868C5.75024 96.2156 5.31653 96.4656 4.97184 96.8368C4.62714 97.208 4.45479 97.7005 4.45479 98.3141C4.45479 99.2156 4.84683 99.9258 5.63093 100.445C6.41502 100.96 7.5154 101.219 8.93206 101.223V101.132C8.61009 100.92 8.33547 100.668 8.1082 100.377C7.87714 100.081 7.69911 99.7554 7.57411 99.3993C7.44911 99.0433 7.38661 98.6664 7.38661 98.2687C7.38661 97.602 7.55327 96.9921 7.88661 96.4391C8.21615 95.8861 8.67259 95.4429 9.25593 95.1096C9.83547 94.7762 10.5002 94.6096 11.2502 94.6096C11.9699 94.6096 12.629 94.7705 13.2275 95.0925C13.8222 95.4145 14.2957 95.8671 14.648 96.4505C14.9965 97.03 15.1669 97.7118 15.1593 98.4959ZM13.9093 98.4959C13.9093 98.0187 13.79 97.5906 13.5514 97.2118C13.3127 96.8293 12.9927 96.5281 12.5912 96.3084C12.1896 96.0849 11.7427 95.9732 11.2502 95.9732C10.7692 95.9732 10.3317 96.0812 9.93774 96.2971C9.54002 96.5092 9.22373 96.8027 8.98888 97.1777C8.75403 97.549 8.63661 97.9732 8.63661 98.4505C8.63661 98.8103 8.70858 99.1455 8.85252 99.4562C8.99267 99.7668 9.18585 100.039 9.43206 100.274C9.67827 100.505 9.96047 100.687 10.2787 100.82C10.593 100.952 10.9245 101.019 11.273 101.019C11.7351 101.019 12.1669 100.911 12.5684 100.695C12.9699 100.475 13.2938 100.176 13.54 99.7971C13.7862 99.4145 13.9093 98.9808 13.9093 98.4959ZM6.27297 91.3525L9.84115 89.2615L6.27297 87.1706V85.6252L10.6366 88.4434L15.0002 85.6252V87.1706L11.6139 89.2615L15.0002 91.3525V92.8979L10.6366 90.1252L6.27297 92.8979V91.3525Z" fill="#575757"/>
<path d="M93.4031 1.11337V20.0225H91.1133V3.51394H91.0025L86.386 6.57928V4.25257L91.1133 1.11337H93.4031ZM105.23 20.281C104.012 20.281 102.925 20.0717 101.971 19.6531C101.023 19.2346 100.269 18.6529 99.7092 17.9081C99.1552 17.1572 98.8536 16.2862 98.8043 15.2952H101.131C101.18 15.9046 101.39 16.4308 101.759 16.874C102.128 17.311 102.611 17.6496 103.208 17.8896C103.806 18.1297 104.467 18.2497 105.194 18.2497C106.006 18.2497 106.726 18.1082 107.354 17.825C107.982 17.5419 108.474 17.1479 108.831 16.6432C109.188 16.1385 109.367 15.5537 109.367 14.8889C109.367 14.1934 109.194 13.5809 108.85 13.0516C108.505 12.5161 108 12.0975 107.336 11.7959C106.671 11.4943 105.858 11.3435 104.898 11.3435H103.384V9.31223H104.898C105.649 9.31223 106.308 9.17682 106.874 8.90598C107.446 8.63515 107.893 8.25352 108.213 7.7611C108.539 7.26867 108.702 6.69007 108.702 6.0253C108.702 5.38515 108.561 4.82809 108.277 4.35414C107.994 3.88018 107.594 3.51086 107.077 3.24618C106.566 2.9815 105.963 2.84917 105.267 2.84917C104.615 2.84917 103.999 2.96919 103.421 3.20925C102.848 3.44315 102.381 3.78477 102.017 4.23411C101.654 4.67729 101.457 5.2128 101.427 5.84064H99.2106C99.2475 4.84964 99.5461 3.98174 100.106 3.23695C100.666 2.486 101.399 1.90125 102.304 1.48269C103.215 1.06413 104.215 0.854847 105.304 0.854847C106.474 0.854847 107.477 1.09183 108.314 1.56578C109.151 2.03359 109.795 2.6522 110.244 3.42161C110.693 4.19102 110.918 5.02199 110.918 5.91451C110.918 6.97937 110.638 7.88728 110.078 8.63823C109.524 9.38917 108.77 9.9093 107.816 10.1986V10.3463C109.01 10.5433 109.942 11.0511 110.613 11.8698C111.284 12.6823 111.62 13.6887 111.62 14.8889C111.62 15.9169 111.34 16.8402 110.779 17.6588C110.226 18.4713 109.468 19.1115 108.508 19.5793C107.548 20.0471 106.455 20.281 105.23 20.281ZM118.099 17.4372L117.951 18.4344C117.847 19.1361 117.687 19.887 117.471 20.6872C117.262 21.4874 117.043 22.2414 116.816 22.9493C116.588 23.6572 116.4 24.2204 116.252 24.6389H114.59C114.67 24.245 114.775 23.7249 114.904 23.0786C115.034 22.4323 115.163 21.709 115.292 20.9088C115.428 20.1148 115.538 19.3023 115.624 18.4713L115.735 17.4372H118.099ZM121.656 16.1446V14.2611L129.966 1.11337H131.332V4.03098H130.409L124.13 13.9656V14.1134H135.321V16.1446H121.656ZM130.556 20.0225V15.5722V14.695V1.11337H132.735V20.0225H130.556ZM140.443 5.84064L143.84 11.6389L147.238 5.84064H149.749L145.17 12.9316L149.749 20.0225H147.238L143.84 14.5196L140.443 20.0225H137.931L142.437 12.9316L137.931 5.84064H140.443Z" fill="#575757"/>
<rect x="30.4927" y="46.8184" width="18.0376" height="126.717" fill="#FDFD96"/>
</svg>
