<svg width="3993" height="4673" viewBox="0 0 3993 4673" fill="none" xmlns="http://www.w3.org/2000/svg">
<rect x="0.208008" y="0.863281" width="3992.16" height="4671.6" fill="white"/>
<rect x="1328.4" y="283.646" width="1567.82" height="97.4746" fill="#575757"/>
<rect x="269.477" y="1132.4" width="3453.33" height="97.4746" fill="#575757"/>
<rect x="269.477" y="1292.4" width="3453.33" height="97.4746" fill="#575757"/>
<rect x="269.477" y="1462.4" width="3453.33" height="97.4746" fill="#575757"/>
<rect x="1328.4" y="463.646" width="1098.69" height="97.4746" fill="#575757"/>
<rect x="14.9014" y="1773.1" width="3961.71" height="2451.94" fill="#575757"/>
<rect x="269.477" y="194.292" width="967.474" height="813.813" fill="#575757"/>
<path d="M962.462 702.998C892.334 813.394 794.517 893.088 666.68 942.997C649.31 949.779 637.342 948.486 622.668 937.433C480.005 829.983 394.622 693.701 366.751 528.112C362.489 502.787 376.797 488.289 421.975 471.528C431.731 603.609 482.66 720.663 578.132 821.457C582.526 826.096 586.865 830.811 591.652 835.108C665.336 901.267 639.721 901.654 731.493 848.545C856.647 776.118 934.001 671.241 964.451 539.222C965.792 533.407 968.44 527.837 970.505 522.082C1028.16 542.908 1030.75 545.388 1011.75 595.187C997.979 631.276 979.682 665.962 962.462 702.998Z" fill="#8ACF31"/>
<path d="M641.96 443.984C619.068 449.17 598.568 453.765 576.947 458.61C575.908 454.147 574.466 450.926 574.517 447.724C575.397 393.137 567.099 402.683 622.39 392.285C802.53 358.407 967.403 391.225 1116.82 488.55C1135.24 500.548 1140.58 513.141 1137.14 532.437C1107.68 697.808 1021.76 833.9 877.233 939.231C869.184 945.097 853.069 945.367 841.779 943.357C828.008 940.905 815.37 933.281 798.989 926.559C807.413 920.268 813.558 915.318 820.104 910.844C953.528 819.636 1037.01 700.194 1071.38 552.399C1075.4 535.126 1071.38 525.667 1054.94 516.078C928.673 442.425 791.607 419.932 641.96 443.984Z" fill="#8ACF31"/>
<path d="M696.013 341.019C647.922 349.105 602.503 357.074 557.033 364.798C539.225 367.823 532.767 376.886 531.195 393.376C516.457 547.969 571.069 679.546 690.978 789.856C697.671 796.013 705.358 801.291 711.475 806.106C710.172 810.232 710.237 812.504 709.15 813.117C650.132 846.375 665.805 848.122 622.187 803.584C496.497 675.243 448.044 525.357 474.901 355.475C477.839 336.896 486.617 328.652 505.1 322.803C660.841 273.513 817.257 270.323 974.625 315.693C1031.69 332.145 1034.63 336.356 1031.57 393.898C925.058 351.6 814.757 330.855 696.013 341.019Z" fill="#8ACF31"/>
<rect x="424.136" y="2091.29" width="3143.24" height="1816.11" fill="#D9D9D9" fill-opacity="0.4"/>
<path d="M3567.37 2972.27L3634.87 3011.24V2933.29L3567.37 2972.27ZM3976.87 2972.27L3909.37 2933.29V3011.24L3976.87 2972.27ZM3628.12 2979.02H3916.12V2965.52H3628.12V2979.02Z" fill="white"/>
<path d="M14.6357 2971.67L82.1357 3010.64V2932.69L14.6357 2971.67ZM424.136 2971.67L356.636 2932.69V3010.64L424.136 2971.67ZM75.3857 2978.42H363.386V2964.92H75.3857V2978.42Z" fill="white"/>
<path d="M1995.75 2091.29L2034.73 2023.79H1956.78L1995.75 2091.29ZM1995.75 1771.79L1956.78 1839.29H2034.73L1995.75 1771.79ZM2002.5 2030.54V1832.54H1989V2030.54H2002.5Z" fill="white"/>
<path d="M1568.11 3022.04V2914.96H1590.81V3003.29H1634.25V3022.04H1568.11ZM1684.71 2938.48C1695.7 2938.48 1704.12 2940.87 1709.98 2945.65C1715.84 2950.44 1718.77 2957.71 1718.77 2967.48V3022.04H1703.17L1698.85 3010.91H1698.26C1695.92 3013.84 1693.52 3016.23 1691.08 3018.09C1688.64 3019.95 1685.83 3021.31 1682.66 3022.19C1679.49 3023.07 1675.63 3023.51 1671.09 3023.51C1666.25 3023.51 1661.91 3022.58 1658.05 3020.73C1654.24 3018.87 1651.24 3016.04 1649.04 3012.23C1646.84 3008.37 1645.75 3003.49 1645.75 2997.58C1645.75 2988.89 1648.8 2982.49 1654.9 2978.39C1661 2974.24 1670.16 2971.95 1682.37 2971.51L1696.58 2971.07V2967.48C1696.58 2963.18 1695.45 2960.03 1693.21 2958.03C1690.96 2956.03 1687.84 2955.03 1683.83 2955.03C1679.88 2955.03 1676 2955.59 1672.19 2956.71C1668.38 2957.84 1664.57 2959.25 1660.76 2960.96L1653.36 2945.87C1657.71 2943.58 1662.57 2941.77 1667.94 2940.45C1673.36 2939.13 1678.95 2938.48 1684.71 2938.48ZM1696.58 2984.11L1687.93 2984.4C1680.71 2984.59 1675.68 2985.89 1672.85 2988.28C1670.06 2990.67 1668.67 2993.82 1668.67 2997.73C1668.67 3001.15 1669.67 3003.59 1671.67 3005.05C1673.68 3006.47 1676.29 3007.18 1679.51 3007.18C1684.3 3007.18 1688.32 3005.76 1691.6 3002.93C1694.92 3000.1 1696.58 2996.07 1696.58 2990.84V2984.11ZM1730.12 2940.16H1754.58L1770.04 2986.23C1770.53 2987.69 1770.94 2989.18 1771.28 2990.7C1771.62 2992.21 1771.92 2993.77 1772.16 2995.38C1772.41 2997 1772.6 2998.68 1772.75 3000.44H1773.19C1773.48 2997.8 1773.87 2995.34 1774.36 2993.04C1774.9 2990.75 1775.56 2988.48 1776.34 2986.23L1791.5 2940.16H1815.45L1780.8 3032.52C1778.71 3038.18 1775.97 3042.89 1772.6 3046.65C1769.23 3050.46 1765.35 3053.32 1760.96 3055.22C1756.61 3057.13 1751.83 3058.08 1746.6 3058.08C1744.06 3058.08 1741.86 3057.93 1740.01 3057.64C1738.15 3057.4 1736.57 3057.13 1735.25 3056.83V3039.11C1736.27 3039.35 1737.57 3039.57 1739.13 3039.77C1740.69 3039.96 1742.33 3040.06 1744.04 3040.06C1747.16 3040.06 1749.85 3039.4 1752.09 3038.08C1754.34 3036.77 1756.22 3034.98 1757.73 3032.74C1759.25 3030.54 1760.44 3028.12 1761.32 3025.49L1762.64 3021.46L1730.12 2940.16ZM1901.65 2980.96C1901.65 2987.79 1900.73 2993.85 1898.87 2999.12C1897.06 3004.39 1894.4 3008.86 1890.89 3012.52C1887.42 3016.14 1883.22 3018.87 1878.29 3020.73C1873.41 3022.58 1867.89 3023.51 1861.74 3023.51C1855.98 3023.51 1850.68 3022.58 1845.84 3020.73C1841.06 3018.87 1836.88 3016.14 1833.32 3012.52C1829.8 3008.86 1827.07 3004.39 1825.12 2999.12C1823.21 2993.85 1822.26 2987.79 1822.26 2980.96C1822.26 2971.87 1823.87 2964.18 1827.09 2957.88C1830.32 2951.59 1834.91 2946.8 1840.86 2943.53C1846.82 2940.26 1853.92 2938.62 1862.18 2938.62C1869.84 2938.62 1876.63 2940.26 1882.54 2943.53C1888.5 2946.8 1893.16 2951.59 1896.53 2957.88C1899.95 2964.18 1901.65 2971.87 1901.65 2980.96ZM1845.04 2980.96C1845.04 2986.33 1845.62 2990.84 1846.8 2994.51C1847.97 2998.17 1849.8 3000.93 1852.29 3002.78C1854.78 3004.64 1858.03 3005.57 1862.03 3005.57C1865.99 3005.57 1869.18 3004.64 1871.62 3002.78C1874.12 3000.93 1875.92 2998.17 1877.04 2994.51C1878.22 2990.84 1878.8 2986.33 1878.8 2980.96C1878.8 2975.54 1878.22 2971.04 1877.04 2967.48C1875.92 2963.87 1874.12 2961.16 1871.62 2959.35C1869.13 2957.54 1865.89 2956.64 1861.88 2956.64C1855.98 2956.64 1851.68 2958.67 1848.99 2962.72C1846.36 2966.77 1845.04 2972.85 1845.04 2980.96ZM1995.26 2940.16V3022.04H1978.12L1975.12 3011.57H1973.94C1972.19 3014.35 1969.99 3016.62 1967.35 3018.38C1964.72 3020.14 1961.81 3021.43 1958.64 3022.26C1955.46 3023.09 1952.17 3023.51 1948.75 3023.51C1942.89 3023.51 1937.79 3022.48 1933.44 3020.43C1929.1 3018.33 1925.7 3015.09 1923.26 3010.69C1920.87 3006.3 1919.67 3000.58 1919.67 2993.55V2940.16H1942.01V2987.99C1942.01 2993.85 1943.06 2998.27 1945.16 3001.24C1947.26 3004.22 1950.6 3005.71 1955.19 3005.71C1959.74 3005.71 1963.3 3004.69 1965.89 3002.64C1968.48 3000.54 1970.28 2997.48 1971.31 2993.48C1972.38 2989.43 1972.92 2984.5 1972.92 2978.69V2940.16H1995.26ZM2053.19 3005.71C2055.63 3005.71 2058 3005.47 2060.3 3004.98C2062.64 3004.49 2064.96 3003.88 2067.25 3003.15V3019.77C2064.86 3020.85 2061.88 3021.73 2058.32 3022.41C2054.8 3023.14 2050.95 3023.51 2046.75 3023.51C2041.86 3023.51 2037.47 3022.73 2033.56 3021.17C2029.71 3019.55 2026.65 3016.8 2024.41 3012.89C2022.21 3008.93 2021.11 3003.44 2021.11 2996.41V2956.93H2010.42V2947.48L2022.72 2940.01L2029.17 2922.73H2043.45V2940.16H2066.38V2956.93H2043.45V2996.41C2043.45 2999.54 2044.33 3001.88 2046.09 3003.44C2047.89 3004.96 2050.26 3005.71 2053.19 3005.71ZM2165.91 3022.04H2143.21V2933.86H2114.13V2914.96H2194.99V2933.86H2165.91V3022.04ZM2243.48 2938.62C2251.04 2938.62 2257.56 2940.09 2263.03 2943.02C2268.5 2945.9 2272.72 2950.1 2275.7 2955.61C2278.68 2961.13 2280.17 2967.87 2280.17 2975.83V2986.67H2227.36C2227.61 2992.97 2229.49 2997.92 2233 3001.54C2236.57 3005.1 2241.5 3006.88 2247.8 3006.88C2253.02 3006.88 2257.81 3006.35 2262.15 3005.27C2266.5 3004.2 2270.97 3002.59 2275.56 3000.44V3017.72C2271.5 3019.73 2267.25 3021.19 2262.81 3022.12C2258.42 3023.05 2253.07 3023.51 2246.77 3023.51C2238.57 3023.51 2231.29 3022 2224.95 3018.97C2218.65 3015.94 2213.69 3011.33 2210.08 3005.13C2206.51 2998.92 2204.73 2991.11 2204.73 2981.69C2204.73 2972.12 2206.34 2964.16 2209.56 2957.81C2212.84 2951.42 2217.38 2946.63 2223.19 2943.46C2229 2940.23 2235.76 2938.62 2243.48 2938.62ZM2243.62 2954.52C2239.28 2954.52 2235.66 2955.91 2232.78 2958.69C2229.95 2961.47 2228.31 2965.84 2227.88 2971.8H2259.22C2259.17 2968.48 2258.56 2965.53 2257.39 2962.94C2256.27 2960.35 2254.56 2958.3 2252.26 2956.79C2250.02 2955.27 2247.14 2954.52 2243.62 2954.52ZM2315.11 2980.22L2288.74 2940.16H2314.08L2329.97 2966.23L2346.01 2940.16H2371.36L2344.7 2980.22L2372.6 3022.04H2347.19L2329.97 2993.99L2312.69 3022.04H2287.35L2315.11 2980.22ZM2419.55 3005.71C2421.99 3005.71 2424.36 3005.47 2426.65 3004.98C2429 3004.49 2431.32 3003.88 2433.61 3003.15V3019.77C2431.22 3020.85 2428.24 3021.73 2424.68 3022.41C2421.16 3023.14 2417.3 3023.51 2413.1 3023.51C2408.22 3023.51 2403.83 3022.73 2399.92 3021.17C2396.06 3019.55 2393.01 3016.8 2390.77 3012.89C2388.57 3008.93 2387.47 3003.44 2387.47 2996.41V2956.93H2376.78V2947.48L2389.08 2940.01L2395.53 2922.73H2409.81V2940.16H2432.73V2956.93H2409.81V2996.41C2409.81 2999.54 2410.69 3001.88 2412.45 3003.44C2414.25 3004.96 2416.62 3005.71 2419.55 3005.71Z" fill="#575757"/>
<path d="M2065.87 1970.54L2092.68 1911.85H2057.48V1899.16H2108.7V1908.63L2081.69 1970.54H2065.87ZM2123.1 1970.54L2149.91 1911.85H2114.7V1899.16H2165.92V1908.63L2138.92 1970.54H2123.1ZM2207.43 1914.93C2213.58 1914.93 2218.54 1917.32 2222.32 1922.11C2226.13 1926.89 2228.03 1933.91 2228.03 1943.15C2228.03 1949.34 2227.14 1954.55 2225.35 1958.78C2223.56 1962.98 2221.08 1966.15 2217.92 1968.3C2214.77 1970.45 2211.14 1971.52 2207.04 1971.52C2204.4 1971.52 2202.14 1971.2 2200.25 1970.54C2198.36 1969.86 2196.75 1969 2195.42 1967.96C2194.08 1966.88 2192.92 1965.74 2191.95 1964.54H2191.17C2191.43 1965.84 2191.62 1967.18 2191.75 1968.54C2191.88 1969.91 2191.95 1971.24 2191.95 1972.55V1994.57H2177.06V1915.96H2189.17L2191.26 1923.04H2191.95C2192.92 1921.57 2194.11 1920.22 2195.51 1918.98C2196.91 1917.75 2198.59 1916.77 2200.54 1916.05C2202.53 1915.3 2204.82 1914.93 2207.43 1914.93ZM2202.64 1926.84C2200.04 1926.84 2197.97 1927.38 2196.44 1928.46C2194.91 1929.53 2193.79 1931.14 2193.07 1933.29C2192.39 1935.44 2192.01 1938.16 2191.95 1941.44V1943.05C2191.95 1946.57 2192.27 1949.55 2192.92 1951.99C2193.61 1954.43 2194.73 1956.29 2196.29 1957.56C2197.89 1958.83 2200.07 1959.46 2202.84 1959.46C2205.12 1959.46 2206.99 1958.83 2208.45 1957.56C2209.92 1956.29 2211.01 1954.43 2211.72 1951.99C2212.47 1949.52 2212.85 1946.51 2212.85 1942.96C2212.85 1937.62 2212.02 1933.6 2210.36 1930.9C2208.7 1928.19 2206.12 1926.84 2202.64 1926.84ZM2251.52 1942.66L2233.94 1915.96H2250.83L2261.43 1933.34L2272.12 1915.96H2289.02L2271.25 1942.66L2289.85 1970.54H2272.91L2261.43 1951.84L2249.91 1970.54H2233.01L2251.52 1942.66Z" fill="white"/>
<path d="M131.366 3105.59C135.728 3105.59 139.602 3106.42 142.987 3108.08C146.405 3109.74 149.091 3112.18 151.044 3115.4C152.997 3118.62 153.974 3122.59 153.974 3127.31C153.974 3132.46 152.899 3136.9 150.751 3140.64C148.635 3144.36 145.461 3147.2 141.229 3149.19C137.03 3151.18 131.789 3152.17 125.507 3152.17C121.763 3152.17 118.231 3151.84 114.911 3151.19C111.623 3150.57 108.743 3149.61 106.269 3148.31V3135.27C108.743 3136.58 111.705 3137.68 115.155 3138.59C118.638 3139.47 121.91 3139.91 124.97 3139.91C127.965 3139.91 130.487 3139.52 132.538 3138.74C134.589 3137.93 136.135 3136.69 137.177 3135.03C138.251 3133.34 138.788 3131.19 138.788 3128.58C138.788 3125.1 137.616 3122.43 135.272 3120.58C132.929 3118.72 129.332 3117.79 124.481 3117.79C122.626 3117.79 120.689 3117.97 118.671 3118.33C116.685 3118.69 115.025 3119.05 113.69 3119.4L107.685 3116.18L110.37 3079.8H149.091V3092.6H123.603L122.284 3106.61C123.391 3106.38 124.595 3106.16 125.897 3105.93C127.2 3105.7 129.022 3105.59 131.366 3105.59ZM188.593 3105.59C192.955 3105.59 196.828 3106.42 200.214 3108.08C203.632 3109.74 206.317 3112.18 208.271 3115.4C210.224 3118.62 211.2 3122.59 211.2 3127.31C211.2 3132.46 210.126 3136.9 207.978 3140.64C205.862 3144.36 202.688 3147.2 198.456 3149.19C194.257 3151.18 189.016 3152.17 182.733 3152.17C178.99 3152.17 175.458 3151.84 172.138 3151.19C168.85 3150.57 165.969 3149.61 163.495 3148.31V3135.27C165.969 3136.58 168.931 3137.68 172.382 3138.59C175.865 3139.47 179.136 3139.91 182.196 3139.91C185.191 3139.91 187.714 3139.52 189.765 3138.74C191.815 3137.93 193.362 3136.69 194.403 3135.03C195.478 3133.34 196.015 3131.19 196.015 3128.58C196.015 3125.1 194.843 3122.43 192.499 3120.58C190.155 3118.72 186.558 3117.79 181.708 3117.79C179.853 3117.79 177.916 3117.97 175.897 3118.33C173.912 3118.69 172.252 3119.05 170.917 3119.4L164.911 3116.18L167.597 3079.8H206.317V3092.6H180.829L179.511 3106.61C180.618 3106.38 181.822 3106.16 183.124 3105.93C184.426 3105.7 186.249 3105.59 188.593 3105.59ZM254.022 3095.58C260.175 3095.58 265.139 3097.97 268.915 3102.75C272.724 3107.54 274.628 3114.55 274.628 3123.8C274.628 3129.98 273.733 3135.19 271.942 3139.42C270.152 3143.62 267.678 3146.8 264.521 3148.95C261.363 3151.09 257.733 3152.17 253.632 3152.17C250.995 3152.17 248.733 3151.84 246.845 3151.19C244.957 3150.51 243.345 3149.65 242.011 3148.6C240.676 3147.53 239.521 3146.39 238.544 3145.19H237.763C238.023 3146.49 238.218 3147.82 238.349 3149.19C238.479 3150.56 238.544 3151.89 238.544 3153.19V3175.21H223.651V3096.6H235.761L237.86 3103.68H238.544C239.521 3102.22 240.709 3100.87 242.108 3099.63C243.508 3098.39 245.185 3097.42 247.138 3096.7C249.123 3095.95 251.418 3095.58 254.022 3095.58ZM249.237 3107.49C246.633 3107.49 244.566 3108.03 243.036 3109.1C241.506 3110.18 240.383 3111.79 239.667 3113.94C238.983 3116.08 238.609 3118.8 238.544 3122.09V3123.7C238.544 3127.22 238.869 3130.2 239.521 3132.64C240.204 3135.08 241.327 3136.93 242.89 3138.2C244.485 3139.47 246.666 3140.11 249.433 3140.11C251.711 3140.11 253.583 3139.47 255.048 3138.2C256.513 3136.93 257.603 3135.08 258.319 3132.64C259.068 3130.16 259.442 3127.15 259.442 3123.6C259.442 3118.26 258.612 3114.24 256.952 3111.54C255.292 3108.84 252.72 3107.49 249.237 3107.49ZM298.114 3123.31L280.536 3096.6H297.431L308.026 3113.98L318.72 3096.6H335.614L317.841 3123.31L336.444 3151.19H319.501L308.026 3132.49L296.503 3151.19H279.608L298.114 3123.31Z" fill="white"/>
<path d="M3684.1 3066.88C3688.47 3066.88 3692.34 3067.71 3695.72 3069.37C3699.14 3071.03 3701.83 3073.47 3703.78 3076.69C3705.73 3079.92 3706.71 3083.89 3706.71 3088.61C3706.71 3093.75 3705.64 3098.19 3703.49 3101.94C3701.37 3105.65 3698.2 3108.5 3693.97 3110.48C3689.77 3112.47 3684.53 3113.46 3678.24 3113.46C3674.5 3113.46 3670.97 3113.14 3667.65 3112.48C3664.36 3111.87 3661.48 3110.91 3659.01 3109.6V3096.57C3661.48 3097.87 3664.44 3098.98 3667.89 3099.89C3671.38 3100.77 3674.65 3101.21 3677.71 3101.21C3680.7 3101.21 3683.22 3100.81 3685.28 3100.03C3687.33 3099.22 3688.87 3097.98 3689.91 3096.32C3690.99 3094.63 3691.53 3092.48 3691.53 3089.88C3691.53 3086.39 3690.35 3083.72 3688.01 3081.87C3685.67 3080.01 3682.07 3079.09 3677.22 3079.09C3675.36 3079.09 3673.43 3079.26 3671.41 3079.62C3669.42 3079.98 3667.76 3080.34 3666.43 3080.7L3660.42 3077.47L3663.11 3041.1H3701.83V3053.89H3676.34L3675.02 3067.9C3676.13 3067.68 3677.33 3067.45 3678.63 3067.22C3679.94 3066.99 3681.76 3066.88 3684.1 3066.88ZM3741.33 3066.88C3745.69 3066.88 3749.57 3067.71 3752.95 3069.37C3756.37 3071.03 3759.05 3073.47 3761.01 3076.69C3762.96 3079.92 3763.94 3083.89 3763.94 3088.61C3763.94 3093.75 3762.86 3098.19 3760.71 3101.94C3758.6 3105.65 3755.43 3108.5 3751.19 3110.48C3746.99 3112.47 3741.75 3113.46 3735.47 3113.46C3731.73 3113.46 3728.2 3113.14 3724.88 3112.48C3721.59 3111.87 3718.71 3110.91 3716.23 3109.6V3096.57C3718.71 3097.87 3721.67 3098.98 3725.12 3099.89C3728.6 3100.77 3731.87 3101.21 3734.93 3101.21C3737.93 3101.21 3740.45 3100.81 3742.5 3100.03C3744.55 3099.22 3746.1 3097.98 3747.14 3096.32C3748.21 3094.63 3748.75 3092.48 3748.75 3089.88C3748.75 3086.39 3747.58 3083.72 3745.24 3081.87C3742.89 3080.01 3739.3 3079.09 3734.45 3079.09C3732.59 3079.09 3730.65 3079.26 3728.63 3079.62C3726.65 3079.98 3724.99 3080.34 3723.65 3080.7L3717.65 3077.47L3720.33 3041.1H3759.05V3053.89H3733.57L3732.25 3067.9C3733.35 3067.68 3734.56 3067.45 3735.86 3067.22C3737.16 3066.99 3738.99 3066.88 3741.33 3066.88ZM3806.76 3056.87C3812.91 3056.87 3817.88 3059.26 3821.65 3064.05C3825.46 3068.83 3827.37 3075.85 3827.37 3085.09C3827.37 3091.28 3826.47 3096.49 3824.68 3100.72C3822.89 3104.92 3820.42 3108.09 3817.26 3110.24C3814.1 3112.39 3810.47 3113.46 3806.37 3113.46C3803.73 3113.46 3801.47 3113.14 3799.58 3112.48C3797.69 3111.8 3796.08 3110.94 3794.75 3109.9C3793.41 3108.82 3792.26 3107.68 3791.28 3106.48H3790.5C3790.76 3107.78 3790.96 3109.12 3791.09 3110.48C3791.22 3111.85 3791.28 3113.18 3791.28 3114.49V3136.51H3776.39V3057.89H3788.5L3790.6 3064.97H3791.28C3792.26 3063.51 3793.45 3062.16 3794.85 3060.92C3796.25 3059.68 3797.92 3058.71 3799.88 3057.99C3801.86 3057.24 3804.16 3056.87 3806.76 3056.87ZM3801.97 3068.78C3799.37 3068.78 3797.3 3069.32 3795.77 3070.39C3794.24 3071.47 3793.12 3073.08 3792.4 3075.23C3791.72 3077.38 3791.35 3080.1 3791.28 3083.38V3084.99C3791.28 3088.51 3791.61 3091.49 3792.26 3093.93C3792.94 3096.37 3794.06 3098.23 3795.63 3099.5C3797.22 3100.77 3799.4 3101.4 3802.17 3101.4C3804.45 3101.4 3806.32 3100.77 3807.79 3099.5C3809.25 3098.23 3810.34 3096.37 3811.06 3093.93C3811.81 3091.46 3812.18 3088.44 3812.18 3084.9C3812.18 3079.56 3811.35 3075.54 3809.69 3072.84C3808.03 3070.13 3805.46 3068.78 3801.97 3068.78ZM3850.85 3084.6L3833.27 3057.89H3850.17L3860.76 3075.28L3871.46 3057.89H3888.35L3870.58 3084.6L3889.18 3112.48H3872.24L3860.76 3093.78L3849.24 3112.48H3832.35L3850.85 3084.6Z" fill="white"/>
<path d="M977.443 4605.38H914.074V4431.88C914.074 4427.1 914.143 4421.22 914.279 4414.25C914.416 4407.14 914.621 4399.89 914.895 4392.51C915.168 4384.99 915.441 4378.22 915.715 4372.2C914.211 4373.98 911.135 4377.06 906.486 4381.43C901.975 4385.67 897.736 4389.5 893.771 4392.92L859.318 4420.6L828.762 4382.46L925.354 4305.55H977.443V4605.38ZM1270.71 4605.38H1061.12V4561.29L1136.38 4485.2C1151.55 4469.62 1163.72 4456.63 1172.88 4446.24C1182.18 4435.71 1188.88 4426.14 1192.98 4417.53C1197.22 4408.91 1199.34 4399.68 1199.34 4389.84C1199.34 4377.95 1195.99 4369.06 1189.29 4363.18C1182.73 4357.17 1173.91 4354.16 1162.83 4354.16C1151.21 4354.16 1139.93 4356.82 1129 4362.16C1118.06 4367.49 1106.64 4375.08 1094.75 4384.92L1060.29 4344.11C1068.91 4336.73 1078 4329.75 1087.57 4323.19C1097.28 4316.63 1108.49 4311.36 1121.2 4307.4C1134.05 4303.3 1149.44 4301.25 1167.35 4301.25C1187.03 4301.25 1203.92 4304.8 1218 4311.91C1232.22 4319.02 1243.16 4328.73 1250.81 4341.03C1258.47 4353.2 1262.3 4367.01 1262.3 4382.46C1262.3 4399 1259.02 4414.11 1252.45 4427.78C1245.89 4441.45 1236.32 4454.99 1223.74 4468.39C1211.3 4481.78 1196.26 4496.62 1178.62 4512.89L1140.07 4549.19V4552.06H1270.71V4605.38ZM1509.42 4455.47C1509.42 4479.67 1507.5 4501.27 1503.67 4520.27C1499.98 4539.27 1493.97 4555.41 1485.63 4568.67C1477.42 4581.93 1466.62 4592.05 1453.22 4599.02C1439.83 4605.99 1423.56 4609.48 1404.42 4609.48C1380.35 4609.48 1360.6 4603.4 1345.15 4591.23C1329.7 4578.92 1318.28 4561.29 1310.9 4538.32C1303.52 4515.21 1299.83 4487.59 1299.83 4455.47C1299.83 4423.06 1303.18 4395.38 1309.88 4372.41C1316.71 4349.3 1327.79 4331.6 1343.1 4319.29C1358.41 4306.99 1378.85 4300.84 1404.42 4300.84C1428.34 4300.84 1448.03 4306.99 1463.48 4319.29C1479.06 4331.46 1490.62 4349.1 1498.14 4372.2C1505.66 4395.17 1509.42 4422.93 1509.42 4455.47ZM1362.79 4455.47C1362.79 4478.3 1364.02 4497.37 1366.48 4512.68C1369.07 4527.86 1373.38 4539.27 1379.4 4546.93C1385.41 4554.59 1393.75 4558.42 1404.42 4558.42C1414.94 4558.42 1423.21 4554.66 1429.23 4547.14C1435.38 4539.48 1439.76 4528.06 1442.36 4512.89C1444.95 4497.58 1446.25 4478.43 1446.25 4455.47C1446.25 4432.63 1444.95 4413.56 1442.36 4398.25C1439.76 4382.94 1435.38 4371.45 1429.23 4363.8C1423.21 4356 1414.94 4352.11 1404.42 4352.11C1393.75 4352.11 1385.41 4356 1379.4 4363.8C1373.38 4371.45 1369.07 4382.94 1366.48 4398.25C1364.02 4413.56 1362.79 4432.63 1362.79 4455.47ZM1749.77 4455.47C1749.77 4479.67 1747.85 4501.27 1744.03 4520.27C1740.33 4539.27 1734.32 4555.41 1725.98 4568.67C1717.78 4581.93 1706.97 4592.05 1693.58 4599.02C1680.18 4605.99 1663.91 4609.48 1644.77 4609.48C1620.71 4609.48 1600.95 4603.4 1585.5 4591.23C1570.05 4578.92 1558.63 4561.29 1551.25 4538.32C1543.87 4515.21 1540.18 4487.59 1540.18 4455.47C1540.18 4423.06 1543.53 4395.38 1550.23 4372.41C1557.06 4349.3 1568.14 4331.6 1583.45 4319.29C1598.76 4306.99 1619.2 4300.84 1644.77 4300.84C1668.69 4300.84 1688.38 4306.99 1703.83 4319.29C1719.42 4331.46 1730.97 4349.1 1738.49 4372.2C1746.01 4395.17 1749.77 4422.93 1749.77 4455.47ZM1603.14 4455.47C1603.14 4478.3 1604.37 4497.37 1606.83 4512.68C1609.43 4527.86 1613.73 4539.27 1619.75 4546.93C1625.76 4554.59 1634.1 4558.42 1644.77 4558.42C1655.29 4558.42 1663.57 4554.66 1669.58 4547.14C1675.73 4539.48 1680.11 4528.06 1682.71 4512.89C1685.3 4497.58 1686.6 4478.43 1686.6 4455.47C1686.6 4432.63 1685.3 4413.56 1682.71 4398.25C1680.11 4382.94 1675.73 4371.45 1669.58 4363.8C1663.57 4356 1655.29 4352.11 1644.77 4352.11C1634.1 4352.11 1625.76 4356 1619.75 4363.8C1613.73 4371.45 1609.43 4382.94 1606.83 4398.25C1604.37 4413.56 1603.14 4432.63 1603.14 4455.47ZM1954.23 4488.28L1880.4 4376.1H1951.36L1995.86 4449.11L2040.77 4376.1H2111.73L2037.08 4488.28L2115.22 4605.38H2044.05L1995.86 4526.83L1947.46 4605.38H1876.51L1954.23 4488.28ZM2241.13 4478.02C2241.13 4460.8 2242.37 4443.78 2244.83 4426.96C2247.42 4410.01 2251.87 4394.08 2258.16 4379.18C2264.45 4364.14 2273.26 4350.88 2284.61 4339.39C2295.96 4327.77 2310.38 4318.68 2327.88 4312.12C2345.38 4305.42 2366.57 4302.07 2391.46 4302.07C2397.34 4302.07 2404.17 4302.34 2411.96 4302.89C2419.89 4303.3 2426.46 4304.05 2431.65 4305.14V4355.8C2426.18 4354.57 2420.3 4353.61 2414.02 4352.93C2407.86 4352.11 2401.71 4351.7 2395.56 4351.7C2370.68 4351.7 2351.4 4355.66 2337.73 4363.59C2324.19 4371.52 2314.62 4382.53 2309.02 4396.61C2303.55 4410.55 2300.33 4426.82 2299.38 4445.42H2302.04C2305.87 4438.72 2310.66 4432.77 2316.4 4427.58C2322.28 4422.38 2329.39 4418.28 2337.73 4415.27C2346.07 4412.13 2355.84 4410.55 2367.05 4410.55C2384.55 4410.55 2399.73 4414.31 2412.58 4421.83C2425.43 4429.22 2435.34 4439.95 2442.32 4454.03C2449.29 4468.11 2452.78 4485.27 2452.78 4505.5C2452.78 4527.11 2448.61 4545.7 2440.27 4561.29C2431.93 4576.87 2420.1 4588.83 2404.79 4597.17C2389.61 4605.38 2371.56 4609.48 2350.65 4609.48C2335.33 4609.48 2321.05 4606.88 2307.79 4601.69C2294.52 4596.35 2282.9 4588.29 2272.92 4577.49C2262.94 4566.69 2255.15 4553.08 2249.54 4536.68C2243.94 4520.13 2241.13 4500.58 2241.13 4478.02ZM2349.42 4558.83C2361.86 4558.83 2371.97 4554.59 2379.77 4546.11C2387.56 4537.63 2391.46 4524.37 2391.46 4506.33C2391.46 4491.7 2388.04 4480.21 2381.2 4471.87C2374.5 4463.4 2364.32 4459.16 2350.65 4459.16C2341.35 4459.16 2333.15 4461.28 2326.04 4465.51C2319.06 4469.62 2313.66 4474.88 2309.84 4481.31C2306.01 4487.59 2304.09 4494.09 2304.09 4500.79C2304.09 4507.76 2305.05 4514.67 2306.96 4521.5C2308.88 4528.34 2311.75 4534.56 2315.58 4540.16C2319.41 4545.77 2324.12 4550.28 2329.73 4553.7C2335.47 4557.12 2342.03 4558.83 2349.42 4558.83ZM2693.13 4605.38H2483.54V4561.29L2558.8 4485.2C2573.98 4469.62 2586.14 4456.63 2595.3 4446.24C2604.6 4435.71 2611.3 4426.14 2615.4 4417.53C2619.64 4408.91 2621.76 4399.68 2621.76 4389.84C2621.76 4377.95 2618.41 4369.06 2611.71 4363.18C2605.15 4357.17 2596.33 4354.16 2585.26 4354.16C2573.63 4354.16 2562.36 4356.82 2551.42 4362.16C2540.48 4367.49 2529.06 4375.08 2517.17 4384.92L2482.72 4344.11C2491.33 4336.73 2500.42 4329.75 2509.99 4323.19C2519.7 4316.63 2530.91 4311.36 2543.62 4307.4C2556.48 4303.3 2571.86 4301.25 2589.77 4301.25C2609.46 4301.25 2626.34 4304.8 2640.42 4311.91C2654.64 4319.02 2665.58 4328.73 2673.23 4341.03C2680.89 4353.2 2684.72 4367.01 2684.72 4382.46C2684.72 4399 2681.44 4414.11 2674.88 4427.78C2668.31 4441.45 2658.74 4454.99 2646.16 4468.39C2633.72 4481.78 2618.68 4496.62 2601.05 4512.89L2562.49 4549.19V4552.06H2693.13V4605.38ZM2753.62 4605.38L2866.21 4358.87H2718.35V4305.55H2933.48V4345.34L2820.07 4605.38H2753.62Z" fill="#575757" fill-opacity="0.6"/>
<path d="M1995.75 4226.91L2034.73 4159.41H1956.78L1995.75 4226.91ZM1995.75 3907.41L1956.78 3974.91H2034.73L1995.75 3907.41ZM2002.5 4166.16V3968.16H1989V4166.16H2002.5Z" fill="white"/>
<path d="M2066.33 4106.16L2093.13 4047.47H2057.93V4034.77H2109.15V4044.24L2082.15 4106.16H2066.33ZM2123.55 4106.16L2150.36 4047.47H2115.16V4034.77H2166.38V4044.24L2139.37 4106.16H2123.55ZM2207.88 4050.54C2214.03 4050.54 2219 4052.94 2222.77 4057.72C2226.58 4062.51 2228.49 4069.52 2228.49 4078.77C2228.49 4084.95 2227.59 4090.16 2225.8 4094.39C2224.01 4098.59 2221.54 4101.76 2218.38 4103.91C2215.22 4106.06 2211.59 4107.13 2207.49 4107.13C2204.85 4107.13 2202.59 4106.81 2200.7 4106.16C2198.81 4105.47 2197.2 4104.61 2195.87 4103.57C2194.53 4102.5 2193.38 4101.36 2192.4 4100.15H2191.62C2191.88 4101.45 2192.08 4102.79 2192.21 4104.16C2192.34 4105.52 2192.4 4106.86 2192.4 4108.16V4130.18H2177.51V4051.57H2189.62L2191.72 4058.65H2192.4C2193.38 4057.18 2194.57 4055.83 2195.97 4054.6C2197.37 4053.36 2199.04 4052.38 2201 4051.67C2202.98 4050.92 2205.28 4050.54 2207.88 4050.54ZM2203.09 4062.46C2200.49 4062.46 2198.42 4062.99 2196.89 4064.07C2195.36 4065.14 2194.24 4066.75 2193.52 4068.9C2192.84 4071.05 2192.47 4073.77 2192.4 4077.06V4078.67C2192.4 4082.18 2192.73 4085.16 2193.38 4087.6C2194.06 4090.04 2195.18 4091.9 2196.75 4093.17C2198.34 4094.44 2200.52 4095.07 2203.29 4095.07C2205.57 4095.07 2207.44 4094.44 2208.91 4093.17C2210.37 4091.9 2211.46 4090.04 2212.18 4087.6C2212.93 4085.13 2213.3 4082.12 2213.3 4078.57C2213.3 4073.23 2212.47 4069.21 2210.81 4066.51C2209.15 4063.81 2206.58 4062.46 2203.09 4062.46ZM2251.97 4078.28L2234.39 4051.57H2251.29L2261.88 4068.95L2272.58 4051.57H2289.47L2271.7 4078.28L2290.3 4106.16H2273.36L2261.88 4087.46L2250.36 4106.16H2233.47L2251.97 4078.28Z" fill="white"/>
</svg>
