<svg width="651" height="128" viewBox="0 0 651 128" fill="none" xmlns="http://www.w3.org/2000/svg">
<path d="M166.419 92.8577V44.8577H200.169V55.3577H179.45V63.6077H198.106V74.1077H179.45V92.8577H166.419ZM251.462 68.8577C251.462 74.2014 250.423 78.7092 248.344 82.3811C246.266 86.0374 243.462 88.8108 239.93 90.7014C236.399 92.5764 232.462 93.5139 228.118 93.5139C223.743 93.5139 219.79 92.5686 216.259 90.678C212.743 88.7717 209.946 85.9905 207.868 82.3342C205.805 78.6624 204.774 74.1702 204.774 68.8577C204.774 63.5139 205.805 59.0139 207.868 55.3577C209.946 51.6858 212.743 48.9124 216.259 47.0374C219.79 45.1467 223.743 44.2014 228.118 44.2014C232.462 44.2014 236.399 45.1467 239.93 47.0374C243.462 48.9124 246.266 51.6858 248.344 55.3577C250.423 59.0139 251.462 63.5139 251.462 68.8577ZM238.055 68.8577C238.055 65.9827 237.673 63.5608 236.907 61.592C236.157 59.6077 235.04 58.1077 233.555 57.092C232.087 56.0608 230.274 55.5452 228.118 55.5452C225.962 55.5452 224.141 56.0608 222.657 57.092C221.188 58.1077 220.071 59.6077 219.305 61.592C218.555 63.5608 218.18 65.9827 218.18 68.8577C218.18 71.7327 218.555 74.1624 219.305 76.1467C220.071 78.1155 221.188 79.6155 222.657 80.6467C224.141 81.6624 225.962 82.1702 228.118 82.1702C230.274 82.1702 232.087 81.6624 233.555 80.6467C235.04 79.6155 236.157 78.1155 236.907 76.1467C237.673 74.1624 238.055 71.7327 238.055 68.8577ZM257.491 92.8577V44.8577H278.21C281.772 44.8577 284.889 45.5061 287.561 46.803C290.233 48.0999 292.311 49.967 293.796 52.4045C295.28 54.842 296.022 57.7639 296.022 61.1702C296.022 64.6077 295.257 67.5061 293.725 69.8655C292.21 72.2249 290.077 74.0061 287.327 75.2092C284.592 76.4124 281.397 77.0139 277.741 77.0139H265.366V66.8889H275.116C276.647 66.8889 277.952 66.7014 279.03 66.3264C280.124 65.9358 280.96 65.3186 281.538 64.4749C282.132 63.6311 282.428 62.5295 282.428 61.1702C282.428 59.7952 282.132 58.678 281.538 57.8186C280.96 56.9436 280.124 56.303 279.03 55.8967C277.952 55.4749 276.647 55.2639 275.116 55.2639H270.522V92.8577H257.491ZM285.616 70.8264L297.616 92.8577H283.46L271.741 70.8264H285.616ZM301.577 92.8577V44.8577H314.608V64.2639H315.264L329.702 44.8577H344.889L328.671 66.2327L345.264 92.8577H329.702L318.921 74.8577L314.608 80.4827V92.8577H301.577ZM348.757 92.8577V44.8577H369.475C373.038 44.8577 376.155 45.5608 378.827 46.967C381.499 48.3733 383.577 50.3499 385.061 52.8967C386.546 55.4436 387.288 58.4202 387.288 61.8264C387.288 65.2639 386.522 68.2405 384.991 70.7561C383.475 73.2717 381.343 75.2092 378.593 76.5686C375.858 77.928 372.663 78.6077 369.007 78.6077H356.632V68.4827H366.382C367.913 68.4827 369.217 68.217 370.296 67.6858C371.389 67.1389 372.225 66.3655 372.803 65.3655C373.397 64.3655 373.694 63.1858 373.694 61.8264C373.694 60.4514 373.397 59.2795 372.803 58.3108C372.225 57.3264 371.389 56.5764 370.296 56.0608C369.217 55.5295 367.913 55.2639 366.382 55.2639H361.788V92.8577H348.757ZM438.569 68.8577C438.569 74.2014 437.53 78.7092 435.452 82.3811C433.374 86.0374 430.569 88.8108 427.038 90.7014C423.507 92.5764 419.569 93.5139 415.225 93.5139C410.85 93.5139 406.897 92.5686 403.366 90.678C399.85 88.7717 397.053 85.9905 394.975 82.3342C392.913 78.6624 391.882 74.1702 391.882 68.8577C391.882 63.5139 392.913 59.0139 394.975 55.3577C397.053 51.6858 399.85 48.9124 403.366 47.0374C406.897 45.1467 410.85 44.2014 415.225 44.2014C419.569 44.2014 423.507 45.1467 427.038 47.0374C430.569 48.9124 433.374 51.6858 435.452 55.3577C437.53 59.0139 438.569 63.5139 438.569 68.8577ZM425.163 68.8577C425.163 65.9827 424.78 63.5608 424.014 61.592C423.264 59.6077 422.147 58.1077 420.663 57.092C419.194 56.0608 417.382 55.5452 415.225 55.5452C413.069 55.5452 411.249 56.0608 409.764 57.092C408.296 58.1077 407.178 59.6077 406.413 61.592C405.663 63.5608 405.288 65.9827 405.288 68.8577C405.288 71.7327 405.663 74.1624 406.413 76.1467C407.178 78.1155 408.296 79.6155 409.764 80.6467C411.249 81.6624 413.069 82.1702 415.225 82.1702C417.382 82.1702 419.194 81.6624 420.663 80.6467C422.147 79.6155 423.264 78.1155 424.014 76.1467C424.78 74.1624 425.163 71.7327 425.163 68.8577ZM457.63 44.8577V92.8577H444.598V44.8577H457.63ZM505.337 44.8577V92.8577H494.462L477.118 67.6389H476.837V92.8577H463.805V44.8577H474.868L491.93 69.9827H492.305V44.8577H505.337ZM510.188 55.3577V44.8577H551.907V55.3577H537.469V92.8577H524.626V55.3577H510.188Z" fill="#575757"/>
<path d="M103.099 80.5159C91.0275 101.6 74.1892 116.82 52.1835 126.351C49.1935 127.646 47.1333 127.399 44.6073 125.289C20.0493 104.768 5.35155 78.7405 0.553944 47.1162C-0.17979 42.2797 2.28316 39.5108 10.06 36.3098C11.7394 61.5347 20.5065 83.8898 36.9409 103.139C37.6973 104.025 38.4442 104.926 39.2682 105.747C51.9522 118.382 47.5429 118.455 63.3404 108.313C84.8844 94.4804 98.2001 74.4511 103.442 49.238C103.673 48.1275 104.128 47.0637 104.484 45.9645C114.408 49.9419 114.854 50.4157 111.583 59.9263C109.213 66.8186 106.064 73.4429 103.099 80.5159Z" fill="#575757"/>
<path d="M47.9282 31.0493C43.9875 32.0398 40.4587 32.9172 36.737 33.8426C36.5581 32.9902 36.3097 32.375 36.3186 31.7636C36.47 21.3386 35.0416 23.1617 44.5594 21.1758C75.5686 14.7058 103.95 20.9734 129.67 39.5605C132.84 41.852 133.76 44.257 133.169 47.9421C128.097 79.5247 113.306 105.516 88.428 125.632C87.0424 126.752 84.2684 126.804 82.325 126.42C79.9544 125.952 77.7789 124.495 74.9592 123.212C76.4092 122.01 77.467 121.065 78.5937 120.21C101.561 102.792 115.933 79.9805 121.849 51.7545C122.54 48.4557 121.849 46.6491 119.019 44.818C97.2829 30.7516 73.6884 26.4558 47.9282 31.0493Z" fill="#575757"/>
<path d="M57.2329 11.3849C48.9545 12.9292 41.1361 14.4512 33.3088 15.9263C30.2433 16.504 29.1318 18.2348 28.8611 21.3841C26.3242 50.9083 35.7251 76.037 56.3661 97.1042C57.5182 98.28 58.8415 99.2879 59.8944 100.207C59.6702 100.996 59.6813 101.429 59.4942 101.546C49.3349 107.898 52.0329 108.232 44.5245 99.7259C22.8881 75.2152 14.5475 46.5899 19.1707 14.1459C19.6764 10.5975 21.1876 9.0231 24.3691 7.90597C51.1784 -1.50747 78.1036 -2.11652 105.193 6.54827C115.015 9.69013 115.522 10.4943 114.995 21.4839C96.6605 13.4057 77.6733 9.4438 57.2329 11.3849Z" fill="#575757"/>
</svg>
