<svg width="651" height="128" viewBox="0 0 651 128" fill="none" xmlns="http://www.w3.org/2000/svg">
<path d="M166.285 93.4233V45.4233H200.035V55.9233H179.316V64.1733H197.972V74.6733H179.316V93.4233H166.285ZM251.328 69.4233C251.328 74.7671 250.289 79.2749 248.211 82.9468C246.133 86.603 243.328 89.3765 239.797 91.2671C236.265 93.1421 232.328 94.0796 227.984 94.0796C223.609 94.0796 219.656 93.1343 216.125 91.2437C212.609 89.3374 209.812 86.5562 207.734 82.8999C205.672 79.228 204.64 74.7358 204.64 69.4233C204.64 64.0796 205.672 59.5796 207.734 55.9233C209.812 52.2515 212.609 49.478 216.125 47.603C219.656 45.7124 223.609 44.7671 227.984 44.7671C232.328 44.7671 236.265 45.7124 239.797 47.603C243.328 49.478 246.133 52.2515 248.211 55.9233C250.289 59.5796 251.328 64.0796 251.328 69.4233ZM237.922 69.4233C237.922 66.5483 237.539 64.1265 236.773 62.1577C236.023 60.1733 234.906 58.6733 233.422 57.6577C231.953 56.6265 230.14 56.1108 227.984 56.1108C225.828 56.1108 224.008 56.6265 222.523 57.6577C221.054 58.6733 219.937 60.1733 219.172 62.1577C218.422 64.1265 218.047 66.5483 218.047 69.4233C218.047 72.2983 218.422 74.728 219.172 76.7124C219.937 78.6812 221.054 80.1812 222.523 81.2124C224.008 82.228 225.828 82.7358 227.984 82.7358C230.14 82.7358 231.953 82.228 233.422 81.2124C234.906 80.1812 236.023 78.6812 236.773 76.7124C237.539 74.728 237.922 72.2983 237.922 69.4233ZM257.357 93.4233V45.4233H278.076C281.638 45.4233 284.756 46.0718 287.427 47.3687C290.099 48.6655 292.177 50.5327 293.662 52.9702C295.146 55.4077 295.888 58.3296 295.888 61.7358C295.888 65.1733 295.123 68.0718 293.592 70.4312C292.076 72.7905 289.943 74.5718 287.193 75.7749C284.459 76.978 281.263 77.5796 277.607 77.5796H265.232V67.4546H274.982C276.513 67.4546 277.818 67.2671 278.896 66.8921C279.99 66.5015 280.826 65.8843 281.404 65.0405C281.998 64.1968 282.295 63.0952 282.295 61.7358C282.295 60.3608 281.998 59.2437 281.404 58.3843C280.826 57.5093 279.99 56.8687 278.896 56.4624C277.818 56.0405 276.513 55.8296 274.982 55.8296H270.388V93.4233H257.357ZM285.482 71.3921L297.482 93.4233H283.326L271.607 71.3921H285.482ZM301.443 93.4233V45.4233H314.474V64.8296H315.131L329.568 45.4233H344.756L328.537 66.7983L345.131 93.4233H329.568L318.787 75.4233L314.474 81.0483V93.4233H301.443ZM348.623 93.4233V45.4233H369.342C372.904 45.4233 376.021 46.1265 378.693 47.5327C381.365 48.939 383.443 50.9155 384.927 53.4624C386.412 56.0093 387.154 58.9858 387.154 62.3921C387.154 65.8296 386.388 68.8062 384.857 71.3218C383.342 73.8374 381.209 75.7749 378.459 77.1343C375.724 78.4937 372.529 79.1733 368.873 79.1733H356.498V69.0483H366.248C367.779 69.0483 369.084 68.7827 370.162 68.2515C371.256 67.7046 372.092 66.9312 372.67 65.9312C373.263 64.9312 373.56 63.7515 373.56 62.3921C373.56 61.0171 373.263 59.8452 372.67 58.8765C372.092 57.8921 371.256 57.1421 370.162 56.6265C369.084 56.0952 367.779 55.8296 366.248 55.8296H361.654V93.4233H348.623ZM438.435 69.4233C438.435 74.7671 437.396 79.2749 435.318 82.9468C433.24 86.603 430.435 89.3765 426.904 91.2671C423.373 93.1421 419.435 94.0796 415.092 94.0796C410.717 94.0796 406.763 93.1343 403.232 91.2437C399.717 89.3374 396.92 86.5562 394.842 82.8999C392.779 79.228 391.748 74.7358 391.748 69.4233C391.748 64.0796 392.779 59.5796 394.842 55.9233C396.92 52.2515 399.717 49.478 403.232 47.603C406.763 45.7124 410.717 44.7671 415.092 44.7671C419.435 44.7671 423.373 45.7124 426.904 47.603C430.435 49.478 433.24 52.2515 435.318 55.9233C437.396 59.5796 438.435 64.0796 438.435 69.4233ZM425.029 69.4233C425.029 66.5483 424.646 64.1265 423.881 62.1577C423.131 60.1733 422.013 58.6733 420.529 57.6577C419.06 56.6265 417.248 56.1108 415.092 56.1108C412.935 56.1108 411.115 56.6265 409.631 57.6577C408.162 58.6733 407.045 60.1733 406.279 62.1577C405.529 64.1265 405.154 66.5483 405.154 69.4233C405.154 72.2983 405.529 74.728 406.279 76.7124C407.045 78.6812 408.162 80.1812 409.631 81.2124C411.115 82.228 412.935 82.7358 415.092 82.7358C417.248 82.7358 419.06 82.228 420.529 81.2124C422.013 80.1812 423.131 78.6812 423.881 76.7124C424.646 74.728 425.029 72.2983 425.029 69.4233ZM457.496 45.4233V93.4233H444.465V45.4233H457.496ZM505.203 45.4233V93.4233H494.328L476.984 68.2046H476.703V93.4233H463.672V45.4233H474.734L491.797 70.5483H492.172V45.4233H505.203ZM510.054 55.9233V45.4233H551.773V55.9233H537.336V93.4233H524.492V55.9233H510.054Z" fill="white"/>
<path d="M102.965 81.0815C90.8937 102.165 74.0554 117.385 52.0497 126.917C49.0597 128.212 46.9995 127.965 44.4735 125.854C19.9155 105.333 5.21776 79.306 0.420155 47.6818C-0.313579 42.8452 2.14937 40.0764 9.92626 36.8754C11.6056 62.1003 20.3727 84.4553 36.8071 103.705C37.5635 104.591 38.3104 105.491 39.1344 106.312C51.8184 118.947 47.4091 119.021 63.2067 108.878C84.7506 95.046 98.0663 75.0167 103.308 49.8036C103.539 48.693 103.995 47.6293 104.35 46.5301C114.274 50.5074 114.72 50.9812 111.45 60.4918C109.079 67.3842 105.93 74.0085 102.965 81.0815Z" fill="#8ACF31"/>
<path d="M47.7944 31.615C43.8537 32.6055 40.3249 33.4829 36.6032 34.4083C36.4243 33.5559 36.176 32.9407 36.1848 32.3292C36.3362 21.9043 34.9079 23.7274 44.4256 21.7415C75.4348 15.2714 103.816 21.5391 129.536 40.1262C132.707 42.4177 133.627 44.8226 133.035 48.5078C127.963 80.0904 113.173 106.081 88.2942 126.197C86.9086 127.318 84.1346 127.369 82.1912 126.985C79.8206 126.517 77.6451 125.061 74.8254 123.777C76.2754 122.576 77.3332 121.631 78.4599 120.776C101.428 103.357 115.799 80.5462 121.715 52.3202C122.407 49.0214 121.715 47.2148 118.885 45.3836C97.1491 31.3172 73.5546 27.0215 47.7944 31.615Z" fill="#8ACF31"/>
<path d="M57.0991 11.9505C48.8207 13.4949 41.0023 15.0169 33.175 16.492C30.1096 17.0697 28.998 18.8005 28.7273 21.9498C26.1904 51.474 35.5913 76.6026 56.2324 97.6699C57.3844 98.8457 58.7077 99.8536 59.7606 100.773C59.5364 101.561 59.5475 101.995 59.3604 102.112C49.2011 108.464 51.8991 108.797 44.3907 100.292C22.7544 75.7809 14.4137 47.1556 19.0369 14.7115C19.5426 11.1631 21.0538 9.58877 24.2353 8.47164C51.0446 -0.941794 77.9698 -1.55085 105.059 7.11395C114.882 10.2558 115.388 11.06 114.862 22.0495C96.5267 13.9714 77.5395 10.0095 57.0991 11.9505Z" fill="#8ACF31"/>
</svg>
