<svg width="651" height="127" viewBox="0 0 651 127" fill="none" xmlns="http://www.w3.org/2000/svg">
<path d="M166.285 92.4446V44.4446H200.035V54.9446H179.316V63.1946H197.972V73.6946H179.316V92.4446H166.285ZM251.328 68.4446C251.328 73.7883 250.289 78.2961 248.211 81.968C246.133 85.6243 243.328 88.3977 239.797 90.2883C236.265 92.1633 232.328 93.1008 227.984 93.1008C223.609 93.1008 219.656 92.1555 216.125 90.2649C212.609 88.3586 209.812 85.5774 207.734 81.9211C205.672 78.2493 204.64 73.7571 204.64 68.4446C204.64 63.1008 205.672 58.6008 207.734 54.9446C209.812 51.2727 212.609 48.4993 216.125 46.6243C219.656 44.7336 223.609 43.7883 227.984 43.7883C232.328 43.7883 236.265 44.7336 239.797 46.6243C243.328 48.4993 246.133 51.2727 248.211 54.9446C250.289 58.6008 251.328 63.1008 251.328 68.4446ZM237.922 68.4446C237.922 65.5696 237.539 63.1477 236.773 61.179C236.023 59.1946 234.906 57.6946 233.422 56.679C231.953 55.6477 230.14 55.1321 227.984 55.1321C225.828 55.1321 224.008 55.6477 222.523 56.679C221.054 57.6946 219.937 59.1946 219.172 61.179C218.422 63.1477 218.047 65.5696 218.047 68.4446C218.047 71.3196 218.422 73.7493 219.172 75.7336C219.937 77.7024 221.054 79.2024 222.523 80.2336C224.008 81.2493 225.828 81.7571 227.984 81.7571C230.14 81.7571 231.953 81.2493 233.422 80.2336C234.906 79.2024 236.023 77.7024 236.773 75.7336C237.539 73.7493 237.922 71.3196 237.922 68.4446ZM257.357 92.4446V44.4446H278.076C281.638 44.4446 284.756 45.093 287.427 46.3899C290.099 47.6868 292.177 49.554 293.662 51.9915C295.146 54.429 295.888 57.3508 295.888 60.7571C295.888 64.1946 295.123 67.093 293.592 69.4524C292.076 71.8118 289.943 73.593 287.193 74.7961C284.459 75.9993 281.263 76.6008 277.607 76.6008H265.232V66.4758H274.982C276.513 66.4758 277.818 66.2883 278.896 65.9133C279.99 65.5227 280.826 64.9055 281.404 64.0618C281.998 63.218 282.295 62.1165 282.295 60.7571C282.295 59.3821 281.998 58.2649 281.404 57.4055C280.826 56.5305 279.99 55.8899 278.896 55.4836C277.818 55.0618 276.513 54.8508 274.982 54.8508H270.388V92.4446H257.357ZM285.482 70.4133L297.482 92.4446H283.326L271.607 70.4133H285.482ZM301.443 92.4446V44.4446H314.474V63.8508H315.131L329.568 44.4446H344.756L328.537 65.8196L345.131 92.4446H329.568L318.787 74.4446L314.474 80.0696V92.4446H301.443ZM348.623 92.4446V44.4446H369.342C372.904 44.4446 376.021 45.1477 378.693 46.554C381.365 47.9602 383.443 49.9368 384.927 52.4836C386.412 55.0305 387.154 58.0071 387.154 61.4133C387.154 64.8508 386.388 67.8274 384.857 70.343C383.342 72.8586 381.209 74.7961 378.459 76.1555C375.724 77.5149 372.529 78.1946 368.873 78.1946H356.498V68.0696H366.248C367.779 68.0696 369.084 67.804 370.162 67.2727C371.256 66.7258 372.092 65.9524 372.67 64.9524C373.263 63.9524 373.56 62.7727 373.56 61.4133C373.56 60.0383 373.263 58.8665 372.67 57.8977C372.092 56.9133 371.256 56.1633 370.162 55.6477C369.084 55.1165 367.779 54.8508 366.248 54.8508H361.654V92.4446H348.623ZM438.435 68.4446C438.435 73.7883 437.396 78.2961 435.318 81.968C433.24 85.6243 430.435 88.3977 426.904 90.2883C423.373 92.1633 419.435 93.1008 415.092 93.1008C410.717 93.1008 406.763 92.1555 403.232 90.2649C399.717 88.3586 396.92 85.5774 394.842 81.9211C392.779 78.2493 391.748 73.7571 391.748 68.4446C391.748 63.1008 392.779 58.6008 394.842 54.9446C396.92 51.2727 399.717 48.4993 403.232 46.6243C406.763 44.7336 410.717 43.7883 415.092 43.7883C419.435 43.7883 423.373 44.7336 426.904 46.6243C430.435 48.4993 433.24 51.2727 435.318 54.9446C437.396 58.6008 438.435 63.1008 438.435 68.4446ZM425.029 68.4446C425.029 65.5696 424.646 63.1477 423.881 61.179C423.131 59.1946 422.013 57.6946 420.529 56.679C419.06 55.6477 417.248 55.1321 415.092 55.1321C412.935 55.1321 411.115 55.6477 409.631 56.679C408.162 57.6946 407.045 59.1946 406.279 61.179C405.529 63.1477 405.154 65.5696 405.154 68.4446C405.154 71.3196 405.529 73.7493 406.279 75.7336C407.045 77.7024 408.162 79.2024 409.631 80.2336C411.115 81.2493 412.935 81.7571 415.092 81.7571C417.248 81.7571 419.06 81.2493 420.529 80.2336C422.013 79.2024 423.131 77.7024 423.881 75.7336C424.646 73.7493 425.029 71.3196 425.029 68.4446ZM457.496 44.4446V92.4446H444.465V44.4446H457.496ZM505.203 44.4446V92.4446H494.328L476.984 67.2258H476.703V92.4446H463.672V44.4446H474.734L491.797 69.5696H492.172V44.4446H505.203ZM510.054 54.9446V44.4446H551.773V54.9446H537.336V92.4446H524.492V54.9446H510.054Z" fill="white"/>
<path d="M102.965 80.1026C90.8937 101.186 74.0554 116.406 52.0497 125.938C49.0597 127.233 46.9995 126.986 44.4735 124.875C19.9155 104.354 5.21776 78.3271 0.420155 46.7029C-0.313579 41.8664 2.14937 39.0975 9.92626 35.8965C11.6056 61.1214 20.3727 83.4764 36.8071 102.726C37.5635 103.612 38.3104 104.512 39.1344 105.333C51.8184 117.968 47.4091 118.042 63.2067 107.899C84.7506 94.0671 98.0663 74.0378 103.308 48.8247C103.539 47.7141 103.995 46.6504 104.35 45.5512C114.274 49.5285 114.72 50.0023 111.45 59.5129C109.079 66.4053 105.93 73.0296 102.965 80.1026Z" fill="white"/>
<path d="M47.7944 30.6362C43.8537 31.6267 40.3249 32.5041 36.6032 33.4295C36.4243 32.5771 36.176 31.9619 36.1848 31.3505C36.3362 20.9255 34.9079 22.7486 44.4256 20.7627C75.4348 14.2927 103.816 20.5603 129.536 39.1474C132.707 41.4389 133.627 43.8439 133.035 47.529C127.963 79.1116 113.173 105.103 88.2942 125.219C86.9086 126.339 84.1346 126.391 82.1912 126.007C79.8206 125.538 77.6451 124.082 74.8254 122.799C76.2754 121.597 77.3332 120.652 78.4599 119.797C101.428 102.378 115.799 79.5674 121.715 51.3414C122.407 48.0426 121.715 46.236 118.885 44.4049C97.1491 30.3385 73.5546 26.0427 47.7944 30.6362Z" fill="white"/>
<path d="M57.0991 10.9718C48.8207 12.5162 41.0023 14.0381 33.175 15.5132C30.1096 16.0909 28.998 17.8217 28.7273 20.9711C26.1904 50.4952 35.5913 75.6239 56.2324 96.6911C57.3844 97.8669 58.7077 98.8748 59.7606 99.7944C59.5364 100.582 59.5475 101.016 59.3604 101.133C49.2011 107.485 51.8991 107.819 44.3907 99.3128C22.7544 74.8021 14.4137 46.1768 19.0369 13.7328C19.5426 10.1844 21.0538 8.61001 24.2353 7.49288C51.0446 -1.92055 77.9698 -2.52961 105.059 6.13519C114.882 9.27705 115.388 10.0812 114.862 21.0708C96.5267 12.9926 77.5395 9.03071 57.0991 10.9718Z" fill="white"/>
</svg>
