 <svg  version="1.0" xmlns="http://www.w3.org/2000/svg"  width="512.000000pt" height="512.000000pt" viewBox="0 0 512.000000 512.000000"  preserveAspectRatio="xMidYMid meet">  <g transform="translate(0.000000,512.000000) scale(0.050000,-0.050000)" fill="#8822bf" stroke="none"> <path d="M8272 10149 c-87 -37 -168 -62 -180 -55 -15 8 -16 5 -1 -11 18 -19 327 89 367 128 21 22 -40 1 -186 -62z"/> <path d="M7723 9133 c-1123 -1121 -1056 -1069 -1396 -1093 -598 -44 -755 -745 -216 -972 345 -145 658 88 689 513 24 323 -21 266 1081 1369 1031 1032 1047 1051 954 1125 -97 78 -58 110 -1112 -942z m-1137 -1280 c-8 -13 2 -10 21 5 39 32 69 15 38 -23 -11 -14 -21 -65 -21 -115 -1 -100 -15 -244 -32 -319 -15 -68 -109 -156 -182 -171 -46 -10 -53 -8 -30 8 17 12 21 22 9 22 -12 0 -31 -10 -43 -22 -26 -26 -186 -5 -186 24 0 10 -7 17 -15 16 -43 -7 -63 6 -69 47 -4 25 -18 43 -31 40 -14 -3 -25 12 -25 34 0 21 -7 43 -17 49 -20 13 -5 128 19 143 10 6 18 25 18 41 0 17 -9 25 -20 18 -12 -7 -15 -23 -7 -34 8 -14 4 -16 -13 -6 -20 13 -14 27 27 62 29 25 53 52 53 59 0 33 91 85 115 65 18 -15 25 -13 25 5 0 14 6 20 13 13 7 -8 26 -3 42 10 15 13 69 26 118 28 50 3 94 8 97 12 20 19 108 9 96 -11z"/> <path d="M7870 10008 c-55 -26 -82 -43 -60 -36 101 31 162 55 179 71 34 31 -15 16 -119 -35z"/> <path d="M4260 9986 c-60 -3 -204 -21 -320 -38 -115 -18 -230 -33 -255 -33 -25 0 -50 -7 -56 -17 -6 -9 -23 -12 -38 -6 -15 6 -33 1 -40 -11 -8 -12 -21 -17 -31 -11 -9 6 -92 -14 -183 -43 -92 -30 -178 -52 -192 -50 -14 3 -25 -4 -25 -15 0 -12 -13 -16 -30 -9 -16 6 -30 1 -30 -12 0 -13 -8 -19 -17 -13 -9 6 -71 -16 -138 -47 -67 -32 -127 -52 -133 -46 -7 6 -12 1 -12 -13 0 -13 -8 -19 -18 -13 -11 6 -32 -2 -48 -18 -16 -16 -35 -24 -42 -17 -6 7 -12 3 -12 -9 0 -12 -27 -28 -60 -35 -33 -7 -60 -22 -60 -33 0 -11 -9 -14 -20 -7 -11 7 -20 1 -20 -12 0 -14 -6 -19 -13 -12 -6 7 -51 -14 -98 -47 -47 -32 -96 -59 -108 -59 -11 0 -21 -9 -21 -20 0 -11 -13 -20 -30 -20 -16 0 -30 -9 -30 -20 0 -11 -12 -20 -27 -20 -14 0 -47 -22 -73 -50 -26 -27 -55 -50 -65 -50 -16 0 -95 -59 -252 -190 -900 -748 -1430 -1841 -1510 -3115 l-8 -135 1142 0 c629 0 1162 -6 1185 -12 39 -10 43 -1 53 145 33 451 229 878 546 1196 128 128 345 291 388 291 12 0 21 9 21 20 0 11 7 18 15 16 8 -2 46 13 85 33 234 124 619 200 934 184 l244 -12 75 152 75 151 11 383 c22 713 157 834 1319 1174 70 21 131 41 135 46 9 8 -104 59 -123 54 -6 -1 -25 11 -42 28 -17 17 -39 26 -50 20 -10 -6 -18 0 -18 13 0 14 -5 19 -12 13 -6 -6 -66 14 -133 46 -67 31 -129 53 -138 47 -9 -6 -17 0 -17 13 0 13 -13 18 -30 12 -16 -7 -30 -2 -30 10 0 12 -13 16 -30 10 -16 -7 -30 -2 -30 9 0 11 -8 16 -17 10 -9 -6 -64 7 -121 29 -58 22 -113 35 -123 28 -11 -6 -19 -1 -19 12 0 14 -17 19 -40 13 -22 -6 -40 -1 -40 10 0 12 -22 15 -52 7 -37 -9 -47 -6 -37 11 11 17 0 20 -38 11 -34 -9 -53 -6 -53 9 0 12 -14 17 -32 10 -18 -7 -109 2 -203 20 -94 17 -209 29 -256 25 -47 -4 -81 0 -76 8 9 14 -219 15 -453 1z m380 -36 c0 -16 16 -31 35 -33 19 -1 70 -5 112 -7 42 -2 83 -12 90 -22 15 -21 23 -22 143 -30 50 -3 95 -14 102 -23 7 -10 72 -19 146 -19 73 -1 138 -9 144 -19 6 -9 39 -18 74 -19 35 0 53 -6 39 -11 -58 -24 -21 -50 53 -37 67 11 82 7 101 -28 13 -24 34 -36 51 -29 16 6 44 -4 62 -22 23 -23 53 -30 102 -22 38 6 64 3 57 -7 -6 -10 3 -23 20 -30 18 -6 26 -21 19 -32 -7 -11 2 -20 19 -20 17 0 31 -7 31 -16 0 -23 -145 -84 -199 -84 -39 0 -42 -5 -21 -30 21 -26 20 -29 -4 -20 -16 7 -55 1 -88 -12 -32 -13 -67 -27 -78 -30 -149 -47 -222 -83 -214 -106 7 -20 0 -22 -27 -7 -46 26 -93 1 -202 -108 -46 -46 -87 -80 -92 -76 -4 5 -4 -17 0 -49 13 -84 -11 -89 -306 -60 -301 28 -299 29 -279 -76 11 -57 18 -67 28 -40 19 51 49 46 65 -10 l13 -46 2 45 c2 46 62 66 62 20 1 -17 7 -15 21 5 17 26 23 26 47 -5 14 -19 39 -35 54 -35 23 1 24 3 1 18 -19 12 -21 21 -5 31 12 7 28 0 34 -17 6 -17 29 -36 51 -43 31 -10 34 -18 16 -40 -13 -16 -18 -43 -11 -60 6 -18 3 -26 -8 -19 -28 18 -25 -17 5 -49 20 -21 20 -24 0 -13 -28 16 -28 23 -25 -405 1 -158 -7 -297 -17 -310 -19 -22 -23 -35 -23 -70 0 -9 -18 -38 -40 -63 -22 -25 -40 -37 -40 -25 0 26 -65 22 -85 -5 -9 -13 -22 -9 -35 10 -13 20 -19 22 -20 5 0 -14 -13 -25 -30 -25 -16 0 -30 10 -30 22 0 16 -9 15 -30 -2 -20 -16 -30 -17 -30 -3 0 12 -11 18 -25 14 -14 -4 -82 -13 -152 -19 -70 -6 -139 -21 -154 -32 -18 -16 -30 -15 -40 2 -10 16 -7 19 11 8 17 -11 21 -8 12 7 -8 13 -23 18 -33 12 -11 -6 -37 -15 -59 -20 -22 -5 -59 -13 -82 -18 -77 -17 -128 -34 -188 -61 -33 -15 -121 -55 -196 -88 -75 -34 -160 -79 -188 -101 -28 -22 -59 -36 -68 -30 -10 6 -18 3 -18 -7 0 -11 -31 -53 -69 -94 -38 -42 -72 -98 -75 -126 -13 -106 -72 -56 -848 718 -863 862 -860 858 -678 858 26 0 59 11 74 25 14 14 89 74 166 134 146 114 150 117 228 181 26 22 55 40 64 40 8 0 31 15 49 34 19 19 49 37 66 39 18 3 35 14 39 26 8 22 183 109 209 104 8 -2 15 5 15 15 0 9 16 23 35 30 19 6 89 43 155 81 66 37 136 69 156 70 23 1 31 10 22 26 -8 14 -7 18 2 10 9 -8 30 -3 47 10 25 21 28 20 13 -5 -15 -26 -13 -26 16 -3 19 16 34 20 34 11 0 -9 11 -5 24 8 13 13 48 24 77 24 29 0 81 14 116 31 34 18 71 27 81 20 10 -6 22 -2 25 8 4 11 39 22 77 24 39 2 81 12 93 22 13 9 58 21 100 25 43 5 100 14 127 22 50 13 114 21 211 26 33 1 46 10 37 25 -10 16 -5 18 14 6 35 -23 76 -24 133 -5 25 8 67 7 94 -3 34 -13 51 -12 58 5 5 13 11 8 11 -11 1 -19 10 -35 20 -35 9 0 16 -77 15 -172 -2 -94 4 -176 13 -182 9 -5 8 -20 -2 -33 -9 -13 -18 -84 -20 -160 -2 -138 -29 -203 -77 -185 -14 6 -31 2 -38 -9 -6 -10 -31 -19 -55 -19 -24 0 -67 -12 -96 -27 -28 -15 -75 -25 -105 -21 -29 3 -53 -3 -53 -13 0 -11 -13 -19 -30 -19 -16 0 -30 -10 -30 -22 0 -13 19 -18 45 -12 97 23 429 57 495 51 l70 -7 11 -150 c7 -82 13 149 15 515 l4 665 70 0 c49 0 70 -9 70 -30z m-3094 -1505 c9 -14 24 -21 33 -16 9 6 22 -3 28 -19 7 -17 25 -30 41 -30 16 0 35 -18 42 -40 7 -22 26 -40 41 -40 16 0 29 -7 29 -15 0 -8 23 -41 50 -73 28 -32 50 -52 50 -45 0 7 18 -5 40 -27 22 -22 40 -48 40 -59 0 -10 18 -24 40 -31 22 -7 40 -20 40 -29 0 -9 27 -27 60 -41 74 -31 74 -26 -9 -127 -152 -186 -294 -389 -345 -493 -29 -60 -66 -126 -83 -145 -16 -19 -24 -40 -18 -47 18 -18 95 58 95 94 0 36 47 84 65 66 6 -6 17 -1 24 11 8 12 7 20 -3 16 -24 -8 -30 11 -15 50 7 19 28 35 46 35 23 1 26 5 9 16 -14 9 -17 26 -7 42 9 15 26 21 37 14 12 -7 27 -3 35 9 7 12 25 17 40 11 17 -6 23 0 16 18 -6 15 -24 22 -41 16 -26 -10 -26 -6 -4 30 20 31 31 36 44 18 12 -16 14 -13 7 9 -22 69 214 253 240 187 6 -16 29 -30 51 -30 28 0 37 -9 28 -31 -6 -17 -5 -27 4 -21 9 5 33 -17 55 -49 21 -33 45 -59 53 -59 20 0 176 -150 176 -170 0 -21 81 -90 106 -90 12 0 15 -6 8 -12 -12 -13 34 -70 55 -69 18 1 83 -70 97 -107 8 -19 22 -30 32 -23 10 6 24 -5 31 -24 18 -46 16 -55 -14 -56 -14 0 -23 -12 -20 -26 3 -13 -17 -58 -45 -98 -27 -41 -50 -86 -50 -100 0 -14 -9 -25 -20 -25 -17 0 -62 -85 -63 -120 -1 -23 -67 -120 -81 -120 -9 0 -16 -16 -16 -36 0 -20 -8 -45 -17 -55 -10 -10 -33 -86 -52 -169 -19 -82 -40 -163 -46 -180 -13 -33 -20 -63 -29 -140 -9 -76 -75 -142 -118 -119 -20 11 -40 11 -46 2 -19 -30 -199 -21 -237 12 -32 28 -35 28 -35 0 0 -21 -13 -28 -40 -21 -22 6 -51 2 -65 -9 -14 -11 -38 -17 -55 -14 -93 20 -122 28 -143 41 -14 9 -18 5 -9 -8 9 -16 -27 -22 -122 -22 -75 1 -170 -3 -212 -8 -102 -14 -105 0 -68 292 17 136 23 252 13 262 -10 10 -16 2 -16 -20 12 -307 -93 -477 -295 -481 -87 -1 -194 -4 -238 -6 -173 -6 -281 0 -310 19 -16 11 -20 20 -8 20 12 0 21 14 21 30 0 17 -9 30 -20 30 -13 0 -12 9 3 24 17 17 17 30 1 50 -16 19 -15 26 3 26 17 0 19 8 5 25 -11 14 -16 43 -12 65 4 22 15 101 25 176 10 75 29 148 41 163 17 20 17 31 1 41 -15 10 -14 23 4 46 22 27 21 29 -4 14 -24 -14 -26 -12 -8 11 13 16 29 72 37 124 7 53 20 92 28 87 8 -5 14 15 13 44 -3 70 11 95 32 61 13 -20 17 -15 18 18 0 25 10 45 21 45 12 0 16 9 9 20 -7 12 -23 15 -36 9 -13 -7 -10 0 8 15 17 14 30 42 27 61 -3 19 3 35 14 35 11 0 14 9 7 20 -7 11 -4 20 5 20 10 0 17 20 17 45 -1 27 8 43 25 39 18 -3 22 8 13 35 -8 25 -4 41 10 41 12 0 17 9 10 20 -7 11 -2 20 10 20 12 0 17 8 11 18 -6 11 2 32 19 49 16 17 30 44 30 60 0 17 11 37 23 45 16 10 20 4 11 -20 -8 -20 -6 -29 6 -22 23 14 27 83 5 95 -8 5 -4 6 8 3 30 -7 49 42 33 85 -8 22 -5 29 10 19 14 -8 28 6 36 37 7 28 22 51 34 51 11 0 15 6 7 13 -7 7 5 26 27 41 22 16 40 46 40 68 0 21 13 44 28 50 16 6 34 33 41 59 6 27 26 49 43 49 17 0 26 7 20 16 -5 9 8 32 29 50 21 19 39 47 39 63 0 16 11 36 25 45 14 9 56 57 95 108 68 91 115 111 146 63z"/> <path d="M3640 8840 c0 -11 -7 -18 -15 -16 -176 45 -1345 -620 -1345 -765 0 -65 177 5 279 110 38 39 79 71 91 71 12 0 52 31 89 69 37 38 74 65 82 60 8 -5 53 22 99 61 46 39 92 65 102 59 10 -6 41 13 71 42 37 37 57 46 67 28 12 -18 19 -17 33 4 9 15 60 50 112 77 52 28 95 57 95 66 0 9 8 11 18 5 25 -15 84 9 72 29 -6 9 6 12 26 7 20 -5 49 4 63 22 14 17 38 31 53 31 16 0 28 10 28 21 0 12 10 15 23 7 14 -9 18 -5 9 9 -18 28 -52 30 -52 3z"/> <path d="M7051 9729 c-66 -28 -129 -60 -140 -72 -13 -14 -13 -19 -1 -13 112 53 177 79 207 81 34 3 102 56 69 54 -9 0 -70 -23 -135 -50z"/> <path d="M8939 9636 c-14 -36 -48 -114 -74 -173 -38 -85 -43 -113 -24 -130 17 -16 21 -16 13 -1 -7 12 19 97 57 188 39 91 67 169 62 173 -4 5 -19 -21 -34 -57z"/> <path d="M8788 9208 c-7 -21 -29 -74 -48 -118 -55 -126 -60 -148 -34 -163 13 -7 18 -7 11 1 -7 8 13 79 45 157 32 78 54 146 49 151 -6 5 -16 -7 -23 -28z"/> <path d="M8504 8534 c-35 -69 -64 -153 -64 -185 -1 -47 -5 -53 -22 -29 -17 23 -19 18 -12 -24 4 -30 2 -51 -7 -46 -19 12 -84 -86 -71 -107 6 -9 -2 -39 -16 -67 -52 -100 -76 -316 -34 -316 23 0 71 117 67 164 -1 22 6 31 20 23 14 -9 17 -2 9 20 -7 18 -4 33 6 33 10 0 14 14 7 30 -6 17 -1 30 12 30 13 0 18 9 11 19 -6 11 7 57 31 102 23 46 37 96 31 112 -7 16 -4 24 6 18 24 -15 44 42 28 82 -9 24 -5 29 13 18 19 -12 22 -5 11 29 -11 33 -8 41 11 29 16 -10 20 -7 11 7 -7 13 1 51 19 86 19 37 25 70 14 81 -10 10 -43 -33 -81 -109z"/> <path d="M8260 7698 c0 -32 -329 -967 -371 -1051 -137 -282 -332 -372 -839 -389 -392 -13 -464 -26 -610 -115 l-69 -42 -1 -326 c-4 -1051 -733 -1846 -1750 -1909 l-170 -10 -860 -857 -860 -856 -150 -44 c-82 -25 -157 -49 -167 -54 -29 -16 488 -246 757 -336 614 -206 1384 -267 2010 -160 105 18 217 37 250 43 33 5 150 37 260 72 110 35 214 65 231 69 356 67 1173 596 1616 1044 396 402 908 1217 971 1547 3 14 34 116 68 226 35 110 67 232 72 270 5 39 23 148 41 242 75 399 76 956 3 1341 -15 81 -24 154 -18 163 5 9 1 27 -9 40 -10 13 -19 47 -21 76 -9 155 -384 1147 -384 1016z m80 -646 c-26 -26 -26 -52 1 -52 12 0 15 11 6 25 -9 16 -2 15 20 -3 22 -18 28 -35 16 -47 -12 -12 -5 -33 19 -57 20 -20 32 -51 25 -68 -6 -17 -1 -30 13 -30 13 0 19 -13 13 -29 -6 -17 -3 -35 7 -41 10 -6 13 -24 7 -41 -6 -16 -3 -29 8 -29 11 0 20 -25 19 -55 0 -30 7 -71 15 -90 9 -19 10 -48 4 -65 -7 -16 -4 -30 6 -30 10 0 15 -27 10 -60 -4 -33 0 -60 8 -60 8 0 16 -19 18 -43 2 -24 10 -49 19 -55 28 -21 30 -122 2 -122 -19 -1 -17 -7 4 -22 19 -13 22 -24 8 -30 -20 -8 -11 -124 20 -263 l10 -45 -1052 0 c-848 0 -1047 5 -1030 25 12 14 24 75 28 135 6 94 12 109 43 104 25 -5 32 1 22 18 -11 17 -3 21 28 13 24 -6 39 -4 33 5 -5 8 13 20 41 25 27 5 54 3 60 -6 9 -16 36 -14 89 6 58 22 140 29 140 12 0 -9 10 -17 21 -17 12 0 16 8 10 18 -13 21 109 18 143 -4 13 -8 28 -7 34 3 6 10 32 19 57 21 25 2 73 5 108 8 35 2 59 11 54 19 -5 8 9 15 31 15 22 0 45 9 52 20 7 11 26 20 43 20 16 0 44 14 61 31 49 49 63 14 79 -211 10 -141 19 -187 26 -140 6 39 3 132 -7 209 -14 102 -13 141 5 147 12 4 23 15 23 24 0 8 54 68 120 133 66 64 120 131 120 149 0 17 18 48 40 68 23 21 38 47 33 59 -4 11 9 45 29 73 20 29 31 58 24 65 -7 7 -1 13 14 13 15 0 21 6 14 13 -7 6 1 39 18 72 19 36 22 54 8 45 -18 -11 -19 -5 -1 28 12 23 17 42 11 42 -6 0 18 32 54 71 60 66 67 69 90 36 18 -23 20 -41 6 -55z m145 -1344 c31 -6 50 -20 44 -30 -6 -10 3 -24 20 -30 37 -14 42 -108 6 -108 -17 -1 -18 -5 -3 -15 29 -19 31 -205 3 -205 -12 0 -16 -5 -10 -12 7 -6 -1 -54 -16 -105 -34 -112 -34 -108 -9 -93 12 7 20 -11 20 -44 -1 -44 -5 -49 -20 -26 -14 22 -18 11 -13 -40 3 -38 -1 -89 -9 -112 -8 -23 -20 -76 -27 -119 -7 -43 -20 -86 -30 -96 -10 -10 -13 -29 -8 -43 5 -14 1 -32 -11 -39 -11 -7 -15 -27 -8 -45 7 -18 4 -27 -6 -21 -11 7 -21 -3 -22 -21 -5 -63 -18 -100 -47 -136 -26 -31 -25 -34 1 -18 26 15 26 13 3 -15 -14 -18 -21 -42 -15 -52 7 -10 -2 -24 -19 -31 -18 -6 -26 -20 -20 -30 6 -10 0 -31 -14 -46 -14 -15 -27 -40 -30 -56 -9 -47 -93 -229 -110 -237 -8 -3 -15 -22 -15 -42 0 -19 -18 -51 -39 -70 -22 -20 -39 -41 -38 -48 5 -42 -6 -64 -26 -51 -14 8 -18 5 -10 -7 15 -25 -178 -323 -220 -339 -15 -6 -27 -23 -27 -38 0 -15 -9 -28 -20 -28 -11 0 -20 -13 -20 -30 0 -16 -9 -30 -20 -30 -11 0 -20 -12 -20 -26 0 -14 -40 -65 -90 -112 -49 -47 -90 -94 -90 -104 0 -10 -10 -18 -23 -18 -42 0 -75 -66 -53 -107 16 -31 10 -30 -42 9 -69 51 -79 47 -94 -34 -12 -65 -65 -133 -91 -116 -9 6 -17 -1 -17 -16 0 -28 -125 -136 -157 -136 -10 0 -24 -13 -30 -30 -7 -16 -26 -30 -42 -30 -17 0 -31 -9 -31 -20 0 -27 -330 -240 -370 -240 -16 0 -30 -9 -30 -21 0 -22 -311 -179 -355 -179 -15 0 -22 -9 -16 -19 7 -10 -6 -15 -28 -11 -23 4 -41 1 -41 -7 0 -9 -61 -37 -135 -62 -74 -26 -144 -54 -155 -61 -11 -8 -51 -15 -88 -16 -37 -1 -73 -10 -80 -20 -11 -16 -145 -56 -262 -77 -27 -5 -72 -14 -100 -20 -27 -6 -77 -15 -110 -19 -33 -4 -96 -12 -140 -19 -44 -6 -145 -19 -224 -30 -79 -10 -176 -36 -215 -58 l-71 -40 0 479 0 480 -109 0 c-60 0 -200 10 -311 23 -158 18 -207 18 -226 -1 -13 -14 -15 -23 -4 -21 11 2 25 2 30 0 6 -2 37 -8 70 -13 33 -5 74 -15 90 -21 17 -6 53 -14 80 -17 113 -13 190 -33 197 -51 3 -11 13 -15 22 -10 8 6 11 -15 7 -45 -7 -38 -4 -46 10 -27 10 15 24 20 29 10 11 -19 3 -519 -10 -567 -21 -81 -40 -120 -58 -120 -10 0 -14 8 -8 18 17 28 -34 39 -77 17 -43 -22 -340 7 -370 37 -5 4 -20 -2 -35 -14 -20 -17 -29 -15 -38 6 -7 20 -44 30 -113 32 -56 1 -109 12 -117 25 -8 13 -38 24 -67 24 -28 0 -52 6 -52 13 0 8 -28 16 -63 18 -35 3 -91 17 -125 32 -34 15 -102 39 -152 53 -49 14 -105 39 -124 55 -18 15 -44 21 -58 13 -15 -10 -19 -7 -10 8 8 13 6 23 -5 23 -45 0 10 88 139 221 76 78 138 152 138 164 0 12 6 16 12 9 7 -6 63 39 125 102 62 63 127 114 143 115 17 0 27 13 24 27 -7 34 53 102 89 102 15 0 27 7 27 15 0 30 203 225 222 214 10 -7 17 0 13 15 -3 14 6 24 20 21 14 -3 23 3 20 13 -4 16 367 408 511 539 l51 48 -12 -48 c-10 -40 -8 -43 18 -22 27 22 30 -6 29 -231 -1 -141 4 -283 11 -315 7 -33 13 114 15 325 l2 383 58 -16 c32 -10 111 -13 175 -7 64 5 135 10 157 11 22 2 47 12 57 24 11 14 19 13 26 -4 8 -19 24 -15 60 14 27 21 63 34 79 27 16 -6 46 4 66 22 20 19 45 32 54 29 27 -6 132 46 183 90 25 22 45 33 45 23 0 -9 16 -2 36 16 19 18 69 46 110 64 41 17 74 38 74 47 0 9 32 34 70 54 39 21 70 44 70 51 0 8 32 29 71 47 54 26 68 43 59 71 -11 35 18 69 60 70 11 0 20 10 20 22 0 21 34 63 155 192 30 33 55 69 55 82 0 12 21 41 46 63 25 23 34 33 20 24 -46 -31 -28 15 34 87 33 39 56 80 52 93 -5 12 1 32 13 44 12 12 25 38 27 58 9 61 110 414 130 450 12 23 11 35 -2 35 -11 0 -20 14 -20 30 0 17 10 30 22 30 17 0 16 8 -1 28 -18 23 -16 34 13 52 26 16 29 25 11 33 -14 6 -21 17 -17 24 10 17 1838 27 1917 11z"/> <path d="M7307 5656 c-5 -9 27 -16 72 -16 44 0 81 7 81 15 0 20 -140 21 -153 1z"/> <path d="M6487 3692 c0 -17 12 -24 30 -17 17 7 24 3 17 -9 -7 -11 5 -37 26 -56 21 -19 35 -42 30 -51 -6 -8 8 -11 30 -5 25 7 44 -1 52 -22 7 -17 22 -32 33 -32 12 0 5 18 -15 40 -20 22 -49 40 -64 40 -16 0 -23 8 -17 19 6 10 -7 24 -30 31 -23 8 -37 19 -31 25 13 13 -25 65 -47 65 -8 0 -14 -13 -14 -28z"/> <path d="M6722 3412 c-23 -25 -42 -53 -41 -63 0 -11 9 -3 21 16 18 32 24 32 51 5 37 -37 60 -38 73 -3 23 59 -58 94 -104 45z"/> <path d="M7208 2988 c3 -21 16 -39 29 -40 49 -6 52 -9 24 -27 -17 -10 -25 -23 -20 -29 6 -5 23 -2 40 8 24 16 20 28 -25 73 -45 45 -53 48 -48 15z"/> <path d="M4475 2841 c-6 -21 -3 -68 5 -105 15 -60 16 -57 18 39 2 109 -6 133 -23 66z"/> <path d="M4702 7466 c-56 -63 -102 -121 -102 -130 0 -27 -54 -18 -80 14 -16 19 -59 30 -117 30 l-91 0 -788 -785 c-433 -432 -814 -820 -846 -863 -61 -81 -78 -133 -32 -95 18 14 34 15 47 2 12 -12 34 -5 63 22 28 26 44 31 44 15 0 -14 30 8 67 49 36 41 79 75 95 75 23 1 23 4 -2 22 -24 17 -21 20 15 12 28 -7 40 -2 32 10 -14 23 205 237 224 219 6 -7 5 5 -3 26 -9 21 -7 33 4 27 24 -13 89 56 71 77 -7 8 4 2 26 -14 21 -16 33 -19 25 -6 -7 12 7 44 33 70 64 66 133 185 133 229 1 119 39 86 917 -795 562 -565 873 -891 857 -900 -13 -7 -55 -16 -93 -20 -49 -5 -95 -31 -154 -89 -46 -45 -99 -88 -117 -95 -18 -7 -29 -20 -25 -28 4 -8 -13 -35 -39 -59 -25 -25 -46 -38 -47 -30 0 8 -9 -2 -21 -21 -11 -19 -35 -35 -54 -35 -25 -1 -27 -5 -9 -17 27 -17 -22 -79 -65 -82 -11 0 -20 -9 -20 -19 0 -29 -103 -102 -122 -86 -9 8 -3 -3 13 -25 16 -21 19 -33 6 -25 -12 7 -35 -2 -50 -20 -23 -29 -23 -31 3 -16 29 16 -31 -66 -67 -92 -9 -7 -3 -39 14 -70 l30 -58 832 830 831 830 0 89 c0 56 -13 102 -35 127 -34 37 -32 41 45 108 44 39 78 78 75 88 -3 10 4 18 15 18 11 0 20 9 20 20 0 11 -27 19 -60 16 -33 -2 -60 -12 -60 -20 0 -9 -13 -16 -30 -16 -16 0 -30 -7 -30 -15 0 -9 -18 -27 -40 -41 -39 -24 -1360 1255 -1360 1316 0 10 27 61 60 113 37 58 56 109 48 132 -6 20 0 50 13 66 13 16 19 29 13 29 -6 0 -57 -51 -112 -114z m-252 -306 c10 16 21 16 42 -1 15 -13 28 -18 28 -11 0 7 33 -19 73 -59 55 -56 76 -67 89 -46 14 21 17 22 18 1 0 -14 99 -123 220 -242 121 -119 214 -222 206 -229 -7 -7 5 -13 26 -13 32 -1 33 -4 8 -20 -26 -17 -25 -19 5 -20 19 0 35 -14 35 -31 0 -17 8 -26 18 -20 10 6 66 -38 124 -98 59 -59 115 -103 125 -96 11 6 13 1 5 -11 -7 -12 10 -37 38 -56 28 -18 47 -37 42 -42 -12 -12 63 -85 115 -113 73 -39 238 -229 222 -255 -9 -14 -7 -19 5 -12 39 24 49 -162 12 -205 -18 -21 -42 -34 -53 -27 -10 7 -14 3 -7 -8 7 -11 -12 -43 -42 -71 -30 -27 -78 -76 -107 -107 -90 -97 -140 -138 -160 -133 -11 4 -15 -3 -8 -14 14 -22 -57 -66 -76 -47 -7 7 -14 -9 -15 -36 0 -26 -6 -36 -12 -22 -7 18 -24 11 -57 -25 -49 -53 -82 -69 -57 -28 10 16 4 20 -19 11 -30 -12 -44 16 -35 71 1 8 -9 13 -22 10 -14 -3 -39 22 -55 55 -21 40 -44 58 -67 54 -19 -4 -33 0 -30 9 3 10 -19 41 -49 71 -30 30 -55 50 -55 45 0 -5 -17 7 -37 26 -20 19 -32 43 -27 53 6 10 1 13 -10 6 -22 -14 -88 50 -125 122 -13 25 -33 39 -45 31 -15 -9 -18 -2 -11 18 10 24 3 30 -26 25 -28 -6 -42 6 -51 41 -7 27 -22 49 -34 49 -12 0 -53 34 -91 75 -38 41 -63 62 -55 45 9 -18 4 -17 -13 5 -16 19 -35 28 -43 20 -8 -7 -8 4 0 26 8 21 7 32 -2 24 -17 -15 -110 81 -110 113 0 10 -6 13 -13 5 -14 -14 -80 68 -72 91 2 7 -15 20 -39 27 -61 20 -123 82 -107 108 8 12 2 20 -13 16 -14 -3 -24 7 -21 21 4 15 -2 22 -12 16 -31 -19 -208 162 -214 218 -3 27 3 45 13 39 10 -6 18 6 18 26 0 21 23 50 51 65 28 15 46 39 41 52 -6 16 4 23 30 18 23 -5 34 1 27 12 -15 24 49 102 71 88 8 -5 21 18 27 50 7 33 24 60 40 60 15 0 71 42 124 94 52 51 90 83 82 71 -7 -12 -2 -29 12 -37 14 -8 19 -7 11 1 -8 9 -5 35 7 57 21 39 24 39 48 6 17 -23 30 -27 39 -12z"/> <path d="M5755 7065 c-19 -4 -35 -17 -35 -28 0 -10 -7 -15 -15 -11 -20 12 -107 -122 -87 -135 16 -10 196 163 181 175 -5 4 -25 3 -44 -1z"/> <path d="M253 5684 c-13 -20 19 -392 47 -564 12 -71 25 -157 29 -190 3 -33 8 -60 10 -60 2 0 8 -30 12 -67 5 -37 37 -150 71 -250 34 -101 65 -201 69 -223 22 -111 303 -708 316 -670 5 17 30 93 54 170 24 77 57 154 74 170 17 17 25 20 19 8 -7 -12 32 -68 85 -123 144 -149 166 -255 109 -508 -40 -175 -27 -196 102 -161 476 127 899 -302 719 -730 -46 -110 -7 -142 125 -104 53 15 160 28 237 28 147 0 150 -1 343 -142 44 -31 44 -31 32 45 -12 78 -111 199 -144 178 -10 -6 -27 1 -39 15 -13 16 -67 25 -142 25 -66 -1 -121 5 -121 13 0 8 -15 9 -33 2 -24 -9 -29 -5 -18 13 12 19 7 20 -25 3 -23 -12 -45 -22 -50 -22 -10 0 3 138 16 174 4 14 -1 30 -12 37 -12 7 -16 25 -10 41 6 15 -2 58 -18 95 -16 37 -23 74 -16 80 7 7 2 13 -10 13 -26 0 -88 108 -73 127 5 7 4 9 -3 5 -16 -12 -158 125 -158 152 0 20 -38 35 -105 41 -14 1 -25 9 -25 18 0 9 -15 10 -33 3 -23 -9 -29 -5 -19 11 8 12 12 23 8 24 -3 1 -46 6 -96 12 -107 14 -126 37 -90 106 37 69 222 242 241 225 9 -8 9 -3 1 11 -8 14 -5 25 7 25 11 0 21 14 21 30 0 17 14 30 30 30 17 0 30 9 30 20 0 11 11 18 24 15 13 -3 25 4 26 15 1 11 14 43 29 70 15 28 -109 -87 -276 -255 -167 -168 -313 -305 -323 -305 -23 0 -16 98 9 139 13 20 10 23 -11 10 -24 -14 -24 -12 -1 17 20 24 21 34 4 34 -15 0 -20 27 -15 78 10 100 -32 191 -147 320 -17 19 -28 44 -24 57 4 13 -9 18 -34 11 -25 -6 -41 -1 -41 14 0 20 -6 20 -30 0 -84 -69 -13 27 114 154 79 80 139 150 133 155 -6 6 -58 -39 -117 -100 -70 -74 -111 -104 -120 -88 -11 17 -19 17 -29 1 -8 -13 -24 -17 -35 -9 -13 8 -16 4 -8 -10 13 -20 -24 -33 -73 -25 -8 1 -15 -10 -15 -26 0 -15 -15 -39 -34 -55 -29 -23 -31 -23 -17 1 14 22 9 26 -20 14 -21 -8 -32 -9 -25 -2 7 7 0 36 -15 65 -15 29 -22 61 -15 72 7 10 3 13 -9 6 -13 -8 -27 11 -35 47 -7 33 -20 60 -27 60 -8 0 -16 23 -19 52 -2 28 -10 62 -18 75 -8 13 -16 41 -17 63 -4 68 -31 131 -50 119 -11 -6 -19 25 -19 71 0 50 -8 77 -20 70 -11 -7 -20 7 -20 30 0 29 8 37 25 27 20 -11 20 -8 1 15 -28 34 -60 166 -64 264 -1 20 -9 32 -18 26 -9 -5 -18 55 -21 134 -3 78 -11 148 -19 153 -8 6 -16 38 -19 71 -10 105 -11 110 -28 110 -9 0 -17 14 -17 31 0 52 -66 108 -87 73z"/> <path d="M1295 5622 c-28 -106 83 -742 129 -742 10 0 12 20 4 45 -18 57 -18 74 1 133 10 32 8 43 -6 34 -33 -21 -53 88 -24 133 18 29 18 35 0 25 -16 -11 -19 -3 -11 25 7 22 4 64 -7 94 -16 40 -15 50 2 39 16 -10 20 -4 11 18 -7 18 -2 39 10 47 14 8 6 20 -23 30 -36 14 -41 23 -23 45 18 21 16 30 -10 40 -18 7 -27 25 -21 42 7 17 4 30 -5 30 -10 0 -22 -17 -27 -38z"/> <path d="M4565 4980 c-36 -33 -65 -66 -65 -73 0 -8 20 5 45 28 25 24 54 45 65 49 10 3 21 17 23 31 4 32 8 34 -68 -35z"/> <path d="M1462 4567 c-119 -119 -134 -128 -100 -62 23 45 23 45 -17 5 -21 -22 -32 -43 -22 -47 9 -3 17 -16 17 -27 0 -11 -12 -16 -26 -10 -15 6 -25 -6 -25 -29 0 -28 41 3 149 112 83 82 146 153 141 157 -5 4 -57 -41 -117 -99z"/> <path d="M1973 4023 c-52 -57 -38 -86 17 -35 28 26 50 52 50 59 0 25 -34 13 -67 -24z"/> <path d="M771 3582 c9 -32 6 -43 -9 -33 -13 8 -17 1 -10 -18 7 -17 4 -31 -7 -31 -10 0 -19 -11 -19 -25 -1 -43 -15 -85 -33 -97 -9 -7 -18 -36 -20 -63 -2 -28 -9 -48 -16 -43 -7 4 -23 -19 -34 -53 -12 -35 -13 -55 -2 -49 10 7 13 -2 7 -19 -7 -17 -21 -31 -31 -31 -11 0 -14 -9 -7 -19 6 -11 -7 -56 -30 -101 -23 -45 -36 -90 -30 -101 7 -10 2 -19 -11 -19 -13 0 -18 -14 -11 -31 7 -20 4 -26 -12 -17 -15 10 -19 4 -10 -19 7 -18 3 -33 -9 -33 -12 0 -16 -13 -10 -30 7 -16 2 -30 -11 -30 -12 0 -17 -5 -11 -12 7 -7 -9 -62 -36 -123 -27 -61 -48 -121 -47 -133 6 -50 -3 -74 -24 -61 -15 10 -18 0 -8 -31 10 -33 8 -41 -10 -30 -17 10 -22 6 -15 -12 5 -15 -3 -53 -19 -84 -15 -30 -22 -64 -16 -75 7 -10 2 -19 -10 -19 -12 0 -16 -11 -8 -24 21 -33 128 100 128 158 0 25 9 46 19 46 11 0 15 14 8 30 -6 17 -1 30 12 30 13 0 19 7 13 16 -5 9 12 65 39 123 28 59 45 111 40 117 -6 6 -2 20 8 33 10 12 22 46 25 74 4 29 19 66 32 83 14 16 24 37 22 47 -4 18 9 60 47 147 12 28 25 73 29 100 4 28 15 68 24 90 10 22 29 69 42 105 14 36 31 65 37 65 23 0 24 189 2 220 -17 23 -19 20 -8 -18z"/> <path d="M2240 2077 c0 -10 -11 -16 -25 -13 -14 2 -78 -20 -142 -51 -64 -31 -129 -51 -145 -45 -15 6 -28 1 -28 -11 0 -12 -21 -18 -49 -12 -28 5 -46 3 -41 -4 11 -20 -116 -72 -268 -111 -70 -18 -148 -46 -175 -64 -38 -25 -47 -25 -48 -3 0 19 -6 17 -20 -6 -17 -31 -106 -70 -195 -87 -19 -4 -36 -9 -39 -11 -3 -2 -12 -6 -20 -8 -65 -18 -126 -56 -152 -93 -46 -65 -21 -82 63 -45 41 18 90 32 109 31 19 -1 35 7 35 17 0 10 15 12 33 5 21 -8 29 -5 21 8 -8 12 6 21 31 22 25 0 96 23 158 51 62 28 118 45 125 38 7 -6 12 -1 12 11 0 13 14 18 30 11 17 -6 30 -1 30 12 0 13 8 18 18 12 11 -6 92 21 181 60 89 39 170 66 180 60 10 -6 31 2 47 18 16 16 34 25 39 19 6 -5 63 14 128 43 64 28 133 53 152 55 19 1 35 11 35 20 0 10 13 13 29 7 18 -7 25 -1 19 14 -12 31 -128 77 -128 50z"/> <path d="M191 1976 c-164 -477 -193 -594 -163 -652 56 -109 86 -109 419 8 145 50 275 95 289 99 21 7 18 22 -10 70 -127 215 -508 554 -535 475z m199 -328 c40 -53 49 -76 31 -87 -13 -9 -26 -23 -28 -33 -2 -10 -14 -17 -28 -15 -14 1 -25 -4 -25 -12 0 -8 -21 -24 -46 -36 -64 -29 -114 2 -99 59 16 59 64 152 66 126 1 -11 10 0 20 25 24 62 45 57 109 -27z"/> </g> </svg> 