<svg width="2447" height="1997" viewBox="0 0 2447 1997" fill="none" xmlns="http://www.w3.org/2000/svg">
<rect x="3.84961" y="5.64062" width="2440" height="1988.49" fill="#D9D9D9" stroke="#575757" stroke-width="5"/>
<path d="M921.541 4.19873V1983.1" stroke="#575757" stroke-width="8" stroke-linecap="square"/>
<path d="M467.988 1810.89H439.401V1759.34C439.401 1758.39 439.401 1756.66 439.401 1754.14C439.401 1751.57 439.425 1748.75 439.473 1745.66C439.568 1742.57 439.687 1739.79 439.829 1737.32C438.593 1738.79 437.429 1740.05 436.336 1741.09C435.29 1742.14 434.269 1743.11 433.271 1744.02L421.437 1753.78L406.822 1735.82L442.609 1706.66H467.988V1810.89Z" fill="#575757"/>
<path d="M1766.16 1068.89H1690.52V1050.35L1715.97 1024.62C1721.25 1019.1 1725.34 1014.68 1728.23 1011.36C1731.18 1008.03 1733.25 1005.2 1734.44 1002.87C1735.62 1000.54 1736.22 998.12 1736.22 995.602C1736.22 992.512 1735.22 990.279 1733.22 988.9C1731.23 987.522 1728.88 986.833 1726.17 986.833C1722.89 986.833 1719.56 987.784 1716.19 989.685C1712.86 991.538 1709.08 994.295 1704.85 997.954L1689.38 979.847C1692.52 977.043 1695.85 974.381 1699.36 971.862C1702.88 969.296 1707.04 967.205 1711.84 965.589C1716.64 963.973 1722.48 963.165 1729.38 963.165C1736.46 963.165 1742.59 964.401 1747.77 966.872C1753 969.343 1757.04 972.742 1759.89 977.066C1762.74 981.344 1764.16 986.215 1764.16 991.681C1764.16 997.716 1763.05 1003.11 1760.81 1007.86C1758.63 1012.57 1755.32 1017.3 1750.9 1022.05C1746.48 1026.75 1740.97 1032.1 1734.37 1038.09L1726.74 1044.93V1045.65H1766.16V1068.89Z" fill="#575757"/>
<path d="M4.34766 1487.61H923.348" stroke="#575757" stroke-width="7" stroke-linecap="square"/>
<path d="M492.054 654.085C492.054 659.028 490.984 663.306 488.846 666.917C486.755 670.482 483.951 673.405 480.434 675.686C476.964 677.967 473.162 679.678 469.027 680.819V681.247C477.344 682.292 483.76 684.835 488.275 688.875C492.838 692.867 495.119 698.546 495.119 705.913C495.119 711.616 493.598 716.844 490.557 721.596C487.515 726.301 482.786 730.08 476.37 732.931C469.954 735.735 461.708 737.137 451.633 737.137C444.884 737.137 439.133 736.638 434.381 735.64C429.628 734.642 425.018 733.264 420.551 731.505V708.123C425.066 710.451 429.7 712.186 434.452 713.327C439.252 714.42 443.625 714.966 447.569 714.966C454.413 714.966 459.071 713.992 461.542 712.043C464.061 710.095 465.32 707.481 465.32 704.202C465.32 701.825 464.726 699.806 463.538 698.142C462.35 696.479 460.14 695.195 456.908 694.292C453.724 693.389 449.138 692.938 443.149 692.938H436.733V671.765H443.292C448.615 671.765 452.821 671.29 455.91 670.339C459.047 669.389 461.304 668.106 462.683 666.49C464.061 664.826 464.75 662.925 464.75 660.787C464.75 658.03 463.681 655.986 461.542 654.656C459.403 653.325 456.576 652.66 453.059 652.66C449.922 652.66 446.975 653.087 444.219 653.943C441.462 654.798 439.062 655.749 437.019 656.794C434.975 657.84 433.43 658.695 432.385 659.361L420.693 640.541C425.018 637.594 429.961 635.099 435.521 633.055C441.13 631.012 448.449 629.99 457.479 629.99C468.219 629.99 476.655 632.128 482.786 636.406C488.965 640.683 492.054 646.576 492.054 654.085Z" fill="#575757"/>
</svg>
