<svg width="2446" height="1996" viewBox="0 0 2446 1996" fill="none" xmlns="http://www.w3.org/2000/svg">
<rect x="3.44238" y="3.13379" width="2440" height="1990" fill="#D9D9D9" stroke="#575757" stroke-width="5"/>
<path d="M1083.44 10.1309V1986.68" stroke="#575757" stroke-width="8" stroke-linecap="square"/>
<path d="M574.904 1001.89H546.317V950.345C546.317 949.394 546.317 947.66 546.317 945.141C546.317 942.574 546.34 939.746 546.388 936.657C546.483 933.568 546.602 930.788 546.744 928.316C545.509 929.79 544.344 931.049 543.251 932.095C542.206 933.14 541.184 934.115 540.186 935.018L528.352 944.784L513.738 926.819L549.525 897.662H574.904V1001.89Z" fill="#575757"/>
<path d="M1809.87 1001.89H1734.24V983.352L1759.69 957.616C1764.96 952.103 1769.05 947.683 1771.95 944.356C1774.9 941.03 1776.96 938.202 1778.15 935.873C1779.34 933.544 1779.93 931.12 1779.93 928.602C1779.93 925.512 1778.94 923.279 1776.94 921.9C1774.94 920.522 1772.59 919.833 1769.88 919.833C1766.6 919.833 1763.28 920.784 1759.9 922.685C1756.57 924.538 1752.8 927.295 1748.57 930.954L1733.1 912.847C1736.23 910.043 1739.56 907.381 1743.08 904.862C1746.59 902.296 1750.75 900.205 1755.55 898.589C1760.35 896.973 1766.2 896.165 1773.09 896.165C1780.17 896.165 1786.3 897.401 1791.48 899.872C1796.71 902.343 1800.75 905.742 1803.6 910.066C1806.45 914.344 1807.88 919.215 1807.88 924.681C1807.88 930.716 1806.76 936.111 1804.53 940.863C1802.34 945.568 1799.04 950.297 1794.62 955.05C1790.2 959.755 1784.69 965.102 1778.08 971.09L1770.45 977.934V978.646H1809.87V1001.89Z" fill="#575757"/>
</svg>
