<svg width="2450" height="1998" viewBox="0 0 2450 1998" fill="none" xmlns="http://www.w3.org/2000/svg">
<rect x="5.10938" y="5.13232" width="2440" height="1990" fill="#D9D9D9" stroke="#575757" stroke-width="5"/>
<path d="M4.10156 1381.39H2446.1" stroke="#575757" stroke-width="7" stroke-linecap="square"/>
<path d="M642.801 4.14062V1378.88" stroke="#575757" stroke-width="8" stroke-linecap="square"/>
<path d="M290.486 847.887H261.899V796.345C261.899 795.394 261.899 793.66 261.899 791.141C261.899 788.574 261.923 785.746 261.971 782.657C262.066 779.568 262.185 776.788 262.327 774.316C261.091 775.79 259.927 777.049 258.834 778.095C257.788 779.14 256.767 780.115 255.769 781.018L243.935 790.784L229.32 772.819L265.107 743.662H290.486V847.887Z" fill="#575757"/>
<path d="M1624.83 771.261C1624.83 776.203 1623.76 780.481 1621.62 784.093C1619.53 787.657 1616.72 790.58 1613.21 792.861C1609.74 795.143 1605.93 796.854 1601.8 797.994V798.422C1610.12 799.467 1616.53 802.01 1621.05 806.05C1625.61 810.042 1627.89 815.721 1627.89 823.088C1627.89 828.791 1626.37 834.019 1623.33 838.771C1620.29 843.477 1615.56 847.255 1609.14 850.106C1602.73 852.91 1594.48 854.312 1584.4 854.312C1577.66 854.312 1571.9 853.813 1567.15 852.815C1562.4 851.817 1557.79 850.439 1553.32 848.681V825.298C1557.84 827.627 1562.47 829.361 1567.22 830.502C1572.02 831.595 1576.4 832.142 1580.34 832.142C1587.18 832.142 1591.84 831.167 1594.31 829.219C1596.83 827.27 1598.09 824.656 1598.09 821.377C1598.09 819.001 1597.5 816.981 1596.31 815.317C1595.12 813.654 1592.91 812.371 1589.68 811.468C1586.5 810.565 1581.91 810.113 1575.92 810.113H1569.5V788.94H1576.06C1581.39 788.94 1585.59 788.465 1588.68 787.515C1591.82 786.564 1594.08 785.281 1595.45 783.665C1596.83 782.002 1597.52 780.101 1597.52 777.962C1597.52 775.205 1596.45 773.162 1594.31 771.831C1592.17 770.5 1589.35 769.835 1585.83 769.835C1582.69 769.835 1579.75 770.263 1576.99 771.118C1574.23 771.974 1571.83 772.924 1569.79 773.97C1567.75 775.015 1566.2 775.871 1565.16 776.536L1553.46 757.716C1557.79 754.769 1562.73 752.274 1568.29 750.23C1573.9 748.187 1581.22 747.165 1590.25 747.165C1600.99 747.165 1609.43 749.304 1615.56 753.581C1621.74 757.858 1624.83 763.752 1624.83 771.261Z" fill="#575757"/>
<path d="M1009.32 1745.89H933.681V1727.35L959.131 1701.62C964.406 1696.1 968.493 1691.68 971.393 1688.36C974.339 1685.03 976.407 1682.2 977.595 1679.87C978.783 1677.54 979.377 1675.12 979.377 1672.6C979.377 1669.51 978.379 1667.28 976.383 1665.9C974.387 1664.52 972.034 1663.83 969.325 1663.83C966.046 1663.83 962.719 1664.78 959.345 1666.68C956.018 1668.54 952.24 1671.29 948.01 1674.95L932.54 1656.85C935.677 1654.04 939.004 1651.38 942.521 1648.86C946.037 1646.3 950.196 1644.2 954.996 1642.59C959.796 1640.97 965.642 1640.17 972.533 1640.17C979.615 1640.17 985.745 1641.4 990.926 1643.87C996.154 1646.34 1000.19 1649.74 1003.04 1654.07C1005.9 1658.34 1007.32 1663.22 1007.32 1668.68C1007.32 1674.72 1006.21 1680.11 1003.97 1684.86C1001.79 1689.57 998.482 1694.3 994.062 1699.05C989.643 1703.75 984.13 1709.1 977.523 1715.09L969.896 1721.93V1722.65H1009.32V1745.89Z" fill="#575757"/>
</svg>
