<svg width="2446" height="1988" viewBox="0 0 2446 1988" fill="none" xmlns="http://www.w3.org/2000/svg">
<rect x="3.07422" y="5.64453" width="2440" height="1979.74" fill="#D9D9D9" stroke="#575757" stroke-width="5"/>
<path d="M1654.77 4.64551V1979.17" stroke="#575757" stroke-width="8" stroke-linecap="square"/>
<path d="M790.766 4.64551V1979.17" stroke="#575757" stroke-width="8" stroke-linecap="square"/>
<path d="M461.986 1264.15H386.349V1245.61L411.799 1219.88C417.074 1214.36 421.161 1209.94 424.061 1206.62C427.007 1203.29 429.075 1200.46 430.263 1198.13C431.451 1195.8 432.045 1193.38 432.045 1190.86C432.045 1187.77 431.047 1185.54 429.051 1184.16C427.055 1182.78 424.702 1182.09 421.993 1182.09C418.714 1182.09 415.387 1183.04 412.013 1184.94C408.686 1186.8 404.908 1189.55 400.678 1193.21L385.208 1175.11C388.345 1172.3 391.672 1169.64 395.188 1167.12C398.705 1164.56 402.864 1162.46 407.664 1160.85C412.464 1159.23 418.31 1158.42 425.201 1158.42C432.283 1158.42 438.413 1159.66 443.594 1162.13C448.822 1164.6 452.861 1168 455.713 1172.33C458.564 1176.6 459.99 1181.47 459.99 1186.94C459.99 1192.98 458.873 1198.37 456.64 1203.12C454.453 1207.83 451.15 1212.56 446.73 1217.31C442.311 1222.01 436.798 1227.36 430.191 1233.35L422.563 1240.19V1240.91H461.986V1264.15Z" fill="#575757"/>
<path d="M1247.46 957.478H1218.87V905.936C1218.87 904.985 1218.87 903.25 1218.87 900.731C1218.87 898.165 1218.89 895.337 1218.94 892.248C1219.04 889.159 1219.15 886.379 1219.3 883.907C1218.06 885.381 1216.9 886.64 1215.8 887.686C1214.76 888.731 1213.74 889.705 1212.74 890.608L1200.9 900.375L1186.29 882.41L1222.08 853.253H1247.46V957.478Z" fill="#575757"/>
<path d="M2166.41 1116.52C2166.41 1121.46 2165.34 1125.74 2163.2 1129.35C2161.11 1132.92 2158.3 1135.84 2154.79 1138.12C2151.32 1140.4 2147.51 1142.11 2143.38 1143.25V1143.68C2151.7 1144.73 2158.11 1147.27 2162.63 1151.31C2167.19 1155.3 2169.47 1160.98 2169.47 1168.35C2169.47 1174.05 2167.95 1179.28 2164.91 1184.03C2161.87 1188.74 2157.14 1192.51 2150.72 1195.37C2144.31 1198.17 2136.06 1199.57 2125.98 1199.57C2119.24 1199.57 2113.49 1199.07 2108.73 1198.07C2103.98 1197.08 2099.37 1195.7 2094.9 1193.94V1170.56C2099.42 1172.89 2104.05 1174.62 2108.8 1175.76C2113.6 1176.85 2117.98 1177.4 2121.92 1177.4C2128.76 1177.4 2133.42 1176.43 2135.89 1174.48C2138.41 1172.53 2139.67 1169.92 2139.67 1166.64C2139.67 1164.26 2139.08 1162.24 2137.89 1160.58C2136.7 1158.91 2134.49 1157.63 2131.26 1156.73C2128.08 1155.82 2123.49 1155.37 2117.5 1155.37H2111.08V1134.2H2117.64C2122.97 1134.2 2127.17 1133.72 2130.26 1132.77C2133.4 1131.82 2135.66 1130.54 2137.03 1128.92C2138.41 1127.26 2139.1 1125.36 2139.1 1123.22C2139.1 1120.46 2138.03 1118.42 2135.89 1117.09C2133.75 1115.76 2130.93 1115.09 2127.41 1115.09C2124.27 1115.09 2121.33 1115.52 2118.57 1116.38C2115.81 1117.23 2113.41 1118.18 2111.37 1119.23C2109.33 1120.27 2107.78 1121.13 2106.74 1121.8L2095.04 1102.98C2099.37 1100.03 2104.31 1097.53 2109.87 1095.49C2115.48 1093.45 2122.8 1092.42 2131.83 1092.42C2142.57 1092.42 2151.01 1094.56 2157.14 1098.84C2163.32 1103.12 2166.41 1109.01 2166.41 1116.52Z" fill="#575757"/>
</svg>
