 <svg  version="1.0" xmlns="http://www.w3.org/2000/svg"  width="512.000000pt" height="512.000000pt" viewBox="0 0 512.000000 512.000000"  preserveAspectRatio="xMidYMid meet">  <g transform="translate(0.000000,512.000000) scale(0.050000,-0.050000)" fill="#00a1e0" stroke="none"> <path d="M8724 10176 c-29 -29 -32 -116 -5 -116 11 0 15 14 8 30 -18 48 10 107 34 69 15 -24 18 -23 19 6 0 41 -22 45 -56 11z"/> <path d="M8903 10067 c12 -15 17 -50 12 -77 -5 -28 -3 -55 4 -59 8 -5 16 30 18 77 3 65 -3 85 -26 85 -23 0 -25 -6 -8 -26z"/> <path d="M5430 10012 c-272 -121 -193 -512 104 -512 268 1 346 379 102 497 -102 50 -124 51 -206 15z m135 -177 c72 -56 46 -155 -41 -155 -120 0 -122 162 -3 178 6 1 26 -9 44 -23z"/> <path d="M2880 9916 c0 -9 -24 -11 -53 -3 -35 8 -48 6 -40 -8 8 -13 -13 -21 -57 -21 -38 0 -127 -27 -198 -60 -71 -33 -134 -55 -140 -49 -7 6 -12 1 -12 -13 0 -13 -9 -19 -20 -12 -11 7 -20 2 -20 -10 0 -12 -8 -17 -18 -12 -9 6 -54 -16 -99 -48 -46 -33 -92 -60 -103 -60 -11 0 -20 -10 -20 -21 0 -12 -8 -16 -18 -10 -11 6 -36 -11 -58 -38 -21 -27 -46 -43 -55 -35 -8 8 -9 4 -2 -9 9 -17 37 -12 97 17 47 23 106 41 132 41 35 0 41 5 21 17 -26 17 -23 20 22 26 11 1 36 16 55 33 20 16 43 32 51 35 8 2 17 5 20 5 3 1 27 6 54 11 27 5 55 19 63 31 7 12 23 16 34 9 11 -7 24 -4 27 7 9 25 117 43 117 20 0 -11 10 -19 21 -19 12 0 16 8 10 19 -11 17 30 37 106 52 18 3 38 8 43 10 45 20 500 35 488 16 -6 -9 33 -18 86 -19 163 -3 234 -14 255 -43 12 -14 37 -23 56 -19 19 4 41 -7 47 -25 9 -23 20 -26 38 -11 17 14 39 9 75 -20 28 -22 69 -42 91 -46 22 -3 52 -16 67 -27 15 -12 63 -37 107 -56 44 -19 112 -48 150 -65 83 -37 165 -50 149 -24 -7 10 -20 14 -29 8 -10 -6 -27 5 -37 25 -11 20 -45 49 -76 65 -32 16 -105 63 -165 104 -59 41 -115 70 -125 64 -9 -6 -17 -1 -17 11 0 11 -12 21 -27 21 -14 0 -82 23 -151 51 -68 27 -133 45 -143 38 -10 -6 -19 -1 -19 11 0 14 -16 18 -40 10 -25 -8 -40 -4 -40 11 0 15 -18 19 -49 11 -27 -7 -53 -4 -59 5 -14 22 -592 21 -592 -1z"/> <path d="M7180 9818 c-71 -21 -155 -42 -185 -47 -71 -11 -428 -174 -561 -257 -57 -36 -130 -79 -162 -95 -110 -55 -132 -68 -132 -84 0 -8 -13 -15 -28 -15 -16 0 -32 -7 -35 -15 -11 -24 -152 -125 -175 -125 -11 0 -27 -11 -36 -25 -9 -14 -43 -43 -76 -64 -33 -20 -67 -50 -76 -65 -9 -15 -23 -23 -32 -17 -9 5 -46 -21 -82 -59 -36 -38 -74 -64 -83 -58 -10 6 -23 -3 -29 -21 -7 -17 -20 -26 -30 -20 -10 6 -18 1 -18 -11 0 -12 -9 -17 -20 -10 -11 7 -20 4 -20 -6 0 -58 152 -34 221 35 17 17 66 58 108 91 43 33 101 79 129 102 48 40 233 135 266 137 8 1 33 17 56 36 22 19 48 35 58 35 9 0 28 14 42 30 14 17 30 27 36 21 5 -5 34 8 65 30 30 21 64 39 75 39 10 0 30 13 44 30 13 16 33 24 43 18 11 -6 34 5 53 25 19 20 51 40 71 43 21 4 56 24 79 45 48 45 74 50 74 14 1 -16 6 -18 15 -5 37 52 119 88 145 64 21 -19 23 -17 13 12 -7 20 -4 31 6 25 28 -18 208 35 237 69 20 22 23 22 12 2 -11 -22 -4 -25 34 -14 26 8 57 15 68 15 67 -2 154 -3 250 -3 145 -1 160 -4 160 -23 0 -9 12 -17 27 -17 15 0 42 -17 62 -39 19 -21 52 -35 74 -30 21 4 44 -6 50 -22 6 -16 25 -29 41 -29 32 0 109 -74 186 -178 28 -38 59 -78 71 -90 43 -45 169 -268 169 -300 0 -17 10 -32 21 -32 12 0 16 -9 9 -20 -7 -11 -3 -20 9 -20 11 0 21 -11 22 -25 0 -14 17 -61 38 -105 21 -43 33 -86 28 -95 -5 -8 1 -15 14 -15 14 0 20 -20 14 -49 -5 -28 -2 -45 8 -39 9 6 18 -6 19 -26 0 -20 6 -54 11 -76 6 -22 13 -76 17 -120 3 -44 29 -131 57 -192 39 -88 45 -119 27 -138 -19 -20 -18 -23 1 -12 19 11 25 -15 25 -106 0 -66 9 -125 20 -132 21 -13 17 -80 -6 -103 -8 -8 1 -31 20 -52 28 -30 36 -82 39 -248 2 -115 11 -238 18 -273 25 -111 25 -701 1 -733 -14 -19 -15 -24 -1 -16 14 8 20 -17 18 -71 -2 -46 -5 -118 -6 -160 -2 -50 -11 -72 -25 -63 -16 10 -16 3 0 -27 28 -53 29 -144 1 -144 -12 0 -16 -8 -10 -18 20 -33 17 -270 -4 -277 -12 -4 -17 -52 -13 -115 6 -77 -1 -116 -23 -138 -20 -20 -27 -55 -21 -106 5 -47 -2 -88 -19 -106 -15 -17 -31 -80 -35 -140 -4 -61 -17 -132 -28 -159 -11 -27 -17 -75 -13 -106 4 -37 -1 -52 -15 -44 -13 8 -19 -1 -15 -24 3 -20 -1 -49 -11 -63 -9 -15 -18 -55 -21 -89 -2 -35 -14 -66 -26 -70 -13 -4 -18 -21 -12 -36 6 -16 2 -29 -9 -29 -11 0 -15 -19 -9 -43 8 -32 5 -39 -15 -27 -19 12 -23 3 -16 -36 6 -33 0 -56 -17 -62 -15 -6 -27 -33 -27 -60 0 -27 -10 -56 -22 -63 -12 -7 -17 -30 -12 -50 5 -20 -3 -41 -18 -47 -16 -6 -28 -38 -28 -73 0 -41 -8 -57 -23 -47 -14 9 -18 5 -9 -9 8 -12 5 -34 -7 -48 -12 -14 -47 -74 -78 -135 -32 -60 -67 -108 -79 -105 -12 2 -18 -13 -14 -34 4 -22 -17 -63 -50 -98 -31 -33 -51 -66 -43 -74 7 -9 -1 -10 -18 -4 -21 7 -32 -2 -34 -29 -2 -35 -139 -206 -164 -206 -6 0 -10 -11 -8 -25 1 -13 -5 -20 -13 -15 -9 6 -39 -17 -67 -51 -29 -33 -57 -59 -64 -58 -6 1 -34 -22 -61 -51 -27 -29 -58 -46 -71 -38 -14 8 -18 5 -10 -7 13 -21 -96 -58 -137 -47 -11 3 -14 -1 -6 -9 21 -21 -36 -69 -83 -69 -22 0 -41 -10 -41 -21 0 -12 -9 -16 -20 -9 -11 7 -20 2 -20 -11 0 -17 -28 -21 -89 -14 -67 7 -92 2 -100 -20 -10 -25 -17 -25 -45 -2 -19 15 -28 17 -21 5 14 -22 7 -23 -262 -30 -107 -2 -152 4 -165 24 -14 22 -17 22 -18 2 0 -15 -8 -21 -19 -15 -10 7 -57 17 -105 23 -47 7 -108 26 -136 45 -84 54 -140 81 -141 67 0 -8 -9 2 -21 21 -11 20 -28 31 -38 25 -10 -6 -28 7 -40 30 -12 23 -31 36 -41 29 -11 -6 -28 9 -38 35 -10 25 -19 40 -20 32 -1 -19 -131 101 -131 121 0 9 -16 32 -35 51 -19 19 -35 49 -35 67 0 17 -6 26 -13 19 -7 -7 -45 30 -84 82 -39 52 -78 97 -87 101 -9 3 -16 16 -16 27 0 34 -101 118 -124 103 -15 -9 -11 -21 11 -37 18 -14 33 -31 33 -39 0 -7 22 -43 50 -79 27 -36 44 -71 37 -79 -8 -7 -3 -13 10 -13 13 0 23 -13 23 -28 0 -15 22 -49 50 -75 27 -26 49 -58 50 -71 0 -13 25 -43 55 -66 30 -24 55 -52 55 -62 0 -10 9 -17 19 -17 10 1 26 -17 34 -40 9 -23 36 -50 61 -60 26 -10 67 -42 93 -70 26 -28 54 -46 63 -41 9 6 20 3 23 -5 13 -27 236 -128 257 -115 11 7 20 2 20 -10 0 -14 16 -18 43 -9 31 10 38 7 27 -12 -12 -19 -3 -21 37 -12 32 9 53 5 53 -7 0 -14 37 -17 105 -9 77 9 97 6 75 -9 -22 -16 4 -21 105 -22 86 0 135 8 135 22 0 15 24 18 70 9 44 -8 70 -5 70 8 0 13 20 17 50 9 32 -8 50 -4 50 11 0 13 9 18 20 11 11 -7 69 10 129 37 59 27 113 44 119 38 7 -6 12 -1 12 13 0 13 9 19 20 12 11 -7 20 -1 20 12 0 14 6 19 13 12 12 -13 184 98 211 136 8 11 22 20 30 20 23 0 306 284 306 306 0 10 31 49 70 86 38 37 70 77 70 89 0 12 28 59 62 105 34 46 54 84 45 84 -9 0 -8 7 3 15 23 17 176 305 161 305 -5 0 23 70 62 155 39 85 71 175 72 200 0 25 6 45 13 45 8 0 15 16 16 35 2 19 31 118 65 221 35 102 58 193 52 203 -7 10 -3 23 7 30 10 6 14 29 8 51 -6 22 -2 40 10 40 11 0 19 20 18 45 -1 25 19 140 44 255 25 116 47 251 50 301 3 50 12 102 20 116 9 14 10 57 3 94 -7 38 -5 69 4 69 41 0 48 1679 7 1750 -7 11 -13 52 -14 90 -5 132 -27 270 -76 468 -26 110 -44 211 -38 225 6 15 0 27 -13 27 -15 0 -19 16 -11 40 8 24 4 40 -10 40 -12 0 -17 8 -11 18 6 10 -12 84 -41 165 -29 81 -53 163 -54 182 -2 19 -10 35 -18 35 -9 0 -16 23 -16 50 0 28 -10 50 -23 50 -13 0 -18 6 -11 12 7 7 -12 59 -41 115 -29 57 -51 110 -49 118 2 8 -6 15 -17 15 -12 0 -16 9 -9 20 7 11 3 20 -9 20 -11 0 -21 9 -21 20 0 97 -460 574 -507 526 -7 -7 -13 -4 -13 7 0 11 -11 21 -25 23 -14 1 -74 20 -135 42 -148 55 -437 55 -620 0z"/> <path d="M8920 9650 c2 -33 3 -64 0 -70 -20 -56 -7 -120 26 -120 22 0 31 -9 22 -23 -9 -15 -5 -18 12 -7 21 13 20 21 -5 39 -21 15 -32 55 -32 119 0 52 -6 101 -13 109 -8 7 -12 -14 -10 -47z"/> <path d="M1901 9281 c-63 -63 -63 -51 -57 -1708 l6 -1576 56 -49 c49 -42 76 -48 215 -48 l158 0 -41 -105 c-23 -58 -123 -338 -223 -624 -190 -545 -194 -575 -91 -587 69 -8 76 4 212 396 66 193 172 499 235 680 62 182 117 333 121 337 3 5 76 -6 162 -23 485 -98 1038 -40 1492 155 l165 71 505 -505 506 -504 -60 -131 c-206 -448 -276 -1105 -166 -1537 l38 -146 -42 -16 c-23 -8 -708 -247 -1522 -530 -814 -283 -1705 -593 -1980 -690 -275 -96 -503 -172 -506 -170 -3 2 14 52 37 111 23 60 200 558 392 1108 371 1064 377 1090 260 1090 -67 0 -77 -18 -168 -290 -100 -297 -492 -1419 -605 -1730 -98 -270 -104 -345 -35 -414 80 -80 96 -75 1925 562 968 337 1894 659 2057 716 395 137 382 114 304 536 -65 348 -23 789 113 1190 73 215 80 224 139 182 95 -66 226 -39 357 75 l70 61 5 -632 6 -631 52 -53 52 -52 949 0 948 0 49 49 49 49 0 952 0 952 -49 49 c-48 48 -54 49 -396 49 -366 0 -395 -7 -395 -93 0 -70 29 -75 365 -70 l315 6 -5 -882 -5 -883 -876 1 -876 0 1 664 0 664 167 132 c1944 1535 1839 1445 1776 1523 -51 64 -72 52 -445 -245 -171 -136 -477 -378 -679 -538 -202 -161 -561 -445 -798 -632 -236 -188 -451 -352 -477 -366 -55 -29 -1393 1274 -1377 1340 7 28 559 732 1471 1878 386 486 387 486 330 543 -27 27 -55 38 -80 29 -32 -11 -637 -763 -690 -857 -42 -75 -47 -13 -40 496 8 565 4 609 -58 671 -62 62 -3256 62 -3318 0z m3199 -777 l0 -655 -136 -170 c-136 -169 -390 -489 -657 -829 -202 -257 -234 -354 -154 -468 41 -59 39 -61 -241 -152 -392 -128 -802 -163 -1142 -98 -309 59 -342 59 -396 0 -44 -47 -62 -52 -201 -52 l-153 0 0 1540 0 1540 1540 0 1540 0 0 -656z"/> <path d="M2530 8979 c-232 -12 -302 -36 -313 -108 -15 -93 -6 -2549 10 -2564 56 -57 1530 -43 1633 15 17 9 -324 17 -775 17 l-805 1 0 1280 0 1280 1282 0 c1161 0 1281 3 1270 32 -7 17 -12 34 -12 37 0 4 -394 8 -875 10 -481 2 -947 5 -1035 7 -88 2 -259 -1 -380 -7z"/> <path d="M4861 8922 c-15 -27 -20 -236 -16 -646 4 -548 8 -597 32 -516 28 91 43 1166 18 1192 -7 6 -22 -7 -34 -30z"/> <path d="M2608 8667 c-100 -15 -175 -109 -181 -227 -2 -56 5 -100 16 -100 10 0 15 -8 9 -17 -18 -29 67 -103 118 -103 26 0 57 -16 68 -35 19 -33 21 -33 21 -1 1 22 12 31 30 24 21 -9 28 -41 26 -120 -2 -59 7 -118 19 -130 16 -16 14 -36 -6 -75 -17 -32 -20 -56 -8 -60 11 -3 16 -13 11 -22 -5 -8 -15 -72 -22 -142 -6 -70 -16 -134 -21 -143 -6 -9 0 -16 12 -16 12 0 17 -9 10 -20 -7 -11 2 -20 19 -20 17 0 31 -9 31 -20 0 -12 25 -31 55 -43 211 -86 469 70 386 233 -49 97 -57 560 -10 578 20 7 42 3 50 -9 10 -17 18 -17 28 -1 8 13 22 18 31 12 9 -6 23 -1 30 10 7 11 20 16 30 10 82 -51 147 187 90 334 -36 93 -511 151 -842 103z m768 -111 c13 -13 24 -66 24 -117 0 -157 -111 -211 -170 -82 -16 34 -37 43 -105 43 l-85 0 0 -380 c0 -320 5 -380 29 -380 74 0 81 -122 10 -161 -48 -25 -211 -24 -260 2 -55 29 -54 139 1 153 38 10 40 27 40 388 l0 378 -85 0 c-68 0 -89 -9 -105 -43 -57 -126 -170 -76 -170 75 0 145 8 148 457 148 281 0 402 -7 419 -24z"/> <path d="M3612 8542 c-38 -42 -41 -85 -8 -118 49 -49 970 -33 997 17 17 33 15 53 -10 91 l-32 49 -458 -2 c-411 -1 -460 -5 -489 -37z"/> <path d="M3604 8196 c-33 -33 -30 -86 6 -116 25 -20 709 -36 944 -21 42 2 70 76 46 121 -26 49 -949 63 -996 16z"/> <path d="M3611 7849 c-36 -37 -38 -58 -10 -110 28 -54 934 -61 988 -8 41 42 39 75 -6 116 -53 48 -923 50 -972 2z"/> <path d="M3617 7504 c-42 -30 -48 -85 -13 -120 34 -34 938 -34 972 0 37 37 30 118 -11 128 -96 24 -912 17 -948 -8z"/> <path d="M2516 7130 c-58 -128 -44 -130 862 -130 852 0 971 7 954 53 -11 27 2 43 78 97 35 25 -80 29 -915 29 l-956 1 -23 -50z"/> <path d="M2525 6795 c-25 -28 -27 -45 -8 -85 l22 -50 755 5 755 5 25 50 c13 27 40 61 59 75 39 28 106 26 -969 32 -556 3 -610 0 -639 -32z"/> <path d="M1600 9105 c-28 -28 -48 -59 -45 -68 3 -10 -4 -17 -15 -17 -11 0 -20 -10 -20 -23 0 -12 -28 -67 -61 -122 -42 -69 -55 -107 -41 -121 14 -14 32 0 56 44 20 35 54 93 75 128 41 68 45 76 49 125 1 17 10 26 21 20 17 -11 53 64 38 79 -4 4 -30 -16 -57 -45z"/> <path d="M6119 8695 c8 -36 25 -85 37 -108 13 -23 16 -48 8 -56 -8 -8 0 -11 16 -8 17 4 28 -4 25 -18 -3 -14 7 -25 21 -25 45 0 76 -44 51 -74 -16 -19 -16 -26 1 -26 12 0 21 -16 20 -35 -1 -21 -5 -25 -11 -10 -16 39 -51 29 -38 -11 7 -24 -9 -56 -49 -94 -72 -69 -80 -50 -11 25 84 90 42 71 -53 -25 -50 -49 -85 -90 -77 -90 7 0 24 11 37 24 17 17 24 17 24 1 0 -23 -113 -112 -150 -117 -22 -3 -230 -207 -230 -225 0 -6 36 24 80 67 129 126 90 52 -51 -96 -145 -153 -161 -215 -90 -341 21 -38 32 -75 25 -82 -7 -7 2 -8 20 -1 17 7 38 3 45 -9 7 -11 3 -21 -9 -21 -12 0 -17 -9 -11 -19 7 -11 25 -14 42 -8 35 14 38 -16 5 -49 -19 -19 -19 -24 0 -24 13 0 24 10 24 22 0 13 34 -3 75 -35 107 -82 213 -79 306 8 38 36 79 61 92 56 13 -4 39 9 58 30 19 21 42 34 50 28 9 -5 13 18 9 51 -5 33 0 60 11 60 10 0 19 -10 19 -23 0 -13 17 -7 40 13 22 20 35 41 29 48 -6 6 -20 -2 -30 -19 -10 -16 -19 -19 -19 -8 0 12 27 47 60 79 33 32 60 47 60 35 0 -12 -9 -28 -20 -35 -11 -7 -20 -23 -19 -36 1 -41 59 51 59 95 1 28 6 33 17 16 12 -20 24 -17 52 14 20 22 42 36 50 32 7 -5 14 11 15 35 1 24 -2 33 -8 19 -5 -14 -29 -35 -53 -48 -38 -19 -38 -17 7 26 27 26 63 47 80 47 16 1 28 15 25 33 -3 17 8 43 25 57 18 15 30 17 30 4 0 -11 -11 -25 -25 -30 -14 -5 -19 -15 -12 -23 7 -7 32 -2 55 12 32 21 46 21 66 1 19 -19 16 -24 -15 -25 -36 0 -36 -2 -4 -21 47 -27 44 -58 -6 -58 -23 0 -36 -9 -30 -19 7 -11 27 -13 46 -6 30 11 30 9 4 -19 -16 -18 -32 -24 -36 -14 -3 10 -16 18 -27 18 -11 0 -15 -14 -9 -31 15 -37 -96 -159 -144 -159 -18 0 -33 -9 -34 -20 -1 -39 -56 -120 -64 -95 -5 14 -18 25 -29 25 -11 0 -15 -15 -8 -33 13 -34 -19 -87 -54 -87 -11 0 -4 18 16 40 20 22 30 40 23 40 -17 0 -152 -146 -152 -166 -1 -9 21 9 48 40 28 31 50 46 50 34 1 -25 -71 -94 -129 -124 -87 -44 -107 -344 -24 -344 10 0 13 -13 7 -29 -6 -17 -1 -36 11 -43 13 -9 17 -5 8 9 -8 13 -6 23 3 23 35 0 43 -25 23 -64 -19 -35 -17 -37 20 -17 24 13 42 14 42 4 0 -33 185 -143 240 -143 50 0 199 90 229 139 8 12 22 16 33 10 10 -7 18 -5 16 5 -9 51 5 68 47 56 31 -9 37 -7 18 6 -32 22 142 205 199 210 19 1 30 12 25 24 -4 12 10 39 33 61 23 21 57 55 75 74 19 19 42 35 52 35 10 0 6 -16 -10 -35 -25 -32 -24 -33 9 -7 20 16 31 40 26 54 -5 13 3 29 18 35 19 8 24 1 16 -20 -10 -26 -5 -28 28 -10 33 17 48 14 75 -16 26 -29 28 -39 7 -48 -19 -9 -18 -11 4 -10 65 4 82 -4 76 -38 -5 -27 6 -34 47 -29 30 3 59 -3 66 -14 12 -19 91 -6 91 15 0 24 -1730 1743 -1753 1743 -15 0 -18 -21 -8 -65z m272 -353 c-6 -10 6 -14 26 -8 28 7 41 -4 51 -42 7 -29 22 -52 34 -52 11 0 15 -9 8 -20 -7 -11 1 -20 16 -20 40 0 90 -60 51 -61 -16 0 -11 -9 13 -23 22 -13 62 -44 89 -69 27 -25 75 -51 106 -58 49 -11 53 -17 31 -45 -22 -27 -21 -29 4 -15 17 10 8 -9 -20 -41 -65 -75 -84 -88 -107 -74 -11 7 -13 3 -6 -9 7 -11 -19 -49 -58 -83 -39 -34 -66 -62 -62 -62 5 0 -32 -40 -82 -89 -50 -50 -100 -84 -111 -77 -11 7 -15 3 -8 -8 16 -26 -74 -111 -96 -91 -9 8 -10 4 -3 -9 18 -31 -123 -162 -191 -177 -72 -16 -128 16 -241 138 -52 56 -95 93 -95 83 0 -11 -14 6 -30 37 -66 126 -47 169 170 384 110 110 209 197 220 194 11 -3 18 3 15 13 -5 19 245 296 271 300 9 1 11 -6 5 -16z m741 -705 c19 -42 42 -77 52 -77 9 0 26 -24 37 -53 11 -29 25 -47 32 -41 14 14 107 -84 107 -114 0 -12 9 -8 20 8 13 20 19 22 20 5 0 -14 18 -25 40 -25 22 0 40 -5 40 -11 0 -53 -194 -275 -224 -256 -9 5 -15 -2 -11 -17 3 -14 -7 -24 -21 -21 -15 4 -22 -2 -17 -11 13 -20 -255 -288 -274 -274 -7 5 -9 4 -3 -3 25 -34 -166 -187 -234 -187 -69 0 -212 101 -201 142 3 10 -3 18 -12 18 -53 0 -163 147 -163 218 0 51 336 407 367 389 13 -8 16 -6 8 3 -18 20 338 383 376 383 14 0 41 -34 61 -76z"/> <path d="M1041 8569 c-130 -118 -126 -268 11 -388 207 -182 525 73 398 318 -83 161 -272 193 -409 70z m253 -142 c18 -48 -12 -122 -55 -133 -46 -12 -119 46 -119 95 0 73 148 105 174 38z"/> <path d="M1333 7910 c-7 -16 -2 -30 10 -30 12 0 16 -13 10 -30 -7 -16 -3 -30 7 -30 10 0 13 -15 6 -33 -9 -25 -6 -29 14 -17 19 12 23 8 14 -16 -7 -20 8 -57 39 -93 28 -34 43 -61 34 -62 -9 0 -1 -9 18 -21 20 -11 31 -28 26 -37 -6 -9 12 -32 41 -50 l51 -34 -33 51 c-19 28 -27 61 -19 74 10 15 7 19 -8 10 -21 -13 -32 12 -25 54 2 10 -6 11 -18 4 -17 -11 -29 18 -15 36 3 4 -11 23 -30 42 -20 19 -30 43 -24 54 6 10 2 18 -10 18 -11 0 -21 18 -21 40 0 22 -10 40 -22 40 -12 0 -17 14 -11 30 7 17 4 30 -5 30 -10 0 -23 -13 -29 -30z"/> <path d="M8021 7610 c-131 -137 -141 -205 -31 -227 47 -9 270 212 270 267 0 130 -90 114 -239 -40z"/> <path d="M5347 7230 c-6 -16 -22 -30 -36 -30 -13 0 -35 -22 -47 -50 -13 -27 -33 -50 -44 -50 -32 0 -15 -146 20 -174 26 -21 24 -25 -12 -25 -25 -1 -51 -22 -66 -54 -13 -29 -29 -46 -36 -39 -18 18 -69 -104 -78 -186 -4 -47 4 -77 28 -97 19 -15 24 -23 11 -17 -12 6 -34 -2 -47 -18 -13 -16 -33 -24 -43 -18 -10 6 -16 -1 -12 -15 3 -14 -6 -27 -20 -29 -14 -1 -32 -4 -40 -5 -8 -2 -16 -23 -17 -48 -1 -25 -8 -60 -16 -77 -9 -20 -2 -45 17 -64 17 -17 31 -39 31 -48 0 -27 150 -186 175 -186 12 0 27 -16 34 -35 6 -19 37 -53 69 -74 33 -22 56 -45 51 -52 -8 -13 5 -17 111 -28 95 -11 96 -11 50 -31 -31 -13 -32 -18 -7 -19 17 0 70 35 117 79 47 44 93 80 102 80 10 0 16 10 13 22 -3 13 8 28 23 33 20 7 25 0 16 -22 -10 -27 1 -33 57 -33 44 0 75 11 82 30 6 16 19 25 28 19 21 -12 159 118 159 151 0 12 9 17 20 10 12 -7 15 -21 9 -31 -13 -22 118 -26 139 -4 9 8 24 15 34 15 10 0 17 8 17 18 -1 9 19 28 45 41 25 13 45 38 43 56 -1 17 8 28 21 23 13 -5 25 13 27 42 3 30 -8 56 -25 63 -16 6 -25 19 -19 29 6 10 4 18 -5 18 -9 0 -33 37 -52 82 -20 46 -41 78 -47 72 -22 -22 -92 63 -80 96 7 18 4 27 -6 21 -21 -14 -133 91 -125 116 3 10 -9 12 -26 6 -21 -8 -38 4 -51 40 -11 29 -25 47 -32 41 -15 -15 -67 36 -67 65 0 11 -13 21 -30 21 -16 0 -30 13 -30 29 0 16 -10 35 -23 43 -15 9 -18 5 -8 -14 9 -15 -10 1 -42 37 -32 36 -64 65 -70 65 -7 0 -42 28 -78 61 -41 38 -80 58 -103 52 -20 -5 -36 -1 -36 9 0 30 -60 20 -73 -12z m487 -494 c278 -277 406 -418 406 -448 0 -51 -45 -94 -89 -85 -50 11 -831 800 -831 839 0 30 68 98 98 98 6 0 193 -182 416 -404z m-249 -271 c305 -305 329 -342 246 -396 -62 -41 -49 -51 -396 302 -294 300 -292 297 -242 352 58 64 90 43 392 -258z m-259 -262 c208 -211 204 -206 173 -264 -41 -78 -106 -46 -296 143 -188 188 -221 254 -148 296 60 35 72 27 271 -175z"/> <path d="M7904 6508 c-14 -15 -22 -28 -17 -28 5 0 -22 -31 -61 -70 -38 -38 -84 -70 -101 -70 -18 0 -26 -6 -19 -12 13 -13 -138 -148 -166 -148 -8 0 -31 -24 -50 -52 -44 -67 -31 -59 232 145 117 91 219 181 226 199 18 47 -12 71 -44 36z"/> <path d="M4138 5945 c33 -62 428 -436 436 -413 11 32 -30 128 -55 128 -12 0 -16 8 -10 18 6 10 -3 23 -20 30 -19 7 -26 22 -17 37 8 14 8 19 -1 11 -8 -7 -61 32 -118 87 -126 123 -262 188 -215 102z"/> <path d="M6898 5815 c-2 -3 -5 -29 -9 -58 -8 -63 -162 -237 -211 -237 -19 0 -38 -7 -41 -15 -4 -8 -52 -51 -107 -95 -223 -179 -357 -348 -183 -230 115 77 118 76 72 -25 -51 -114 -49 -177 10 -246 27 -31 43 -65 37 -76 -7 -10 -2 -13 10 -6 28 18 108 -68 95 -101 -5 -14 -1 -26 10 -26 10 0 19 9 19 20 0 11 9 20 20 20 61 0 -16 -64 -83 -69 -8 -1 -21 -9 -30 -19 -10 -11 -7 -12 8 -4 16 9 21 4 13 -16 -7 -17 -18 -30 -25 -29 -34 4 -101 -30 -92 -45 6 -10 3 -18 -8 -18 -10 0 -24 -22 -31 -50 -7 -27 -21 -50 -31 -50 -33 0 -48 -179 -21 -261 42 -126 73 -113 64 28 -13 225 99 331 493 470 307 108 323 125 323 336 0 231 -54 298 -238 295 -152 -2 -160 -10 -92 -91 149 -177 -75 -416 -296 -315 -137 62 -155 265 -34 381 194 184 763 210 961 43 124 -104 128 -125 139 -709 9 -496 18 -586 54 -550 18 18 7 1020 -12 1125 -17 88 -114 235 -144 217 -10 -7 -23 2 -29 17 -9 24 -58 43 -139 54 -5 1 -39 14 -75 28 -109 44 -323 25 -495 -45 l-150 -61 100 91 c55 50 165 139 245 199 80 60 145 113 145 118 0 10 -238 15 -242 5z m126 -837 c-5 -37 1 -69 16 -78 16 -10 3 -25 -41 -47 -77 -39 -79 -39 -79 -13 0 11 13 20 29 20 16 0 34 9 41 20 7 11 -1 15 -18 8 -26 -10 -26 0 4 70 41 97 61 106 48 20z"/> <path d="M1942 5686 c-1 -46 8 -90 19 -97 37 -22 40 1 11 92 l-28 89 -2 -84z"/> <path d="M3562 5587 c-56 -39 -53 -99 7 -138 71 -47 136 -9 127 75 -8 77 -71 107 -134 63z"/> <path d="M4004 5589 c-61 -43 -58 -124 6 -153 41 -18 57 -16 91 15 82 74 -7 201 -97 138z"/> <path d="M4652 5528 l-58 -51 218 -220 c247 -248 299 -289 267 -205 -29 78 -96 166 -208 274 -98 96 -112 120 -117 209 -3 58 -30 56 -102 -7z"/> <path d="M3169 5351 c-44 -67 -10 -131 71 -131 103 0 125 131 29 168 -52 20 -66 15 -100 -37z"/> <path d="M4361 5361 c-71 -71 10 -189 98 -142 63 34 73 103 21 145 -56 45 -71 45 -119 -3z"/> <path d="M3720 5161 c-276 -83 -418 -375 -311 -632 l32 -77 -850 -851 c-468 -468 -851 -866 -851 -884 0 -217 51 -177 983 758 l851 855 71 -36 c203 -102 490 0 598 213 173 337 -168 762 -523 654z m260 -157 c63 -25 140 -92 140 -121 0 -13 10 -23 22 -23 12 0 17 -14 10 -31 -6 -17 -3 -26 7 -20 26 17 35 -126 12 -206 -10 -37 -31 -72 -45 -77 -14 -6 -26 -23 -26 -39 0 -15 -16 -34 -35 -42 -19 -7 -46 -24 -60 -38 -60 -58 -405 -43 -405 18 0 10 -11 11 -23 3 -16 -10 -20 -4 -12 17 7 18 4 35 -6 39 -30 10 -67 219 -52 296 37 197 268 306 473 224z"/> <path d="M3702 4869 c-118 -99 -94 -276 47 -342 207 -99 387 181 216 335 -85 75 -178 78 -263 7z m198 -72 c0 -11 7 -15 16 -10 9 6 17 -7 19 -29 2 -25 -6 -34 -21 -25 -16 10 -15 3 2 -18 37 -45 -9 -115 -74 -115 -98 0 -151 95 -98 178 24 40 156 55 156 19z"/> <path d="M4260 5130 l-47 -50 51 0 c54 0 82 37 58 77 -10 16 -29 8 -62 -27z"/> <path d="M2961 4991 c-32 -38 -20 -112 22 -138 47 -29 137 14 137 65 0 84 -109 134 -159 73z"/> <path d="M4571 4989 c-40 -41 -39 -78 1 -119 74 -73 196 21 137 106 -37 52 -93 57 -138 13z"/> <path d="M5720 4742 c0 -10 -22 -16 -50 -13 -67 7 -108 -41 -50 -59 47 -15 148 40 129 71 -14 24 -29 24 -29 1z"/> <path d="M5511 4630 c-9 -33 -19 -78 -22 -100 -2 -22 -18 -80 -34 -130 -27 -78 -65 -398 -46 -377 17 17 133 599 127 631 -6 26 -13 19 -25 -24z"/> <path d="M7173 4643 c-10 -15 -77 -66 -150 -113 -168 -108 -205 -150 -207 -231 -5 -146 188 -191 315 -74 l71 65 -6 190 c-4 117 -13 180 -23 163z"/> <path d="M2964 4556 c-78 -78 35 -200 116 -126 69 62 39 150 -50 150 -23 0 -53 -11 -66 -24z"/> <path d="M4556 4529 c-20 -43 -17 -57 18 -92 73 -73 181 0 144 98 -25 67 -131 63 -162 -6z"/> <path d="M4349 4171 c-44 -67 -10 -131 71 -131 81 0 115 64 71 131 -18 27 -50 49 -71 49 -21 0 -53 -22 -71 -49z"/> <path d="M3551 3969 c-60 -61 -25 -149 59 -149 23 0 53 11 66 24 13 13 24 43 24 66 0 84 -88 119 -149 59z"/> <path d="M3995 3978 c-71 -41 -31 -158 55 -158 84 0 119 88 59 149 -37 36 -65 38 -114 9z"/> <path d="M6033 3625 c-18 -32 2 -112 32 -134 24 -18 270 -23 945 -22 980 2 949 -1 950 103 0 69 -25 72 -81 10 l-54 -59 -217 7 c-130 4 -202 0 -178 -10 36 -15 34 -17 -14 -19 -29 0 -59 8 -66 19 -15 24 -250 18 -250 -6 0 -9 -10 -10 -22 -3 -12 7 -81 16 -155 20 -73 3 -158 10 -188 15 -30 5 -55 3 -55 -4 0 -6 -85 -11 -190 -9 -104 2 -195 -5 -201 -15 -7 -11 -27 -10 -49 2 -21 11 -45 19 -54 17 -27 -6 -86 26 -77 41 5 8 -9 25 -29 38 -21 13 -42 17 -47 9z"/> <path d="M5175 3018 c-19 -11 -36 -40 -37 -64 0 -24 -6 -33 -11 -19 -6 14 -19 25 -30 25 -11 0 -14 -9 -7 -20 7 -11 -12 -21 -44 -21 -49 -2 -51 -4 -16 -19 40 -17 40 -17 0 -20 -80 -6 -116 -18 -133 -44 -13 -21 -16 -21 -17 0 0 20 -9 21 -45 0 -25 -13 -52 -23 -60 -20 -8 2 -15 -6 -15 -17 0 -13 -17 -16 -43 -8 -31 10 -38 7 -26 -12 11 -18 6 -22 -18 -13 -18 7 -33 4 -33 -6 0 -10 -13 -14 -30 -7 -17 6 -30 0 -30 -14 0 -14 -6 -20 -13 -13 -7 7 -31 -1 -54 -17 -50 -35 -81 -38 -61 -6 9 15 5 18 -9 9 -13 -8 -18 -23 -12 -34 6 -10 -16 -24 -50 -31 -33 -6 -61 -20 -61 -29 0 -10 -10 -18 -22 -18 -13 0 -18 17 -13 39 13 47 -36 35 -92 -24 -21 -22 -54 -34 -75 -29 -20 6 -35 0 -32 -12 2 -12 -5 -23 -16 -24 -86 -6 -319 -95 -299 -114 6 -6 -22 -8 -61 -5 -39 3 -65 -2 -59 -13 6 -10 0 -19 -15 -21 -14 -1 -47 -4 -72 -7 -26 -3 -56 -14 -68 -26 -11 -11 -34 -16 -49 -10 -16 6 -45 -4 -66 -23 -21 -19 -50 -36 -64 -39 -46 -7 -186 -56 -207 -72 -11 -8 -53 -21 -94 -28 -41 -7 -99 -27 -130 -43 -31 -16 -71 -29 -90 -29 -18 0 -39 -8 -45 -18 -6 -9 -42 -23 -81 -31 -38 -7 -70 -20 -70 -29 0 -9 -26 -14 -58 -10 -39 5 -74 -8 -109 -41 -28 -26 -55 -42 -61 -36 -6 6 -40 -2 -76 -17 -36 -15 -86 -24 -111 -21 -25 3 -45 -3 -45 -14 0 -10 -47 -30 -105 -44 -58 -14 -116 -40 -128 -57 -13 -18 -30 -26 -38 -18 -8 8 -33 1 -56 -15 -51 -36 -100 -38 -83 -4 7 14 0 9 -16 -11 -23 -27 -33 -30 -40 -10 -8 18 -11 16 -12 -7 -2 -40 -85 -65 -106 -31 -11 16 -15 13 -16 -11 0 -19 -10 -35 -21 -35 -12 0 -15 11 -7 25 8 14 -5 5 -29 -19 -24 -25 -60 -41 -83 -36 -22 4 -40 0 -40 -9 0 -21 -160 -64 -210 -56 -57 9 -93 35 -79 56 6 11 -2 19 -18 19 -40 0 -64 -113 -32 -151 33 -40 68 -37 229 23 77 28 226 81 330 117 105 36 505 176 890 311 385 135 736 257 780 271 202 66 964 331 1000 348 22 11 148 56 280 100 700 235 683 227 686 321 1 33 0 60 -2 59 -2 0 -20 -9 -39 -21z"/> <path d="M5112 2625 c-9 -8 -21 -16 -29 -17 -137 -17 -218 -230 -140 -369 134 -239 497 -148 497 125 0 151 -244 345 -328 261z m111 -198 c66 -59 34 -147 -53 -147 -85 0 -116 78 -57 143 41 46 64 46 110 4z"/> <path d="M1540 2407 c-155 -158 -175 -184 -110 -146 108 62 192 121 235 164 19 19 45 35 56 35 12 0 16 9 9 20 -7 11 -5 20 4 20 10 0 19 23 21 50 7 77 -11 65 -215 -143z"/> <path d="M6214 2344 c-63 -63 -114 -130 -114 -148 0 -137 95 -130 244 18 124 122 138 160 79 213 -57 52 -87 41 -209 -83z"/> <path d="M4078 2296 c-25 -46 -47 -75 -103 -137 -19 -22 -35 -43 -35 -49 0 -20 -68 -88 -80 -80 -7 5 -13 -5 -13 -21 0 -36 26 -38 47 -2 9 14 33 32 53 40 20 7 33 25 28 38 -12 30 34 78 56 59 9 -8 9 -3 2 9 -7 13 2 40 22 59 19 19 36 43 38 52 1 9 3 26 5 37 1 12 12 15 25 7 14 -9 18 -5 9 9 -20 32 -27 29 -54 -21z"/> </g> </svg> 