<svg width="1091" height="903" viewBox="0 0 1091 903" fill="none" xmlns="http://www.w3.org/2000/svg">
<rect x="1.50586" y="1.7334" width="1087.92" height="898.865" fill="#D9D9D9" stroke="black" stroke-width="3" stroke-dasharray="6 6"/>
<path d="M785.571 407.109H396.551" stroke="#575757" stroke-width="4" stroke-linecap="round" stroke-linejoin="round"/>
<path d="M785.572 301.733H285.402" stroke="#575757" stroke-width="4" stroke-linecap="round" stroke-linejoin="round"/>
<path d="M785.571 617.861H396.551" stroke="#575757" stroke-width="4" stroke-linecap="round" stroke-linejoin="round"/>
<path d="M789.425 469.016L804.425 477.676V460.355L789.425 469.016ZM1089.43 469.016L1074.43 460.355V477.676L1089.43 469.016ZM802.925 470.516H1075.93V467.516H802.925V470.516Z" fill="#575757"/>
<path d="M535.487 301.733L544.147 286.733H526.827L535.487 301.733ZM535.487 1.73339L526.827 16.7334H544.147L535.487 1.73339ZM536.987 288.233V15.2334H533.987V288.233H536.987Z" fill="#575757"/>
<path d="M885.419 403.919C888.329 403.919 890.858 404.417 893.007 405.413C895.155 406.39 896.815 407.815 897.987 409.69C899.179 411.565 899.774 413.841 899.774 416.517C899.774 419.446 899.14 421.976 897.87 424.104C896.601 426.214 894.774 427.845 892.392 428.997C890.009 430.13 887.157 430.696 883.837 430.696C881.61 430.696 879.54 430.501 877.626 430.11C875.712 429.72 874.101 429.134 872.792 428.353V423.724C874.218 424.583 875.946 425.267 877.978 425.774C880.009 426.282 881.981 426.536 883.896 426.536C886.063 426.536 887.958 426.194 889.579 425.511C891.22 424.808 892.489 423.753 893.388 422.347C894.306 420.921 894.765 419.134 894.765 416.985C894.765 414.134 893.886 411.937 892.128 410.394C890.39 408.831 887.636 408.05 883.866 408.05C882.655 408.05 881.327 408.147 879.882 408.343C878.437 408.538 877.245 408.753 876.308 408.987L873.847 407.376L875.487 387.278H896.786V391.731H879.647L878.563 404.651C879.306 404.495 880.263 404.339 881.435 404.183C882.606 404.007 883.935 403.919 885.419 403.919ZM920.855 403.919C923.765 403.919 926.294 404.417 928.443 405.413C930.591 406.39 932.251 407.815 933.423 409.69C934.615 411.565 935.21 413.841 935.21 416.517C935.21 419.446 934.576 421.976 933.306 424.104C932.037 426.214 930.21 427.845 927.828 428.997C925.445 430.13 922.593 430.696 919.273 430.696C917.046 430.696 914.976 430.501 913.062 430.11C911.148 429.72 909.537 429.134 908.228 428.353V423.724C909.654 424.583 911.382 425.267 913.413 425.774C915.445 426.282 917.417 426.536 919.331 426.536C921.499 426.536 923.394 426.194 925.015 425.511C926.656 424.808 927.925 423.753 928.824 422.347C929.742 420.921 930.201 419.134 930.201 416.985C930.201 414.134 929.322 411.937 927.564 410.394C925.826 408.831 923.072 408.05 919.302 408.05C918.091 408.05 916.763 408.147 915.318 408.343C913.872 408.538 912.681 408.753 911.744 408.987L909.283 407.376L910.923 387.278H932.222V391.731H915.083L913.999 404.651C914.742 404.495 915.699 404.339 916.871 404.183C918.042 404.007 919.371 403.919 920.855 403.919ZM960.012 397.415C964.015 397.415 967.209 398.792 969.592 401.546C971.974 404.3 973.166 408.44 973.166 413.968C973.166 417.62 972.619 420.687 971.525 423.167C970.431 425.647 968.888 427.522 966.896 428.792C964.924 430.062 962.59 430.696 959.894 430.696C958.195 430.696 956.701 430.472 955.412 430.022C954.123 429.573 953.019 428.968 952.101 428.206C951.183 427.444 950.422 426.614 949.816 425.716H949.465C949.523 426.478 949.592 427.396 949.67 428.47C949.767 429.544 949.816 430.481 949.816 431.282V444.466H944.924V398.001H948.937L949.582 402.747H949.816C950.441 401.771 951.203 400.882 952.101 400.081C953 399.261 954.094 398.616 955.383 398.147C956.691 397.659 958.234 397.415 960.012 397.415ZM959.162 401.517C956.935 401.517 955.138 401.946 953.771 402.806C952.424 403.665 951.437 404.954 950.812 406.673C950.187 408.372 949.855 410.511 949.816 413.089V414.026C949.816 416.741 950.109 419.036 950.695 420.911C951.301 422.786 952.287 424.212 953.654 425.188C955.041 426.165 956.896 426.653 959.221 426.653C961.213 426.653 962.873 426.116 964.201 425.042C965.529 423.968 966.515 422.474 967.16 420.56C967.824 418.626 968.156 416.409 968.156 413.909C968.156 410.12 967.414 407.112 965.929 404.886C964.465 402.64 962.209 401.517 959.162 401.517ZM990.408 413.675L979.305 398.001H984.871L993.338 410.364L1001.78 398.001H1007.28L996.18 413.675L1007.9 430.11H1002.33L993.338 417.015L984.285 430.11H978.778L990.408 413.675Z" fill="#575757"/>
<path d="M574.755 89.7295L613.134 107.308V83.958H617.587V112.522H613.837L574.755 95.0615V89.7295ZM574.755 125.165L613.134 142.744V119.394H617.587V147.958H613.837L574.755 130.497V125.165ZM607.45 172.32C607.45 176.324 606.073 179.517 603.319 181.9C600.565 184.283 596.425 185.474 590.897 185.474C587.245 185.474 584.179 184.928 581.698 183.834C579.218 182.74 577.343 181.197 576.073 179.205C574.804 177.232 574.169 174.898 574.169 172.203C574.169 170.504 574.394 169.01 574.843 167.721C575.292 166.431 575.897 165.328 576.659 164.41C577.421 163.492 578.251 162.73 579.149 162.125V161.773C578.388 161.832 577.47 161.9 576.396 161.978C575.321 162.076 574.384 162.125 573.583 162.125H560.399V157.232H606.864V161.246L602.118 161.89V162.125C603.095 162.75 603.983 163.512 604.784 164.41C605.604 165.308 606.249 166.402 606.718 167.691C607.206 169 607.45 170.543 607.45 172.32ZM603.349 171.471C603.349 169.244 602.919 167.447 602.06 166.08C601.2 164.732 599.911 163.746 598.192 163.121C596.493 162.496 594.354 162.164 591.776 162.125H590.839C588.124 162.125 585.829 162.418 583.954 163.004C582.079 163.609 580.653 164.596 579.677 165.963C578.7 167.349 578.212 169.205 578.212 171.529C578.212 173.521 578.749 175.181 579.823 176.51C580.897 177.838 582.392 178.824 584.306 179.469C586.239 180.133 588.456 180.465 590.956 180.465C594.745 180.465 597.753 179.722 599.979 178.238C602.226 176.773 603.349 174.517 603.349 171.471ZM591.19 202.717L606.864 191.613V197.18L594.501 205.647L606.864 214.084V219.592L591.19 208.488L574.755 220.207V214.641L587.851 205.647L574.755 196.594V191.086L591.19 202.717Z" fill="#575757"/>
<path d="M785.572 522.711H285.402" stroke="#575757" stroke-width="4" stroke-linecap="round" stroke-linejoin="round"/>
<path d="M520.108 404.376H514.597V362.095H499.773V357.261H534.868V362.095H520.108V404.376ZM554.784 368.411C557.792 368.411 560.37 369.077 562.518 370.409C564.667 371.741 566.31 373.61 567.449 376.017C568.587 378.401 569.157 381.194 569.157 384.396V387.715H544.761C544.826 391.861 545.857 395.02 547.855 397.189C549.853 399.359 552.667 400.444 556.298 400.444C558.533 400.444 560.509 400.24 562.228 399.832C563.947 399.424 565.73 398.822 567.578 398.027V402.732C565.794 403.527 564.022 404.107 562.26 404.473C560.52 404.838 558.458 405.021 556.073 405.021C552.678 405.021 549.713 404.333 547.178 402.958C544.665 401.562 542.709 399.521 541.313 396.835C539.917 394.149 539.218 390.862 539.218 386.974C539.218 383.171 539.852 379.884 541.12 377.112C542.409 374.319 544.213 372.171 546.534 370.667C548.875 369.163 551.625 368.411 554.784 368.411ZM554.719 372.794C551.862 372.794 549.584 373.729 547.887 375.598C546.19 377.467 545.18 380.077 544.858 383.429H563.549C563.528 381.323 563.195 379.476 562.55 377.886C561.927 376.274 560.971 375.028 559.682 374.147C558.393 373.245 556.739 372.794 554.719 372.794ZM586.656 386.297L574.442 369.056H580.565L589.878 382.655L599.16 369.056H605.218L593.004 386.297L605.895 404.376H599.772L589.878 389.971L579.92 404.376H573.862L586.656 386.297ZM624.2 400.638C625.081 400.638 625.983 400.562 626.907 400.412C627.831 400.262 628.583 400.079 629.163 399.864V404.021C628.54 404.301 627.669 404.537 626.552 404.73C625.457 404.924 624.382 405.021 623.33 405.021C621.46 405.021 619.763 404.698 618.238 404.054C616.712 403.388 615.488 402.271 614.564 400.702C613.662 399.134 613.21 396.964 613.21 394.192V373.245H608.183V370.635L613.243 368.54L615.37 360.87H618.592V369.056H628.937V373.245H618.592V394.031C618.592 396.244 619.097 397.898 620.107 398.994C621.138 400.09 622.502 400.638 624.2 400.638ZM658.811 354.231V369.217C658.811 370.076 658.79 370.946 658.747 371.827C658.704 372.687 658.628 373.481 658.521 374.212H658.875C659.606 372.966 660.53 371.924 661.647 371.086C662.786 370.227 664.075 369.582 665.514 369.152C666.954 368.701 668.479 368.476 670.09 368.476C672.926 368.476 675.29 368.927 677.18 369.829C679.092 370.731 680.521 372.128 681.466 374.019C682.433 375.909 682.917 378.358 682.917 381.366V404.376H677.631V381.721C677.631 378.777 676.955 376.575 675.601 375.114C674.269 373.653 672.217 372.923 669.446 372.923C666.825 372.923 664.73 373.428 663.162 374.438C661.615 375.426 660.498 376.887 659.81 378.82C659.144 380.754 658.811 383.117 658.811 385.91V404.376H653.461V354.231H658.811ZM707.538 368.411C710.545 368.411 713.124 369.077 715.272 370.409C717.42 371.741 719.064 373.61 720.203 376.017C721.341 378.401 721.911 381.194 721.911 384.396V387.715H697.515C697.58 391.861 698.611 395.02 700.609 397.189C702.607 399.359 705.421 400.444 709.052 400.444C711.287 400.444 713.263 400.24 714.982 399.832C716.701 399.424 718.484 398.822 720.332 398.027V402.732C718.548 403.527 716.776 404.107 715.014 404.473C713.274 404.838 711.211 405.021 708.827 405.021C705.432 405.021 702.467 404.333 699.932 402.958C697.418 401.562 695.463 399.521 694.067 396.835C692.67 394.149 691.972 390.862 691.972 386.974C691.972 383.171 692.606 379.884 693.874 377.112C695.163 374.319 696.967 372.171 699.288 370.667C701.629 369.163 704.379 368.411 707.538 368.411ZM707.473 372.794C704.616 372.794 702.338 373.729 700.641 375.598C698.944 377.467 697.934 380.077 697.612 383.429H716.303C716.282 381.323 715.949 379.476 715.304 377.886C714.681 376.274 713.725 375.028 712.436 374.147C711.147 373.245 709.493 372.794 707.473 372.794ZM747.047 368.411C747.756 368.411 748.498 368.454 749.271 368.54C750.044 368.604 750.732 368.701 751.333 368.83L750.657 373.793C750.077 373.643 749.432 373.524 748.723 373.438C748.014 373.353 747.348 373.31 746.725 373.31C745.307 373.31 743.964 373.6 742.697 374.18C741.451 374.738 740.355 375.555 739.41 376.629C738.464 377.682 737.723 378.96 737.186 380.464C736.649 381.946 736.38 383.601 736.38 385.427V404.376H730.999V369.056H735.446L736.026 375.565H736.251C736.982 374.255 737.863 373.062 738.894 371.988C739.925 370.893 741.118 370.022 742.471 369.378C743.846 368.733 745.372 368.411 747.047 368.411ZM771.604 368.411C774.612 368.411 777.19 369.077 779.338 370.409C781.487 371.741 783.13 373.61 784.269 376.017C785.408 378.401 785.977 381.194 785.977 384.396V387.715H761.582C761.646 391.861 762.677 395.02 764.675 397.189C766.673 399.359 769.488 400.444 773.119 400.444C775.353 400.444 777.33 400.24 779.048 399.832C780.767 399.424 782.55 398.822 784.398 398.027V402.732C782.615 403.527 780.842 404.107 779.081 404.473C777.34 404.838 775.278 405.021 772.893 405.021C769.499 405.021 766.534 404.333 763.999 402.958C761.485 401.562 759.53 399.521 758.133 396.835C756.737 394.149 756.039 390.862 756.039 386.974C756.039 383.171 756.672 379.884 757.94 377.112C759.229 374.319 761.034 372.171 763.354 370.667C765.696 369.163 768.446 368.411 771.604 368.411ZM771.54 372.794C768.682 372.794 766.405 373.729 764.708 375.598C763.01 377.467 762 380.077 761.678 383.429H780.37C780.348 381.323 780.015 379.476 779.371 377.886C778.748 376.274 777.792 375.028 776.502 374.147C775.213 373.245 773.559 372.794 771.54 372.794Z" fill="#575757"/>
</svg>
