<?xml version="1.0" standalone="no"?>
<!DOCTYPE svg PUBLIC "-//W3C//DTD SVG 20010904//EN"
 "http://www.w3.org/TR/2001/REC-SVG-20010904/DTD/svg10.dtd">
<svg version="1.0" xmlns="http://www.w3.org/2000/svg"
 width="512.000000pt" height="512.000000pt" viewBox="0 0 512.000000 512.000000"
 preserveAspectRatio="xMidYMid meet">
<metadata>
Created by potrace 1.10, written by Peter Selinger 2001-2011
</metadata>
<g transform="translate(0.000000,512.000000) scale(0.050000,-0.050000)"
fill="#8acf41" stroke="none">
<path d="M8724 10176 c-29 -29 -32 -116 -5 -116 11 0 15 14 8 30 -18 48 10
107 34 69 15 -24 18 -23 19 6 0 41 -22 45 -56 11z"/>
<path d="M8903 10067 c12 -15 17 -50 12 -77 -5 -28 -3 -55 4 -59 8 -5 16 30
18 77 3 65 -3 85 -26 85 -23 0 -25 -6 -8 -26z"/>
<path d="M1110 9947 c-407 -86 -642 -290 -793 -687 -46 -119 -51 -5101 -6
-5290 93 -388 402 -678 802 -752 153 -29 157 -25 155 134 l-2 138 -108 12
c-219 24 -427 184 -532 408 l-56 120 -5 2260 -6 2260 3801 -4 3800 -3 0 148 0
149 -3803 0 -3803 0 11 155 c20 287 162 502 411 621 l114 54 3410 0 3410 0
133 -65 c154 -75 260 -184 334 -342 l53 -113 0 -2550 c0 -2500 -1 -2552 -40
-2659 -81 -221 -322 -414 -547 -439 l-108 -12 1 -140 0 -140 105 6 c368 21
743 343 842 722 49 189 55 5051 6 5262 -79 346 -297 581 -669 723 -67 26
-6793 49 -6910 24z m-571 -1214 c-1 -41 -63 -106 -73 -78 -5 14 -17 21 -26 15
-9 -5 -12 8 -6 30 6 22 19 40 30 40 10 0 13 8 7 18 -6 10 7 14 29 8 22 -6 40
-21 39 -33z"/>
<path d="M8922 9650 c4 -33 1 -69 -5 -80 -17 -27 16 -110 44 -110 12 0 15 -10
7 -23 -9 -15 -5 -18 12 -7 21 13 20 21 -5 39 -21 15 -32 55 -32 119 0 52 -6
101 -13 109 -8 7 -11 -14 -8 -47z"/>
<path d="M1120 9254 l0 -147 145 2 145 1 6 145 6 145 -151 0 -151 0 0 -146z"/>
<path d="M1680 9255 l0 -145 145 1 145 1 6 144 6 144 -151 0 -151 0 0 -145z"/>
<path d="M2244 9257 l6 -144 140 0 140 0 6 144 6 143 -152 0 -152 0 6 -143z"/>
<path d="M2804 9259 l6 -140 985 -5 985 -4 0 145 0 145 -991 0 -991 0 6 -141z"/>
<path d="M7340 8308 c-27 -4 -113 -18 -190 -30 -757 -118 -1347 -1196 -1020
-1863 l51 -105 58 -1720 c73 -2167 80 -2400 81 -2617 0 -209 32 -253 257 -359
246 -116 500 -93 739 67 149 99 139 61 154 569 7 231 30 870 51 1420 21 550
52 1378 70 1840 25 670 38 854 63 910 138 309 106 644 -124 1295 -78 223 -74
281 31 376 117 106 -28 248 -221 217z m-140 -418 c0 -68 20 -167 51 -255 261
-732 269 -1018 37 -1275 -173 -191 -526 -213 -744 -47 -436 333 -173 1290 439
1597 225 112 217 113 217 -20z m139 -1974 c-8 -58 -15 -187 -17 -286 -3 -166
-38 -1026 -112 -2720 -16 -374 -30 -755 -30 -846 l0 -166 -105 -49 c-58 -27
-141 -49 -185 -49 -44 0 -127 22 -185 49 l-105 49 0 236 c0 130 -27 1054 -60
2054 -33 1001 -57 1822 -54 1825 4 3 42 -12 85 -33 172 -85 499 -82 668 6 114
60 118 58 100 -70z"/>
<path d="M3920 8249 c-206 -67 -367 -247 -390 -434 -6 -58 -9 -1410 -6 -3005
l6 -2900 55 -93 c152 -260 267 -297 915 -297 648 0 763 37 915 297 l55 93 0
2982 c0 3279 10 3011 -124 3182 -40 50 -112 106 -181 140 l-115 56 -520 4
c-412 4 -539 -2 -610 -25z m1163 -311 c77 -55 117 -148 117 -274 l0 -97 -280
9 -280 9 0 -152 0 -153 280 0 280 0 0 -142 0 -143 -140 8 -140 8 0 -145 0
-146 140 0 140 0 0 -140 0 -140 -140 0 -140 0 0 -140 0 -140 140 0 140 0 0
-140 0 -140 -280 0 -280 0 0 -140 0 -140 280 0 280 0 0 -140 0 -140 -140 0
-140 0 0 -140 0 -140 140 0 140 0 0 -140 0 -140 -140 0 -140 0 0 -147 0 -148
140 10 140 10 0 -142 0 -143 -280 0 -280 0 0 -153 0 -153 280 12 280 12 0
-145 0 -144 -140 8 -140 8 0 -154 0 -154 140 6 140 7 0 -147 0 -147 -140 14
-140 14 0 -152 0 -152 140 0 140 0 0 -142 0 -141 -280 6 -280 7 0 -145 0 -145
280 0 280 0 0 -107 c0 -271 -93 -313 -700 -313 -526 0 -568 9 -655 138 l-45
68 0 2879 c0 3164 -8 2964 117 3053 106 75 1061 75 1166 0z"/>
<path d="M2173 7955 c-27 -25 -87 -130 -133 -235 -46 -104 -114 -257 -152
-340 -37 -82 -130 -293 -207 -468 l-141 -319 0 -2361 0 -2362 48 -102 c97
-208 204 -248 662 -248 458 0 565 40 662 248 l48 102 0 2364 0 2363 -58 127
c-31 69 -91 203 -131 296 -41 94 -109 247 -152 340 -42 94 -114 256 -159 360
-79 183 -152 280 -210 280 -15 0 -50 -20 -77 -45z m120 -315 c6 -44 4 -46 -19
-17 -24 32 -28 32 -48 0 -17 -27 -20 -23 -11 23 13 70 68 65 78 -6z m-13 -186
c0 -13 72 -181 160 -373 88 -191 160 -351 160 -355 0 -3 -158 -6 -351 -6
l-351 0 30 55 c47 84 266 590 300 691 12 38 52 29 52 -12z m-509 -792 c-6 -10
3 -23 20 -30 18 -6 26 -3 19 8 -7 11 -2 20 10 20 13 0 19 -16 15 -35 -4 -19
-20 -32 -35 -29 -22 5 -22 0 2 -29 18 -22 19 -29 3 -20 -14 9 -25 6 -25 -7 0
-12 -9 -17 -20 -10 -28 17 -18 150 12 150 6 0 5 -8 -1 -18z m989 -71 c0 -41
-22 -50 -61 -26 -26 17 -31 30 -17 48 24 29 78 14 78 -22z m-90 -2052 l0
-1901 -135 6 -136 6 1 1755 0 1755 -150 0 -150 0 0 -1755 1 -1755 -136 -6
-135 -6 0 1901 0 1901 420 0 420 0 0 -1901z m0 -2422 c-5 -329 11 -317 -420
-317 -429 0 -413 -12 -419 316 l-5 244 424 0 424 0 -4 -243z"/>
</g>
</svg>
