<?xml version="1.0" standalone="no"?>
<!DOCTYPE svg PUBLIC "-//W3C//DTD SVG 20010904//EN"
 "http://www.w3.org/TR/2001/REC-SVG-20010904/DTD/svg10.dtd">
<svg version="1.0" xmlns="http://www.w3.org/2000/svg"
 width="300.000000pt" height="300.000000pt" viewBox="0 0 300.000000 300.000000"
 preserveAspectRatio="xMidYMid meet">
<metadata>
Created by potrace 1.10, written by Peter Selinger 2001-2011
</metadata>
<g transform="translate(0.000000,300.000000) scale(0.100000,-0.100000)"
fill="#000000" stroke="none">
<path d="M1816 2713 c-4 -4 -11 -8 -15 -8 -10 0 -62 -46 -86 -75 -14 -18 -10
-16 15 6 36 33 100 53 100 32 0 -6 3 -8 7 -4 4 3 13 -4 20 -16 7 -13 12 -18
13 -13 0 19 -46 86 -54 78z"/>
<path d="M1430 2644 c-6 -19 -9 -40 -7 -47 4 -8 6 -6 6 4 1 18 41 68 41 51 0
-5 9 -8 19 -5 14 3 36 -10 73 -43 l53 -48 -57 59 c-42 44 -65 61 -87 62 -26 2
-31 -3 -41 -33z"/>
<path d="M1751 2582 c-13 -24 -13 -66 -1 -102 6 -18 7 -11 4 21 -4 28 -1 56 6
69 6 12 9 24 7 27 -3 2 -10 -4 -16 -15z"/>
<path d="M1474 2539 c4 -55 64 -198 73 -173 2 7 -10 39 -27 71 -17 33 -35 82
-40 109 l-9 49 3 -56z"/>
<path d="M1664 2485 c2 -38 12 -65 40 -109 l37 -58 24 22 c24 22 69 30 225 40
l25 2 -27 8 c-15 4 -47 3 -73 -2 -40 -9 -48 -8 -61 9 -9 10 -13 13 -10 6 7
-13 -29 -28 -45 -18 -6 4 -22 -4 -36 -16 -19 -18 -25 -20 -20 -7 4 12 2 15 -7
12 -19 -7 -56 56 -66 114 l-9 47 3 -50z"/>
<path d="M2016 2492 c-4 -7 10 -10 40 -10 25 0 69 -3 97 -6 40 -5 47 -4 29 4
-37 15 -158 24 -166 12z"/>
<path d="M2275 2459 c22 -10 36 -19 30 -19 -5 0 1 -7 15 -15 18 -10 28 -10 38
-2 10 8 -1 16 -50 34 -75 27 -88 28 -33 2z"/>
<path d="M1470 2357 c0 -11 40 -87 45 -87 7 0 -24 73 -36 85 -5 5 -9 6 -9 2z"/>
<path d="M1640 2318 c0 -17 -10 -22 -38 -19 -12 2 -42 -22 -42 -33 0 -10 28
-6 32 4 2 6 16 12 31 14 35 4 41 10 28 33 -10 17 -10 17 -11 1z"/>
<path d="M2410 2324 c0 -4 18 -27 40 -51 48 -51 43 -64 -31 -83 -87 -22 -83
-20 -62 -36 10 -7 25 -13 33 -14 13 0 13 1 0 10 -21 13 -10 19 55 30 32 5 62
13 67 18 5 5 -13 35 -42 71 -50 59 -60 68 -60 55z"/>
<path d="M2061 2283 c18 -21 44 -45 58 -54 30 -19 94 -85 109 -114 6 -11 12
-15 12 -8 0 25 -114 143 -140 143 -9 0 -9 4 -2 13 14 17 -19 57 -48 57 -21 0
-20 -2 11 -37z"/>
<path d="M350 2223 c0 -49 9 -302 20 -563 11 -261 20 -498 20 -527 l0 -51 281
5 280 6 -7 -29 c-9 -38 -10 -39 -47 -40 -18 0 -62 -1 -99 -2 l-68 -2 0 -73 0
-73 86 4 c53 3 85 1 81 -5 -8 -12 -117 -432 -117 -449 0 -8 8 -14 18 -14 14 0
26 34 65 183 27 100 55 206 63 235 l15 52 70 0 c62 0 69 -2 69 -20 0 -13 7
-20 20 -20 13 0 20 7 20 20 0 21 -3 20 167 24 26 1 27 -3 75 -174 80 -291 76
-280 99 -280 15 0 19 5 15 18 -21 70 -116 425 -116 432 0 6 38 10 85 10 l85 0
-6 58 c-8 73 -19 84 -32 33 -8 -35 -8 -41 7 -42 9 -1 -15 -5 -53 -9 -39 -4
-72 -12 -74 -18 -5 -15 -62 -16 -62 -2 0 6 -70 10 -192 9 -106 0 -187 -3 -180
-6 23 -9 12 -23 -18 -23 -16 0 -30 5 -30 10 0 6 -30 10 -69 10 -39 0 -73 5
-76 10 -3 6 4 10 17 10 17 0 19 3 10 9 -8 5 -12 17 -10 27 3 16 15 20 88 24
61 4 84 9 83 18 -2 8 11 12 40 11 29 0 36 -3 23 -8 -18 -7 -18 -8 -2 -14 25
-10 74 -9 80 2 4 5 0 12 -6 14 -7 3 12 5 42 5 41 0 48 -2 30 -8 -23 -7 -23 -7
10 -11 50 -6 111 1 104 12 -3 5 11 9 30 9 19 0 38 -4 41 -10 10 -17 131 -12
145 5 11 13 2 15 -74 15 -62 0 -86 3 -86 13 0 6 -3 22 -6 35 -6 21 -4 22 59
22 55 0 68 -3 76 -19 9 -17 40 -39 137 -101 15 -9 22 -21 18 -30 -3 -8 -8 -44
-11 -80 l-5 -65 35 -17 c32 -15 36 -22 42 -70 4 -29 7 -87 5 -128 -1 -41 -2
-89 -2 -107 0 -23 -10 -44 -39 -76 -40 -46 -59 -84 -59 -118 0 -18 8 -19 113
-19 98 0 116 3 130 18 10 10 17 27 17 38 0 14 10 23 33 29 40 12 45 36 21 111
-15 47 -15 63 -5 112 18 83 21 87 79 90 50 3 50 3 63 -35 9 -24 13 -78 11
-151 l-2 -113 30 -5 c23 -5 29 -12 32 -37 2 -26 9 -33 35 -40 33 -10 191 -1
211 12 13 8 -1 72 -21 93 -7 7 -26 29 -43 49 l-31 37 1 118 c2 100 6 127 25
171 20 45 26 51 41 43 10 -6 26 -10 36 -10 15 0 16 10 10 108 -11 158 -11 155
-25 182 -20 36 -41 119 -41 165 l0 40 93 22 c116 28 215 77 239 119 27 46 40
129 28 175 -16 57 -158 205 -178 185 -3 -4 0 -11 8 -16 7 -4 15 -19 17 -31 2
-13 6 -25 10 -28 3 -3 3 5 0 19 -6 24 -5 24 8 6 8 -11 15 -30 15 -43 0 -13 5
-23 10 -23 6 0 10 -6 10 -14 0 -22 19 -30 35 -16 16 13 16 12 19 -29 0 -11 4
-23 9 -27 4 -4 6 -28 6 -53 -1 -25 -3 -38 -6 -28 -2 9 -9 17 -13 17 -6 0 -6
-10 -1 -22 10 -28 -17 -81 -43 -86 -10 -2 -36 8 -59 23 l-42 26 37 -35 c36
-34 36 -36 17 -47 -11 -5 -35 -11 -52 -11 -18 -1 -34 -4 -37 -9 -3 -4 -17 -9
-32 -11 -15 -2 -30 -7 -34 -11 -16 -16 -33 -5 -48 31 l-16 37 6 -37 c5 -28 1
-46 -15 -71 -23 -37 -30 -140 -11 -152 6 -3 10 -15 10 -26 0 -10 5 -19 10 -19
6 0 10 -4 10 -10 0 -5 -9 -10 -19 -10 -27 0 -34 -15 -19 -40 9 -15 20 -19 36
-15 19 5 22 1 23 -27 1 -18 3 -65 5 -104 l3 -70 -29 4 c-17 2 -46 -3 -65 -12
-68 -32 -175 -49 -318 -49 -94 -1 -141 3 -145 11 -5 7 -13 8 -22 2 -8 -6 -29
-10 -47 -10 -45 0 -73 48 -73 127 0 81 -13 103 -82 137 -32 15 -58 33 -58 38
0 9 -4 14 -45 61 l-25 28 6 -30 c6 -29 5 -30 -22 -22 -16 4 -47 4 -70 -1 -23
-5 -65 -5 -100 0 -36 6 -68 6 -83 1 -13 -6 -50 -7 -81 -3 -38 4 -60 3 -64 -5
-9 -14 -53 -14 -61 0 -5 7 -84 9 -246 6 -167 -3 -244 -1 -255 7 -12 9 -17 50
-24 211 -17 364 -25 579 -24 633 0 28 -2 52 -5 52 -11 0 -6 239 5 250 7 7 132
11 394 10 211 0 385 -1 387 -3 2 -2 -6 -15 -18 -28 -30 -34 -5 -36 38 -2 20
15 50 36 67 45 30 16 10 17 -436 18 l-468 0 0 -87z m910 -1135 c0 -7 3 -23 6
-35 6 -22 4 -23 -70 -23 l-76 0 0 35 0 35 70 0 c49 0 70 -4 70 -12z m-174 -28
c-1 -29 -2 -30 -55 -30 -44 0 -52 3 -47 16 3 9 6 22 6 30 0 10 13 14 49 14 47
0 48 -1 47 -30z m1208 5 c3 -10 -1 -15 -14 -15 -20 0 -33 13 -23 24 11 11 31
6 37 -9z m-69 -282 c-22 -55 -29 -99 -28 -195 0 -87 -3 -108 -14 -108 -8 0
-12 -4 -8 -10 3 -5 12 -7 19 -4 27 11 26 -16 -1 -33 -31 -20 -41 -43 -18 -43
8 0 23 -4 33 -9 9 -5 29 -14 45 -20 41 -16 35 -41 -10 -41 -62 0 -111 19 -148
56 -55 55 -39 101 27 76 20 -7 26 -7 21 1 -4 7 0 8 13 3 13 -5 16 -4 9 3 -5 5
-30 11 -55 13 l-45 3 -1 65 c-3 122 -46 178 -128 166 -24 -4 -53 -15 -64 -24
-28 -25 -58 -146 -43 -178 10 -22 8 -26 -15 -34 -14 -6 -47 -10 -73 -10 l-47
0 1 147 1 147 25 7 c14 3 76 3 139 0 113 -6 259 7 311 28 40 16 62 14 54 -6z
m-466 -350 c-13 -17 -13 -17 13 0 75 48 91 -2 23 -76 -42 -46 -47 -48 -110
-54 -66 -6 -67 -6 -63 18 2 17 10 25 28 27 14 2 29 8 35 13 5 5 23 9 40 9 l30
1 -24 19 c-13 11 -29 20 -37 20 -8 0 -14 8 -14 18 0 15 9 19 47 21 43 2 45 1
32 -16z m509 -21 c14 -21 13 -22 -15 -22 -25 0 -30 4 -28 23 1 12 3 24 4 25 3
9 26 -6 39 -26z m-608 -21 c0 -22 -15 -35 -30 -26 -7 4 -7 13 0 26 14 25 30
25 30 0z"/>
<path d="M1360 2291 c39 -23 50 -25 50 -12 0 5 -11 12 -24 15 -13 3 -32 8 -43
12 -10 3 -2 -4 17 -15z"/>
<path d="M1673 2277 c-2 -15 1 -16 13 -6 13 10 17 10 25 -2 5 -8 9 -22 9 -32
0 -55 34 -161 61 -190 23 -26 28 -28 29 -14 0 10 -12 39 -27 64 -26 46 -35 79
-37 140 -1 17 -4 29 -8 26 -5 -2 -8 4 -8 15 0 27 -55 26 -57 -1z"/>
<path d="M2155 2290 c4 -6 18 -15 32 -21 13 -5 22 -13 19 -18 -3 -4 9 -21 27
-38 46 -41 67 -51 36 -17 -14 16 -29 37 -32 46 -3 9 -25 27 -48 38 -22 12 -38
16 -34 10z"/>
<path d="M2278 2293 c17 -2 47 -2 65 0 17 2 3 4 -33 4 -36 0 -50 -2 -32 -4z"/>
<path d="M1780 2271 c8 -5 38 -11 67 -14 59 -7 155 -52 197 -93 21 -22 26 -24
18 -8 -21 39 -102 87 -188 109 -64 17 -119 20 -94 6z"/>
<path d="M1824 2209 c111 -18 227 -76 241 -120 4 -11 9 -18 12 -16 10 11 -29
67 -56 81 -65 34 -166 66 -205 65 l-41 -1 49 -9z"/>
<path d="M650 2202 l-175 -2 3 -53 c4 -95 32 -891 32 -928 l0 -35 58 3 c31 1
236 6 455 9 350 6 397 8 397 22 0 27 24 86 40 98 8 7 35 37 60 68 25 31 50 56
56 56 6 0 19 -9 29 -20 10 -11 20 -18 23 -15 3 2 10 -1 16 -9 6 -7 32 -21 59
-30 26 -10 47 -24 47 -32 0 -8 6 -14 14 -14 8 0 33 -18 56 -40 23 -22 48 -40
56 -40 8 0 14 -4 14 -10 0 -5 8 -6 18 -3 15 6 16 5 2 -13 -14 -17 -14 -18 1
-6 16 12 53 7 45 -7 -3 -4 -1 -13 5 -21 7 -12 9 -10 9 8 0 13 6 22 16 22 8 0
12 5 9 10 -6 9 -1 11 38 14 6 1 15 9 19 19 5 11 13 15 19 11 8 -4 9 -3 5 4 -8
14 29 102 43 102 5 0 12 -17 14 -37 2 -21 4 -7 3 30 0 59 2 70 19 80 11 6 36
27 56 47 32 32 45 38 100 44 63 7 64 7 90 -23 35 -42 44 -39 14 5 -14 20 -25
40 -25 44 0 16 31 32 51 27 15 -4 27 1 39 16 16 19 20 20 36 7 17 -13 18 -13
7 0 -8 10 -9 21 -3 30 19 30 9 34 -15 7 -31 -35 -87 -47 -110 -24 -14 15 -13
17 12 24 27 7 27 8 -12 13 -31 4 -39 9 -37 23 2 13 -4 17 -30 16 -18 0 -27 -3
-20 -6 17 -7 15 -23 -3 -23 -8 0 -19 9 -25 20 -9 18 -7 23 19 38 17 9 31 20
31 25 0 13 -17 8 -44 -14 l-26 -20 0 23 c0 16 10 30 32 43 19 11 27 20 20 23
-7 2 -21 -3 -31 -12 -24 -22 -27 -21 -40 16 -12 33 -6 52 8 29 6 -8 16 -11 31
-6 28 9 15 21 -35 33 -22 5 -48 13 -57 17 -28 11 -22 -13 11 -51 30 -34 33
-46 34 -154 1 -129 -14 -164 -91 -212 -18 -11 -31 -23 -28 -26 5 -4 -76 -164
-91 -182 -3 -3 -9 2 -13 10 -5 8 -21 34 -35 57 l-25 42 53 17 c30 9 65 25 78
36 l24 20 -35 -6 c-19 -4 -48 -16 -65 -29 -25 -18 -43 -22 -110 -22 -59 0 -79
3 -78 13 2 6 -3 12 -11 12 -24 0 -56 50 -56 87 0 73 40 104 96 74 20 -11 43
-18 52 -16 10 1 37 6 62 10 31 5 39 10 27 14 -17 6 -16 8 3 29 11 12 29 22 39
22 30 0 81 -21 81 -33 0 -7 4 -6 10 3 12 19 -2 27 -62 35 -44 6 -51 4 -83 -24
-40 -35 -97 -42 -131 -16 -27 21 -34 19 -81 -24 -41 -37 -42 -38 -32 -82 7
-28 23 -57 47 -81 33 -35 41 -38 90 -38 l55 0 -7 -37 c-3 -21 -6 -46 -6 -55 0
-10 -5 -18 -11 -18 -11 0 -78 50 -134 101 -16 15 -47 32 -68 39 -21 7 -54 25
-72 42 -28 24 -38 27 -54 19 -27 -15 -76 -14 -139 3 -28 8 -50 10 -46 5 3 -5
-17 -9 -45 -9 -27 0 -53 5 -56 10 -4 6 7 10 27 10 18 0 39 4 47 9 18 11 -7 25
-63 35 -22 4 -68 21 -102 37 -35 17 -68 27 -74 24 -6 -3 -20 -3 -31 0 -19 7
-18 10 21 47 43 42 100 115 100 130 0 20 -30 5 -49 -26 -27 -42 -108 -119
-151 -141 -43 -22 -69 -9 -120 60 -48 63 -74 116 -91 183 -12 48 -11 53 6 66
19 13 20 11 32 -45 14 -71 63 -165 107 -208 l33 -32 48 33 c51 34 105 95 109
121 1 8 7 21 13 28 16 21 26 59 15 59 -5 0 -26 -7 -45 -15 -47 -20 -63 -20
-48 -1 10 12 8 13 -9 9 l-20 -5 20 47 20 48 -62 -6 c-35 -3 -71 -8 -81 -12
-16 -6 -18 -4 -15 16 4 28 49 42 120 37 43 -3 58 4 58 28 0 8 -101 4 -151 -7
l-51 -11 4 -77 c5 -85 29 -144 81 -199 24 -25 28 -35 19 -44 -18 -18 -40 -2
-80 57 -44 64 -64 138 -60 222 l3 68 40 14 c22 8 79 15 127 15 l86 1 23 45
c13 25 25 48 27 53 8 16 -22 6 -39 -15 -11 -11 -19 -18 -19 -13 0 4 -9 -4 -21
-19 -18 -23 -27 -26 -87 -26 -114 0 -162 -26 -176 -94 -3 -15 -18 -37 -32 -49
-24 -18 -26 -25 -22 -76 6 -81 55 -179 123 -247 48 -48 60 -55 83 -50 68 16
102 18 102 7 0 -6 11 -11 24 -11 13 0 46 -9 73 -21 26 -11 59 -25 72 -30 17
-7 20 -13 13 -22 -8 -9 -85 -12 -317 -11 -371 2 -351 9 -340 -120 7 -88 17
-108 49 -105 52 4 106 -2 106 -11 0 -6 -43 -10 -110 -10 l-109 0 -5 33 c-7 44
-20 534 -21 742 l0 170 286 3 c280 2 286 2 295 -18 8 -19 11 -20 29 -5 19 14
19 16 3 28 -14 11 -15 16 -5 26 9 9 -21 11 -143 9 -85 -2 -234 -4 -330 -6z
m370 -325 c0 -27 30 -62 60 -72 26 -8 19 -38 -16 -75 -19 -20 -28 -23 -42 -14
-28 18 -73 99 -79 143 l-6 41 42 0 c36 0 41 -3 41 -23z m1333 -256 l26 -39
-67 -10 c-37 -5 -69 -8 -71 -6 -2 2 4 22 14 43 13 29 25 41 44 44 14 2 27 5
27 6 1 0 13 -17 27 -38z m-1643 -202 c0 -5 -11 -9 -25 -9 -14 0 -25 -4 -25
-10 0 -5 9 -10 20 -10 11 0 20 -4 20 -10 0 -5 -9 -10 -20 -10 -14 0 -20 -7
-20 -21 0 -42 -25 -12 -28 34 -3 45 -3 46 30 49 37 4 48 1 48 -13z m88 5 c30
-21 29 -59 -3 -80 -23 -15 -27 -15 -50 0 -32 21 -33 59 -3 80 12 9 25 16 28
16 3 0 16 -7 28 -16z m117 -47 c1 -50 -8 -59 -25 -27 -6 11 -15 20 -20 20 -6
0 -10 -9 -10 -20 0 -11 -4 -20 -10 -20 -5 0 -10 24 -10 53 l0 54 38 -6 c37 -6
37 -7 37 -54z m55 36 c0 -13 5 -12 25 7 29 27 47 19 21 -9 -17 -18 -17 -21 0
-45 21 -34 8 -49 -16 -18 -22 27 -26 27 -33 1 -9 -34 -27 -11 -27 35 0 23 3
46 6 49 10 10 24 -2 24 -20z m252 10 c25 -22 23 -59 -4 -77 -12 -9 -26 -16
-30 -16 -14 0 -48 39 -48 55 0 18 35 55 52 55 6 0 20 -7 30 -17z m63 -36 c0
-65 -19 -64 -23 2 -2 40 0 52 10 49 8 -3 13 -22 13 -51z m115 -1 c0 -58 -9
-63 -42 -24 l-28 33 2 -29 c2 -16 -2 -31 -9 -33 -9 -3 -13 10 -13 46 0 58 10
63 46 24 23 -26 25 -26 19 -6 -3 13 -3 27 0 33 12 20 25 -2 25 -44z m-275 15
c0 -13 -9 -29 -20 -35 -11 -6 -24 -17 -28 -24 -15 -22 -27 -2 -27 44 l0 45 38
-3 c32 -3 37 -6 37 -27z m375 19 c0 -5 -6 -10 -14 -10 -10 0 -16 -13 -18 -37
-2 -21 -7 -36 -13 -33 -5 3 -9 20 -7 38 3 23 0 32 -12 32 -8 0 -18 5 -21 10
-4 6 12 10 39 10 25 0 46 -4 46 -10z m460 -105 c5 -14 14 -25 20 -25 15 0 12
-46 -4 -59 -11 -10 -19 -7 -35 11 -12 12 -19 28 -16 36 3 7 5 19 5 25 1 7 7 1
16 -13 l15 -25 -7 25 c-4 14 -11 27 -15 28 -12 5 -11 22 1 22 6 0 15 -11 20
-25z m-1298 -12 c-6 -2 -10 -9 -6 -14 3 -5 -1 -9 -8 -10 -7 0 -4 -4 7 -9 19
-8 19 -9 -2 -9 -18 -1 -23 5 -23 24 0 19 5 25 23 24 12 0 16 -3 9 -6z m65 -2
c10 9 13 6 13 -15 0 -27 -13 -35 -26 -15 -4 8 -9 7 -15 -2 -6 -10 -9 -5 -9 16
0 22 3 26 12 17 8 -8 15 -9 25 -1z m71 -19 c3 -17 -2 -22 -17 -22 -16 0 -21 6
-21 26 0 33 33 30 38 -4z m62 5 c0 -16 -6 -23 -20 -24 -20 -2 -28 25 -13 40
14 15 33 6 33 -16z m70 -16 c0 -3 -11 -7 -24 -7 -23 -2 -24 0 -13 23 10 23 12
24 24 7 7 -10 13 -20 13 -23z m60 29 c0 -5 -3 -9 -7 -7 -5 1 -9 -2 -9 -8 -1
-5 2 -9 7 -7 5 1 9 -2 9 -8 0 -13 -27 -13 -35 0 -10 16 2 40 20 40 8 0 15 -4
15 -10z m51 3 c-11 -5 -11 -7 0 -14 12 -7 11 -9 -1 -9 -13 0 -13 -1 0 -10 13
-8 12 -10 -2 -10 -13 0 -18 8 -18 25 0 17 5 25 18 24 12 0 13 -2 3 -6z m105
-5 c5 -8 2 -9 -9 -5 -12 4 -17 1 -17 -9 0 -11 6 -14 16 -10 8 3 12 2 9 -4 -10
-17 -35 -11 -35 8 0 31 22 43 36 20z m54 0 c0 7 5 10 10 7 6 -3 10 -15 10 -26
0 -10 -4 -19 -10 -19 -5 0 -10 6 -10 13 0 9 -3 8 -9 -2 -12 -18 -25 4 -16 27
5 14 7 14 15 2 7 -11 10 -12 10 -2z m74 -4 c10 -25 7 -30 -14 -30 -21 0 -24 5
-14 30 8 20 20 20 28 0z m56 4 c0 6 5 12 10 12 6 0 10 -11 10 -25 0 -25 -19
-36 -21 -12 0 10 -2 10 -6 0 -7 -19 -23 -15 -23 5 0 25 12 35 22 20 6 -10 8
-10 8 0z m84 -4 c7 -19 -1 -34 -19 -34 -18 0 -28 17 -21 35 7 20 32 19 40 -1z
m-309 -44 c18 -20 17 -20 -18 -20 -39 0 -45 8 -25 28 16 16 22 15 43 -8z
m-183 -10 c56 0 25 -8 -50 -14 -39 -2 -72 -1 -72 4 0 9 56 19 78 13 8 -1 28
-3 44 -3z"/>
<path d="M744 1395 c-8 -20 4 -35 27 -35 14 0 19 7 19 25 0 18 -5 25 -20 25
-11 0 -23 -7 -26 -15z"/>
<path d="M1174 1395 c-4 -9 -2 -21 4 -27 15 -15 44 -1 40 19 -4 23 -36 29 -44
8z"/>
<path d="M2131 2185 c7 -16 11 -63 10 -102 -1 -54 3 -80 15 -98 12 -19 19 -23
25 -14 5 8 10 -1 14 -24 4 -20 11 -37 15 -37 12 0 -3 48 -28 90 -17 30 -38
140 -26 140 2 0 17 -19 34 -42 16 -22 30 -39 30 -36 0 18 -35 79 -65 113 -34
38 -35 39 -24 10z"/>
<path d="M1375 2184 c29 -22 61 -27 82 -14 17 11 17 11 0 6 -10 -3 -37 1 -60
9 -37 12 -40 12 -22 -1z"/>
<path d="M1450 2155 c-25 -7 -36 -13 -25 -14 15 -1 16 -4 7 -13 -9 -9 -19 -10
-42 -1 -38 14 -39 8 -2 -12 l27 -15 -43 2 c-35 2 -48 8 -67 32 -13 17 -27 27
-32 23 -9 -10 65 -77 86 -77 30 0 80 24 91 45 7 13 21 21 37 20 14 0 28 6 30
13 6 15 -8 14 -67 -3z"/>
<path d="M1550 2153 c0 -12 58 -93 66 -93 4 0 2 6 -4 13 -5 6 -21 30 -36 51
-14 21 -26 34 -26 29z"/>
<path d="M1790 2144 c0 -3 6 -17 14 -33 11 -21 29 -32 73 -45 32 -10 62 -17
67 -16 5 1 13 -4 17 -12 6 -9 9 -9 9 -1 0 15 -49 50 -83 58 -38 10 -48 30 -11
21 l29 -6 -25 14 c-27 14 -90 29 -90 20z"/>
<path d="M1516 2105 c-4 -21 -5 -40 -2 -43 3 -3 6 4 6 15 0 11 3 23 7 26 9 10
34 -50 27 -66 -2 -7 0 -24 6 -38 10 -23 10 -22 5 6 -4 22 -3 26 5 15 5 -8 10
-24 11 -35 1 -17 2 -16 9 5 6 22 8 23 15 7 4 -10 3 -28 -2 -40 -10 -24 -6 -57
6 -57 5 0 11 14 15 30 3 17 9 30 14 30 5 0 24 -13 42 -30 33 -30 46 -34 85
-30 24 2 47 19 40 30 -3 4 -21 11 -42 15 -79 15 -154 68 -208 147 l-33 49 -6
-36z"/>
<path d="M2481 2112 c10 -16 10 -23 0 -36 -9 -11 -10 -16 -2 -16 6 0 14 7 17
15 4 8 10 12 15 9 5 -3 5 5 0 18 -4 13 -16 25 -25 26 -15 3 -15 1 -5 -16z"/>
<path d="M1931 2097 c28 -13 89 -78 89 -96 0 -5 7 -8 16 -4 10 4 17 -2 21 -17
4 -16 8 -18 14 -8 6 9 9 10 9 1 0 -7 7 -10 16 -6 34 13 -128 145 -175 142 -10
0 -7 -5 10 -12z"/>
<path d="M1290 2022 c27 -22 65 -33 114 -31 21 1 13 4 -24 10 -30 5 -68 16
-85 25 l-30 16 25 -20z"/>
<path d="M1240 2013 c0 -15 56 -62 85 -69 12 -3 36 -4 51 -1 24 3 22 4 -10 6
-41 1 -99 31 -116 59 -5 9 -10 12 -10 5z"/>
<path d="M1156 1989 c-14 -11 -26 -25 -26 -30 0 -5 10 0 23 11 13 13 31 20 44
17 15 -3 20 0 16 10 -7 19 -26 16 -57 -8z"/>
<path d="M1453 1990 c1 -12 9 -28 19 -36 16 -15 16 -14 6 20 -12 39 -28 49
-25 16z"/>
<path d="M2566 1999 c60 -14 58 -49 -4 -109 -26 -25 -54 -54 -62 -64 -14 -18
-14 -19 7 -8 63 34 146 150 124 174 -3 3 -28 9 -56 12 l-50 5 41 -10z"/>
<path d="M2318 1925 c-2 -26 1 -45 7 -45 5 0 10 20 11 45 1 58 -13 58 -18 0z"/>
<path d="M1218 1910 c-28 -12 -35 -19 -26 -28 8 -8 17 -6 36 9 15 11 29 16 36
10 11 -8 56 -22 56 -16 0 2 -15 12 -33 22 -30 18 -34 19 -69 3z"/>
<path d="M1930 1915 c0 -25 32 -55 60 -55 16 0 32 -5 35 -11 4 -6 13 -8 20 -5
8 3 19 -2 25 -10 16 -18 34 -18 51 2 11 13 9 14 -13 9 -18 -5 -27 -2 -31 9 -4
9 -13 13 -22 10 -8 -4 -15 -1 -15 6 0 8 -10 9 -32 5 -27 -6 -35 -3 -55 21 -13
16 -23 24 -23 19z"/>
<path d="M1556 1877 c-7 -19 -17 -44 -21 -56 -9 -29 13 -94 30 -87 7 2 21 -4
31 -15 24 -27 33 -24 79 24 22 23 49 48 60 55 18 11 16 12 -15 6 -19 -4 -38
-11 -42 -17 -4 -8 -14 -5 -28 8 -18 16 -20 16 -14 2 3 -9 9 -17 13 -17 4 0 7
-10 6 -22 -1 -18 -8 -23 -31 -23 -50 0 -73 80 -34 125 24 28 24 27 0 40 -17 9
-21 6 -34 -23z"/>
<path d="M1352 1865 c4 -16 0 -25 -11 -28 -11 -3 -9 -5 5 -6 17 -1 23 6 26 29
3 22 0 30 -10 30 -10 0 -13 -8 -10 -25z"/>
<path d="M1253 1802 c-6 -4 15 -8 48 -9 32 0 57 2 54 7 -6 10 -86 11 -102 2z"/>
<path d="M2013 1803 c-18 -7 -16 -69 3 -88 40 -39 73 20 39 71 -16 24 -20 26
-42 17z"/>
<path d="M1293 1772 c-29 -2 -53 -7 -53 -12 0 -7 109 -2 118 5 8 7 -18 10 -65
7z"/>
<path d="M1712 1728 c-25 -25 -5 -98 27 -98 15 0 31 25 31 48 0 50 -31 77 -58
50z"/>
<path d="M1526 1680 c4 -25 11 -56 17 -70 l11 -25 3 25 c2 14 -5 46 -17 70
l-20 45 6 -45z"/>
<path d="M1417 1663 c26 -40 65 -79 92 -93 32 -16 17 -28 -60 -45 -63 -15 -64
-15 -14 -11 28 2 67 11 88 20 l39 17 -39 28 c-22 16 -55 47 -75 70 -40 47 -57
55 -31 14z"/>
<path d="M2037 1511 c-5 -24 -3 -37 5 -42 17 -11 17 -10 9 36 l-7 40 -7 -34z"/>
<path d="M1880 1451 c0 -6 -9 -11 -20 -11 -11 0 -20 -2 -20 -4 0 -2 -3 -13 -6
-23 -4 -11 -3 -14 3 -7 4 6 21 18 37 26 18 10 25 18 17 22 -6 4 -11 2 -11 -3z"/>
<path d="M1647 1225 c-5 -16 -16 -38 -24 -47 -15 -16 -15 -18 0 -18 21 0 39
34 35 68 l-3 27 -8 -30z"/>
<path d="M2147 1110 c2 -52 11 -125 18 -161 8 -37 16 -73 17 -80 4 -17 18 -29
36 -29 7 0 5 7 -6 18 -21 21 -43 118 -47 207 -2 33 -5 67 -8 75 -4 8 -8 26
-10 40 -2 14 -2 -18 0 -70z"/>
<path d="M1716 1168 c37 -61 64 -100 64 -93 0 10 -60 105 -67 105 -2 0 -1 -6
3 -12z"/>
<path d="M1727 1023 c-7 -11 11 -53 21 -53 17 0 33 27 26 44 -6 16 -39 22 -47
9z"/>
<path d="M1794 908 c0 -47 4 -84 9 -81 9 5 7 110 -3 143 -5 16 -7 -8 -6 -62z"/>
<path d="M953 933 c26 -2 67 -2 90 0 23 2 2 3 -48 3 -49 0 -68 -1 -42 -3z"/>
</g>
</svg>
