<svg width="3820" height="1758" viewBox="0 0 3820 1758" fill="none" xmlns="http://www.w3.org/2000/svg">
<line x1="4" y1="2.00537" x2="2745.14" y2="2.00537" stroke="#575757" stroke-width="4"/>
<line x1="4" y1="1755.01" x2="2745.14" y2="1755.01" stroke="#575757" stroke-width="4"/>
<line x1="2" y1="1757" x2="2" stroke="#575757" stroke-width="4"/>
<line x1="2746.99" y1="1757.01" x2="2746.99" y2="0.0117188" stroke="#575757" stroke-width="4"/>
<path d="M1525.35 540.529H1191.9" stroke="#575757" stroke-width="4" stroke-linecap="round" stroke-linejoin="round"/>
<path d="M1608.71 434.757H1108.54" stroke="#575757" stroke-width="4" stroke-linecap="round" stroke-linejoin="round"/>
<path d="M1608.71 782.3H1108.54" stroke="#575757" stroke-width="4" stroke-linecap="round" stroke-linejoin="round"/>
<path d="M1525.35 888.073H1191.9" stroke="#575757" stroke-width="4" stroke-linecap="round" stroke-linejoin="round"/>
<path d="M1608.71 1065.59H1108.54" stroke="#575757" stroke-width="4" stroke-linecap="round" stroke-linejoin="round"/>
<path d="M1608.71 1171.57H1108.54" stroke="#575757" stroke-width="4" stroke-linecap="round" stroke-linejoin="round"/>
<path d="M1608.71 1277.54H1108.54" stroke="#575757" stroke-width="4" stroke-linecap="round" stroke-linejoin="round"/>
<path d="M704.444 409.381H315.424" stroke="#575757" stroke-width="4" stroke-linecap="round" stroke-linejoin="round"/>
<path d="M815.593 304.005H315.424" stroke="#575757" stroke-width="4" stroke-linecap="round" stroke-linejoin="round"/>
<path d="M815.593 514.756H315.424" stroke="#575757" stroke-width="4" stroke-linecap="round" stroke-linejoin="round"/>
<path d="M704.444 620.132H315.424" stroke="#575757" stroke-width="4" stroke-linecap="round" stroke-linejoin="round"/>
<path d="M704.444 1239.38H315.424" stroke="#575757" stroke-width="4" stroke-linecap="round" stroke-linejoin="round"/>
<path d="M815.593 1134.01H315.424" stroke="#575757" stroke-width="4" stroke-linecap="round" stroke-linejoin="round"/>
<path d="M815.593 1344.76H315.424" stroke="#575757" stroke-width="4" stroke-linecap="round" stroke-linejoin="round"/>
<path d="M704.444 1450.13H315.424" stroke="#575757" stroke-width="4" stroke-linecap="round" stroke-linejoin="round"/>
<path d="M2441.29 409.381H2052.27" stroke="#575757" stroke-width="4" stroke-linecap="round" stroke-linejoin="round"/>
<path d="M2441.29 304.005H1941.12" stroke="#575757" stroke-width="4" stroke-linecap="round" stroke-linejoin="round"/>
<path d="M2441.29 620.132H2052.27" stroke="#575757" stroke-width="4" stroke-linecap="round" stroke-linejoin="round"/>
<path d="M2445.14 471.287L2460.14 479.947V462.627L2445.14 471.287ZM2745.14 471.287L2730.14 462.627V479.947L2745.14 471.287ZM2458.64 472.787H2731.64V469.787H2458.64V472.787Z" fill="#575757"/>
<path d="M5.13965 471.287L20.1396 479.947V462.627L5.13965 471.287ZM305.14 471.287L290.14 462.627V479.947L305.14 471.287ZM18.6396 472.787H291.64V469.787H18.6396V472.787Z" fill="#575757"/>
<path d="M2191.2 304.005L2199.86 289.005H2182.54L2191.2 304.005ZM2191.2 4.00537L2182.54 19.0054H2199.86L2191.2 4.00537ZM2192.7 290.505V17.5054H2189.7V290.505H2192.7Z" fill="#575757"/>
<path d="M531.202 304.005L539.862 289.005H522.541L531.202 304.005ZM531.202 4.00537L522.541 19.0054H539.862L531.202 4.00537ZM532.702 290.505V17.5054H529.702V290.505H532.702Z" fill="#575757"/>
<path d="M491.934 216.009L453.555 198.431V221.781H449.102V193.216H452.852L491.934 210.677V216.009ZM491.934 180.573L453.555 162.995V186.345H449.102V157.78H452.852L491.934 175.241V180.573ZM459.239 133.419C459.239 129.415 460.615 126.221 463.369 123.839C466.123 121.456 470.264 120.264 475.791 120.264C479.444 120.264 482.51 120.811 484.99 121.905C487.471 122.999 489.346 124.542 490.615 126.534C491.885 128.507 492.52 130.841 492.52 133.536C492.52 135.235 492.295 136.729 491.846 138.018C491.397 139.307 490.791 140.411 490.03 141.329C489.268 142.247 488.438 143.008 487.539 143.614V143.966C488.301 143.907 489.219 143.839 490.293 143.76C491.367 143.663 492.305 143.614 493.106 143.614H506.289V148.507H459.824V144.493L464.571 143.848V143.614C463.594 142.989 462.705 142.227 461.905 141.329C461.084 140.43 460.44 139.337 459.971 138.048C459.483 136.739 459.239 135.196 459.239 133.419ZM463.34 134.268C463.34 136.495 463.77 138.292 464.629 139.659C465.489 141.007 466.778 141.993 468.496 142.618C470.196 143.243 472.334 143.575 474.912 143.614H475.85C478.565 143.614 480.86 143.321 482.735 142.735C484.61 142.13 486.035 141.143 487.012 139.776C487.989 138.389 488.477 136.534 488.477 134.21C488.477 132.217 487.94 130.557 486.865 129.229C485.791 127.901 484.297 126.915 482.383 126.27C480.449 125.606 478.233 125.274 475.733 125.274C471.944 125.274 468.936 126.016 466.709 127.501C464.463 128.966 463.34 131.221 463.34 134.268ZM475.498 103.022L459.824 114.125V108.559L472.188 100.092L459.824 91.6546V86.1468L475.498 97.2503L491.934 85.5315V91.0979L478.838 100.092L491.934 109.145V114.653L475.498 103.022Z" fill="#575757"/>
<path d="M101.134 406.19C104.044 406.19 106.573 406.688 108.722 407.684C110.87 408.661 112.53 410.086 113.702 411.961C114.894 413.836 115.489 416.112 115.489 418.788C115.489 421.717 114.854 424.247 113.585 426.375C112.315 428.485 110.489 430.116 108.106 431.268C105.724 432.401 102.872 432.967 99.5518 432.967C97.3252 432.967 95.2549 432.772 93.3408 432.381C91.4268 431.991 89.8154 431.405 88.5068 430.624V425.995C89.9326 426.854 91.6611 427.538 93.6924 428.045C95.7236 428.553 97.6963 428.807 99.6104 428.807C101.778 428.807 103.673 428.465 105.294 427.782C106.935 427.079 108.204 426.024 109.103 424.618C110.021 423.192 110.479 421.405 110.479 419.256C110.479 416.405 109.601 414.208 107.843 412.665C106.104 411.102 103.351 410.321 99.5811 410.321C98.3701 410.321 97.042 410.418 95.5967 410.614C94.1514 410.809 92.96 411.024 92.0225 411.258L89.5615 409.647L91.2021 389.549H112.501V394.002H95.3623L94.2783 406.922C95.0205 406.766 95.9775 406.61 97.1494 406.454C98.3213 406.278 99.6494 406.19 101.134 406.19ZM136.57 406.19C139.48 406.19 142.009 406.688 144.158 407.684C146.306 408.661 147.966 410.086 149.138 411.961C150.329 413.836 150.925 416.112 150.925 418.788C150.925 421.717 150.29 424.247 149.021 426.375C147.751 428.485 145.925 430.116 143.542 431.268C141.16 432.401 138.308 432.967 134.988 432.967C132.761 432.967 130.691 432.772 128.777 432.381C126.863 431.991 125.251 431.405 123.943 430.624V425.995C125.369 426.854 127.097 427.538 129.128 428.045C131.16 428.553 133.132 428.807 135.046 428.807C137.214 428.807 139.109 428.465 140.73 427.782C142.371 427.079 143.64 426.024 144.538 424.618C145.456 423.192 145.915 421.405 145.915 419.256C145.915 416.405 145.037 414.208 143.279 412.665C141.54 411.102 138.787 410.321 135.017 410.321C133.806 410.321 132.478 410.418 131.033 410.614C129.587 410.809 128.396 411.024 127.458 411.258L124.997 409.647L126.638 389.549H147.937V394.002H130.798L129.714 406.922C130.456 406.766 131.413 406.61 132.585 406.454C133.757 406.278 135.085 406.19 136.57 406.19ZM175.726 399.686C179.73 399.686 182.924 401.063 185.306 403.817C187.689 406.571 188.881 410.711 188.881 416.239C188.881 419.891 188.334 422.958 187.24 425.438C186.146 427.918 184.603 429.793 182.611 431.063C180.638 432.333 178.304 432.967 175.609 432.967C173.91 432.967 172.416 432.743 171.127 432.293C169.838 431.844 168.734 431.239 167.816 430.477C166.898 429.715 166.137 428.885 165.531 427.987H165.179C165.238 428.749 165.306 429.667 165.385 430.741C165.482 431.815 165.531 432.752 165.531 433.553V446.737H160.638V400.272H164.652L165.297 405.018H165.531C166.156 404.042 166.918 403.153 167.816 402.352C168.715 401.532 169.808 400.887 171.097 400.418C172.406 399.93 173.949 399.686 175.726 399.686ZM174.877 403.788C172.65 403.788 170.853 404.217 169.486 405.077C168.138 405.936 167.152 407.225 166.527 408.944C165.902 410.643 165.57 412.782 165.531 415.36V416.297C165.531 419.012 165.824 421.307 166.41 423.182C167.015 425.057 168.002 426.483 169.369 427.459C170.756 428.436 172.611 428.924 174.935 428.924C176.928 428.924 178.588 428.387 179.916 427.313C181.244 426.239 182.23 424.745 182.875 422.831C183.539 420.897 183.871 418.68 183.871 416.18C183.871 412.391 183.129 409.383 181.644 407.157C180.179 404.911 177.924 403.788 174.877 403.788ZM206.123 415.946L195.02 400.272H200.586L209.053 412.635L217.49 400.272H222.998L211.895 415.946L223.613 432.381H218.047L209.053 419.286L200 432.381H194.492L206.123 415.946Z" fill="#575757"/>
<path d="M2541.13 406.19C2544.04 406.19 2546.57 406.688 2548.72 407.684C2550.87 408.661 2552.53 410.086 2553.7 411.961C2554.89 413.836 2555.49 416.112 2555.49 418.788C2555.49 421.717 2554.85 424.247 2553.58 426.375C2552.31 428.485 2550.49 430.116 2548.11 431.268C2545.72 432.401 2542.87 432.967 2539.55 432.967C2537.32 432.967 2535.25 432.772 2533.34 432.381C2531.43 431.991 2529.81 431.405 2528.51 430.624V425.995C2529.93 426.854 2531.66 427.538 2533.69 428.045C2535.72 428.553 2537.7 428.807 2539.61 428.807C2541.78 428.807 2543.67 428.465 2545.29 427.782C2546.93 427.079 2548.2 426.024 2549.1 424.618C2550.02 423.192 2550.48 421.405 2550.48 419.256C2550.48 416.405 2549.6 414.208 2547.84 412.665C2546.1 411.102 2543.35 410.321 2539.58 410.321C2538.37 410.321 2537.04 410.418 2535.6 410.614C2534.15 410.809 2532.96 411.024 2532.02 411.258L2529.56 409.647L2531.2 389.549H2552.5V394.002H2535.36L2534.28 406.922C2535.02 406.766 2535.98 406.61 2537.15 406.454C2538.32 406.278 2539.65 406.19 2541.13 406.19ZM2576.57 406.19C2579.48 406.19 2582.01 406.688 2584.16 407.684C2586.31 408.661 2587.97 410.086 2589.14 411.961C2590.33 413.836 2590.92 416.112 2590.92 418.788C2590.92 421.717 2590.29 424.247 2589.02 426.375C2587.75 428.485 2585.92 430.116 2583.54 431.268C2581.16 432.401 2578.31 432.967 2574.99 432.967C2572.76 432.967 2570.69 432.772 2568.78 432.381C2566.86 431.991 2565.25 431.405 2563.94 430.624V425.995C2565.37 426.854 2567.1 427.538 2569.13 428.045C2571.16 428.553 2573.13 428.807 2575.05 428.807C2577.21 428.807 2579.11 428.465 2580.73 427.782C2582.37 427.079 2583.64 426.024 2584.54 424.618C2585.46 423.192 2585.91 421.405 2585.91 419.256C2585.91 416.405 2585.04 414.208 2583.28 412.665C2581.54 411.102 2578.79 410.321 2575.02 410.321C2573.81 410.321 2572.48 410.418 2571.03 410.614C2569.59 410.809 2568.4 411.024 2567.46 411.258L2565 409.647L2566.64 389.549H2587.94V394.002H2570.8L2569.71 406.922C2570.46 406.766 2571.41 406.61 2572.58 406.454C2573.76 406.278 2575.08 406.19 2576.57 406.19ZM2615.73 399.686C2619.73 399.686 2622.92 401.063 2625.31 403.817C2627.69 406.571 2628.88 410.711 2628.88 416.239C2628.88 419.891 2628.33 422.958 2627.24 425.438C2626.15 427.918 2624.6 429.793 2622.61 431.063C2620.64 432.333 2618.3 432.967 2615.61 432.967C2613.91 432.967 2612.42 432.743 2611.13 432.293C2609.84 431.844 2608.73 431.239 2607.82 430.477C2606.9 429.715 2606.14 428.885 2605.53 427.987H2605.18C2605.24 428.749 2605.31 429.667 2605.38 430.741C2605.48 431.815 2605.53 432.752 2605.53 433.553V446.737H2600.64V400.272H2604.65L2605.3 405.018H2605.53C2606.16 404.042 2606.92 403.153 2607.82 402.352C2608.71 401.532 2609.81 400.887 2611.1 400.418C2612.41 399.93 2613.95 399.686 2615.73 399.686ZM2614.88 403.788C2612.65 403.788 2610.85 404.217 2609.49 405.077C2608.14 405.936 2607.15 407.225 2606.53 408.944C2605.9 410.643 2605.57 412.782 2605.53 415.36V416.297C2605.53 419.012 2605.82 421.307 2606.41 423.182C2607.01 425.057 2608 426.483 2609.37 427.459C2610.76 428.436 2612.61 428.924 2614.93 428.924C2616.93 428.924 2618.59 428.387 2619.92 427.313C2621.24 426.239 2622.23 424.745 2622.87 422.831C2623.54 420.897 2623.87 418.68 2623.87 416.18C2623.87 412.391 2623.13 409.383 2621.64 407.157C2620.18 404.911 2617.92 403.788 2614.88 403.788ZM2646.12 415.946L2635.02 400.272H2640.59L2649.05 412.635L2657.49 400.272H2663L2651.89 415.946L2663.61 432.381H2658.05L2649.05 419.286L2640 432.381H2634.49L2646.12 415.946Z" fill="#575757"/>
<path d="M2230.47 92.0015L2268.85 109.58V86.23H2273.3V114.794H2269.55L2230.47 97.3335V92.0015ZM2230.47 127.437L2268.85 145.016V121.666H2273.3V150.23H2269.55L2230.47 132.769V127.437ZM2263.17 174.592C2263.17 178.596 2261.79 181.789 2259.03 184.172C2256.28 186.555 2252.14 187.746 2246.61 187.746C2242.96 187.746 2239.89 187.2 2237.41 186.106C2234.93 185.012 2233.06 183.469 2231.79 181.477C2230.52 179.504 2229.88 177.17 2229.88 174.475C2229.88 172.776 2230.11 171.282 2230.56 169.992C2231.01 168.703 2231.61 167.6 2232.37 166.682C2233.14 165.764 2233.97 165.002 2234.86 164.397V164.045C2234.1 164.104 2233.18 164.172 2232.11 164.25C2231.04 164.348 2230.1 164.397 2229.3 164.397H2216.11V159.504H2262.58V163.518L2257.83 164.162V164.397C2258.81 165.022 2259.7 165.783 2260.5 166.682C2261.32 167.58 2261.96 168.674 2262.43 169.963C2262.92 171.272 2263.17 172.815 2263.17 174.592ZM2259.06 173.742C2259.06 171.516 2258.63 169.719 2257.77 168.352C2256.92 167.004 2255.63 166.018 2253.91 165.393C2252.21 164.768 2250.07 164.436 2247.49 164.397H2246.55C2243.84 164.397 2241.54 164.69 2239.67 165.276C2237.79 165.881 2236.37 166.867 2235.39 168.235C2234.42 169.621 2233.93 171.477 2233.93 173.801C2233.93 175.793 2234.46 177.453 2235.54 178.782C2236.61 180.11 2238.11 181.096 2240.02 181.741C2241.95 182.405 2244.17 182.737 2246.67 182.737C2250.46 182.737 2253.47 181.994 2255.69 180.51C2257.94 179.045 2259.06 176.789 2259.06 173.742ZM2246.91 204.989L2262.58 193.885V199.452L2250.22 207.919L2262.58 216.356V221.864L2246.91 210.76L2230.47 222.479V216.913L2243.57 207.919L2230.47 198.866V193.358L2246.91 204.989Z" fill="#575757"/>
<path d="M1473.3 1065.59L1481.96 1050.59H1464.63L1473.3 1065.59ZM1473.3 888.872L1464.63 903.872H1481.96L1473.3 888.872ZM1474.8 1052.09V902.372H1471.8V1052.09H1474.8Z" fill="#575757"/>
<path d="M1517.37 942.712C1517.37 944.312 1517.09 945.704 1516.54 946.885C1516.01 948.067 1515.22 948.98 1514.19 949.625C1513.16 950.28 1511.91 950.607 1510.44 950.607C1508.83 950.607 1507.44 950.258 1506.26 949.56C1505.1 948.862 1504.21 947.857 1503.57 946.547C1502.95 945.236 1502.64 943.668 1502.64 941.842C1502.64 940.617 1502.75 939.479 1502.96 938.426C1503.18 937.373 1503.5 936.487 1503.93 935.767H1506.47C1506 936.551 1505.63 937.502 1505.35 938.619C1505.07 939.736 1504.93 940.821 1504.93 941.874C1504.93 943.066 1505.12 944.108 1505.49 945C1505.88 945.902 1506.46 946.601 1507.23 947.095C1508.02 947.6 1509 947.852 1510.18 947.852C1511.75 947.852 1512.96 947.369 1513.81 946.402C1514.67 945.446 1515.09 943.931 1515.09 941.858C1515.09 941.192 1515.04 940.461 1514.93 939.667C1514.83 938.872 1514.71 938.216 1514.58 937.701L1515.47 936.347L1526.52 937.25V948.964H1524.07V939.538L1516.96 938.941C1517.05 939.35 1517.14 939.876 1517.22 940.521C1517.32 941.165 1517.37 941.896 1517.37 942.712ZM1526.86 963.035C1526.86 964.399 1526.64 965.608 1526.21 966.661C1525.78 967.713 1525.15 968.535 1524.31 969.126C1523.48 969.727 1522.46 970.028 1521.25 970.028C1520.29 970.028 1519.46 969.819 1518.74 969.4C1518.03 968.992 1517.4 968.438 1516.87 967.74C1516.34 967.042 1515.87 966.268 1515.45 965.42C1514.99 966.43 1514.47 967.337 1513.89 968.143C1513.31 968.959 1512.62 969.604 1511.84 970.077C1511.06 970.549 1510.13 970.786 1509.05 970.786C1507.73 970.786 1506.59 970.463 1505.62 969.819C1504.66 969.185 1503.93 968.293 1503.41 967.144C1502.9 965.995 1502.64 964.646 1502.64 963.1C1502.64 961.434 1502.89 960.017 1503.38 958.846C1503.89 957.685 1504.6 956.799 1505.54 956.187C1506.48 955.585 1507.62 955.285 1508.94 955.285C1510.02 955.285 1510.96 955.516 1511.76 955.977C1512.56 956.439 1513.26 957.052 1513.84 957.814C1514.42 958.577 1514.91 959.41 1515.3 960.312C1515.73 959.528 1516.22 958.808 1516.77 958.153C1517.32 957.508 1517.96 956.993 1518.69 956.606C1519.43 956.23 1520.29 956.042 1521.27 956.042C1522.46 956.042 1523.47 956.343 1524.3 956.944C1525.13 957.557 1525.77 958.389 1526.2 959.442C1526.64 960.505 1526.86 961.703 1526.86 963.035ZM1508.92 957.911C1507.72 957.911 1506.73 958.335 1505.94 959.184C1505.17 960.033 1504.78 961.316 1504.78 963.035C1504.78 964.668 1505.17 965.93 1505.94 966.822C1506.73 967.713 1507.75 968.159 1509.02 968.159C1509.8 968.159 1510.49 967.955 1511.08 967.547C1511.68 967.139 1512.22 966.558 1512.69 965.807C1513.17 965.055 1513.6 964.168 1513.98 963.148L1514.19 962.568C1513.78 961.579 1513.33 960.736 1512.82 960.038C1512.33 959.35 1511.76 958.824 1511.13 958.459C1510.5 958.094 1509.76 957.911 1508.92 957.911ZM1524.67 963.003C1524.67 961.735 1524.36 960.699 1523.75 959.893C1523.15 959.087 1522.28 958.684 1521.14 958.684C1520.32 958.684 1519.63 958.878 1519.06 959.265C1518.5 959.662 1518.02 960.199 1517.61 960.876C1517.21 961.553 1516.84 962.31 1516.5 963.148C1516.84 963.964 1517.22 964.689 1517.62 965.323C1518.04 965.957 1518.54 966.456 1519.11 966.822C1519.68 967.187 1520.36 967.37 1521.15 967.37C1522.29 967.37 1523.16 966.967 1523.76 966.161C1524.37 965.366 1524.67 964.313 1524.67 963.003ZM1520.94 984.728C1520.94 986.93 1520.19 988.686 1518.67 989.997C1517.16 991.307 1514.88 991.963 1511.84 991.963C1509.83 991.963 1508.14 991.662 1506.78 991.06C1505.42 990.459 1504.38 989.61 1503.69 988.514C1502.99 987.429 1502.64 986.146 1502.64 984.663C1502.64 983.729 1502.76 982.907 1503.01 982.198C1503.26 981.489 1503.59 980.882 1504.01 980.377C1504.43 979.872 1504.88 979.453 1505.38 979.12V978.927C1504.96 978.959 1504.45 978.997 1503.86 979.04C1503.27 979.094 1502.76 979.12 1502.32 979.12H1495.07V976.429H1520.62V978.637L1518.01 978.992V979.12C1518.55 979.464 1519.04 979.883 1519.48 980.377C1519.93 980.871 1520.28 981.473 1520.54 982.182C1520.81 982.902 1520.94 983.75 1520.94 984.728ZM1518.69 984.261C1518.69 983.036 1518.45 982.048 1517.98 981.296C1517.51 980.554 1516.8 980.012 1515.85 979.668C1514.92 979.325 1513.74 979.142 1512.32 979.12H1511.81C1510.31 979.12 1509.05 979.282 1508.02 979.604C1506.99 979.937 1506.21 980.479 1505.67 981.231C1505.13 981.994 1504.86 983.014 1504.86 984.293C1504.86 985.388 1505.16 986.302 1505.75 987.032C1506.34 987.763 1507.16 988.305 1508.21 988.659C1509.28 989.025 1510.5 989.207 1511.87 989.207C1513.96 989.207 1515.61 988.799 1516.83 987.983C1518.07 987.177 1518.69 985.936 1518.69 984.261ZM1512 1001.94L1520.62 995.834V998.896L1513.82 1003.55L1520.62 1008.19V1011.22L1512 1005.12L1502.96 1011.56V1008.5L1510.16 1003.55L1502.96 998.573V995.544L1512 1001.94Z" fill="#575757"/>
<path d="M1473.3 782.3L1481.96 767.3H1464.63L1473.3 782.3ZM1473.3 535.303L1464.63 550.303H1481.96L1473.3 535.303ZM1474.8 768.8V548.803H1471.8V768.8H1474.8Z" fill="#575757"/>
<path d="M1502.96 624.805L1524.07 634.473V621.631H1526.52V637.341H1524.46L1502.96 627.738V624.805ZM1514.77 657.31C1512.86 657.31 1511.15 657.165 1509.65 656.875C1508.14 656.585 1506.87 656.128 1505.83 655.505C1504.79 654.882 1503.99 654.077 1503.44 653.088C1502.91 652.1 1502.64 650.913 1502.64 649.527C1502.64 647.776 1503.12 646.326 1504.07 645.177C1505.03 644.038 1506.41 643.184 1508.21 642.615C1510.03 642.056 1512.22 641.777 1514.77 641.777C1517.29 641.777 1519.45 642.029 1521.25 642.534C1523.07 643.05 1524.46 643.877 1525.42 645.016C1526.4 646.154 1526.89 647.658 1526.89 649.527C1526.89 651.3 1526.41 652.761 1525.44 653.91C1524.48 655.059 1523.1 655.913 1521.28 656.472C1519.48 657.031 1517.31 657.31 1514.77 657.31ZM1514.77 644.468C1512.58 644.468 1510.75 644.634 1509.29 644.967C1507.83 645.3 1506.74 645.837 1506.01 646.579C1505.29 647.33 1504.93 648.313 1504.93 649.527C1504.93 650.741 1505.29 651.719 1506.01 652.46C1506.73 653.212 1507.82 653.754 1509.28 654.087C1510.74 654.431 1512.57 654.603 1514.77 654.603C1516.93 654.603 1518.74 654.436 1520.19 654.103C1521.65 653.77 1522.74 653.233 1523.47 652.492C1524.21 651.751 1524.59 650.763 1524.59 649.527C1524.59 648.292 1524.21 647.304 1523.47 646.562C1522.74 645.821 1521.65 645.284 1520.19 644.951C1518.74 644.629 1516.93 644.468 1514.77 644.468ZM1520.94 671.22C1520.94 673.422 1520.19 675.179 1518.67 676.489C1517.16 677.8 1514.88 678.455 1511.84 678.455C1509.83 678.455 1508.14 678.154 1506.78 677.553C1505.42 676.951 1504.38 676.102 1503.69 675.007C1502.99 673.922 1502.64 672.638 1502.64 671.156C1502.64 670.221 1502.76 669.399 1503.01 668.69C1503.26 667.981 1503.59 667.374 1504.01 666.869C1504.43 666.365 1504.88 665.946 1505.38 665.613V665.419C1504.96 665.451 1504.45 665.489 1503.86 665.532C1503.27 665.586 1502.76 665.613 1502.32 665.613H1495.07V662.922H1520.62V665.129L1518.01 665.484V665.613C1518.55 665.956 1519.04 666.375 1519.48 666.869C1519.93 667.364 1520.28 667.965 1520.54 668.674C1520.81 669.394 1520.94 670.242 1520.94 671.22ZM1518.69 670.753C1518.69 669.528 1518.45 668.54 1517.98 667.788C1517.51 667.047 1516.8 666.504 1515.85 666.16C1514.92 665.817 1513.74 665.634 1512.32 665.613H1511.81C1510.31 665.613 1509.05 665.774 1508.02 666.096C1506.99 666.429 1506.21 666.971 1505.67 667.723C1505.13 668.486 1504.86 669.507 1504.86 670.785C1504.86 671.881 1505.16 672.794 1505.75 673.524C1506.34 674.255 1507.16 674.797 1508.21 675.152C1509.28 675.517 1510.5 675.7 1511.87 675.7C1513.96 675.7 1515.61 675.291 1516.83 674.475C1518.07 673.669 1518.69 672.429 1518.69 670.753ZM1512 688.433L1520.62 682.326V685.388L1513.82 690.045L1520.62 694.685V697.715L1512 691.608L1502.96 698.053V694.991L1510.16 690.045L1502.96 685.066V682.036L1512 688.433Z" fill="#575757"/>
<path d="M2441.29 1238.28H2052.27" stroke="#575757" stroke-width="4" stroke-linecap="round" stroke-linejoin="round"/>
<path d="M2441.29 1132.9H1941.12" stroke="#575757" stroke-width="4" stroke-linecap="round" stroke-linejoin="round"/>
<path d="M2441.29 1343.66H1941.12" stroke="#575757" stroke-width="4" stroke-linecap="round" stroke-linejoin="round"/>
<path d="M2441.29 1449.03H2052.27" stroke="#575757" stroke-width="4" stroke-linecap="round" stroke-linejoin="round"/>
<path d="M2445.14 1305.19L2460.14 1313.85V1296.53L2445.14 1305.19ZM2745.14 1305.19L2730.14 1296.53V1313.85L2745.14 1305.19ZM2458.64 1306.69H2731.64V1303.69H2458.64V1306.69Z" fill="#575757"/>
<path d="M2191.2 1752.9L2199.86 1737.9H2182.54L2191.2 1752.9ZM2191.2 1452.9L2182.54 1467.9H2199.86L2191.2 1452.9ZM2192.7 1739.4V1466.4H2189.7V1739.4H2192.7Z" fill="#575757"/>
<path d="M2541.13 1240.09C2544.04 1240.09 2546.57 1240.59 2548.72 1241.58C2550.87 1242.56 2552.53 1243.99 2553.7 1245.86C2554.89 1247.74 2555.49 1250.01 2555.49 1252.69C2555.49 1255.62 2554.85 1258.15 2553.58 1260.27C2552.31 1262.38 2550.49 1264.02 2548.11 1265.17C2545.72 1266.3 2542.87 1266.87 2539.55 1266.87C2537.32 1266.87 2535.25 1266.67 2533.34 1266.28C2531.43 1265.89 2529.81 1265.3 2528.51 1264.52V1259.89C2529.93 1260.75 2531.66 1261.44 2533.69 1261.94C2535.72 1262.45 2537.7 1262.71 2539.61 1262.71C2541.78 1262.71 2543.67 1262.36 2545.29 1261.68C2546.93 1260.98 2548.2 1259.92 2549.1 1258.52C2550.02 1257.09 2550.48 1255.3 2550.48 1253.16C2550.48 1250.3 2549.6 1248.11 2547.84 1246.56C2546.1 1245 2543.35 1244.22 2539.58 1244.22C2538.37 1244.22 2537.04 1244.32 2535.6 1244.51C2534.15 1244.71 2532.96 1244.92 2532.02 1245.16L2529.56 1243.55L2531.2 1223.45H2552.5V1227.9H2535.36L2534.28 1240.82C2535.02 1240.67 2535.98 1240.51 2537.15 1240.35C2538.32 1240.18 2539.65 1240.09 2541.13 1240.09ZM2576.57 1240.09C2579.48 1240.09 2582.01 1240.59 2584.16 1241.58C2586.31 1242.56 2587.97 1243.99 2589.14 1245.86C2590.33 1247.74 2590.92 1250.01 2590.92 1252.69C2590.92 1255.62 2590.29 1258.15 2589.02 1260.27C2587.75 1262.38 2585.92 1264.02 2583.54 1265.17C2581.16 1266.3 2578.31 1266.87 2574.99 1266.87C2572.76 1266.87 2570.69 1266.67 2568.78 1266.28C2566.86 1265.89 2565.25 1265.3 2563.94 1264.52V1259.89C2565.37 1260.75 2567.1 1261.44 2569.13 1261.94C2571.16 1262.45 2573.13 1262.71 2575.05 1262.71C2577.21 1262.71 2579.11 1262.36 2580.73 1261.68C2582.37 1260.98 2583.64 1259.92 2584.54 1258.52C2585.46 1257.09 2585.91 1255.3 2585.91 1253.16C2585.91 1250.3 2585.04 1248.11 2583.28 1246.56C2581.54 1245 2578.79 1244.22 2575.02 1244.22C2573.81 1244.22 2572.48 1244.32 2571.03 1244.51C2569.59 1244.71 2568.4 1244.92 2567.46 1245.16L2565 1243.55L2566.64 1223.45H2587.94V1227.9H2570.8L2569.71 1240.82C2570.46 1240.67 2571.41 1240.51 2572.58 1240.35C2573.76 1240.18 2575.08 1240.09 2576.57 1240.09ZM2615.73 1233.59C2619.73 1233.59 2622.92 1234.96 2625.31 1237.72C2627.69 1240.47 2628.88 1244.61 2628.88 1250.14C2628.88 1253.79 2628.33 1256.86 2627.24 1259.34C2626.15 1261.82 2624.6 1263.69 2622.61 1264.96C2620.64 1266.23 2618.3 1266.87 2615.61 1266.87C2613.91 1266.87 2612.42 1266.64 2611.13 1266.19C2609.84 1265.74 2608.73 1265.14 2607.82 1264.38C2606.9 1263.61 2606.14 1262.78 2605.53 1261.89H2605.18C2605.24 1262.65 2605.31 1263.57 2605.38 1264.64C2605.48 1265.71 2605.53 1266.65 2605.53 1267.45V1280.64H2600.64V1234.17H2604.65L2605.3 1238.92H2605.53C2606.16 1237.94 2606.92 1237.05 2607.82 1236.25C2608.71 1235.43 2609.81 1234.79 2611.1 1234.32C2612.41 1233.83 2613.95 1233.59 2615.73 1233.59ZM2614.88 1237.69C2612.65 1237.69 2610.85 1238.12 2609.49 1238.98C2608.14 1239.84 2607.15 1241.12 2606.53 1242.84C2605.9 1244.54 2605.57 1246.68 2605.53 1249.26V1250.2C2605.53 1252.91 2605.82 1255.21 2606.41 1257.08C2607.01 1258.96 2608 1260.38 2609.37 1261.36C2610.76 1262.34 2612.61 1262.82 2614.93 1262.82C2616.93 1262.82 2618.59 1262.29 2619.92 1261.21C2621.24 1260.14 2622.23 1258.64 2622.87 1256.73C2623.54 1254.8 2623.87 1252.58 2623.87 1250.08C2623.87 1246.29 2623.13 1243.28 2621.64 1241.06C2620.18 1238.81 2617.92 1237.69 2614.88 1237.69ZM2646.12 1249.85L2635.02 1234.17H2640.59L2649.05 1246.53L2657.49 1234.17H2663L2651.89 1249.85L2663.61 1266.28H2658.05L2649.05 1253.19L2640 1266.28H2634.49L2646.12 1249.85Z" fill="#575757"/>
<path d="M2230.47 1540.9L2268.85 1558.48V1535.13H2273.3V1563.69H2269.55L2230.47 1546.23V1540.9ZM2230.47 1576.34L2268.85 1593.91V1570.57H2273.3V1599.13H2269.55L2230.47 1581.67V1576.34ZM2263.17 1623.49C2263.17 1627.5 2261.79 1630.69 2259.03 1633.07C2256.28 1635.45 2252.14 1636.65 2246.61 1636.65C2242.96 1636.65 2239.89 1636.1 2237.41 1635.01C2234.93 1633.91 2233.06 1632.37 2231.79 1630.38C2230.52 1628.4 2229.88 1626.07 2229.88 1623.37C2229.88 1621.68 2230.11 1620.18 2230.56 1618.89C2231.01 1617.6 2231.61 1616.5 2232.37 1615.58C2233.14 1614.66 2233.97 1613.9 2234.86 1613.3V1612.94C2234.1 1613 2233.18 1613.07 2232.11 1613.15C2231.04 1613.25 2230.1 1613.3 2229.3 1613.3H2216.11V1608.4H2262.58V1612.42L2257.83 1613.06V1613.3C2258.81 1613.92 2259.7 1614.68 2260.5 1615.58C2261.32 1616.48 2261.96 1617.57 2262.43 1618.86C2262.92 1620.17 2263.17 1621.71 2263.17 1623.49ZM2259.06 1622.64C2259.06 1620.42 2258.63 1618.62 2257.77 1617.25C2256.92 1615.9 2255.63 1614.92 2253.91 1614.29C2252.21 1613.67 2250.07 1613.34 2247.49 1613.3H2246.55C2243.84 1613.3 2241.54 1613.59 2239.67 1614.18C2237.79 1614.78 2236.37 1615.77 2235.39 1617.13C2234.42 1618.52 2233.93 1620.38 2233.93 1622.7C2233.93 1624.69 2234.46 1626.35 2235.54 1627.68C2236.61 1629.01 2238.11 1630 2240.02 1630.64C2241.95 1631.3 2244.17 1631.64 2246.67 1631.64C2250.46 1631.64 2253.47 1630.89 2255.69 1629.41C2257.94 1627.94 2259.06 1625.69 2259.06 1622.64ZM2246.91 1653.89L2262.58 1642.78V1648.35L2250.22 1656.82L2262.58 1665.26V1670.76L2246.91 1659.66L2230.47 1671.38V1665.81L2243.57 1656.82L2230.47 1647.77V1642.26L2246.91 1653.89Z" fill="#575757"/>
<path d="M5.13965 1305.19L20.1396 1313.85V1296.53L5.13965 1305.19ZM305.14 1305.19L290.14 1296.53V1313.85L305.14 1305.19ZM18.6396 1306.69H291.64V1303.69H18.6396V1306.69Z" fill="#575757"/>
<path d="M564.202 1752.9L572.862 1737.9H555.541L564.202 1752.9ZM564.202 1452.9L555.541 1467.9H572.862L564.202 1452.9ZM565.702 1739.4V1466.4H562.702V1739.4H565.702Z" fill="#575757"/>
<path d="M101.133 1240.09C104.043 1240.09 106.573 1240.59 108.721 1241.58C110.87 1242.56 112.53 1243.99 113.702 1245.86C114.893 1247.74 115.489 1250.01 115.489 1252.69C115.489 1255.62 114.854 1258.15 113.584 1260.27C112.315 1262.38 110.489 1264.02 108.106 1265.17C105.723 1266.3 102.872 1266.87 99.5513 1266.87C97.3247 1266.87 95.2544 1266.67 93.3403 1266.28C91.4263 1265.89 89.8149 1265.3 88.5063 1264.52V1259.89C89.9321 1260.75 91.6606 1261.44 93.6919 1261.94C95.7231 1262.45 97.6958 1262.71 99.6099 1262.71C101.778 1262.71 103.672 1262.36 105.293 1261.68C106.934 1260.98 108.204 1259.92 109.102 1258.52C110.02 1257.09 110.479 1255.3 110.479 1253.16C110.479 1250.3 109.6 1248.11 107.842 1246.56C106.104 1245 103.35 1244.22 99.5806 1244.22C98.3696 1244.22 97.0415 1244.32 95.5962 1244.51C94.1509 1244.71 92.9595 1244.92 92.022 1245.16L89.561 1243.55L91.2017 1223.45H112.5V1227.9H95.3618L94.2778 1240.82C95.02 1240.67 95.9771 1240.51 97.1489 1240.35C98.3208 1240.18 99.6489 1240.09 101.133 1240.09ZM136.569 1240.09C139.479 1240.09 142.009 1240.59 144.157 1241.58C146.306 1242.56 147.966 1243.99 149.138 1245.86C150.329 1247.74 150.925 1250.01 150.925 1252.69C150.925 1255.62 150.29 1258.15 149.02 1260.27C147.751 1262.38 145.925 1264.02 143.542 1265.17C141.159 1266.3 138.308 1266.87 134.987 1266.87C132.761 1266.87 130.69 1266.67 128.776 1266.28C126.862 1265.89 125.251 1265.3 123.942 1264.52V1259.89C125.368 1260.75 127.097 1261.44 129.128 1261.94C131.159 1262.45 133.132 1262.71 135.046 1262.71C137.214 1262.71 139.108 1262.36 140.729 1261.68C142.37 1260.98 143.64 1259.92 144.538 1258.52C145.456 1257.09 145.915 1255.3 145.915 1253.16C145.915 1250.3 145.036 1248.11 143.278 1246.56C141.54 1245 138.786 1244.22 135.017 1244.22C133.806 1244.22 132.477 1244.32 131.032 1244.51C129.587 1244.71 128.395 1244.92 127.458 1245.16L124.997 1243.55L126.638 1223.45H147.936V1227.9H130.798L129.714 1240.82C130.456 1240.67 131.413 1240.51 132.585 1240.35C133.757 1240.18 135.085 1240.09 136.569 1240.09ZM175.726 1233.59C179.73 1233.59 182.923 1234.96 185.306 1237.72C187.689 1240.47 188.88 1244.61 188.88 1250.14C188.88 1253.79 188.333 1256.86 187.24 1259.34C186.146 1261.82 184.603 1263.69 182.611 1264.96C180.638 1266.23 178.304 1266.87 175.609 1266.87C173.909 1266.87 172.415 1266.64 171.126 1266.19C169.837 1265.74 168.734 1265.14 167.816 1264.38C166.898 1263.61 166.136 1262.78 165.531 1261.89H165.179C165.238 1262.65 165.306 1263.57 165.384 1264.64C165.482 1265.71 165.531 1266.65 165.531 1267.45V1280.64H160.638V1234.17H164.652L165.296 1238.92H165.531C166.156 1237.94 166.917 1237.05 167.816 1236.25C168.714 1235.43 169.808 1234.79 171.097 1234.32C172.406 1233.83 173.949 1233.59 175.726 1233.59ZM174.876 1237.69C172.65 1237.69 170.853 1238.12 169.486 1238.98C168.138 1239.84 167.152 1241.12 166.527 1242.84C165.902 1244.54 165.57 1246.68 165.531 1249.26V1250.2C165.531 1252.91 165.824 1255.21 166.409 1257.08C167.015 1258.96 168.001 1260.38 169.368 1261.36C170.755 1262.34 172.611 1262.82 174.935 1262.82C176.927 1262.82 178.587 1262.29 179.915 1261.21C181.243 1260.14 182.23 1258.64 182.874 1256.73C183.538 1254.8 183.87 1252.58 183.87 1250.08C183.87 1246.29 183.128 1243.28 181.644 1241.06C180.179 1238.81 177.923 1237.69 174.876 1237.69ZM206.123 1249.85L195.019 1234.17H200.586L209.052 1246.53L217.49 1234.17H222.998L211.894 1249.85L223.613 1266.28H218.047L209.052 1253.19L200 1266.28H194.492L206.123 1249.85Z" fill="#575757"/>
<path d="M603.47 1540.9L641.849 1558.48V1535.13H646.302V1563.69H642.552L603.47 1546.23V1540.9ZM603.47 1576.34L641.849 1593.91V1570.57H646.302V1599.13H642.552L603.47 1581.67V1576.34ZM636.165 1623.49C636.165 1627.5 634.788 1630.69 632.034 1633.07C629.28 1635.45 625.14 1636.65 619.612 1636.65C615.96 1636.65 612.894 1636.1 610.413 1635.01C607.933 1633.91 606.058 1632.37 604.788 1630.38C603.519 1628.4 602.884 1626.07 602.884 1623.37C602.884 1621.68 603.108 1620.18 603.558 1618.89C604.007 1617.6 604.612 1616.5 605.374 1615.58C606.136 1614.66 606.966 1613.9 607.864 1613.3V1612.94C607.103 1613 606.185 1613.07 605.11 1613.15C604.036 1613.25 603.099 1613.3 602.298 1613.3H589.114V1608.4H635.579V1612.42L630.833 1613.06V1613.3C631.81 1613.92 632.698 1614.68 633.499 1615.58C634.319 1616.48 634.964 1617.57 635.433 1618.86C635.921 1620.17 636.165 1621.71 636.165 1623.49ZM632.063 1622.64C632.063 1620.42 631.634 1618.62 630.774 1617.25C629.915 1615.9 628.626 1614.92 626.907 1614.29C625.208 1613.67 623.069 1613.34 620.491 1613.3H619.554C616.839 1613.3 614.544 1613.59 612.669 1614.18C610.794 1614.78 609.368 1615.77 608.392 1617.13C607.415 1618.52 606.927 1620.38 606.927 1622.7C606.927 1624.69 607.464 1626.35 608.538 1627.68C609.612 1629.01 611.106 1630 613.021 1630.64C614.954 1631.3 617.171 1631.64 619.671 1631.64C623.46 1631.64 626.468 1630.89 628.694 1629.41C630.94 1627.94 632.063 1625.69 632.063 1622.64ZM619.905 1653.89L635.579 1642.78V1648.35L623.216 1656.82L635.579 1665.26V1670.76L619.905 1659.66L603.47 1671.38V1665.81L616.565 1656.82L603.47 1647.77V1642.26L619.905 1653.89Z" fill="#575757"/>
<path d="M471.128 1399.85V1351.85H504.878V1362.35H484.159V1370.6H502.815V1381.1H484.159V1399.85H471.128ZM556.171 1375.85C556.171 1381.19 555.132 1385.7 553.053 1389.37C550.975 1393.03 548.171 1395.8 544.639 1397.69C541.108 1399.56 537.171 1400.5 532.827 1400.5C528.452 1400.5 524.499 1399.56 520.967 1397.67C517.452 1395.76 514.655 1392.98 512.577 1389.32C510.514 1385.65 509.483 1381.16 509.483 1375.85C509.483 1370.5 510.514 1366 512.577 1362.35C514.655 1358.67 517.452 1355.9 520.967 1354.03C524.499 1352.13 528.452 1351.19 532.827 1351.19C537.171 1351.19 541.108 1352.13 544.639 1354.03C548.171 1355.9 550.975 1358.67 553.053 1362.35C555.132 1366 556.171 1370.5 556.171 1375.85ZM542.764 1375.85C542.764 1372.97 542.382 1370.55 541.616 1368.58C540.866 1366.6 539.749 1365.1 538.264 1364.08C536.796 1363.05 534.983 1362.53 532.827 1362.53C530.671 1362.53 528.85 1363.05 527.366 1364.08C525.897 1365.1 524.78 1366.6 524.014 1368.58C523.264 1370.55 522.889 1372.97 522.889 1375.85C522.889 1378.72 523.264 1381.15 524.014 1383.13C524.78 1385.1 525.897 1386.6 527.366 1387.63C528.85 1388.65 530.671 1389.16 532.827 1389.16C534.983 1389.16 536.796 1388.65 538.264 1387.63C539.749 1386.6 540.866 1385.1 541.616 1383.13C542.382 1381.15 542.764 1378.72 542.764 1375.85ZM562.2 1399.85V1351.85H582.919C586.481 1351.85 589.598 1352.49 592.27 1353.79C594.942 1355.09 597.02 1356.96 598.505 1359.39C599.989 1361.83 600.731 1364.75 600.731 1368.16C600.731 1371.6 599.966 1374.49 598.434 1376.85C596.919 1379.21 594.786 1380.99 592.036 1382.2C589.301 1383.4 586.106 1384 582.45 1384H570.075V1373.88H579.825C581.356 1373.88 582.661 1373.69 583.739 1373.31C584.833 1372.92 585.669 1372.31 586.247 1371.46C586.841 1370.62 587.137 1369.52 587.137 1368.16C587.137 1366.78 586.841 1365.67 586.247 1364.81C585.669 1363.93 584.833 1363.29 583.739 1362.88C582.661 1362.46 581.356 1362.25 579.825 1362.25H575.231V1399.85H562.2ZM590.325 1377.81L602.325 1399.85H588.169L576.45 1377.81H590.325ZM606.286 1399.85V1351.85H619.317V1371.25H619.973L634.411 1351.85H649.598L633.38 1373.22L649.973 1399.85H634.411L623.63 1381.85L619.317 1387.47V1399.85H606.286ZM653.466 1399.85V1351.85H674.184C677.747 1351.85 680.864 1352.55 683.536 1353.96C686.208 1355.36 688.286 1357.34 689.77 1359.88C691.255 1362.43 691.997 1365.41 691.997 1368.81C691.997 1372.25 691.231 1375.23 689.7 1377.74C688.184 1380.26 686.051 1382.2 683.301 1383.56C680.567 1384.92 677.372 1385.6 673.716 1385.6H661.341V1375.47H671.091C672.622 1375.47 673.926 1375.21 675.005 1374.67C676.098 1374.13 676.934 1373.35 677.512 1372.35C678.106 1371.35 678.403 1370.17 678.403 1368.81C678.403 1367.44 678.106 1366.27 677.512 1365.3C676.934 1364.31 676.098 1363.56 675.005 1363.05C673.926 1362.52 672.622 1362.25 671.091 1362.25H666.497V1399.85H653.466ZM743.278 1375.85C743.278 1381.19 742.239 1385.7 740.161 1389.37C738.083 1393.03 735.278 1395.8 731.747 1397.69C728.216 1399.56 724.278 1400.5 719.934 1400.5C715.559 1400.5 711.606 1399.56 708.075 1397.67C704.559 1395.76 701.762 1392.98 699.684 1389.32C697.622 1385.65 696.591 1381.16 696.591 1375.85C696.591 1370.5 697.622 1366 699.684 1362.35C701.762 1358.67 704.559 1355.9 708.075 1354.03C711.606 1352.13 715.559 1351.19 719.934 1351.19C724.278 1351.19 728.216 1352.13 731.747 1354.03C735.278 1355.9 738.083 1358.67 740.161 1362.35C742.239 1366 743.278 1370.5 743.278 1375.85ZM729.872 1375.85C729.872 1372.97 729.489 1370.55 728.723 1368.58C727.973 1366.6 726.856 1365.1 725.372 1364.08C723.903 1363.05 722.091 1362.53 719.934 1362.53C717.778 1362.53 715.958 1363.05 714.473 1364.08C713.005 1365.1 711.887 1366.6 711.122 1368.58C710.372 1370.55 709.997 1372.97 709.997 1375.85C709.997 1378.72 710.372 1381.15 711.122 1383.13C711.887 1385.1 713.005 1386.6 714.473 1387.63C715.958 1388.65 717.778 1389.16 719.934 1389.16C722.091 1389.16 723.903 1388.65 725.372 1387.63C726.856 1386.6 727.973 1385.1 728.723 1383.13C729.489 1381.15 729.872 1378.72 729.872 1375.85ZM762.339 1351.85V1399.85H749.307V1351.85H762.339ZM810.046 1351.85V1399.85H799.171L781.827 1374.63H781.546V1399.85H768.514V1351.85H779.577L796.639 1376.97H797.014V1351.85H810.046ZM814.897 1362.35V1351.85H856.616V1362.35H842.178V1399.85H829.335V1362.35H814.897Z" fill="#575757"/>
<path d="M407.808 1387.5C395.736 1408.59 378.898 1423.81 356.892 1433.34C353.902 1434.63 351.842 1434.39 349.316 1432.28C324.758 1411.76 310.061 1385.73 305.263 1354.1C304.529 1349.27 306.992 1346.5 314.769 1343.3C316.448 1368.52 325.215 1390.88 341.65 1410.13C342.406 1411.01 343.153 1411.91 343.977 1412.73C356.661 1425.37 352.252 1425.44 368.049 1415.3C389.593 1401.47 402.909 1381.44 408.151 1356.23C408.381 1355.12 408.837 1354.05 409.193 1352.95C419.117 1356.93 419.563 1357.4 416.292 1366.91C413.922 1373.81 410.773 1380.43 407.808 1387.5Z" fill="#8ACF31"/>
<path d="M352.637 1338.04C348.696 1339.03 345.168 1339.91 341.446 1340.83C341.267 1339.98 341.019 1339.36 341.028 1338.75C341.179 1328.33 339.751 1330.15 349.268 1328.16C380.278 1321.69 408.659 1327.96 434.379 1346.55C437.549 1348.84 438.469 1351.24 437.878 1354.93C432.806 1386.51 418.015 1412.5 393.137 1432.62C391.751 1433.74 388.977 1433.79 387.034 1433.41C384.663 1432.94 382.488 1431.48 379.668 1430.2C381.118 1429 382.176 1428.05 383.303 1427.2C406.27 1409.78 420.642 1386.97 426.558 1358.74C427.249 1355.44 426.558 1353.64 423.728 1351.81C401.992 1337.74 378.397 1333.44 352.637 1338.04Z" fill="#8ACF31"/>
<path d="M361.942 1318.37C353.664 1319.92 345.845 1321.44 338.018 1322.91C334.952 1323.49 333.841 1325.22 333.57 1328.37C331.033 1357.9 340.434 1383.02 361.075 1404.09C362.227 1405.27 363.55 1406.28 364.603 1407.2C364.379 1407.98 364.39 1408.42 364.203 1408.53C354.044 1414.89 356.742 1415.22 349.233 1406.71C327.597 1382.2 319.256 1353.58 323.88 1321.13C324.385 1317.59 325.897 1316.01 329.078 1314.89C355.887 1305.48 382.813 1304.87 409.902 1313.54C419.724 1316.68 420.231 1317.48 419.704 1328.47C401.369 1320.39 382.382 1316.43 361.942 1318.37Z" fill="#8ACF31"/>
<path d="M336.722 1236.61H331.212V1194.33H316.387V1189.49H351.482V1194.33H336.722V1236.61ZM371.398 1200.64C374.406 1200.64 376.984 1201.31 379.133 1202.64C381.281 1203.97 382.925 1205.84 384.063 1208.25C385.202 1210.63 385.771 1213.43 385.771 1216.63V1219.95H361.376C361.44 1224.09 362.471 1227.25 364.469 1229.42C366.468 1231.59 369.282 1232.68 372.913 1232.68C375.147 1232.68 377.124 1232.47 378.843 1232.07C380.561 1231.66 382.344 1231.06 384.192 1230.26V1234.97C382.409 1235.76 380.636 1236.34 378.875 1236.71C377.135 1237.07 375.072 1237.25 372.687 1237.25C369.293 1237.25 366.328 1236.57 363.793 1235.19C361.279 1233.79 359.324 1231.75 357.927 1229.07C356.531 1226.38 355.833 1223.1 355.833 1219.21C355.833 1215.4 356.467 1212.12 357.734 1209.35C359.023 1206.55 360.828 1204.4 363.148 1202.9C365.49 1201.4 368.24 1200.64 371.398 1200.64ZM371.334 1205.03C368.476 1205.03 366.199 1205.96 364.502 1207.83C362.804 1209.7 361.795 1212.31 361.472 1215.66H380.164C380.142 1213.56 379.809 1211.71 379.165 1210.12C378.542 1208.51 377.586 1207.26 376.297 1206.38C375.008 1205.48 373.353 1205.03 371.334 1205.03ZM403.27 1218.53L391.056 1201.29H397.179L406.493 1214.89L415.774 1201.29H421.833L409.619 1218.53L422.51 1236.61H416.386L406.493 1222.2L396.535 1236.61H390.476L403.27 1218.53ZM440.814 1232.87C441.695 1232.87 442.597 1232.8 443.521 1232.65C444.445 1232.5 445.197 1232.31 445.777 1232.1V1236.25C445.154 1236.53 444.284 1236.77 443.167 1236.96C442.071 1237.16 440.997 1237.25 439.944 1237.25C438.075 1237.25 436.378 1236.93 434.852 1236.29C433.327 1235.62 432.102 1234.5 431.178 1232.94C430.276 1231.37 429.825 1229.2 429.825 1226.43V1205.48H424.798V1202.87L429.857 1200.77L431.984 1193.1H435.207V1201.29H445.552V1205.48H435.207V1226.26C435.207 1228.48 435.712 1230.13 436.721 1231.23C437.753 1232.32 439.117 1232.87 440.814 1232.87ZM475.426 1186.46V1201.45C475.426 1202.31 475.404 1203.18 475.361 1204.06C475.318 1204.92 475.243 1205.71 475.135 1206.45H475.49C476.22 1205.2 477.144 1204.16 478.261 1203.32C479.4 1202.46 480.689 1201.82 482.129 1201.39C483.568 1200.93 485.094 1200.71 486.705 1200.71C489.541 1200.71 491.904 1201.16 493.795 1202.06C495.707 1202.96 497.135 1204.36 498.081 1206.25C499.048 1208.14 499.531 1210.59 499.531 1213.6V1236.61H494.246V1213.95C494.246 1211.01 493.569 1208.81 492.216 1207.35C490.884 1205.89 488.832 1205.16 486.06 1205.16C483.439 1205.16 481.344 1205.66 479.776 1206.67C478.229 1207.66 477.112 1209.12 476.425 1211.05C475.759 1212.99 475.426 1215.35 475.426 1218.14V1236.61H470.076V1186.46H475.426ZM524.152 1200.64C527.16 1200.64 529.738 1201.31 531.886 1202.64C534.035 1203.97 535.678 1205.84 536.817 1208.25C537.956 1210.63 538.525 1213.43 538.525 1216.63V1219.95H514.13C514.194 1224.09 515.225 1227.25 517.223 1229.42C519.221 1231.59 522.036 1232.68 525.667 1232.68C527.901 1232.68 529.878 1232.47 531.596 1232.07C533.315 1231.66 535.098 1231.06 536.946 1230.26V1234.97C535.163 1235.76 533.39 1236.34 531.629 1236.71C529.888 1237.07 527.826 1237.25 525.441 1237.25C522.047 1237.25 519.082 1236.57 516.547 1235.19C514.033 1233.79 512.078 1231.75 510.681 1229.07C509.285 1226.38 508.587 1223.1 508.587 1219.21C508.587 1215.4 509.22 1212.12 510.488 1209.35C511.777 1206.55 513.582 1204.4 515.902 1202.9C518.244 1201.4 520.994 1200.64 524.152 1200.64ZM524.088 1205.03C521.23 1205.03 518.953 1205.96 517.256 1207.83C515.558 1209.7 514.549 1212.31 514.226 1215.66H532.918C532.896 1213.56 532.563 1211.71 531.919 1210.12C531.296 1208.51 530.34 1207.26 529.051 1206.38C527.761 1205.48 526.107 1205.03 524.088 1205.03ZM563.662 1200.64C564.371 1200.64 565.112 1200.69 565.885 1200.77C566.659 1200.84 567.346 1200.93 567.948 1201.06L567.271 1206.03C566.691 1205.88 566.047 1205.76 565.338 1205.67C564.629 1205.59 563.963 1205.54 563.34 1205.54C561.922 1205.54 560.579 1205.83 559.311 1206.41C558.065 1206.97 556.969 1207.79 556.024 1208.86C555.079 1209.92 554.338 1211.19 553.801 1212.7C553.263 1214.18 552.995 1215.83 552.995 1217.66V1236.61H547.613V1201.29H552.06L552.64 1207.8H552.866C553.596 1206.49 554.477 1205.3 555.509 1204.22C556.54 1203.13 557.732 1202.26 559.086 1201.61C560.461 1200.97 561.986 1200.64 563.662 1200.64ZM588.219 1200.64C591.226 1200.64 593.804 1201.31 595.953 1202.64C598.101 1203.97 599.745 1205.84 600.884 1208.25C602.022 1210.63 602.592 1213.43 602.592 1216.63V1219.95H578.196C578.26 1224.09 579.292 1227.25 581.29 1229.42C583.288 1231.59 586.102 1232.68 589.733 1232.68C591.968 1232.68 593.944 1232.47 595.663 1232.07C597.382 1231.66 599.165 1231.06 601.012 1230.26V1234.97C599.229 1235.76 597.457 1236.34 595.695 1236.71C593.955 1237.07 591.892 1237.25 589.508 1237.25C586.113 1237.25 583.148 1236.57 580.613 1235.19C578.099 1233.79 576.144 1231.75 574.748 1229.07C573.351 1226.38 572.653 1223.1 572.653 1219.21C572.653 1215.4 573.287 1212.12 574.554 1209.35C575.844 1206.55 577.648 1204.4 579.969 1202.9C582.31 1201.4 585.06 1200.64 588.219 1200.64ZM588.154 1205.03C585.297 1205.03 583.019 1205.96 581.322 1207.83C579.625 1209.7 578.615 1212.31 578.293 1215.66H596.984C596.963 1213.56 596.63 1211.71 595.985 1210.12C595.362 1208.51 594.406 1207.26 593.117 1206.38C591.828 1205.48 590.174 1205.03 588.154 1205.03Z" fill="#575757"/>
<path d="M2053.62 557.525V509.525H2087.37V520.025H2066.65V528.275H2085.31V538.775H2066.65V557.525H2053.62ZM2138.66 533.525C2138.66 538.869 2137.62 543.376 2135.55 547.048C2133.47 550.705 2130.66 553.478 2127.13 555.369C2123.6 557.244 2119.66 558.181 2115.32 558.181C2110.94 558.181 2106.99 557.236 2103.46 555.345C2099.94 553.439 2097.15 550.658 2095.07 547.001C2093.01 543.33 2091.98 538.837 2091.98 533.525C2091.98 528.181 2093.01 523.681 2095.07 520.025C2097.15 516.353 2099.94 513.58 2103.46 511.705C2106.99 509.814 2110.94 508.869 2115.32 508.869C2119.66 508.869 2123.6 509.814 2127.13 511.705C2130.66 513.58 2133.47 516.353 2135.55 520.025C2137.62 523.681 2138.66 528.181 2138.66 533.525ZM2125.26 533.525C2125.26 530.65 2124.87 528.228 2124.11 526.259C2123.36 524.275 2122.24 522.775 2120.76 521.759C2119.29 520.728 2117.48 520.212 2115.32 520.212C2113.16 520.212 2111.34 520.728 2109.86 521.759C2108.39 522.775 2107.27 524.275 2106.51 526.259C2105.76 528.228 2105.38 530.65 2105.38 533.525C2105.38 536.4 2105.76 538.83 2106.51 540.814C2107.27 542.783 2108.39 544.283 2109.86 545.314C2111.34 546.33 2113.16 546.837 2115.32 546.837C2117.48 546.837 2119.29 546.33 2120.76 545.314C2122.24 544.283 2123.36 542.783 2124.11 540.814C2124.87 538.83 2125.26 536.4 2125.26 533.525ZM2144.69 557.525V509.525H2165.41C2168.97 509.525 2172.09 510.173 2174.76 511.47C2177.43 512.767 2179.51 514.634 2181 517.072C2182.48 519.509 2183.22 522.431 2183.22 525.837C2183.22 529.275 2182.46 532.173 2180.93 534.533C2179.41 536.892 2177.28 538.673 2174.53 539.876C2171.79 541.08 2168.6 541.681 2164.94 541.681H2152.57V531.556H2162.32C2163.85 531.556 2165.15 531.369 2166.23 530.994C2167.32 530.603 2168.16 529.986 2168.74 529.142C2169.33 528.298 2169.63 527.197 2169.63 525.837C2169.63 524.462 2169.33 523.345 2168.74 522.486C2168.16 521.611 2167.32 520.97 2166.23 520.564C2165.15 520.142 2163.85 519.931 2162.32 519.931H2157.72V557.525H2144.69ZM2172.82 535.494L2184.82 557.525H2170.66L2158.94 535.494H2172.82ZM2188.78 557.525V509.525H2201.81V528.931H2202.47L2216.9 509.525H2232.09L2215.87 530.9L2232.47 557.525H2216.9L2206.12 539.525L2201.81 545.15V557.525H2188.78ZM2235.96 557.525V509.525H2256.68C2260.24 509.525 2263.36 510.228 2266.03 511.634C2268.7 513.041 2270.78 515.017 2272.26 517.564C2273.75 520.111 2274.49 523.087 2274.49 526.494C2274.49 529.931 2273.72 532.908 2272.19 535.423C2270.68 537.939 2268.54 539.876 2265.79 541.236C2263.06 542.595 2259.86 543.275 2256.21 543.275H2243.83V533.15H2253.58C2255.11 533.15 2256.42 532.884 2257.5 532.353C2258.59 531.806 2259.43 531.033 2260 530.033C2260.6 529.033 2260.9 527.853 2260.9 526.494C2260.9 525.119 2260.6 523.947 2260 522.978C2259.43 521.994 2258.59 521.244 2257.5 520.728C2256.42 520.197 2255.11 519.931 2253.58 519.931H2248.99V557.525H2235.96ZM2325.77 533.525C2325.77 538.869 2324.73 543.376 2322.65 547.048C2320.57 550.705 2317.77 553.478 2314.24 555.369C2310.71 557.244 2306.77 558.181 2302.43 558.181C2298.05 558.181 2294.1 557.236 2290.57 555.345C2287.05 553.439 2284.25 550.658 2282.18 547.001C2280.11 543.33 2279.08 538.837 2279.08 533.525C2279.08 528.181 2280.11 523.681 2282.18 520.025C2284.25 516.353 2287.05 513.58 2290.57 511.705C2294.1 509.814 2298.05 508.869 2302.43 508.869C2306.77 508.869 2310.71 509.814 2314.24 511.705C2317.77 513.58 2320.57 516.353 2322.65 520.025C2324.73 523.681 2325.77 528.181 2325.77 533.525ZM2312.36 533.525C2312.36 530.65 2311.98 528.228 2311.22 526.259C2310.47 524.275 2309.35 522.775 2307.86 521.759C2306.4 520.728 2304.58 520.212 2302.43 520.212C2300.27 520.212 2298.45 520.728 2296.97 521.759C2295.5 522.775 2294.38 524.275 2293.61 526.259C2292.86 528.228 2292.49 530.65 2292.49 533.525C2292.49 536.4 2292.86 538.83 2293.61 540.814C2294.38 542.783 2295.5 544.283 2296.97 545.314C2298.45 546.33 2300.27 546.837 2302.43 546.837C2304.58 546.837 2306.4 546.33 2307.86 545.314C2309.35 544.283 2310.47 542.783 2311.22 540.814C2311.98 538.83 2312.36 536.4 2312.36 533.525ZM2344.83 509.525V557.525H2331.8V509.525H2344.83ZM2392.54 509.525V557.525H2381.66L2364.32 532.306H2364.04V557.525H2351.01V509.525H2362.07L2379.13 534.65H2379.51V509.525H2392.54ZM2397.39 520.025V509.525H2439.11V520.025H2424.67V557.525H2411.83V520.025H2397.39Z" fill="#575757"/>
<path d="M701.797 558.36C656.368 620.318 593 665.045 510.186 693.056C498.933 696.862 491.18 696.136 481.674 689.933C389.255 629.629 333.942 553.142 315.888 460.208C313.126 445.995 322.395 437.858 351.662 428.451C357.982 502.58 390.975 568.274 452.823 624.843C455.67 627.447 458.481 630.093 461.582 632.505C509.315 669.636 492.722 669.853 552.173 640.046C633.249 599.397 683.361 540.537 703.086 466.443C703.955 463.18 705.67 460.054 707.008 456.823C744.356 468.512 746.035 469.904 733.726 497.853C724.806 518.107 712.953 537.574 701.797 558.36Z" fill="#8ACF31"/>
<path d="M494.172 412.993C479.342 415.904 466.062 418.482 452.056 421.201C451.383 418.697 450.448 416.889 450.481 415.092C451.051 384.456 445.676 389.813 481.494 383.978C598.191 364.964 704.999 383.383 801.79 438.005C813.723 444.739 817.185 451.806 814.959 462.636C795.872 555.447 740.21 631.827 646.585 690.942C641.371 694.235 630.931 694.387 623.617 693.258C614.696 691.882 606.509 687.603 595.898 683.83C601.354 680.3 605.335 677.522 609.576 675.011C696.01 623.822 750.094 556.787 772.359 473.839C774.961 464.145 772.358 458.836 761.709 453.455C679.909 412.118 591.115 399.494 494.172 412.993Z" fill="#8ACF31"/>
<path d="M529.188 355.205C498.034 359.744 468.611 364.216 439.154 368.551C427.618 370.249 423.435 375.335 422.416 384.59C412.869 471.353 448.247 545.198 525.926 607.109C530.261 610.564 535.242 613.526 539.204 616.228C538.36 618.544 538.402 619.819 537.698 620.163C499.465 638.828 509.619 639.809 481.362 614.813C399.938 542.783 368.549 458.662 385.948 363.319C387.851 352.891 393.538 348.265 405.511 344.982C506.403 317.318 607.731 315.529 709.677 340.992C746.642 350.225 748.549 352.588 746.566 384.883C677.566 361.144 606.112 349.501 529.188 355.205Z" fill="#8ACF31"/>
<path d="M1254.02 513.454H1244.06V493.119H1225.4V513.454H1215.41V466.339H1225.4V484.805H1244.06V466.339H1254.02V513.454ZM1280.03 476.748C1283.36 476.748 1286.23 477.393 1288.63 478.682C1291.04 479.949 1292.9 481.797 1294.21 484.225C1295.52 486.652 1296.17 489.617 1296.17 493.119V497.889H1272.94C1273.05 500.66 1273.87 502.841 1275.42 504.431C1276.99 505.999 1279.16 506.783 1281.93 506.783C1284.23 506.783 1286.33 506.547 1288.25 506.074C1290.16 505.602 1292.12 504.893 1294.14 503.947V511.553C1292.36 512.434 1290.49 513.078 1288.54 513.486C1286.6 513.895 1284.25 514.099 1281.48 514.099C1277.87 514.099 1274.67 513.433 1271.88 512.101C1269.1 510.769 1266.92 508.738 1265.33 506.01C1263.76 503.281 1262.98 499.844 1262.98 495.697C1262.98 491.486 1263.69 487.984 1265.11 485.191C1266.55 482.377 1268.54 480.271 1271.1 478.875C1273.66 477.457 1276.63 476.748 1280.03 476.748ZM1280.09 483.741C1278.18 483.741 1276.59 484.354 1275.32 485.578C1274.08 486.803 1273.36 488.726 1273.16 491.347H1286.96C1286.94 489.886 1286.67 488.586 1286.15 487.447C1285.66 486.309 1284.91 485.406 1283.9 484.74C1282.91 484.074 1281.64 483.741 1280.09 483.741ZM1318.93 476.684C1323.76 476.684 1327.47 477.736 1330.04 479.842C1332.62 481.947 1333.91 485.148 1333.91 489.445V513.454H1327.05L1325.15 508.556H1324.89C1323.86 509.845 1322.8 510.897 1321.73 511.714C1320.66 512.53 1319.42 513.132 1318.02 513.519C1316.63 513.905 1314.93 514.099 1312.93 514.099C1310.8 514.099 1308.89 513.69 1307.2 512.874C1305.52 512.058 1304.2 510.812 1303.23 509.136C1302.26 507.438 1301.78 505.29 1301.78 502.69C1301.78 498.866 1303.12 496.052 1305.81 494.247C1308.5 492.421 1312.52 491.411 1317.89 491.218L1324.15 491.024V489.445C1324.15 487.555 1323.65 486.169 1322.66 485.288C1321.68 484.407 1320.3 483.967 1318.54 483.967C1316.8 483.967 1315.09 484.214 1313.42 484.708C1311.74 485.202 1310.06 485.825 1308.39 486.577L1305.13 479.938C1307.04 478.929 1309.18 478.134 1311.55 477.554C1313.93 476.974 1316.39 476.684 1318.93 476.684ZM1324.15 496.761L1320.34 496.89C1317.16 496.976 1314.95 497.545 1313.71 498.598C1312.48 499.65 1311.87 501.036 1311.87 502.755C1311.87 504.259 1312.31 505.333 1313.19 505.978C1314.07 506.601 1315.22 506.912 1316.64 506.912C1318.74 506.912 1320.52 506.289 1321.96 505.043C1323.42 503.797 1324.15 502.024 1324.15 499.726V496.761ZM1355.47 514.099C1351.45 514.099 1348.18 512.53 1345.64 509.394C1343.13 506.235 1341.87 501.605 1341.87 495.504C1341.87 489.338 1343.15 484.676 1345.71 481.518C1348.26 478.338 1351.6 476.748 1355.73 476.748C1357.45 476.748 1358.96 476.984 1360.27 477.457C1361.58 477.93 1362.71 478.563 1363.66 479.358C1364.62 480.153 1365.44 481.045 1366.11 482.033H1366.43C1366.3 481.346 1366.14 480.336 1365.94 479.004C1365.77 477.65 1365.69 476.265 1365.69 474.847V463.31H1375.55V513.454H1368.01L1366.11 508.781H1365.69C1365.06 509.77 1364.28 510.672 1363.33 511.488C1362.41 512.283 1361.3 512.917 1360.01 513.39C1358.73 513.862 1357.21 514.099 1355.47 514.099ZM1358.92 506.268C1361.6 506.268 1363.5 505.473 1364.59 503.883C1365.71 502.271 1366.3 499.854 1366.36 496.632V495.568C1366.36 492.066 1365.83 489.392 1364.75 487.544C1363.68 485.675 1361.68 484.74 1358.76 484.74C1356.59 484.74 1354.89 485.675 1353.67 487.544C1352.44 489.413 1351.83 492.109 1351.83 495.633C1351.83 499.156 1352.44 501.81 1353.67 503.593C1354.91 505.376 1356.66 506.268 1358.92 506.268ZM1395.66 477.425V513.454H1385.83V477.425H1395.66ZM1390.76 463.31C1392.22 463.31 1393.48 463.653 1394.53 464.341C1395.58 465.007 1396.11 466.264 1396.11 468.111C1396.11 469.938 1395.58 471.205 1394.53 471.914C1393.48 472.602 1392.22 472.945 1390.76 472.945C1389.28 472.945 1388.01 472.602 1386.96 471.914C1385.92 471.205 1385.41 469.938 1385.41 468.111C1385.41 466.264 1385.92 465.007 1386.96 464.341C1388.01 463.653 1389.28 463.31 1390.76 463.31ZM1426.47 476.748C1430.31 476.748 1433.41 477.801 1435.75 479.906C1438.09 481.99 1439.26 485.342 1439.26 489.961V513.454H1429.43V492.41C1429.43 489.832 1428.96 487.888 1428.01 486.577C1427.09 485.267 1425.63 484.611 1423.63 484.611C1420.62 484.611 1418.57 485.632 1417.47 487.673C1416.38 489.714 1415.83 492.657 1415.83 496.503V513.454H1406V477.425H1413.51L1414.83 482.033H1415.38C1416.15 480.787 1417.11 479.777 1418.25 479.004C1419.41 478.23 1420.69 477.661 1422.08 477.296C1423.5 476.931 1424.96 476.748 1426.47 476.748ZM1459.92 529.31C1454.89 529.31 1451.04 528.429 1448.38 526.667C1445.74 524.927 1444.42 522.478 1444.42 519.319C1444.42 517.149 1445.09 515.334 1446.45 513.873C1447.8 512.412 1449.79 511.37 1452.41 510.747C1451.4 510.317 1450.52 509.619 1449.77 508.652C1449.01 507.664 1448.64 506.622 1448.64 505.526C1448.64 504.151 1449.04 503.013 1449.83 502.11C1450.62 501.187 1451.77 500.284 1453.28 499.403C1451.39 498.587 1449.88 497.276 1448.77 495.472C1447.67 493.667 1447.12 491.54 1447.12 489.091C1447.12 486.47 1447.69 484.246 1448.83 482.42C1449.99 480.572 1451.67 479.165 1453.86 478.198C1456.07 477.231 1458.76 476.748 1461.92 476.748C1462.58 476.748 1463.35 476.791 1464.24 476.877C1465.12 476.963 1465.92 477.06 1466.65 477.167C1467.4 477.274 1467.91 477.36 1468.17 477.425H1480.74V482.42L1475.1 483.87C1475.61 484.665 1476 485.514 1476.26 486.416C1476.51 487.318 1476.64 488.274 1476.64 489.284C1476.64 493.151 1475.29 496.17 1472.58 498.34C1469.9 500.488 1466.16 501.562 1461.37 501.562C1460.23 501.498 1459.15 501.412 1458.14 501.305C1457.65 501.691 1457.27 502.1 1457.02 502.529C1456.76 502.959 1456.63 503.41 1456.63 503.883C1456.63 504.355 1456.82 504.753 1457.21 505.075C1457.62 505.376 1458.22 505.612 1459.01 505.784C1459.83 505.935 1460.84 506.01 1462.04 506.01H1468.17C1472.12 506.01 1475.13 506.858 1477.19 508.556C1479.27 510.253 1480.32 512.745 1480.32 516.032C1480.32 520.243 1478.55 523.509 1475.03 525.829C1471.53 528.149 1466.49 529.31 1459.92 529.31ZM1460.34 522.896C1462.68 522.896 1464.69 522.671 1466.36 522.22C1468.06 521.79 1469.36 521.167 1470.26 520.351C1471.16 519.556 1471.62 518.6 1471.62 517.482C1471.62 516.58 1471.35 515.86 1470.81 515.323C1470.29 514.808 1469.5 514.442 1468.42 514.228C1467.37 514.013 1466.02 513.905 1464.36 513.905H1459.27C1458.07 513.905 1456.98 514.099 1456.02 514.485C1455.07 514.872 1454.32 515.409 1453.76 516.097C1453.2 516.806 1452.92 517.622 1452.92 518.546C1452.92 519.899 1453.57 520.963 1454.86 521.736C1456.17 522.51 1457.99 522.896 1460.34 522.896ZM1461.92 495.568C1463.76 495.568 1465.12 494.999 1465.98 493.86C1466.83 492.722 1467.26 491.175 1467.26 489.22C1467.26 487.05 1466.81 485.428 1465.91 484.354C1465.03 483.258 1463.7 482.71 1461.92 482.71C1460.11 482.71 1458.76 483.258 1457.85 484.354C1456.95 485.428 1456.5 487.05 1456.5 489.22C1456.5 491.175 1456.94 492.722 1457.82 493.86C1458.72 494.999 1460.09 495.568 1461.92 495.568ZM1508.8 513.454H1498.85V486.19C1498.85 485.438 1498.86 484.515 1498.88 483.419C1498.9 482.302 1498.93 481.163 1498.98 480.003C1499.02 478.821 1499.06 477.758 1499.1 476.812C1498.87 477.092 1498.38 477.575 1497.65 478.263C1496.95 478.929 1496.28 479.53 1495.66 480.067L1490.24 484.418L1485.44 478.424L1500.62 466.339H1508.8V513.454Z" fill="#575757"/>
<path d="M1253.93 862H1243.98V841.665H1225.32V862H1215.33V814.884H1225.32V833.35H1243.98V814.884H1253.93V862ZM1279.94 825.293C1283.27 825.293 1286.14 825.938 1288.55 827.227C1290.95 828.495 1292.81 830.342 1294.12 832.77C1295.43 835.198 1296.09 838.163 1296.09 841.665V846.434H1272.85C1272.96 849.206 1273.79 851.386 1275.33 852.976C1276.9 854.544 1279.07 855.329 1281.84 855.329C1284.14 855.329 1286.25 855.092 1288.16 854.62C1290.07 854.147 1292.04 853.438 1294.06 852.493V860.098C1292.27 860.979 1290.4 861.624 1288.45 862.032C1286.52 862.44 1284.16 862.644 1281.39 862.644C1277.78 862.644 1274.58 861.978 1271.79 860.646C1269.02 859.314 1266.84 857.284 1265.25 854.555C1263.68 851.827 1262.89 848.389 1262.89 844.243C1262.89 840.032 1263.6 836.53 1265.02 833.737C1266.46 830.922 1268.46 828.817 1271.01 827.42C1273.57 826.002 1276.55 825.293 1279.94 825.293ZM1280.01 832.287C1278.09 832.287 1276.5 832.899 1275.24 834.124C1273.99 835.348 1273.27 837.271 1273.08 839.892H1286.87C1286.85 838.431 1286.58 837.131 1286.06 835.993C1285.57 834.854 1284.82 833.952 1283.81 833.286C1282.82 832.62 1281.55 832.287 1280.01 832.287ZM1318.84 825.229C1323.67 825.229 1327.38 826.282 1329.96 828.387C1332.54 830.493 1333.82 833.694 1333.82 837.991V862H1326.96L1325.06 857.101H1324.8C1323.77 858.39 1322.72 859.443 1321.64 860.259C1320.57 861.076 1319.33 861.677 1317.94 862.064C1316.54 862.451 1314.84 862.644 1312.84 862.644C1310.72 862.644 1308.81 862.236 1307.11 861.419C1305.43 860.603 1304.11 859.357 1303.14 857.681C1302.18 855.984 1301.69 853.835 1301.69 851.236C1301.69 847.412 1303.04 844.597 1305.72 842.792C1308.41 840.966 1312.44 839.957 1317.81 839.763L1324.06 839.57V837.991C1324.06 836.1 1323.57 834.714 1322.58 833.833C1321.59 832.953 1320.21 832.512 1318.45 832.512C1316.71 832.512 1315 832.759 1313.33 833.253C1311.65 833.748 1309.98 834.371 1308.3 835.123L1305.05 828.484C1306.96 827.474 1309.1 826.679 1311.46 826.099C1313.84 825.519 1316.3 825.229 1318.84 825.229ZM1324.06 845.306L1320.26 845.435C1317.08 845.521 1314.86 846.09 1313.62 847.143C1312.39 848.196 1311.78 849.582 1311.78 851.3C1311.78 852.804 1312.22 853.878 1313.1 854.523C1313.98 855.146 1315.13 855.458 1316.55 855.458C1318.66 855.458 1320.43 854.834 1321.87 853.588C1323.33 852.342 1324.06 850.57 1324.06 848.271V845.306ZM1355.38 862.644C1351.37 862.644 1348.09 861.076 1345.55 857.939C1343.04 854.781 1341.78 850.151 1341.78 844.049C1341.78 837.883 1343.06 833.221 1345.62 830.063C1348.18 826.883 1351.52 825.293 1355.64 825.293C1357.36 825.293 1358.88 825.53 1360.19 826.002C1361.5 826.475 1362.62 827.109 1363.57 827.904C1364.54 828.699 1365.35 829.59 1366.02 830.579H1366.34C1366.21 829.891 1366.05 828.881 1365.86 827.549C1365.69 826.196 1365.6 824.81 1365.6 823.392V811.855H1375.46V862H1367.92L1366.02 857.327H1365.6C1364.98 858.315 1364.19 859.217 1363.25 860.034C1362.32 860.829 1361.22 861.462 1359.93 861.935C1358.64 862.408 1357.12 862.644 1355.38 862.644ZM1358.83 854.813C1361.52 854.813 1363.41 854.018 1364.5 852.428C1365.62 850.817 1366.21 848.4 1366.28 845.177V844.114C1366.28 840.612 1365.74 837.937 1364.67 836.089C1363.59 834.22 1361.59 833.286 1358.67 833.286C1356.5 833.286 1354.8 834.22 1353.58 836.089C1352.35 837.958 1351.74 840.655 1351.74 844.178C1351.74 847.702 1352.35 850.355 1353.58 852.138C1354.83 853.921 1356.58 854.813 1358.83 854.813ZM1395.57 825.97V862H1385.74V825.97H1395.57ZM1390.67 811.855C1392.13 811.855 1393.39 812.199 1394.44 812.886C1395.5 813.552 1396.02 814.809 1396.02 816.657C1396.02 818.483 1395.5 819.75 1394.44 820.459C1393.39 821.147 1392.13 821.491 1390.67 821.491C1389.19 821.491 1387.92 821.147 1386.87 820.459C1385.84 819.75 1385.32 818.483 1385.32 816.657C1385.32 814.809 1385.84 813.552 1386.87 812.886C1387.92 812.199 1389.19 811.855 1390.67 811.855ZM1426.38 825.293C1430.22 825.293 1433.32 826.346 1435.66 828.452C1438 830.536 1439.17 833.887 1439.17 838.506V862H1429.34V840.956C1429.34 838.377 1428.87 836.433 1427.93 835.123C1427 833.812 1425.54 833.157 1423.54 833.157C1420.54 833.157 1418.48 834.177 1417.39 836.218C1416.29 838.259 1415.74 841.203 1415.74 845.048V862H1405.92V825.97H1413.42L1414.75 830.579H1415.29C1416.07 829.333 1417.02 828.323 1418.16 827.549C1419.32 826.776 1420.6 826.207 1422 825.841C1423.41 825.476 1424.88 825.293 1426.38 825.293ZM1459.83 877.855C1454.8 877.855 1450.96 876.974 1448.29 875.212C1445.65 873.472 1444.33 871.023 1444.33 867.865C1444.33 865.695 1445.01 863.879 1446.36 862.418C1447.71 860.958 1449.7 859.916 1452.32 859.292C1451.31 858.863 1450.43 858.165 1449.68 857.198C1448.93 856.209 1448.55 855.167 1448.55 854.072C1448.55 852.697 1448.95 851.558 1449.74 850.656C1450.54 849.732 1451.69 848.83 1453.19 847.949C1451.3 847.132 1449.8 845.822 1448.68 844.017C1447.58 842.212 1447.04 840.085 1447.04 837.636C1447.04 835.015 1447.61 832.792 1448.74 830.965C1449.9 829.118 1451.58 827.71 1453.77 826.744C1455.98 825.777 1458.67 825.293 1461.83 825.293C1462.49 825.293 1463.27 825.336 1464.15 825.422C1465.03 825.508 1465.83 825.605 1466.57 825.712C1467.32 825.82 1467.82 825.906 1468.08 825.97H1480.65V830.965L1475.01 832.416C1475.52 833.21 1475.91 834.059 1476.17 834.961C1476.43 835.864 1476.56 836.82 1476.56 837.83C1476.56 841.697 1475.2 844.715 1472.5 846.885C1469.81 849.034 1466.07 850.108 1461.28 850.108C1460.14 850.043 1459.07 849.958 1458.06 849.85C1457.56 850.237 1457.19 850.645 1456.93 851.075C1456.67 851.504 1456.54 851.956 1456.54 852.428C1456.54 852.901 1456.74 853.298 1457.12 853.621C1457.53 853.921 1458.13 854.158 1458.93 854.33C1459.74 854.48 1460.75 854.555 1461.96 854.555H1468.08C1472.03 854.555 1475.04 855.404 1477.1 857.101C1479.19 858.798 1480.23 861.291 1480.23 864.578C1480.23 868.789 1478.47 872.054 1474.94 874.375C1471.44 876.695 1466.4 877.855 1459.83 877.855ZM1460.25 871.442C1462.59 871.442 1464.6 871.216 1466.28 870.765C1467.97 870.335 1469.27 869.712 1470.17 868.896C1471.08 868.101 1471.53 867.145 1471.53 866.028C1471.53 865.125 1471.26 864.406 1470.72 863.869C1470.21 863.353 1469.41 862.988 1468.34 862.773C1467.29 862.558 1465.93 862.451 1464.28 862.451H1459.19C1457.98 862.451 1456.9 862.644 1455.93 863.031C1454.99 863.417 1454.23 863.955 1453.67 864.642C1453.12 865.351 1452.84 866.167 1452.84 867.091C1452.84 868.445 1453.48 869.508 1454.77 870.282C1456.08 871.055 1457.91 871.442 1460.25 871.442ZM1461.83 844.114C1463.68 844.114 1465.03 843.544 1465.89 842.406C1466.75 841.267 1467.18 839.72 1467.18 837.765C1467.18 835.595 1466.73 833.973 1465.82 832.899C1464.94 831.803 1463.61 831.255 1461.83 831.255C1460.02 831.255 1458.67 831.803 1457.77 832.899C1456.87 833.973 1456.41 835.595 1456.41 837.765C1456.41 839.72 1456.85 841.267 1457.74 842.406C1458.64 843.544 1460 844.114 1461.83 844.114ZM1517.03 862H1484.1V855.071L1495.92 843.115C1498.31 840.666 1500.22 838.625 1501.66 836.992C1503.12 835.337 1504.17 833.833 1504.82 832.48C1505.48 831.126 1505.82 829.676 1505.82 828.129C1505.82 826.26 1505.29 824.864 1504.24 823.94C1503.21 822.995 1501.82 822.522 1500.08 822.522C1498.25 822.522 1496.48 822.941 1494.76 823.779C1493.04 824.617 1491.25 825.809 1489.38 827.356L1483.97 820.943C1485.32 819.783 1486.75 818.687 1488.25 817.656C1489.78 816.625 1491.54 815.797 1493.54 815.174C1495.56 814.53 1497.98 814.208 1500.79 814.208C1503.88 814.208 1506.54 814.766 1508.75 815.883C1510.98 817 1512.7 818.526 1513.91 820.459C1515.11 822.372 1515.71 824.542 1515.71 826.969C1515.71 829.569 1515.2 831.943 1514.16 834.091C1513.13 836.24 1511.63 838.367 1509.65 840.472C1507.7 842.578 1505.33 844.909 1502.56 847.465L1496.5 853.169V853.621H1517.03V862Z" fill="#575757"/>
<path d="M1249.3 1100.26C1254 1100.26 1257.43 1101.18 1259.59 1103.02C1261.76 1104.85 1262.85 1107.47 1262.85 1110.89C1262.85 1112.44 1262.59 1113.91 1262.08 1115.3C1261.58 1116.68 1260.77 1117.9 1259.64 1118.96C1258.51 1120.01 1257.02 1120.84 1255.18 1121.45C1253.35 1122.05 1251.11 1122.35 1248.46 1122.35H1244.02V1136.67H1239.79V1100.26H1249.3ZM1248.9 1103.87H1244.02V1118.71H1247.98C1250.31 1118.71 1252.24 1118.46 1253.78 1117.96C1255.35 1117.47 1256.52 1116.66 1257.3 1115.55C1258.08 1114.42 1258.47 1112.93 1258.47 1111.07C1258.47 1108.64 1257.69 1106.84 1256.15 1105.66C1254.61 1104.47 1252.19 1103.87 1248.9 1103.87ZM1280.06 1108.92C1283.31 1108.92 1285.73 1109.66 1287.3 1111.12C1288.88 1112.58 1289.67 1114.91 1289.67 1118.11V1136.67H1286.66L1285.86 1132.63H1285.66C1284.9 1133.63 1284.1 1134.47 1283.27 1135.15C1282.44 1135.81 1281.48 1136.32 1280.38 1136.67C1279.3 1137 1277.97 1137.16 1276.4 1137.16C1274.74 1137.16 1273.26 1136.87 1271.96 1136.29C1270.69 1135.71 1269.67 1134.83 1268.93 1133.65C1268.19 1132.47 1267.83 1130.98 1267.83 1129.17C1267.83 1126.45 1268.91 1124.36 1271.07 1122.9C1273.23 1121.43 1276.51 1120.64 1280.93 1120.5L1285.63 1120.31V1118.64C1285.63 1116.28 1285.13 1114.63 1284.12 1113.68C1283.1 1112.73 1281.68 1112.26 1279.83 1112.26C1278.4 1112.26 1277.04 1112.47 1275.75 1112.88C1274.45 1113.3 1273.23 1113.79 1272.06 1114.35L1270.79 1111.22C1272.02 1110.58 1273.43 1110.05 1275.03 1109.6C1276.62 1109.15 1278.3 1108.92 1280.06 1108.92ZM1285.58 1123.22L1281.43 1123.39C1278.02 1123.53 1275.62 1124.08 1274.23 1125.06C1272.83 1126.04 1272.14 1127.43 1272.14 1129.22C1272.14 1130.78 1272.61 1131.93 1273.56 1132.68C1274.5 1133.43 1275.76 1133.8 1277.32 1133.8C1279.74 1133.8 1281.73 1133.13 1283.27 1131.79C1284.81 1130.44 1285.58 1128.42 1285.58 1125.73V1123.22ZM1310.59 1108.88C1311.13 1108.88 1311.71 1108.91 1312.31 1108.97C1312.9 1109.02 1313.43 1109.1 1313.9 1109.2L1313.38 1113.03C1312.93 1112.92 1312.43 1112.83 1311.88 1112.76C1311.33 1112.69 1310.82 1112.66 1310.34 1112.66C1309.24 1112.66 1308.2 1112.88 1307.23 1113.33C1306.26 1113.76 1305.42 1114.4 1304.69 1115.23C1303.95 1116.04 1303.38 1117.03 1302.97 1118.19C1302.55 1119.33 1302.34 1120.61 1302.34 1122.02V1136.67H1298.19V1109.37H1301.62L1302.07 1114.4H1302.24C1302.81 1113.39 1303.49 1112.47 1304.29 1111.64C1305.08 1110.79 1306 1110.12 1307.05 1109.62C1308.11 1109.12 1309.29 1108.88 1310.59 1108.88ZM1329.26 1108.92C1332.52 1108.92 1334.93 1109.66 1336.51 1111.12C1338.09 1112.58 1338.88 1114.91 1338.88 1118.11V1136.67H1335.86L1335.07 1132.63H1334.87C1334.1 1133.63 1333.31 1134.47 1332.48 1135.15C1331.65 1135.81 1330.68 1136.32 1329.59 1136.67C1328.51 1137 1327.18 1137.16 1325.6 1137.16C1323.94 1137.16 1322.47 1136.87 1321.17 1136.29C1319.89 1135.71 1318.88 1134.83 1318.13 1133.65C1317.4 1132.47 1317.04 1130.98 1317.04 1129.17C1317.04 1126.45 1318.12 1124.36 1320.27 1122.9C1322.43 1121.43 1325.72 1120.64 1330.14 1120.5L1334.84 1120.31V1118.64C1334.84 1116.28 1334.34 1114.63 1333.32 1113.68C1332.31 1112.73 1330.88 1112.26 1329.04 1112.26C1327.61 1112.26 1326.25 1112.47 1324.96 1112.88C1323.66 1113.3 1322.43 1113.79 1321.27 1114.35L1320 1111.22C1321.23 1110.58 1322.64 1110.05 1324.23 1109.6C1325.83 1109.15 1327.5 1108.92 1329.26 1108.92ZM1334.79 1123.22L1330.63 1123.39C1327.23 1123.53 1324.83 1124.08 1323.44 1125.06C1322.04 1126.04 1321.34 1127.43 1321.34 1129.22C1321.34 1130.78 1321.82 1131.93 1322.76 1132.68C1323.71 1133.43 1324.96 1133.8 1326.52 1133.8C1328.95 1133.8 1330.93 1133.13 1332.48 1131.79C1334.02 1130.44 1334.79 1128.42 1334.79 1125.73V1123.22ZM1355.01 1148.92C1351.43 1148.92 1348.66 1148.25 1346.72 1146.9C1344.78 1145.57 1343.81 1143.71 1343.81 1141.3C1343.81 1139.59 1344.35 1138.13 1345.43 1136.92C1346.52 1135.7 1348.03 1134.9 1349.96 1134.5C1349.24 1134.17 1348.63 1133.67 1348.11 1133.01C1347.62 1132.34 1347.37 1131.58 1347.37 1130.71C1347.37 1129.72 1347.64 1128.85 1348.19 1128.1C1348.75 1127.34 1349.61 1126.61 1350.75 1125.91C1349.33 1125.33 1348.16 1124.35 1347.27 1122.97C1346.39 1121.58 1345.95 1119.96 1345.95 1118.11C1345.95 1116.15 1346.35 1114.49 1347.17 1113.11C1347.98 1111.71 1349.16 1110.65 1350.7 1109.92C1352.25 1109.19 1354.12 1108.83 1356.31 1108.83C1356.79 1108.83 1357.27 1108.85 1357.75 1108.9C1358.25 1108.93 1358.72 1108.99 1359.17 1109.07C1359.62 1109.14 1360.01 1109.22 1360.34 1109.32H1369.71V1111.99L1364.67 1112.61C1365.17 1113.26 1365.59 1114.04 1365.92 1114.95C1366.25 1115.86 1366.42 1116.88 1366.42 1117.99C1366.42 1120.71 1365.5 1122.88 1363.65 1124.49C1361.81 1126.08 1359.28 1126.88 1356.06 1126.88C1355.29 1126.88 1354.51 1126.81 1353.72 1126.68C1352.9 1127.13 1352.28 1127.63 1351.85 1128.17C1351.44 1128.72 1351.23 1129.35 1351.23 1130.07C1351.23 1130.6 1351.39 1131.02 1351.7 1131.34C1352.03 1131.65 1352.51 1131.88 1353.12 1132.03C1353.73 1132.17 1354.47 1132.23 1355.34 1132.23H1360.14C1363.11 1132.23 1365.39 1132.86 1366.97 1134.1C1368.56 1135.35 1369.36 1137.16 1369.36 1139.55C1369.36 1142.58 1368.13 1144.89 1365.67 1146.5C1363.21 1148.11 1359.66 1148.92 1355.01 1148.92ZM1355.14 1145.68C1357.4 1145.68 1359.26 1145.45 1360.74 1144.98C1362.23 1144.54 1363.35 1143.88 1364.08 1143.02C1364.82 1142.17 1365.2 1141.16 1365.2 1139.98C1365.2 1138.88 1364.95 1138.05 1364.45 1137.49C1363.95 1136.94 1363.22 1136.57 1362.26 1136.39C1361.3 1136.19 1360.12 1136.09 1358.72 1136.09H1353.99C1352.76 1136.09 1351.69 1136.28 1350.78 1136.67C1349.87 1137.05 1349.16 1137.61 1348.66 1138.36C1348.18 1139.11 1347.94 1140.04 1347.94 1141.15C1347.94 1142.63 1348.56 1143.75 1349.81 1144.51C1351.05 1145.29 1352.83 1145.68 1355.14 1145.68ZM1356.21 1123.87C1358.18 1123.87 1359.67 1123.37 1360.67 1122.37C1361.66 1121.38 1362.16 1119.92 1362.16 1118.01C1362.16 1115.97 1361.65 1114.44 1360.64 1113.43C1359.63 1112.4 1358.13 1111.89 1356.16 1111.89C1354.27 1111.89 1352.8 1112.42 1351.78 1113.48C1350.76 1114.53 1350.26 1116.06 1350.26 1118.09C1350.26 1119.95 1350.77 1121.38 1351.8 1122.37C1352.83 1123.37 1354.3 1123.87 1356.21 1123.87ZM1387.49 1108.88C1388.03 1108.88 1388.61 1108.91 1389.2 1108.97C1389.8 1109.02 1390.33 1109.1 1390.8 1109.2L1390.27 1113.03C1389.83 1112.92 1389.33 1112.83 1388.78 1112.76C1388.23 1112.69 1387.72 1112.66 1387.24 1112.66C1386.14 1112.66 1385.1 1112.88 1384.12 1113.33C1383.16 1113.76 1382.31 1114.4 1381.58 1115.23C1380.85 1116.04 1380.28 1117.03 1379.87 1118.19C1379.45 1119.33 1379.24 1120.61 1379.24 1122.02V1136.67H1375.08V1109.37H1378.52L1378.97 1114.4H1379.14C1379.71 1113.39 1380.39 1112.47 1381.19 1111.64C1381.98 1110.79 1382.9 1110.12 1383.95 1109.62C1385.01 1109.12 1386.19 1108.88 1387.49 1108.88ZM1406.16 1108.92C1409.42 1108.92 1411.83 1109.66 1413.41 1111.12C1414.99 1112.58 1415.77 1114.91 1415.77 1118.11V1136.67H1412.76L1411.96 1132.63H1411.77C1411 1133.63 1410.2 1134.47 1409.37 1135.15C1408.54 1135.81 1407.58 1136.32 1406.49 1136.67C1405.41 1137 1404.08 1137.16 1402.5 1137.16C1400.84 1137.16 1399.36 1136.87 1398.07 1136.29C1396.79 1135.71 1395.78 1134.83 1395.03 1133.65C1394.3 1132.47 1393.94 1130.98 1393.94 1129.17C1393.94 1126.45 1395.01 1124.36 1397.17 1122.9C1399.33 1121.43 1402.62 1120.64 1407.03 1120.5L1411.74 1120.31V1118.64C1411.74 1116.28 1411.23 1114.63 1410.22 1113.68C1409.21 1112.73 1407.78 1112.26 1405.94 1112.26C1404.51 1112.26 1403.15 1112.47 1401.85 1112.88C1400.56 1113.3 1399.33 1113.79 1398.17 1114.35L1396.9 1111.22C1398.13 1110.58 1399.54 1110.05 1401.13 1109.6C1402.73 1109.15 1404.4 1108.92 1406.16 1108.92ZM1411.69 1123.22L1407.53 1123.39C1404.13 1123.53 1401.73 1124.08 1400.33 1125.06C1398.94 1126.04 1398.24 1127.43 1398.24 1129.22C1398.24 1130.78 1398.72 1131.93 1399.66 1132.68C1400.61 1133.43 1401.86 1133.8 1403.42 1133.8C1405.85 1133.8 1407.83 1133.13 1409.37 1131.79C1410.92 1130.44 1411.69 1128.42 1411.69 1125.73V1123.22ZM1437.12 1108.88C1440.52 1108.88 1443.23 1110.05 1445.26 1112.39C1447.28 1114.73 1448.3 1118.25 1448.3 1122.94C1448.3 1126.05 1447.83 1128.66 1446.9 1130.76C1445.97 1132.87 1444.66 1134.47 1442.97 1135.55C1441.29 1136.62 1439.31 1137.16 1437.02 1137.16C1435.57 1137.16 1434.3 1136.97 1433.21 1136.59C1432.11 1136.21 1431.17 1135.69 1430.39 1135.05C1429.61 1134.4 1428.96 1133.69 1428.45 1132.93H1428.15C1428.2 1133.58 1428.26 1134.36 1428.33 1135.27C1428.41 1136.18 1428.45 1136.98 1428.45 1137.66V1148.87H1424.29V1109.37H1427.7L1428.25 1113.41H1428.45C1428.98 1112.58 1429.63 1111.82 1430.39 1111.14C1431.16 1110.44 1432.09 1109.9 1433.18 1109.5C1434.29 1109.08 1435.6 1108.88 1437.12 1108.88ZM1436.39 1112.36C1434.5 1112.36 1432.97 1112.73 1431.81 1113.46C1430.67 1114.19 1429.83 1115.28 1429.3 1116.74C1428.77 1118.19 1428.48 1120.01 1428.45 1122.2V1122.99C1428.45 1125.3 1428.7 1127.25 1429.2 1128.85C1429.71 1130.44 1430.55 1131.65 1431.71 1132.48C1432.89 1133.31 1434.47 1133.73 1436.44 1133.73C1438.14 1133.73 1439.55 1133.27 1440.68 1132.36C1441.81 1131.44 1442.64 1130.17 1443.19 1128.55C1443.76 1126.9 1444.04 1125.02 1444.04 1122.9C1444.04 1119.67 1443.41 1117.12 1442.15 1115.23C1440.9 1113.32 1438.98 1112.36 1436.39 1112.36ZM1459.65 1097.92V1109.5C1459.65 1110.16 1459.64 1110.83 1459.6 1111.51C1459.57 1112.18 1459.51 1112.79 1459.43 1113.36H1459.7C1460.27 1112.39 1460.98 1111.59 1461.84 1110.94C1462.72 1110.28 1463.72 1109.78 1464.83 1109.45C1465.94 1109.1 1467.12 1108.92 1468.37 1108.92C1470.56 1108.92 1472.39 1109.27 1473.85 1109.97C1475.32 1110.67 1476.43 1111.75 1477.16 1113.21C1477.91 1114.67 1478.28 1116.56 1478.28 1118.89V1136.67H1474.2V1119.16C1474.2 1116.89 1473.67 1115.18 1472.63 1114.05C1471.6 1112.93 1470.01 1112.36 1467.87 1112.36C1465.84 1112.36 1464.23 1112.75 1463.01 1113.53C1461.82 1114.3 1460.96 1115.42 1460.42 1116.92C1459.91 1118.41 1459.65 1120.24 1459.65 1122.4V1136.67H1455.52V1097.92H1459.65Z" fill="#575757"/>
</svg>
