<svg width="732" height="291" viewBox="0 0 732 291" fill="none" xmlns="http://www.w3.org/2000/svg">
<path d="M74.2363 79.9036L631.519 79.9036" stroke="#575757" stroke-width="0.5" stroke-linecap="square" stroke-dasharray="2 2 2 2 2 2"/>
<path d="M74.2698 207.674L631.552 207.674" stroke="#575757" stroke-width="0.5" stroke-linecap="square" stroke-dasharray="2 2 2 2 2 2"/>
<path d="M73.7607 79.9036V207.674" stroke="#575757" stroke-width="0.5" stroke-linecap="square" stroke-dasharray="2 2 2 2 2 2"/>
<path d="M632.021 79.9036V207.674" stroke="#575757" stroke-width="0.5" stroke-linecap="square" stroke-dasharray="2 2 2 2 2 2"/>
<rect x="632.274" y="47.7522" width="30.9327" height="192.076" fill="#8ACF31"/>
<rect x="42.5759" y="47.7522" width="30.9327" height="192.076" fill="#8ACF31"/>
<path d="M244.184 173.06V125.06H277.934V135.56H257.216V143.81H275.872V154.31H257.216V173.06H244.184ZM329.227 149.06C329.227 154.404 328.188 158.912 326.11 162.584C324.032 166.24 321.227 169.013 317.696 170.904C314.165 172.779 310.227 173.717 305.884 173.717C301.509 173.717 297.555 172.771 294.024 170.881C290.509 168.974 287.712 166.193 285.634 162.537C283.571 158.865 282.54 154.373 282.54 149.06C282.54 143.717 283.571 139.217 285.634 135.56C287.712 131.888 290.509 129.115 294.024 127.24C297.555 125.349 301.509 124.404 305.884 124.404C310.227 124.404 314.165 125.349 317.696 127.24C321.227 129.115 324.032 131.888 326.11 135.56C328.188 139.217 329.227 143.717 329.227 149.06ZM315.821 149.06C315.821 146.185 315.438 143.763 314.673 141.795C313.923 139.81 312.805 138.31 311.321 137.295C309.852 136.263 308.04 135.748 305.884 135.748C303.727 135.748 301.907 136.263 300.423 137.295C298.954 138.31 297.837 139.81 297.071 141.795C296.321 143.763 295.946 146.185 295.946 149.06C295.946 151.935 296.321 154.365 297.071 156.349C297.837 158.318 298.954 159.818 300.423 160.849C301.907 161.865 303.727 162.373 305.884 162.373C308.04 162.373 309.852 161.865 311.321 160.849C312.805 159.818 313.923 158.318 314.673 156.349C315.438 154.365 315.821 151.935 315.821 149.06ZM335.257 173.06V125.06H355.975C359.538 125.06 362.655 125.709 365.327 127.006C367.999 128.302 370.077 130.17 371.561 132.607C373.046 135.045 373.788 137.967 373.788 141.373C373.788 144.81 373.022 147.709 371.491 150.068C369.975 152.427 367.843 154.209 365.093 155.412C362.358 156.615 359.163 157.217 355.507 157.217H343.132V147.092H352.882C354.413 147.092 355.717 146.904 356.796 146.529C357.889 146.138 358.725 145.521 359.303 144.677C359.897 143.834 360.194 142.732 360.194 141.373C360.194 139.998 359.897 138.881 359.303 138.021C358.725 137.146 357.889 136.506 356.796 136.099C355.717 135.677 354.413 135.467 352.882 135.467H348.288V173.06H335.257ZM363.382 151.029L375.382 173.06H361.225L349.507 151.029H363.382ZM379.342 173.06V125.06H392.374V144.467H393.03L407.467 125.06H422.655L406.436 146.435L423.03 173.06H407.467L396.686 155.06L392.374 160.685V173.06H379.342ZM426.522 173.06V125.06H447.241C450.803 125.06 453.921 125.763 456.592 127.17C459.264 128.576 461.343 130.552 462.827 133.099C464.311 135.646 465.053 138.623 465.053 142.029C465.053 145.467 464.288 148.443 462.757 150.959C461.241 153.474 459.108 155.412 456.358 156.771C453.624 158.131 450.428 158.81 446.772 158.81H434.397V148.685H444.147C445.678 148.685 446.983 148.42 448.061 147.888C449.155 147.342 449.991 146.568 450.569 145.568C451.163 144.568 451.46 143.388 451.46 142.029C451.46 140.654 451.163 139.482 450.569 138.513C449.991 137.529 449.155 136.779 448.061 136.263C446.983 135.732 445.678 135.467 444.147 135.467H439.553V173.06H426.522ZM516.335 149.06C516.335 154.404 515.296 158.912 513.218 162.584C511.139 166.24 508.335 169.013 504.803 170.904C501.272 172.779 497.335 173.717 492.991 173.717C488.616 173.717 484.663 172.771 481.132 170.881C477.616 168.974 474.819 166.193 472.741 162.537C470.678 158.865 469.647 154.373 469.647 149.06C469.647 143.717 470.678 139.217 472.741 135.56C474.819 131.888 477.616 129.115 481.132 127.24C484.663 125.349 488.616 124.404 492.991 124.404C497.335 124.404 501.272 125.349 504.803 127.24C508.335 129.115 511.139 131.888 513.218 135.56C515.296 139.217 516.335 143.717 516.335 149.06ZM502.928 149.06C502.928 146.185 502.546 143.763 501.78 141.795C501.03 139.81 499.913 138.31 498.428 137.295C496.96 136.263 495.147 135.748 492.991 135.748C490.835 135.748 489.014 136.263 487.53 137.295C486.061 138.31 484.944 139.81 484.178 141.795C483.428 143.763 483.053 146.185 483.053 149.06C483.053 151.935 483.428 154.365 484.178 156.349C484.944 158.318 486.061 159.818 487.53 160.849C489.014 161.865 490.835 162.373 492.991 162.373C495.147 162.373 496.96 161.865 498.428 160.849C499.913 159.818 501.03 158.318 501.78 156.349C502.546 154.365 502.928 151.935 502.928 149.06ZM535.395 125.06V173.06H522.364V125.06H535.395ZM583.102 125.06V173.06H572.227L554.884 147.842H554.602V173.06H541.571V125.06H552.634L569.696 150.185H570.071V125.06H583.102ZM587.954 135.56V125.06H629.673V135.56H615.235V173.06H602.391V135.56H587.954Z" fill="#575757"/>
<path d="M178.097 160.718C165.895 181.802 148.874 197.022 126.63 206.554C123.608 207.849 121.525 207.602 118.972 205.491C94.1478 184.97 79.2908 158.943 74.4413 127.319C73.6996 122.482 76.1892 119.713 84.0503 116.512C85.7479 141.737 94.61 164.092 111.222 183.342C111.987 184.228 112.742 185.128 113.575 185.949C126.396 198.584 121.939 198.658 137.908 188.515C159.685 174.683 173.145 154.654 178.444 129.44C178.677 128.33 179.138 127.266 179.497 126.167C189.529 130.144 189.98 130.618 186.674 140.129C184.278 147.021 181.094 153.645 178.097 160.718Z" fill="#575757"/>
<path d="M122.329 111.252C118.346 112.242 114.779 113.12 111.017 114.045C110.836 113.193 110.585 112.578 110.594 111.966C110.747 101.541 109.303 103.364 118.924 101.378C150.269 94.9084 178.958 101.176 204.956 119.763C208.161 122.055 209.091 124.46 208.493 128.145C203.366 159.727 188.416 185.718 163.268 205.834C161.867 206.955 159.063 207.006 157.098 206.622C154.702 206.154 152.503 204.698 149.653 203.414C151.119 202.213 152.188 201.268 153.327 200.413C176.543 182.994 191.07 160.183 197.051 131.957C197.75 128.658 197.051 126.852 194.19 125.021C172.218 110.954 148.368 106.658 122.329 111.252Z" fill="#575757"/>
<path d="M131.735 91.5875C123.366 93.1319 115.463 94.6538 107.551 96.1289C104.453 96.7066 103.329 98.4375 103.055 101.587C100.491 131.111 109.994 156.24 130.858 177.307C132.023 178.483 133.361 179.491 134.425 180.41C134.198 181.198 134.209 181.632 134.02 181.749C123.751 188.101 126.478 188.434 118.888 179.929C97.0177 155.418 88.5867 126.793 93.26 94.3485C93.7712 90.8001 95.2987 89.2257 98.5147 88.1086C125.614 78.6952 152.831 78.0861 180.214 86.7509C190.143 89.8928 190.655 90.697 190.123 101.687C171.589 93.6084 152.396 89.6464 131.735 91.5875Z" fill="#575757"/>
<path d="M242.607 124.56L707.59 124.56" stroke="#575757" stroke-linecap="square"/>
<path d="M242.603 173.562L707.586 173.562" stroke="#575757" stroke-linecap="square"/>
<path d="M73.5066 47.7522H632.272V79.6548H73.5066V47.7522Z" fill="#8ACF31"/>
<rect x="73.5076" y="207.925" width="558.766" height="31.9026" fill="#8ACF31"/>
<path d="M42.8296 47.4988L662.955 47.4988" stroke="#575757" stroke-width="0.5" stroke-linecap="square"/>
<path d="M73.554 30.417L78.554 33.3037V27.5302L73.554 30.417ZM632.019 30.417L627.019 27.5302V33.3037L632.019 30.417ZM78.054 30.917H627.519V29.917H78.054V30.917Z" fill="#575757"/>
<path d="M73.5537 257.417L78.5537 260.304V254.53L73.5537 257.417ZM632.019 257.417L627.019 254.53V260.304L632.019 257.417ZM78.0537 257.917H627.519V256.917H78.0537V257.917Z" fill="#575757"/>
<path d="M26.4407 207.394L29.3274 202.394H23.5539L26.4407 207.394ZM26.4407 80.2825L23.5539 85.2825H29.3274L26.4407 80.2825ZM26.9407 202.894L26.9407 84.7825H25.9407L25.9407 202.894H26.9407Z" fill="#575757"/>
<path d="M687.271 172.949L690.157 167.949H684.384L687.271 172.949ZM687.271 125.189L684.384 130.189H690.157L687.271 125.189ZM687.771 168.449V129.689H686.771V168.449H687.771Z" fill="#575757"/>
<path d="M632.396 79.9412L663.207 79.9412" stroke="#575757" stroke-width="0.5" stroke-linecap="square"/>
<path d="M42.584 79.9141L73.3942 79.9141" stroke="#575757" stroke-width="0.5" stroke-linecap="square"/>
<path d="M11.0356 79.9141L41.8458 79.9141" stroke="#575757" stroke-width="0.5" stroke-linecap="square"/>
<path d="M11.0562 207.665L41.8663 207.665" stroke="#575757" stroke-width="0.5" stroke-linecap="square"/>
<path d="M73.7583 270.812L73.7583 240.332" stroke="#575757" stroke-width="0.5" stroke-linecap="square"/>
<path d="M632.025 270.812L632.025 240.332" stroke="#575757" stroke-width="0.5" stroke-linecap="square"/>
<path d="M632.021 47.0022L632.021 16.5222" stroke="#575757" stroke-width="0.5" stroke-linecap="square"/>
<path d="M73.7583 47.0022L73.7583 16.5222" stroke="#575757" stroke-width="0.5" stroke-linecap="square"/>
<path d="M632.335 207.665L663.145 207.665" stroke="#575757" stroke-width="0.5" stroke-linecap="square"/>
<path d="M42.6372 207.665L73.4474 207.665" stroke="#575757" stroke-width="0.5" stroke-linecap="square"/>
<path d="M42.8286 240.08L662.954 240.08" stroke="#575757" stroke-width="0.5" stroke-linecap="square"/>
<path d="M42.3384 47.4988V240.079" stroke="#575757" stroke-width="0.5" stroke-linecap="square"/>
<path d="M73.7583 47.9907V79.8907" stroke="#575757" stroke-width="0.5" stroke-linecap="square"/>
<path d="M73.7583 207.991V239.891" stroke="#575757" stroke-width="0.5" stroke-linecap="square"/>
<path d="M632.025 208.014V239.914" stroke="#575757" stroke-width="0.5" stroke-linecap="square"/>
<path d="M632.021 47.7549V79.6549" stroke="#575757" stroke-width="0.5" stroke-linecap="square"/>
<path d="M663.458 47.5V240.08" stroke="#575757" stroke-width="0.5" stroke-linecap="square"/>
<path d="M326.805 20.1191C325.722 20.1191 324.746 19.9037 323.878 19.4728C323.011 19.0419 322.315 18.451 321.792 17.7001C321.269 16.9491 320.982 16.0936 320.933 15.1333H323.149C323.235 15.9889 323.623 16.6968 324.312 17.2569C325.008 17.8109 325.839 18.0879 326.805 18.0879C327.581 18.0879 328.27 17.9063 328.873 17.5431C329.483 17.18 329.96 16.6814 330.305 16.0474C330.655 15.4072 330.831 14.684 330.831 13.8776C330.831 13.0528 330.649 12.3173 330.286 11.671C329.929 11.0185 329.437 10.5045 328.809 10.1291C328.181 9.75359 327.464 9.56277 326.658 9.55662C326.079 9.55046 325.485 9.63971 324.876 9.82437C324.266 10.0029 323.765 10.2337 323.371 10.5168L321.229 10.2583L322.373 0.951504H332.197V2.98275H324.294L323.629 8.55946H323.74C324.128 8.25169 324.614 7.99625 325.199 7.79312C325.784 7.59 326.393 7.48844 327.027 7.48844C328.184 7.48844 329.215 7.76542 330.12 8.3194C331.031 8.86722 331.745 9.61817 332.262 10.5722C332.785 11.5263 333.047 12.6158 333.047 13.8407C333.047 15.0471 332.776 16.1243 332.234 17.0722C331.699 18.014 330.96 18.7588 330.018 19.3066C329.077 19.8483 328.006 20.1191 326.805 20.1191ZM342.624 20.1191C341.54 20.1191 340.565 19.9037 339.697 19.4728C338.829 19.0419 338.133 18.451 337.61 17.7001C337.087 16.9491 336.801 16.0936 336.752 15.1333H338.967C339.054 15.9889 339.441 16.6968 340.131 17.2569C340.826 17.8109 341.657 18.0879 342.624 18.0879C343.399 18.0879 344.089 17.9063 344.692 17.5431C345.301 17.18 345.778 16.6814 346.123 16.0474C346.474 15.4072 346.649 14.684 346.649 13.8776C346.649 13.0528 346.468 12.3173 346.104 11.671C345.747 11.0185 345.255 10.5045 344.627 10.1291C343.999 9.75359 343.282 9.56277 342.476 9.55662C341.897 9.55046 341.303 9.63971 340.694 9.82437C340.085 10.0029 339.583 10.2337 339.189 10.5168L337.047 10.2583L338.192 0.951504H348.016V2.98275H340.112L339.448 8.55946H339.558C339.946 8.25169 340.432 7.99625 341.017 7.79312C341.602 7.59 342.211 7.48844 342.845 7.48844C344.002 7.48844 345.033 7.76542 345.938 8.3194C346.849 8.86722 347.563 9.61817 348.08 10.5722C348.604 11.5263 348.865 12.6158 348.865 13.8407C348.865 15.0471 348.594 16.1243 348.053 17.0722C347.517 18.014 346.778 18.7588 345.837 19.3066C344.895 19.8483 343.824 20.1191 342.624 20.1191ZM355.109 17.2754L354.961 18.2725C354.857 18.9742 354.697 19.7252 354.481 20.5254C354.272 21.3256 354.053 22.0796 353.826 22.7874C353.598 23.4953 353.41 24.0585 353.262 24.4771H351.6C351.68 24.0831 351.785 23.563 351.914 22.9167C352.044 22.2704 352.173 21.5471 352.302 20.747C352.438 19.9529 352.548 19.1404 352.634 18.3095L352.745 17.2754H355.109ZM364.582 20.1191C363.314 20.1191 362.194 19.8944 361.221 19.4451C360.255 18.9896 359.501 18.3649 358.959 17.5708C358.417 16.7706 358.15 15.8596 358.156 14.8379C358.15 14.0377 358.307 13.299 358.627 12.622C358.947 11.9387 359.384 11.3694 359.938 10.9139C360.498 10.4522 361.123 10.1598 361.812 10.0367V9.92594C360.907 9.69203 360.187 9.18422 359.652 8.4025C359.116 7.61462 358.851 6.71902 358.858 5.71571C358.851 4.75548 359.094 3.89682 359.587 3.13971C360.079 2.38261 360.756 1.78555 361.618 1.34852C362.486 0.911495 363.474 0.692981 364.582 0.692981C365.678 0.692981 366.656 0.911495 367.518 1.34852C368.38 1.78555 369.057 2.38261 369.549 3.13971C370.048 3.89682 370.3 4.75548 370.306 5.71571C370.3 6.71902 370.026 7.61462 369.485 8.4025C368.949 9.18422 368.238 9.69203 367.352 9.92594V10.0367C368.035 10.1598 368.651 10.4522 369.198 10.9139C369.746 11.3694 370.183 11.9387 370.509 12.622C370.836 13.299 371.002 14.0377 371.008 14.8379C371.002 15.8596 370.725 16.7706 370.177 17.5708C369.635 18.3649 368.881 18.9896 367.915 19.4451C366.955 19.8944 365.844 20.1191 364.582 20.1191ZM364.582 18.0879C365.438 18.0879 366.176 17.9494 366.798 17.6724C367.42 17.3954 367.9 17.0045 368.238 16.4998C368.577 15.9951 368.749 15.4042 368.755 14.7271C368.749 14.0131 368.564 13.3821 368.201 12.8343C367.838 12.2865 367.343 11.8556 366.715 11.5417C366.093 11.2278 365.382 11.0708 364.582 11.0708C363.776 11.0708 363.055 11.2278 362.421 11.5417C361.794 11.8556 361.298 12.2865 360.935 12.8343C360.578 13.3821 360.402 14.0131 360.409 14.7271C360.402 15.4042 360.566 15.9951 360.898 16.4998C361.237 17.0045 361.72 17.3954 362.348 17.6724C362.975 17.9494 363.72 18.0879 364.582 18.0879ZM364.582 9.11344C365.259 9.11344 365.859 8.97802 366.382 8.70719C366.912 8.43635 367.327 8.0578 367.629 7.57153C367.93 7.08526 368.084 6.5159 368.09 5.86344C368.084 5.22328 367.933 4.66623 367.638 4.19227C367.343 3.71216 366.933 3.34284 366.41 3.08432C365.887 2.81964 365.277 2.6873 364.582 2.6873C363.874 2.6873 363.255 2.81964 362.726 3.08432C362.197 3.34284 361.787 3.71216 361.498 4.19227C361.209 4.66623 361.067 5.22328 361.073 5.86344C361.067 6.5159 361.212 7.08526 361.507 7.57153C361.809 8.0578 362.224 8.43635 362.754 8.70719C363.283 8.97802 363.893 9.11344 364.582 9.11344ZM376.209 5.67878L379.606 11.4771L383.004 5.67878H385.515L380.936 12.7697L385.515 19.8606H383.004L379.606 14.3578L376.209 19.8606H373.697L378.203 12.7697L373.697 5.67878H376.209Z" fill="#575757"/>
<path d="M0.269619 168.23H19.1787V170.52H2.67019V170.631L5.73553 175.247H3.40882L0.269619 170.52L0.269619 168.23ZM19.1787 162.792H17.5168L10.6844 156.551C9.8842 155.818 9.18865 155.215 8.59774 154.741C8.00068 154.267 7.44055 153.916 6.91735 153.688C6.38799 153.454 5.83401 153.337 5.25542 153.337C4.59064 153.337 4.01512 153.497 3.52885 153.818C3.04258 154.131 2.66711 154.562 2.40243 155.11C2.13775 155.658 2.00542 156.274 2.00542 156.957C2.00542 157.683 2.15622 158.317 2.45783 158.859C2.75328 159.394 3.16877 159.81 3.70428 160.105C4.23979 160.394 4.86763 160.539 5.5878 160.539V162.718C4.47985 162.718 3.50731 162.463 2.67019 161.952C1.83307 161.441 1.1806 160.745 0.712801 159.865C0.244998 158.979 0.0110966 157.985 0.0110966 156.883C0.0110966 155.775 0.244998 154.793 0.712801 153.938C1.1806 153.082 1.81152 152.411 2.60556 151.925C3.39959 151.439 4.28288 151.195 5.25542 151.195C5.95096 151.195 6.63113 151.322 7.2959 151.574C7.95452 151.82 8.69007 152.251 9.50257 152.867C10.3089 153.476 11.2938 154.322 12.4571 155.406L16.9997 159.653H17.1475V150.863H19.1787V162.792ZM16.5935 143.763L17.5906 143.911C18.2923 144.015 19.0433 144.175 19.8435 144.391C20.6437 144.6 21.3977 144.818 22.1056 145.046C22.8134 145.274 23.3766 145.462 23.7952 145.609V147.271C23.4012 147.191 22.8811 147.087 22.2348 146.957C21.5885 146.828 20.8653 146.699 20.0651 146.57C19.271 146.434 18.4585 146.323 17.6276 146.237L16.5935 146.126V143.763ZM19.4372 134.144C19.4249 134.92 19.2772 135.696 18.9941 136.471C18.7109 137.247 18.2339 137.955 17.5629 138.595C16.8859 139.235 15.9718 139.749 14.8208 140.137C13.6636 140.524 12.2109 140.718 10.4628 140.718C8.78856 140.718 7.30513 140.561 6.01252 140.247C4.71375 139.933 3.62118 139.478 2.73482 138.881C1.8423 138.284 1.16522 137.564 0.703568 136.72C0.24192 135.871 0.0110966 134.914 0.0110966 133.849C0.0110966 132.79 0.223455 131.849 0.648171 131.024C1.06673 130.193 1.65148 129.516 2.40243 128.992C3.15338 128.469 4.0182 128.131 4.99689 127.977V130.23C4.14746 130.439 3.44268 130.845 2.88255 131.448C2.32241 132.052 2.04235 132.852 2.04235 133.849C2.04235 135.314 2.67942 136.468 3.95357 137.311C5.22772 138.148 7.01583 138.57 9.31792 138.576V138.429C8.79471 138.084 8.34846 137.674 7.97914 137.201C7.60366 136.72 7.31436 136.191 7.11124 135.612C6.90811 135.034 6.80655 134.421 6.80655 133.775C6.80655 132.692 7.07738 131.701 7.61905 130.802C8.15456 129.903 8.89628 129.183 9.84419 128.642C10.786 128.1 11.8662 127.829 13.085 127.829C14.2545 127.829 15.3255 128.091 16.298 128.614C17.2644 129.137 18.0338 129.873 18.6063 130.821C19.1726 131.762 19.4495 132.87 19.4372 134.144ZM17.406 134.144C17.406 133.369 17.2121 132.673 16.8243 132.058C16.4365 131.436 15.9164 130.947 15.2639 130.59C14.6115 130.227 13.8852 130.045 13.085 130.045C12.3032 130.045 11.5923 130.22 10.9521 130.571C10.3058 130.916 9.79187 131.393 9.41024 132.002C9.02862 132.606 8.8378 133.295 8.8378 134.071C8.8378 134.655 8.95475 135.2 9.18865 135.705C9.4164 136.21 9.73032 136.653 10.1304 137.034C10.5305 137.41 10.9891 137.705 11.5061 137.921C12.017 138.136 12.5556 138.244 13.1219 138.244C13.8728 138.244 14.5745 138.068 15.227 137.718C15.8795 137.361 16.4057 136.874 16.8058 136.259C17.2059 135.637 17.406 134.932 17.406 134.144ZM4.99689 122.536L10.7952 119.139L4.99689 115.741L4.99689 113.229L12.0878 117.809L19.1787 113.229V115.741L13.6759 119.139L19.1787 122.536V125.048L12.0878 120.542L4.99689 125.048V122.536Z" fill="#575757"/>
<path d="M697.546 132.598H698.777L707.374 138.031V138.925H705.466V138.321L698.97 134.216H698.874V141.533H697.546V132.598ZM695.01 138.417H697.92H698.493H707.374V139.842H695.01V138.417ZM696.7 145.363L696.048 145.266C695.59 145.198 695.099 145.093 694.575 144.952C694.052 144.816 693.559 144.673 693.096 144.524C692.633 144.375 692.265 144.252 691.992 144.156V143.069C692.249 143.121 692.589 143.19 693.012 143.274C693.434 143.359 693.907 143.443 694.43 143.528C694.95 143.616 695.481 143.689 696.024 143.745L696.7 143.818V145.363ZM695.01 148.116L705.949 153.646H706.046V147.271H707.374V155.191H705.973L695.01 149.685V148.116ZM704.283 158.528L700.492 160.75L704.283 162.971V164.613L699.646 161.619L695.01 164.613V162.971L698.608 160.75L695.01 158.528V156.886L699.646 159.832L704.283 156.886V158.528Z" fill="#575757"/>
<path d="M326.805 286.119C325.722 286.119 324.746 285.904 323.878 285.473C323.011 285.042 322.315 284.451 321.792 283.7C321.269 282.949 320.982 282.094 320.933 281.133H323.149C323.235 281.989 323.623 282.697 324.312 283.257C325.008 283.811 325.839 284.088 326.805 284.088C327.581 284.088 328.27 283.906 328.873 283.543C329.483 283.18 329.96 282.681 330.305 282.047C330.655 281.407 330.831 280.684 330.831 279.878C330.831 279.053 330.649 278.317 330.286 277.671C329.929 277.019 329.437 276.505 328.809 276.129C328.181 275.754 327.464 275.563 326.658 275.557C326.079 275.55 325.485 275.64 324.876 275.824C324.266 276.003 323.765 276.234 323.371 276.517L321.229 276.258L322.373 266.952H332.197V268.983H324.294L323.629 274.559H323.74C324.128 274.252 324.614 273.996 325.199 273.793C325.784 273.59 326.393 273.488 327.027 273.488C328.184 273.488 329.215 273.765 330.12 274.319C331.031 274.867 331.745 275.618 332.262 276.572C332.785 277.526 333.047 278.616 333.047 279.841C333.047 281.047 332.776 282.124 332.234 283.072C331.699 284.014 330.96 284.759 330.018 285.307C329.077 285.848 328.006 286.119 326.805 286.119ZM342.624 286.119C341.54 286.119 340.565 285.904 339.697 285.473C338.829 285.042 338.133 284.451 337.61 283.7C337.087 282.949 336.801 282.094 336.752 281.133H338.967C339.054 281.989 339.441 282.697 340.131 283.257C340.826 283.811 341.657 284.088 342.624 284.088C343.399 284.088 344.089 283.906 344.692 283.543C345.301 283.18 345.778 282.681 346.123 282.047C346.474 281.407 346.649 280.684 346.649 279.878C346.649 279.053 346.468 278.317 346.104 277.671C345.747 277.019 345.255 276.505 344.627 276.129C343.999 275.754 343.282 275.563 342.476 275.557C341.897 275.55 341.303 275.64 340.694 275.824C340.085 276.003 339.583 276.234 339.189 276.517L337.047 276.258L338.192 266.952H348.016V268.983H340.112L339.448 274.559H339.558C339.946 274.252 340.432 273.996 341.017 273.793C341.602 273.59 342.211 273.488 342.845 273.488C344.002 273.488 345.033 273.765 345.938 274.319C346.849 274.867 347.563 275.618 348.08 276.572C348.604 277.526 348.865 278.616 348.865 279.841C348.865 281.047 348.594 282.124 348.053 283.072C347.517 284.014 346.778 284.759 345.837 285.307C344.895 285.848 343.824 286.119 342.624 286.119ZM355.109 283.275L354.961 284.273C354.857 284.974 354.697 285.725 354.481 286.525C354.272 287.326 354.053 288.08 353.826 288.787C353.598 289.495 353.41 290.059 353.262 290.477H351.6C351.68 290.083 351.785 289.563 351.914 288.917C352.044 288.27 352.173 287.547 352.302 286.747C352.438 285.953 352.548 285.14 352.634 284.309L352.745 283.275H355.109ZM364.582 286.119C363.314 286.119 362.194 285.894 361.221 285.445C360.255 284.99 359.501 284.365 358.959 283.571C358.417 282.771 358.15 281.86 358.156 280.838C358.15 280.038 358.307 279.299 358.627 278.622C358.947 277.939 359.384 277.369 359.938 276.914C360.498 276.452 361.123 276.16 361.812 276.037V275.926C360.907 275.692 360.187 275.184 359.652 274.402C359.116 273.615 358.851 272.719 358.858 271.716C358.851 270.755 359.094 269.897 359.587 269.14C360.079 268.383 360.756 267.786 361.618 267.349C362.486 266.911 363.474 266.693 364.582 266.693C365.678 266.693 366.656 266.911 367.518 267.349C368.38 267.786 369.057 268.383 369.549 269.14C370.048 269.897 370.3 270.755 370.306 271.716C370.3 272.719 370.026 273.615 369.485 274.402C368.949 275.184 368.238 275.692 367.352 275.926V276.037C368.035 276.16 368.651 276.452 369.198 276.914C369.746 277.369 370.183 277.939 370.509 278.622C370.836 279.299 371.002 280.038 371.008 280.838C371.002 281.86 370.725 282.771 370.177 283.571C369.635 284.365 368.881 284.99 367.915 285.445C366.955 285.894 365.844 286.119 364.582 286.119ZM364.582 284.088C365.438 284.088 366.176 283.949 366.798 283.672C367.42 283.395 367.9 283.005 368.238 282.5C368.577 281.995 368.749 281.404 368.755 280.727C368.749 280.013 368.564 279.382 368.201 278.834C367.838 278.286 367.343 277.856 366.715 277.542C366.093 277.228 365.382 277.071 364.582 277.071C363.776 277.071 363.055 277.228 362.421 277.542C361.794 277.856 361.298 278.286 360.935 278.834C360.578 279.382 360.402 280.013 360.409 280.727C360.402 281.404 360.566 281.995 360.898 282.5C361.237 283.005 361.72 283.395 362.348 283.672C362.975 283.949 363.72 284.088 364.582 284.088ZM364.582 275.113C365.259 275.113 365.859 274.978 366.382 274.707C366.912 274.436 367.327 274.058 367.629 273.572C367.93 273.085 368.084 272.516 368.09 271.863C368.084 271.223 367.933 270.666 367.638 270.192C367.343 269.712 366.933 269.343 366.41 269.084C365.887 268.82 365.277 268.687 364.582 268.687C363.874 268.687 363.255 268.82 362.726 269.084C362.197 269.343 361.787 269.712 361.498 270.192C361.209 270.666 361.067 271.223 361.073 271.863C361.067 272.516 361.212 273.085 361.507 273.572C361.809 274.058 362.224 274.436 362.754 274.707C363.283 274.978 363.893 275.113 364.582 275.113ZM376.209 271.679L379.606 277.477L383.004 271.679H385.515L380.936 278.77L385.515 285.861H383.004L379.606 280.358L376.209 285.861H373.697L378.203 278.77L373.697 271.679H376.209Z" fill="#575757"/>
</svg>
