<svg width="2437" height="4673" viewBox="0 0 2437 4673" fill="none" xmlns="http://www.w3.org/2000/svg">
<rect x="0.345215" y="0.863281" width="2436.52" height="4671.6" fill="white"/>
<rect x="1206.44" y="283.646" width="749.411" height="97.4746" fill="#575757"/>
<rect x="164.687" y="1132.4" width="2107.66" height="97.4746" fill="#575757"/>
<rect x="164.687" y="1292.4" width="2107.66" height="97.4746" fill="#575757"/>
<rect x="164.687" y="1462.4" width="2107.66" height="97.4746" fill="#575757"/>
<rect x="1206.44" y="463.646" width="463.092" height="97.4746" fill="#575757"/>
<rect x="9.3125" y="1773.1" width="2417.94" height="2451.94" fill="#575757"/>
<rect x="164.687" y="154.213" width="967.474" height="813.813" fill="#575757"/>
<path d="M857.672 662.918C787.544 773.315 689.727 853.009 561.89 902.918C544.521 909.699 532.552 908.407 517.878 897.354C375.215 789.904 289.832 653.622 261.962 488.033C257.699 462.708 272.007 448.21 317.185 431.449C326.941 563.53 377.871 680.584 473.343 781.378C477.737 786.017 482.076 790.732 486.862 795.029C560.547 861.188 534.932 861.575 626.704 808.466C751.858 736.038 829.212 631.162 859.661 499.143C861.003 493.328 863.651 487.758 865.716 482.002C923.368 502.829 925.959 505.309 906.959 555.108C893.19 591.197 874.893 625.883 857.672 662.918Z" fill="#8ACF31"/>
<path d="M537.171 403.905C514.278 409.091 493.778 413.685 472.158 418.531C471.119 414.068 469.676 410.846 469.727 407.645C470.607 353.058 462.309 362.604 517.6 352.206C697.74 318.328 862.614 351.146 1012.03 448.471C1030.45 460.469 1035.79 473.062 1032.35 492.358C1002.89 657.729 916.968 793.821 772.443 899.151C764.394 905.018 748.28 905.288 736.99 903.278C723.218 900.826 710.58 893.201 694.2 886.479C702.623 880.189 708.768 875.239 715.314 870.765C848.739 779.557 932.225 660.115 966.595 512.32C970.611 495.047 966.593 485.588 950.155 475.999C823.884 402.346 686.818 379.853 537.171 403.905Z" fill="#8ACF31"/>
<path d="M591.223 300.939C543.132 309.026 497.713 316.995 452.243 324.719C434.435 327.744 427.977 336.807 426.405 353.297C411.667 507.889 466.279 639.467 586.188 749.777C592.881 755.934 600.568 761.212 606.685 766.027C605.382 770.153 605.447 772.425 604.36 773.038C545.342 806.295 561.015 808.043 517.397 763.505C391.706 635.164 343.254 485.278 370.111 315.396C373.049 296.816 381.827 288.573 400.31 282.723C556.051 233.433 712.467 230.244 869.835 275.614C926.897 292.066 929.84 296.276 926.78 353.819C820.268 311.521 709.967 290.776 591.223 300.939Z" fill="#8ACF31"/>
<rect x="418.824" y="2092.6" width="1599.24" height="1816.11" fill="#D9D9D9" fill-opacity="0.4"/>
<path d="M2018.06 2973.57L2085.56 3012.54V2934.6L2018.06 2973.57ZM2427.56 2973.57L2360.06 2934.6V3012.54L2427.56 2973.57ZM2078.81 2980.32H2366.81V2966.82H2078.81V2980.32Z" fill="white"/>
<path d="M9.32373 2972.97L76.8237 3011.94V2934L9.32373 2972.97ZM418.824 2972.97L351.324 2934V3011.94L418.824 2972.97ZM70.0737 2979.72H358.074V2966.22H70.0737V2979.72Z" fill="white"/>
<path d="M1206.44 2092.6L1245.41 2025.1H1167.47L1206.44 2092.6ZM1206.44 1773.1L1167.47 1840.6H1245.41L1206.44 1773.1ZM1213.19 2031.85V1833.85H1199.69V2031.85H1213.19Z" fill="white"/>
<path d="M778.797 3023.35V2916.27H801.502V3004.6H844.935V3023.35H778.797ZM895.399 2939.78C906.385 2939.78 914.808 2942.17 920.667 2946.96C926.527 2951.75 929.457 2959.02 929.457 2968.79V3023.35H913.856L909.535 3012.22H908.949C906.605 3015.15 904.212 3017.54 901.771 3019.4C899.33 3021.25 896.522 3022.62 893.348 3023.5C890.174 3024.38 886.317 3024.82 881.776 3024.82C876.942 3024.82 872.596 3023.89 868.739 3022.03C864.93 3020.18 861.927 3017.35 859.73 3013.54C857.533 3009.68 856.434 3004.8 856.434 2998.89C856.434 2990.2 859.486 2983.8 865.589 2979.7C871.693 2975.55 880.848 2973.25 893.055 2972.81L907.264 2972.38V2968.79C907.264 2964.49 906.141 2961.34 903.895 2959.34C901.649 2957.34 898.524 2956.33 894.52 2956.33C890.565 2956.33 886.683 2956.9 882.875 2958.02C879.066 2959.14 875.257 2960.56 871.449 2962.27L864.051 2947.18C868.397 2944.88 873.255 2943.08 878.626 2941.76C884.046 2940.44 889.637 2939.78 895.399 2939.78ZM907.264 2985.41L898.622 2985.71C891.395 2985.9 886.366 2987.19 883.534 2989.59C880.75 2991.98 879.359 2995.13 879.359 2999.04C879.359 3002.45 880.36 3004.89 882.362 3006.36C884.364 3007.78 886.976 3008.48 890.199 3008.48C894.984 3008.48 899.012 3007.07 902.284 3004.24C905.604 3001.4 907.264 2997.38 907.264 2992.15V2985.41ZM940.809 2941.47H965.272L980.726 2987.54C981.214 2989 981.629 2990.49 981.971 2992C982.313 2993.52 982.606 2995.08 982.85 2996.69C983.094 2998.3 983.29 2999.99 983.436 3001.75H983.875C984.168 2999.11 984.559 2996.64 985.047 2994.35C985.584 2992.05 986.244 2989.78 987.025 2987.54L1002.19 2941.47H1026.14L991.493 3033.83C989.393 3039.49 986.659 3044.2 983.29 3047.96C979.92 3051.77 976.039 3054.63 971.644 3056.53C967.298 3058.43 962.513 3059.39 957.289 3059.39C954.75 3059.39 952.552 3059.24 950.697 3058.95C948.841 3058.7 947.254 3058.43 945.936 3058.14V3040.42C946.961 3040.66 948.255 3040.88 949.818 3041.08C951.38 3041.27 953.016 3041.37 954.725 3041.37C957.85 3041.37 960.536 3040.71 962.782 3039.39C965.028 3038.07 966.908 3036.29 968.421 3034.04C969.935 3031.85 971.131 3029.43 972.01 3026.79L973.329 3022.77L940.809 2941.47ZM1112.34 2982.26C1112.34 2989.1 1111.41 2995.15 1109.56 3000.43C1107.75 3005.7 1105.09 3010.17 1101.58 3013.83C1098.11 3017.44 1093.91 3020.18 1088.98 3022.03C1084.1 3023.89 1078.58 3024.82 1072.43 3024.82C1066.66 3024.82 1061.37 3023.89 1056.53 3022.03C1051.75 3020.18 1047.57 3017.44 1044.01 3013.83C1040.49 3010.17 1037.76 3005.7 1035.8 3000.43C1033.9 2995.15 1032.95 2989.1 1032.95 2982.26C1032.95 2973.18 1034.56 2965.49 1037.78 2959.19C1041 2952.89 1045.59 2948.11 1051.55 2944.84C1057.51 2941.56 1064.61 2939.93 1072.86 2939.93C1080.53 2939.93 1087.32 2941.56 1093.23 2944.84C1099.18 2948.11 1103.85 2952.89 1107.22 2959.19C1110.63 2965.49 1112.34 2973.18 1112.34 2982.26ZM1055.73 2982.26C1055.73 2987.63 1056.31 2992.15 1057.48 2995.81C1058.66 2999.47 1060.49 3002.23 1062.98 3004.09C1065.47 3005.94 1068.71 3006.87 1072.72 3006.87C1076.67 3006.87 1079.87 3005.94 1082.31 3004.09C1084.8 3002.23 1086.61 2999.47 1087.73 2995.81C1088.9 2992.15 1089.49 2987.63 1089.49 2982.26C1089.49 2976.84 1088.9 2972.35 1087.73 2968.79C1086.61 2965.17 1084.8 2962.46 1082.31 2960.66C1079.82 2958.85 1076.58 2957.95 1072.57 2957.95C1066.66 2957.95 1062.37 2959.97 1059.68 2964.03C1057.04 2968.08 1055.73 2974.16 1055.73 2982.26ZM1205.95 2941.47V3023.35H1188.81L1185.8 3012.88H1184.63C1182.87 3015.66 1180.68 3017.93 1178.04 3019.69C1175.4 3021.45 1172.5 3022.74 1169.32 3023.57C1166.15 3024.4 1162.85 3024.82 1159.44 3024.82C1153.58 3024.82 1148.48 3023.79 1144.13 3021.74C1139.78 3019.64 1136.39 3016.39 1133.95 3012C1131.56 3007.6 1130.36 3001.89 1130.36 2994.86V2941.47H1152.7V2989.29C1152.7 2995.15 1153.75 2999.57 1155.85 3002.55C1157.95 3005.53 1161.29 3007.02 1165.88 3007.02C1170.42 3007.02 1173.99 3005.99 1176.58 3003.94C1179.16 3001.84 1180.97 2998.79 1182 2994.79C1183.07 2990.73 1183.61 2985.8 1183.61 2979.99V2941.47H1205.95ZM1263.88 3007.02C1266.32 3007.02 1268.69 3006.77 1270.98 3006.29C1273.33 3005.8 1275.65 3005.19 1277.94 3004.46V3021.08C1275.55 3022.16 1272.57 3023.03 1269.01 3023.72C1265.49 3024.45 1261.63 3024.82 1257.44 3024.82C1252.55 3024.82 1248.16 3024.04 1244.25 3022.47C1240.39 3020.86 1237.34 3018.1 1235.1 3014.2C1232.9 3010.24 1231.8 3004.75 1231.8 2997.72V2958.24H1221.11V2948.79L1233.41 2941.32L1239.86 2924.04H1254.14V2941.47H1277.06V2958.24H1254.14V2997.72C1254.14 3000.84 1255.02 3003.19 1256.78 3004.75C1258.58 3006.26 1260.95 3007.02 1263.88 3007.02ZM1376.6 3023.35H1353.9V2935.17H1324.82V2916.27H1405.68V2935.17H1376.6V3023.35ZM1454.16 2939.93C1461.73 2939.93 1468.25 2941.39 1473.72 2944.32C1479.19 2947.2 1483.41 2951.4 1486.39 2956.92C1489.37 2962.44 1490.86 2969.18 1490.86 2977.14V2987.98H1438.05C1438.29 2994.27 1440.17 2999.23 1443.69 3002.84C1447.25 3006.41 1452.19 3008.19 1458.48 3008.19C1463.71 3008.19 1468.49 3007.65 1472.84 3006.58C1477.19 3005.5 1481.65 3003.89 1486.24 3001.75V3019.03C1482.19 3021.03 1477.94 3022.5 1473.5 3023.42C1469.1 3024.35 1463.76 3024.82 1457.46 3024.82C1449.26 3024.82 1441.98 3023.3 1435.63 3020.28C1429.33 3017.25 1424.38 3012.63 1420.77 3006.43C1417.2 3000.23 1415.42 2992.42 1415.42 2983C1415.42 2973.42 1417.03 2965.47 1420.25 2959.12C1423.52 2952.72 1428.06 2947.94 1433.88 2944.76C1439.69 2941.54 1446.45 2939.93 1454.16 2939.93ZM1454.31 2955.82C1449.96 2955.82 1446.35 2957.21 1443.47 2960C1440.64 2962.78 1439 2967.15 1438.56 2973.11H1469.91C1469.86 2969.79 1469.25 2966.83 1468.08 2964.25C1466.96 2961.66 1465.25 2959.61 1462.95 2958.09C1460.71 2956.58 1457.83 2955.82 1454.31 2955.82ZM1525.79 2981.53L1499.43 2941.47H1524.77L1540.66 2967.54L1556.7 2941.47H1582.04L1555.38 2981.53L1583.29 3023.35H1557.87L1540.66 2995.3L1523.38 3023.35H1498.04L1525.79 2981.53ZM1630.24 3007.02C1632.68 3007.02 1635.05 3006.77 1637.34 3006.29C1639.69 3005.8 1642.01 3005.19 1644.3 3004.46V3021.08C1641.91 3022.16 1638.93 3023.03 1635.36 3023.72C1631.85 3024.45 1627.99 3024.82 1623.79 3024.82C1618.91 3024.82 1614.52 3024.04 1610.61 3022.47C1606.75 3020.86 1603.7 3018.1 1601.45 3014.2C1599.26 3010.24 1598.16 3004.75 1598.16 2997.72V2958.24H1587.46V2948.79L1599.77 2941.32L1606.21 2924.04H1620.5V2941.47H1643.42V2958.24H1620.5V2997.72C1620.5 3000.84 1621.38 3003.19 1623.13 3004.75C1624.94 3006.26 1627.31 3007.02 1630.24 3007.02Z" fill="#575757"/>
<path d="M1276.56 1971.85L1303.37 1913.16H1268.16V1900.46H1319.38V1909.94L1292.38 1971.85H1276.56ZM1333.79 1971.85L1360.6 1913.16H1325.39V1900.46H1376.61V1909.94L1349.61 1971.85H1333.79ZM1418.11 1916.24C1424.27 1916.24 1429.23 1918.63 1433.01 1923.41C1436.82 1928.2 1438.72 1935.21 1438.72 1944.46C1438.72 1950.64 1437.83 1955.85 1436.03 1960.08C1434.24 1964.28 1431.77 1967.46 1428.61 1969.61C1425.46 1971.75 1421.83 1972.83 1417.72 1972.83C1415.09 1972.83 1412.83 1972.5 1410.94 1971.85C1409.05 1971.17 1407.44 1970.31 1406.1 1969.26C1404.77 1968.19 1403.61 1967.05 1402.64 1965.85H1401.85C1402.12 1967.15 1402.31 1968.48 1402.44 1969.85C1402.57 1971.22 1402.64 1972.55 1402.64 1973.85V1995.88H1387.74V1917.26H1399.85L1401.95 1924.34H1402.64C1403.61 1922.88 1404.8 1921.53 1406.2 1920.29C1407.6 1919.05 1409.28 1918.08 1411.23 1917.36C1413.22 1916.61 1415.51 1916.24 1418.11 1916.24ZM1413.33 1928.15C1410.73 1928.15 1408.66 1928.69 1407.13 1929.76C1405.6 1930.84 1404.48 1932.45 1403.76 1934.6C1403.08 1936.74 1402.7 1939.46 1402.64 1942.75V1944.36C1402.64 1947.88 1402.96 1950.86 1403.61 1953.3C1404.3 1955.74 1405.42 1957.59 1406.98 1958.86C1408.58 1960.13 1410.76 1960.77 1413.52 1960.77C1415.8 1960.77 1417.68 1960.13 1419.14 1958.86C1420.6 1957.59 1421.7 1955.74 1422.41 1953.3C1423.16 1950.82 1423.53 1947.81 1423.53 1944.26C1423.53 1938.93 1422.7 1934.9 1421.04 1932.2C1419.38 1929.5 1416.81 1928.15 1413.33 1928.15ZM1462.21 1943.97L1444.63 1917.26H1461.52L1472.12 1934.64L1482.81 1917.26H1499.71L1481.93 1943.97L1500.54 1971.85H1483.59L1472.12 1953.15L1460.6 1971.85H1443.7L1462.21 1943.97Z" fill="white"/>
<path d="M126.054 3106.89C130.416 3106.89 134.29 3107.72 137.675 3109.38C141.093 3111.04 143.779 3113.48 145.732 3116.71C147.685 3119.93 148.662 3123.9 148.662 3128.62C148.662 3133.76 147.587 3138.21 145.439 3141.95C143.323 3145.66 140.149 3148.51 135.917 3150.5C131.718 3152.48 126.477 3153.47 120.195 3153.47C116.451 3153.47 112.919 3153.15 109.599 3152.5C106.311 3151.88 103.431 3150.92 100.957 3149.62V3136.58C103.431 3137.88 106.393 3138.99 109.843 3139.9C113.326 3140.78 116.598 3141.22 119.658 3141.22C122.653 3141.22 125.175 3140.83 127.226 3140.05C129.277 3139.23 130.823 3138 131.865 3136.34C132.939 3134.64 133.476 3132.49 133.476 3129.89C133.476 3126.41 132.304 3123.74 129.96 3121.88C127.617 3120.03 124.02 3119.1 119.169 3119.1C117.314 3119.1 115.377 3119.28 113.359 3119.64C111.373 3119.99 109.713 3120.35 108.378 3120.71L102.373 3117.49L105.058 3081.11H143.779V3093.9H118.291L116.972 3107.92C118.079 3107.69 119.283 3107.46 120.585 3107.23C121.888 3107.01 123.71 3106.89 126.054 3106.89ZM183.281 3106.89C187.643 3106.89 191.516 3107.72 194.902 3109.38C198.32 3111.04 201.005 3113.48 202.958 3116.71C204.912 3119.93 205.888 3123.9 205.888 3128.62C205.888 3133.76 204.814 3138.21 202.666 3141.95C200.55 3145.66 197.376 3148.51 193.144 3150.5C188.945 3152.48 183.704 3153.47 177.421 3153.47C173.678 3153.47 170.146 3153.15 166.826 3152.5C163.538 3151.88 160.657 3150.92 158.183 3149.62V3136.58C160.657 3137.88 163.619 3138.99 167.07 3139.9C170.553 3140.78 173.824 3141.22 176.884 3141.22C179.879 3141.22 182.402 3140.83 184.453 3140.05C186.503 3139.23 188.05 3138 189.091 3136.34C190.166 3134.64 190.703 3132.49 190.703 3129.89C190.703 3126.41 189.531 3123.74 187.187 3121.88C184.843 3120.03 181.246 3119.1 176.396 3119.1C174.541 3119.1 172.604 3119.28 170.585 3119.64C168.6 3119.99 166.94 3120.35 165.605 3120.71L159.599 3117.49L162.285 3081.11H201.005V3093.9H175.517L174.199 3107.92C175.306 3107.69 176.51 3107.46 177.812 3107.23C179.114 3107.01 180.937 3106.89 183.281 3106.89ZM248.71 3096.88C254.863 3096.88 259.827 3099.28 263.603 3104.06C267.412 3108.85 269.316 3115.86 269.316 3125.11C269.316 3131.29 268.421 3136.5 266.63 3140.73C264.84 3144.93 262.366 3148.1 259.208 3150.25C256.051 3152.4 252.421 3153.47 248.32 3153.47C245.683 3153.47 243.421 3153.15 241.533 3152.5C239.645 3151.81 238.033 3150.95 236.699 3149.91C235.364 3148.84 234.208 3147.7 233.232 3146.49H232.451C232.711 3147.79 232.906 3149.13 233.037 3150.5C233.167 3151.86 233.232 3153.2 233.232 3154.5V3176.52H218.339V3097.91H230.449L232.548 3104.99H233.232C234.208 3103.52 235.397 3102.17 236.796 3100.94C238.196 3099.7 239.873 3098.72 241.826 3098.01C243.811 3097.26 246.106 3096.88 248.71 3096.88ZM243.925 3108.8C241.321 3108.8 239.254 3109.33 237.724 3110.41C236.194 3111.48 235.071 3113.09 234.355 3115.24C233.671 3117.39 233.297 3120.11 233.232 3123.4V3125.01C233.232 3128.52 233.557 3131.5 234.208 3133.94C234.892 3136.38 236.015 3138.24 237.578 3139.51C239.173 3140.78 241.354 3141.41 244.121 3141.41C246.399 3141.41 248.271 3140.78 249.736 3139.51C251.201 3138.24 252.291 3136.38 253.007 3133.94C253.756 3131.47 254.13 3128.46 254.13 3124.91C254.13 3119.57 253.3 3115.55 251.64 3112.85C249.98 3110.15 247.408 3108.8 243.925 3108.8ZM292.802 3124.62L275.224 3097.91H292.119L302.714 3115.29L313.408 3097.91H330.302L312.529 3124.62L331.132 3152.5H314.189L302.714 3133.8L291.191 3152.5H274.296L292.802 3124.62Z" fill="white"/>
<path d="M2134.79 3068.19C2139.15 3068.19 2143.03 3069.02 2146.41 3070.68C2149.83 3072.34 2152.52 3074.78 2154.47 3078C2156.42 3081.22 2157.4 3085.19 2157.4 3089.91C2157.4 3095.06 2156.32 3099.5 2154.18 3103.24C2152.06 3106.96 2148.89 3109.8 2144.65 3111.79C2140.46 3113.77 2135.21 3114.77 2128.93 3114.77C2125.19 3114.77 2121.66 3114.44 2118.34 3113.79C2115.05 3113.17 2112.17 3112.21 2109.69 3110.91V3097.87C2112.17 3099.18 2115.13 3100.28 2118.58 3101.19C2122.06 3102.07 2125.34 3102.51 2128.4 3102.51C2131.39 3102.51 2133.91 3102.12 2135.96 3101.34C2138.01 3100.53 2139.56 3099.29 2140.6 3097.63C2141.68 3095.94 2142.21 3093.79 2142.21 3091.18C2142.21 3087.7 2141.04 3085.03 2138.7 3083.18C2136.35 3081.32 2132.76 3080.39 2127.91 3080.39C2126.05 3080.39 2124.11 3080.57 2122.1 3080.93C2120.11 3081.29 2118.45 3081.65 2117.12 3082L2111.11 3078.78L2113.8 3042.4H2152.52V3055.2H2127.03L2125.71 3069.21C2126.82 3068.98 2128.02 3068.76 2129.32 3068.53C2130.62 3068.3 2132.45 3068.19 2134.79 3068.19ZM2192.02 3068.19C2196.38 3068.19 2200.25 3069.02 2203.64 3070.68C2207.06 3072.34 2209.74 3074.78 2211.7 3078C2213.65 3081.22 2214.63 3085.19 2214.63 3089.91C2214.63 3095.06 2213.55 3099.5 2211.4 3103.24C2209.29 3106.96 2206.11 3109.8 2201.88 3111.79C2197.68 3113.77 2192.44 3114.77 2186.16 3114.77C2182.42 3114.77 2178.88 3114.44 2175.56 3113.79C2172.28 3113.17 2169.39 3112.21 2166.92 3110.91V3097.87C2169.39 3099.18 2172.36 3100.28 2175.81 3101.19C2179.29 3102.07 2182.56 3102.51 2185.62 3102.51C2188.62 3102.51 2191.14 3102.12 2193.19 3101.34C2195.24 3100.53 2196.79 3099.29 2197.83 3097.63C2198.9 3095.94 2199.44 3093.79 2199.44 3091.18C2199.44 3087.7 2198.27 3085.03 2195.92 3083.18C2193.58 3081.32 2189.98 3080.39 2185.13 3080.39C2183.28 3080.39 2181.34 3080.57 2179.32 3080.93C2177.34 3081.29 2175.68 3081.65 2174.34 3082L2168.34 3078.78L2171.02 3042.4H2209.74V3055.2H2184.25L2182.94 3069.21C2184.04 3068.98 2185.25 3068.76 2186.55 3068.53C2187.85 3068.3 2189.67 3068.19 2192.02 3068.19ZM2257.45 3058.18C2263.6 3058.18 2268.56 3060.57 2272.34 3065.35C2276.15 3070.14 2278.05 3077.15 2278.05 3086.4C2278.05 3092.58 2277.16 3097.79 2275.37 3102.02C2273.58 3106.22 2271.1 3109.4 2267.95 3111.54C2264.79 3113.69 2261.16 3114.77 2257.06 3114.77C2254.42 3114.77 2252.16 3114.44 2250.27 3113.79C2248.38 3113.11 2246.77 3112.24 2245.44 3111.2C2244.1 3110.13 2242.95 3108.99 2241.97 3107.79H2241.19C2241.45 3109.09 2241.64 3110.42 2241.77 3111.79C2241.9 3113.16 2241.97 3114.49 2241.97 3115.79V3137.81H2227.08V3059.2H2239.19L2241.29 3066.28H2241.97C2242.95 3064.82 2244.13 3063.47 2245.53 3062.23C2246.93 3060.99 2248.61 3060.01 2250.56 3059.3C2252.55 3058.55 2254.84 3058.18 2257.45 3058.18ZM2252.66 3070.09C2250.06 3070.09 2247.99 3070.63 2246.46 3071.7C2244.93 3072.78 2243.81 3074.39 2243.09 3076.54C2242.41 3078.68 2242.03 3081.4 2241.97 3084.69V3086.3C2241.97 3089.82 2242.29 3092.79 2242.95 3095.24C2243.63 3097.68 2244.75 3099.53 2246.31 3100.8C2247.91 3102.07 2250.09 3102.71 2252.86 3102.71C2255.14 3102.71 2257.01 3102.07 2258.47 3100.8C2259.94 3099.53 2261.03 3097.68 2261.74 3095.24C2262.49 3092.76 2262.87 3089.75 2262.87 3086.2C2262.87 3080.86 2262.04 3076.84 2260.38 3074.14C2258.72 3071.44 2256.15 3070.09 2252.66 3070.09ZM2301.54 3085.91L2283.96 3059.2H2300.86L2311.45 3076.58L2322.15 3059.2H2339.04L2321.27 3085.91L2339.87 3113.79H2322.93L2311.45 3095.09L2299.93 3113.79H2283.03L2301.54 3085.91Z" fill="white"/>
<path d="M188.247 4612.64H124.878V4439.14C124.878 4434.36 124.946 4428.48 125.083 4421.51C125.22 4414.4 125.425 4407.15 125.698 4399.77C125.972 4392.25 126.245 4385.48 126.519 4379.47C125.015 4381.24 121.938 4384.32 117.29 4388.69C112.778 4392.93 108.54 4396.76 104.575 4400.18L70.1221 4427.86L39.5654 4389.72L136.157 4312.82H188.247V4612.64ZM479.868 4462.73C479.868 4486.93 477.954 4508.53 474.126 4527.53C470.435 4546.54 464.419 4562.67 456.079 4575.93C447.876 4589.19 437.075 4599.31 423.677 4606.28C410.278 4613.25 394.009 4616.74 374.868 4616.74C350.806 4616.74 331.05 4610.66 315.601 4598.49C300.151 4586.18 288.735 4568.55 281.353 4545.58C273.97 4522.47 270.278 4494.86 270.278 4462.73C270.278 4430.33 273.628 4402.64 280.327 4379.67C287.163 4356.57 298.237 4338.86 313.55 4326.56C328.862 4314.25 349.302 4308.1 374.868 4308.1C398.794 4308.1 418.481 4314.25 433.931 4326.56C449.517 4338.72 461.069 4356.36 468.589 4379.47C476.108 4402.43 479.868 4430.19 479.868 4462.73ZM333.237 4462.73C333.237 4485.56 334.468 4504.63 336.929 4519.94C339.526 4535.12 343.833 4546.54 349.849 4554.19C355.864 4561.85 364.204 4565.68 374.868 4565.68C385.396 4565.68 393.667 4561.92 399.683 4554.4C405.835 4546.74 410.21 4535.33 412.808 4520.15C415.405 4504.84 416.704 4485.7 416.704 4462.73C416.704 4439.9 415.405 4420.82 412.808 4405.51C410.21 4390.2 405.835 4378.71 399.683 4371.06C393.667 4363.26 385.396 4359.37 374.868 4359.37C364.204 4359.37 355.864 4363.26 349.849 4371.06C343.833 4378.71 339.526 4390.2 336.929 4405.51C334.468 4420.82 333.237 4439.9 333.237 4462.73ZM615.63 4308.92C632.856 4308.92 648.716 4311.58 663.208 4316.92C677.837 4322.25 689.526 4330.32 698.276 4341.12C707.026 4351.78 711.401 4365.18 711.401 4381.31C711.401 4393.34 709.009 4403.87 704.224 4412.89C699.575 4421.92 693.218 4429.85 685.151 4436.68C677.085 4443.38 667.925 4449.26 657.671 4454.32C668.335 4459.92 678.452 4466.49 688.022 4474.01C697.593 4481.39 705.386 4490.07 711.401 4500.05C717.554 4510.03 720.63 4521.65 720.63 4534.92C720.63 4551.59 716.187 4566.09 707.3 4578.39C698.413 4590.56 686.108 4599.99 670.386 4606.69C654.663 4613.39 636.411 4616.74 615.63 4616.74C593.208 4616.74 574.136 4613.53 558.413 4607.1C542.69 4600.68 530.728 4591.52 522.524 4579.62C514.321 4567.59 510.22 4553.24 510.22 4536.56C510.22 4522.88 512.749 4510.99 517.808 4500.87C523.003 4490.75 529.976 4482.07 538.726 4474.83C547.476 4467.44 557.114 4461.16 567.642 4455.96C558.755 4450.35 550.62 4444 543.237 4436.89C535.991 4429.78 530.181 4421.64 525.806 4412.48C521.567 4403.32 519.448 4392.8 519.448 4380.9C519.448 4365.04 523.892 4351.78 532.778 4341.12C541.802 4330.45 553.628 4322.45 568.257 4317.12C582.886 4311.65 598.677 4308.92 615.63 4308.92ZM568.872 4532.86C568.872 4543.67 572.7 4552.62 580.356 4559.73C588.149 4566.7 599.634 4570.19 614.81 4570.19C630.532 4570.19 642.29 4566.84 650.083 4560.14C657.876 4553.3 661.772 4544.35 661.772 4533.27C661.772 4525.62 659.517 4518.92 655.005 4513.18C650.63 4507.43 645.093 4502.31 638.394 4497.8C631.694 4493.15 624.927 4488.84 618.091 4484.88L612.554 4482C603.804 4485.97 596.147 4490.41 589.585 4495.33C583.159 4500.26 578.101 4505.79 574.409 4511.95C570.718 4518.1 568.872 4525.07 568.872 4532.86ZM615.22 4355.27C604.829 4355.27 596.216 4357.93 589.38 4363.26C582.544 4368.6 579.126 4376.12 579.126 4385.82C579.126 4392.66 580.767 4398.67 584.048 4403.87C587.466 4408.93 591.909 4413.37 597.378 4417.2C602.983 4421.03 609.067 4424.58 615.63 4427.86C621.919 4424.86 627.798 4421.51 633.267 4417.82C638.735 4414.12 643.179 4409.68 646.597 4404.49C650.015 4399.29 651.724 4393.07 651.724 4385.82C651.724 4376.12 648.237 4368.6 641.265 4363.26C634.429 4357.93 625.747 4355.27 615.22 4355.27ZM960.571 4462.73C960.571 4486.93 958.657 4508.53 954.829 4527.53C951.138 4546.54 945.122 4562.67 936.782 4575.93C928.579 4589.19 917.778 4599.31 904.38 4606.28C890.981 4613.25 874.712 4616.74 855.571 4616.74C831.509 4616.74 811.753 4610.66 796.304 4598.49C780.854 4586.18 769.438 4568.55 762.056 4545.58C754.673 4522.47 750.981 4494.86 750.981 4462.73C750.981 4430.33 754.331 4402.64 761.03 4379.67C767.866 4356.57 778.94 4338.86 794.253 4326.56C809.565 4314.25 830.005 4308.1 855.571 4308.1C879.497 4308.1 899.185 4314.25 914.634 4326.56C930.22 4338.72 941.772 4356.36 949.292 4379.47C956.812 4402.43 960.571 4430.19 960.571 4462.73ZM813.94 4462.73C813.94 4485.56 815.171 4504.63 817.632 4519.94C820.229 4535.12 824.536 4546.54 830.552 4554.19C836.567 4561.85 844.907 4565.68 855.571 4565.68C866.099 4565.68 874.37 4561.92 880.386 4554.4C886.538 4546.74 890.913 4535.33 893.511 4520.15C896.108 4504.84 897.407 4485.7 897.407 4462.73C897.407 4439.9 896.108 4420.82 893.511 4405.51C890.913 4390.2 886.538 4378.71 880.386 4371.06C874.37 4363.26 866.099 4359.37 855.571 4359.37C844.907 4359.37 836.567 4363.26 830.552 4371.06C824.536 4378.71 820.229 4390.2 817.632 4405.51C815.171 4420.82 813.94 4439.9 813.94 4462.73ZM1165.03 4495.54L1091.21 4383.36H1162.16L1206.67 4456.37L1251.58 4383.36H1322.53L1247.89 4495.54L1326.02 4612.64H1254.86L1206.67 4534.09L1158.27 4612.64H1087.31L1165.03 4495.54ZM1610.67 4612.64H1547.3V4439.14C1547.3 4434.36 1547.37 4428.48 1547.5 4421.51C1547.64 4414.4 1547.85 4407.15 1548.12 4399.77C1548.39 4392.25 1548.67 4385.48 1548.94 4379.47C1547.44 4381.24 1544.36 4384.32 1539.71 4388.69C1535.2 4392.93 1530.96 4396.76 1527 4400.18L1492.54 4427.86L1461.99 4389.72L1558.58 4312.82H1610.67V4612.64ZM1892.24 4379.88C1892.24 4393.68 1889.37 4405.65 1883.63 4415.76C1877.89 4425.88 1870.09 4434.15 1860.25 4440.58C1850.54 4447 1839.6 4451.72 1827.44 4454.73V4455.96C1851.5 4458.97 1869.75 4466.35 1882.19 4478.11C1894.77 4489.87 1901.06 4505.59 1901.06 4525.28C1901.06 4542.78 1896.75 4558.43 1888.14 4572.24C1879.66 4586.05 1866.54 4596.92 1848.76 4604.85C1830.99 4612.78 1808.09 4616.74 1780.06 4616.74C1763.52 4616.74 1748.07 4615.37 1733.72 4612.64C1719.5 4610.04 1706.1 4606.01 1693.52 4600.54V4546.6C1706.37 4553.17 1719.84 4558.16 1733.92 4561.58C1748 4564.86 1761.13 4566.5 1773.3 4566.5C1795.99 4566.5 1811.85 4562.6 1820.87 4554.81C1830.03 4546.88 1834.61 4535.8 1834.61 4521.58C1834.61 4513.25 1832.5 4506.2 1828.26 4500.46C1824.02 4494.72 1816.64 4490.34 1806.11 4487.34C1795.72 4484.33 1781.16 4482.83 1762.43 4482.83H1739.66V4434.22H1762.84C1781.29 4434.22 1795.31 4432.51 1804.88 4429.09C1814.58 4425.54 1821.15 4420.75 1824.57 4414.74C1828.12 4408.59 1829.9 4401.61 1829.9 4393.82C1829.9 4383.16 1826.62 4374.82 1820.05 4368.8C1813.49 4362.79 1802.55 4359.78 1787.24 4359.78C1777.67 4359.78 1768.92 4361.01 1760.99 4363.47C1753.2 4365.79 1746.16 4368.67 1739.87 4372.08C1733.58 4375.36 1728.04 4378.58 1723.26 4381.72L1693.93 4338.04C1705.69 4329.56 1719.43 4322.52 1735.15 4316.92C1751.01 4311.31 1769.88 4308.51 1791.75 4308.51C1822.65 4308.51 1847.12 4314.73 1865.17 4327.17C1883.22 4339.61 1892.24 4357.18 1892.24 4379.88ZM2043.79 4421.1C2062.11 4421.1 2078.38 4424.58 2092.6 4431.56C2106.96 4438.53 2118.24 4448.78 2126.44 4462.32C2134.64 4475.85 2138.75 4492.53 2138.75 4512.36C2138.75 4533.96 2134.23 4552.62 2125.21 4568.34C2116.32 4583.93 2102.99 4595.89 2085.22 4604.23C2067.58 4612.57 2045.57 4616.74 2019.18 4616.74C2003.46 4616.74 1988.63 4615.37 1974.68 4612.64C1960.87 4610.04 1948.77 4606.01 1938.38 4600.54V4545.78C1948.77 4551.25 1961.22 4555.9 1975.71 4559.73C1990.34 4563.42 2004.08 4565.27 2016.93 4565.27C2029.51 4565.27 2040.1 4563.63 2048.72 4560.34C2057.33 4556.93 2063.82 4551.73 2068.2 4544.76C2072.71 4537.65 2074.97 4528.63 2074.97 4517.69C2074.97 4503.06 2070.04 4491.85 2060.2 4484.06C2050.36 4476.26 2035.25 4472.37 2014.88 4472.37C2007.08 4472.37 1998.95 4473.12 1990.47 4474.62C1982.13 4476.13 1975.16 4477.63 1969.56 4479.13L1944.33 4465.6L1955.61 4312.82H2118.24V4366.55H2011.19L2005.65 4425.4C2010.3 4424.45 2015.36 4423.49 2020.83 4422.53C2026.29 4421.58 2033.95 4421.1 2043.79 4421.1ZM2382.99 4462.73C2382.99 4486.93 2381.08 4508.53 2377.25 4527.53C2373.56 4546.54 2367.54 4562.67 2359.2 4575.93C2351 4589.19 2340.2 4599.31 2326.8 4606.28C2313.4 4613.25 2297.13 4616.74 2277.99 4616.74C2253.93 4616.74 2234.17 4610.66 2218.73 4598.49C2203.28 4586.18 2191.86 4568.55 2184.48 4545.58C2177.09 4522.47 2173.4 4494.86 2173.4 4462.73C2173.4 4430.33 2176.75 4402.64 2183.45 4379.67C2190.29 4356.57 2201.36 4338.86 2216.67 4326.56C2231.99 4314.25 2252.43 4308.1 2277.99 4308.1C2301.92 4308.1 2321.61 4314.25 2337.06 4326.56C2352.64 4338.72 2364.19 4356.36 2371.71 4379.47C2379.23 4402.43 2382.99 4430.19 2382.99 4462.73ZM2236.36 4462.73C2236.36 4485.56 2237.59 4504.63 2240.05 4519.94C2242.65 4535.12 2246.96 4546.54 2252.97 4554.19C2258.99 4561.85 2267.33 4565.68 2277.99 4565.68C2288.52 4565.68 2296.79 4561.92 2302.81 4554.4C2308.96 4546.74 2313.33 4535.33 2315.93 4520.15C2318.53 4504.84 2319.83 4485.7 2319.83 4462.73C2319.83 4439.9 2318.53 4420.82 2315.93 4405.51C2313.33 4390.2 2308.96 4378.71 2302.81 4371.06C2296.79 4363.26 2288.52 4359.37 2277.99 4359.37C2267.33 4359.37 2258.99 4363.26 2252.97 4371.06C2246.96 4378.71 2242.65 4390.2 2240.05 4405.51C2237.59 4420.82 2236.36 4439.9 2236.36 4462.73Z" fill="#575757" fill-opacity="0.6"/>
<path d="M1206.44 4228.21L1245.41 4160.71H1167.47L1206.44 4228.21ZM1206.44 3908.71L1167.47 3976.21H1245.41L1206.44 3908.71ZM1213.19 4167.46V3969.46H1199.69V4167.46H1213.19Z" fill="white"/>
<path d="M1277.02 4107.46L1303.82 4048.77H1268.62V4036.08H1319.84V4045.55L1292.84 4107.46H1277.02ZM1334.24 4107.46L1361.05 4048.77H1325.84V4036.08H1377.06V4045.55L1350.06 4107.46H1334.24ZM1418.57 4051.85C1424.72 4051.85 1429.68 4054.24 1433.46 4059.03C1437.27 4063.81 1439.17 4070.83 1439.17 4080.07C1439.17 4086.26 1438.28 4091.47 1436.49 4095.7C1434.7 4099.9 1432.22 4103.07 1429.07 4105.22C1425.91 4107.37 1422.28 4108.44 1418.18 4108.44C1415.54 4108.44 1413.28 4108.12 1411.39 4107.46C1409.5 4106.78 1407.89 4105.92 1406.56 4104.88C1405.22 4103.8 1404.07 4102.66 1403.09 4101.46H1402.31C1402.57 4102.76 1402.76 4104.1 1402.89 4105.46C1403.02 4106.83 1403.09 4108.16 1403.09 4109.47V4131.49H1388.2V4052.87H1400.31L1402.41 4059.95H1403.09C1404.07 4058.49 1405.25 4057.14 1406.65 4055.9C1408.05 4054.66 1409.73 4053.69 1411.68 4052.97C1413.67 4052.22 1415.96 4051.85 1418.57 4051.85ZM1413.78 4063.76C1411.18 4063.76 1409.11 4064.3 1407.58 4065.37C1406.05 4066.45 1404.93 4068.06 1404.21 4070.21C1403.53 4072.36 1403.15 4075.08 1403.09 4078.36V4079.97C1403.09 4083.49 1403.41 4086.47 1404.07 4088.91C1404.75 4091.35 1405.87 4093.21 1407.44 4094.48C1409.03 4095.75 1411.21 4096.38 1413.98 4096.38C1416.26 4096.38 1418.13 4095.75 1419.59 4094.48C1421.06 4093.21 1422.15 4091.35 1422.86 4088.91C1423.61 4086.44 1423.99 4083.42 1423.99 4079.88C1423.99 4074.54 1423.16 4070.52 1421.5 4067.82C1419.84 4065.11 1417.27 4063.76 1413.78 4063.76ZM1462.66 4079.58L1445.08 4052.87H1461.98L1472.57 4070.26L1483.27 4052.87H1500.16L1482.39 4079.58L1500.99 4107.46H1484.05L1472.57 4088.76L1461.05 4107.46H1444.15L1462.66 4079.58Z" fill="white"/>
</svg>
