<svg width="2982" height="4673" viewBox="0 0 2982 4673" fill="none" xmlns="http://www.w3.org/2000/svg">
<rect x="0.0238037" y="0.863281" width="2980.98" height="4671.6" fill="white"/>
<rect x="201.089" y="194.292" width="967.474" height="813.813" fill="#575757"/>
<rect x="1245.62" y="283.646" width="916.873" height="97.4746" fill="#575757"/>
<rect x="201.089" y="1132.4" width="2578.63" height="97.4746" fill="#575757"/>
<rect x="201.089" y="1292.4" width="2578.63" height="97.4746" fill="#575757"/>
<rect x="201.089" y="1462.4" width="2578.63" height="97.4746" fill="#575757"/>
<rect x="1245.62" y="463.646" width="566.573" height="97.4746" fill="#575757"/>
<path d="M894.074 702.998C823.946 813.394 726.129 893.088 598.292 942.997C580.922 949.778 568.954 948.486 554.28 937.433C411.617 829.983 326.234 693.701 298.363 528.112C294.101 502.787 308.409 488.289 353.587 471.528C363.343 603.609 414.273 720.663 509.744 821.457C514.138 826.096 518.477 830.811 523.264 835.108C596.948 901.267 571.334 901.654 663.105 848.545C788.259 776.118 865.614 671.241 896.063 539.222C897.404 533.407 900.052 527.837 902.117 522.082C959.77 542.908 962.361 545.388 943.361 595.187C929.592 631.276 911.294 665.962 894.074 702.998Z" fill="#8ACF31"/>
<path d="M573.573 443.984C550.68 449.17 530.18 453.765 508.56 458.61C507.521 454.147 506.078 450.926 506.129 447.724C507.009 393.137 498.711 402.683 554.002 392.285C734.142 358.407 899.016 391.225 1048.43 488.55C1066.85 500.548 1072.19 513.141 1068.76 532.437C1039.29 697.808 953.37 833.9 808.845 939.231C800.796 945.097 784.681 945.367 773.391 943.357C759.62 940.905 746.982 933.28 730.602 926.559C739.025 920.268 745.17 915.318 751.716 910.844C885.141 819.636 968.627 700.194 1003 552.399C1007.01 535.126 1003 525.667 986.557 516.078C860.286 442.425 723.219 419.932 573.573 443.984Z" fill="#8ACF31"/>
<path d="M627.625 341.019C579.534 349.105 534.115 357.074 488.644 364.798C470.836 367.823 464.379 376.886 462.807 393.376C448.069 547.969 502.681 679.546 622.59 789.856C629.282 796.013 636.97 801.291 643.086 806.106C641.784 810.232 641.849 812.504 640.762 813.117C581.744 846.374 597.417 848.122 553.799 803.584C428.108 675.243 379.655 525.357 406.513 355.475C409.45 336.896 418.229 328.652 436.711 322.803C592.453 273.513 748.868 270.323 906.237 315.693C963.298 332.145 966.242 336.356 963.181 393.898C856.67 351.6 746.369 330.855 627.625 341.019Z" fill="#8ACF31"/>
<rect x="10.9952" y="1773.1" width="2958.24" height="2451.94" fill="#575757"/>
<rect x="416.016" y="2089.43" width="2147.24" height="1816.11" fill="#D9D9D9" fill-opacity="0.4"/>
<path d="M2563.25 2970.4L2630.75 3009.37V2931.43L2563.25 2970.4ZM2972.75 2970.4L2905.25 2931.43V3009.37L2972.75 2970.4ZM2624 2977.15H2912V2963.65H2624V2977.15Z" fill="white"/>
<path d="M6.51624 2969.8L74.0162 3008.77V2930.83L6.51624 2969.8ZM416.016 2969.8L348.516 2930.83V3008.77L416.016 2969.8ZM67.2662 2976.55H355.266V2963.05H67.2662V2976.55Z" fill="white"/>
<path d="M1489.64 2089.43L1528.61 2021.93H1450.66L1489.64 2089.43ZM1489.64 1769.93L1450.66 1837.43H1528.61L1489.64 1769.93ZM1496.39 2028.68V1830.68H1482.89V2028.68H1496.39Z" fill="white"/>
<path d="M1061.99 3020.18V2913.1H1084.7V3001.43H1128.13V3020.18H1061.99ZM1178.59 2936.61C1189.58 2936.61 1198 2939 1203.86 2943.79C1209.72 2948.58 1212.65 2955.85 1212.65 2965.62V3020.18H1197.05L1192.73 3009.05H1192.14C1189.8 3011.98 1187.41 3014.37 1184.96 3016.23C1182.52 3018.08 1179.71 3019.45 1176.54 3020.33C1173.37 3021.21 1169.51 3021.65 1164.97 3021.65C1160.13 3021.65 1155.79 3020.72 1151.93 3018.86C1148.12 3017.01 1145.12 3014.18 1142.92 3010.37C1140.73 3006.51 1139.63 3001.63 1139.63 2995.72C1139.63 2987.03 1142.68 2980.63 1148.78 2976.53C1154.89 2972.38 1164.04 2970.08 1176.25 2969.64L1190.46 2969.21V2965.62C1190.46 2961.32 1189.33 2958.17 1187.09 2956.17C1184.84 2954.17 1181.72 2953.17 1177.71 2953.17C1173.76 2953.17 1169.88 2953.73 1166.07 2954.85C1162.26 2955.97 1158.45 2957.39 1154.64 2959.1L1147.24 2944.01C1151.59 2941.71 1156.45 2939.91 1161.82 2938.59C1167.24 2937.27 1172.83 2936.61 1178.59 2936.61ZM1190.46 2982.24L1181.81 2982.54C1174.59 2982.73 1169.56 2984.02 1166.73 2986.42C1163.94 2988.81 1162.55 2991.96 1162.55 2995.87C1162.55 2999.28 1163.55 3001.72 1165.55 3003.19C1167.56 3004.61 1170.17 3005.31 1173.39 3005.31C1178.18 3005.31 1182.21 3003.9 1185.48 3001.07C1188.8 2998.23 1190.46 2994.21 1190.46 2988.98V2982.24ZM1224 2938.3H1248.46L1263.92 2984.37C1264.41 2985.83 1264.82 2987.32 1265.16 2988.83C1265.51 2990.35 1265.8 2991.91 1266.04 2993.52C1266.29 2995.13 1266.48 2996.82 1266.63 2998.58H1267.07C1267.36 2995.94 1267.75 2993.47 1268.24 2991.18C1268.78 2988.88 1269.44 2986.61 1270.22 2984.37L1285.38 2938.3H1309.33L1274.69 3030.66C1272.59 3036.32 1269.85 3041.03 1266.48 3044.79C1263.11 3048.6 1259.23 3051.46 1254.84 3053.36C1250.49 3055.26 1245.71 3056.22 1240.48 3056.22C1237.94 3056.22 1235.75 3056.07 1233.89 3055.78C1232.03 3055.53 1230.45 3055.26 1229.13 3054.97V3037.25C1230.15 3037.49 1231.45 3037.71 1233.01 3037.91C1234.57 3038.1 1236.21 3038.2 1237.92 3038.2C1241.04 3038.2 1243.73 3037.54 1245.97 3036.22C1248.22 3034.9 1250.1 3033.12 1251.61 3030.88C1253.13 3028.68 1254.32 3026.26 1255.2 3023.62L1256.52 3019.6L1224 2938.3ZM1395.54 2979.09C1395.54 2985.93 1394.61 2991.98 1392.75 2997.26C1390.95 3002.53 1388.28 3007 1384.77 3010.66C1381.3 3014.27 1377.1 3017.01 1372.17 3018.86C1367.29 3020.72 1361.77 3021.65 1355.62 3021.65C1349.86 3021.65 1344.56 3020.72 1339.72 3018.86C1334.94 3017.01 1330.76 3014.27 1327.2 3010.66C1323.68 3007 1320.95 3002.53 1319 2997.26C1317.09 2991.98 1316.14 2985.93 1316.14 2979.09C1316.14 2970.01 1317.75 2962.32 1320.97 2956.02C1324.2 2949.72 1328.79 2944.94 1334.74 2941.67C1340.7 2938.39 1347.81 2936.76 1356.06 2936.76C1363.72 2936.76 1370.51 2938.39 1376.42 2941.67C1382.38 2944.94 1387.04 2949.72 1390.41 2956.02C1393.83 2962.32 1395.54 2970.01 1395.54 2979.09ZM1338.92 2979.09C1338.92 2984.46 1339.5 2988.98 1340.68 2992.64C1341.85 2996.3 1343.68 2999.06 1346.17 3000.92C1348.66 3002.77 1351.91 3003.7 1355.91 3003.7C1359.87 3003.7 1363.06 3002.77 1365.51 3000.92C1368 2999.06 1369.8 2996.3 1370.93 2992.64C1372.1 2988.98 1372.68 2984.46 1372.68 2979.09C1372.68 2973.67 1372.1 2969.18 1370.93 2965.62C1369.8 2962 1368 2959.29 1365.51 2957.49C1363.02 2955.68 1359.77 2954.78 1355.76 2954.78C1349.86 2954.78 1345.56 2956.8 1342.87 2960.86C1340.24 2964.91 1338.92 2970.99 1338.92 2979.09ZM1489.14 2938.3V3020.18H1472L1469 3009.71H1467.83C1466.07 3012.49 1463.87 3014.76 1461.23 3016.52C1458.6 3018.28 1455.69 3019.57 1452.52 3020.4C1449.34 3021.23 1446.05 3021.65 1442.63 3021.65C1436.77 3021.65 1431.67 3020.62 1427.32 3018.57C1422.98 3016.47 1419.58 3013.22 1417.14 3008.83C1414.75 3004.43 1413.55 2998.72 1413.55 2991.69V2938.3H1435.89V2986.12C1435.89 2991.98 1436.94 2996.4 1439.04 2999.38C1441.14 3002.36 1444.49 3003.85 1449.08 3003.85C1453.62 3003.85 1457.18 3002.82 1459.77 3000.77C1462.36 2998.67 1464.16 2995.62 1465.19 2991.62C1466.26 2987.56 1466.8 2982.63 1466.8 2976.82V2938.3H1489.14ZM1547.07 3003.85C1549.51 3003.85 1551.88 3003.6 1554.18 3003.12C1556.52 3002.63 1558.84 3002.02 1561.14 3001.29V3017.91C1558.74 3018.99 1555.76 3019.86 1552.2 3020.55C1548.68 3021.28 1544.83 3021.65 1540.63 3021.65C1535.75 3021.65 1531.35 3020.87 1527.44 3019.3C1523.59 3017.69 1520.54 3014.93 1518.29 3011.03C1516.09 3007.07 1514.99 3001.58 1514.99 2994.55V2955.07H1504.3V2945.62L1516.6 2938.15L1523.05 2920.87H1537.33V2938.3H1560.26V2955.07H1537.33V2994.55C1537.33 2997.67 1538.21 3000.02 1539.97 3001.58C1541.78 3003.09 1544.14 3003.85 1547.07 3003.85ZM1659.79 3020.18H1637.09V2932H1608.01V2913.1H1688.87V2932H1659.79V3020.18ZM1737.36 2936.76C1744.92 2936.76 1751.44 2938.22 1756.91 2941.15C1762.38 2944.03 1766.6 2948.23 1769.58 2953.75C1772.56 2959.27 1774.05 2966.01 1774.05 2973.97V2984.81H1721.24C1721.49 2991.1 1723.37 2996.06 1726.88 2999.67C1730.45 3003.24 1735.38 3005.02 1741.68 3005.02C1746.9 3005.02 1751.69 3004.48 1756.03 3003.41C1760.38 3002.33 1764.85 3000.72 1769.44 2998.58V3015.86C1765.38 3017.86 1761.14 3019.33 1756.69 3020.25C1752.3 3021.18 1746.95 3021.65 1740.65 3021.65C1732.45 3021.65 1725.17 3020.13 1718.83 3017.11C1712.53 3014.08 1707.57 3009.46 1703.96 3003.26C1700.39 2997.06 1698.61 2989.25 1698.61 2979.83C1698.61 2970.25 1700.22 2962.3 1703.45 2955.95C1706.72 2949.55 1711.26 2944.77 1717.07 2941.59C1722.88 2938.37 1729.64 2936.76 1737.36 2936.76ZM1737.5 2952.65C1733.16 2952.65 1729.54 2954.04 1726.66 2956.83C1723.83 2959.61 1722.2 2963.98 1721.76 2969.94H1753.1C1753.05 2966.62 1752.44 2963.66 1751.27 2961.08C1750.15 2958.49 1748.44 2956.44 1746.15 2954.92C1743.9 2953.41 1741.02 2952.65 1737.5 2952.65ZM1808.99 2978.36L1782.62 2938.3H1807.96L1823.86 2964.37L1839.9 2938.3H1865.24L1838.58 2978.36L1866.48 3020.18H1841.07L1823.86 2992.13L1806.57 3020.18H1781.23L1808.99 2978.36ZM1913.43 3003.85C1915.87 3003.85 1918.24 3003.6 1920.54 3003.12C1922.88 3002.63 1925.2 3002.02 1927.49 3001.29V3017.91C1925.1 3018.99 1922.12 3019.86 1918.56 3020.55C1915.04 3021.28 1911.18 3021.65 1906.99 3021.65C1902.1 3021.65 1897.71 3020.87 1893.8 3019.3C1889.94 3017.69 1886.89 3014.93 1884.65 3011.03C1882.45 3007.07 1881.35 3001.58 1881.35 2994.55V2955.07H1870.66V2945.62L1882.96 2938.15L1889.41 2920.87H1903.69V2938.3H1926.61V2955.07H1903.69V2994.55C1903.69 2997.67 1904.57 3000.02 1906.33 3001.58C1908.13 3003.09 1910.5 3003.85 1913.43 3003.85Z" fill="#575757"/>
<path d="M1559.76 1968.68L1586.56 1909.99H1551.36V1897.29H1602.58V1906.77L1575.58 1968.68H1559.76ZM1616.98 1968.68L1643.79 1909.99H1608.58V1897.29H1659.8V1906.77L1632.8 1968.68H1616.98ZM1701.31 1913.07C1707.46 1913.07 1712.42 1915.46 1716.2 1920.24C1720.01 1925.03 1721.91 1932.04 1721.91 1941.29C1721.91 1947.47 1721.02 1952.68 1719.23 1956.91C1717.44 1961.11 1714.96 1964.29 1711.81 1966.44C1708.65 1968.58 1705.02 1969.66 1700.92 1969.66C1698.28 1969.66 1696.02 1969.33 1694.13 1968.68C1692.24 1968 1690.63 1967.14 1689.3 1966.09C1687.96 1965.02 1686.81 1963.88 1685.83 1962.68H1685.05C1685.31 1963.98 1685.5 1965.31 1685.63 1966.68C1685.76 1968.05 1685.83 1969.38 1685.83 1970.68V1992.71H1670.94V1914.09H1683.05L1685.15 1921.17H1685.83C1686.81 1919.71 1687.99 1918.36 1689.39 1917.12C1690.79 1915.88 1692.47 1914.91 1694.42 1914.19C1696.41 1913.44 1698.7 1913.07 1701.31 1913.07ZM1696.52 1924.98C1693.92 1924.98 1691.85 1925.52 1690.32 1926.59C1688.79 1927.67 1687.67 1929.28 1686.95 1931.43C1686.27 1933.57 1685.89 1936.29 1685.83 1939.58V1941.19C1685.83 1944.71 1686.15 1947.69 1686.81 1950.13C1687.49 1952.57 1688.61 1954.42 1690.18 1955.69C1691.77 1956.96 1693.95 1957.6 1696.72 1957.6C1699 1957.6 1700.87 1956.96 1702.33 1955.69C1703.8 1954.42 1704.89 1952.57 1705.6 1950.13C1706.35 1947.65 1706.73 1944.64 1706.73 1941.09C1706.73 1935.76 1705.9 1931.74 1704.24 1929.03C1702.58 1926.33 1700.01 1924.98 1696.52 1924.98ZM1745.4 1940.8L1727.82 1914.09H1744.72L1755.31 1931.47L1766.01 1914.09H1782.9L1765.13 1940.8L1783.73 1968.68H1766.79L1755.31 1949.98L1743.79 1968.68H1726.89L1745.4 1940.8Z" fill="white"/>
<path d="M123.247 3103.72C127.609 3103.72 131.482 3104.55 134.868 3106.21C138.286 3107.87 140.971 3110.31 142.924 3113.54C144.878 3116.76 145.854 3120.73 145.854 3125.45C145.854 3130.59 144.78 3135.04 142.631 3138.78C140.516 3142.49 137.342 3145.34 133.11 3147.33C128.911 3149.31 123.67 3150.3 117.387 3150.3C113.644 3150.3 110.112 3149.98 106.792 3149.33C103.504 3148.71 100.623 3147.75 98.149 3146.45V3133.41C100.623 3134.71 103.585 3135.82 107.036 3136.73C110.519 3137.61 113.79 3138.05 116.85 3138.05C119.845 3138.05 122.368 3137.66 124.419 3136.88C126.469 3136.06 128.016 3134.83 129.057 3133.17C130.131 3131.47 130.669 3129.32 130.669 3126.72C130.669 3123.24 129.497 3120.57 127.153 3118.71C124.809 3116.86 121.212 3115.93 116.362 3115.93C114.506 3115.93 112.57 3116.11 110.551 3116.47C108.566 3116.82 106.906 3117.18 105.571 3117.54L99.5651 3114.32L102.251 3077.94H140.971V3090.73H115.483L114.165 3104.75C115.271 3104.52 116.476 3104.29 117.778 3104.06C119.08 3103.84 120.903 3103.72 123.247 3103.72ZM180.473 3103.72C184.835 3103.72 188.709 3104.55 192.094 3106.21C195.512 3107.87 198.198 3110.31 200.151 3113.54C202.104 3116.76 203.081 3120.73 203.081 3125.45C203.081 3130.59 202.006 3135.04 199.858 3138.78C197.742 3142.49 194.568 3145.34 190.337 3147.33C186.137 3149.31 180.896 3150.3 174.614 3150.3C170.87 3150.3 167.339 3149.98 164.018 3149.33C160.73 3148.71 157.85 3147.75 155.376 3146.45V3133.41C157.85 3134.71 160.812 3135.82 164.262 3136.73C167.745 3137.61 171.017 3138.05 174.077 3138.05C177.072 3138.05 179.594 3137.66 181.645 3136.88C183.696 3136.06 185.242 3134.83 186.284 3133.17C187.358 3131.47 187.895 3129.32 187.895 3126.72C187.895 3123.24 186.723 3120.57 184.38 3118.71C182.036 3116.86 178.439 3115.93 173.589 3115.93C171.733 3115.93 169.796 3116.11 167.778 3116.47C165.792 3116.82 164.132 3117.18 162.797 3117.54L156.792 3114.32L159.477 3077.94H198.198V3090.73H172.71L171.391 3104.75C172.498 3104.52 173.702 3104.29 175.005 3104.06C176.307 3103.84 178.13 3103.72 180.473 3103.72ZM245.903 3093.71C252.055 3093.71 257.019 3096.11 260.796 3100.89C264.604 3105.68 266.508 3112.69 266.508 3121.94C266.508 3128.12 265.613 3133.33 263.823 3137.56C262.033 3141.76 259.559 3144.93 256.401 3147.08C253.243 3149.23 249.614 3150.3 245.512 3150.3C242.876 3150.3 240.613 3149.98 238.725 3149.33C236.837 3148.64 235.226 3147.78 233.891 3146.74C232.557 3145.67 231.401 3144.53 230.424 3143.32H229.643C229.904 3144.62 230.099 3145.96 230.229 3147.33C230.359 3148.69 230.424 3150.03 230.424 3151.33V3173.35H215.532V3094.74H227.641L229.741 3101.82H230.424C231.401 3100.35 232.589 3099 233.989 3097.77C235.389 3096.53 237.065 3095.55 239.018 3094.84C241.004 3094.09 243.299 3093.71 245.903 3093.71ZM241.118 3105.63C238.514 3105.63 236.447 3106.16 234.917 3107.24C233.387 3108.31 232.264 3109.92 231.547 3112.07C230.864 3114.22 230.49 3116.94 230.424 3120.23V3121.84C230.424 3125.35 230.75 3128.33 231.401 3130.77C232.085 3133.21 233.208 3135.07 234.77 3136.34C236.365 3137.61 238.546 3138.24 241.313 3138.24C243.592 3138.24 245.464 3137.61 246.928 3136.34C248.393 3135.07 249.484 3133.21 250.2 3130.77C250.949 3128.3 251.323 3125.29 251.323 3121.74C251.323 3116.4 250.493 3112.38 248.833 3109.68C247.172 3106.98 244.601 3105.63 241.118 3105.63ZM289.995 3121.45L272.417 3094.74H289.311L299.907 3112.12L310.6 3094.74H327.495L309.721 3121.45L328.325 3149.33H311.381L299.907 3130.63L288.383 3149.33H271.489L289.995 3121.45Z" fill="white"/>
<path d="M2679.98 3065.02C2684.35 3065.02 2688.22 3065.85 2691.61 3067.51C2695.02 3069.17 2697.71 3071.61 2699.66 3074.83C2701.62 3078.05 2702.59 3082.02 2702.59 3086.74C2702.59 3091.89 2701.52 3096.33 2699.37 3100.07C2697.25 3103.79 2694.08 3106.63 2689.85 3108.62C2685.65 3110.6 2680.41 3111.6 2674.12 3111.6C2670.38 3111.6 2666.85 3111.27 2663.53 3110.62C2660.24 3110 2657.36 3109.04 2654.89 3107.74V3094.7C2657.36 3096.01 2660.32 3097.11 2663.77 3098.02C2667.26 3098.9 2670.53 3099.34 2673.59 3099.34C2676.58 3099.34 2679.11 3098.95 2681.16 3098.17C2683.21 3097.36 2684.75 3096.12 2685.79 3094.46C2686.87 3092.77 2687.41 3090.62 2687.41 3088.01C2687.41 3084.53 2686.23 3081.86 2683.89 3080.01C2681.55 3078.15 2677.95 3077.22 2673.1 3077.22C2671.24 3077.22 2669.31 3077.4 2667.29 3077.76C2665.3 3078.12 2663.64 3078.48 2662.31 3078.83L2656.3 3075.61L2658.99 3039.23H2697.71V3052.03H2672.22L2670.9 3066.04C2672.01 3065.81 2673.21 3065.59 2674.52 3065.36C2675.82 3065.13 2677.64 3065.02 2679.98 3065.02ZM2737.21 3065.02C2741.57 3065.02 2745.45 3065.85 2748.83 3067.51C2752.25 3069.17 2754.94 3071.61 2756.89 3074.83C2758.84 3078.05 2759.82 3082.02 2759.82 3086.74C2759.82 3091.89 2758.74 3096.33 2756.6 3100.07C2754.48 3103.79 2751.31 3106.63 2747.07 3108.62C2742.88 3110.6 2737.63 3111.6 2731.35 3111.6C2727.61 3111.6 2724.08 3111.27 2720.76 3110.62C2717.47 3110 2714.59 3109.04 2712.11 3107.74V3094.7C2714.59 3096.01 2717.55 3097.11 2721 3098.02C2724.48 3098.9 2727.75 3099.34 2730.81 3099.34C2733.81 3099.34 2736.33 3098.95 2738.38 3098.17C2740.43 3097.36 2741.98 3096.12 2743.02 3094.46C2744.1 3092.77 2744.63 3090.62 2744.63 3088.01C2744.63 3084.53 2743.46 3081.86 2741.12 3080.01C2738.77 3078.15 2735.18 3077.22 2730.33 3077.22C2728.47 3077.22 2726.53 3077.4 2724.52 3077.76C2722.53 3078.12 2720.87 3078.48 2719.54 3078.83L2713.53 3075.61L2716.21 3039.23H2754.94V3052.03H2729.45L2728.13 3066.04C2729.24 3065.81 2730.44 3065.59 2731.74 3065.36C2733.04 3065.13 2734.87 3065.02 2737.21 3065.02ZM2802.64 3055.01C2808.79 3055.01 2813.76 3057.4 2817.53 3062.18C2821.34 3066.97 2823.25 3073.98 2823.25 3083.23C2823.25 3089.41 2822.35 3094.62 2820.56 3098.85C2818.77 3103.05 2816.3 3106.23 2813.14 3108.38C2809.98 3110.52 2806.35 3111.6 2802.25 3111.6C2799.61 3111.6 2797.35 3111.27 2795.46 3110.62C2793.57 3109.94 2791.96 3109.07 2790.63 3108.03C2789.29 3106.96 2788.14 3105.82 2787.16 3104.62H2786.38C2786.64 3105.92 2786.84 3107.25 2786.97 3108.62C2787.1 3109.99 2787.16 3111.32 2787.16 3112.62V3134.64H2772.27V3056.03H2784.38L2786.48 3063.11H2787.16C2788.14 3061.65 2789.33 3060.3 2790.73 3059.06C2792.13 3057.82 2793.8 3056.85 2795.76 3056.13C2797.74 3055.38 2800.04 3055.01 2802.64 3055.01ZM2797.86 3066.92C2795.25 3066.92 2793.18 3067.46 2791.65 3068.53C2790.12 3069.61 2789 3071.22 2788.29 3073.37C2787.6 3075.51 2787.23 3078.23 2787.16 3081.52V3083.13C2787.16 3086.65 2787.49 3089.62 2788.14 3092.07C2788.82 3094.51 2789.95 3096.36 2791.51 3097.63C2793.1 3098.9 2795.28 3099.54 2798.05 3099.54C2800.33 3099.54 2802.2 3098.9 2803.67 3097.63C2805.13 3096.36 2806.22 3094.51 2806.94 3092.07C2807.69 3089.59 2808.06 3086.58 2808.06 3083.03C2808.06 3077.69 2807.23 3073.67 2805.57 3070.97C2803.91 3068.27 2801.34 3066.92 2797.86 3066.92ZM2846.73 3082.74L2829.15 3056.03H2846.05L2856.64 3073.41L2867.34 3056.03H2884.23L2866.46 3082.74L2885.06 3110.62H2868.12L2856.64 3091.92L2845.12 3110.62H2828.23L2846.73 3082.74Z" fill="white"/>
<path d="M421.846 4618.17H355.46V4436.41C355.46 4431.4 355.531 4425.24 355.674 4417.93C355.818 4410.49 356.033 4402.9 356.319 4395.16C356.605 4387.28 356.892 4380.19 357.178 4373.89C355.603 4375.75 352.38 4378.98 347.51 4383.56C342.784 4388 338.344 4392.01 334.19 4395.59L298.096 4424.59L266.085 4384.63L367.276 4304.07H421.846V4618.17ZM729.073 4618.17H509.503V4571.98L588.35 4492.27C604.249 4475.94 616.996 4462.34 626.592 4451.45C636.332 4440.42 643.35 4430.4 647.647 4421.37C652.087 4412.35 654.307 4402.68 654.307 4392.37C654.307 4379.91 650.798 4370.6 643.78 4364.44C636.905 4358.14 627.667 4354.99 616.065 4354.99C603.891 4354.99 592.074 4357.78 580.616 4363.36C569.158 4368.95 557.198 4376.9 544.737 4387.21L508.643 4344.46C517.667 4336.72 527.191 4329.42 537.217 4322.54C547.387 4315.67 559.131 4310.15 572.452 4306C585.915 4301.7 602.029 4299.56 620.792 4299.56C641.417 4299.56 659.105 4303.28 673.858 4310.73C688.754 4318.18 700.212 4328.34 708.233 4341.24C716.254 4353.98 720.264 4368.45 720.264 4384.63C720.264 4401.96 716.827 4417.79 709.952 4432.11C703.077 4446.44 693.051 4460.62 679.874 4474.65C666.84 4488.69 651.085 4504.23 632.608 4521.27L592.217 4559.3V4562.31H729.073V4618.17ZM979.151 4461.12C979.151 4486.47 977.146 4509.1 973.135 4529.01C969.268 4548.92 962.966 4565.82 954.229 4579.71C945.635 4593.61 934.32 4604.2 920.284 4611.51C906.247 4618.81 889.203 4622.47 869.151 4622.47C843.943 4622.47 823.246 4616.09 807.061 4603.34C790.876 4590.45 778.917 4571.98 771.182 4547.92C763.448 4523.71 759.581 4494.78 759.581 4461.12C759.581 4427.17 763.09 4398.17 770.108 4374.11C777.269 4349.9 788.871 4331.35 804.913 4318.46C820.954 4305.57 842.367 4299.13 869.151 4299.13C894.216 4299.13 914.841 4305.57 931.026 4318.46C947.354 4331.21 959.457 4349.69 967.335 4373.89C975.212 4397.95 979.151 4427.03 979.151 4461.12ZM825.538 4461.12C825.538 4485.04 826.827 4505.02 829.405 4521.06C832.126 4536.96 836.638 4548.92 842.94 4556.94C849.242 4564.96 857.979 4568.97 869.151 4568.97C880.18 4568.97 888.845 4565.03 895.147 4557.15C901.592 4549.13 906.176 4537.17 908.897 4521.27C911.618 4505.23 912.979 4485.18 912.979 4461.12C912.979 4437.2 911.618 4417.22 908.897 4401.18C906.176 4385.14 901.592 4373.1 895.147 4365.08C888.845 4356.92 880.18 4352.84 869.151 4352.84C857.979 4352.84 849.242 4356.92 842.94 4365.08C836.638 4373.1 832.126 4385.14 829.405 4401.18C826.827 4417.22 825.538 4437.2 825.538 4461.12ZM1230.95 4461.12C1230.95 4486.47 1228.94 4509.1 1224.93 4529.01C1221.07 4548.92 1214.76 4565.82 1206.03 4579.71C1197.43 4593.61 1186.12 4604.2 1172.08 4611.51C1158.04 4618.81 1141 4622.47 1120.95 4622.47C1095.74 4622.47 1075.04 4616.09 1058.86 4603.34C1042.67 4590.45 1030.71 4571.98 1022.98 4547.92C1015.24 4523.71 1011.38 4494.78 1011.38 4461.12C1011.38 4427.17 1014.89 4398.17 1021.9 4374.11C1029.07 4349.9 1040.67 4331.35 1056.71 4318.46C1072.75 4305.57 1094.16 4299.13 1120.95 4299.13C1146.01 4299.13 1166.64 4305.57 1182.82 4318.46C1199.15 4331.21 1211.25 4349.69 1219.13 4373.89C1227.01 4397.95 1230.95 4427.03 1230.95 4461.12ZM1077.33 4461.12C1077.33 4485.04 1078.62 4505.02 1081.2 4521.06C1083.92 4536.96 1088.43 4548.92 1094.74 4556.94C1101.04 4564.96 1109.78 4568.97 1120.95 4568.97C1131.98 4568.97 1140.64 4565.03 1146.94 4557.15C1153.39 4549.13 1157.97 4537.17 1160.69 4521.27C1163.42 4505.23 1164.78 4485.18 1164.78 4461.12C1164.78 4437.2 1163.42 4417.22 1160.69 4401.18C1157.97 4385.14 1153.39 4373.1 1146.94 4365.08C1140.64 4356.92 1131.98 4352.84 1120.95 4352.84C1109.78 4352.84 1101.04 4356.92 1094.74 4365.08C1088.43 4373.1 1083.92 4385.14 1081.2 4401.18C1078.62 4417.22 1077.33 4437.2 1077.33 4461.12ZM1445.15 4495.49L1367.8 4377.97H1442.14L1488.76 4454.46L1535.81 4377.97H1610.15L1531.94 4495.49L1613.8 4618.17H1539.25L1488.76 4535.88L1438.06 4618.17H1363.72L1445.15 4495.49ZM1912 4618.17H1845.62V4436.41C1845.62 4431.4 1845.69 4425.24 1845.83 4417.93C1845.97 4410.49 1846.19 4402.9 1846.48 4395.16C1846.76 4387.28 1847.05 4380.19 1847.33 4373.89C1845.76 4375.75 1842.54 4378.98 1837.67 4383.56C1832.94 4388 1828.5 4392.01 1824.35 4395.59L1788.25 4424.59L1756.24 4384.63L1857.43 4304.07H1912V4618.17ZM2219.23 4618.17H1999.66V4571.98L2078.51 4492.27C2094.4 4475.94 2107.15 4462.34 2116.75 4451.45C2126.49 4440.42 2133.51 4430.4 2137.8 4421.37C2142.24 4412.35 2144.46 4402.68 2144.46 4392.37C2144.46 4379.91 2140.95 4370.6 2133.94 4364.44C2127.06 4358.14 2117.82 4354.99 2106.22 4354.99C2094.05 4354.99 2082.23 4357.78 2070.77 4363.36C2059.31 4368.95 2047.35 4376.9 2034.89 4387.21L1998.8 4344.46C2007.82 4336.72 2017.35 4329.42 2027.37 4322.54C2037.54 4315.67 2049.29 4310.15 2062.61 4306C2076.07 4301.7 2092.18 4299.56 2110.95 4299.56C2131.57 4299.56 2149.26 4303.28 2164.01 4310.73C2178.91 4318.18 2190.37 4328.34 2198.39 4341.24C2206.41 4353.98 2210.42 4368.45 2210.42 4384.63C2210.42 4401.96 2206.98 4417.79 2200.11 4432.11C2193.23 4446.44 2183.21 4460.62 2170.03 4474.65C2157 4488.69 2141.24 4504.23 2122.76 4521.27L2082.37 4559.3V4562.31H2219.23V4618.17ZM2469.31 4461.12C2469.31 4486.47 2467.3 4509.1 2463.29 4529.01C2459.42 4548.92 2453.12 4565.82 2444.39 4579.71C2435.79 4593.61 2424.48 4604.2 2410.44 4611.51C2396.4 4618.81 2379.36 4622.47 2359.31 4622.47C2334.1 4622.47 2313.4 4616.09 2297.22 4603.34C2281.03 4590.45 2269.07 4571.98 2261.34 4547.92C2253.6 4523.71 2249.74 4494.78 2249.74 4461.12C2249.74 4427.17 2253.25 4398.17 2260.26 4374.11C2267.43 4349.9 2279.03 4331.35 2295.07 4318.46C2311.11 4305.57 2332.52 4299.13 2359.31 4299.13C2384.37 4299.13 2405 4305.57 2421.18 4318.46C2437.51 4331.21 2449.61 4349.69 2457.49 4373.89C2465.37 4397.95 2469.31 4427.03 2469.31 4461.12ZM2315.69 4461.12C2315.69 4485.04 2316.98 4505.02 2319.56 4521.06C2322.28 4536.96 2326.79 4548.92 2333.1 4556.94C2339.4 4564.96 2348.14 4568.97 2359.31 4568.97C2370.34 4568.97 2379 4565.03 2385.3 4557.15C2391.75 4549.13 2396.33 4537.17 2399.05 4521.27C2401.77 4505.23 2403.14 4485.18 2403.14 4461.12C2403.14 4437.2 2401.77 4417.22 2399.05 4401.18C2396.33 4385.14 2391.75 4373.1 2385.3 4365.08C2379 4356.92 2370.34 4352.84 2359.31 4352.84C2348.14 4352.84 2339.4 4356.92 2333.1 4365.08C2326.79 4373.1 2322.28 4385.14 2319.56 4401.18C2316.98 4417.22 2315.69 4437.2 2315.69 4461.12ZM2721.1 4461.12C2721.1 4486.47 2719.1 4509.1 2715.09 4529.01C2711.22 4548.92 2704.92 4565.82 2696.18 4579.71C2687.59 4593.61 2676.27 4604.2 2662.24 4611.51C2648.2 4618.81 2631.16 4622.47 2611.1 4622.47C2585.9 4622.47 2565.2 4616.09 2549.01 4603.34C2532.83 4590.45 2520.87 4571.98 2513.14 4547.92C2505.4 4523.71 2501.53 4494.78 2501.53 4461.12C2501.53 4427.17 2505.04 4398.17 2512.06 4374.11C2519.22 4349.9 2530.82 4331.35 2546.87 4318.46C2562.91 4305.57 2584.32 4299.13 2611.1 4299.13C2636.17 4299.13 2656.79 4305.57 2672.98 4318.46C2689.31 4331.21 2701.41 4349.69 2709.29 4373.89C2717.17 4397.95 2721.1 4427.03 2721.1 4461.12ZM2567.49 4461.12C2567.49 4485.04 2568.78 4505.02 2571.36 4521.06C2574.08 4536.96 2578.59 4548.92 2584.89 4556.94C2591.2 4564.96 2599.93 4568.97 2611.1 4568.97C2622.13 4568.97 2630.8 4565.03 2637.1 4557.15C2643.55 4549.13 2648.13 4537.17 2650.85 4521.27C2653.57 4505.23 2654.93 4485.18 2654.93 4461.12C2654.93 4437.2 2653.57 4417.22 2650.85 4401.18C2648.13 4385.14 2643.55 4373.1 2637.1 4365.08C2630.8 4356.92 2622.13 4352.84 2611.1 4352.84C2599.93 4352.84 2591.2 4356.92 2584.89 4365.08C2578.59 4373.1 2574.08 4385.14 2571.36 4401.18C2568.78 4417.22 2567.49 4437.2 2567.49 4461.12Z" fill="#575757" fill-opacity="0.6"/>
<path d="M1489.64 4225.04L1528.61 4157.54H1450.66L1489.64 4225.04ZM1489.64 3905.54L1450.66 3973.04H1528.61L1489.64 3905.54ZM1496.39 4164.29V3966.29H1482.89V4164.29H1496.39Z" fill="white"/>
<path d="M1560.21 4104.29L1587.01 4045.6H1551.81V4032.91H1603.03V4042.38L1576.03 4104.29H1560.21ZM1617.43 4104.29L1644.24 4045.6H1609.04V4032.91H1660.26V4042.38L1633.26 4104.29H1617.43ZM1701.76 4048.68C1707.91 4048.68 1712.88 4051.07 1716.65 4055.86C1720.46 4060.64 1722.37 4067.66 1722.37 4076.9C1722.37 4083.09 1721.47 4088.29 1719.68 4092.53C1717.89 4096.73 1715.42 4099.9 1712.26 4102.05C1709.1 4104.2 1705.47 4105.27 1701.37 4105.27C1698.73 4105.27 1696.47 4104.94 1694.58 4104.29C1692.7 4103.61 1691.08 4102.75 1689.75 4101.71C1688.41 4100.63 1687.26 4099.49 1686.28 4098.29H1685.5C1685.76 4099.59 1685.96 4100.92 1686.09 4102.29C1686.22 4103.66 1686.28 4104.99 1686.28 4106.3V4128.32H1671.39V4049.7H1683.5L1685.6 4056.78H1686.28C1687.26 4055.32 1688.45 4053.97 1689.85 4052.73C1691.25 4051.49 1692.92 4050.52 1694.88 4049.8C1696.86 4049.05 1699.16 4048.68 1701.76 4048.68ZM1696.98 4060.59C1694.37 4060.59 1692.3 4061.13 1690.77 4062.2C1689.24 4063.28 1688.12 4064.89 1687.41 4067.04C1686.72 4069.19 1686.35 4071.9 1686.28 4075.19V4076.8C1686.28 4080.32 1686.61 4083.3 1687.26 4085.74C1687.94 4088.18 1689.07 4090.04 1690.63 4091.31C1692.22 4092.58 1694.4 4093.21 1697.17 4093.21C1699.45 4093.21 1701.32 4092.58 1702.79 4091.31C1704.25 4090.04 1705.34 4088.18 1706.06 4085.74C1706.81 4083.27 1707.18 4080.25 1707.18 4076.71C1707.18 4071.37 1706.35 4067.35 1704.69 4064.65C1703.03 4061.94 1700.46 4060.59 1696.98 4060.59ZM1745.85 4076.41L1728.27 4049.7H1745.17L1755.76 4067.09L1766.46 4049.7H1783.35L1765.58 4076.41L1784.18 4104.29H1767.24L1755.76 4085.59L1744.24 4104.29H1727.35L1745.85 4076.41Z" fill="white"/>
</svg>
