<svg width="2450" height="1996" viewBox="0 0 2450 1996" fill="none" xmlns="http://www.w3.org/2000/svg">
<rect x="5.47266" y="3.13232" width="2440" height="1990" fill="#D9D9D9" stroke="#575757" stroke-width="5"/>
<path d="M4.46484 829.388H2446.46" stroke="#575757" stroke-width="7" stroke-linecap="square"/>
<path d="M1233.76 496.743H1205.17V445.201C1205.17 444.251 1205.17 442.516 1205.17 439.997C1205.17 437.431 1205.2 434.603 1205.24 431.514C1205.34 428.424 1205.46 425.644 1205.6 423.173C1204.36 424.646 1203.2 425.906 1202.11 426.951C1201.06 427.997 1200.04 428.971 1199.04 429.874L1187.21 439.641L1172.59 421.676L1208.38 392.519H1233.76V496.743Z" fill="#575757"/>
<path d="M1261.32 1500.89H1185.68V1482.35L1211.13 1456.62C1216.41 1451.1 1220.49 1446.68 1223.39 1443.36C1226.34 1440.03 1228.41 1437.2 1229.59 1434.87C1230.78 1432.54 1231.38 1430.12 1231.38 1427.6C1231.38 1424.51 1230.38 1422.28 1228.38 1420.9C1226.39 1419.52 1224.03 1418.83 1221.33 1418.83C1218.05 1418.83 1214.72 1419.78 1211.34 1421.68C1208.02 1423.54 1204.24 1426.29 1200.01 1429.95L1184.54 1411.85C1187.68 1409.04 1191 1406.38 1194.52 1403.86C1198.04 1401.3 1202.2 1399.2 1207 1397.59C1211.8 1395.97 1217.64 1395.17 1224.53 1395.17C1231.61 1395.17 1237.75 1396.4 1242.93 1398.87C1248.15 1401.34 1252.19 1404.74 1255.04 1409.07C1257.9 1413.34 1259.32 1418.22 1259.32 1423.68C1259.32 1429.72 1258.21 1435.11 1255.97 1439.86C1253.79 1444.57 1250.48 1449.3 1246.06 1454.05C1241.64 1458.75 1236.13 1464.1 1229.52 1470.09L1221.9 1476.93V1477.65H1261.32V1500.89Z" fill="#575757"/>
</svg>
