<svg width="2446" height="1998" viewBox="0 0 2446 1998" fill="none" xmlns="http://www.w3.org/2000/svg">
<rect x="3.41016" y="5.13623" width="2440" height="1990" fill="#D9D9D9" stroke="#575757" stroke-width="5"/>
<path d="M1271.1 4.14453V1988.88" stroke="#575757" stroke-width="8" stroke-linecap="square"/>
<path d="M655.292 996.513H626.705V944.971C626.705 944.02 626.705 942.285 626.705 939.767C626.705 937.2 626.729 934.372 626.776 931.283C626.871 928.194 626.99 925.414 627.133 922.942C625.897 924.416 624.733 925.675 623.64 926.721C622.594 927.766 621.572 928.741 620.574 929.644L608.74 939.41L594.126 921.445L629.913 892.288H655.292V996.513Z" fill="#575757"/>
<path d="M1879.05 984.887H1803.41V966.352L1828.86 940.616C1834.13 935.103 1838.22 930.683 1841.12 927.356C1844.07 924.03 1846.14 921.202 1847.32 918.873C1848.51 916.544 1849.11 914.12 1849.11 911.602C1849.11 908.512 1848.11 906.279 1846.11 904.9C1844.12 903.522 1841.76 902.833 1839.05 902.833C1835.77 902.833 1832.45 903.784 1829.07 905.685C1825.75 907.538 1821.97 910.295 1817.74 913.954L1802.27 895.847C1805.41 893.043 1808.73 890.381 1812.25 887.862C1815.77 885.296 1819.92 883.205 1824.72 881.589C1829.52 879.973 1835.37 879.165 1842.26 879.165C1849.34 879.165 1855.47 880.401 1860.65 882.872C1865.88 885.343 1869.92 888.742 1872.77 893.066C1875.62 897.344 1877.05 902.215 1877.05 907.681C1877.05 913.716 1875.93 919.111 1873.7 923.863C1871.51 928.568 1868.21 933.297 1863.79 938.05C1859.37 942.755 1853.86 948.102 1847.25 954.09L1839.62 960.934V961.646H1879.05V984.887Z" fill="#575757"/>
</svg>
