<svg width="1092" height="903" viewBox="0 0 1092 903" fill="none" xmlns="http://www.w3.org/2000/svg">
<rect x="2.4801" y="2" width="1087.92" height="898.865" fill="#D9D9D9" stroke="black" stroke-width="3" stroke-dasharray="6 6"/>
<path d="M701.785 407.376H312.764" stroke="#575757" stroke-width="4" stroke-linecap="round" stroke-linejoin="round"/>
<path d="M812.933 302H312.764" stroke="#575757" stroke-width="4" stroke-linecap="round" stroke-linejoin="round"/>
<path d="M812.933 512.751H312.764" stroke="#575757" stroke-width="4" stroke-linecap="round" stroke-linejoin="round"/>
<path d="M701.785 618.127H312.764" stroke="#575757" stroke-width="4" stroke-linecap="round" stroke-linejoin="round"/>
<path d="M2.4801 469.282L17.4801 477.942V460.621L2.4801 469.282ZM302.48 469.282L287.48 460.621V477.942L302.48 469.282ZM15.9801 470.782H288.98V467.782H15.9801V470.782Z" fill="#575757"/>
<path d="M528.542 302L537.202 287H519.882L528.542 302ZM528.542 2L519.882 17H537.202L528.542 2ZM530.042 288.5V15.5H527.042V288.5H530.042Z" fill="#575757"/>
<path d="M489.275 214.004L450.896 196.426V219.775H446.443V191.211H450.193L489.275 208.672V214.004ZM489.275 178.568L450.896 160.99V184.339H446.443V155.775H450.193L489.275 173.236V178.568ZM456.579 131.413C456.579 127.409 457.956 124.216 460.71 121.833C463.464 119.45 467.605 118.259 473.132 118.259C476.784 118.259 479.851 118.806 482.331 119.9C484.812 120.993 486.687 122.536 487.956 124.529C489.226 126.501 489.86 128.835 489.86 131.53C489.86 133.23 489.636 134.724 489.187 136.013C488.737 137.302 488.132 138.405 487.37 139.323C486.609 140.241 485.778 141.003 484.88 141.609V141.96C485.642 141.902 486.56 141.833 487.634 141.755C488.708 141.657 489.646 141.609 490.446 141.609H503.63V146.501H457.165V142.488L461.911 141.843V141.609C460.935 140.984 460.046 140.222 459.245 139.323C458.425 138.425 457.78 137.331 457.312 136.042C456.823 134.734 456.579 133.191 456.579 131.413ZM460.681 132.263C460.681 134.489 461.11 136.286 461.97 137.654C462.829 139.001 464.118 139.988 465.837 140.613C467.536 141.238 469.675 141.57 472.253 141.609H473.191C475.905 141.609 478.2 141.316 480.075 140.73C481.95 140.124 483.376 139.138 484.353 137.771C485.329 136.384 485.818 134.529 485.818 132.204C485.818 130.212 485.28 128.552 484.206 127.224C483.132 125.896 481.638 124.909 479.724 124.265C477.79 123.601 475.573 123.269 473.073 123.269C469.284 123.269 466.276 124.011 464.05 125.495C461.804 126.96 460.681 129.216 460.681 132.263ZM472.839 101.016L457.165 112.12V106.554L469.528 98.0867L457.165 89.6492V84.1414L472.839 95.2449L489.275 83.5262V89.0926L476.179 98.0867L489.275 107.139V112.647L472.839 101.016Z" fill="#575757"/>
<path d="M98.4742 404.185C101.384 404.185 103.914 404.683 106.062 405.679C108.211 406.655 109.871 408.081 111.043 409.956C112.234 411.831 112.83 414.106 112.83 416.782C112.83 419.712 112.195 422.241 110.925 424.37C109.656 426.479 107.83 428.11 105.447 429.263C103.064 430.396 100.213 430.962 96.8922 430.962C94.6656 430.962 92.5953 430.767 90.6813 430.376C88.7672 429.985 87.1559 429.399 85.8473 428.618V423.989C87.2731 424.849 89.0016 425.532 91.0328 426.04C93.0641 426.548 95.0367 426.802 96.9508 426.802C99.1188 426.802 101.013 426.46 102.634 425.776C104.275 425.073 105.545 424.019 106.443 422.612C107.361 421.187 107.82 419.399 107.82 417.251C107.82 414.399 106.941 412.202 105.183 410.659C103.445 409.097 100.691 408.315 96.9215 408.315C95.7106 408.315 94.3824 408.413 92.9371 408.608C91.4918 408.804 90.3004 409.019 89.3629 409.253L86.902 407.642L88.5426 387.544H109.841V391.997H92.7028L91.6188 404.917C92.361 404.761 93.318 404.604 94.4899 404.448C95.6617 404.272 96.9899 404.185 98.4742 404.185ZM133.91 404.185C136.82 404.185 139.35 404.683 141.498 405.679C143.647 406.655 145.307 408.081 146.479 409.956C147.67 411.831 148.266 414.106 148.266 416.782C148.266 419.712 147.631 422.241 146.361 424.37C145.092 426.479 143.266 428.11 140.883 429.263C138.5 430.396 135.648 430.962 132.328 430.962C130.102 430.962 128.031 430.767 126.117 430.376C124.203 429.985 122.592 429.399 121.283 428.618V423.989C122.709 424.849 124.438 425.532 126.469 426.04C128.5 426.548 130.473 426.802 132.387 426.802C134.555 426.802 136.449 426.46 138.07 425.776C139.711 425.073 140.98 424.019 141.879 422.612C142.797 421.187 143.256 419.399 143.256 417.251C143.256 414.399 142.377 412.202 140.619 410.659C138.881 409.097 136.127 408.315 132.357 408.315C131.147 408.315 129.818 408.413 128.373 408.608C126.928 408.804 125.736 409.019 124.799 409.253L122.338 407.642L123.979 387.544H145.277V391.997H128.139L127.055 404.917C127.797 404.761 128.754 404.604 129.926 404.448C131.098 404.272 132.426 404.185 133.91 404.185ZM173.067 397.681C177.071 397.681 180.264 399.058 182.647 401.812C185.03 404.565 186.221 408.706 186.221 414.233C186.221 417.886 185.674 420.952 184.58 423.433C183.487 425.913 181.944 427.788 179.952 429.058C177.979 430.327 175.645 430.962 172.95 430.962C171.25 430.962 169.756 430.737 168.467 430.288C167.178 429.839 166.075 429.233 165.157 428.472C164.239 427.71 163.477 426.88 162.872 425.981H162.52C162.579 426.743 162.647 427.661 162.725 428.735C162.823 429.81 162.872 430.747 162.872 431.548V444.731H157.979V398.267H161.993L162.637 403.013H162.872C163.497 402.036 164.258 401.147 165.157 400.347C166.055 399.526 167.149 398.882 168.438 398.413C169.747 397.925 171.289 397.681 173.067 397.681ZM172.217 401.782C169.991 401.782 168.194 402.212 166.827 403.071C165.479 403.931 164.493 405.22 163.868 406.938C163.243 408.638 162.911 410.776 162.872 413.354V414.292C162.872 417.007 163.164 419.302 163.75 421.177C164.356 423.052 165.342 424.478 166.709 425.454C168.096 426.431 169.952 426.919 172.276 426.919C174.268 426.919 175.928 426.382 177.256 425.308C178.584 424.233 179.571 422.739 180.215 420.825C180.879 418.892 181.211 416.675 181.211 414.175C181.211 410.386 180.469 407.378 178.985 405.151C177.52 402.905 175.264 401.782 172.217 401.782ZM203.464 413.94L192.36 398.267H197.927L206.393 410.63L214.831 398.267H220.339L209.235 413.94L220.954 430.376H215.388L206.393 417.28L197.341 430.376H191.833L203.464 413.94Z" fill="#575757"/>
<path d="M333.679 407.376H328.169V365.095H313.344V360.261H348.439V365.095H333.679V407.376ZM368.355 371.411C371.363 371.411 373.941 372.077 376.089 373.409C378.238 374.741 379.881 376.61 381.02 379.017C382.159 381.401 382.728 384.194 382.728 387.396V390.715H358.333C358.397 394.861 359.428 398.02 361.426 400.189C363.424 402.359 366.239 403.444 369.87 403.444C372.104 403.444 374.081 403.24 375.799 402.832C377.518 402.424 379.301 401.822 381.149 401.027V405.732C379.366 406.527 377.593 407.107 375.832 407.473C374.091 407.838 372.029 408.021 369.644 408.021C366.25 408.021 363.285 407.333 360.75 405.958C358.236 404.562 356.281 402.521 354.884 399.835C353.488 397.149 352.79 393.862 352.79 389.974C352.79 386.171 353.423 382.884 354.691 380.112C355.98 377.319 357.785 375.171 360.105 373.667C362.447 372.163 365.197 371.411 368.355 371.411ZM368.291 375.794C365.433 375.794 363.156 376.729 361.459 378.598C359.761 380.467 358.752 383.077 358.429 386.429H377.121C377.099 384.323 376.766 382.476 376.122 380.886C375.499 379.274 374.543 378.028 373.254 377.147C371.964 376.245 370.31 375.794 368.291 375.794ZM400.227 389.297L388.013 372.056H394.136L403.45 385.655L412.731 372.056H418.79L406.576 389.297L419.466 407.376H413.343L403.45 392.971L393.492 407.376H387.433L400.227 389.297ZM437.771 403.638C438.652 403.638 439.554 403.562 440.478 403.412C441.402 403.262 442.154 403.079 442.734 402.864V407.021C442.111 407.301 441.241 407.537 440.124 407.73C439.028 407.924 437.954 408.021 436.901 408.021C435.032 408.021 433.335 407.698 431.809 407.054C430.284 406.388 429.059 405.271 428.135 403.702C427.233 402.134 426.782 399.964 426.782 397.192V376.245H421.755V373.635L426.814 371.54L428.941 363.87H432.164V372.056H442.508V376.245H432.164V397.031C432.164 399.244 432.669 400.898 433.678 401.994C434.71 403.09 436.074 403.638 437.771 403.638ZM472.382 357.231V372.217C472.382 373.076 472.361 373.946 472.318 374.827C472.275 375.687 472.2 376.481 472.092 377.212H472.447C473.177 375.966 474.101 374.924 475.218 374.086C476.357 373.227 477.646 372.582 479.086 372.152C480.525 371.701 482.05 371.476 483.662 371.476C486.498 371.476 488.861 371.927 490.752 372.829C492.664 373.731 494.092 375.128 495.038 377.019C496.005 378.909 496.488 381.358 496.488 384.366V407.376H491.203V384.721C491.203 381.777 490.526 379.575 489.172 378.114C487.84 376.653 485.789 375.923 483.017 375.923C480.396 375.923 478.301 376.428 476.733 377.438C475.186 378.426 474.069 379.887 473.381 381.82C472.715 383.754 472.382 386.117 472.382 388.91V407.376H467.033V357.231H472.382ZM521.109 371.411C524.117 371.411 526.695 372.077 528.843 373.409C530.992 374.741 532.635 376.61 533.774 379.017C534.913 381.401 535.482 384.194 535.482 387.396V390.715H511.087C511.151 394.861 512.182 398.02 514.18 400.189C516.178 402.359 518.993 403.444 522.624 403.444C524.858 403.444 526.835 403.24 528.553 402.832C530.272 402.424 532.055 401.822 533.903 401.027V405.732C532.12 406.527 530.347 407.107 528.586 407.473C526.845 407.838 524.783 408.021 522.398 408.021C519.004 408.021 516.039 407.333 513.504 405.958C510.99 404.562 509.035 402.521 507.638 399.835C506.242 397.149 505.544 393.862 505.544 389.974C505.544 386.171 506.177 382.884 507.445 380.112C508.734 377.319 510.539 375.171 512.859 373.667C515.201 372.163 517.951 371.411 521.109 371.411ZM521.045 375.794C518.187 375.794 515.91 376.729 514.213 378.598C512.515 380.467 511.505 383.077 511.183 386.429H529.875C529.853 384.323 529.52 382.476 528.876 380.886C528.253 379.274 527.297 378.028 526.007 377.147C524.718 376.245 523.064 375.794 521.045 375.794ZM560.619 371.411C561.328 371.411 562.069 371.454 562.842 371.54C563.616 371.604 564.303 371.701 564.905 371.83L564.228 376.793C563.648 376.643 563.004 376.524 562.295 376.438C561.586 376.353 560.92 376.31 560.297 376.31C558.879 376.31 557.536 376.6 556.268 377.18C555.022 377.738 553.926 378.555 552.981 379.629C552.036 380.682 551.295 381.96 550.757 383.464C550.22 384.946 549.952 386.601 549.952 388.427V407.376H544.57V372.056H549.017L549.597 378.565H549.823C550.553 377.255 551.434 376.062 552.465 374.988C553.497 373.893 554.689 373.022 556.043 372.378C557.418 371.733 558.943 371.411 560.619 371.411ZM585.175 371.411C588.183 371.411 590.761 372.077 592.91 373.409C595.058 374.741 596.702 376.61 597.84 379.017C598.979 381.401 599.548 384.194 599.548 387.396V390.715H575.153C575.217 394.861 576.249 398.02 578.247 400.189C580.245 402.359 583.059 403.444 586.69 403.444C588.924 403.444 590.901 403.24 592.62 402.832C594.339 402.424 596.122 401.822 597.969 401.027V405.732C596.186 406.527 594.414 407.107 592.652 407.473C590.912 407.838 588.849 408.021 586.464 408.021C583.07 408.021 580.105 407.333 577.57 405.958C575.056 404.562 573.101 402.521 571.705 399.835C570.308 397.149 569.61 393.862 569.61 389.974C569.61 386.171 570.244 382.884 571.511 380.112C572.8 377.319 574.605 375.171 576.925 373.667C579.267 372.163 582.017 371.411 585.175 371.411ZM585.111 375.794C582.254 375.794 579.976 376.729 578.279 378.598C576.582 380.467 575.572 383.077 575.25 386.429H593.941C593.92 384.323 593.587 382.476 592.942 380.886C592.319 379.274 591.363 378.028 590.074 377.147C588.785 376.245 587.13 375.794 585.111 375.794Z" fill="#575757"/>
</svg>
