<svg width="1092" height="903" viewBox="0 0 1092 903" fill="none" xmlns="http://www.w3.org/2000/svg">
<g filter="url(#filter0_i_40_142)">
<rect x="2.42981" y="2.40527" width="1087.92" height="898.865" fill="#D9D9D9"/>
</g>
<rect x="2.42981" y="2.40527" width="1087.92" height="898.865" stroke="black" stroke-width="3" stroke-dasharray="6 6"/>
<g filter="url(#filter1_i_40_142)">
<path d="M701.734 386.032H312.714" stroke="#575757" stroke-width="4" stroke-linecap="round" stroke-linejoin="round"/>
<path d="M812.883 280.656H312.714" stroke="#575757" stroke-width="4" stroke-linecap="round" stroke-linejoin="round"/>
<path d="M812.883 491.407H312.714" stroke="#575757" stroke-width="4" stroke-linecap="round" stroke-linejoin="round"/>
<path d="M701.734 596.783H312.714" stroke="#575757" stroke-width="4" stroke-linecap="round" stroke-linejoin="round"/>
<path d="M2.42981 451.837L17.4298 460.498V443.177L2.42981 451.837ZM302.43 451.837L287.43 443.177V460.498L302.43 451.837ZM15.9298 453.337H288.93V450.337H15.9298V453.337Z" fill="#575757"/>
<path d="M561.492 899.556L570.152 884.556H552.832L561.492 899.556ZM561.492 599.556L552.832 614.556H570.152L561.492 599.556ZM562.992 886.056V613.056H559.992V886.056H562.992Z" fill="#575757"/>
<path d="M98.4235 386.74C101.334 386.74 103.863 387.238 106.011 388.234C108.16 389.211 109.82 390.637 110.992 392.512C112.183 394.387 112.779 396.662 112.779 399.338C112.779 402.268 112.144 404.797 110.875 406.926C109.605 409.035 107.779 410.666 105.396 411.818C103.013 412.951 100.162 413.518 96.8414 413.518C94.6149 413.518 92.5446 413.322 90.6305 412.932C88.7164 412.541 87.1051 411.955 85.7965 411.174V406.545C87.2223 407.404 88.9508 408.088 90.9821 408.596C93.0133 409.104 94.986 409.357 96.9 409.357C99.068 409.357 100.963 409.016 102.584 408.332C104.224 407.629 105.494 406.574 106.392 405.168C107.31 403.742 107.769 401.955 107.769 399.807C107.769 396.955 106.89 394.758 105.132 393.215C103.394 391.652 100.64 390.871 96.8707 390.871C95.6598 390.871 94.3317 390.969 92.8864 391.164C91.441 391.359 90.2496 391.574 89.3121 391.809L86.8512 390.197L88.4918 370.1H109.791V374.553H92.652L91.568 387.473C92.3102 387.316 93.2672 387.16 94.4391 387.004C95.611 386.828 96.9391 386.74 98.4235 386.74ZM133.859 386.74C136.77 386.74 139.299 387.238 141.447 388.234C143.596 389.211 145.256 390.637 146.428 392.512C147.619 394.387 148.215 396.662 148.215 399.338C148.215 402.268 147.58 404.797 146.311 406.926C145.041 409.035 143.215 410.666 140.832 411.818C138.449 412.951 135.598 413.518 132.277 413.518C130.051 413.518 127.98 413.322 126.066 412.932C124.152 412.541 122.541 411.955 121.232 411.174V406.545C122.658 407.404 124.387 408.088 126.418 408.596C128.449 409.104 130.422 409.357 132.336 409.357C134.504 409.357 136.398 409.016 138.02 408.332C139.66 407.629 140.93 406.574 141.828 405.168C142.746 403.742 143.205 401.955 143.205 399.807C143.205 396.955 142.326 394.758 140.568 393.215C138.83 391.652 136.076 390.871 132.307 390.871C131.096 390.871 129.768 390.969 128.322 391.164C126.877 391.359 125.686 391.574 124.748 391.809L122.287 390.197L123.928 370.1H145.227V374.553H128.088L127.004 387.473C127.746 387.316 128.703 387.16 129.875 387.004C131.047 386.828 132.375 386.74 133.859 386.74ZM173.016 380.236C177.02 380.236 180.213 381.613 182.596 384.367C184.979 387.121 186.17 391.262 186.17 396.789C186.17 400.441 185.623 403.508 184.53 405.988C183.436 408.469 181.893 410.344 179.901 411.613C177.928 412.883 175.594 413.518 172.899 413.518C171.2 413.518 169.705 413.293 168.416 412.844C167.127 412.395 166.024 411.789 165.106 411.027C164.188 410.266 163.426 409.436 162.821 408.537H162.469C162.528 409.299 162.596 410.217 162.674 411.291C162.772 412.365 162.821 413.303 162.821 414.104V427.287H157.928V380.822H161.942L162.586 385.568H162.821C163.446 384.592 164.207 383.703 165.106 382.902C166.004 382.082 167.098 381.438 168.387 380.969C169.696 380.48 171.239 380.236 173.016 380.236ZM172.166 384.338C169.94 384.338 168.143 384.768 166.776 385.627C165.428 386.486 164.442 387.775 163.817 389.494C163.192 391.193 162.86 393.332 162.821 395.91V396.848C162.821 399.562 163.114 401.857 163.7 403.732C164.305 405.607 165.291 407.033 166.659 408.01C168.045 408.986 169.901 409.475 172.225 409.475C174.217 409.475 175.877 408.938 177.205 407.863C178.534 406.789 179.52 405.295 180.164 403.381C180.829 401.447 181.161 399.23 181.161 396.73C181.161 392.941 180.418 389.934 178.934 387.707C177.469 385.461 175.213 384.338 172.166 384.338ZM203.413 396.496L192.309 380.822H197.876L206.343 393.186L214.78 380.822H220.288L209.184 396.496L220.903 412.932H215.337L206.343 399.836L197.29 412.932H191.782L203.413 396.496Z" fill="#575757"/>
<path d="M600.76 687.552L639.139 705.13V681.78H643.592V710.345H639.842L600.76 692.884V687.552ZM600.76 722.988L639.139 740.566V717.216H643.592V745.781H639.842L600.76 728.32V722.988ZM633.455 770.142C633.455 774.146 632.078 777.34 629.324 779.722C626.57 782.105 622.43 783.297 616.902 783.297C613.25 783.297 610.184 782.75 607.703 781.656C605.223 780.562 603.348 779.019 602.078 777.027C600.809 775.054 600.174 772.721 600.174 770.025C600.174 768.326 600.399 766.832 600.848 765.543C601.297 764.254 601.902 763.15 602.664 762.232C603.426 761.314 604.256 760.553 605.154 759.947V759.596C604.393 759.654 603.475 759.722 602.401 759.801C601.326 759.898 600.389 759.947 599.588 759.947H586.404V755.054H632.869V759.068L628.123 759.713V759.947C629.1 760.572 629.988 761.334 630.789 762.232C631.609 763.131 632.254 764.224 632.723 765.513C633.211 766.822 633.455 768.365 633.455 770.142ZM629.354 769.293C629.354 767.066 628.924 765.269 628.065 763.902C627.205 762.554 625.916 761.568 624.197 760.943C622.498 760.318 620.359 759.986 617.781 759.947H616.844C614.129 759.947 611.834 760.24 609.959 760.826C608.084 761.431 606.658 762.418 605.682 763.785C604.705 765.172 604.217 767.027 604.217 769.351C604.217 771.344 604.754 773.004 605.828 774.332C606.902 775.66 608.397 776.646 610.311 777.291C612.244 777.955 614.461 778.287 616.961 778.287C620.75 778.287 623.758 777.545 625.984 776.06C628.231 774.596 629.354 772.34 629.354 769.293ZM617.195 800.539L632.869 789.436V795.002L620.506 803.469L632.869 811.906V817.414L617.195 806.311L600.76 818.029V812.463L613.856 803.469L600.76 794.416V788.908L617.195 800.539Z" fill="#575757"/>
<path d="M334.013 383.26H328.502V340.979H313.678V336.145H348.773V340.979H334.013V383.26ZM368.689 347.295C371.696 347.295 374.275 347.961 376.423 349.293C378.571 350.625 380.215 352.495 381.354 354.901C382.492 357.286 383.062 360.079 383.062 363.28V366.599H358.666C358.731 370.746 359.762 373.904 361.76 376.074C363.758 378.244 366.572 379.329 370.203 379.329C372.438 379.329 374.414 379.125 376.133 378.716C377.852 378.308 379.635 377.707 381.483 376.912V381.617C379.699 382.412 377.927 382.992 376.165 383.357C374.425 383.722 372.362 383.905 369.978 383.905C366.583 383.905 363.618 383.217 361.083 381.842C358.569 380.446 356.614 378.405 355.218 375.719C353.821 373.034 353.123 369.747 353.123 365.858C353.123 362.055 353.757 358.768 355.025 355.997C356.314 353.204 358.118 351.055 360.439 349.551C362.78 348.047 365.53 347.295 368.689 347.295ZM368.624 351.678C365.767 351.678 363.489 352.613 361.792 354.482C360.095 356.351 359.085 358.961 358.763 362.313H377.454C377.433 360.208 377.1 358.36 376.455 356.77C375.832 355.159 374.876 353.913 373.587 353.032C372.298 352.129 370.644 351.678 368.624 351.678ZM400.561 365.181L388.347 347.94H394.47L403.783 361.54L413.065 347.94H419.123L406.909 365.181L419.8 383.26H413.677L403.783 368.855L393.825 383.26H387.767L400.561 365.181ZM438.105 379.522C438.985 379.522 439.888 379.447 440.812 379.296C441.735 379.146 442.487 378.963 443.068 378.749V382.906C442.444 383.185 441.574 383.421 440.457 383.615C439.361 383.808 438.287 383.905 437.234 383.905C435.365 383.905 433.668 383.583 432.143 382.938C430.617 382.272 429.393 381.155 428.469 379.586C427.567 378.018 427.115 375.848 427.115 373.077V352.129H422.088V349.519L427.148 347.424L429.275 339.754H432.497V347.94H442.842V352.129H432.497V372.916C432.497 375.128 433.002 376.783 434.012 377.878C435.043 378.974 436.407 379.522 438.105 379.522ZM472.716 333.116V348.101C472.716 348.96 472.694 349.831 472.651 350.711C472.609 351.571 472.533 352.366 472.426 353.096H472.78C473.511 351.85 474.435 350.808 475.552 349.97C476.691 349.111 477.98 348.466 479.419 348.037C480.859 347.585 482.384 347.36 483.995 347.36C486.831 347.36 489.194 347.811 491.085 348.713C492.997 349.616 494.426 351.012 495.371 352.903C496.338 354.793 496.821 357.243 496.821 360.25V383.26H491.536V360.605C491.536 357.662 490.859 355.459 489.506 353.999C488.174 352.538 486.122 351.807 483.351 351.807C480.73 351.807 478.635 352.312 477.067 353.322C475.52 354.31 474.402 355.771 473.715 357.705C473.049 359.638 472.716 362.001 472.716 364.794V383.26H467.366V333.116H472.716ZM521.443 347.295C524.45 347.295 527.028 347.961 529.177 349.293C531.325 350.625 532.969 352.495 534.108 354.901C535.246 357.286 535.816 360.079 535.816 363.28V366.599H511.42C511.484 370.746 512.516 373.904 514.514 376.074C516.512 378.244 519.326 379.329 522.957 379.329C525.192 379.329 527.168 379.125 528.887 378.716C530.606 378.308 532.389 377.707 534.236 376.912V381.617C532.453 382.412 530.681 382.992 528.919 383.357C527.179 383.722 525.116 383.905 522.732 383.905C519.337 383.905 516.372 383.217 513.837 381.842C511.323 380.446 509.368 378.405 507.972 375.719C506.575 373.034 505.877 369.747 505.877 365.858C505.877 362.055 506.511 358.768 507.778 355.997C509.068 353.204 510.872 351.055 513.193 349.551C515.534 348.047 518.284 347.295 521.443 347.295ZM521.378 351.678C518.521 351.678 516.243 352.613 514.546 354.482C512.849 356.351 511.839 358.961 511.517 362.313H530.208C530.187 360.208 529.854 358.36 529.209 356.77C528.586 355.159 527.63 353.913 526.341 353.032C525.052 352.129 523.398 351.678 521.378 351.678ZM560.952 347.295C561.661 347.295 562.402 347.338 563.176 347.424C563.949 347.489 564.637 347.585 565.238 347.714L564.562 352.677C563.982 352.527 563.337 352.409 562.628 352.323C561.919 352.237 561.253 352.194 560.63 352.194C559.212 352.194 557.869 352.484 556.602 353.064C555.356 353.623 554.26 354.439 553.315 355.513C552.369 356.566 551.628 357.844 551.091 359.348C550.554 360.831 550.285 362.485 550.285 364.311V383.26H544.903V347.94H549.351L549.931 354.45H550.156C550.887 353.139 551.768 351.947 552.799 350.873C553.83 349.777 555.023 348.907 556.376 348.262C557.751 347.618 559.276 347.295 560.952 347.295ZM585.509 347.295C588.517 347.295 591.095 347.961 593.243 349.293C595.392 350.625 597.035 352.495 598.174 354.901C599.313 357.286 599.882 360.079 599.882 363.28V366.599H575.486C575.551 370.746 576.582 373.904 578.58 376.074C580.578 378.244 583.393 379.329 587.024 379.329C589.258 379.329 591.234 379.125 592.953 378.716C594.672 378.308 596.455 377.707 598.303 376.912V381.617C596.52 382.412 594.747 382.992 592.985 383.357C591.245 383.722 589.183 383.905 586.798 383.905C583.403 383.905 580.439 383.217 577.903 381.842C575.39 380.446 573.435 378.405 572.038 375.719C570.642 373.034 569.943 369.747 569.943 365.858C569.943 362.055 570.577 358.768 571.845 355.997C573.134 353.204 574.939 351.055 577.259 349.551C579.601 348.047 582.351 347.295 585.509 347.295ZM585.444 351.678C582.587 351.678 580.31 352.613 578.612 354.482C576.915 356.351 575.905 358.961 575.583 362.313H594.275C594.253 360.208 593.92 358.36 593.276 356.77C592.652 355.159 591.696 353.913 590.407 353.032C589.118 352.129 587.464 351.678 585.444 351.678Z" fill="#575757"/>
</g>
<defs>
<filter id="filter0_i_40_142" x="0.92981" y="0.905273" width="1090.92" height="905.865" filterUnits="userSpaceOnUse" color-interpolation-filters="sRGB">
<feFlood flood-opacity="0" result="BackgroundImageFix"/>
<feBlend mode="normal" in="SourceGraphic" in2="BackgroundImageFix" result="shape"/>
<feColorMatrix in="SourceAlpha" type="matrix" values="0 0 0 0 0 0 0 0 0 0 0 0 0 0 0 0 0 0 127 0" result="hardAlpha"/>
<feOffset dy="4"/>
<feGaussianBlur stdDeviation="2"/>
<feComposite in2="hardAlpha" operator="arithmetic" k2="-1" k3="1"/>
<feColorMatrix type="matrix" values="0 0 0 0 0 0 0 0 0 0 0 0 0 0 0 0 0 0 0.25 0"/>
<feBlend mode="normal" in2="shape" result="effect1_innerShadow_40_142"/>
</filter>
<filter id="filter1_i_40_142" x="2.42981" y="278.656" width="812.453" height="624.899" filterUnits="userSpaceOnUse" color-interpolation-filters="sRGB">
<feFlood flood-opacity="0" result="BackgroundImageFix"/>
<feBlend mode="normal" in="SourceGraphic" in2="BackgroundImageFix" result="shape"/>
<feColorMatrix in="SourceAlpha" type="matrix" values="0 0 0 0 0 0 0 0 0 0 0 0 0 0 0 0 0 0 127 0" result="hardAlpha"/>
<feOffset dy="4"/>
<feGaussianBlur stdDeviation="2"/>
<feComposite in2="hardAlpha" operator="arithmetic" k2="-1" k3="1"/>
<feColorMatrix type="matrix" values="0 0 0 0 0 0 0 0 0 0 0 0 0 0 0 0 0 0 0.25 0"/>
<feBlend mode="normal" in2="shape" result="effect1_innerShadow_40_142"/>
</filter>
</defs>
</svg>
