<svg width="1091" height="1050" viewBox="0 0 1091 1050" fill="none" xmlns="http://www.w3.org/2000/svg">
<rect x="1.54004" y="1.71924" width="1087.92" height="1046.08" fill="#D9D9D9" stroke="black" stroke-width="3" stroke-dasharray="6 6"/>
<path d="M716.908 214.893H383.462" stroke="#575757" stroke-width="4" stroke-linecap="round" stroke-linejoin="round"/>
<path d="M800.27 109.121H300.1" stroke="#575757" stroke-width="4" stroke-linecap="round" stroke-linejoin="round"/>
<path d="M800.27 456.664H300.1" stroke="#575757" stroke-width="4" stroke-linecap="round" stroke-linejoin="round"/>
<path d="M716.908 562.437H383.462" stroke="#575757" stroke-width="4" stroke-linecap="round" stroke-linejoin="round"/>
<path d="M800.269 739.957H300.1" stroke="#575757" stroke-width="4" stroke-linecap="round" stroke-linejoin="round"/>
<path d="M800.269 845.931H300.1" stroke="#575757" stroke-width="4" stroke-linecap="round" stroke-linejoin="round"/>
<path d="M800.269 951.905H300.1" stroke="#575757" stroke-width="4" stroke-linecap="round" stroke-linejoin="round"/>
<path d="M445.583 187.818H435.625V167.483H416.966V187.818H406.976V140.703H416.966V159.168H435.625V140.703H445.583V187.818ZM471.59 151.112C474.92 151.112 477.788 151.756 480.194 153.045C482.601 154.313 484.459 156.161 485.77 158.588C487.08 161.016 487.735 163.981 487.735 167.483V172.252H464.5C464.607 175.024 465.435 177.205 466.981 178.794C468.55 180.363 470.72 181.147 473.491 181.147C475.79 181.147 477.896 180.911 479.808 180.438C481.72 179.965 483.686 179.256 485.705 178.311V185.917C483.922 186.797 482.053 187.442 480.098 187.85C478.164 188.258 475.812 188.462 473.04 188.462C469.431 188.462 466.229 187.796 463.437 186.464C460.665 185.132 458.484 183.102 456.895 180.374C455.326 177.645 454.542 174.208 454.542 170.061C454.542 165.85 455.251 162.348 456.669 159.555C458.108 156.741 460.106 154.635 462.663 153.239C465.22 151.821 468.195 151.112 471.59 151.112ZM471.654 158.105C469.742 158.105 468.152 158.717 466.885 159.942C465.639 161.167 464.919 163.089 464.726 165.71H478.519C478.497 164.25 478.229 162.95 477.713 161.811C477.219 160.672 476.467 159.77 475.457 159.104C474.469 158.438 473.201 158.105 471.654 158.105ZM510.487 151.047C515.321 151.047 519.027 152.1 521.605 154.206C524.184 156.311 525.473 159.512 525.473 163.809V187.818H518.608L516.707 182.919H516.449C515.418 184.208 514.365 185.261 513.291 186.078C512.217 186.894 510.981 187.496 509.585 187.882C508.188 188.269 506.491 188.462 504.493 188.462C502.366 188.462 500.454 188.054 498.757 187.238C497.081 186.421 495.76 185.175 494.793 183.5C493.826 181.802 493.343 179.654 493.343 177.054C493.343 173.23 494.686 170.416 497.371 168.611C500.057 166.785 504.085 165.775 509.456 165.582L515.708 165.388V163.809C515.708 161.918 515.214 160.533 514.226 159.652C513.237 158.771 511.862 158.331 510.101 158.331C508.36 158.331 506.652 158.578 504.977 159.072C503.301 159.566 501.625 160.189 499.949 160.941L496.694 154.302C498.606 153.292 500.744 152.498 503.107 151.917C505.492 151.337 507.952 151.047 510.487 151.047ZM515.708 171.125L511.905 171.253C508.726 171.339 506.513 171.909 505.267 172.961C504.042 174.014 503.43 175.4 503.43 177.119C503.43 178.623 503.87 179.697 504.751 180.341C505.632 180.964 506.781 181.276 508.199 181.276C510.305 181.276 512.077 180.653 513.517 179.407C514.978 178.161 515.708 176.388 515.708 174.089V171.125ZM547.032 188.462C543.015 188.462 539.738 186.894 537.203 183.757C534.689 180.599 533.433 175.969 533.433 169.868C533.433 163.702 534.711 159.04 537.268 155.881C539.824 152.702 543.165 151.112 547.29 151.112C549.009 151.112 550.523 151.348 551.834 151.821C553.145 152.293 554.272 152.927 555.218 153.722C556.185 154.517 557.001 155.409 557.667 156.397H557.989C557.86 155.709 557.699 154.7 557.506 153.368C557.334 152.014 557.248 150.628 557.248 149.21V137.673H567.109V187.818H559.568L557.667 183.145H557.248C556.625 184.133 555.841 185.036 554.896 185.852C553.972 186.647 552.865 187.281 551.576 187.753C550.287 188.226 548.772 188.462 547.032 188.462ZM550.48 180.631C553.166 180.631 555.057 179.836 556.152 178.247C557.27 176.635 557.86 174.218 557.925 170.996V169.932C557.925 166.43 557.388 163.755 556.313 161.908C555.239 160.039 553.241 159.104 550.319 159.104C548.149 159.104 546.452 160.039 545.228 161.908C544.003 163.777 543.391 166.473 543.391 169.997C543.391 173.52 544.003 176.173 545.228 177.957C546.474 179.74 548.225 180.631 550.48 180.631ZM587.219 151.789V187.818H577.39V151.789H587.219ZM582.32 137.673C583.781 137.673 585.038 138.017 586.091 138.705C587.144 139.371 587.67 140.627 587.67 142.475C587.67 144.301 587.144 145.569 586.091 146.278C585.038 146.965 583.781 147.309 582.32 147.309C580.838 147.309 579.57 146.965 578.518 146.278C577.486 145.569 576.971 144.301 576.971 142.475C576.971 140.627 577.486 139.371 578.518 138.705C579.57 138.017 580.838 137.673 582.32 137.673ZM618.027 151.112C621.873 151.112 624.967 152.165 627.309 154.27C629.65 156.354 630.821 159.706 630.821 164.325V187.818H620.992V166.774C620.992 164.196 620.52 162.251 619.574 160.941C618.65 159.63 617.189 158.975 615.191 158.975C612.184 158.975 610.132 159.996 609.036 162.037C607.94 164.078 607.393 167.021 607.393 170.867V187.818H597.563V151.789H605.072L606.394 156.397H606.941C607.715 155.151 608.671 154.141 609.81 153.368C610.97 152.594 612.248 152.025 613.645 151.66C615.062 151.294 616.523 151.112 618.027 151.112ZM651.479 203.673C646.451 203.673 642.605 202.792 639.941 201.031C637.299 199.291 635.978 196.841 635.978 193.683C635.978 191.513 636.654 189.698 638.008 188.237C639.361 186.776 641.349 185.734 643.97 185.111C642.96 184.681 642.079 183.983 641.327 183.016C640.575 182.028 640.199 180.986 640.199 179.89C640.199 178.515 640.597 177.376 641.392 176.474C642.187 175.55 643.336 174.648 644.84 173.767C642.949 172.951 641.445 171.64 640.328 169.835C639.232 168.031 638.685 165.904 638.685 163.455C638.685 160.833 639.254 158.61 640.393 156.784C641.553 154.936 643.229 153.529 645.42 152.562C647.633 151.595 650.318 151.112 653.477 151.112C654.143 151.112 654.916 151.155 655.797 151.241C656.678 151.327 657.483 151.423 658.214 151.531C658.966 151.638 659.471 151.724 659.729 151.789H672.297V156.784L666.657 158.234C667.173 159.029 667.56 159.877 667.817 160.78C668.075 161.682 668.204 162.638 668.204 163.648C668.204 167.515 666.851 170.534 664.144 172.704C661.458 174.852 657.72 175.926 652.929 175.926C651.79 175.862 650.716 175.776 649.706 175.668C649.212 176.055 648.836 176.463 648.578 176.893C648.32 177.323 648.191 177.774 648.191 178.247C648.191 178.719 648.385 179.117 648.771 179.439C649.18 179.74 649.781 179.976 650.576 180.148C651.393 180.298 652.402 180.374 653.605 180.374H659.729C663.682 180.374 666.689 181.222 668.752 182.919C670.836 184.617 671.878 187.109 671.878 190.396C671.878 194.607 670.116 197.873 666.593 200.193C663.091 202.513 658.053 203.673 651.479 203.673ZM651.897 197.26C654.239 197.26 656.248 197.035 657.924 196.583C659.621 196.154 660.921 195.531 661.823 194.714C662.726 193.919 663.177 192.963 663.177 191.846C663.177 190.944 662.908 190.224 662.371 189.687C661.855 189.171 661.061 188.806 659.986 188.591C658.934 188.376 657.58 188.269 655.926 188.269H650.834C649.631 188.269 648.546 188.462 647.579 188.849C646.634 189.236 645.882 189.773 645.323 190.46C644.765 191.169 644.485 191.986 644.485 192.91C644.485 194.263 645.13 195.327 646.419 196.1C647.729 196.874 649.556 197.26 651.897 197.26ZM653.477 169.932C655.324 169.932 656.678 169.363 657.537 168.224C658.396 167.085 658.826 165.539 658.826 163.583C658.826 161.414 658.375 159.792 657.473 158.717C656.592 157.622 655.26 157.074 653.477 157.074C651.672 157.074 650.318 157.622 649.416 158.717C648.514 159.792 648.062 161.414 648.062 163.583C648.062 165.539 648.503 167.085 649.384 168.224C650.286 169.363 651.65 169.932 653.477 169.932ZM700.366 187.818H690.408V160.554C690.408 159.802 690.419 158.878 690.44 157.783C690.462 156.666 690.494 155.527 690.537 154.367C690.58 153.185 690.623 152.122 690.666 151.176C690.43 151.456 689.946 151.939 689.216 152.626C688.507 153.292 687.841 153.894 687.218 154.431L681.804 158.782L677.002 152.788L692.181 140.703H700.366V187.818Z" fill="#575757"/>
<path d="M445.496 536.363H435.538V516.028H416.879V536.363H406.889V489.248H416.879V507.714H435.538V489.248H445.496V536.363ZM471.503 499.657C474.833 499.657 477.701 500.302 480.107 501.591C482.514 502.858 484.372 504.706 485.683 507.134C486.993 509.562 487.648 512.526 487.648 516.028V520.798H464.413C464.521 523.569 465.348 525.75 466.895 527.34C468.463 528.908 470.633 529.692 473.404 529.692C475.703 529.692 477.809 529.456 479.721 528.983C481.633 528.511 483.599 527.802 485.618 526.856V534.462C483.835 535.343 481.966 535.987 480.011 536.396C478.077 536.804 475.725 537.008 472.953 537.008C469.344 537.008 466.143 536.342 463.35 535.01C460.578 533.678 458.397 531.647 456.808 528.919C455.239 526.19 454.455 522.753 454.455 518.606C454.455 514.396 455.164 510.894 456.582 508.101C458.021 505.286 460.02 503.181 462.576 501.784C465.133 500.366 468.108 499.657 471.503 499.657ZM471.567 506.65C469.655 506.65 468.065 507.263 466.798 508.487C465.552 509.712 464.832 511.635 464.639 514.256H478.432C478.41 512.795 478.142 511.495 477.626 510.356C477.132 509.218 476.38 508.315 475.37 507.649C474.382 506.983 473.114 506.65 471.567 506.65ZM510.4 499.593C515.234 499.593 518.94 500.646 521.519 502.751C524.097 504.856 525.386 508.058 525.386 512.354V536.363H518.521L516.62 531.465H516.362C515.331 532.754 514.278 533.807 513.204 534.623C512.13 535.439 510.895 536.041 509.498 536.428C508.102 536.814 506.404 537.008 504.406 537.008C502.279 537.008 500.367 536.6 498.67 535.783C496.994 534.967 495.673 533.721 494.706 532.045C493.739 530.348 493.256 528.199 493.256 525.6C493.256 521.775 494.599 518.961 497.284 517.156C499.97 515.33 503.998 514.32 509.369 514.127L515.621 513.934V512.354C515.621 510.464 515.127 509.078 514.139 508.197C513.15 507.316 511.775 506.876 510.014 506.876C508.273 506.876 506.565 507.123 504.89 507.617C503.214 508.111 501.538 508.734 499.862 509.486L496.607 502.848C498.52 501.838 500.657 501.043 503.021 500.463C505.405 499.883 507.865 499.593 510.4 499.593ZM515.621 519.67L511.818 519.799C508.639 519.885 506.426 520.454 505.18 521.507C503.955 522.56 503.343 523.945 503.343 525.664C503.343 527.168 503.783 528.242 504.664 528.887C505.545 529.51 506.694 529.821 508.112 529.821C510.218 529.821 511.99 529.198 513.43 527.952C514.891 526.706 515.621 524.934 515.621 522.635V519.67ZM546.945 537.008C542.928 537.008 539.651 535.439 537.116 532.303C534.603 529.145 533.346 524.515 533.346 518.413C533.346 512.247 534.624 507.585 537.181 504.427C539.737 501.247 543.078 499.657 547.203 499.657C548.922 499.657 550.437 499.894 551.747 500.366C553.058 500.839 554.186 501.473 555.131 502.268C556.098 503.062 556.914 503.954 557.58 504.942H557.902C557.773 504.255 557.612 503.245 557.419 501.913C557.247 500.56 557.161 499.174 557.161 497.756V486.219H567.022V536.363H559.481L557.58 531.69H557.161C556.538 532.679 555.754 533.581 554.809 534.397C553.885 535.192 552.778 535.826 551.489 536.299C550.2 536.771 548.686 537.008 546.945 537.008ZM550.394 529.177C553.079 529.177 554.97 528.382 556.065 526.792C557.183 525.181 557.773 522.764 557.838 519.541V518.478C557.838 514.976 557.301 512.301 556.227 510.453C555.152 508.584 553.154 507.649 550.232 507.649C548.062 507.649 546.365 508.584 545.141 510.453C543.916 512.322 543.304 515.019 543.304 518.542C543.304 522.065 543.916 524.719 545.141 526.502C546.387 528.285 548.138 529.177 550.394 529.177ZM587.132 500.334V536.363H577.303V500.334H587.132ZM582.233 486.219C583.694 486.219 584.951 486.562 586.004 487.25C587.057 487.916 587.583 489.173 587.583 491.021C587.583 492.847 587.057 494.114 586.004 494.823C584.951 495.511 583.694 495.854 582.233 495.854C580.751 495.854 579.483 495.511 578.431 494.823C577.399 494.114 576.884 492.847 576.884 491.021C576.884 489.173 577.399 487.916 578.431 487.25C579.483 486.562 580.751 486.219 582.233 486.219ZM617.94 499.657C621.786 499.657 624.88 500.71 627.222 502.815C629.563 504.899 630.734 508.251 630.734 512.87V536.363H620.905V515.319C620.905 512.741 620.433 510.797 619.487 509.486C618.563 508.176 617.103 507.521 615.104 507.521C612.097 507.521 610.045 508.541 608.949 510.582C607.854 512.623 607.306 515.566 607.306 519.412V536.363H597.477V500.334H604.985L606.307 504.942H606.854C607.628 503.696 608.584 502.687 609.723 501.913C610.883 501.14 612.161 500.57 613.558 500.205C614.976 499.84 616.437 499.657 617.94 499.657ZM651.392 552.219C646.364 552.219 642.519 551.338 639.854 549.576C637.212 547.836 635.891 545.387 635.891 542.229C635.891 540.059 636.567 538.243 637.921 536.782C639.274 535.321 641.262 534.279 643.883 533.656C642.873 533.227 641.992 532.528 641.24 531.562C640.488 530.573 640.112 529.531 640.112 528.436C640.112 527.061 640.51 525.922 641.305 525.02C642.1 524.096 643.249 523.193 644.753 522.312C642.862 521.496 641.358 520.186 640.241 518.381C639.146 516.576 638.598 514.449 638.598 512C638.598 509.379 639.167 507.155 640.306 505.329C641.466 503.481 643.142 502.074 645.333 501.107C647.546 500.141 650.231 499.657 653.39 499.657C654.056 499.657 654.829 499.7 655.71 499.786C656.591 499.872 657.396 499.969 658.127 500.076C658.879 500.184 659.384 500.27 659.642 500.334H672.21V505.329L666.57 506.779C667.086 507.574 667.473 508.423 667.73 509.325C667.988 510.228 668.117 511.184 668.117 512.193C668.117 516.061 666.764 519.079 664.057 521.249C661.371 523.397 657.633 524.472 652.842 524.472C651.703 524.407 650.629 524.321 649.619 524.214C649.125 524.601 648.749 525.009 648.491 525.438C648.233 525.868 648.104 526.319 648.104 526.792C648.104 527.265 648.298 527.662 648.685 527.984C649.093 528.285 649.694 528.521 650.489 528.693C651.306 528.844 652.315 528.919 653.519 528.919H659.642C663.595 528.919 666.603 529.768 668.665 531.465C670.749 533.162 671.791 535.654 671.791 538.941C671.791 543.152 670.029 546.418 666.506 548.738C663.004 551.059 657.966 552.219 651.392 552.219ZM651.811 545.806C654.152 545.806 656.161 545.58 657.837 545.129C659.534 544.699 660.834 544.076 661.736 543.26C662.639 542.465 663.09 541.509 663.09 540.392C663.09 539.489 662.821 538.77 662.284 538.232C661.769 537.717 660.974 537.352 659.899 537.137C658.847 536.922 657.493 536.814 655.839 536.814H650.747C649.544 536.814 648.459 537.008 647.492 537.395C646.547 537.781 645.795 538.318 645.236 539.006C644.678 539.715 644.398 540.531 644.398 541.455C644.398 542.809 645.043 543.872 646.332 544.646C647.643 545.419 649.469 545.806 651.811 545.806ZM653.39 518.478C655.237 518.478 656.591 517.908 657.45 516.77C658.31 515.631 658.739 514.084 658.739 512.129C658.739 509.959 658.288 508.337 657.386 507.263C656.505 506.167 655.173 505.619 653.39 505.619C651.585 505.619 650.231 506.167 649.329 507.263C648.427 508.337 647.976 509.959 647.976 512.129C647.976 514.084 648.416 515.631 649.297 516.77C650.199 517.908 651.563 518.478 653.39 518.478ZM708.594 536.363H675.658V529.435L687.485 517.479C689.87 515.029 691.782 512.988 693.222 511.355C694.683 509.701 695.735 508.197 696.38 506.844C697.046 505.49 697.379 504.04 697.379 502.493C697.379 500.624 696.853 499.228 695.8 498.304C694.769 497.358 693.383 496.886 691.643 496.886C689.816 496.886 688.044 497.305 686.325 498.143C684.606 498.98 682.812 500.173 680.943 501.72L675.529 495.307C676.883 494.146 678.312 493.051 679.815 492.02C681.341 490.988 683.103 490.161 685.101 489.538C687.12 488.894 689.537 488.571 692.352 488.571C695.445 488.571 698.099 489.13 700.312 490.247C702.546 491.364 704.265 492.89 705.468 494.823C706.671 496.735 707.272 498.905 707.272 501.333C707.272 503.933 706.757 506.307 705.726 508.455C704.694 510.604 703.19 512.73 701.214 514.836C699.259 516.941 696.896 519.272 694.124 521.829L688.065 527.533V527.984H708.594V536.363Z" fill="#575757"/>
<path d="M440.864 774.623C445.562 774.623 448.99 775.544 451.148 777.387C453.323 779.213 454.411 781.836 454.411 785.256C454.411 786.8 454.153 788.269 453.639 789.664C453.141 791.042 452.327 792.262 451.198 793.324C450.069 794.37 448.583 795.2 446.741 795.814C444.915 796.412 442.673 796.711 440.017 796.711H435.584V811.03H431.351V774.623H440.864ZM440.465 778.233H435.584V793.075H439.544C441.868 793.075 443.802 792.826 445.346 792.328C446.907 791.83 448.077 791.025 448.857 789.913C449.638 788.784 450.028 787.29 450.028 785.43C450.028 783.006 449.256 781.205 447.712 780.026C446.168 778.831 443.752 778.233 440.465 778.233ZM471.618 783.289C474.872 783.289 477.288 784.019 478.865 785.48C480.442 786.941 481.23 789.273 481.23 792.478V811.03H478.217L477.42 806.996H477.221C476.458 807.992 475.661 808.83 474.831 809.511C474 810.175 473.038 810.681 471.942 811.03C470.863 811.362 469.535 811.528 467.958 811.528C466.297 811.528 464.82 811.237 463.525 810.656C462.247 810.075 461.234 809.195 460.487 808.017C459.756 806.838 459.391 805.344 459.391 803.534C459.391 800.812 460.47 798.72 462.628 797.259C464.787 795.798 468.074 795.001 472.49 794.868L477.196 794.669V793C477.196 790.643 476.69 788.991 475.677 788.045C474.665 787.099 473.237 786.625 471.394 786.625C469.966 786.625 468.605 786.833 467.31 787.248C466.015 787.663 464.787 788.153 463.625 788.717L462.354 785.58C463.583 784.949 464.994 784.409 466.588 783.961C468.182 783.513 469.858 783.289 471.618 783.289ZM477.146 797.583L472.988 797.757C469.584 797.89 467.186 798.446 465.791 799.425C464.396 800.405 463.699 801.791 463.699 803.584C463.699 805.145 464.172 806.298 465.119 807.045C466.065 807.792 467.318 808.166 468.879 808.166C471.303 808.166 473.287 807.494 474.831 806.149C476.375 804.804 477.146 802.787 477.146 800.098V797.583ZM502.148 783.239C502.696 783.239 503.269 783.272 503.867 783.338C504.464 783.388 504.996 783.463 505.46 783.562L504.938 787.397C504.489 787.281 503.991 787.19 503.443 787.124C502.896 787.057 502.381 787.024 501.899 787.024C500.804 787.024 499.766 787.248 498.787 787.696C497.824 788.128 496.977 788.759 496.247 789.589C495.516 790.402 494.943 791.39 494.528 792.552C494.113 793.698 493.906 794.976 493.906 796.387V811.03H489.747V783.737H493.184L493.632 788.767H493.806C494.371 787.754 495.051 786.833 495.848 786.003C496.645 785.156 497.566 784.484 498.612 783.986C499.675 783.488 500.854 783.239 502.148 783.239ZM520.825 783.289C524.079 783.289 526.495 784.019 528.072 785.48C529.649 786.941 530.438 789.273 530.438 792.478V811.03H527.424L526.627 806.996H526.428C525.665 807.992 524.868 808.83 524.038 809.511C523.208 810.175 522.245 810.681 521.149 811.03C520.07 811.362 518.742 811.528 517.165 811.528C515.504 811.528 514.027 811.237 512.732 810.656C511.454 810.075 510.441 809.195 509.694 808.017C508.963 806.838 508.598 805.344 508.598 803.534C508.598 800.812 509.677 798.72 511.835 797.259C513.994 795.798 517.281 795.001 521.697 794.868L526.403 794.669V793C526.403 790.643 525.897 788.991 524.884 788.045C523.872 787.099 522.444 786.625 520.601 786.625C519.173 786.625 517.812 786.833 516.517 787.248C515.222 787.663 513.994 788.153 512.832 788.717L511.562 785.58C512.79 784.949 514.201 784.409 515.795 783.961C517.389 783.513 519.065 783.289 520.825 783.289ZM526.354 797.583L522.195 797.757C518.792 797.89 516.393 798.446 514.998 799.425C513.604 800.405 512.906 801.791 512.906 803.584C512.906 805.145 513.379 806.298 514.326 807.045C515.272 807.792 516.525 808.166 518.086 808.166C520.51 808.166 522.494 807.494 524.038 806.149C525.582 804.804 526.354 802.787 526.354 800.098V797.583ZM546.574 823.282C542.988 823.282 540.224 822.609 538.282 821.265C536.339 819.937 535.368 818.069 535.368 815.662C535.368 813.952 535.908 812.491 536.987 811.279C538.083 810.067 539.593 809.262 541.519 808.863C540.805 808.531 540.191 808.033 539.676 807.369C539.178 806.705 538.929 805.941 538.929 805.078C538.929 804.082 539.203 803.21 539.751 802.463C540.315 801.7 541.17 800.969 542.316 800.272C540.888 799.691 539.726 798.711 538.83 797.333C537.95 795.939 537.51 794.32 537.51 792.478C537.51 790.519 537.917 788.85 538.73 787.472C539.543 786.078 540.722 785.015 542.266 784.285C543.81 783.554 545.678 783.189 547.869 783.189C548.351 783.189 548.832 783.214 549.313 783.264C549.812 783.297 550.285 783.355 550.733 783.438C551.181 783.504 551.571 783.587 551.903 783.687H561.267V786.352L556.236 786.974C556.734 787.622 557.149 788.402 557.481 789.315C557.813 790.228 557.979 791.241 557.979 792.353C557.979 795.076 557.058 797.242 555.215 798.853C553.373 800.446 550.841 801.243 547.62 801.243C546.856 801.243 546.076 801.177 545.279 801.044C544.466 801.492 543.843 801.99 543.412 802.538C542.997 803.086 542.789 803.717 542.789 804.431C542.789 804.962 542.947 805.385 543.262 805.701C543.594 806.016 544.067 806.249 544.682 806.398C545.296 806.531 546.035 806.597 546.898 806.597H551.704C554.676 806.597 556.95 807.22 558.527 808.465C560.121 809.71 560.918 811.528 560.918 813.918C560.918 816.94 559.689 819.256 557.232 820.866C554.775 822.477 551.223 823.282 546.574 823.282ZM546.699 820.044C548.957 820.044 550.824 819.812 552.302 819.347C553.796 818.899 554.908 818.243 555.639 817.38C556.386 816.533 556.759 815.521 556.759 814.342C556.759 813.246 556.51 812.416 556.012 811.852C555.514 811.304 554.784 810.938 553.821 810.756C552.858 810.557 551.679 810.457 550.285 810.457H545.553C544.325 810.457 543.254 810.648 542.341 811.03C541.428 811.412 540.722 811.976 540.224 812.723C539.743 813.47 539.502 814.4 539.502 815.512C539.502 816.99 540.125 818.11 541.37 818.874C542.615 819.654 544.391 820.044 546.699 820.044ZM547.77 798.23C549.745 798.23 551.231 797.732 552.227 796.736C553.223 795.74 553.721 794.287 553.721 792.378C553.721 790.336 553.215 788.809 552.202 787.796C551.189 786.767 549.695 786.252 547.72 786.252C545.827 786.252 544.366 786.783 543.337 787.846C542.324 788.892 541.818 790.427 541.818 792.453C541.818 794.312 542.333 795.74 543.362 796.736C544.391 797.732 545.86 798.23 547.77 798.23ZM579.047 783.239C579.595 783.239 580.167 783.272 580.765 783.338C581.363 783.388 581.894 783.463 582.359 783.562L581.836 787.397C581.388 787.281 580.89 787.19 580.342 787.124C579.794 787.057 579.279 787.024 578.798 787.024C577.702 787.024 576.665 787.248 575.685 787.696C574.722 788.128 573.875 788.759 573.145 789.589C572.415 790.402 571.842 791.39 571.427 792.552C571.012 793.698 570.804 794.976 570.804 796.387V811.03H566.646V783.737H570.082L570.53 788.767H570.705C571.269 787.754 571.95 786.833 572.747 786.003C573.543 785.156 574.465 784.484 575.511 783.986C576.573 783.488 577.752 783.239 579.047 783.239ZM597.724 783.289C600.978 783.289 603.393 784.019 604.97 785.48C606.547 786.941 607.336 789.273 607.336 792.478V811.03H604.323L603.526 806.996H603.327C602.563 807.992 601.766 808.83 600.936 809.511C600.106 810.175 599.143 810.681 598.047 811.03C596.968 811.362 595.64 811.528 594.063 811.528C592.403 811.528 590.925 811.237 589.63 810.656C588.352 810.075 587.339 809.195 586.592 808.017C585.862 806.838 585.497 805.344 585.497 803.534C585.497 800.812 586.576 798.72 588.734 797.259C590.892 795.798 594.179 795.001 598.595 794.868L603.302 794.669V793C603.302 790.643 602.795 788.991 601.783 788.045C600.77 787.099 599.342 786.625 597.5 786.625C596.072 786.625 594.71 786.833 593.416 787.248C592.121 787.663 590.892 788.153 589.73 788.717L588.46 785.58C589.688 784.949 591.1 784.409 592.693 783.961C594.287 783.513 595.964 783.289 597.724 783.289ZM603.252 797.583L599.093 797.757C595.69 797.89 593.291 798.446 591.896 799.425C590.502 800.405 589.805 801.791 589.805 803.584C589.805 805.145 590.278 806.298 591.224 807.045C592.17 807.792 593.424 808.166 594.984 808.166C597.408 808.166 599.392 807.494 600.936 806.149C602.48 804.804 603.252 802.787 603.252 800.098V797.583ZM628.677 783.239C632.081 783.239 634.795 784.409 636.82 786.75C638.846 789.091 639.858 792.61 639.858 797.309C639.858 800.413 639.394 803.02 638.464 805.128C637.534 807.236 636.223 808.83 634.529 809.909C632.853 810.988 630.869 811.528 628.578 811.528C627.133 811.528 625.863 811.337 624.768 810.955C623.672 810.573 622.734 810.059 621.954 809.411C621.173 808.764 620.526 808.058 620.011 807.294H619.712C619.762 807.942 619.82 808.722 619.887 809.635C619.97 810.548 620.011 811.345 620.011 812.026V823.232H615.853V783.737H619.264L619.812 787.771H620.011C620.542 786.941 621.19 786.186 621.954 785.505C622.717 784.808 623.647 784.26 624.743 783.861C625.855 783.446 627.167 783.239 628.677 783.239ZM627.955 786.725C626.062 786.725 624.535 787.09 623.373 787.821C622.228 788.551 621.389 789.647 620.858 791.108C620.327 792.552 620.044 794.37 620.011 796.562V797.358C620.011 799.666 620.26 801.617 620.758 803.21C621.273 804.804 622.111 806.016 623.273 806.846C624.452 807.676 626.029 808.091 628.005 808.091C629.698 808.091 631.109 807.635 632.238 806.722C633.367 805.809 634.206 804.539 634.753 802.912C635.318 801.268 635.6 799.384 635.6 797.259C635.6 794.038 634.969 791.481 633.708 789.589C632.462 787.68 630.545 786.725 627.955 786.725ZM651.214 772.282V783.861C651.214 784.525 651.197 785.198 651.164 785.878C651.131 786.542 651.073 787.157 650.99 787.721H651.264C651.828 786.758 652.542 785.953 653.405 785.306C654.285 784.642 655.281 784.144 656.394 783.812C657.506 783.463 658.685 783.289 659.93 783.289C662.121 783.289 663.947 783.637 665.408 784.334C666.886 785.032 667.99 786.111 668.72 787.572C669.467 789.033 669.841 790.925 669.841 793.25V811.03H665.757V793.523C665.757 791.249 665.234 789.547 664.188 788.418C663.159 787.29 661.573 786.725 659.432 786.725C657.406 786.725 655.788 787.115 654.576 787.896C653.38 788.659 652.517 789.788 651.986 791.282C651.471 792.776 651.214 794.603 651.214 796.761V811.03H647.08V772.282H651.214Z" fill="#575757"/>
<path d="M583.786 606.096C583.786 608.57 583.362 610.72 582.516 612.546C581.686 614.372 580.474 615.783 578.88 616.779C577.286 617.792 575.352 618.298 573.078 618.298C570.587 618.298 568.438 617.759 566.628 616.68C564.835 615.601 563.449 614.048 562.469 612.023C561.506 609.998 561.025 607.574 561.025 604.751C561.025 602.859 561.191 601.099 561.523 599.472C561.855 597.845 562.353 596.476 563.017 595.363H566.952C566.221 596.575 565.64 598.044 565.208 599.771C564.777 601.498 564.561 603.174 564.561 604.801C564.561 606.644 564.852 608.254 565.433 609.632C566.03 611.027 566.927 612.106 568.122 612.87C569.334 613.65 570.853 614.04 572.679 614.04C575.103 614.04 576.971 613.293 578.282 611.799C579.61 610.321 580.274 607.98 580.274 604.776C580.274 603.747 580.191 602.618 580.025 601.39C579.859 600.161 579.677 599.148 579.478 598.352L580.847 596.26L597.93 597.654V615.758H594.145V601.19L583.163 600.269C583.296 600.9 583.429 601.713 583.562 602.709C583.711 603.706 583.786 604.834 583.786 606.096ZM598.453 636.905C598.453 639.013 598.121 640.881 597.457 642.508C596.793 644.135 595.813 645.405 594.519 646.318C593.24 647.247 591.663 647.712 589.787 647.712C588.31 647.712 587.015 647.389 585.902 646.741C584.807 646.11 583.844 645.255 583.014 644.176C582.2 643.097 581.47 641.902 580.822 640.59C580.108 642.151 579.303 643.554 578.407 644.799C577.51 646.06 576.456 647.057 575.244 647.787C574.032 648.517 572.596 648.883 570.936 648.883C568.894 648.883 567.126 648.385 565.632 647.389C564.154 646.409 563.017 645.031 562.22 643.255C561.423 641.478 561.025 639.395 561.025 637.004C561.025 634.431 561.407 632.24 562.17 630.43C562.951 628.637 564.063 627.267 565.507 626.321C566.968 625.392 568.72 624.927 570.762 624.927C572.438 624.927 573.891 625.284 575.12 625.997C576.365 626.711 577.436 627.658 578.332 628.836C579.229 630.015 579.984 631.302 580.598 632.696C581.262 631.484 582.018 630.372 582.864 629.359C583.711 628.363 584.699 627.566 585.828 626.969C586.973 626.388 588.301 626.097 589.812 626.097C591.655 626.097 593.215 626.562 594.494 627.492C595.789 628.438 596.768 629.725 597.432 631.351C598.113 632.995 598.453 634.846 598.453 636.905ZM570.737 628.986C568.877 628.986 567.342 629.642 566.13 630.953C564.935 632.265 564.337 634.248 564.337 636.905C564.337 639.428 564.935 641.379 566.13 642.757C567.342 644.135 568.927 644.824 570.886 644.824C572.098 644.824 573.161 644.508 574.074 643.877C575.003 643.246 575.833 642.35 576.564 641.188C577.294 640.026 577.958 638.656 578.556 637.079L578.88 636.183C578.249 634.655 577.543 633.352 576.763 632.273C576 631.21 575.128 630.397 574.148 629.832C573.169 629.268 572.032 628.986 570.737 628.986ZM595.066 636.855C595.066 634.896 594.593 633.294 593.647 632.049C592.717 630.804 591.373 630.181 589.613 630.181C588.351 630.181 587.28 630.48 586.4 631.078C585.537 631.692 584.79 632.522 584.159 633.568C583.545 634.614 582.972 635.784 582.441 637.079C582.972 638.341 583.553 639.461 584.184 640.441C584.832 641.42 585.595 642.192 586.475 642.757C587.355 643.321 588.409 643.603 589.638 643.603C591.397 643.603 592.742 642.981 593.672 641.736C594.602 640.507 595.066 638.88 595.066 636.855ZM589.314 669.83C589.314 673.233 588.144 675.948 585.803 677.973C583.462 679.998 579.942 681.011 575.244 681.011C572.14 681.011 569.533 680.546 567.425 679.617C565.316 678.687 563.723 677.375 562.644 675.682C561.564 674.005 561.025 672.021 561.025 669.73C561.025 668.286 561.216 667.016 561.598 665.92C561.979 664.825 562.494 663.887 563.142 663.106C563.789 662.326 564.495 661.679 565.258 661.164V660.865C564.611 660.915 563.831 660.973 562.917 661.039C562.004 661.122 561.208 661.164 560.527 661.164H549.321V657.005H588.816V660.417L584.782 660.965V661.164C585.612 661.695 586.367 662.343 587.048 663.106C587.745 663.87 588.293 664.8 588.691 665.895C589.106 667.008 589.314 668.319 589.314 669.83ZM585.828 669.108C585.828 667.215 585.462 665.688 584.732 664.526C584.001 663.38 582.906 662.542 581.445 662.011C580 661.479 578.183 661.197 575.991 661.164H575.194C572.887 661.164 570.936 661.413 569.342 661.911C567.749 662.426 566.537 663.264 565.707 664.426C564.876 665.605 564.461 667.182 564.461 669.158C564.461 670.851 564.918 672.262 565.831 673.391C566.744 674.52 568.014 675.358 569.641 675.906C571.285 676.471 573.169 676.753 575.294 676.753C578.515 676.753 581.071 676.122 582.964 674.86C584.873 673.615 585.828 671.698 585.828 669.108ZM575.493 695.832L588.816 686.394V691.126L578.307 698.322L588.816 705.494V710.176L575.493 700.738L561.523 710.699V705.967L572.654 698.322L561.523 690.628V685.946L575.493 695.832Z" fill="#575757"/>
<path d="M572.185 279.544L608.005 295.951V274.158H612.161V300.818H608.661L572.185 284.521V279.544ZM592.228 333.937C588.983 333.937 586.084 333.691 583.532 333.199C580.98 332.707 578.82 331.932 577.052 330.875C575.284 329.818 573.935 328.45 573.005 326.773C572.093 325.096 571.638 323.082 571.638 320.73C571.638 317.759 572.449 315.298 574.071 313.348C575.694 311.415 578.036 309.966 581.099 309C584.179 308.052 587.889 307.578 592.228 307.578C596.493 307.578 600.157 308.006 603.22 308.863C606.3 309.738 608.661 311.142 610.302 313.074C611.961 315.006 612.79 317.558 612.79 320.73C612.79 323.738 611.97 326.217 610.329 328.168C608.707 330.118 606.355 331.568 603.274 332.516C600.212 333.463 596.53 333.937 592.228 333.937ZM592.228 312.144C588.509 312.144 585.41 312.427 582.931 312.992C580.451 313.557 578.592 314.469 577.353 315.726C576.131 317.003 575.521 318.67 575.521 320.73C575.521 322.79 576.131 324.449 577.353 325.707C578.574 326.983 580.424 327.904 582.903 328.469C585.382 329.052 588.491 329.344 592.228 329.344C595.892 329.344 598.954 329.061 601.415 328.496C603.894 327.931 605.754 327.019 606.993 325.762C608.251 324.504 608.88 322.827 608.88 320.73C608.88 318.634 608.251 316.957 606.993 315.699C605.754 314.441 603.894 313.53 601.415 312.965C598.954 312.418 595.892 312.144 592.228 312.144ZM602.7 356.776C602.7 360.513 601.415 363.493 598.845 365.717C596.274 367.941 592.41 369.053 587.251 369.053C583.842 369.053 580.98 368.543 578.665 367.522C576.35 366.501 574.6 365.061 573.415 363.201C572.23 361.36 571.638 359.182 571.638 356.666C571.638 355.08 571.847 353.686 572.267 352.483C572.686 351.28 573.251 350.25 573.962 349.393C574.673 348.536 575.448 347.825 576.286 347.26V346.932C575.575 346.987 574.718 347.05 573.716 347.123C572.713 347.214 571.838 347.26 571.091 347.26H558.786V342.694H602.153V346.44L597.724 347.041V347.26C598.635 347.843 599.465 348.554 600.212 349.393C600.978 350.231 601.579 351.252 602.017 352.455C602.472 353.677 602.7 355.117 602.7 356.776ZM598.872 355.983C598.872 353.905 598.471 352.228 597.669 350.951C596.867 349.694 595.664 348.773 594.06 348.19C592.474 347.606 590.478 347.297 588.071 347.26H587.196C584.662 347.26 582.521 347.533 580.771 348.08C579.021 348.645 577.69 349.566 576.778 350.842C575.867 352.136 575.411 353.868 575.411 356.037C575.411 357.897 575.912 359.446 576.915 360.686C577.918 361.925 579.312 362.846 581.099 363.448C582.903 364.067 584.972 364.377 587.306 364.377C590.842 364.377 593.649 363.685 595.728 362.299C597.824 360.932 598.872 358.826 598.872 355.983ZM587.524 385.219L602.153 374.856V380.051L590.614 387.954L602.153 395.829V400.969L587.524 390.606L572.185 401.544V396.348L584.407 387.954L572.185 379.505V374.364L587.524 385.219Z" fill="#575757"/>
<path d="M540.857 739.957L549.517 724.957H532.197L540.857 739.957ZM540.857 563.236L532.197 578.236H549.517L540.857 563.236ZM542.357 726.457V576.736H539.357V726.457H542.357Z" fill="#575757"/>
<path d="M543.857 456.664L552.517 441.664H535.197L543.857 456.664ZM543.857 215.935L535.197 230.935H552.517L543.857 215.935ZM545.357 443.164V229.435H542.357V443.164H545.357Z" fill="#575757"/>
</svg>
