<svg width="651" height="127" viewBox="0 0 651 127" fill="none" xmlns="http://www.w3.org/2000/svg">
<path d="M166.331 92.4299V44.4299H200.081V54.9299H179.363V63.1799H198.019V73.6799H179.363V92.4299H166.331ZM251.374 68.4299C251.374 73.7737 250.335 78.2815 248.257 81.9534C246.179 85.6096 243.374 88.3831 239.843 90.2737C236.312 92.1487 232.374 93.0862 228.03 93.0862C223.655 93.0862 219.702 92.1409 216.171 90.2502C212.655 88.344 209.859 85.5627 207.78 81.9065C205.718 78.2346 204.687 73.7424 204.687 68.4299C204.687 63.0862 205.718 58.5862 207.78 54.9299C209.859 51.2581 212.655 48.4846 216.171 46.6096C219.702 44.719 223.655 43.7737 228.03 43.7737C232.374 43.7737 236.312 44.719 239.843 46.6096C243.374 48.4846 246.179 51.2581 248.257 54.9299C250.335 58.5862 251.374 63.0862 251.374 68.4299ZM237.968 68.4299C237.968 65.5549 237.585 63.1331 236.82 61.1643C236.07 59.1799 234.952 57.6799 233.468 56.6643C231.999 55.6331 230.187 55.1174 228.03 55.1174C225.874 55.1174 224.054 55.6331 222.57 56.6643C221.101 57.6799 219.984 59.1799 219.218 61.1643C218.468 63.1331 218.093 65.5549 218.093 68.4299C218.093 71.3049 218.468 73.7346 219.218 75.719C219.984 77.6877 221.101 79.1877 222.57 80.219C224.054 81.2346 225.874 81.7424 228.03 81.7424C230.187 81.7424 231.999 81.2346 233.468 80.219C234.952 79.1877 236.07 77.6877 236.82 75.719C237.585 73.7346 237.968 71.3049 237.968 68.4299ZM257.404 92.4299V44.4299H278.122C281.685 44.4299 284.802 45.0784 287.474 46.3752C290.146 47.6721 292.224 49.5393 293.708 51.9768C295.193 54.4143 295.935 57.3362 295.935 60.7424C295.935 64.1799 295.169 67.0784 293.638 69.4377C292.122 71.7971 289.989 73.5784 287.239 74.7815C284.505 75.9846 281.31 76.5862 277.654 76.5862H265.279V66.4612H275.029C276.56 66.4612 277.864 66.2737 278.943 65.8987C280.036 65.5081 280.872 64.8909 281.45 64.0471C282.044 63.2034 282.341 62.1018 282.341 60.7424C282.341 59.3674 282.044 58.2502 281.45 57.3909C280.872 56.5159 280.036 55.8752 278.943 55.469C277.864 55.0471 276.56 54.8362 275.029 54.8362H270.435V92.4299H257.404ZM285.529 70.3987L297.529 92.4299H283.372L271.654 70.3987H285.529ZM301.489 92.4299V44.4299H314.521V63.8362H315.177L329.614 44.4299H344.802L328.583 65.8049L345.177 92.4299H329.614L318.833 74.4299L314.521 80.0549V92.4299H301.489ZM348.669 92.4299V44.4299H369.388C372.95 44.4299 376.068 45.1331 378.739 46.5393C381.411 47.9456 383.489 49.9221 384.974 52.469C386.458 55.0159 387.2 57.9924 387.2 61.3987C387.2 64.8362 386.435 67.8127 384.904 70.3284C383.388 72.844 381.255 74.7815 378.505 76.1409C375.771 77.5002 372.575 78.1799 368.919 78.1799H356.544V68.0549H366.294C367.825 68.0549 369.13 67.7893 370.208 67.2581C371.302 66.7112 372.138 65.9377 372.716 64.9377C373.31 63.9377 373.607 62.7581 373.607 61.3987C373.607 60.0237 373.31 58.8518 372.716 57.8831C372.138 56.8987 371.302 56.1487 370.208 55.6331C369.13 55.1018 367.825 54.8362 366.294 54.8362H361.7V92.4299H348.669ZM438.482 68.4299C438.482 73.7737 437.443 78.2815 435.364 81.9534C433.286 85.6096 430.482 88.3831 426.95 90.2737C423.419 92.1487 419.482 93.0862 415.138 93.0862C410.763 93.0862 406.81 92.1409 403.279 90.2502C399.763 88.344 396.966 85.5627 394.888 81.9065C392.825 78.2346 391.794 73.7424 391.794 68.4299C391.794 63.0862 392.825 58.5862 394.888 54.9299C396.966 51.2581 399.763 48.4846 403.279 46.6096C406.81 44.719 410.763 43.7737 415.138 43.7737C419.482 43.7737 423.419 44.719 426.95 46.6096C430.482 48.4846 433.286 51.2581 435.364 54.9299C437.443 58.5862 438.482 63.0862 438.482 68.4299ZM425.075 68.4299C425.075 65.5549 424.693 63.1331 423.927 61.1643C423.177 59.1799 422.06 57.6799 420.575 56.6643C419.107 55.6331 417.294 55.1174 415.138 55.1174C412.982 55.1174 411.161 55.6331 409.677 56.6643C408.208 57.6799 407.091 59.1799 406.325 61.1643C405.575 63.1331 405.2 65.5549 405.2 68.4299C405.2 71.3049 405.575 73.7346 406.325 75.719C407.091 77.6877 408.208 79.1877 409.677 80.219C411.161 81.2346 412.982 81.7424 415.138 81.7424C417.294 81.7424 419.107 81.2346 420.575 80.219C422.06 79.1877 423.177 77.6877 423.927 75.719C424.693 73.7346 425.075 71.3049 425.075 68.4299ZM457.542 44.4299V92.4299H444.511V44.4299H457.542ZM505.249 44.4299V92.4299H494.374L477.03 67.2112H476.749V92.4299H463.718V44.4299H474.78L491.843 69.5549H492.218V44.4299H505.249ZM510.101 54.9299V44.4299H551.82V54.9299H537.382V92.4299H524.538V54.9299H510.101Z" fill="black"/>
<path d="M103.012 80.088C90.9401 101.172 74.1018 116.392 52.0961 125.923C49.1061 127.218 47.0459 126.971 44.5199 124.861C19.9619 104.34 5.26415 78.3125 0.466541 46.6883C-0.267193 41.8517 2.19576 39.0828 9.97264 35.8818C11.652 61.1067 20.4191 83.4618 36.8535 102.711C37.6099 103.597 38.3568 104.498 39.1808 105.319C51.8648 117.954 47.4555 118.027 63.253 107.885C84.797 94.0525 98.1127 74.0231 103.354 48.81C103.585 47.6995 104.041 46.6357 104.396 45.5365C114.321 49.5139 114.767 49.9877 111.496 59.4983C109.126 66.3906 105.976 73.0149 103.012 80.088Z" fill="#7FB042"/>
<path d="M47.8408 30.6216C43.9001 31.6121 40.3713 32.4895 36.6496 33.4149C36.4707 32.5625 36.2223 31.9473 36.2312 31.3358C36.3826 20.9109 34.9542 22.7339 44.472 20.7481C75.4812 14.278 103.862 20.5457 129.582 39.1328C132.753 41.4243 133.673 43.8292 133.081 47.5144C128.01 79.097 113.219 105.088 88.3406 125.204C86.955 126.324 84.181 126.376 82.2376 125.992C79.867 125.524 77.6915 124.068 74.8717 122.784C76.3218 121.583 77.3796 120.637 78.5063 119.783C101.474 102.364 115.845 79.5528 121.762 51.3268C122.453 48.028 121.761 46.2214 118.932 44.3902C97.1955 30.3238 73.601 26.0281 47.8408 30.6216Z" fill="#7FB043"/>
<path d="M57.1455 10.9571C48.8671 12.5015 41.0487 14.0235 33.2214 15.4985C30.1559 16.0762 29.0444 17.8071 28.7737 20.9564C26.2368 50.4806 35.6377 75.6092 56.2787 96.6764C57.4307 97.8523 58.7541 98.8602 59.807 99.7797C59.5828 100.568 59.5939 101.002 59.4068 101.119C49.2475 107.47 51.9455 107.804 44.4371 99.2982C22.8007 74.7875 14.4601 46.1622 19.0833 13.7181C19.589 10.1697 21.1002 8.59536 24.2817 7.47823C51.091 -1.9352 78.0162 -2.54426 105.106 6.12054C114.928 9.2624 115.435 10.0666 114.908 21.0561C96.5731 12.978 77.5859 9.01606 57.1455 10.9571Z" fill="#7FB042"/>
</svg>
