 <svg  version="1.0" xmlns="http://www.w3.org/2000/svg"  width="300.000000pt" height="300.000000pt" viewBox="0 0 300.000000 300.000000"  preserveAspectRatio="xMidYMid meet">  <g transform="translate(0.000000,300.000000) scale(0.100000,-0.100000)" fill="#ffffff" stroke="none"> <path d="M42 2990 c-19 -8 -49 -57 -39 -66 2 -2 21 14 42 36 39 40 39 46 -3 30z"/> <path d="M263 2976 c17 -16 27 -35 27 -53 0 -16 7 -39 16 -51 l15 -22 508 0 c479 0 509 1 524 18 10 10 17 31 17 47 0 18 11 40 28 58 l27 30 -30 -7 c-39 -9 -55 -31 -55 -78 l0 -38 -510 0 -510 0 0 38 c0 47 -16 69 -55 77 l-30 6 28 -25z"/> <path d="M1603 2973 c18 -19 27 -40 27 -60 0 -64 -10 -63 547 -63 l502 0 15 22 c9 12 16 34 16 47 0 14 12 38 28 54 l27 30 -30 -7 c-39 -9 -55 -31 -55 -78 l0 -38 -510 0 -510 0 0 38 c0 46 -15 67 -55 77 l-30 7 28 -29z"/> <path d="M2955 2960 c21 -22 40 -38 42 -36 10 10 -20 58 -42 66 -41 16 -41 12 0 -30z"/> <path d="M82 2928 c-7 -7 -12 -44 -12 -95 0 -96 6 -103 92 -103 83 0 98 16 98 101 0 102 -6 109 -93 109 -44 0 -78 -5 -85 -12z m152 -89 l-1 -72 -72 -1 -71 -1 0 73 0 72 73 0 72 0 -1 -71z"/> <path d="M1416 2924 c-12 -11 -16 -35 -16 -85 0 -92 16 -109 100 -109 84 0 100 17 100 108 0 90 -12 102 -103 102 -46 0 -70 -5 -81 -16z m156 -86 l-3 -73 -69 0 -69 0 -3 73 -3 72 75 0 75 0 -3 -72z"/> <path d="M2750 2921 c-5 -11 -10 -51 -10 -90 0 -86 15 -101 100 -101 80 0 89 10 91 102 3 102 -3 108 -97 108 -62 0 -75 -3 -84 -19z m160 -83 l0 -73 -71 1 -72 1 -1 72 -1 71 73 0 72 0 0 -72z"/> <path d="M309 2809 c-11 -11 -19 -30 -17 -43 4 -31 -19 -56 -51 -56 -15 0 -35 -6 -45 -13 -16 -12 -18 -44 -21 -402 -1 -215 -1 -447 2 -518 5 -138 6 -141 68 -148 17 -2 33 -8 37 -14 13 -17 9 -220 -4 -233 -7 -7 -26 -12 -44 -12 -61 0 -59 15 -59 -540 0 -555 -2 -540 59 -540 39 0 56 -15 56 -50 0 -14 7 -36 16 -48 l15 -22 509 0 509 0 15 22 c9 12 16 34 16 48 0 44 16 50 130 50 114 0 130 -6 130 -50 0 -14 7 -36 16 -48 l15 -22 509 0 509 0 15 22 c9 12 16 37 16 54 0 34 13 44 60 44 56 0 55 -11 55 540 0 551 1 540 -55 540 -59 0 -60 2 -60 131 l0 118 38 6 c67 11 66 9 73 156 4 74 7 249 7 389 0 140 -3 316 -7 390 -7 149 -1 138 -83 155 -24 5 -28 10 -28 38 0 18 -6 42 -14 53 -14 18 -32 19 -519 21 -491 2 -505 1 -526 -18 -11 -11 -21 -32 -21 -47 0 -46 -15 -52 -126 -52 -56 0 -109 3 -118 6 -10 4 -16 18 -16 40 0 21 -8 42 -20 54 -19 19 -33 20 -520 20 -492 0 -500 0 -521 -21z m1031 -49 c0 -70 20 -80 160 -80 140 0 160 10 160 80 l0 40 510 0 510 0 0 -40 c0 -53 27 -80 80 -80 l40 0 -1 -510 0 -510 -39 0 c-70 0 -80 -20 -80 -160 0 -140 10 -160 80 -160 l40 0 0 -510 -1 -510 -39 0 c-53 0 -80 -27 -80 -80 l0 -39 -510 0 -510 -1 0 40 c0 70 -20 80 -160 80 -140 0 -160 -10 -160 -80 l0 -40 -510 1 -510 0 0 39 c0 53 -27 80 -80 80 l-40 0 0 510 0 510 40 0 c70 0 80 20 80 160 0 140 -10 160 -80 160 l-40 0 0 510 0 510 40 0 c53 0 80 27 80 80 l0 40 510 0 510 0 0 -40z"/> <path d="M981 2487 c-76 -24 -118 -83 -356 -496 -146 -255 -230 -410 -237 -442 -20 -85 -6 -118 237 -540 242 -421 279 -472 362 -497 29 -9 174 -12 515 -12 536 0 535 0 605 73 53 55 256 408 251 438 -4 29 -33 47 -54 34 -9 -6 -48 -65 -88 -133 l-71 -122 -645 0 -645 0 -190 327 c-184 318 -190 330 -190 383 0 53 7 67 185 377 l185 322 168 1 167 0 12 26 c11 23 10 29 -12 46 -22 18 -37 20 -152 16 -71 -1 -128 0 -128 3 0 17 63 90 89 104 45 23 977 23 1022 0 26 -14 89 -87 89 -104 0 -3 -168 -5 -373 -3 -356 3 -375 2 -398 -16 -21 -17 -22 -23 -11 -46 l12 -26 412 0 413 0 26 -48 c14 -26 97 -171 185 -322 199 -344 195 -323 87 -510 -40 -69 -73 -131 -73 -137 0 -7 11 -20 25 -29 21 -14 28 -14 41 -3 28 23 153 245 165 292 13 54 6 120 -19 168 -91 173 -453 783 -485 816 -70 73 -68 73 -611 72 -314 -1 -493 -5 -515 -12z m996 -23 c44 -9 91 -36 122 -69 16 -16 102 -158 191 -315 90 -157 182 -316 205 -355 78 -129 85 -148 85 -226 0 -71 -1 -75 -68 -192 -62 -111 -84 -138 -99 -124 -3 3 24 57 59 119 79 138 86 158 77 224 -6 48 -71 169 -274 512 -5 10 -29 52 -53 94 -23 43 -50 82 -60 87 -9 5 -192 9 -411 10 -216 1 -398 4 -404 8 -26 16 45 22 220 18 282 -5 544 5 550 22 16 40 -64 136 -127 153 -27 7 -192 10 -513 8 l-472 -3 -35 -25 c-46 -32 -60 -46 -60 -59 0 -6 -4 -11 -9 -11 -5 0 -12 -12 -15 -27 -12 -46 8 -54 135 -54 106 0 153 -8 137 -25 -4 -3 -77 -7 -163 -8 -180 -2 -161 8 -229 -119 -21 -39 -44 -78 -50 -86 -13 -16 -68 -110 -93 -161 -10 -19 -21 -37 -24 -40 -3 -3 -8 -12 -12 -20 -4 -8 -11 -22 -16 -30 -92 -145 -115 -194 -119 -254 -4 -66 4 -92 57 -181 16 -27 36 -61 44 -75 7 -14 26 -47 42 -75 15 -27 31 -54 35 -60 8 -10 19 -28 123 -215 35 -63 73 -125 84 -137 l21 -21 643 3 c354 1 647 3 651 4 7 1 60 86 100 161 37 70 52 90 65 90 7 0 13 -4 13 -9 0 -12 -182 -332 -218 -382 -28 -40 -112 -91 -148 -89 -11 0 -233 2 -494 3 -526 3 -506 0 -567 70 -35 40 -460 772 -479 825 -17 47 -17 97 0 144 21 58 446 789 480 826 30 33 61 50 120 68 32 10 908 8 953 -2z"/> <path d="M1015 721 c-139 -7 -146 -13 -95 -85 32 -44 65 -66 100 -66 11 0 20 -5 20 -10 0 -12 882 -8 942 5 63 12 150 117 121 146 -11 11 -911 20 -1088 10z m1075 -28 c0 -15 -53 -74 -80 -88 -43 -22 -977 -22 -1020 0 -27 14 -80 73 -80 88 0 4 266 7 590 7 325 0 590 -3 590 -7z"/> <path d="M1016 657 c3 -10 9 -15 12 -12 3 3 0 11 -7 18 -10 9 -11 8 -5 -6z"/> <path d="M1220 2250 c0 -5 16 -10 35 -10 19 0 35 5 35 10 0 6 -16 10 -35 10 -19 0 -35 -4 -35 -10z"/> <path d="M885 2122 c-27 -44 -226 -389 -286 -497 -16 -27 -29 -56 -29 -64 0 -8 14 12 30 43 17 31 96 169 176 307 79 138 143 253 142 255 -2 2 -17 -18 -33 -44z"/> <path d="M1211 2044 c-17 -14 -36 -43 -42 -64 -10 -32 -9 -44 7 -77 35 -71 50 -74 372 -71 l284 3 34 37 c38 43 45 88 19 138 -30 57 -46 60 -359 60 l-284 0 -31 -26z m618 -19 c33 -16 41 -33 41 -80 0 -25 -8 -40 -31 -59 l-30 -26 -286 3 -285 2 -22 27 c-31 40 -28 94 8 125 27 23 28 23 302 23 222 0 280 -3 303 -15z"/> <path d="M1270 2003 c-40 -20 -49 -55 -25 -88 15 -19 30 -20 248 -23 128 -2 251 0 275 3 54 8 79 39 61 79 -7 14 -19 28 -28 30 -9 3 -124 7 -256 11 -219 6 -243 5 -275 -12z m528 -29 c18 -12 20 -18 12 -35 -10 -19 -20 -19 -277 -17 -244 3 -267 4 -277 21 -23 37 7 42 270 44 206 2 253 0 272 -13z"/> <path d="M717 1692 c-14 -16 -17 -45 -17 -190 0 -207 2 -212 101 -212 71 0 99 12 99 43 0 34 -19 47 -67 47 l-43 0 0 149 c0 123 -3 152 -16 165 -20 21 -37 20 -57 -2z m43 -155 c0 -159 8 -181 63 -184 21 0 41 -4 45 -8 12 -12 -20 -22 -61 -20 -23 2 -50 3 -59 4 -16 1 -18 16 -18 160 0 88 3 166 6 175 15 40 24 -6 24 -127z"/> <path d="M1118 1700 c-133 -41 -193 -186 -125 -302 79 -136 274 -137 353 -2 56 96 25 224 -69 278 -47 28 -118 39 -159 26z m135 -45 c18 -9 44 -33 60 -53 23 -30 27 -45 27 -100 0 -79 -24 -123 -84 -154 -73 -38 -148 -29 -214 25 -25 20 -52 86 -52 127 0 51 31 114 68 137 15 10 29 21 32 24 15 21 121 17 163 -6z"/> <path d="M1105 1631 c-11 -5 -31 -21 -45 -36 -22 -23 -25 -36 -25 -96 0 -67 1 -70 38 -104 21 -19 48 -36 60 -37 59 -5 74 -3 102 12 93 51 100 196 12 252 -25 16 -112 22 -142 9z m149 -50 c26 -27 31 -39 31 -81 0 -43 -5 -54 -33 -82 -28 -28 -39 -33 -82 -33 -43 0 -54 5 -82 33 -28 28 -33 39 -33 81 0 52 25 92 70 112 37 16 96 3 129 -30z"/> <path d="M1593 1701 c-151 -38 -207 -231 -99 -343 41 -42 85 -61 147 -62 72 -1 127 33 158 98 26 54 32 123 11 137 -8 5 -46 8 -84 7 -53 -2 -71 -7 -80 -20 -17 -27 4 -52 48 -56 22 -2 36 -8 36 -17 0 -21 -59 -65 -86 -65 -58 0 -124 63 -124 118 0 57 64 122 120 122 14 0 38 -7 54 -15 15 -8 34 -15 41 -15 21 0 47 37 41 57 -13 39 -118 70 -183 54z m109 -36 c13 -4 29 -12 36 -18 19 -15 -7 -28 -31 -16 -29 16 -119 8 -149 -13 -68 -47 -78 -157 -20 -222 51 -57 158 -53 197 8 25 38 16 69 -23 77 -64 13 -56 31 14 34 57 2 76 -14 67 -58 -13 -68 -44 -106 -102 -126 -54 -18 -87 -13 -140 19 -63 39 -91 93 -85 164 6 61 28 99 74 130 51 34 100 40 162 21z"/> <path d="M2044 1701 c-141 -36 -203 -200 -120 -319 105 -151 340 -95 371 89 23 136 -117 264 -251 230z m147 -58 c22 -15 48 -43 57 -62 30 -63 15 -172 -30 -208 -41 -34 -94 -54 -132 -52 -51 4 -131 51 -151 90 -18 34 -20 141 -3 172 19 35 77 81 113 89 43 9 107 -3 146 -29z"/> <path d="M2045 1636 c-62 -22 -95 -69 -95 -136 0 -92 70 -153 165 -143 62 6 107 56 113 126 3 37 -1 63 -12 85 -32 61 -106 91 -171 68z m129 -55 c26 -27 31 -39 31 -81 0 -40 -5 -54 -29 -79 -56 -58 -144 -48 -186 21 -24 40 -25 69 -5 109 39 74 130 88 189 30z"/> <path d="M563 1500 c0 -25 2 -35 4 -22 2 12 2 32 0 45 -2 12 -4 2 -4 -23z"/> <path d="M582 1407 c50 -95 342 -596 346 -593 2 3 -76 141 -172 309 -97 167 -176 309 -176 316 0 6 -5 11 -10 11 -6 0 0 -20 12 -43z"/> <path d="M1222 1140 c-19 -12 -40 -37 -49 -58 -21 -50 -2 -107 46 -139 33 -23 39 -23 313 -23 307 0 323 3 353 60 32 62 10 136 -49 164 -29 14 -75 16 -308 16 -256 0 -275 -1 -306 -20z m622 -39 c36 -34 36 -93 0 -126 l-27 -25 -287 0 -287 0 -22 24 c-18 19 -22 33 -19 72 3 45 6 51 38 67 31 16 63 17 307 15 l271 -3 26 -24z"/> <path d="M1247 1080 c-31 -37 -14 -90 30 -90 15 0 16 -2 3 -11 -11 -7 56 -9 230 -4 135 4 256 8 270 8 46 3 70 63 38 96 -18 20 -29 21 -286 21 -256 0 -268 -1 -285 -20z m562 -28 c21 -39 -1 -42 -281 -42 -230 0 -269 2 -274 15 -4 8 -4 22 0 30 5 13 45 15 275 15 253 0 271 -1 280 -18z m-462 -68 c-3 -3 -12 -4 -19 -1 -8 3 -5 6 6 6 11 1 17 -2 13 -5z"/> <path d="M2366 1111 c-18 -35 -19 -41 -7 -41 11 0 36 59 28 66 -3 3 -13 -8 -21 -25z"/> <path d="M4 2735 c9 -39 31 -55 78 -55 l38 0 0 -510 0 -510 -38 0 c-46 0 -68 -15 -76 -55 -5 -25 -4 -28 6 -14 18 23 53 39 82 39 56 0 56 -1 56 541 -1 552 1 539 -65 539 -24 0 -42 8 -61 28 l-26 27 6 -30z"/> <path d="M2970 2735 c-16 -17 -34 -25 -56 -25 -65 0 -64 12 -64 -546 0 -473 1 -502 18 -517 10 -10 30 -17 45 -17 14 0 40 -12 57 -26 l31 -27 -7 29 c-9 39 -30 54 -76 54 l-38 0 0 510 0 510 38 0 c46 0 69 15 78 53 8 33 4 34 -26 2z"/> <path d="M83 1592 c-13 -8 -21 -162 -9 -181 4 -7 38 -11 86 -11 68 0 81 3 90 19 14 27 13 154 -2 169 -13 13 -145 17 -165 4z m151 -93 l-1 -71 -72 -1 -71 -2 0 73 0 72 73 0 72 0 -1 -71z"/> <path d="M2750 1581 c-5 -11 -10 -47 -10 -81 0 -94 6 -100 100 -100 48 0 82 4 86 11 11 18 4 162 -8 176 -7 8 -36 13 -84 13 -62 0 -75 -3 -84 -19z m160 -78 l0 -78 -71 2 -72 1 -1 71 -1 70 70 4 c39 1 71 4 73 5 1 1 2 -33 2 -75z"/> <path d="M5 1395 c10 -40 31 -55 77 -55 l38 0 0 -510 0 -510 -38 0 c-47 0 -69 -16 -78 -55 l-7 -30 30 28 c19 17 40 27 60 27 64 0 63 -10 63 540 0 550 1 540 -63 540 -20 0 -41 9 -60 28 l-29 27 7 -30z"/> <path d="M2970 1395 c-16 -17 -34 -25 -56 -25 -65 0 -64 11 -64 -540 0 -550 -1 -540 63 -540 20 0 41 -10 60 -27 l30 -28 -7 30 c-9 39 -31 55 -78 55 l-38 0 0 510 0 510 38 0 c45 0 67 15 76 53 8 33 6 34 -24 2z"/> <path d="M75 250 c-8 -13 -9 -166 0 -179 3 -6 40 -11 85 -11 68 0 81 3 90 19 14 27 13 154 -2 169 -15 15 -164 16 -173 2z m159 -89 l1 -71 -72 0 -73 0 0 73 0 72 71 -2 72 -2 1 -70z"/> <path d="M1410 241 c-5 -11 -10 -47 -10 -81 0 -94 6 -100 100 -100 94 0 100 6 100 100 0 94 -6 100 -100 100 -68 0 -81 -3 -90 -19z m162 -79 l3 -72 -75 0 -75 0 3 72 3 73 69 0 69 0 3 -73z"/> <path d="M2752 248 c-17 -17 -15 -148 2 -170 10 -14 28 -18 82 -18 38 0 75 4 82 8 9 6 12 33 10 98 l-3 89 -80 3 c-54 2 -84 -1 -93 -10z m158 -85 l0 -73 -72 0 -73 0 2 72 c1 40 2 73 2 73 1 0 33 0 71 0 l70 0 0 -72z"/> <path d="M306 128 c-9 -12 -16 -34 -16 -47 0 -14 -12 -38 -27 -54 l-28 -30 30 7 c39 9 55 31 55 78 l0 38 510 0 510 0 0 -38 c0 -44 15 -67 48 -75 27 -6 28 4 2 28 -12 11 -20 31 -20 50 0 67 19 65 -543 65 l-506 0 -15 -22z"/> <path d="M1647 132 c-10 -10 -17 -31 -17 -47 0 -18 -11 -40 -27 -58 l-28 -29 30 7 c40 10 55 31 55 77 l0 38 510 0 510 0 0 -38 c0 -43 15 -67 48 -77 28 -8 29 10 2 27 -13 8 -20 24 -20 43 0 17 -7 41 -16 53 l-15 22 -508 0 c-479 0 -509 -1 -524 -18z"/> <path d="M0 78 c0 -25 24 -60 46 -68 15 -6 28 -9 30 -7 2 2 -14 21 -36 42 -22 22 -40 36 -40 33z"/> <path d="M2955 40 c-41 -42 -41 -46 0 -30 22 8 52 56 42 66 -2 2 -21 -14 -42 -36z"/> </g> </svg> 